<svg width="306" height="245" viewBox="0 0 306 245" fill="none" xmlns="http://www.w3.org/2000/svg">
<g clip-path="url(#clip0_13712_4386)">
<circle cx="153.273" cy="142.891" r="95.8982" fill="#0076CC" fill-opacity="0.1"/>
<circle cx="63.3852" cy="78.1396" r="6.01071" fill="#0076CC" fill-opacity="0.1"/>
<circle cx="186.605" cy="35.7916" r="11.2018" fill="#0076CC" fill-opacity="0.1"/>
<circle cx="72.4015" cy="219.392" r="10.6554" fill="#0076CC" fill-opacity="0.1"/>
<circle cx="256.002" cy="194.256" r="10.6554" fill="#0076CC" fill-opacity="0.1"/>
<circle cx="235.237" cy="206.277" r="5.19107" fill="#0076CC" fill-opacity="0.1"/>
<path d="M158.751 51.6581C158.434 51.5907 158.434 51.1386 158.751 51.0712L163.541 50.0526C163.656 50.0281 163.747 49.9381 163.772 49.8228L164.803 45.0667C164.871 44.7515 165.321 44.7515 165.389 45.0667L166.421 49.8228C166.446 49.9381 166.536 50.0281 166.651 50.0526L171.441 51.0712C171.758 51.1386 171.758 51.5907 171.441 51.6581L166.651 52.6767C166.536 52.7012 166.446 52.7912 166.421 52.9065L165.389 57.6626C165.321 57.9778 164.871 57.9778 164.803 57.6626L163.772 52.9065C163.747 52.7912 163.656 52.7012 163.541 52.6767L158.751 51.6581Z" fill="#3AA5E1"/>
<path d="M49.3001 149.516C49.4223 148.938 50.2469 148.938 50.3692 149.516L52.1958 158.145C52.2403 158.356 52.404 158.52 52.6141 158.566L61.1545 160.427C61.728 160.552 61.728 161.369 61.1545 161.494L52.6141 163.355C52.404 163.401 52.2403 163.565 52.1958 163.776L50.3692 172.405C50.2469 172.983 49.4223 172.983 49.3001 172.405L47.4734 163.776C47.4289 163.565 47.2652 163.401 47.0552 163.355L38.5148 161.494C37.9413 161.369 37.9413 160.552 38.5148 160.427L47.0552 158.566C47.2652 158.52 47.4289 158.356 47.4734 158.145L49.3001 149.516Z" fill="#3AA5E1"/>
<path d="M238.978 80.6652C239.1 80.0875 239.924 80.0875 240.047 80.6652L241.112 85.6995C241.157 85.9098 241.321 86.0745 241.531 86.1202L246.527 87.2087C247.101 87.3337 247.101 88.1516 246.527 88.2765L241.531 89.365C241.321 89.4108 241.157 89.5755 241.112 89.7858L240.047 94.82C239.924 95.3977 239.1 95.3977 238.978 94.82L237.912 89.7858C237.867 89.5755 237.704 89.4108 237.494 89.365L232.497 88.2765C231.924 88.1516 231.924 87.3337 232.497 87.2087L237.494 86.1202C237.704 86.0745 237.867 85.9098 237.912 85.6995L238.978 80.6652Z" fill="#3AA5E1"/>
<path d="M261.006 161.378L262.679 169.283L270.472 170.981L262.679 172.678L261.006 180.584L259.332 172.678L251.54 170.981L259.332 169.283L261.006 161.378Z" fill="white"/>
<path d="M207.642 99.4502L78.4121 148.902L106.007 225.675L122.673 233.052L143.437 237.423L164.475 236.604L176.769 234.418L187.698 231.139L205.73 221.85L221.03 209.829L222.211 208.302C228.879 199.682 234.791 190.504 239.882 180.868L207.642 99.4502Z" fill="#28A5FF"/>
<path d="M88.2476 127.044L74.5869 119.394L193.162 74.5869L186.878 90.1601L191.523 104.64L93.4387 142.071L88.2476 127.044Z" fill="#B8DBF4" stroke="#3AA5E1" stroke-width="2"/>
<path d="M105.46 225.401V225.401C117.417 231.514 130.362 235.462 143.695 237.062L144.028 237.102L153.535 237.102C160.656 237.102 167.756 236.345 174.717 234.842L177.073 234.333C184.515 232.726 191.7 230.102 198.426 226.536V226.536C203.674 223.752 208.608 220.414 213.143 216.577L214.615 215.331C218.55 212.001 222.202 208.349 225.532 204.414V204.414C230.195 198.904 234.2 192.869 237.466 186.432L240.428 180.594" stroke="#3AA5E1" stroke-width="2"/>
<path d="M77.3638 147.762L106.007 225.93" stroke="#3AA5E1" stroke-width="2"/>
<path d="M208.78 99.4023L240.203 181.508" stroke="#3AA5E1" stroke-width="2"/>
<path d="M72.4461 119.621L194.843 73.6287" stroke="#3AA5E1" stroke-width="2"/>
<path d="M76.7312 149.17L207.059 98.9095L187.846 89.9868C187.294 89.7306 187.058 89.0733 187.32 88.5244L194.011 74.524" stroke="#3AA5E1" stroke-width="2"/>
<path d="M73.5442 119.244L87.3209 126.63C87.8446 126.911 88.048 127.558 87.7788 128.088L77.3639 148.582" stroke="#3AA5E1" stroke-width="2"/>
<path d="M72.9927 118.254L81.8697 140.443" stroke="#3AA5E1" stroke-width="2"/>
<path d="M87.9746 127.863L93.4389 143.163" stroke="#3AA5E1" stroke-width="2"/>
<path d="M187.425 89.6133L192.889 105.46" stroke="#3AA5E1" stroke-width="2"/>
<path d="M194.106 74.7793L201.949 96.3971" stroke="#3AA5E1" stroke-width="2"/>
<circle cx="128.684" cy="141.798" r="4.7375" fill="#A71B4A" fill-opacity="0.3" stroke="#3AA5E1" stroke-width="2"/>
<circle cx="120.487" cy="112.291" r="3.09821" fill="#3AA5E1" stroke="#3AA5E1" stroke-width="2"/>
<circle cx="164.748" cy="128.137" r="4.7375" fill="#A71B4A" fill-opacity="0.3" stroke="#3AA5E1" stroke-width="2"/>
<circle cx="145.623" cy="103.002" r="3.09821" fill="#3AA5E1" stroke="#3AA5E1" stroke-width="2"/>
</g>
<defs>
<clipPath id="clip0_13712_4386">
<rect width="306" height="245" fill="white"/>
</clipPath>
</defs>
</svg>
