<svg width="292" height="207" viewBox="0 0 292 207" fill="none" xmlns="http://www.w3.org/2000/svg">
<path d="M84.9078 190.386H265.917C282.587 161.659 289.598 127.401 285.505 94.4188C284.132 83.3549 281.46 72.2171 275.544 62.7752C269.629 53.3333 260.075 45.7292 249.049 44.2059C234.872 42.251 221.502 50.2251 207.94 54.7949C187.675 61.6219 165.316 60.8819 144.768 54.9614C122.299 48.4921 100.845 35.9111 77.4776 36.6882C56.2212 37.3974 36.2822 49.7132 23.7118 66.9072C11.1414 84.095 5.45948 105.668 4.90544 126.969C4.35141 148.27 8.6544 169.43 14.5518 189.905L84.9078 190.392V190.386Z" fill="#D6EDF1"/>
<path d="M44.3703 42.1276C50.9202 37.8969 58.2765 34.7455 66.0207 33.8636C68.6062 33.5676 71.6472 33.2901 72.9953 31.0576C74.1157 29.2013 73.4447 26.6604 71.9365 25.094C70.4345 23.5337 68.2922 22.7628 66.1869 22.2447C55.5064 19.6175 43.964 22.3187 34.5885 28.085C31.1104 30.225 27.8478 32.8029 25.367 36.053C22.8861 39.303 21.2179 43.2623 21.1378 47.3512C21.0948 49.4788 21.501 51.6558 22.566 53.4936C23.4648 55.0416 25.133 57.0767 27.0783 56.3243C29.0051 55.5781 30.9258 52.8399 32.4463 51.4585C36.1891 48.0665 40.1165 44.8781 44.3641 42.1338L44.3703 42.1276Z" fill="#D6EDF1"/>
<path d="M225.429 206.112H224.34L241.601 190.355H242.691L225.429 206.112Z" fill="#F58249"/>
<path d="M170.586 207L171.565 206.112H225.429L224.456 207H170.586Z" fill="#F58249"/>
<path d="M241.6 190.355L227.842 202.917L224.339 206.112H171.564L179.567 198.804L188.82 190.355H241.6Z" fill="#F5AD49"/>
<g style="mix-blend-mode:screen" opacity="0.5">
<path d="M227.842 202.918L224.339 206.112H171.559L179.567 198.804C183.994 197.842 188.721 197.83 193.289 197.904C201.599 198.039 209.953 198.317 218.122 199.865C221.434 200.494 224.826 201.419 227.842 202.918Z" fill="#F5AD49"/>
</g>
<path d="M264.544 0H168.357V185.249H264.544V0Z" fill="#A4D7E0"/>
<path d="M259.238 7.30176H173.658V185.248H259.238V7.30176Z" fill="#1C484F"/>
<g style="mix-blend-mode:multiply" opacity="0.5">
<path d="M259.238 160.752H173.658V185.248H259.238V160.752Z" fill="#1F4F57"/>
</g>
<path d="M206.641 166.938L259.261 185.248V7.30176L206.641 13.0125V166.938Z" fill="#E6E6E6"/>
<path d="M209.811 34.8626V20.1786L255.038 16.3057V32.8768L254.804 32.8891L209.811 34.8688V34.8626ZM210.303 20.635V34.3507L254.546 32.4019V16.8422L210.303 20.635Z" fill="#80C8D4"/>
<path d="M255.038 177.132L254.718 177.027L209.811 162.208V122.46L255.038 132.174V177.138V177.132ZM210.303 161.85L254.546 176.454V132.568L210.303 123.065V161.85Z" fill="#80C8D4"/>
<path d="M255.038 116.201L232.396 112.303V41.1159L255.038 40.604V116.201ZM232.889 111.89L254.545 115.615V41.1097L232.889 41.6031V111.89Z" fill="#80C8D4"/>
<path d="M229.707 111.847L209.805 108.424V41.6401L229.707 41.1899V111.853V111.847ZM210.297 108.005L229.214 111.261V41.6895L210.297 42.115V108.005Z" fill="#80C8D4"/>
<path d="M238.884 123.534L223.568 120.481V114.647L238.884 117.472V123.54V123.534ZM224.061 120.074L238.392 122.929V117.872L224.061 115.227V120.068V120.074Z" fill="#80C8D4"/>
<path d="M2.5293 190.226H283.873" stroke="#1C484F" stroke-miterlimit="10"/>
<path style="mix-blend-mode:multiply" opacity="0.5" d="M66.7179 189.566L40.2597 205.391H0L30.1948 188.246L66.7179 189.566Z" fill="url(#paint0_linear_404_10233)"/>
<path d="M66.7185 152.255V155.308H21.2324L28.6134 152.816L30.2632 152.255H66.7185Z" fill="#C7762F"/>
<path d="M60.7347 155.308H21.2383V193.038H60.7347V155.308Z" fill="#F5AD49"/>
<path d="M39.6139 187.087H23.0176V189.4H39.6139V187.087Z" fill="#C7762F"/>
<path d="M34.1536 184.404H23.0176V186.088H34.1536V184.404Z" fill="#C7762F"/>
<path d="M57.6877 160.753C57.6877 162.424 56.3334 163.781 54.6651 163.781C52.9969 163.781 51.6426 162.424 51.6426 160.753C51.6426 159.082 52.9969 157.725 54.6651 157.725C56.3334 157.725 57.6877 159.082 57.6877 160.753Z" fill="#C7762F"/>
<g style="mix-blend-mode:screen" opacity="0.5">
<path d="M21.2324 193.038H23.0176L23.0176 155.308H21.2324L21.2324 193.038Z" fill="#F5AD49"/>
</g>
<path d="M66.7182 152.255V189.566L60.7285 193.038V155.308L62.3291 154.494L66.7182 152.255Z" fill="#E38C3B"/>
<g style="mix-blend-mode:multiply" opacity="0.5">
<path d="M66.7179 182.566V189.56L60.7344 193.032V155.301L62.3349 154.487C62.181 160.223 62.4273 165.971 63.0798 171.669C63.3876 174.358 63.8 177.078 64.8896 179.551C65.3636 180.624 65.9731 181.654 66.7179 182.56V182.566Z" fill="#E38C3B"/>
</g>
<g style="mix-blend-mode:multiply" opacity="0.5">
<path d="M66.7184 152.255V152.674C49.6173 154.876 35.1693 153.642 28.6133 152.81L30.2631 152.249H66.7184V152.255Z" fill="#C7762F"/>
</g>
<path d="M60.7293 125.311V127.562H27.2227L32.6583 125.724L33.8711 125.311H60.7293Z" fill="#C7762F"/>
<path d="M56.3217 127.562H27.2227V155.357H56.3217V127.562Z" fill="#F5AD49"/>
<path d="M40.7589 150.978H28.5332V152.686H40.7589V150.978Z" fill="#C7762F"/>
<path d="M36.739 148.999H28.5332V150.238H36.739V148.999Z" fill="#C7762F"/>
<path d="M54.0754 131.57C54.0754 132.804 53.0782 133.796 51.8531 133.796C50.6281 133.796 49.6309 132.797 49.6309 131.57C49.6309 130.343 50.6281 129.344 51.8531 129.344C53.0782 129.344 54.0754 130.343 54.0754 131.57Z" fill="#C7762F"/>
<g style="mix-blend-mode:screen" opacity="0.5">
<path d="M27.222 155.357H28.5332L28.5332 127.562H27.222L27.222 155.357Z" fill="#F5AD49"/>
</g>
<path d="M60.7299 125.311V152.797L56.3223 155.357V127.562L57.498 126.963L60.7299 125.311Z" fill="#E38C3B"/>
<g style="mix-blend-mode:multiply" opacity="0.5">
<path d="M60.7299 147.648V152.804L56.3223 155.363V127.568L57.498 126.97C57.3872 131.2 57.5658 135.431 58.0459 139.631C58.2737 141.611 58.5753 143.615 59.3756 145.44C59.7203 146.236 60.1759 146.988 60.7238 147.66L60.7299 147.648Z" fill="#E38C3B"/>
</g>
<g style="mix-blend-mode:multiply" opacity="0.5">
<path d="M60.7295 125.31V125.619C48.1283 127.241 37.4847 126.334 32.6523 125.717L33.8651 125.304H60.7233L60.7295 125.31Z" fill="#C7762F"/>
</g>
<path d="M233.317 102.066C235.545 104.422 237.626 106.926 239.553 109.541C241.473 112.162 243.234 114.9 244.859 117.719C248.109 123.362 250.756 129.337 252.966 135.455C255.139 141.592 256.888 147.876 258.304 154.222C259.012 157.398 259.646 160.586 260.224 163.781C260.791 166.982 261.308 170.189 261.8 173.402L260.908 173.544C260.384 170.343 259.83 167.148 259.227 163.966C258.636 160.778 258.002 157.601 257.3 154.444C255.89 148.129 254.235 141.863 252.111 135.751C250.024 129.634 247.457 123.67 244.354 117.996C242.809 115.153 241.116 112.39 239.276 109.732C237.447 107.062 235.459 104.496 233.311 102.066H233.317Z" fill="#1C2540"/>
<path d="M251.297 79.5747C254.295 86.8211 257.293 94.0798 259.54 101.61C260.106 103.491 260.617 105.384 261.066 107.296C261.3 108.252 261.497 109.214 261.7 110.176C261.885 111.138 262.045 112.113 262.217 113.075C262.845 116.954 263.289 120.864 263.492 124.786C263.953 132.631 263.793 140.494 263.763 148.332C263.75 152.254 263.769 156.171 263.904 160.081C264.058 163.991 264.341 167.894 264.815 171.773L263.917 171.884C263.479 167.968 263.233 164.04 263.11 160.111C263.012 156.183 263.03 152.254 263.079 148.326C263.19 140.481 263.424 132.637 263.036 124.811C262.87 120.895 262.464 116.997 261.879 113.13C261.713 112.168 261.565 111.2 261.393 110.238C261.202 109.276 261.011 108.32 260.789 107.364C260.358 105.452 259.866 103.559 259.324 101.678C257.157 94.1415 254.227 86.8519 251.303 79.5747H251.297Z" fill="#1C2540"/>
<path d="M288.092 103.528C272.986 122.394 265.395 147.037 267.205 171.04L266.3 171.102C264.774 146.846 272.752 122.209 288.086 103.528H288.092Z" fill="#1C2540"/>
<path d="M270.153 191.798H254.868C253.421 191.798 252.215 190.701 252.079 189.257L250.355 171.077H274.659L272.935 189.257C272.8 190.701 271.593 191.798 270.147 191.798H270.153Z" fill="#7C0A36"/>
<g style="mix-blend-mode:multiply" opacity="0.5">
<path d="M274.154 176.461L274.659 171.077H250.355L250.866 176.461H274.154Z" fill="#7C0A36"/>
</g>
<path d="M276.174 167.444H248.848V172.434H276.174V167.444Z" fill="#7C0A36"/>
<path d="M291.255 107.513C290.399 109.067 289.032 110.269 287.783 111.533C287.161 112.163 286.564 112.816 285.991 113.488C283.732 116.134 281.861 119.107 280.439 122.289C279.398 124.614 278.598 127.05 278.069 129.548C278.025 129.745 277.989 129.942 277.945 130.14C277.281 133.538 277.028 137.028 276.025 140.353C275.803 141.08 275.397 142.166 274.843 143.3C273.581 145.891 271.543 148.74 269.216 148.129C268.927 148.061 268.632 147.932 268.336 147.741C267.745 147.371 267.265 146.859 266.877 146.261C265.48 144.102 265.246 140.76 265.437 138.225C265.474 137.725 265.529 137.263 265.591 136.843C266.028 133.982 267.043 131.262 268.121 128.561C268.576 127.414 269.056 126.273 269.5 125.126C270.331 122.986 271.075 120.803 271.876 118.65C272.707 116.399 273.587 114.167 274.677 112.033C275.526 110.356 276.53 108.727 277.693 107.241C279.435 105.015 281.534 103.103 284.052 101.839C285.234 101.247 286.527 100.797 287.85 100.815C289.174 100.84 290.534 101.382 291.31 102.455C292.35 103.899 292.11 105.952 291.248 107.513H291.255Z" fill="#80D4A9"/>
<g style="mix-blend-mode:screen" opacity="0.19">
<path d="M291.255 107.512C290.399 109.066 289.033 110.269 287.783 111.533C287.161 112.162 286.564 112.816 285.992 113.488C285.506 113.729 285.019 113.981 284.539 114.253C282.692 115.326 280.944 116.892 280.458 118.977C280.205 120.056 280.31 121.172 280.433 122.282C279.393 124.607 278.592 127.043 278.063 129.541C278.02 129.739 277.983 129.936 277.94 130.133C276.53 131.761 274.96 133.322 274.345 135.344C273.865 136.936 274.025 138.638 274.308 140.272C274.48 141.277 274.696 142.276 274.831 143.288C273.569 145.878 271.532 148.727 269.205 148.117C268.915 148.049 268.62 147.919 268.324 147.728C267.733 147.358 267.253 146.846 266.865 146.248C265.468 144.089 265.234 140.747 265.425 138.212C266.428 137.133 267.684 136.245 268.337 134.925C269.315 132.958 268.688 130.768 268.109 128.548C268.564 127.401 269.045 126.26 269.488 125.113C270.319 122.973 271.064 120.79 271.864 118.638C273.545 117.497 275.287 116.368 276.253 114.654C277.33 112.73 277.244 110.398 277.527 108.209C277.571 107.882 277.62 107.555 277.681 107.228C279.423 105.002 281.523 103.09 284.04 101.826C285.222 101.234 286.515 100.784 287.839 100.802C289.162 100.827 290.523 101.37 291.298 102.443C292.339 103.886 292.099 105.94 291.237 107.5L291.255 107.512Z" fill="#80D4A9"/>
</g>
<path d="M268.103 117.263C267.968 119.921 268.374 122.572 268.522 125.23C268.546 125.736 268.571 126.236 268.571 126.741C268.59 128.918 268.337 131.102 267.42 133.05C266.269 135.505 262.883 138.915 260.31 136.467C259.343 135.554 258.654 134.401 258.174 133.137C257.33 130.929 257.121 128.388 257.189 126.193C257.281 123.171 257.804 120.13 257.761 117.121C257.755 116.214 257.694 115.308 257.552 114.407C257.392 113.377 257.133 112.378 256.807 111.404C255.016 106.094 251.082 101.53 248.829 96.3004C248.337 95.1533 247.93 93.9754 247.604 92.779C246.588 89.0047 246.397 85.0084 247.075 81.1601C247.167 80.6235 247.278 80.0932 247.407 79.569C247.967 77.2563 249.217 74.6908 251.482 74.1542C251.568 74.1295 251.661 74.111 251.747 74.0987C254.252 73.6978 256.345 75.9365 257.767 78.0457C259.423 80.5002 260.882 83.0781 262.274 85.6929C262.889 86.84 263.486 87.9933 264.083 89.1465C265.942 92.7235 267.826 96.4299 268.842 100.291C269.347 102.227 269.642 104.194 269.599 106.205V106.334C269.494 110.016 268.276 113.593 268.085 117.269L268.103 117.263Z" fill="#80D4A9"/>
<g style="mix-blend-mode:screen" opacity="0.19">
<path d="M268.264 125.569C268.375 125.958 268.48 126.347 268.578 126.741C268.597 128.918 268.344 131.101 267.427 133.05C266.276 135.505 262.89 138.915 260.317 136.467C259.351 135.554 258.661 134.401 258.181 133.137C258.858 133.069 259.48 132.822 260.022 132.316C260.908 131.484 261.327 130.263 261.456 129.048C261.893 124.86 259.24 121.117 257.775 117.114C257.768 116.208 257.707 115.301 257.565 114.401C257.405 113.371 257.147 112.372 256.82 111.397C256.882 107.494 257.842 103.442 255.86 100.161C253.933 96.9848 249.84 95.7267 247.624 92.7726C246.608 88.9983 246.417 85.002 247.094 81.1537C247.186 80.8824 247.279 80.611 247.377 80.352C247.999 78.6807 248.725 77.0156 249.864 75.6465C250.338 75.0791 250.886 74.5672 251.496 74.1479C251.582 74.1232 251.674 74.1047 251.76 74.0924C254.266 73.6915 256.359 75.9302 257.781 78.0393C259.437 80.4939 260.896 83.0717 262.287 85.6866C262.299 86.18 262.312 86.6733 262.33 87.1667C262.429 90.2071 262.792 93.414 264.589 95.8624C265.63 97.2685 267.064 98.323 268.258 99.5935C268.467 99.8093 268.664 100.044 268.855 100.284C269.36 102.221 269.656 104.188 269.612 106.198C269.292 106.828 268.898 107.426 268.547 108.036C266.91 110.886 266.153 114.24 266.405 117.521C266.621 120.272 267.513 122.918 268.258 125.569H268.264Z" fill="#80D4A9"/>
</g>
<path d="M259.977 140.081C259.965 140.328 259.946 140.58 259.922 140.827C259.737 142.887 259.3 147.71 256.653 148.185C254.775 148.518 252.048 145.218 250.552 144.176C249.715 143.596 248.853 143.016 248.035 142.394C246.724 141.407 245.505 140.309 244.612 138.909C243.793 137.626 243.325 136.208 243.024 134.728C242.537 132.378 242.457 129.868 242.02 127.494C241.823 126.433 241.559 125.397 241.226 124.379C240.014 120.654 237.957 117.232 235.569 114.031C234.393 112.446 233.137 110.916 231.857 109.43C231.414 108.918 230.964 108.388 230.527 107.839C229.025 105.921 227.751 103.8 227.985 101.444C228.287 98.391 231.291 96.0537 234.35 95.9119C237.41 95.7638 240.334 97.4536 242.328 99.7848C242.901 100.445 243.399 101.16 243.849 101.906C244.975 103.769 245.782 105.847 246.465 107.932C246.951 109.418 247.394 110.916 247.881 112.403C248.355 113.827 248.866 115.246 249.518 116.596C250.177 117.984 250.971 119.291 251.814 120.574C253.557 123.214 255.526 125.718 257.084 128.437C257.675 129.461 258.204 130.516 258.635 131.62C259.694 134.296 260.131 137.201 259.977 140.075V140.081Z" fill="#80D4A9"/>
<g style="mix-blend-mode:screen" opacity="0.19">
<path d="M259.978 140.081C259.966 140.328 259.947 140.581 259.922 140.827C259.738 142.887 259.301 147.71 256.654 148.185C254.776 148.518 252.049 145.218 250.553 144.176C249.716 143.596 248.854 143.017 248.035 142.394C248.355 140.827 248.645 139.168 247.906 137.775C246.995 136.048 244.927 135.462 243.018 134.728C242.532 132.378 242.452 129.868 242.015 127.494C241.818 126.433 241.553 125.397 241.221 124.379C241.763 123.331 242.273 122.27 242.606 121.136C243.277 118.86 242.988 116.035 241.055 114.66C239.639 113.655 237.749 113.698 236.031 113.957C235.877 113.982 235.717 114.006 235.557 114.037C234.382 112.452 233.126 110.923 231.845 109.437C231.402 108.925 230.953 108.394 230.516 107.845C232.861 105.995 235.502 104.497 238.291 103.43C240.008 102.77 241.787 102.276 243.603 101.956C243.683 101.943 243.757 101.931 243.837 101.913C244.964 103.775 245.77 105.853 246.453 107.938C246.94 109.424 247.383 110.923 247.869 112.409C247.654 112.915 247.451 113.427 247.291 113.951C246.693 115.918 246.853 118.367 248.479 119.618C249.414 120.34 250.59 120.507 251.803 120.581C253.545 123.22 255.515 125.724 257.072 128.444C256.58 129.554 255.983 130.621 255.539 131.749C254.881 133.445 254.604 135.474 255.564 137.016C256.512 138.533 258.377 139.193 259.966 140.087L259.978 140.081Z" fill="#80D4A9"/>
</g>
<path style="mix-blend-mode:multiply" opacity="0.5" d="M183.673 196.985C201.023 196.985 215.087 195.794 215.087 194.326C215.087 192.858 201.023 191.668 183.673 191.668C166.324 191.668 152.26 192.858 152.26 194.326C152.26 195.794 166.324 196.985 183.673 196.985Z" fill="url(#paint1_radial_404_10233)"/>
<path d="M177.605 142.887C178.067 149.307 178.091 155.141 177.845 160.321C177.002 178.12 173.031 188.283 173.031 188.283L167.06 188.147L163.317 133.963L162.898 127.864C164.136 127.753 165.367 127.629 166.58 127.524C171.387 127.105 176.177 126.464 180.948 125.742C179.575 135.474 177.611 142.887 177.611 142.887H177.605Z" fill="#C7683C"/>
<g style="mix-blend-mode:multiply" opacity="0.5">
<path d="M177.605 142.887C178.067 149.307 178.092 155.141 177.845 160.321L176.509 146.007C175.875 139.18 170.157 133.963 163.311 133.963L162.893 127.864C164.13 127.753 165.361 127.629 166.574 127.524C171.382 127.105 176.171 126.464 180.942 125.742C179.569 135.474 177.605 142.887 177.605 142.887Z" fill="#C7683C"/>
</g>
<path d="M173.77 188.018C173.77 188.018 174.927 191.552 174.195 193.513H158.848C158.848 193.513 157.844 190.682 162.203 190.991L166.598 188.289L166.056 179.285C166.056 179.285 168.525 177.583 170.378 179.982L175.74 180.445L173.776 188.018H173.77Z" fill="#E6E6E6"/>
<path d="M170.372 179.982C170.372 179.982 169.295 187.358 168.968 188.289C168.636 189.215 167.017 191.651 165.25 191.669C163.471 191.688 162.203 190.991 162.203 190.991L166.598 188.289L166.057 179.285C166.057 179.285 168.525 177.583 170.378 179.982H170.372Z" fill="#A9C0C4"/>
<path d="M190.181 124.151C187.767 124.638 185.324 125.064 182.849 125.446C179.968 125.896 177.081 126.316 174.188 126.692C180.62 145.397 189.251 168.079 196.921 183.442C199.334 184.213 200.726 181.925 202.745 181.505C202.351 167.21 196.761 152.495 191.504 139.476C191.233 135.005 190.858 129.707 190.181 124.151Z" fill="#D4774C"/>
<path d="M203.872 181.049C203.872 181.049 206.414 183.756 206.58 185.841L192.68 192.359C192.68 192.359 190.575 190.226 194.65 188.653L197.488 184.342L193.191 176.417C193.191 176.417 194.706 173.827 197.396 175.215L202.45 173.358L203.872 181.049Z" fill="#E6E6E6"/>
<path d="M197.396 175.215C197.396 175.215 199.538 182.356 199.637 183.337C199.729 184.317 199.292 187.21 197.698 187.974C196.097 188.745 194.65 188.659 194.65 188.659L197.488 184.348L193.191 176.423C193.191 176.423 194.706 173.833 197.396 175.221V175.215Z" fill="#A9C0C4"/>
<path d="M197.255 106.852C195.71 107.34 194.238 107.999 192.681 108.394C189.745 99.9205 186.648 90.7932 182.813 83.0904C181.939 81.3328 181.089 79.6923 180.246 78.1197C179.058 75.8872 177.895 73.7966 176.719 71.7244C179.224 70.7068 181.68 69.5659 184.137 68.425C184.949 68.0488 185.774 67.6726 186.587 67.2964C187.51 69.35 188.341 71.4469 189.104 73.5499C189.732 75.289 190.317 77.0343 190.865 78.7673C193.82 88.1351 195.667 97.2193 197.261 106.865L197.255 106.852Z" fill="#D4774C"/>
<path d="M194.497 104.323C194.497 104.323 195.592 104.749 196.756 105.884C197.919 107.024 198.061 109.312 198.738 110.305C199.415 111.298 200.049 112.125 199.822 112.402C199.594 112.68 199.187 112.285 197.987 110.823C197.987 110.823 197.236 110.256 197.581 111.113C197.919 111.964 199.237 113.722 198.83 114.166C198.498 114.524 196.799 111.773 196.596 111.73C196.393 111.687 197.975 115.344 197.316 115.856C196.657 116.368 195.986 111.977 195.5 111.921C195.014 111.866 195.857 114.974 195.426 115.128C194.484 115.473 194.177 110.379 193.758 110.484C193.339 110.589 193.013 112.482 192.447 112.365C191.88 112.254 192.619 110.324 192.588 109.935C192.558 109.547 191.751 105.057 194.509 104.323H194.497Z" fill="#D4774C"/>
<path d="M189.098 73.5373L180.246 78.1134C179.058 75.8809 177.895 73.7902 176.719 71.718C179.224 70.7005 181.68 69.5595 184.137 68.4186C184.949 68.0424 185.774 67.6662 186.587 67.29C187.51 69.3437 188.341 71.4405 189.104 73.5435L189.098 73.5373Z" fill="#BF6237"/>
<path d="M188.414 69.7505C188.414 69.7505 181.243 74.678 177.999 74.9062L168.992 58.4523C168.992 58.4523 168.931 57.5396 169.066 56.2815C169.522 51.9891 174.588 49.8862 177.906 52.6244L177.999 52.7045C178.676 53.2781 179.544 54.382 180.479 55.7696C182.973 59.4452 185.989 65.0758 187.479 67.9435C188.057 69.0598 188.408 69.7567 188.408 69.7567L188.414 69.7505Z" fill="#D99434"/>
<g style="mix-blend-mode:multiply" opacity="0.5">
<path d="M188.414 69.7505C188.414 69.7505 181.243 74.678 177.999 74.9062L168.992 58.4523C168.992 58.4523 168.931 57.5396 169.066 56.2815C169.522 51.9891 174.588 49.8862 177.906 52.6244L177.999 52.7045C178.676 53.2781 179.544 54.382 180.479 55.7696C180.178 59.254 179.882 62.7446 179.581 66.2352C179.507 67.0616 179.451 67.9497 179.845 68.6713C180.356 69.6148 181.507 70.0342 182.585 70.0835C184.432 70.1637 186.272 69.3311 187.479 67.9435C188.057 69.0598 188.408 69.7567 188.408 69.7567L188.414 69.7505Z" fill="#D99434"/>
</g>
<path d="M172.741 49.9168V39.6177H165.908V50.4287C164.234 51.033 162.787 52.1801 161.796 53.6911C161.242 54.536 160.731 55.2514 160.27 55.9113C160.904 56.2258 161.575 56.491 162.252 56.7253C162.498 56.6945 162.738 56.6698 162.935 56.6451C164.917 56.4355 166.93 56.0284 168.734 55.1589C170.15 54.4805 171.486 53.6541 172.483 52.4453C172.501 52.3467 172.514 52.248 172.551 52.1493C172.815 51.3599 173.148 50.663 173.542 49.997C173.265 49.9661 172.994 49.9415 172.729 49.9168H172.741Z" fill="#D4774C"/>
<path d="M172.637 42.1587C172.033 43.7992 171.258 45.3039 170.304 46.2475C169.306 47.2404 168.321 47.7955 167.447 48.0976C166.875 48.295 166.351 48.3875 165.908 48.4245V46.6299C166.431 46.673 167.25 46.6422 168.217 46.303C169.091 46.0008 170.082 45.4458 171.079 44.4529C171.67 43.867 172.187 43.0653 172.637 42.1587Z" fill="#BF6237"/>
<path d="M193.652 126.784C193.178 126.907 192.335 127.105 191.221 127.351C185.231 128.677 171.362 131.465 163.901 131.841C163.008 131.884 162.202 131.903 161.518 131.866L160.823 81.5725C160.823 81.5725 160.146 77.4405 159.438 73.1852C158.754 69.1026 158.04 64.9089 157.874 64.1257C157.523 62.5346 157.209 61.517 159.986 56.0097C162.756 50.5086 165.944 50.3976 165.944 50.3976C163.531 50.891 160.921 55.2142 160.921 55.2142C160.921 55.2142 166.492 53.6724 168.561 51.5077C170.629 49.3431 173.128 49.7994 173.128 49.7994C175.24 50.1756 176.594 51.3905 177.462 52.7226C178.62 54.5173 178.983 56.719 178.601 58.8219C178.146 61.3196 177.887 64.545 177.752 67.5854C177.518 72.5993 177.591 77.126 177.591 77.126C185.914 85.3221 184.314 98.2115 184.314 98.2115L193.658 126.771L193.652 126.784Z" fill="#F5AD49"/>
<path d="M172.21 68.0975C171.841 70.6753 171.527 73.2594 171.33 75.8496C171.232 77.1447 171.164 78.4459 171.158 79.741C171.158 80.0679 171.158 80.3886 171.176 80.7093C171.189 81.03 171.195 81.3568 171.232 81.6775L171.275 82.1585C171.293 82.3189 171.324 82.4792 171.349 82.6334C171.404 82.9541 171.453 83.2686 171.509 83.5893C172.537 88.6834 173.712 93.7589 174.888 98.8222L178.385 114.036L180.127 121.647L181.832 129.263C180.527 124.225 179.277 119.174 178.046 114.117C176.815 109.06 175.633 103.99 174.445 98.9208L172.74 91.2982C172.198 88.7512 171.619 86.2165 171.164 83.6448C171.109 83.3241 171.065 82.9973 171.016 82.6704C170.992 82.5101 170.967 82.3436 170.948 82.1832L170.912 81.6898C170.881 81.363 170.875 81.0361 170.868 80.7093C170.856 80.3824 170.862 80.0556 170.868 79.7287C170.893 78.4213 170.979 77.12 171.102 75.8249C171.367 73.2347 171.73 70.6507 172.198 68.0913L172.21 68.0975Z" fill="#C2612D"/>
<g style="mix-blend-mode:screen" opacity="0.5">
<path d="M175.652 59.8764L170.339 76.2008C165.187 85.063 162.614 95.1956 162.977 105.439L163.906 131.841C163.014 131.884 162.207 131.902 161.524 131.865L160.828 81.5724C160.828 81.5724 160.151 77.4404 159.443 73.1851L173.553 57.7734L175.658 59.8703L175.652 59.8764Z" fill="#F5AD49"/>
</g>
<g style="mix-blend-mode:multiply" opacity="0.5">
<path d="M193.653 126.784C193.179 126.907 192.335 127.105 191.221 127.351L181.839 97.9711C183.883 88.8684 175.646 78.5755 175.646 78.5755L177.74 67.5918C177.506 72.6057 177.579 77.1324 177.579 77.1324C185.902 85.3285 184.302 98.2178 184.302 98.2178L193.646 126.778L193.653 126.784Z" fill="#F5AD49"/>
</g>
<path d="M134.211 66.4631C132.802 66.7221 132.198 67.0243 130.961 67.7459C129.047 64.3231 127.188 60.9435 125.605 57.3234C127.255 56.6018 128.942 55.979 130.579 55.2266C132.242 59.0934 133.965 62.1769 134.211 66.4631Z" fill="#67B38B"/>
<path d="M130.906 66.5002C129.022 63.9902 127.988 60.882 126.621 58.0759C126.873 57.9341 126.954 57.7182 126.867 57.4407C127.852 57.0398 128.843 56.6575 129.822 56.2319C129.964 56.4786 130.185 56.565 130.456 56.4786C131.841 59.3525 133.479 62.1154 133.627 65.384C133.35 65.458 133.251 65.6615 133.233 65.939C132.525 66.0253 132.038 66.2535 131.472 66.6914C131.33 66.4879 131.146 66.3892 130.906 66.5002Z" fill="#80D4A9"/>
<path d="M132.235 60.9437C132.635 61.8688 132.136 62.7877 131.243 63.1577C130.351 63.5278 129.384 63.2317 128.997 62.3252C128.609 61.4186 128.978 60.4133 129.889 60.0187C130.8 59.624 131.841 60.0187 132.235 60.9376V60.9437Z" fill="#67B38B"/>
<path d="M131.546 61.0423C131.657 60.9991 131.756 60.9559 131.86 60.9128C131.897 61.0053 131.94 61.0916 131.977 61.1841C131.879 61.2273 131.774 61.2705 131.676 61.3136C131.756 61.5727 131.793 61.8194 131.731 62.0784C131.596 62.0784 131.466 62.0722 131.331 62.0784C131.38 61.8687 131.368 61.6775 131.313 61.474C131.159 61.5418 130.999 61.6097 130.851 61.6775C130.875 62.0537 130.937 62.3497 130.518 62.5471C130.204 62.6889 129.854 62.5039 129.681 62.1894C129.57 62.2325 129.466 62.2757 129.361 62.3189C129.324 62.2264 129.287 62.1339 129.244 62.0475C129.349 62.0044 129.453 61.9674 129.558 61.9242C129.497 61.7145 129.46 61.5048 129.484 61.289C129.62 61.289 129.761 61.289 129.897 61.289C129.884 61.4555 129.897 61.6158 129.94 61.7762C130.1 61.7083 130.26 61.6467 130.408 61.5665C130.389 61.2026 130.272 60.8758 130.697 60.6723C131.011 60.5242 131.38 60.7401 131.553 61.0485L131.546 61.0423ZM130.451 61.8564C130.315 61.9119 130.186 61.9674 130.051 62.029C130.124 62.1215 130.223 62.1832 130.334 62.1339C130.451 62.0845 130.445 61.9674 130.445 61.8625L130.451 61.8564ZM130.912 61.0916C130.802 61.141 130.802 61.2581 130.802 61.3691C130.931 61.3136 131.06 61.2581 131.183 61.2026C131.109 61.1163 131.023 61.0423 130.912 61.0978V61.0916Z" fill="#80D4A9"/>
<path d="M134.076 66.9938C132.648 66.8643 131.989 66.9938 130.598 67.3515C129.674 63.5341 128.794 59.7783 128.246 55.8683C130.025 55.6216 131.823 55.4736 133.596 55.1899C134.156 59.3651 134.981 62.8002 134.076 66.9938Z" fill="#67B38B"/>
<path d="M130.881 66.1426C129.742 63.2194 129.582 59.9446 129.016 56.8734C129.299 56.7994 129.434 56.6205 129.422 56.3307C130.481 56.2135 131.54 56.1086 132.592 55.9668C132.666 56.2443 132.851 56.3862 133.14 56.38C133.7 59.5191 134.537 62.6273 133.799 65.8095C133.509 65.8095 133.362 65.9761 133.269 66.2351C132.568 66.1302 132.032 66.2166 131.373 66.4818C131.293 66.2474 131.139 66.0994 130.881 66.1487V66.1426Z" fill="#80D4A9"/>
<path d="M133.658 61.1476C133.793 62.1466 133.067 62.8929 132.107 63.0162C131.146 63.1334 130.291 62.5907 130.161 61.6101C130.032 60.6295 130.654 59.7661 131.639 59.6304C132.624 59.4948 133.516 60.1546 133.652 61.1537L133.658 61.1476Z" fill="#67B38B"/>
<path d="M132.962 61.0611C133.079 61.0487 133.19 61.0364 133.3 61.0241C133.313 61.1227 133.325 61.2214 133.337 61.3201C133.227 61.3324 133.122 61.3447 133.011 61.3571C133.023 61.6284 132.987 61.8751 132.857 62.1095C132.728 62.0725 132.605 62.0293 132.476 61.9985C132.58 61.8073 132.617 61.6223 132.617 61.4126C132.451 61.4373 132.279 61.4558 132.119 61.4866C132.039 61.8566 132.02 62.1588 131.565 62.2328C131.226 62.2883 130.937 62.0108 130.85 61.6654C130.733 61.6716 130.623 61.6901 130.506 61.7024C130.493 61.6038 130.481 61.5051 130.469 61.4064C130.58 61.3941 130.69 61.3818 130.801 61.3694C130.801 61.1474 130.82 60.9377 130.9 60.7342C131.029 60.7712 131.164 60.8082 131.294 60.8452C131.238 61.0056 131.207 61.1597 131.201 61.3262C131.374 61.3077 131.546 61.2892 131.712 61.2522C131.792 60.8945 131.768 60.5492 132.229 60.469C132.568 60.4135 132.87 60.7157 132.956 61.0611H132.962ZM131.688 61.5483C131.546 61.5668 131.398 61.5853 131.257 61.6038C131.306 61.7086 131.38 61.7949 131.503 61.7764C131.626 61.7579 131.657 61.6469 131.688 61.5421V61.5483ZM132.334 60.9377C132.211 60.9562 132.186 61.0672 132.155 61.1721C132.291 61.1536 132.432 61.1351 132.568 61.1104C132.519 61.0117 132.457 60.9131 132.334 60.9316V60.9377Z" fill="#80D4A9"/>
<path d="M133.799 67.4747C132.463 66.9628 131.792 66.9073 130.357 66.8765C130.493 62.9542 130.659 59.0997 131.176 55.1836C132.961 55.4241 134.722 55.7695 136.513 55.9792C135.929 60.1481 135.805 63.6819 133.799 67.4747Z" fill="#67B38B"/>
<path d="M130.955 65.791C130.648 62.6704 131.374 59.4697 131.651 56.3614C131.94 56.3676 132.119 56.2258 132.193 55.9482C133.245 56.1209 134.292 56.3059 135.345 56.4539C135.345 56.7438 135.48 56.9288 135.757 56.9967C135.449 60.1727 135.425 63.392 133.855 66.2535C133.578 66.1734 133.387 66.2967 133.227 66.5187C132.581 66.2289 132.039 66.1672 131.337 66.2474C131.319 66.0007 131.214 65.8157 130.955 65.791Z" fill="#80D4A9"/>
<path d="M134.968 61.7333C134.826 62.7262 133.934 63.2566 132.973 63.1147C132.013 62.9729 131.342 62.2143 131.484 61.2337C131.625 60.2593 132.456 59.5933 133.441 59.729C134.426 59.8646 135.11 60.7404 134.974 61.7394L134.968 61.7333Z" fill="#67B38B"/>
<path d="M134.327 61.4557C134.444 61.4804 134.549 61.4927 134.666 61.5112C134.654 61.6099 134.641 61.7085 134.623 61.8072C134.512 61.7887 134.407 61.7764 134.296 61.7579C134.235 62.0169 134.136 62.2451 133.946 62.4424C133.835 62.3684 133.724 62.3006 133.607 62.2327C133.755 62.0786 133.847 61.9121 133.903 61.7085C133.736 61.69 133.564 61.6592 133.404 61.6407C133.225 61.9737 133.133 62.2636 132.665 62.2081C132.32 62.1649 132.117 61.8257 132.13 61.468C132.013 61.4433 131.902 61.431 131.791 61.4125C131.803 61.3138 131.822 61.2152 131.834 61.1227C131.945 61.1412 132.056 61.1597 132.167 61.1782C132.222 60.9685 132.302 60.7711 132.431 60.5923C132.548 60.6663 132.665 60.7341 132.782 60.8081C132.684 60.9438 132.616 61.0857 132.567 61.246C132.733 61.2707 132.905 61.3015 133.078 61.3138C133.25 60.9931 133.318 60.6478 133.786 60.6971C134.13 60.7341 134.333 61.1103 134.321 61.4619L134.327 61.4557ZM132.967 61.5852C132.825 61.5605 132.684 61.542 132.536 61.5235C132.554 61.6407 132.604 61.7394 132.727 61.7579C132.85 61.7764 132.905 61.6777 132.967 61.5852ZM133.755 61.172C133.632 61.1597 133.576 61.2583 133.521 61.3508C133.656 61.3693 133.798 61.3878 133.933 61.4063C133.915 61.2953 133.878 61.1843 133.755 61.172Z" fill="#80D4A9"/>
<path d="M169.701 71.9271C168.771 73.2222 167.792 74.4865 166.776 75.7199C166.703 75.8124 166.623 75.9111 166.543 76.0036C165.564 77.1939 163.871 79.0564 162.387 80.666C160.627 82.5716 157.863 83.1328 155.499 82.0659C153.935 81.3567 152.242 80.5796 151.128 80.0369C148.118 78.563 145.237 76.8485 142.368 75.0539C139.5 73.2654 136.656 71.3968 133.719 69.633C132.882 69.1581 131.682 68.3872 131.682 68.3872C130.807 68.2269 130.795 67.2956 130.795 67.2956C130.124 67.2648 130.143 66.5432 130.143 66.5432C129.201 66.2102 129.625 65.353 129.625 65.353C129.625 65.353 130.783 65.8093 130.82 65.6737C130.85 65.538 127.846 63.6509 128.567 63.3918C129.287 63.1266 132.506 65.0446 133.725 65.1433C134.944 65.242 135.153 64.1257 135.153 64.1257L135.418 63.1328C135.418 63.1328 135.923 63.5213 136.095 63.9715C136.268 64.4156 135.966 66.0622 135.966 66.0622C142.436 68.5907 149.251 71.2673 155.85 73.2778C156.681 72.0197 157.475 70.7924 158.244 69.5898C159.279 67.9678 160.27 66.3706 161.273 64.7486C162.141 65.5812 163.04 66.3891 163.945 67.1846C165.816 68.8251 167.731 70.41 169.701 71.9271Z" fill="#D4774C"/>
<path d="M169.701 71.9271C168.771 73.2222 167.792 74.4864 166.777 75.7199C162.818 74.838 159.863 71.7236 158.238 69.5897C159.272 67.9678 160.264 66.3705 161.267 64.7485C162.135 65.5811 163.034 66.389 163.939 67.1846C165.81 68.825 167.725 70.41 169.694 71.9271H169.701Z" fill="#BF6237"/>
<path d="M159.377 66.4757L168.346 53.3459C168.346 53.3459 175.45 50.102 177.192 58.1562L168.999 73.5741C168.999 73.5741 162.621 72.4147 159.383 66.4757H159.377Z" fill="#F5AD49"/>
<path d="M159.807 67.1047C159.647 66.9073 159.487 66.71 159.333 66.5065L159.314 66.4818L159.333 66.4448C159.899 65.5197 160.509 64.6193 161.106 63.7128C161.715 62.8124 162.331 61.9243 162.965 61.0424C163.599 60.1605 164.233 59.2848 164.898 58.4214C165.557 57.558 166.215 56.7007 166.917 55.8682C166.363 56.8056 165.772 57.7121 165.169 58.6187C164.578 59.5253 163.956 60.4133 163.334 61.3014C162.706 62.1895 162.072 63.0652 161.426 63.9348C160.767 64.7982 160.121 65.6677 159.431 66.5065V66.4448C159.567 66.6607 159.69 66.8827 159.819 67.1047H159.807Z" fill="#C2612D"/>
<path d="M168.481 73.5799C168.752 73.7033 169.029 73.8266 169.3 73.9623L169.232 73.987C169.786 72.7104 170.383 71.4523 170.968 70.188C171.565 68.9299 172.174 67.6842 172.796 66.4384C173.424 65.1988 174.046 63.953 174.704 62.7258C175.357 61.4985 176.016 60.2713 176.711 59.0625C176.17 60.3453 175.591 61.6157 175 62.8738C174.421 64.1381 173.806 65.39 173.19 66.6357C172.574 67.8815 171.94 69.1211 171.3 70.3545C170.641 71.5818 170.001 72.8152 169.312 74.0301L169.287 74.0795L169.244 74.0548C168.986 73.9006 168.733 73.7403 168.475 73.5861L168.481 73.5799Z" fill="#C2612D"/>
<path d="M157.783 38.7298C157.949 38.1255 158.356 37.5828 158.731 37.0647C158.965 36.744 159.187 36.3925 159.341 36.0225C159.587 32.9697 160.32 30.0588 160.738 29.2139C161.403 27.9065 164.973 26.7224 168.482 27.3823C171.997 28.0175 174.909 30.398 175.063 31.8596C175.118 32.4147 175.383 34.6349 173.506 40.0804C172.89 41.8319 172.083 43.4539 171.068 44.4529C170.071 45.4459 169.079 46.0009 168.205 46.3031C166.525 46.889 165.287 46.5374 165.287 46.5374L164.616 46.4141C164.616 46.4141 163.003 46.2722 161.477 44.6811C160.935 44.1199 160.412 43.3799 159.969 42.3993C159.667 41.7209 159.47 40.9068 159.359 40.0249C158.879 40.0188 158.393 39.8523 158.023 39.5501C157.783 39.3527 157.685 39.0259 157.771 38.7237L157.783 38.7298Z" fill="#D4774C"/>
<path d="M170.97 38.5326C171.056 38.3106 171.08 38.0824 171.087 37.8481C171.099 37.6199 171.087 37.3917 171.013 37.2067C170.871 36.8305 170.385 36.7935 170.052 37.0217C169.701 37.2437 169.375 37.5952 169.197 37.9838C169.018 38.3846 168.975 38.8533 168.92 39.3282C168.846 38.8657 168.784 38.3785 168.944 37.8913C169.111 37.4041 169.443 37.0217 169.874 36.7318C170.095 36.5962 170.385 36.516 170.662 36.5715C170.945 36.6208 171.204 36.8552 171.265 37.1265C171.339 37.3917 171.302 37.6446 171.253 37.8789C171.191 38.1071 171.124 38.3538 170.97 38.5388V38.5326Z" fill="#BF6237"/>
<path d="M169.794 39.4576C169.899 39.2602 169.942 39.0629 169.973 38.8717C169.997 38.6805 170.004 38.477 169.991 38.2858C169.979 38.0946 169.936 37.9219 169.843 37.7801C169.745 37.6444 169.585 37.5088 169.363 37.5149C169.548 37.3731 169.856 37.4224 170.04 37.5951C170.237 37.7678 170.317 38.0268 170.336 38.2611C170.348 38.4955 170.324 38.7237 170.237 38.9457C170.157 39.1615 170.003 39.3589 169.8 39.4637L169.794 39.4576Z" fill="#BF6237"/>
<path d="M162.216 41.1722C162.118 41.3449 161.951 41.462 161.785 41.5484C161.607 41.6224 161.416 41.6779 161.219 41.6347C161.391 41.536 161.551 41.4744 161.711 41.388C161.877 41.3202 162.031 41.2339 162.216 41.166V41.1722Z" fill="#BF6237"/>
<path d="M162.659 39.6982C162.481 40.2595 162.056 40.7343 161.533 41.0303C161.268 41.1784 160.979 41.2832 160.683 41.314C160.388 41.3634 160.086 41.3202 159.803 41.2462C160.375 41.1413 160.898 41.0057 161.36 40.7282C161.834 40.4691 162.247 40.1114 162.653 39.6982H162.659Z" fill="#BF6237"/>
<path d="M160.819 39.624C160.788 39.7844 160.732 39.8522 160.665 39.9016C160.591 39.9447 160.511 39.9632 160.351 39.9262C160.332 39.7597 160.4 39.6734 160.48 39.6117C160.566 39.5624 160.677 39.5377 160.819 39.624Z" fill="#BF6237"/>
<path d="M161.281 37.0769C161.281 37.5702 161.577 37.9711 161.946 37.9711C162.315 37.9711 162.611 37.5702 162.611 37.0769C162.611 36.5835 162.315 36.1826 161.946 36.1826C161.577 36.1826 161.281 36.5835 161.281 37.0769Z" fill="#5E2B13"/>
<path d="M161.016 36.0715C161.016 36.0715 161.109 36.1455 161.182 36.164C161.256 36.1887 161.336 36.201 161.416 36.2072C161.583 36.2195 161.755 36.2072 161.927 36.1825C162.075 36.164 162.21 36.2688 162.235 36.4168C162.254 36.5649 162.149 36.7005 162.001 36.7252C161.97 36.7252 161.94 36.7252 161.915 36.7252C161.718 36.6882 161.521 36.645 161.324 36.571C161.226 36.5279 161.133 36.4847 161.041 36.4168C160.955 36.3428 160.868 36.2812 160.825 36.1208C160.813 36.0777 160.838 36.0283 160.887 36.016C160.918 36.0098 160.942 36.016 160.967 36.0345L161.016 36.0777V36.0715Z" fill="#5E2B13"/>
<path d="M161.01 34.4806C161.231 34.4621 161.502 34.4436 161.749 34.4559C162.001 34.4559 162.26 34.4806 162.512 34.5176C162.764 34.5546 163.017 34.6224 163.263 34.7026C163.515 34.7828 163.749 34.8938 163.995 35.0048H164.008C164.094 35.048 164.199 35.0048 164.236 34.9246C164.266 34.8568 164.248 34.7766 164.192 34.7273C163.977 34.5299 163.743 34.3449 163.478 34.2092C163.22 34.0551 162.937 33.9564 162.653 33.8701C162.364 33.7837 162.063 33.7405 161.767 33.7344C161.459 33.7344 161.176 33.7467 160.85 33.8454C160.677 33.8947 160.573 34.0797 160.628 34.2524C160.671 34.4066 160.819 34.4991 160.973 34.4868H161.01V34.4806Z" fill="#5E2B13"/>
<path d="M160.424 33.9072C160.387 34.0367 160.437 34.1847 160.535 34.2834C160.634 34.382 160.757 34.4375 160.88 34.4745H160.886C160.978 34.5054 161.077 34.456 161.108 34.3635C161.138 34.271 161.083 34.1724 160.991 34.1415C160.972 34.1354 160.948 34.1353 160.929 34.1353C160.837 34.1415 160.751 34.1353 160.677 34.1045C160.64 34.086 160.609 34.0675 160.584 34.0367C160.56 34.0058 160.541 33.9627 160.535 33.9257V33.9133C160.535 33.9133 160.498 33.864 160.474 33.8702C160.449 33.8702 160.437 33.8887 160.431 33.9072H160.424Z" fill="#5E2B13"/>
<path d="M165.946 45.3223C167.629 45.3223 168.993 43.9555 168.993 42.2695C168.993 40.5836 167.629 39.2168 165.946 39.2168C164.263 39.2168 162.898 40.5836 162.898 42.2695C162.898 43.9555 164.263 45.3223 165.946 45.3223Z" fill="#D46C46"/>
<path d="M164.635 46.4204C164.635 46.4204 163.022 46.2724 161.496 44.6874C161.09 44.2681 160.689 43.7377 160.326 43.084C161.108 45.964 162.259 48.7393 163.743 51.3294C164.882 50.5462 165.731 50.429 165.916 50.4105V46.6363C165.528 46.6116 165.306 46.5437 165.306 46.5437L164.635 46.4204Z" fill="#1A223B"/>
<path d="M182.327 50.6015C180.572 48.5972 178.473 46.7655 177.494 44.2802C176.054 40.5922 177.408 36.3184 176.257 32.5318C175.414 29.7504 173.173 27.4439 170.427 26.5188C168.661 25.9268 166.728 25.8836 164.899 26.2536C163.163 26.6052 161.421 27.3761 160.369 28.8007C159.236 30.3363 159.063 32.3653 159.088 34.2709C159.094 34.9678 159.125 35.6647 159.18 36.3616C159.242 36.2506 159.297 36.1334 159.34 36.0224C159.439 34.7828 159.624 33.5679 159.833 32.5009C161.877 33.1115 164.271 32.7846 166.13 31.7424C165.675 32.7723 165.595 33.9626 165.909 35.0418C166.223 36.1211 166.937 37.0831 167.873 37.6998C168.396 37.188 168.845 36.4973 169.522 36.2259C170.2 35.9545 171.061 36.0039 171.56 36.5343C172.046 37.0523 172.059 37.8972 171.757 38.5447C171.455 39.1923 170.895 39.6795 170.329 40.1112C170.403 41.0609 170.803 42.0107 171.412 42.7446C171.782 43.1886 172.231 43.5586 172.736 43.8423V49.7751C172.982 49.7813 173.124 49.8121 173.124 49.8121C174.81 50.1143 176.017 50.9469 176.873 51.9521C177.23 52.1309 177.574 52.353 177.907 52.6243L177.999 52.7045C179.378 53.8639 181.52 57.2188 183.502 60.6478C184.278 59.8584 184.851 58.8963 185.072 57.8109C185.614 55.196 184.081 52.6058 182.321 50.5953L182.327 50.6015Z" fill="#1A223B"/>
<path style="mix-blend-mode:multiply" opacity="0.5" d="M127.939 193.66C127.939 195.128 113.872 196.319 96.525 196.319C79.1776 196.319 65.1113 195.128 65.1113 193.66C65.1113 192.193 79.1776 191.002 96.525 191.002C113.872 191.002 127.939 192.193 127.939 193.66Z" fill="url(#paint2_radial_404_10233)"/>
<path d="M116.912 187.377H106.416L86.3789 128.604L87.3084 91.5454L99.9958 87.543L104.219 112.501L116.912 187.377Z" fill="#7C0A36"/>
<g style="mix-blend-mode:multiply" opacity="0.5">
<path d="M109.15 187.377H106.41L86.3789 128.604L87.3023 91.5454L99.9896 87.543L104.219 112.495C97.7058 128.653 96.8871 146.556 101.898 163.238L109.15 187.37V187.377Z" fill="#7C0A36"/>
</g>
<path d="M107.167 188.154C107.167 188.154 105.776 190.349 107.167 193.309H124.028C124.028 193.309 124.576 192.353 124.028 191.86C123.48 191.367 117.897 191.212 115.41 187.376H107.05L107.167 188.147V188.154Z" fill="#E6E6E6"/>
<path d="M124.275 192.982H106.891V193.661H124.275V192.982Z" fill="#A9C0C4"/>
<path d="M77.029 88.585C77.029 88.585 75.2561 95.5662 76.5489 100.944L76.9736 143.09L73.791 187.376H83.6836L97.0481 101.622L99.9968 87.5366L77.029 88.5789V88.585Z" fill="#7C0A36"/>
<path d="M74.714 188.154C74.714 188.154 73.3228 190.349 74.714 193.309H91.5751C91.5751 193.309 92.123 192.353 91.5751 191.86C91.0272 191.367 85.4438 191.212 82.9568 187.376H74.5971L74.714 188.147V188.154Z" fill="#E6E6E6"/>
<path d="M91.8218 192.982H74.4375V193.661H91.8218V192.982Z" fill="#A9C0C4"/>
<path d="M88.6261 53.9073C90.3928 55.3998 92.7875 57.4904 95.1698 57.8419C96.4072 58.027 97.3244 57.6569 98.0323 56.9662C98.0939 56.8059 98.1554 56.6394 98.217 56.479C97.8907 55.9856 97.5399 55.4553 97.1767 54.8694C96.1979 53.2906 95.3914 52.0633 94.0864 51.348V40.3149H87.5611V50.5586C86.9455 50.5956 86.293 50.6572 85.6035 50.7374C86.49 51.866 87.4565 52.9206 88.6261 53.9073Z" fill="#EBAF7F"/>
<path d="M94.0811 47.3272V49.1588C93.8472 49.1095 93.6071 49.0416 93.3485 48.9491C92.4806 48.6469 91.4894 48.0919 90.4922 47.099C90.0674 46.6796 89.6734 46.1431 89.3164 45.5264C90.1844 46.2849 91.0216 46.7413 91.7788 47.0003C92.7453 47.3395 93.564 47.3703 94.0872 47.3272H94.0811Z" fill="#E48855"/>
<path d="M100.853 81.5234C100.551 85.7479 100.299 88.9178 100.299 88.9178C100.299 88.9178 97.9717 89.3989 94.4505 89.7504C94.2966 89.7627 94.1427 89.7812 93.9827 89.7936C89.2488 90.2314 82.5696 90.4041 76.543 88.9178L79.664 75.8188L80.6921 66.4386L82.3665 51.1688C82.3665 51.1688 85.0689 50.2314 87.5559 50.5089C87.5559 50.5089 92.6099 54.6347 94.0566 54.2832C94.0566 54.2832 94.0689 54.2832 94.075 54.2832C94.2597 54.2338 94.3951 54.1475 94.4936 54.0365C94.9307 53.5431 94.6106 52.5379 94.3459 51.9088C94.2043 51.582 94.0812 51.3538 94.0812 51.3538C94.0812 51.3538 94.1735 51.3723 94.3151 51.4155C94.6475 51.508 95.257 51.7176 95.6079 52.0507C96.1065 52.5255 100.736 59.1737 101.579 60.7957C102.139 61.8564 101.419 73.5555 100.859 81.5296L100.853 81.5234Z" fill="#A71B4A"/>
<path d="M87.3593 50.6879C87.3593 50.6879 87.0146 47.5673 87.3901 47.5365C87.7656 47.5056 92.9427 49.6765 93.3183 50.4535C93.6938 51.2306 94.2478 54.2093 94.2478 54.2093C94.2478 54.2093 92.6596 55.3687 87.3593 50.6817V50.6879Z" fill="#A71B4A"/>
<path d="M94.2481 54.2154L94.0449 50.3116L94.0819 49.1646C94.0819 49.1646 95.6024 49.6764 95.9779 50.1698C96.3534 50.6632 96.2303 52.8402 96.2303 52.8402C96.2303 52.8402 96.0148 54.1291 94.2481 54.2154Z" fill="#A71B4A"/>
<path d="M94.4561 89.7442C94.3022 89.7565 94.1483 89.775 93.9883 89.7873C95.6073 81.0423 94.5485 61.6529 94.0622 54.277C94.0622 54.277 94.0745 54.277 94.0806 54.277C94.2653 54.2276 94.4007 54.1413 94.4992 54.0303C94.9732 61.2027 96.069 80.7895 94.4561 89.7503V89.7442Z" fill="#A71B4A"/>
<g style="mix-blend-mode:multiply" opacity="0.5">
<path d="M100.853 81.5238C100.551 85.7483 100.299 88.9182 100.299 88.9182C100.299 88.9182 97.9717 89.3992 94.4505 89.7507C94.2966 89.7631 94.1428 89.7816 93.9827 89.7939C89.2488 90.2318 82.5696 90.4045 76.543 88.9182L79.664 75.8192L80.6921 66.439C81.9971 65.9703 83.3514 65.6742 84.7057 65.5879C84.9212 70.4599 87.3959 75.1778 91.2679 78.138C94.0073 80.2287 97.4054 81.4004 100.847 81.5238H100.853Z" fill="#A71B4A"/>
</g>
<path d="M127.009 74.6475V76.8923H93.502L98.9376 75.0607L100.15 74.6475H127.009Z" fill="#C7762F"/>
<path d="M122.601 76.8921H93.502V104.687H122.601V76.8921Z" fill="#F5AD49"/>
<path d="M107.038 100.309H94.8125V102.017H107.038V100.309Z" fill="#C7762F"/>
<path d="M103.018 98.3354H94.8125V99.575H103.018V98.3354Z" fill="#C7762F"/>
<path d="M120.355 80.907C120.355 82.1404 119.357 83.1333 118.132 83.1333C116.907 83.1333 115.91 82.1343 115.91 80.907C115.91 79.6797 116.907 78.6807 118.132 78.6807C119.357 78.6807 120.355 79.6797 120.355 80.907Z" fill="#C7762F"/>
<g style="mix-blend-mode:screen" opacity="0.5">
<path d="M93.5013 104.693H94.8125V76.8981H93.5013V104.693Z" fill="#F5AD49"/>
</g>
<path d="M127.009 74.6475V102.134L122.602 104.694V76.8923L123.777 76.2941L127.009 74.6475Z" fill="#E38C3B"/>
<g style="mix-blend-mode:multiply" opacity="0.5">
<path d="M127.009 96.9787V102.134L122.602 104.694V76.8985L123.777 76.3003C123.667 80.531 123.845 84.7616 124.325 88.9614C124.553 90.9411 124.855 92.9454 125.655 94.7709C126 95.5664 126.455 96.3188 127.003 96.991L127.009 96.9787Z" fill="#E38C3B"/>
</g>
<g style="mix-blend-mode:multiply" opacity="0.5">
<path d="M127.009 74.6473V74.9556C114.408 76.5776 103.764 75.671 98.9316 75.0543L100.144 74.6411H127.003L127.009 74.6473Z" fill="#C7762F"/>
</g>
<path d="M98.2918 102.054C98.2918 102.054 100.576 102.227 100.711 101.9C100.847 101.573 98.575 100.839 98.575 100.839L96.6051 99.5378C95.2877 97.9652 93.9519 96.3741 92.6161 94.7583C92.5237 94.82 92.4376 94.8816 92.3452 94.9372C91.348 95.7759 90.246 96.5283 89.0949 97.2437C88.6824 97.626 88.2515 98.0084 87.8145 98.3846C89.5196 99.8955 91.2495 101.4 93.0162 102.899C93.6195 103.762 95.0723 105.495 95.0723 105.495C95.7864 105.656 96.599 105.532 96.599 105.532C97.2761 105.588 98.1933 105.39 98.1933 105.39C98.9197 105.477 99.3876 104.996 99.3876 104.996C101.191 105.403 102.17 104.65 102.17 104.65H100.853L98.2857 102.066L98.2918 102.054Z" fill="#EBAF7F"/>
<path d="M96.5241 97.9161L95.5453 98.7301L92.0857 101.61L91.2669 102.289C91.2669 102.289 72.2882 85.3351 71.4818 82.4365C71.1432 81.234 71.3587 78.8843 71.7219 76.5469C72.2759 73.0317 73.1624 69.5719 74.3012 66.1985C75.7848 61.7951 78.278 54.9003 79.9893 52.7356C80.0693 52.6369 80.1432 52.5444 80.2171 52.4704C80.3094 52.3779 80.4079 52.2854 80.5002 52.1991C84.083 48.9737 89.728 52.0634 89.2909 56.8614C89.1986 57.879 88.9708 58.5019 88.9708 58.5019L88.5214 59.908L88.5091 59.9388L87.4872 63.1272L82.5317 80.1177L96.5303 97.9099L96.5241 97.9161Z" fill="#A71B4A"/>
<g style="mix-blend-mode:multiply" opacity="0.5">
<path d="M96.5248 97.9159L95.546 98.7361L79.516 79.5625L80.7533 78.7176L78.9004 75.7697L81.9845 76.8921L88.5036 59.9448L87.4817 63.1332L82.5262 80.1299L96.5248 97.9159Z" fill="#A71B4A"/>
</g>
<g style="mix-blend-mode:screen" opacity="0.5">
<path d="M92.0798 101.616L91.2611 102.295C91.2611 102.295 72.2824 85.3412 71.476 82.4426C71.1374 81.24 71.3528 78.8904 71.716 76.553C72.2701 73.0378 73.1565 69.578 74.2954 66.2046C75.7789 61.8012 78.2721 54.9064 79.9834 52.7417C78.346 57.8173 71.439 79.5009 72.1716 81.9184C72.9226 84.4038 89.1435 98.9829 92.0798 101.61V101.616Z" fill="#A71B4A"/>
</g>
<path d="M90.3753 90.1023C89.5504 89.2142 88.7686 88.2892 87.9868 87.3641C87.205 86.439 86.4478 85.4955 85.6968 84.5519C84.9519 83.6022 84.207 82.6462 83.4868 81.6718L82.4095 80.2102C82.0648 79.7107 81.7077 79.2235 81.3691 78.7178C81.7816 79.1618 82.1756 79.6182 82.5819 80.0745L83.7576 81.456C84.5394 82.3811 85.2966 83.3246 86.0476 84.2682C86.7925 85.2179 87.5374 86.1738 88.2576 87.1483C88.9779 88.1165 89.6981 89.0971 90.3753 90.1023Z" fill="#A71B4A"/>
<path d="M88.5153 59.9202C88.1152 61.6285 87.6658 63.3245 87.2164 65.0143C86.7609 66.7102 86.2684 68.3877 85.8006 70.0775C85.2958 71.755 84.8033 73.4386 84.2801 75.1099L83.4859 77.6137C83.2028 78.4463 82.9381 79.2789 82.6426 80.1053C82.8396 79.248 83.0612 78.4031 83.2705 77.5521L83.9415 75.0112C84.397 73.3214 84.8895 71.6378 85.3573 69.948C85.8621 68.2705 86.3484 66.5869 86.8779 64.9156C87.4011 63.2443 87.9367 61.573 88.5153 59.9141V59.9202Z" fill="#A71B4A"/>
<path d="M102.205 39.4203C102.039 38.8159 101.632 38.2732 101.257 37.7551C101.023 37.4345 100.801 37.0829 100.647 36.7129C100.401 33.6602 99.6687 30.7493 99.2501 29.9044C98.5852 28.5969 95.0148 27.4129 91.5059 28.0727C87.9909 28.708 85.0791 31.0885 84.9252 32.5501C84.8698 33.1051 84.6051 35.3253 86.4827 40.7709C87.0983 42.5223 87.9047 44.1443 88.9204 45.1434C89.9177 46.1363 90.9088 46.6913 91.7829 46.9935C93.4635 47.5794 94.7008 47.2279 94.7008 47.2279L95.3718 47.1045C95.3718 47.1045 96.9847 46.9627 98.5114 45.3716C99.0531 44.8103 99.5763 44.0703 100.02 43.0897C100.321 42.4113 100.518 41.5973 100.629 40.7154C101.109 40.7092 101.595 40.5427 101.965 40.2405C102.205 40.0431 102.303 39.7163 102.217 39.4141L102.205 39.4203Z" fill="#EBAF7F"/>
<path d="M89.0194 39.2294C88.3299 38.2673 88.7239 36.7132 90.1151 37.4224C91.0139 37.9528 91.3032 39.0628 91.0693 40.0187C91.0078 39.55 90.9831 39.0752 90.7985 38.6743C89.9489 37.0709 88.4284 37.2065 89.0255 39.2232L89.0194 39.2294Z" fill="#E48855"/>
<path d="M90.1943 40.1545C89.3448 39.7598 89.5233 37.737 90.6252 38.2119C89.7634 38.2921 89.9173 39.5687 90.1943 40.1545Z" fill="#E48855"/>
<path d="M97.7734 41.8687C98.1366 42.0167 98.426 42.1523 98.7707 42.3312C98.389 42.3867 97.9766 42.1955 97.7734 41.8687Z" fill="#E48855"/>
<path d="M97.3301 40.3887C98.118 41.2336 99.0476 41.7701 100.186 41.9366C99.0291 42.2882 97.6994 41.5234 97.3301 40.3887Z" fill="#E48855"/>
<path d="M99.1699 40.3147C99.4038 40.1605 99.6809 40.3393 99.6378 40.6169C99.3915 40.6909 99.2069 40.5737 99.1699 40.3147Z" fill="#E48855"/>
<path d="M98.7086 37.7736C98.7086 38.267 98.4131 38.6679 98.0437 38.6679C97.6744 38.6679 97.3789 38.267 97.3789 37.7736C97.3789 37.2803 97.6744 36.8794 98.0437 36.8794C98.4131 36.8794 98.7086 37.2803 98.7086 37.7736Z" fill="#5E2B13"/>
<path d="M98.9788 35.1774C98.7572 35.1589 98.4863 35.1404 98.2401 35.1527C97.9877 35.1527 97.7292 35.1774 97.4768 35.2144C97.2244 35.2514 96.972 35.3192 96.7257 35.3994C96.4734 35.4796 96.2394 35.5906 95.9932 35.7016H95.9809C95.8947 35.7448 95.79 35.7016 95.7531 35.6214C95.7223 35.5536 95.7408 35.4734 95.7962 35.4241C96.0117 35.2267 96.2456 35.0417 96.5103 34.906C96.7688 34.7518 97.052 34.6532 97.3352 34.5668C97.6245 34.4805 97.9261 34.4373 98.2216 34.4312C98.5294 34.4312 98.8126 34.4435 99.1389 34.5422C99.3112 34.5915 99.4159 34.7765 99.3605 34.9492C99.3174 35.1034 99.1696 35.1959 99.0158 35.1835H98.9788V35.1774Z" fill="#5E2B13"/>
<path d="M99.563 34.5976C99.5999 34.7271 99.5506 34.8751 99.4521 34.9738C99.3536 35.0725 99.2305 35.128 99.1074 35.165H99.1013C99.0089 35.1958 98.9104 35.1465 98.8796 35.054C98.8489 34.9615 98.9043 34.8628 98.9966 34.8319C99.0151 34.8258 99.0397 34.8258 99.0582 34.8258C99.1505 34.8319 99.2367 34.8258 99.3106 34.7949C99.3475 34.7764 99.3783 34.7579 99.4029 34.7271C99.4275 34.6963 99.446 34.6531 99.4521 34.6161V34.6038C99.4521 34.6038 99.4891 34.5544 99.5137 34.5606C99.5383 34.5606 99.5506 34.5791 99.5568 34.5976H99.563Z" fill="#5E2B13"/>
<path d="M97.0905 42.9663C97.0905 44.6499 95.7238 46.019 94.0433 46.019C92.3627 46.019 90.9961 44.6499 90.9961 42.9663C90.9961 41.2827 92.3627 39.9136 94.0433 39.9136C95.7238 39.9136 97.0905 41.2827 97.0905 42.9663Z" fill="#E9A770"/>
<path d="M93.4695 33.2101C93.6911 35.2761 93.057 37.4222 91.7458 39.038C91.6227 38.0759 90.884 37.2187 89.9606 36.9165C89.5051 36.7685 88.9695 36.7685 88.594 37.0584C88.1323 37.4099 88.0461 38.0821 88.1569 38.6495C88.3478 39.6362 89.0311 40.512 89.936 40.9313C89.7944 41.5542 89.4435 42.2203 89.1665 42.7938C88.8895 43.3674 88.4586 43.8916 87.8799 44.1629C86.187 42.1339 85.2144 39.5931 85.319 36.9535C85.3744 35.5659 84.9866 34.055 85.5407 32.7784C86.0885 31.5018 87.0796 30.441 88.2369 29.6763C89.3943 28.9116 90.7178 28.4244 92.0659 28.1099C92.4845 28.0112 92.9155 27.931 93.3402 27.9557C93.7711 27.9803 94.202 28.1222 94.5098 28.4244C94.9038 28.8067 95.0392 29.3865 95.0454 29.9415C95.07 31.2674 94.5037 32.3898 93.4633 33.2162L93.4695 33.2101Z" fill="#5E2B13"/>
<path d="M89.1987 27.5242C89.1987 27.5242 88.6509 27.1788 89.1187 26.7903C89.5927 26.4018 90.4792 26.4881 90.3437 27.0987L89.1987 27.5242Z" fill="#7C0A36"/>
<path d="M85.3017 38.1872C85.3017 38.1872 82.5254 32.4332 87.0746 28.7206C91.6238 25.008 98.8755 26.2106 100.181 31.2306L95.0588 34.049L85.3017 38.181V38.1872Z" fill="#7C0A36"/>
<path d="M89.9375 27.1171C89.9375 27.1171 95.367 29.9663 94.9361 34.0798L101.271 31.4711C101.271 31.4711 98.4758 24.126 89.9375 27.1171Z" fill="#7C0A36"/>
<path d="M84.5393 35.4178C84.5393 35.4178 84.9333 35.0478 85.475 35.313C85.7767 35.461 85.9798 35.757 86.066 36.0777L86.2322 36.7129L84.9579 37.2741C84.9579 37.2741 84.527 36.1887 84.5393 35.4117V35.4178Z" fill="#7C0A36"/>
<path d="M91.5011 35.5598C91.5011 35.5598 100.729 31.7917 100.735 30.4411C100.735 30.4411 105.1 28.665 106.608 30.5768C108.116 32.4886 90.2207 36.1025 90.2207 36.1025L91.5011 35.5598Z" fill="#7C0A36"/>
<defs>
<linearGradient id="paint0_linear_404_10233" x1="33.2974" y1="189.64" x2="33.458" y2="210.583" gradientUnits="userSpaceOnUse">
<stop offset="0.24" stop-color="#9C9C9C"/>
<stop offset="1" stop-color="white" stop-opacity="0"/>
</linearGradient>
<radialGradient id="paint1_radial_404_10233" cx="0" cy="0" r="1" gradientUnits="userSpaceOnUse" gradientTransform="translate(183.673 194.782) scale(33.2604 2.99889)">
<stop offset="0.41" stop-color="#9C9C9C"/>
<stop offset="1" stop-color="white" stop-opacity="0"/>
</radialGradient>
<radialGradient id="paint2_radial_404_10233" cx="0" cy="0" r="1" gradientUnits="userSpaceOnUse" gradientTransform="translate(96.525 193.396) scale(32.0108 2.24484)">
<stop offset="0.41" stop-color="#9C9C9C"/>
<stop offset="1" stop-color="white" stop-opacity="0"/>
</radialGradient>
</defs>
</svg>
