<svg width="261" height="226" viewBox="0 0 261 226" fill="none" xmlns="http://www.w3.org/2000/svg">
<g clip-path="url(#clip0_15468_2060)">
<path d="M229.234 203.089H229.063L31.903 202.703L32.2672 201.588C32.3184 201.423 37.4572 185.228 27.7998 172.599C27.2251 171.843 26.5934 171.029 25.9219 170.165C14.9783 156.023 -7.7965 126.602 2.68607 97.8285C10.5053 76.3624 24.9487 64.4607 38.9198 52.9572C44.7017 48.192 50.1649 43.694 55.0591 38.6104C56.9826 36.6145 58.9573 34.4252 61.0515 32.1108C73.6397 18.1906 89.2953 0.875488 114.25 0.875488C122.063 0.875488 130.429 2.63258 139.113 6.0956C157.694 13.5107 176.178 17.4115 192.488 20.8575C215.462 25.7137 235.306 29.9045 247.348 42.0905C260.767 55.6696 256.407 84.7327 252.902 108.087C250.961 121.006 249.288 132.169 250.865 138.23C254.825 153.458 260.659 190.261 229.382 203.027L229.228 203.089H229.234ZM34.2134 201.002L228.898 201.383C241.492 196.192 249.112 186.377 251.547 172.224C253.653 159.981 251.445 147.215 249.22 138.662C247.552 132.26 249.254 120.944 251.217 107.837C254.666 84.8578 258.957 56.261 246.135 43.2903C234.446 31.4626 214.841 27.3229 192.135 22.5236C175.757 19.0663 157.199 15.1426 138.481 7.67641C130.002 4.29301 121.847 2.57572 114.25 2.57572C90.0522 2.57572 74.6755 19.5837 62.3206 33.2481C60.215 35.5739 58.2289 37.7745 56.294 39.7875C51.3316 44.9393 45.8342 49.4714 40.0067 54.2707C26.2178 65.6321 11.9565 77.3802 4.29089 98.4085C-5.8673 126.295 16.5149 155.221 27.2706 169.119C27.9421 169.989 28.5738 170.808 29.1543 171.564C37.9751 183.102 35.2549 196.988 34.2078 201.008L34.2134 201.002Z" fill="#D4E9F4"/>
<path d="M33.0811 201.872C33.0811 201.872 38.5387 185.962 28.4829 173.366C18.4272 160.771 -7.45488 131.327 3.49434 102.548C14.4436 73.7691 38.8687 62.8569 55.6795 46.1333C72.4903 29.4096 94.1327 -1.86558 138.8 15.1936C183.462 32.2528 226.371 29.7337 246.745 49.4769C267.118 69.2143 245.493 124.401 250.045 141.164C254.598 157.928 258.735 190.647 229.069 202.242L33.0811 201.872Z" fill="#D4E9F4"/>
<path d="M114.733 77.2608C114.733 75.4298 116.173 73.9456 117.983 73.8433C117.795 72.1317 117.471 70.4599 117.015 68.8449C115.297 69.4249 113.407 68.5834 112.725 66.8831C112.042 65.1829 112.827 63.2666 114.472 62.4989C113.555 60.7873 112.48 59.1724 111.273 57.6712C109.925 58.8767 107.859 58.8426 106.561 57.5461C105.264 56.2496 105.235 54.1854 106.436 52.8377C105.116 51.7744 103.705 50.8191 102.219 49.9832C101.417 51.6038 99.4819 52.343 97.7974 51.6265C96.1073 50.9044 95.3105 48.9937 95.9308 47.2935C94.1041 46.7419 92.2033 46.3496 90.2514 46.1392C90.1489 47.9474 88.6636 49.3861 86.8311 49.3861C84.9987 49.3861 83.5134 47.9474 83.4109 46.1392C81.698 46.3268 80.0249 46.6509 78.4087 47.1058C78.9891 48.8231 78.1469 50.711 76.4453 51.3934C74.7438 52.0758 72.8259 51.291 72.0577 49.6477C70.3447 50.5632 68.7285 51.6379 67.2261 52.8434C68.4326 54.1911 68.3984 56.2553 67.1009 57.5518C65.8034 58.8482 63.7376 58.8767 62.3889 57.6769C61.3247 58.9961 60.3743 60.4063 59.5321 61.8905C61.154 62.6922 61.8938 64.6256 61.1767 66.3088C60.454 67.9977 58.5419 68.7994 56.8403 68.1739C56.2883 69.9993 55.8956 71.8985 55.6851 73.8489C57.4948 73.9513 58.9345 75.4355 58.9345 77.2665C58.9345 79.0975 57.4948 80.5816 55.6851 80.684C55.8729 82.3956 56.1972 84.0674 56.6525 85.6823C58.3711 85.1023 60.2605 85.9439 60.9434 87.6441C61.6263 89.3444 60.841 91.2607 59.1963 92.0283C60.1125 93.74 61.1881 95.3549 62.3946 96.8561C63.7433 95.6506 65.8148 95.6847 67.1066 96.9812C68.4041 98.2777 68.4326 100.342 67.2318 101.69C68.5521 102.753 69.9634 103.703 71.4487 104.544C72.2512 102.923 74.1861 102.179 75.8705 102.901C77.5607 103.623 78.3575 105.534 77.7372 107.234C79.5639 107.785 81.4647 108.178 83.4166 108.394C83.5134 106.586 85.0044 105.147 86.8368 105.147C88.6693 105.147 90.1546 106.586 90.257 108.394C91.97 108.206 93.6431 107.882 95.2593 107.427C94.6788 105.71 95.5211 103.822 97.2227 103.14C98.9242 102.457 100.842 103.242 101.61 104.885C103.323 103.97 104.939 102.895 106.442 101.69C105.235 100.342 105.27 98.272 106.567 96.9812C107.865 95.6847 109.93 95.6506 111.279 96.8561C112.343 95.5369 113.299 94.1266 114.136 92.6425C112.514 91.8407 111.768 89.9073 112.491 88.2242C113.214 86.5353 115.126 85.7392 116.828 86.359C117.38 84.5337 117.772 82.6344 117.983 80.684C116.173 80.5873 114.733 79.0975 114.733 77.2665V77.2608ZM86.8311 95.6961C76.6388 95.6961 68.3814 87.4394 68.3814 77.2608C68.3814 67.0821 76.6445 58.8255 86.8311 58.8255C97.0178 58.8255 105.281 67.0821 105.281 77.2608C105.281 87.4394 97.0178 95.6961 86.8311 95.6961Z" fill="#64B2F2"/>
<path d="M86.831 53.8613C73.8957 53.8613 63.4131 64.3357 63.4131 77.2608C63.4131 90.186 73.8957 100.66 86.831 100.66C99.7663 100.66 110.249 90.186 110.249 77.2608C110.249 64.3357 99.7663 53.8613 86.831 53.8613ZM86.831 95.6961C76.6386 95.6961 68.3812 87.4395 68.3812 77.2608C68.3812 67.0822 76.6443 58.8255 86.831 58.8255C97.0176 58.8255 105.281 67.0822 105.281 77.2608C105.281 87.4395 97.0176 95.6961 86.831 95.6961Z" fill="#93CBFC"/>
<path d="M261 210.34C261 218.989 203.357 226 132.25 226C61.1426 226 3.49414 218.989 3.49414 210.34C3.49414 201.691 61.1369 194.679 132.244 194.679C203.352 194.679 260.994 201.691 260.994 210.34H261Z" fill="#D2ECF9"/>
<path d="M54.8542 95.52H207.967C212.229 95.52 215.695 98.9773 215.695 103.242V200.792C215.695 205.051 212.235 208.514 207.967 208.514H54.8542C50.5917 208.514 47.126 205.057 47.126 200.792V103.242C47.126 98.983 50.586 95.52 54.8542 95.52Z" fill="#93CBFC"/>
<path d="M209.373 102.014H53.4487V202.015H209.373V102.014Z" fill="#289FE8"/>
<path d="M33.0811 201.873V204.829C33.0811 209.782 37.1386 213.837 42.0954 213.837H220.732C225.688 213.837 229.746 209.782 229.746 204.829V201.873H33.0811Z" fill="#93CBFC"/>
<path d="M104.131 201.873V203.112C104.131 205.193 105.833 206.899 107.921 206.899H154.9C156.982 206.899 158.69 205.199 158.69 203.112V201.873H104.131Z" fill="#60B5F4"/>
<path opacity="0.1" d="M53.4487 201.872L209.373 102.014V201.872H53.4487Z" fill="#274C63"/>
<path d="M174.118 83.084H88.6978V201.816H174.118V83.084Z" fill="white"/>
<path d="M166.68 188.362V97.2035C162.776 97.2035 159.611 94.0419 159.611 90.141C159.611 90.0898 159.617 90.0329 159.617 89.9761H103.198C103.198 90.0329 103.209 90.0841 103.209 90.141C103.209 94.0419 100.045 97.2035 96.147 97.2035V188.362C100.051 188.362 103.209 191.524 103.209 195.419H159.611C159.611 191.518 162.776 188.362 166.68 188.362Z" fill="#EDF4F9"/>
<path d="M150.074 99.8418H112.753V105.977H150.074V99.8418Z" fill="#FAC030"/>
<path d="M125.04 190.818L123.936 187.662L120.589 187.645L127.862 177.472L132.307 180.645L125.04 190.818Z" fill="#289FE8"/>
<path d="M137.787 190.818L138.891 187.662L142.232 187.645L134.959 177.472L130.514 180.645L137.787 190.818Z" fill="#289FE8"/>
<path d="M141.315 175.965C141.315 176.972 140.035 177.762 139.739 178.666C139.432 179.61 139.995 180.998 139.426 181.783C138.851 182.573 137.349 182.471 136.558 183.045C135.778 183.614 135.414 185.075 134.475 185.382C133.564 185.678 132.421 184.717 131.413 184.717C130.406 184.717 129.256 185.678 128.352 185.382C127.413 185.075 127.048 183.614 126.269 183.045C125.478 182.471 123.975 182.573 123.401 181.783C122.832 180.998 123.395 179.61 123.088 178.666C122.792 177.762 121.511 176.966 121.511 175.965C121.511 174.965 122.792 174.168 123.088 173.259C123.395 172.32 122.832 170.927 123.401 170.142C123.975 169.352 125.478 169.46 126.269 168.886C127.054 168.317 127.413 166.856 128.352 166.549C129.262 166.253 130.406 167.214 131.413 167.214C132.421 167.214 133.564 166.253 134.475 166.549C135.414 166.856 135.778 168.317 136.558 168.886C137.349 169.46 138.851 169.352 139.426 170.142C139.995 170.927 139.432 172.315 139.739 173.259C140.035 174.168 141.315 174.959 141.315 175.965Z" fill="#FAC030"/>
<path d="M137.719 175.965C137.719 179.445 134.896 182.272 131.408 182.272C127.919 182.272 125.097 179.451 125.097 175.965C125.097 172.48 127.919 169.659 131.408 169.659C134.896 169.659 137.719 172.48 137.719 175.965Z" fill="#FFD67B"/>
<path d="M161.894 112.978H100.922V115.445H161.894V112.978Z" fill="#CDE8F9"/>
<path d="M161.894 119.142H100.922V121.609H161.894V119.142Z" fill="#CDE8F9"/>
<path d="M161.894 125.306H100.922V127.774H161.894V125.306Z" fill="#CDE8F9"/>
<path d="M161.894 131.47H100.922V133.938H161.894V131.47Z" fill="#CDE8F9"/>
<path d="M161.894 137.64H100.922V140.108H161.894V137.64Z" fill="#CDE8F9"/>
<path d="M161.894 143.804H100.922V146.272H161.894V143.804Z" fill="#CDE8F9"/>
<path d="M161.894 149.968H100.922V152.436H161.894V149.968Z" fill="#CDE8F9"/>
<path d="M161.894 156.138H100.922V158.606H161.894V156.138Z" fill="#CDE8F9"/>
<path d="M234.634 199.519H228.892C228.158 198.518 227.72 197.29 227.72 195.959V190.517C227.72 189.187 228.158 187.958 228.892 186.958H234.64C235.328 186.958 235.892 186.4 235.892 185.707C235.892 185.013 235.334 184.456 234.64 184.456H167.783C164.449 184.456 161.723 187.179 161.723 190.512V195.953C161.723 199.286 164.449 202.009 167.783 202.009H234.64C235.328 202.009 235.892 201.452 235.892 200.758C235.892 200.065 235.334 199.507 234.64 199.507L234.634 199.519Z" fill="#FAC030"/>
<path d="M227.719 190.517C227.719 189.187 228.158 187.958 228.892 186.958H175.864C173.48 186.958 171.528 188.908 171.528 191.291V195.186C171.528 197.568 173.48 199.519 175.864 199.519H228.897C228.163 198.518 227.725 197.29 227.725 195.959V190.517H227.719Z" fill="white"/>
<mask id="mask0_15468_2060" style="mask-type:luminance" maskUnits="userSpaceOnUse" x="171" y="186" width="58" height="14">
<path d="M227.719 190.517C227.719 189.187 228.158 187.958 228.892 186.958H175.864C173.48 186.958 171.528 188.908 171.528 191.291V195.186C171.528 197.568 173.48 199.519 175.864 199.519H228.897C228.163 198.518 227.725 197.29 227.725 195.959V190.517H227.719Z" fill="white"/>
</mask>
<g mask="url(#mask0_15468_2060)">
<path d="M240.399 192.649H160.96V193.832H240.399V192.649Z" fill="#DEEFFC"/>
<path d="M240.399 189.283H160.96V190.466H240.399V189.283Z" fill="#DEEFFC"/>
<path d="M240.399 196.01H160.96V197.193H240.399V196.01Z" fill="#DEEFFC"/>
</g>
<path d="M245.555 182.073H240.074C239.374 181.118 238.959 179.946 238.959 178.678V173.486C238.959 172.218 239.38 171.047 240.074 170.097H245.555C246.215 170.097 246.75 169.563 246.75 168.903C246.75 168.244 246.215 167.709 245.555 167.709H181.794C178.613 167.709 176.012 170.308 176.012 173.486V178.678C176.012 181.857 178.613 184.455 181.794 184.455H245.555C246.215 184.455 246.75 183.921 246.75 183.261C246.75 182.602 246.215 182.067 245.555 182.067V182.073Z" fill="#F8A116"/>
<path d="M238.959 173.486C238.959 172.218 239.38 171.047 240.074 170.097H189.5C187.223 170.097 185.362 171.957 185.362 174.231V177.944C185.362 180.213 187.223 182.078 189.5 182.078H240.074C239.374 181.123 238.959 179.952 238.959 178.684V173.492V173.486Z" fill="white"/>
<mask id="mask1_15468_2060" style="mask-type:luminance" maskUnits="userSpaceOnUse" x="185" y="170" width="56" height="13">
<path d="M238.959 173.486C238.959 172.218 239.38 171.047 240.074 170.097H189.5C187.223 170.097 185.362 171.957 185.362 174.231V177.944C185.362 180.213 187.223 182.078 189.5 182.078H240.074C239.374 181.123 238.959 179.952 238.959 178.684V173.492V173.486Z" fill="white"/>
</mask>
<g mask="url(#mask1_15468_2060)">
<path d="M251.046 175.522H175.284V176.648H251.046V175.522Z" fill="#DEEFFC"/>
<path d="M251.046 172.315H175.284V173.441H251.046V172.315Z" fill="#DEEFFC"/>
<path d="M251.046 178.729H175.284V179.855H251.046V178.729Z" fill="#DEEFFC"/>
</g>
<path d="M164.375 165.213H170.117C170.851 164.212 171.289 162.984 171.289 161.653V156.205C171.289 154.875 170.851 153.652 170.117 152.651H164.375C163.68 152.651 163.123 152.094 163.123 151.4C163.123 150.707 163.68 150.149 164.375 150.149H231.231C234.566 150.149 237.292 152.873 237.292 156.205V161.653C237.292 164.985 234.566 167.709 231.231 167.709H164.375C163.68 167.709 163.123 167.152 163.123 166.458C163.123 165.764 163.68 165.207 164.375 165.207V165.213Z" fill="#64B2F2"/>
<path d="M171.289 156.211C171.289 154.881 170.851 153.658 170.117 152.657H223.144C225.528 152.657 227.48 154.608 227.48 156.99V160.885C227.48 163.268 225.528 165.218 223.144 165.218H170.111C170.845 164.218 171.283 162.989 171.283 161.659V156.211H171.289Z" fill="white"/>
<mask id="mask2_15468_2060" style="mask-type:luminance" maskUnits="userSpaceOnUse" x="170" y="152" width="58" height="14">
<path d="M171.289 156.211C171.289 154.881 170.851 153.658 170.117 152.657H223.144C225.528 152.657 227.48 154.608 227.48 156.99V160.885C227.48 163.268 225.528 165.218 223.144 165.218H170.111C170.845 164.218 171.283 162.989 171.283 161.659V156.211H171.289Z" fill="white"/>
</mask>
<g mask="url(#mask2_15468_2060)">
<path d="M238.054 158.343H158.615V159.526H238.054V158.343Z" fill="#DEEFFC"/>
<path d="M238.054 154.977H158.615V156.16H238.054V154.977Z" fill="#DEEFFC"/>
<path d="M238.054 161.704H158.615V162.887H238.054V161.704Z" fill="#DEEFFC"/>
</g>
<path d="M59.9932 151.4H47.5132V158.229H59.9932V151.4Z" fill="#F8A116"/>
<path d="M93.8654 116.537C93.7971 115.786 93.2906 115.155 92.4825 115.155H73.9474C72.1605 115.155 72.1605 117.918 73.9474 117.918H91.185C91.3899 122.337 90.6216 126.903 89.1932 131.037C85.5681 141.551 76.0985 146.39 65.3713 146.481C63.59 146.498 63.5843 149.262 65.3713 149.245C76.7018 149.142 86.8201 144.184 91.2533 133.363C93.3703 128.188 94.4004 122.132 93.8711 116.531L93.8654 116.537Z" fill="#F8A116"/>
<path d="M13.6355 116.537C13.7038 115.786 14.2103 115.155 15.0184 115.155H33.5535C35.3348 115.155 35.3348 117.918 33.5535 117.918H16.3159C16.111 122.337 16.8793 126.903 18.3077 131.037C21.9328 141.551 31.4024 146.39 42.1296 146.481C43.9109 146.498 43.9166 149.262 42.1296 149.245C30.7934 149.142 20.6808 144.184 16.2476 133.363C14.1306 128.188 13.1006 122.132 13.6298 116.531L13.6355 116.537Z" fill="#F8A116"/>
<path d="M27.3279 108.348C26.7873 111.231 26.4971 114.251 26.4971 117.361C26.4971 137.667 38.6983 154.135 53.7506 154.135C68.8029 154.135 81.0041 137.673 81.0041 117.361C81.0041 114.251 80.7139 111.231 80.179 108.348H27.3279Z" fill="#FAC030"/>
<path opacity="0.5" d="M80.1735 108.348H76.3378C76.3435 108.701 76.3606 109.053 76.3606 109.412C76.3606 129.718 64.1594 146.185 49.107 146.185C41.7715 146.185 35.1132 142.262 30.2134 135.899C34.9425 146.805 43.7064 154.135 53.7451 154.135C68.7974 154.135 80.9986 137.673 80.9986 117.361C80.9986 114.251 80.7084 111.231 80.1735 108.348Z" fill="#F8A116"/>
<path opacity="0.2" d="M31.482 112.107H65.4394C65.4394 112.107 67.3173 142.33 48.27 142.33C29.2227 142.33 31.482 112.107 31.482 112.107Z" fill="#E4F1FA"/>
<path d="M82.9842 109.406C82.9842 110.339 82.2273 111.101 81.294 111.101H26.2122C25.2789 111.101 24.522 110.344 24.522 109.406C24.522 108.473 25.2789 107.711 26.2122 107.711H81.294C82.2273 107.711 82.9842 108.468 82.9842 109.406Z" fill="#F8A116"/>
<path d="M59.9703 158.235H47.5073C47.5073 158.235 54.6038 173.213 47.5073 188.413H59.9703C52.8738 173.207 59.9703 158.235 59.9703 158.235Z" fill="#FAC030"/>
<path d="M67.8636 185.649H39.6426V200.303H67.8636V185.649Z" fill="#F8A116"/>
<path d="M70.2537 200.303C70.2537 201.236 69.4968 201.992 68.5579 201.992H38.9312C37.9979 201.992 37.2354 201.236 37.2354 200.303C37.2354 199.371 37.9922 198.614 38.9312 198.614H68.5579C69.4912 198.614 70.2537 199.371 70.2537 200.303Z" fill="#FAC030"/>
<path d="M222.888 119.772H182.733V150.155H222.888V119.772Z" fill="#3A2727"/>
<path d="M206.043 133.425C204.268 133.966 201.366 133.966 199.59 133.425L162.736 122.183C160.96 121.643 160.96 120.756 162.736 120.216L199.59 108.974C201.366 108.434 204.268 108.434 206.043 108.974L242.892 120.216C244.667 120.756 244.667 121.643 242.892 122.183L206.043 133.425Z" fill="#534140"/>
<path d="M205.753 119.772C205.753 120.875 204.439 121.768 202.817 121.768C201.195 121.768 199.88 120.875 199.88 119.772C199.88 118.669 201.195 117.776 202.817 117.776C204.439 117.776 205.753 118.669 205.753 119.772Z" fill="#FAC030"/>
<path d="M222.786 127.915V138.304H224.243V127.409C224.243 127.062 224.015 126.818 223.708 126.704C216.811 124.157 209.908 121.615 203.01 119.067C202.128 118.743 201.753 120.148 202.623 120.472C208.479 122.633 214.335 124.793 220.191 126.949C221.056 127.267 221.921 127.585 222.792 127.91L222.786 127.915Z" fill="#FAC030"/>
<path d="M227.157 150.16H226.633H226.121L225.637 147.078L225.586 150.16H225.296H224.329L224.033 145.378L223.697 150.16H223.065H222.382L222.092 147.755L221.847 150.16H221.17L221.364 146.203L220.658 150.16H219.873L222.786 138.304H224.243L227.157 150.16Z" fill="#FAC030"/>
<path d="M224.823 138.304C224.823 138.788 224.237 139.18 223.514 139.18C222.792 139.18 222.206 138.788 222.206 138.304C222.206 137.821 222.792 137.429 223.514 137.429C224.237 137.429 224.823 137.821 224.823 138.304Z" fill="#FAC030"/>
<path d="M109.475 183.631C109.475 183.631 76.3603 191.58 73.4921 192.689C70.6239 193.798 60.221 198.819 59.9649 200.053C59.7088 201.287 63.8745 202.168 65.3542 201.497C66.8338 200.821 74.8807 194.276 74.8807 194.276L110.369 186.4L109.475 183.625V183.631Z" fill="#3A2727"/>
<path d="M56.4877 183.631C56.4877 183.631 89.6028 191.58 92.471 192.689C95.3392 193.798 105.742 198.819 105.998 200.053C106.254 201.287 102.089 202.168 100.609 201.497C99.1293 200.821 91.0825 194.276 91.0825 194.276L55.5942 186.4L56.4877 183.625V183.631Z" fill="#3A2727"/>
<path d="M110.83 183.017C110.83 183.017 106.044 181.282 99.3854 181.282C94.5425 181.282 90.1833 182.533 88.0037 184.842C86.8143 184.091 85.0274 183.381 82.9843 183.352C80.9413 183.375 79.1544 184.086 77.965 184.842C75.7854 182.533 71.4262 181.282 66.5833 181.282C59.925 181.282 55.1389 183.017 55.1389 183.017L53.9609 186.622C55.2983 187.526 55.8332 193.275 56.6641 195.356C57.495 197.437 59.4185 202.697 68.4726 202.208C77.1341 201.742 79.8373 192.098 79.4219 187.867C79.382 187.469 79.2796 187.094 79.1544 186.73C79.8544 186.292 81.2486 185.598 82.99 185.57C84.7314 185.598 86.1257 186.292 86.8257 186.73C86.6948 187.094 86.5923 187.469 86.5582 187.867C86.1428 192.098 88.8459 201.736 97.5074 202.208C106.562 202.697 108.479 197.432 109.316 195.356C110.147 193.275 110.682 187.526 112.019 186.622L110.841 183.017H110.83ZM76.087 194.662C74.6984 197.921 71.7847 200.275 66.7085 200.07C61.6322 199.86 59.1567 197.09 58.2575 192.723C57.3584 188.356 58.3258 184.893 60.6136 183.852C62.9013 182.812 68.245 182.88 68.245 182.88C79.9909 183.159 77.4699 191.404 76.0813 194.662H76.087ZM107.705 192.718C106.806 197.085 104.331 199.86 99.2545 200.064C94.1783 200.275 91.2645 197.915 89.876 194.657C88.4874 191.398 85.9663 183.153 97.7123 182.874C97.7123 182.874 103.056 182.806 105.344 183.847C107.631 184.887 108.605 188.35 107.7 192.718H107.705Z" fill="#534140"/>
<path opacity="0.7" d="M76.0872 194.663C74.6986 197.921 71.7849 200.275 66.7086 200.07C61.6324 199.86 59.1569 197.091 58.2577 192.723C57.3586 188.356 58.326 184.893 60.6137 183.853C62.9015 182.812 68.2452 182.88 68.2452 182.88C79.9911 183.159 77.4701 191.404 76.0815 194.663H76.0872Z" fill="#93CBFC"/>
<path opacity="0.7" d="M97.7181 182.874C97.7181 182.874 103.062 182.806 105.35 183.847C107.637 184.887 108.61 188.35 107.706 192.718C106.806 197.085 104.331 199.86 99.2547 200.064C94.1784 200.275 91.2647 197.915 89.8761 194.657C88.4876 191.398 85.9665 183.153 97.7124 182.874H97.7181Z" fill="#93CBFC"/>
<path d="M199.009 82.7257C199.009 92.5291 191.059 100.473 181.248 100.473C171.437 100.473 163.487 92.5291 163.487 82.7257C163.487 72.9224 171.437 64.9785 181.248 64.9785C191.059 64.9785 199.009 72.9224 199.009 82.7257Z" fill="#93CBFC"/>
<path d="M194.058 82.7255C194.058 89.7937 188.327 95.5199 181.254 95.5199C174.18 95.5199 168.449 89.7937 168.449 82.7255C168.449 75.6573 174.18 69.9312 181.254 69.9312C188.327 69.9312 194.058 75.6573 194.058 82.7255Z" fill="#289FE8"/>
<path d="M179.062 77.3804V88.0708L185.391 82.7256L179.062 77.3804Z" fill="white"/>
<path d="M238.612 67.5145C238.612 65.837 237.241 64.4609 235.556 64.4609H208.138C206.459 64.4609 205.082 65.837 205.082 67.5145V88.8726C205.082 90.5501 205.833 90.7719 206.749 89.3673L210.05 84.3178C210.966 82.9133 213.089 81.7646 214.773 81.7646H235.562C237.241 81.7646 238.618 80.3942 238.618 78.711V67.5145H238.612Z" fill="#93CBFC"/>
<path d="M214.631 72.9964C214.631 74.3043 213.572 75.3619 212.263 75.3619C210.954 75.3619 209.896 74.3043 209.896 72.9964C209.896 71.6885 210.954 70.6309 212.263 70.6309C213.572 70.6309 214.631 71.6885 214.631 72.9964Z" fill="white"/>
<path d="M224.214 72.9964C224.214 74.3043 223.156 75.3619 221.847 75.3619C220.538 75.3619 219.479 74.3043 219.479 72.9964C219.479 71.6885 220.538 70.6309 221.847 70.6309C223.156 70.6309 224.214 71.6885 224.214 72.9964Z" fill="white"/>
<path d="M233.803 72.9964C233.803 74.3043 232.745 75.3619 231.436 75.3619C230.127 75.3619 229.068 74.3043 229.068 72.9964C229.068 71.6885 230.127 70.6309 231.436 70.6309C232.745 70.6309 233.803 71.6885 233.803 72.9964Z" fill="white"/>
<path d="M123.805 49.0507C123.805 47.3732 125.176 45.9971 126.861 45.9971H154.279C155.958 45.9971 157.335 47.3675 157.335 49.0507V70.4088C157.335 72.0862 156.584 72.308 155.668 70.9035L152.373 65.854C151.457 64.4494 149.328 63.3008 147.649 63.3008H126.861C125.182 63.3008 123.805 61.9303 123.805 60.2472V49.0507Z" fill="#FAC030"/>
<path d="M147.786 54.5325C147.786 55.8404 148.845 56.8981 150.154 56.8981C151.462 56.8981 152.521 55.8404 152.521 54.5325C152.521 53.2247 151.462 52.167 150.154 52.167C148.845 52.167 147.786 53.2247 147.786 54.5325Z" fill="white"/>
<path d="M138.197 54.5325C138.197 55.8404 139.255 56.8981 140.564 56.8981C141.873 56.8981 142.932 55.8404 142.932 54.5325C142.932 53.2247 141.873 52.167 140.564 52.167C139.255 52.167 138.197 53.2247 138.197 54.5325Z" fill="white"/>
<path d="M128.608 54.5325C128.608 55.8404 129.666 56.8981 130.975 56.8981C132.284 56.8981 133.343 55.8404 133.343 54.5325C133.343 53.2247 132.284 52.167 130.975 52.167C129.666 52.167 128.608 53.2247 128.608 54.5325Z" fill="white"/>
<path d="M33.6782 86.3137L32.4603 82.4697L31.2425 86.3137L27.6572 87.7012L31.2425 89.0944L32.4603 92.9327L33.6782 89.0944L37.2634 87.7012L33.6782 86.3137Z" fill="white"/>
<path d="M69.6844 108.741L67.6186 102.236L65.5585 108.741L59.4863 111.095L65.5585 113.449L67.6186 119.96L69.6844 113.449L75.7565 111.095L69.6844 108.741Z" fill="white"/>
<path d="M15.1261 57.0516L13.4985 51.9111L11.8653 57.0516L7.06787 58.9168L11.8653 60.7762L13.4985 65.9167L15.1261 60.7762L19.9235 58.9168L15.1261 57.0516Z" fill="white"/>
<path d="M49.3739 48.4197L48.4463 45.4912L47.5187 48.4197L44.7871 49.4774L47.5187 50.535L48.4463 53.4635L49.3739 50.535L52.1056 49.4774L49.3739 48.4197Z" fill="white"/>
<path d="M112.935 22.666L112.007 19.7432L111.08 22.666L108.348 23.7236L111.08 24.7813L112.007 27.7098L112.935 24.7813L115.667 23.7236L112.935 22.666Z" fill="white"/>
<path d="M183.445 48.0839L182.227 44.2456L181.009 48.0839L177.424 49.4771L181.009 50.8646L182.227 54.7086L183.445 50.8646L187.03 49.4771L183.445 48.0839Z" fill="white"/>
<path d="M204.444 21.8641L202.816 16.7236L201.183 21.8641L196.386 23.7236L201.183 25.583L202.816 30.7292L204.444 25.583L209.241 23.7236L204.444 21.8641Z" fill="white"/>
<path d="M239.358 96.9359L237.292 90.4307L235.232 96.9359L229.16 99.2901L235.232 101.644L237.292 108.155L239.358 101.644L245.43 99.2901L239.358 96.9359Z" fill="white"/>
<path d="M251.331 147.323L250.403 144.395L249.476 147.323L246.744 148.381L249.476 149.438L250.403 152.367L251.331 149.438L254.063 148.381L251.331 147.323Z" fill="white"/>
<path d="M247.672 22.666L246.744 19.7432L245.817 22.666L243.091 23.7236L245.817 24.7813L246.744 27.7098L247.672 24.7813L250.404 23.7236L247.672 22.666Z" fill="white"/>
<path d="M60.9146 2.92281L59.987 0L59.0594 2.92281L56.3335 3.98616L59.0594 5.04383L59.987 7.96664L60.9146 5.04383L63.6463 3.98616L60.9146 2.92281Z" fill="white"/>
</g>
<defs>
<clipPath id="clip0_15468_2060">
<rect width="261" height="226" fill="white"/>
</clipPath>
</defs>
</svg>
