<svg width="18" height="16" viewBox="0 0 18 16" fill="none" xmlns="http://www.w3.org/2000/svg">
<path fill-rule="evenodd" clip-rule="evenodd" d="M0 5.64549V14.4363C0 14.8248 0.154037 15.1974 0.429459 15.4719C0.70403 15.7474 1.07657 15.9014 1.46509 15.9014H16.5351C16.9236 15.9014 17.2961 15.7474 17.5707 15.4719C17.8461 15.1974 18.0002 14.8248 18.0002 14.4363V5.64549C18.0002 5.29888 17.7189 5.01758 17.3722 5.01758C17.0256 5.01758 16.7443 5.29888 16.7443 5.64549V14.4363C16.7443 14.4915 16.7226 14.5452 16.6832 14.5845C16.6438 14.6238 16.5903 14.6456 16.5351 14.6456H1.46509C1.40986 14.6456 1.35618 14.6238 1.31694 14.5845C1.27755 14.5451 1.25583 14.4915 1.25583 14.4363V5.64549C1.25583 5.29888 0.974532 5.01758 0.627916 5.01758C0.281299 5.01758 0 5.29888 0 5.64549Z" fill="black"/>
<path fill-rule="evenodd" clip-rule="evenodd" d="M14.2543 2.30241C14.2543 1.692 14.0115 1.10599 13.5803 0.674023C13.1483 0.242878 12.5622 0 11.9519 0H6.09147C5.48106 0 4.89506 0.242756 4.46309 0.674023C4.03194 1.10599 3.78906 1.69214 3.78906 2.30241V3.55824C3.78906 3.90485 4.07036 4.18615 4.41698 4.18615H13.6265C13.9731 4.18615 14.2544 3.90485 14.2544 3.55824L14.2543 2.30241ZM12.9985 2.30241V2.93032H5.04475V2.30241C5.04475 2.02447 5.1552 1.75899 5.35114 1.56236C5.54793 1.36642 5.81325 1.25597 6.09118 1.25597H11.9516C12.2296 1.25597 12.495 1.36642 12.6917 1.56236C12.8876 1.75915 12.998 2.02447 12.998 2.30241H12.9985Z" fill="black"/>
<path fill-rule="evenodd" clip-rule="evenodd" d="M18.0002 5.64573V4.38989C18.0002 3.58035 17.3438 2.9248 16.5351 2.9248H1.46509C0.656369 2.9248 0 3.58035 0 4.38989V5.64573C0 7.37963 1.40567 8.7853 3.13958 8.7853H14.8608C16.5947 8.7853 18.0004 7.37963 18.0004 5.64573H18.0002ZM16.7443 4.38989V5.64573C16.7443 6.68641 15.9013 7.52947 14.8606 7.52947H3.13936C2.09867 7.52947 1.25562 6.68641 1.25562 5.64573V4.38989C1.25562 4.2744 1.34938 4.18064 1.46487 4.18064H16.5349C16.6503 4.18064 16.7441 4.2744 16.7441 4.38989H16.7443Z" fill="black"/>
<path fill-rule="evenodd" clip-rule="evenodd" d="M12.5586 7.31932V9.41233C12.5586 9.75894 12.8399 10.0402 13.1865 10.0402C13.5331 10.0402 13.8144 9.75894 13.8144 9.41233V7.31932C13.8144 6.97271 13.5331 6.69141 13.1865 6.69141C12.8399 6.69141 12.5586 6.97271 12.5586 7.31932Z" fill="black"/>
<path fill-rule="evenodd" clip-rule="evenodd" d="M4.18652 7.31932V9.41233C4.18652 9.75894 4.46782 10.0402 4.81444 10.0402C5.16106 10.0402 5.44235 9.75894 5.44235 9.41233V7.31932C5.44235 6.97271 5.16106 6.69141 4.81444 6.69141C4.46782 6.69141 4.18652 6.97271 4.18652 7.31932Z" fill="black"/>
</svg>
