<svg width="18" height="16" viewBox="0 0 18 16" fill="none" xmlns="http://www.w3.org/2000/svg">
<path fill-rule="evenodd" clip-rule="evenodd" d="M0 5.64548V14.4361C0 14.8246 0.154034 15.1972 0.42945 15.4717C0.704015 15.7471 1.07655 15.9012 1.46506 15.9012H16.5347C16.9232 15.9012 17.2958 15.7471 17.5703 15.4717C17.8457 15.1972 17.9998 14.8246 17.9998 14.4361V5.64548C17.9998 5.29887 17.7185 5.01758 17.3719 5.01758C17.0253 5.01758 16.744 5.29887 16.744 5.64548V14.4361C16.744 14.4913 16.7223 14.545 16.6829 14.5843C16.6435 14.6237 16.5899 14.6454 16.5347 14.6454H1.46506C1.40984 14.6454 1.35616 14.6236 1.31691 14.5843C1.27753 14.5449 1.25581 14.4913 1.25581 14.4361V5.64548C1.25581 5.29887 0.974512 5.01758 0.627903 5.01758C0.281293 5.01758 0 5.29887 0 5.64548Z" fill="#3AA5E1"/>
<path fill-rule="evenodd" clip-rule="evenodd" d="M14.2541 2.30236C14.2541 1.69196 14.0113 1.10597 13.5801 0.674009C13.1481 0.242873 12.562 0 11.9517 0H6.09142C5.48103 0 4.89503 0.242751 4.46307 0.674009C4.03194 1.10597 3.78906 1.69211 3.78906 2.30236V3.55816C3.78906 3.90477 4.07036 4.18607 4.41697 4.18607H13.6263C13.9729 4.18607 14.2542 3.90477 14.2542 3.55816L14.2541 2.30236ZM12.9983 2.30236V2.93026H5.04472V2.30236C5.04472 2.02443 5.15517 1.75895 5.35111 1.56233C5.54789 1.36639 5.81321 1.25595 6.09114 1.25595H11.9514C12.2294 1.25595 12.4949 1.36639 12.6915 1.56233C12.8874 1.75911 12.9979 2.02443 12.9979 2.30236H12.9983Z" fill="#3AA5E1"/>
<path fill-rule="evenodd" clip-rule="evenodd" d="M17.9998 5.64665V4.39084C17.9998 3.58131 17.3434 2.92578 16.5347 2.92578H1.46506C0.656356 2.92578 0 3.58131 0 4.39084V5.64665C0 7.38052 1.40564 8.78616 3.13951 8.78616H14.8605C16.5944 8.78616 18 7.38052 18 5.64665H17.9998ZM16.744 4.39084V5.64665C16.744 6.68731 15.9009 7.53035 14.8603 7.53035H3.1393C2.09863 7.53035 1.25559 6.68731 1.25559 5.64665V4.39084C1.25559 4.27535 1.34936 4.18159 1.46484 4.18159H16.5345C16.65 4.18159 16.7438 4.27535 16.7438 4.39084H16.744Z" fill="#3AA5E1"/>
<path fill-rule="evenodd" clip-rule="evenodd" d="M12.5586 7.31833V9.41129C12.5586 9.7579 12.8399 10.0392 13.1865 10.0392C13.5331 10.0392 13.8144 9.7579 13.8144 9.41129V7.31833C13.8144 6.97172 13.5331 6.69043 13.1865 6.69043C12.8399 6.69043 12.5586 6.97172 12.5586 7.31833Z" fill="#3AA5E1"/>
<path fill-rule="evenodd" clip-rule="evenodd" d="M4.18555 7.31833V9.41129C4.18555 9.7579 4.46684 10.0392 4.81345 10.0392C5.16006 10.0392 5.44135 9.7579 5.44135 9.41129V7.31833C5.44135 6.97172 5.16006 6.69043 4.81345 6.69043C4.46684 6.69043 4.18555 6.97172 4.18555 7.31833Z" fill="#3AA5E1"/>
</svg>
