<svg width="19" height="19" viewBox="0 0 19 19" fill="none" xmlns="http://www.w3.org/2000/svg">
<path d="M12.9059 6.7521L14.3054 5.33491L12.503 4.48828L12.6213 5.15281L10.2312 5.61714L8.59296 8.37687L5.87175 6.52609L5.847 6.50937L4.14733 7.82781C3.93951 7.98898 3.90157 8.2882 4.06287 8.496C4.22404 8.70382 4.52313 8.74163 4.73095 8.58046L5.88293 7.68662L8.85943 9.71068L8.89561 9.73502L10.834 6.47058L12.7886 6.0918L12.9059 6.7521Z" fill="#3AA5E1"/>
<path d="M9.83273 0.984126V0.712792C9.83232 0.458051 9.69618 0.222767 9.47543 0.0954729C9.25468 -0.0318208 8.98283 -0.0318278 8.76223 0.0954729C8.54149 0.222774 8.4052 0.458065 8.40493 0.712792V0.984126H0.851562V2.41207H1.8368V10.955L1.92589 10.8948C2.21721 10.6991 2.54512 10.5647 2.89002 10.4996L2.9364 10.4906L2.93626 2.4122H15.3014V10.491L15.3477 10.4999V10.4998C15.6925 10.5648 16.0204 10.6993 16.3116 10.8951L16.4007 10.9552V2.41228H17.3859V0.984339L9.83273 0.984126Z" fill="#3AA5E1"/>
<path d="M5.29784 13.1168C5.29784 14.1671 4.44644 15.0187 3.39606 15.0187C2.34554 15.0187 1.49414 14.1671 1.49414 13.1168C1.49414 12.0664 2.34554 11.2148 3.39606 11.2148C4.44644 11.2148 5.29784 12.0664 5.29784 13.1168Z" fill="#3AA5E1"/>
<path d="M11.0206 13.1168C11.0206 14.1671 10.1691 15.0187 9.11872 15.0187C8.06833 15.0187 7.2168 14.1671 7.2168 13.1168C7.2168 12.0664 8.06833 11.2148 9.11872 11.2148C10.1691 11.2148 11.0206 12.0664 11.0206 13.1168Z" fill="#3AA5E1"/>
<path d="M16.7452 13.1168C16.7452 14.1671 15.8937 15.0187 14.8433 15.0187C13.7929 15.0187 12.9414 14.1671 12.9414 13.1168C12.9414 12.0664 13.7929 11.2148 14.8433 11.2148C15.8937 11.2148 16.7452 12.0664 16.7452 13.1168Z" fill="#3AA5E1"/>
<path d="M17.9772 16.896C17.6172 16.305 16.999 15.9405 16.236 15.7549H13.4512C12.895 15.8701 12.3845 16.1445 11.9818 16.5448C11.5791 16.1446 11.0685 15.8701 10.5123 15.7549H7.72749C7.17134 15.8701 6.66091 16.1445 6.25807 16.5448C5.85537 16.1446 5.3448 15.8701 4.7888 15.7549H2.0038C1.2408 15.9405 0.622646 16.305 0.26263 16.896C0.147161 17.6749 0 18.9993 0 18.9993H18.24C18.24 18.9993 18.0928 17.6749 17.9773 16.896H17.9772Z" fill="#3AA5E1"/>
</svg>
