<svg width="18" height="19" viewBox="0 0 18 19" fill="none" xmlns="http://www.w3.org/2000/svg">
<path d="M4.70572 10.5913L6.36974 10.1508C4.72829 9.32993 3.60398 7.76826 3.60398 5.96637C3.62641 3.34346 6.03237 1.18126 9.00065 1.18126C11.9689 1.18126 14.3748 3.32362 14.3748 5.96637C14.3748 7.76823 13.2505 9.3299 11.6091 10.1508L13.2731 10.5913C14.7572 9.4901 15.724 7.82833 15.724 5.98639C15.724 2.68294 12.6883 0 8.97821 0C5.26792 0 2.27734 2.66284 2.27734 5.96637C2.27734 7.82829 3.22176 9.4901 4.70584 10.5913H4.70572Z" fill="#3AA5E1"/>
<path d="M10.7812 4.73828L10.582 5.49609H6.89844L7.10156 4.73828H10.7812ZM8.89453 9L7.01172 6.76953L7.00781 6.10156H7.92578C8.13932 6.10156 8.3151 6.0599 8.45312 5.97656C8.59115 5.89323 8.69401 5.78125 8.76172 5.64062C8.82943 5.4974 8.86328 5.33854 8.86328 5.16406C8.86328 4.98177 8.83203 4.82031 8.76953 4.67969C8.70703 4.53906 8.60677 4.42969 8.46875 4.35156C8.33073 4.27083 8.14714 4.23047 7.91797 4.23047H6.90234L7.13281 3.3125H7.91797C8.38672 3.3125 8.77734 3.38281 9.08984 3.52344C9.40234 3.66406 9.63672 3.86719 9.79297 4.13281C9.94922 4.39583 10.0273 4.71484 10.0273 5.08984C10.0273 5.41797 9.97526 5.70573 9.87109 5.95312C9.76693 6.20052 9.60156 6.40495 9.375 6.56641C9.14844 6.72526 8.85026 6.83724 8.48047 6.90234L10.1758 8.94531V9H8.89453ZM10.7891 3.3125L10.5859 4.06641H7.53516L7.73828 3.3125H10.7891Z" fill="#3AA5E1"/>
<path d="M17.6121 13.9145C18.1293 13.7743 18.1293 13.1137 17.6121 12.9935L10.1468 11.0113C9.76451 10.9112 9.38227 10.8711 9 10.8711C8.61774 10.8711 8.23551 10.9112 7.85325 11.0113L0.387855 12.9935C-0.129285 13.1337 -0.129285 13.7743 0.387855 13.9145L3.22107 14.6754V16.9578C3.22107 17.4183 3.55829 17.8388 4.07558 17.9789L5.94193 18.4594C7.9656 19 10.1468 19 12.1931 18.4594L14.037 17.9789C14.5317 17.8386 14.8915 17.4382 14.8915 16.9578L14.8914 14.6353L16.5778 14.1948V16.5173H16.488C16.3531 16.5173 16.2406 16.6175 16.2406 16.7376V17.8187C16.2406 17.9388 16.3531 18.0389 16.488 18.0389H16.533L16.1506 18.6996C16.0831 18.8398 16.173 18.9999 16.3529 18.9999H17.5222C17.7021 18.9999 17.8146 18.8397 17.7246 18.6996L17.3423 18.0189H17.3873C17.5222 18.0189 17.6347 17.9188 17.6347 17.7987V16.7176C17.6347 16.5975 17.5222 16.4973 17.3873 16.4973H17.2975V13.9945L17.6121 13.9145Z" fill="#3AA5E1"/>
</svg>
