<svg width="44" height="44" viewBox="6 0 44 44" fill="none" xmlns="http://www.w3.org/2000/svg">
<path d="M5.50391 6C5.50391 2.68629 8.1902 0 11.5039 0H26L38.5009 13V38C38.5009 41.3137 35.8146 44 32.5009 44H11.5039C8.1902 44 5.50391 41.3137 5.50391 38V6Z" fill="black"/>
<path d="M26 13V0L38.5 13H26Z" fill="#A5A5A5"/>
<path d="M15.2422 26.8613C16.1471 26.8613 16.8242 27.0583 17.2734 27.4521C17.7259 27.846 17.9521 28.4059 17.9521 29.1318C17.9521 29.4574 17.9049 29.7699 17.8105 30.0693C17.7194 30.3688 17.568 30.6357 17.3564 30.8701C17.1481 31.1045 16.8698 31.29 16.5215 31.4268C16.1764 31.5635 15.75 31.6318 15.2422 31.6318H14.7002V34H12.7715V26.8613H15.2422ZM15.1982 28.4189H14.7002V30.0596H15.0811C15.2471 30.0596 15.4017 30.0319 15.5449 29.9766C15.6882 29.918 15.8021 29.8252 15.8867 29.6982C15.9746 29.568 16.0186 29.3955 16.0186 29.1807C16.0186 28.9561 15.9518 28.7738 15.8184 28.6338C15.6849 28.4906 15.4782 28.4189 15.1982 28.4189ZM24.9494 30.2793C24.9494 31.1094 24.7948 31.7995 24.4855 32.3496C24.1763 32.8997 23.7401 33.3132 23.177 33.5898C22.6171 33.8633 21.9579 34 21.1994 34H18.8898V26.8613H21.3605C22.1288 26.8613 22.7798 26.9932 23.3137 27.2568C23.8475 27.5205 24.2528 27.9062 24.5295 28.4141C24.8094 28.9219 24.9494 29.5436 24.9494 30.2793ZM22.9475 30.3477C22.9475 29.9147 22.8889 29.5566 22.7717 29.2734C22.6577 28.987 22.4852 28.7738 22.2541 28.6338C22.023 28.4906 21.7316 28.4189 21.3801 28.4189H20.8186V32.418H21.2482C21.8342 32.418 22.2639 32.2487 22.5373 31.9102C22.8107 31.5684 22.9475 31.0475 22.9475 30.3477ZM27.933 34H26.0336V26.8613H30.2523V28.4092H27.933V29.7715H30.0717V31.3193H27.933V34Z" fill="white"/>
</svg>
