<svg width="20" height="20" viewBox="0 0 20 20" fill="none" xmlns="http://www.w3.org/2000/svg">
<mask id="mask0_15973_117" style="mask-type:alpha" maskUnits="userSpaceOnUse" x="0" y="0" width="20" height="20">
<rect width="20" height="20" fill="#D9D9D9"/>
</mask>
<g mask="url(#mask0_15973_117)">
<path d="M10.0002 16.6666C8.13905 16.6666 6.56266 16.0208 5.271 14.7291C3.97933 13.4374 3.3335 11.861 3.3335 9.99992C3.3335 8.13881 3.97933 6.56242 5.271 5.27075C6.56266 3.97909 8.13905 3.33325 10.0002 3.33325C10.9585 3.33325 11.8752 3.53117 12.7502 3.927C13.6252 4.32284 14.3752 4.88881 15.0002 5.62492V3.33325H16.6668V9.16659H10.8335V7.49992H14.3335C13.8891 6.72214 13.2814 6.11103 12.5106 5.66659C11.7397 5.22214 10.9029 4.99992 10.0002 4.99992C8.61127 4.99992 7.43072 5.48603 6.4585 6.45825C5.48627 7.43047 5.00016 8.61103 5.00016 9.99992C5.00016 11.3888 5.48627 12.5694 6.4585 13.5416C7.43072 14.5138 8.61127 14.9999 10.0002 14.9999C11.0696 14.9999 12.0349 14.6944 12.896 14.0833C13.7571 13.4721 14.3613 12.6666 14.7085 11.6666H16.4585C16.0696 13.1388 15.2779 14.3402 14.0835 15.2708C12.8891 16.2013 11.5279 16.6666 10.0002 16.6666Z" fill="#1C1B1F"/>
</g>
</svg>
