<svg width="271" height="76" viewBox="0 0 271 76" fill="none" xmlns="http://www.w3.org/2000/svg">
<path d="M87.428 49.7995C90.1715 51.8138 93.6792 52.8209 97.9509 52.8209C100.764 52.8209 103.195 52.3173 105.244 51.3102C107.328 50.3031 108.908 48.9313 109.984 47.1948C111.096 45.4584 111.651 43.4962 111.651 41.3082C111.651 39.155 111.096 37.3839 109.984 35.9947C108.908 34.5708 107.606 33.4768 106.077 32.7128C104.584 31.914 102.674 31.1153 100.347 30.3165C98.7844 29.7608 97.6036 29.3094 96.8048 28.9621C96.006 28.58 95.3288 28.1459 94.7731 27.6597C94.2522 27.1388 93.9917 26.531 93.9917 25.8364C93.9917 25.0029 94.2348 24.3605 94.7211 23.909C95.2073 23.4575 95.8324 23.2318 96.5964 23.2318C97.6036 23.2318 98.4197 23.5096 99.0448 24.0653C99.7047 24.6209 100.052 25.4544 100.087 26.5658H111.183C111.009 22.9539 109.637 20.1582 107.067 18.1787C104.532 16.1644 101.129 15.1573 96.8569 15.1573C94.2175 15.1573 91.8559 15.5914 89.7722 16.4596C87.6884 17.3278 86.0562 18.6128 84.8754 20.3145C83.6946 21.9815 83.1042 23.9958 83.1042 26.3574C83.1042 28.6842 83.6425 30.577 84.7191 32.0356C85.8304 33.4595 87.1154 34.5534 88.574 35.3175C90.0674 36.0468 92.0122 36.8108 94.4085 37.6096C96.6659 38.3389 98.2981 38.9988 99.3053 39.5892C100.312 40.1795 100.816 41.013 100.816 42.0896C100.816 42.9231 100.503 43.583 99.8783 44.0692C99.2879 44.5207 98.5239 44.7464 97.5862 44.7464C96.5443 44.7464 95.6935 44.4512 95.0336 43.8608C94.3738 43.2704 93.9917 42.3327 93.8876 41.0478H83C83.2084 44.8332 84.6844 47.7505 87.428 49.7995Z" fill="black"/>
<path d="M126.608 40.4747L134.683 52.4563H147.133L135.412 37.9222L146.925 23.2318H134.683L126.608 34.6924V13.907H116.398V52.4563H126.608V40.4747Z" fill="black"/>
<path d="M150.908 19.0643C152.019 20.0367 153.478 20.5229 155.284 20.5229C157.055 20.5229 158.479 20.0367 159.556 19.0643C160.667 18.0571 161.223 16.8069 161.223 15.3135C161.223 13.7855 160.667 12.5179 159.556 11.5107C158.479 10.5036 157.055 10 155.284 10C153.478 10 152.019 10.5036 150.908 11.5107C149.831 12.5179 149.293 13.7855 149.293 15.3135C149.293 16.8069 149.831 18.0571 150.908 19.0643Z" fill="black"/>
<path d="M160.337 52.4563V23.2318H150.127V52.4563H160.337Z" fill="black"/>
<path d="M176.362 52.4563V13.907H166.151V52.4563H176.362Z" fill="black"/>
<path d="M192.387 52.4563V13.907H182.176V52.4563H192.387Z" fill="black"/>
<path d="M212.241 36.6192V15.313H202.083V36.6192C202.083 40.0227 202.743 42.9052 204.062 45.2668C205.417 47.6283 207.257 49.4169 209.584 50.6324C211.946 51.8132 214.62 52.4036 217.607 52.4036C220.593 52.4036 223.302 51.8132 225.733 50.6324C228.199 49.4169 230.144 47.6283 231.568 45.2668C232.992 42.8705 233.704 39.9879 233.704 36.6192V15.313H223.493V36.6192C223.493 38.5641 223.007 40.0921 222.035 41.2035C221.097 42.2801 219.69 42.8184 217.815 42.8184C215.94 42.8184 214.533 42.2801 213.596 41.2035C212.693 40.1269 212.241 38.5988 212.241 36.6192Z" fill="black"/>
<path fill-rule="evenodd" clip-rule="evenodd" d="M252.922 23.6479C251.463 24.4467 250.334 25.5233 249.536 26.8777V22.8144H239.325V66H249.536V47.9756C250.369 49.3301 251.498 50.4067 252.922 51.2054C254.38 52.0042 256.099 52.4036 258.079 52.4036C260.406 52.4036 262.507 51.7958 264.382 50.5803C266.292 49.3648 267.786 47.6283 268.862 45.3709C269.974 43.0788 270.529 40.4221 270.529 37.4006C270.529 34.3792 269.974 31.7398 268.862 29.4824C267.786 27.225 266.292 25.4886 264.382 24.2731C262.507 23.0575 260.406 22.4498 258.079 22.4498C256.099 22.4498 254.38 22.8492 252.922 23.6479ZM258.6 32.9727C259.642 34.0146 260.163 35.4905 260.163 37.4006C260.163 39.276 259.642 40.7693 258.6 41.8807C257.593 42.9573 256.342 43.4956 254.849 43.4956C253.356 43.4956 252.088 42.9573 251.046 41.8807C250.039 40.8041 249.536 39.3107 249.536 37.4006C249.536 35.5253 250.039 34.0493 251.046 32.9727C252.088 31.8961 253.356 31.3578 254.849 31.3578C256.342 31.3578 257.593 31.8961 258.6 32.9727Z" fill="black"/>
<path d="M43.055 37.1163C30.4962 36.4349 30.1317 19.7224 30.1317 19.7224C30.1317 19.7224 29.1576 21.2781 28.8011 22.3842C28.3408 23.8123 28.3588 26.2008 28.3588 26.2008C28.3588 26.2008 28.4465 28.1203 28.6408 29.3329C28.9044 30.9778 29.6331 33.2471 29.6331 33.2471L32.3861 39.223C32.3861 39.223 35.4322 46.451 32.056 49.3949C27.1466 53.6758 21.5958 54.0478 21.5958 54.0478C21.5958 54.0478 25.147 56.0362 27.6339 56.7144C29.3407 57.1799 30.337 57.354 32.1034 57.4529C34.1917 57.5698 35.3908 57.4603 37.4455 57.0693C39.491 56.6801 40.641 56.3431 42.5332 55.4738C44.6672 54.4935 45.7641 53.6943 47.5841 52.2102C50.1917 50.0839 51.3679 48.5214 53.3181 45.7794C55.2458 43.0691 56.1297 41.3875 57.4726 38.3446C59.1575 34.5265 60.6061 28.1279 60.6061 28.1279C60.6061 28.1279 55.6137 37.7977 43.055 37.1163Z" fill="black"/>
<path fill-rule="evenodd" clip-rule="evenodd" d="M18.8564 22.1902C18.8227 22.2318 18.789 22.2735 18.7554 22.3153C10.2325 32.9355 11.5788 48.1702 21.7626 56.3428C31.9463 64.5155 47.1111 62.5314 55.634 51.9111C56.7507 50.5197 57.6979 49.0491 58.4781 47.5255C57.6193 50.7253 56.098 53.8032 53.8915 56.5527C45.3685 67.1729 29.8499 68.8731 19.2296 60.3501C8.6094 51.8272 6.90922 36.3086 15.4322 25.6883C16.476 24.3877 17.6247 23.2209 18.8564 22.1902Z" fill="#3A3A3A"/>
<path fill-rule="evenodd" clip-rule="evenodd" d="M65.0969 31.9182C67.2095 35.4643 68.4113 39.5383 68.4113 43.8716C68.4113 57.5878 56.3696 68.707 41.5154 68.7071C38.8984 68.7071 36.3686 68.3619 33.9767 67.7182C37.153 69.2091 40.6994 70.0422 44.4404 70.0422C58.0577 70.0422 69.0967 59.0033 69.0967 45.386C69.0967 40.4162 67.6263 35.7898 65.0969 31.9182Z" fill="#3A3A3A"/>
<path d="M37.6135 15.9954L37.42 18.2562C37.42 18.2562 40.4843 15.407 45.4443 15.1128C50.4043 14.8186 54.8305 20.6485 54.8305 20.6485L55.3644 16.7464L64.6654 13.2702L47.255 0L29.3184 12.1166L33.8219 14.1683L33.1951 19.5878H33.8219L34.5105 14.4857L37.6135 15.9954Z" fill="#3AA5E1"/>
<ellipse cx="45.4051" cy="24.7582" rx="8.50621" ry="8.51723" fill="#3AA5E1"/>
<path d="M44.5255 36.883C31.9542 37.2701 30.1724 20.6489 30.1724 20.6489C30.1724 20.6489 29.3339 22.2817 29.0725 23.414C28.7351 24.876 28.9558 27.2544 28.9558 27.2544C28.9558 27.2544 29.2061 29.1595 29.5027 30.3513C29.9049 31.9678 30.8237 34.1671 30.8237 34.1671L34.074 39.8878C34.074 39.8878 37.7227 46.8311 34.6086 50.051C30.0802 54.7332 24.5811 55.575 24.5811 55.575C24.5811 55.575 28.2882 57.2548 30.8237 57.7195C32.5638 58.0384 33.5714 58.1273 35.3397 58.0758C37.4305 58.015 38.6159 57.8042 40.63 57.2402C42.6351 56.6787 43.7523 56.2453 45.5639 55.2186C47.607 54.0607 48.6321 53.1712 50.3196 51.538C52.7373 49.198 53.7766 47.5412 55.487 44.6437C57.1777 41.7795 57.9156 40.029 58.9954 36.883C60.3501 32.9357 61.2503 26.4372 61.2503 26.4372C61.2503 26.4372 57.0968 36.4959 44.5255 36.883Z" fill="#3AA5E1"/>
<path d="M70.5 17L71.9593 21.8369H76.6819L72.8613 24.8262L74.3206 29.6631L70.5 26.6738L66.6794 29.6631L68.1387 24.8262L64.3181 21.8369H69.0407L70.5 17Z" fill="#F99622"/>
</svg>
