<svg width="188" height="56" viewBox="0 0 188 56" fill="none" xmlns="http://www.w3.org/2000/svg">
<g id="Group 1000003190">
<g id="Union">
<path d="M4.42795 39.7995C7.17155 41.8138 10.6792 42.8209 14.9509 42.8209C17.7639 42.8209 20.1949 42.3173 22.244 41.3102C24.3277 40.3031 25.9079 38.9313 26.9845 37.1948C28.0958 35.4584 28.6515 33.4962 28.6515 31.3082C28.6515 29.155 28.0958 27.3839 26.9845 25.9947C25.9079 24.5708 24.6055 23.4768 23.0774 22.7128C21.5841 21.914 19.674 21.1153 17.3472 20.3165C15.7844 19.7608 14.6036 19.3094 13.8048 18.9621C13.006 18.58 12.3288 18.1459 11.7731 17.6597C11.2522 17.1388 10.9917 16.531 10.9917 15.8364C10.9917 15.0029 11.2348 14.3605 11.7211 13.909C12.2073 13.4575 12.8324 13.2318 13.5964 13.2318C14.6036 13.2318 15.4197 13.5096 16.0448 14.0653C16.7047 14.6209 17.052 15.4544 17.0867 16.5658H28.1826C28.009 12.9539 26.6372 10.1582 24.0672 8.17869C21.532 6.16441 18.1286 5.15727 13.8569 5.15727C11.2175 5.15727 8.85591 5.59138 6.77216 6.4596C4.68842 7.32783 3.05616 8.61281 1.87537 10.3145C0.694581 11.9815 0.104187 13.9958 0.104187 16.3574C0.104187 18.6842 0.642487 20.577 1.71909 22.0356C2.83042 23.4595 4.11539 24.5534 5.57401 25.3175C7.06736 26.0468 9.01219 26.8108 11.4085 27.6096C13.6659 28.3389 15.2981 28.9988 16.3053 29.5892C17.3124 30.1795 17.816 31.013 17.816 32.0896C17.816 32.9231 17.5034 33.583 16.8783 34.0692C16.2879 34.5207 15.5239 34.7464 14.5862 34.7464C13.5443 34.7464 12.6935 34.4512 12.0336 33.8608C11.3738 33.2704 10.9917 32.3327 10.8876 31.0478H0C0.208374 34.8332 1.68436 37.7505 4.42795 39.7995Z" fill="black"/>
<path d="M43.6084 30.4747L51.6829 42.4563H64.1333L52.4122 27.9222L63.9249 13.2318H51.6829L43.6084 24.6924V3.90702H33.3981V42.4563H43.6084V30.4747Z" fill="black"/>
<path d="M67.908 9.06428C69.0194 10.0367 70.478 10.5229 72.2839 10.5229C74.0551 10.5229 75.479 10.0367 76.5556 9.06428C77.6669 8.05714 78.2225 6.80689 78.2225 5.31354C78.2225 3.78547 77.6669 2.51786 76.5556 1.51072C75.479 0.503572 74.0551 0 72.2839 0C70.478 0 69.0194 0.503572 67.908 1.51072C66.8314 2.51786 66.2931 3.78547 66.2931 5.31354C66.2931 6.80689 66.8314 8.05714 67.908 9.06428Z" fill="black"/>
<path d="M77.337 42.4563V13.2318H67.1266V42.4563H77.337Z" fill="black"/>
<path d="M93.3618 42.4563V3.90702H83.1515V42.4563H93.3618Z" fill="black"/>
<path d="M109.387 42.4563V3.90702H99.1764V42.4563H109.387Z" fill="black"/>
<path d="M129.241 26.6192V5.31297H119.083V26.6192C119.083 30.0227 119.743 32.9052 121.062 35.2668C122.417 37.6283 124.257 39.4169 126.584 40.6324C128.946 41.8132 131.62 42.4036 134.607 42.4036C137.593 42.4036 140.302 41.8132 142.733 40.6324C145.199 39.4169 147.144 37.6283 148.568 35.2668C149.992 32.8705 150.704 29.9879 150.704 26.6192V5.31297H140.493V26.6192C140.493 28.5641 140.007 30.0921 139.035 31.2035C138.097 32.2801 136.69 32.8184 134.815 32.8184C132.94 32.8184 131.533 32.2801 130.596 31.2035C129.693 30.1269 129.241 28.5988 129.241 26.6192Z" fill="black"/>
<path fill-rule="evenodd" clip-rule="evenodd" d="M169.922 13.6479C168.463 14.4467 167.334 15.5233 166.536 16.8777V12.8144H156.325V56H166.536V37.9756C167.369 39.3301 168.498 40.4067 169.922 41.2054C171.38 42.0042 173.099 42.4036 175.079 42.4036C177.406 42.4036 179.507 41.7958 181.382 40.5803C183.292 39.3648 184.786 37.6283 185.862 35.3709C186.974 33.0788 187.529 30.4221 187.529 27.4006C187.529 24.3792 186.974 21.7398 185.862 19.4824C184.786 17.225 183.292 15.4886 181.382 14.2731C179.507 13.0575 177.406 12.4498 175.079 12.4498C173.099 12.4498 171.38 12.8492 169.922 13.6479ZM175.6 22.9727C176.642 24.0146 177.163 25.4905 177.163 27.4006C177.163 29.276 176.642 30.7693 175.6 31.8807C174.593 32.9573 173.342 33.4956 171.849 33.4956C170.356 33.4956 169.088 32.9573 168.046 31.8807C167.039 30.8041 166.536 29.3107 166.536 27.4006C166.536 25.5253 167.039 24.0493 168.046 22.9727C169.088 21.8961 170.356 21.3578 171.849 21.3578C173.342 21.3578 174.593 21.8961 175.6 22.9727Z" fill="black"/>
</g>
</g>
</svg>
