<svg width="24" height="24" viewBox="0 0 24 24" fill="none" xmlns="http://www.w3.org/2000/svg">
<path d="M21.4286 11.1429C21.2259 8.94211 20.2566 6.88248 18.69 5.32366C17.1233 3.76484 15.0589 2.80589 12.8571 2.61429V0H11.1429V2.61429C8.94879 2.8154 6.89443 3.77854 5.33649 5.33649C3.77854 6.89443 2.8154 8.94879 2.61429 11.1429H0V12.8571H2.61429C2.80589 15.0589 3.76484 17.1233 5.32366 18.69C6.88248 20.2566 8.94211 21.2259 11.1429 21.4286V24H12.8571V21.4286C15.0656 21.2355 17.1353 20.2704 18.7028 18.7028C20.2704 17.1353 21.2355 15.0656 21.4286 12.8571H24V11.1429H21.4286ZM12 19.7143C10.4743 19.7143 8.98278 19.2619 7.71417 18.4142C6.44556 17.5665 5.45681 16.3617 4.87293 14.9521C4.28905 13.5425 4.13628 11.9914 4.43394 10.495C4.7316 8.99859 5.46631 7.62404 6.54518 6.54518C7.62404 5.46631 8.99859 4.7316 10.495 4.43394C11.9914 4.13628 13.5425 4.28905 14.9521 4.87293C16.3617 5.45681 17.5665 6.44556 18.4142 7.71417C19.2619 8.98278 19.7143 10.4743 19.7143 12C19.7143 14.046 18.9015 16.0081 17.4548 17.4548C16.0081 18.9015 14.046 19.7143 12 19.7143Z" fill="#3AA5E1"/>
<path d="M12.0008 8.57129C11.3227 8.57129 10.6599 8.77237 10.096 9.14911C9.5322 9.52584 9.09275 10.0613 8.83325 10.6878C8.57375 11.3143 8.50585 12.0037 8.63815 12.6687C8.77044 13.3338 9.09698 13.9447 9.57647 14.4242C10.056 14.9037 10.6669 15.2303 11.332 15.3626C11.997 15.4948 12.6864 15.4269 13.3129 15.1674C13.9394 14.9079 14.4749 14.4685 14.8516 13.9047C15.2283 13.3408 15.4294 12.678 15.4294 11.9999C15.4294 11.0905 15.0682 10.2185 14.4252 9.57549C13.7822 8.93251 12.9102 8.57129 12.0008 8.57129ZM12.0008 13.7141C11.6618 13.7141 11.3303 13.6136 11.0484 13.4252C10.7665 13.2369 10.5468 12.9691 10.417 12.6559C10.2873 12.3426 10.2533 11.998 10.3195 11.6654C10.3856 11.3329 10.5489 11.0274 10.7887 10.7877C11.0284 10.5479 11.3339 10.3847 11.6664 10.3185C11.9989 10.2524 12.3436 10.2863 12.6569 10.4161C12.9701 10.5458 13.2378 10.7655 13.4262 11.0475C13.6146 11.3294 13.7151 11.6608 13.7151 11.9999C13.7151 12.4545 13.5345 12.8906 13.213 13.212C12.8915 13.5335 12.4555 13.7141 12.0008 13.7141Z" fill="#3AA5E1"/>
</svg>
