<svg width="39" height="39" viewBox="0 0 39 39" fill="none" xmlns="http://www.w3.org/2000/svg">
<path d="M19.1306 0C8.56095 0 0 8.56095 0 19.1306C0 29.7003 8.56095 38.2612 19.1306 38.2612C29.7003 38.2612 38.2612 29.7003 38.2612 19.1306C38.2612 8.56095 29.7003 0 19.1306 0ZM19.1306 5.73918C22.2967 5.73918 24.8698 8.31225 24.8698 11.4784C24.8698 14.6541 22.2967 17.2176 19.1306 17.2176C15.9645 17.2176 13.3914 14.6541 13.3914 11.4784C13.3914 8.31225 15.9645 5.73918 19.1306 5.73918ZM19.1306 32.9047C14.3384 32.9047 10.1297 30.4559 7.65225 26.7446C7.70007 22.9472 15.3141 20.8524 19.1306 20.8524C22.9472 20.8524 30.5516 22.9472 30.609 26.7446C28.1316 30.4559 23.9228 32.9047 19.1306 32.9047Z" fill="black" fill-opacity="0.4"/>
</svg>
