<svg width="25" height="25" viewBox="0 0 25 25" fill="none" xmlns="http://www.w3.org/2000/svg">
<mask id="mask0_1281_155" style="mask-type:alpha" maskUnits="userSpaceOnUse" x="0" y="0" width="25" height="25">
<rect x="0.395996" y="0.416504" width="24" height="24" fill="#D9D9D9"/>
</mask>
<g mask="url(#mask0_1281_155)">
<path d="M4.396 21.4165C4.11266 21.4165 3.87516 21.3207 3.6835 21.129C3.49183 20.9373 3.396 20.6998 3.396 20.4165C3.396 20.1332 3.49183 19.8957 3.6835 19.704C3.87516 19.5123 4.11266 19.4165 4.396 19.4165H5.396V13.4165H4.396C4.11266 13.4165 3.87516 13.3207 3.6835 13.129C3.49183 12.9373 3.396 12.6998 3.396 12.4165C3.396 12.1332 3.49183 11.8957 3.6835 11.704C3.87516 11.5123 4.11266 11.4165 4.396 11.4165H5.396V5.4165H4.396C4.11266 5.4165 3.87516 5.32067 3.6835 5.129C3.49183 4.93734 3.396 4.69984 3.396 4.4165C3.396 4.13317 3.49183 3.89567 3.6835 3.704C3.87516 3.51234 4.11266 3.4165 4.396 3.4165H20.396C20.6793 3.4165 20.9168 3.51234 21.1085 3.704C21.3002 3.89567 21.396 4.13317 21.396 4.4165C21.396 4.69984 21.3002 4.93734 21.1085 5.129C20.9168 5.32067 20.6793 5.4165 20.396 5.4165H19.396V11.4165H20.396C20.6793 11.4165 20.9168 11.5123 21.1085 11.704C21.3002 11.8957 21.396 12.1332 21.396 12.4165C21.396 12.6998 21.3002 12.9373 21.1085 13.129C20.9168 13.3207 20.6793 13.4165 20.396 13.4165H19.396V19.4165H20.396C20.6793 19.4165 20.9168 19.5123 21.1085 19.704C21.3002 19.8957 21.396 20.1332 21.396 20.4165C21.396 20.6998 21.3002 20.9373 21.1085 21.129C20.9168 21.3207 20.6793 21.4165 20.396 21.4165H4.396ZM7.396 19.4165H17.396V13.4165C17.1127 13.4165 16.8752 13.3207 16.6835 13.129C16.4918 12.9373 16.396 12.6998 16.396 12.4165C16.396 12.1332 16.4918 11.8957 16.6835 11.704C16.8752 11.5123 17.1127 11.4165 17.396 11.4165V5.4165H7.396V11.4165C7.67933 11.4165 7.91683 11.5123 8.1085 11.704C8.30016 11.8957 8.396 12.1332 8.396 12.4165C8.396 12.6998 8.30016 12.9373 8.1085 13.129C7.91683 13.3207 7.67933 13.4165 7.396 13.4165V19.4165ZM12.396 16.4165C13.2293 16.4165 13.9377 16.129 14.521 15.554C15.1043 14.979 15.396 14.2832 15.396 13.4665C15.396 12.8165 15.2085 12.2582 14.8335 11.7915C14.4585 11.3248 13.646 10.3665 12.396 8.9165C11.146 10.3498 10.3335 11.304 9.9585 11.779C9.5835 12.254 9.396 12.8165 9.396 13.4665C9.396 14.2832 9.68766 14.979 10.271 15.554C10.8543 16.129 11.5627 16.4165 12.396 16.4165Z" fill="#1C1B1F"/>
</g>
</svg>
