<svg width="30" height="30" viewBox="0 0 30 30" fill="none" xmlns="http://www.w3.org/2000/svg">
<circle opacity="0.1" cx="15" cy="15" r="15" fill="#19998E"/>
<path fill-rule="evenodd" clip-rule="evenodd" d="M14.9999 8.3335C12.4199 8.3335 10.3333 10.4202 10.3333 13.0002C10.3333 15.7802 13.2799 19.6135 14.4933 21.0735C14.7599 21.3935 15.2466 21.3935 15.5133 21.0735C16.7199 19.6135 19.6666 15.7802 19.6666 13.0002C19.6666 10.4202 17.5799 8.3335 14.9999 8.3335ZM11.6666 13.0002C11.6666 11.1602 13.1599 9.66683 14.9999 9.66683C16.8399 9.66683 18.3333 11.1602 18.3333 13.0002C18.3333 14.9202 16.4133 17.7935 14.9999 19.5868C13.6133 17.8068 11.6666 14.9002 11.6666 13.0002ZM13.3333 13.0002C13.3333 13.9202 14.0799 14.6668 14.9999 14.6668C15.9199 14.6668 16.6666 13.9202 16.6666 13.0002C16.6666 12.0802 15.9199 11.3335 14.9999 11.3335C14.0799 11.3335 13.3333 12.0802 13.3333 13.0002Z" fill="#B1D6F7"/>
</svg>
