<svg width="36" height="36" viewBox="0 0 36 36" fill="none" xmlns="http://www.w3.org/2000/svg">
<circle cx="18" cy="18" r="18" fill="#D8513F"/>
<path d="M13.0039 13.9995V11.9995C13.0039 9.23809 15.2425 6.99951 18.0039 6.99951C20.7653 6.99951 23.0039 9.23809 23.0039 11.9995V13.9995H26.0039C26.5562 13.9995 27.0039 14.4472 27.0039 14.9995V26.9995C27.0039 27.5518 26.5562 27.9995 26.0039 27.9995H10.0039C9.45163 27.9995 9.00391 27.5518 9.00391 26.9995V14.9995C9.00391 14.4472 9.45163 13.9995 10.0039 13.9995H13.0039ZM13.0039 15.9995H11.0039V25.9995H25.0039V15.9995H23.0039V17.9995H21.0039V15.9995H15.0039V17.9995H13.0039V15.9995ZM15.0039 13.9995H21.0039V11.9995C21.0039 10.3427 19.6607 8.99951 18.0039 8.99951C16.347 8.99951 15.0039 10.3427 15.0039 11.9995V13.9995Z" fill="white"/>
</svg>
