<svg width="129" height="159" viewBox="0 0 129 159" fill="none" xmlns="http://www.w3.org/2000/svg">
<path d="M24.92 137C24 137 23.2 136.66 22.52 135.98C21.88 135.3 21.56 134.5 21.56 133.58V96.62C21.56 95.7 21.88 94.9 22.52 94.22C23.2 93.54 24 93.2 24.92 93.2H46.16C47.08 93.2 47.86 93.54 48.5 94.22C49.18 94.9 49.52 95.7 49.52 96.62V98C49.52 98.92 49.18 99.72 48.5 100.4C47.86 101.08 47.08 101.42 46.16 101.42H32.24C31.92 101.42 31.76 101.58 31.76 101.9V109.82C31.76 110.18 31.92 110.36 32.24 110.36H44.96C45.88 110.36 46.66 110.7 47.3 111.38C47.98 112.06 48.32 112.86 48.32 113.78V114.68C48.32 115.6 47.98 116.4 47.3 117.08C46.66 117.76 45.88 118.1 44.96 118.1H32.24C31.92 118.1 31.76 118.26 31.76 118.58V128.3C31.76 128.62 31.92 128.78 32.24 128.78H46.16C47.08 128.78 47.86 129.12 48.5 129.8C49.18 130.48 49.52 131.28 49.52 132.2V133.58C49.52 134.5 49.18 135.3 48.5 135.98C47.86 136.66 47.08 137 46.16 137H24.92ZM70.258 119.48C65.218 117.88 61.578 115.9 59.338 113.54C57.098 111.14 55.978 108.22 55.978 104.78C55.978 101.02 57.278 98.06 59.878 95.9C62.518 93.7 66.278 92.6 71.158 92.6C74.838 92.6 78.178 93.02 81.178 93.86C82.138 94.14 82.898 94.72 83.458 95.6C84.058 96.44 84.358 97.38 84.358 98.42V100.16C84.358 100.96 84.018 101.58 83.338 102.02C82.658 102.46 81.938 102.54 81.178 102.26C77.778 101.06 74.638 100.46 71.758 100.46C68.078 100.46 66.238 101.9 66.238 104.78C66.238 107.22 67.838 108.96 71.038 110C76.558 111.68 80.378 113.64 82.498 115.88C84.658 118.12 85.738 121.06 85.738 124.7C85.738 133.3 80.318 137.6 69.478 137.6C66.038 137.6 62.918 137.06 60.118 135.98C59.158 135.62 58.398 135 57.838 134.12C57.318 133.2 57.058 132.2 57.058 131.12V129.2C57.058 128.48 57.378 127.94 58.018 127.58C58.658 127.18 59.298 127.14 59.938 127.46C62.858 128.9 65.838 129.62 68.878 129.62C70.998 129.62 72.598 129.22 73.678 128.42C74.798 127.58 75.358 126.4 75.358 124.88C75.358 123.56 74.978 122.48 74.218 121.64C73.458 120.8 72.138 120.08 70.258 119.48ZM97.5973 137C96.6773 137 95.8773 136.66 95.1973 135.98C94.5573 135.3 94.2373 134.5 94.2373 133.58V96.62C94.2373 95.7 94.5573 94.9 95.1973 94.22C95.8773 93.54 96.6773 93.2 97.5973 93.2H102.037C102.957 93.2 103.737 93.54 104.377 94.22C105.057 94.9 105.397 95.7 105.397 96.62V133.58C105.397 134.5 105.057 135.3 104.377 135.98C103.737 136.66 102.957 137 102.037 137H97.5973Z" fill="#4C813F"/>
<path fill-rule="evenodd" clip-rule="evenodd" d="M54.8156 61.5294L54.8245 61.5235C54.9905 61.4363 55.1528 61.3374 55.3101 61.239L55.3308 61.2273L55.3919 61.1866L55.6072 61.047L55.6245 61.0295L55.7757 60.9191L55.805 60.9016L55.8457 60.8667C56.7648 60.1576 57.4686 59.2336 57.8759 58.0886L57.8848 58.0655L57.9024 58.0131L57.9171 57.9724L57.9286 57.9431L57.9462 57.8855L57.952 57.8679L57.9754 57.7924L57.9955 57.7169L58.0014 57.6993L58.0162 57.6411L58.0279 57.6062L58.0393 57.5656L58.051 57.5132L58.0569 57.4901L58.0745 57.4201L58.0773 57.4145C58.2022 56.874 58.2722 56.2868 58.2781 55.6588L58.1992 55.2171L58.1964 55.1998L58.1732 55.0661L58.1674 55.0485L58.1409 54.9148C57.5152 51.8638 56.241 49.6842 54.3762 48.3876C52.8144 47.3067 50.8099 46.83 48.3982 46.9579H48.3865L48.2581 46.9637H48.2439L47.9761 46.9869H47.9613L47.8336 46.9986H47.816L47.6908 47.01H47.6735L47.5454 47.0275H47.5281L47.4029 47.0392L47.3853 47.0451L47.2545 47.0571L47.2369 47.0626L47.0885 47.0802L46.9608 47.0978L46.9401 47.1036L46.8118 47.1212H46.7917L46.6405 47.1446L46.0935 47.2432H46.0821H46.0762L46.0673 47.2491H46.0587H46.0528H46.0411H46.0358H46.0241H46.0213L45.9747 47.2549H45.9719H45.9571H45.9423L45.8612 47.2491H45.8581L45.8492 47.2432H45.8433L45.8174 47.2376H45.8085H45.8026H45.7937C45.7443 47.2259 45.6977 47.2084 45.6542 47.1853H45.6394V47.1794L45.6135 47.1677H45.6104L45.5987 47.1618L45.5839 47.1499L45.5697 47.1443L45.5462 47.1267H45.5435L45.5317 47.1148H45.5287L45.5203 47.1092H45.5172L45.5055 47.0972L45.4938 47.0916L45.4907 47.0858L45.4821 47.0799H45.479L45.4707 47.0685H45.4676L45.4589 47.0571H45.4531L45.4472 47.0512L45.4414 47.0454L45.4355 47.0395L45.4327 47.0337L45.4238 47.0278L45.4207 47.022L45.4124 47.0161L45.4096 47.0103L45.4037 47.0044L45.4006 46.9986L45.3917 46.9927L45.3889 46.9869L45.3772 46.9752L45.3713 46.9693L45.3688 46.9579L45.363 46.952L45.3602 46.9462L45.3543 46.9403L45.3485 46.9345L45.3426 46.9289L45.3398 46.923L45.3368 46.9172L45.3309 46.9058L45.3281 46.8999L45.3223 46.8941L45.3192 46.8882L45.3136 46.8824L45.3108 46.8765L45.3078 46.8648L45.3019 46.859L45.2991 46.8473H45.296L45.2902 46.8358L45.2871 46.83L45.2843 46.8186L45.2813 46.8127L45.2785 46.8068L45.2726 46.8013V46.7893L45.2667 46.7837V46.7779L45.2614 46.7603C44.4584 44.7493 43.8243 43.3658 43.0648 42.3429C42.4539 41.6395 41.6483 41.0003 40.4759 40.175C39.5648 39.6868 38.4362 39.2275 36.9762 38.6931C36.7403 38.6059 36.5514 38.3966 36.5048 38.1294C36.179 36.4146 35.6845 34.6304 35.0035 32.9679C34.061 30.649 32.7633 28.5683 31.0643 27.2141C29.4177 25.8946 27.3638 25.2496 24.8475 25.7205C24.1495 25.854 23.4073 26.0747 22.6223 26.3948C18.0925 28.237 17.0189 31.1143 15.733 34.5434C15.3494 35.578 14.9422 36.6648 14.4242 37.7925C14.0693 38.5655 13.0947 39.2922 11.8754 40.2042C10.4213 41.2857 8.57943 42.663 7.27927 44.4648C5.70798 46.6385 4.27393 47.8301 3.08395 48.8182C1.10596 50.4572 -0.136183 51.4918 0.0119364 56.3334C0.532725 59.3676 2.16455 61.0994 4.2915 62.0468C6.5172 63.0352 9.31835 63.1979 12.0035 63.0815C22.7094 62.6108 33.1129 62.6515 43.7225 62.6925L49.4799 62.7039C51.4936 62.7033 53.3408 62.3138 54.8156 61.5294ZM103.917 23.9123C105.441 24.6914 106.727 25.6327 107.818 26.7721C108.79 27.7892 109.595 28.9573 110.271 30.306C111.975 30.2943 113.523 29.6029 114.652 28.4925L114.687 28.4577C115.827 27.3186 116.534 25.7436 116.534 23.9995C116.534 22.2792 115.842 20.7159 114.722 19.5821L114.687 19.5473C113.546 18.4081 111.97 17.699 110.224 17.699C108.502 17.699 106.937 18.3906 105.796 19.5124L105.767 19.5473C104.645 20.663 103.94 22.2092 103.917 23.9123ZM85.5396 55.3216C85.5572 55.2519 85.5862 55.1878 85.6238 55.1299C86.5142 53.6884 87.064 51.8808 87.3402 49.8525C87.6487 47.574 87.6083 45.0226 87.3168 42.3897L87.3056 42.2618L87.3087 42.0469C87.1368 40.5996 86.8925 39.1348 86.5896 37.6816C85.3332 31.6722 83.093 25.8771 80.9808 22.506C79.5208 24.7901 78.0313 28.0277 76.8265 31.6488C75.2586 36.3686 74.1824 41.7273 74.3071 46.4758C74.4295 51.0967 75.6976 55.1187 78.7699 57.3156C79.2823 57.6818 79.8491 58.0014 80.4659 58.263V51.8928L77.3738 48.4052C77.106 48.0973 77.1319 47.6325 77.4374 47.3591C77.7456 47.0861 78.2173 47.1148 78.4851 47.4229L80.4662 49.6549V39.1757L77.9791 36.3218C77.7082 36.0139 77.7403 35.5429 78.0486 35.2699C78.3599 35.0026 78.8313 35.0319 79.1019 35.3454L80.4662 36.9089V34.5083C80.4662 34.0959 80.8009 33.7643 81.211 33.7643C81.6213 33.7643 81.9563 34.0956 81.9563 34.5083V45.9759L84.042 43.4533C84.298 43.134 84.7692 43.0874 85.0835 43.3488C85.4007 43.6102 85.447 44.0752 85.1881 44.3948L81.9563 48.3065V58.2048C82.5842 57.9782 83.1482 57.6818 83.6551 57.3156C84.3993 56.7862 85.025 56.1121 85.5396 55.3216ZM71.6482 29.7478C71.4504 29.55 71.1796 29.4282 70.8802 29.4282C70.5807 29.4282 70.3067 29.5503 70.112 29.7478C69.9143 29.9454 69.7921 30.2126 69.7921 30.515C69.7921 30.8112 69.9143 31.0845 70.112 31.2821C70.3067 31.4796 70.5807 31.602 70.8802 31.602C71.1796 31.602 71.4504 31.4796 71.6482 31.2821C71.8459 31.0845 71.9681 30.8114 71.9681 30.515C71.9684 30.2126 71.8459 29.9454 71.6482 29.7478ZM70.8805 27.9402C71.5902 27.9402 72.2356 28.225 72.7012 28.6959C73.1695 29.1607 73.458 29.8058 73.458 30.515C73.458 31.2241 73.1695 31.8692 72.7012 32.334C72.2356 32.7993 71.5902 33.0897 70.8805 33.0897C70.1675 33.0897 69.5246 32.7993 69.0562 32.334C68.5907 31.8692 68.3028 31.2241 68.3028 30.515C68.3028 29.8058 68.5907 29.1607 69.0562 28.6959C69.5243 28.225 70.1675 27.9402 70.8805 27.9402ZM106.259 47.3416L106.099 47.6843L106.465 47.5912C106.838 47.4809 107.187 47.3006 107.493 47.0509C107.798 46.8013 108.048 46.4931 108.235 46.1556L108.394 45.8129L108.028 45.9001C107.655 46.0163 107.31 46.1963 107.001 46.4463C106.693 46.6962 106.448 47.0044 106.259 47.3416ZM104.455 48.3063C104.551 47.7194 104.735 47.1616 105.008 46.6614C105.281 46.1618 105.645 45.7143 106.102 45.3423C106.553 44.9761 107.065 44.7089 107.615 44.5403C108.17 44.372 108.764 44.3021 109.372 44.3369C109.765 44.3544 110.067 44.6855 110.05 45.0809L110.035 45.1912C109.939 45.7781 109.759 46.3359 109.485 46.8361C109.212 47.3357 108.845 47.7832 108.391 48.1552C107.941 48.5214 107.429 48.7886 106.878 48.9575C106.323 49.1258 105.727 49.1954 105.121 49.1606C104.726 49.1431 104.423 48.812 104.441 48.4166L104.455 48.3063ZM109.479 7.67867C109.479 7.27184 109.814 6.93468 110.224 6.93468C110.637 6.93468 110.969 7.27184 110.969 7.67867V12.0265C110.969 12.4389 110.637 12.7705 110.224 12.7705C109.814 12.7705 109.479 12.4391 109.479 12.0265V7.67867ZM121.256 11.9331C121.547 11.6425 122.018 11.6486 122.306 11.939C122.594 12.2299 122.594 12.7005 122.303 12.9853L119.225 16.0597C118.934 16.3506 118.463 16.3506 118.172 16.0597C117.884 15.7693 117.887 15.2987 118.178 15.0078L121.256 11.9331ZM126.565 23.2555C126.975 23.2555 127.31 23.5924 127.31 23.9993C127.31 24.4119 126.975 24.7433 126.565 24.7433H122.21C121.8 24.7433 121.465 24.4122 121.465 23.9993C121.465 23.5924 121.8 23.2555 122.21 23.2555H126.565ZM122.306 35.0194C122.597 35.3041 122.597 35.7806 122.306 36.0713C122.015 36.3619 121.541 36.3619 121.253 36.0713L118.172 32.9969C117.881 32.7063 117.881 32.2295 118.172 31.9389C118.463 31.6482 118.937 31.6482 119.228 31.9389L122.306 35.0194ZM98.1451 12.9853C97.8547 12.6947 97.8547 12.224 98.1451 11.9334C98.436 11.6428 98.9072 11.6428 99.1981 11.9334L102.276 15.0078C102.567 15.2987 102.567 15.7693 102.276 16.0597C101.985 16.3506 101.514 16.3506 101.223 16.0597L98.1451 12.9853ZM40.8541 17.6C39.7283 15.3449 34.9863 17.7162 34.9751 17.7221C34.6086 17.9021 34.1603 17.7569 33.977 17.3908C33.7935 17.0246 33.9422 16.5771 34.3084 16.3971C34.3232 16.3913 39.2282 13.9441 41.5175 16.0427C43.807 13.9444 48.7123 16.3913 48.7293 16.3971C49.0958 16.5771 49.2411 17.0246 49.0609 17.3908C48.8746 17.7569 48.4325 17.9024 48.066 17.7221C48.0514 17.7162 43.3069 15.3449 42.1836 17.6H42.1805L42.1721 17.6176L42.1635 17.6293L42.1546 17.6469L42.1456 17.6644H42.1428L42.137 17.6761L42.1339 17.682L42.1256 17.6934L42.1138 17.7054V17.7112L42.1049 17.7229H42.1018L42.0932 17.7344L42.0901 17.7402L42.0812 17.7461L42.0784 17.7519L42.07 17.7636L42.067 17.7695L42.0553 17.7753L42.0522 17.7812L42.0435 17.787L42.0405 17.7929L42.0318 17.8043H42.026L42.0176 17.8163L42.0148 17.8218L42.0031 17.8277L42.0003 17.8336L41.9914 17.8394L41.9855 17.8453L41.9766 17.8511L41.9738 17.857L41.9624 17.8628H41.9565L41.9448 17.8745L41.9331 17.8862H41.9272L41.9161 17.8921L41.913 17.8979L41.8982 17.9038L41.8837 17.9152H41.8806L41.8664 17.9211L41.8516 17.9325H41.8486L41.8341 17.9383L41.8193 17.9442H41.8168L41.802 17.9498L41.7989 17.9556H41.7872L41.7813 17.9615L41.7696 17.9673H41.764L41.7523 17.9732H41.7434L41.7348 17.979H41.7258H41.7169L41.7085 17.9849H41.6999L41.6882 17.9907H41.6823H41.6706L41.6647 17.9966H41.6533H41.6474L41.6182 18.0021H41.6129H41.6011H41.5953L41.5836 18.008H41.5777H41.566H41.5604H41.5487H41.5428H41.5281H41.5253H41.5105H41.5049H41.4932H41.4873H41.4725H41.4698H41.4555H41.4497L41.438 18.0021H41.4321H41.4204H41.4145L41.3855 17.9966H41.3797H41.3679L41.3621 17.9907H41.3506H41.3448L41.3331 17.9849H41.3272L41.3155 17.979H41.3069H41.2985L41.2896 17.9732H41.2806L41.272 17.9673H41.2631L41.2541 17.9615L41.2488 17.9556H41.2371L41.2343 17.9498L41.2195 17.9442H41.2168L41.202 17.9383H41.1995L41.1847 17.9325H41.1816L41.1699 17.9211L41.1523 17.9152L41.135 17.9038L41.1233 17.8979L41.1175 17.8921L41.1057 17.8862H41.1029L41.0915 17.8745H41.0887L41.077 17.8628H41.0711L41.0625 17.857L41.0594 17.8511L41.0477 17.8453L41.0421 17.8394L41.0363 17.8336L41.0304 17.8277L41.0215 17.8218L41.0156 17.8163L41.0067 17.8043H41.0009L40.995 17.7929L40.9897 17.787L40.9808 17.7812L40.9777 17.7753L40.9691 17.7695L40.966 17.7636L40.9571 17.7519L40.9543 17.7461L40.9428 17.7402L40.94 17.7344L40.9311 17.7229L40.9222 17.7112L40.9194 17.7054L40.9105 17.6934H40.9077L40.8988 17.682L40.8957 17.6761L40.8904 17.6644H40.8873L40.8784 17.6469L40.8697 17.6293L40.8608 17.6176L40.855 17.6H40.8541ZM52.2557 3.27292C51.1299 1.02365 46.3878 3.38912 46.3761 3.39497C46.0096 3.58111 45.5647 3.43008 45.378 3.06393C45.1978 2.69779 45.3432 2.25612 45.7097 2.06999C45.7273 2.06413 50.6289 -0.3827 52.9188 1.72139C55.2108 -0.3827 60.1161 2.06413 60.1306 2.06999C60.4971 2.25612 60.6455 2.69779 60.462 3.06393C60.2787 3.43008 59.8335 3.58111 59.4672 3.39497C59.4525 3.38912 54.7104 1.02365 53.5849 3.27292L53.5818 3.27878L53.5759 3.2902L53.5642 3.30775L53.5584 3.32531H53.5553L53.5469 3.33701V3.34286L53.538 3.35457H53.5352L53.5294 3.36599L53.5263 3.37184L53.5174 3.38327L53.5146 3.38912L53.5056 3.39497L53.5029 3.40082L53.4945 3.41253L53.4917 3.4181L53.4828 3.42395L53.48 3.4298L53.4711 3.43565L53.468 3.44151L53.4593 3.45321L53.4535 3.45906L53.4479 3.46491L53.442 3.47076L53.4362 3.47662L53.4303 3.48247L53.4214 3.48832L53.4155 3.49417L53.4066 3.50002L53.4008 3.50587L53.3924 3.51145L53.3893 3.5173L53.3776 3.52872H53.3748L53.3659 3.53458L53.36 3.54043L53.3483 3.546L53.3461 3.55185L53.3344 3.5577H53.3316L53.3199 3.56913H53.314L53.3023 3.58083H53.2995L53.2853 3.58668L53.2677 3.59811L53.256 3.60396H53.2529L53.2387 3.60981L53.2356 3.61566L53.2211 3.62151H53.2181L53.2033 3.62737H53.2005L53.189 3.63322L53.1832 3.63907H53.1715L53.1656 3.64492H53.157L53.148 3.65077H53.1397L53.128 3.65662H53.1221H53.1107L53.1048 3.66248H53.0931H53.0875L53.0758 3.66833H53.0699L53.0582 3.67418H53.0524L53.0234 3.68003H53.0175H53.0058H52.9999H52.9882H52.9826L52.9681 3.68588H52.9623H52.9505H52.9447H52.9305H52.9274H52.9126H52.9068H52.895H52.8892H52.8777H52.8719L52.8602 3.68003H52.8543H52.8426H52.8367H52.8256H52.8197L52.7904 3.67418H52.7846L52.7731 3.66833H52.7645L52.7556 3.66248H52.7466H52.738L52.7291 3.65662H52.7207H52.709L52.7031 3.65077H52.6914L52.6856 3.64492H52.6741L52.6683 3.63907H52.6565L52.6507 3.63322L52.639 3.62737H52.6365L52.6222 3.62151H52.6192L52.6044 3.61566V3.60981L52.5868 3.60396L52.5726 3.59811L52.555 3.58668L52.5405 3.58083L52.5257 3.56913H52.5232L52.5115 3.5577H52.5056L52.4939 3.55185L52.4911 3.546L52.4822 3.54043L52.4763 3.53458L52.4649 3.52872H52.4621L52.4532 3.5173L52.4473 3.51145L52.4384 3.50587L52.4325 3.50002L52.4236 3.49417L52.4183 3.48832L52.4125 3.48247L52.4066 3.47662L52.3977 3.47076L52.3946 3.46491L52.3829 3.45906L52.3801 3.45321L52.3712 3.44151L52.3681 3.43565L52.3597 3.4298L52.357 3.42395L52.348 3.4181L52.3422 3.41253L52.3363 3.40082L52.3332 3.39497L52.3243 3.38912L52.3215 3.38327L52.3132 3.37184V3.36599L52.3042 3.35457H52.3014L52.2925 3.34286V3.33701L52.2836 3.32531L52.2719 3.30775L52.266 3.2902L52.2576 3.27878L52.2557 3.27292ZM21.2728 7.30054C20.147 5.05127 15.4021 7.41702 15.3904 7.42287C15.0239 7.60288 14.5787 7.4577 14.3954 7.09155C14.2124 6.72541 14.3606 6.27789 14.7271 6.09789C14.7419 6.09203 19.6435 3.63907 21.9361 5.74317C24.2282 3.6452 29.1334 6.09203 29.1452 6.09789C29.5117 6.27789 29.6629 6.72541 29.4765 7.09155C29.2963 7.4577 28.8486 7.60316 28.4821 7.42287C28.4704 7.41702 23.7283 5.0457 22.5995 7.30054L22.5936 7.3181H22.5908L22.5819 7.33565L22.576 7.34736H22.5704L22.5646 7.36491L22.5529 7.37634V7.38219L22.5439 7.39361L22.5412 7.39947L22.5353 7.40532L22.5294 7.41117L22.5236 7.42315L22.5183 7.42872L22.5124 7.43457L22.5066 7.44043L22.5007 7.45213L22.4948 7.45798L22.489 7.46384L22.4831 7.46969L22.4773 7.47554L22.4714 7.48111L22.4658 7.49309H22.46L22.4511 7.50452L22.4452 7.51037L22.4365 7.51622L22.4307 7.52207L22.4248 7.52792L22.4195 7.53378L22.4078 7.53963L22.4047 7.54548L22.3958 7.55133L22.39 7.55718L22.381 7.56303L22.3783 7.56889L22.3668 7.57474H22.361L22.3492 7.58644H22.3462L22.3345 7.59814H22.3317L22.32 7.60399H22.3172L22.3029 7.61542L22.2854 7.62127L22.2706 7.63298H22.2678L22.2564 7.63883H22.2505L22.2388 7.64468L22.2329 7.65053L22.2212 7.65638H22.2153L22.2042 7.66223H22.1983L22.1866 7.66808H22.1808L22.1718 7.67394H22.1632L22.1548 7.67979H22.1459L22.137 7.68564H22.1283H22.1194L22.111 7.69149H22.1052H22.0934L22.0848 7.69734H22.0759H22.0669L22.0379 7.70291H22.0321L22.0204 7.70877H22.0145H22.0031H21.9972H21.9824H21.9766H21.9649H21.959H21.9476H21.9417H21.93H21.9241H21.9124H21.9066H21.8954H21.8895H21.8778H21.872H21.8572H21.8544L21.8402 7.70291H21.8374L21.805 7.69734H21.7994H21.7877L21.7819 7.69149H21.7702H21.7612L21.7523 7.68564H21.7439H21.735L21.7264 7.67979H21.7174L21.7085 7.67394H21.7026L21.6915 7.66808H21.6856L21.6739 7.66223H21.6681L21.6563 7.65638H21.6505L21.639 7.65053L21.6332 7.64468L21.6215 7.63883H21.6184L21.6036 7.63298L21.5863 7.62127L21.5718 7.61542H21.5688L21.557 7.60399H21.554L21.5397 7.59814L21.525 7.58644H21.5222L21.5105 7.57474H21.5077L21.496 7.56889L21.4929 7.56303L21.4814 7.55718L21.4756 7.55133L21.4669 7.54548L21.4639 7.53963L21.4522 7.53378L21.4463 7.52792L21.4407 7.52207L21.4349 7.51622L21.4259 7.51037L21.4231 7.50452L21.4114 7.49309H21.4086L21.3997 7.48111L21.3939 7.47554L21.3886 7.46969L21.3827 7.46384L21.3768 7.45798L21.371 7.45213L21.3651 7.44043L21.3593 7.43457L21.3534 7.42872L21.3476 7.42315L21.3417 7.41117L21.3361 7.40532L21.3303 7.39947L21.3272 7.39361L21.3185 7.38219V7.37634L21.3096 7.36491H21.3065L21.3007 7.34736H21.2979L21.289 7.33565L21.2806 7.3181L21.2728 7.30054ZM68.6693 71.7355L68.5064 72.0783L68.8758 71.9911C69.2336 71.8807 69.565 71.7063 69.8621 71.4739L69.8998 71.4449C70.2111 71.1891 70.4585 70.887 70.6443 70.5499L70.8044 70.2071L70.4378 70.2999C70.066 70.4103 69.7165 70.5906 69.4108 70.8402C69.1053 71.0902 68.8554 71.3984 68.6693 71.7355ZM66.8595 72.7409C66.9496 72.1423 67.1385 71.5728 67.418 71.0612C67.6916 70.5557 68.0584 70.1082 68.512 69.7359C68.9628 69.3701 69.4749 69.1026 70.0247 68.934C70.5807 68.7657 71.174 68.6957 71.7818 68.7308C72.1748 68.7484 72.4803 69.0791 72.4599 69.4748L72.454 69.5445C72.3642 70.143 72.1782 70.7123 71.8956 71.23C71.6192 71.7355 71.2529 72.1833 70.8047 72.5492L70.7639 72.5782C70.3218 72.9326 69.8211 73.1884 69.2891 73.3511C68.7332 73.5197 68.1399 73.5894 67.5287 73.5604C67.1388 73.537 66.8333 73.206 66.854 72.8108L66.8595 72.7409ZM59.7671 55.6122L59.6625 54.944L59.6566 54.9265L59.6274 54.7752C58.9353 51.2413 57.4457 48.7014 55.2259 47.1613C53.5093 45.9753 51.3829 45.4058 48.8665 45.4523H48.8576L48.7123 45.4582H48.7006L48.5552 45.464H48.5463L48.3979 45.4699H48.392L48.2409 45.4813H48.235L48.0838 45.4872H48.0749L47.9265 45.4989H47.9148L47.7636 45.5164H47.7549L47.6037 45.5281H47.5951L47.4408 45.5457L47.2779 45.5632H47.2696L47.1153 45.5808H47.1064C46.891 45.6098 46.6698 45.639 46.4492 45.6739C45.7914 43.8779 45.2564 42.721 44.4706 41.7156C44.3948 41.6111 44.3136 41.5122 44.2294 41.4194C43.9588 41.0588 43.6734 40.7278 43.3627 40.4255C42.7836 39.8618 42.1345 39.3908 41.3465 38.955C43.3127 36.8805 44.6015 36.3513 45.5125 35.9735C46.0799 35.7355 46.5306 35.5493 46.9555 35.1481C47.5602 34.5668 47.866 33.8694 48.2325 33.0326C48.9452 31.3994 49.9374 29.1209 54.2398 26.4472C54.9846 25.9821 55.7121 25.5867 56.4507 25.2206C57.1841 24.8606 57.9668 24.5061 58.7841 24.1397C59.0458 24.0177 59.2089 23.768 59.2201 23.5002C59.5055 18.3159 61.4369 13.7591 64.6023 10.3704C67.7209 7.03416 72.044 4.82585 77.1702 4.28498C79.4887 4.04089 80.9956 5.1162 82.6419 6.29016C83.9022 7.19104 85.2431 8.1443 87.0847 8.71971C87.8292 8.95239 88.5012 9.1441 89.1037 9.31268C92.2569 10.2077 93.5316 10.5739 95.5735 14.689C96.219 15.9967 96.6845 17.2871 96.9986 18.6124C97.313 19.9429 97.479 21.315 97.5225 22.7679C97.5314 23.1168 97.7786 23.4016 98.1016 23.4712C101.962 24.3431 104.746 25.7032 106.742 27.7956C108.741 29.888 109.991 32.7534 110.777 36.6247C110.855 37.0022 111.213 37.258 111.592 37.2112C116.391 36.63 119.883 38.002 122.437 40.5709C125.044 43.1866 126.72 47.0632 127.831 51.3934C129.558 58.1357 126.443 61.0534 121.786 62.2449L121.727 62.2622C117.538 63.3203 112.101 63.0703 107.641 62.8669C106.305 62.8087 105.052 62.7507 103.911 62.7334C101.04 62.6927 98.1683 62.6752 95.3001 62.6696V69.9928C97.5986 69.8535 99.8559 69.8477 102.049 69.958C102.448 69.737 102.867 69.5163 103.306 69.3071C103.763 69.0861 104.237 68.8768 104.726 68.6737C106.745 67.8481 108.77 67.3078 110.69 67.052C112.703 66.7792 114.606 66.8081 116.275 67.1219C116.677 67.1974 116.945 67.587 116.869 67.9879C116.793 68.3945 116.403 68.6562 116.002 68.5806C114.483 68.2961 112.738 68.2669 110.888 68.5224C109.087 68.7606 107.187 69.2723 105.291 70.0452L104.973 70.179C105.596 70.2428 106.216 70.3183 106.826 70.3999C110.789 70.9461 114.469 71.9052 117.707 73.2012C118.088 73.3525 118.271 73.7883 118.12 74.1662C117.969 74.5499 117.535 74.7358 117.154 74.5786C114.023 73.3291 110.469 72.3993 106.629 71.8762C102.916 71.3646 98.937 71.225 94.8145 71.5157C89.8133 71.8701 85.1061 72.8295 80.9024 74.2476L80.8709 74.2593C76.5358 75.7239 72.7308 77.6886 69.6995 79.9844C69.3703 80.2285 68.9023 80.1644 68.6579 79.8392C68.408 79.5082 68.4749 79.0431 68.8032 78.799C71.957 76.4102 75.9015 74.3757 80.3964 72.8529L80.4227 72.8412C80.987 72.6551 81.5543 72.4751 82.1334 72.3009L82.0665 60.4669L82.0723 60.3914L82.0693 59.6705C82.9689 59.3918 83.7714 58.9847 84.481 58.4793C85.0715 58.0552 85.5954 57.5667 86.061 57.0147C86.7419 58.45 87.69 59.6649 88.8189 60.5424C89.866 61.3502 91.0675 61.8735 92.3509 62.0128V62.6638C89.642 62.6638 86.9307 62.6696 84.2224 62.6638H83.5647L83.6143 71.8765C86.8113 71.0163 90.2328 70.4117 93.8111 70.1037V59.8279L93.8139 59.7463V56.2882L97.0461 52.3707C97.3052 52.0508 97.2586 51.586 96.9412 51.3243C96.6271 51.0685 96.1562 51.1092 95.8974 51.4291L93.8139 53.9515V42.4841C93.8139 42.077 93.4798 41.7401 93.0697 41.7401C92.6594 41.7401 92.3244 42.077 92.3244 42.4841V44.8903L90.9601 43.3212C90.6895 43.0133 90.2181 42.9782 89.907 43.2457C89.5988 43.5188 89.5667 43.9897 89.837 44.2976L92.3244 47.1571V51.9L90.3433 49.6622C90.0758 49.3601 89.6047 49.3309 89.2989 49.5984C88.9935 49.8714 88.9642 50.3365 89.2351 50.6447L92.3244 54.132V60.514C91.388 60.3744 90.5059 59.9734 89.7266 59.369C88.6794 58.5553 87.8066 57.3755 87.2127 55.9513L87.0732 55.5969C87.9723 54.0273 88.5279 52.1386 88.8127 50.052C89.1385 47.6456 89.0981 44.9778 88.7954 42.2345C88.8013 40.5433 89.336 38.8692 90.1921 37.6484C90.957 36.5503 91.9754 35.8297 93.0661 35.8297C94.212 35.8297 95.2594 36.4511 96.0276 37.457C96.8422 38.515 97.3482 39.9969 97.3482 41.6418C97.3482 42.0255 97.3191 42.3916 97.2698 42.7461C97.2201 43.1066 97.1445 43.4552 97.0455 43.7807L97.0424 43.7983C96.9671 44.0424 97.0223 44.3213 97.2112 44.5244C98.0028 45.3615 98.6511 46.4251 99.0994 47.6456C99.5301 48.8315 99.7741 50.1682 99.7741 51.5804C99.7741 54.103 98.9976 56.3757 97.7468 58.0089C97.0569 58.9095 96.2251 59.6128 95.3001 60.0547V61.6648C96.6965 61.159 97.9418 60.1999 98.9281 58.9095C100.368 57.0264 101.264 54.4341 101.264 51.5801C101.264 49.9938 100.988 48.4882 100.496 47.1396C100.03 45.8725 99.373 44.7393 98.5761 43.8147C98.6455 43.536 98.7008 43.2454 98.7415 42.9548C98.8029 42.5245 98.8377 42.0829 98.8377 41.6409C98.8377 39.6647 98.2157 37.863 97.2087 36.5553C96.161 35.1835 94.6948 34.3411 93.0658 34.3411C91.4543 34.3411 90.0111 35.3175 88.9754 36.7994C88.6643 37.2413 88.3904 37.7295 88.1581 38.2525C88.1025 37.9619 88.0443 37.6774 87.9862 37.3923C86.5784 30.6443 83.9368 24.1286 81.5658 20.8215C81.5223 20.7577 81.464 20.6995 81.397 20.6529C81.0773 20.4264 80.6319 20.5022 80.4051 20.8215C78.6943 23.2101 76.8876 26.9591 75.4764 31.2024C73.8591 36.0615 72.7534 41.5886 72.8847 46.5118C73.0184 51.5567 74.4524 55.9856 77.944 58.479C78.7175 59.031 79.5959 59.4902 80.5853 59.8329L80.5973 62.6579C72.367 62.6348 64.1371 62.6231 55.904 62.6172C56.1687 62.4603 56.4248 62.2918 56.6661 62.1056C57.8759 61.1989 58.7958 59.996 59.3077 58.5077L59.325 58.4614L59.3367 58.4149L59.3601 58.3511L59.366 58.3277L59.395 58.2349L59.424 58.1418L59.4299 58.1243L59.4505 58.0487L59.4622 58.0081L59.4764 57.9557L59.494 57.8916L59.4999 57.8626L59.523 57.7754V57.7695L59.5465 57.6709V57.6592L59.5671 57.5778L59.5755 57.543L59.5872 57.4792L59.5989 57.4209L59.6048 57.3803L59.6223 57.2989L59.6424 57.1768L59.6572 57.0838L59.6631 57.0548L59.6748 56.9849L59.6801 56.9325L59.6859 56.8801L59.6977 56.8046V56.7814L59.7094 56.6828V56.6769L59.7211 56.5725L59.7242 56.5549L59.7325 56.4677L59.7353 56.427L59.7384 56.3632L59.7442 56.2935L59.7473 56.2587L59.7532 56.1656V56.1539L59.759 56.0494L59.7618 56.0319V55.9388L59.7649 55.8981V55.8343L59.7677 55.7702V55.724V55.6309V55.6122H59.7671Z" fill="#4C813F"/>
</svg>
