<svg width="288" height="27" viewBox="0 0 288 27" fill="none" xmlns="http://www.w3.org/2000/svg">
<path d="M5.048 6.848V9.608H10.448V13.184H5.048V16.232H11.168V20H0.344V3.08H11.168V6.848H5.048ZM12.7244 13.256C12.7244 11.864 12.9724 10.648 13.4684 9.608C13.9804 8.568 14.6684 7.768 15.5324 7.208C16.4124 6.648 17.3884 6.368 18.4604 6.368C19.3884 6.368 20.1884 6.552 20.8604 6.92C21.5324 7.288 22.0524 7.784 22.4204 8.408V6.536H27.1244V20H22.4204V18.128C22.0524 18.752 21.5244 19.248 20.8364 19.616C20.1644 19.984 19.3724 20.168 18.4604 20.168C17.3884 20.168 16.4124 19.888 15.5324 19.328C14.6684 18.768 13.9804 17.968 13.4684 16.928C12.9724 15.872 12.7244 14.648 12.7244 13.256ZM22.4204 13.256C22.4204 12.392 22.1804 11.712 21.7004 11.216C21.2364 10.72 20.6604 10.472 19.9724 10.472C19.2684 10.472 18.6844 10.72 18.2204 11.216C17.7564 11.696 17.5244 12.376 17.5244 13.256C17.5244 14.12 17.7564 14.808 18.2204 15.32C18.6844 15.816 19.2684 16.064 19.9724 16.064C20.6604 16.064 21.2364 15.816 21.7004 15.32C22.1804 14.824 22.4204 14.136 22.4204 13.256ZM34.5089 8.912C35.0369 8.144 35.6769 7.536 36.4289 7.088C37.1809 6.64 37.9889 6.416 38.8529 6.416V11.432H37.5329C36.5089 11.432 35.7489 11.632 35.2529 12.032C34.7569 12.432 34.5089 13.128 34.5089 14.12V20H29.8049V6.536H34.5089V8.912ZM48.4833 15.992V20H46.4433C43.0033 20 41.2833 18.296 41.2833 14.888V10.448H39.6273V6.536H41.2833V3.272H46.0113V6.536H48.4593V10.448H46.0113V14.96C46.0113 15.328 46.0913 15.592 46.2513 15.752C46.4273 15.912 46.7153 15.992 47.1153 15.992H48.4833ZM59.4969 6.416C61.0329 6.416 62.2489 6.936 63.1449 7.976C64.0569 9 64.5129 10.392 64.5129 12.152V20H59.8089V12.776C59.8089 12.008 59.6089 11.408 59.2089 10.976C58.8089 10.528 58.2729 10.304 57.6009 10.304C56.8969 10.304 56.3449 10.528 55.9449 10.976C55.5449 11.408 55.3449 12.008 55.3449 12.776V20H50.6409V2.24H55.3449V8.456C55.7609 7.848 56.3209 7.36 57.0249 6.992C57.7449 6.608 58.5689 6.416 59.4969 6.416ZM78.0718 20.168C76.1038 20.168 74.4878 19.704 73.2238 18.776C71.9598 17.832 71.2798 16.488 71.1838 14.744H76.1998C76.2478 15.336 76.4238 15.768 76.7278 16.04C77.0318 16.312 77.4238 16.448 77.9038 16.448C78.3358 16.448 78.6878 16.344 78.9598 16.136C79.2478 15.912 79.3918 15.608 79.3918 15.224C79.3918 14.728 79.1598 14.344 78.6958 14.072C78.2318 13.8 77.4798 13.496 76.4398 13.16C75.3358 12.792 74.4398 12.44 73.7518 12.104C73.0798 11.752 72.4878 11.248 71.9758 10.592C71.4798 9.92 71.2318 9.048 71.2318 7.976C71.2318 6.888 71.5038 5.96 72.0478 5.192C72.5918 4.408 73.3438 3.816 74.3038 3.416C75.2638 3.016 76.3518 2.816 77.5678 2.816C79.5358 2.816 81.1038 3.28 82.2718 4.208C83.4558 5.12 84.0878 6.408 84.1678 8.072H79.0558C79.0398 7.56 78.8798 7.176 78.5758 6.92C78.2878 6.664 77.9118 6.536 77.4478 6.536C77.0958 6.536 76.8078 6.64 76.5838 6.848C76.3598 7.056 76.2478 7.352 76.2478 7.736C76.2478 8.056 76.3678 8.336 76.6078 8.576C76.8638 8.8 77.1758 9 77.5438 9.176C77.9118 9.336 78.4558 9.544 79.1758 9.8C80.2478 10.168 81.1278 10.536 81.8158 10.904C82.5198 11.256 83.1198 11.76 83.6158 12.416C84.1278 13.056 84.3838 13.872 84.3838 14.864C84.3838 15.872 84.1278 16.776 83.6158 17.576C83.1198 18.376 82.3918 19.008 81.4318 19.472C80.4878 19.936 79.3678 20.168 78.0718 20.168ZM100.347 6.536V20H95.6186V18.08C95.2186 18.688 94.6666 19.184 93.9626 19.568C93.2586 19.936 92.4506 20.12 91.5386 20.12C89.9706 20.12 88.7306 19.608 87.8186 18.584C86.9226 17.544 86.4746 16.136 86.4746 14.36V6.536H91.1546V13.76C91.1546 14.528 91.3546 15.136 91.7546 15.584C92.1706 16.016 92.7146 16.232 93.3866 16.232C94.0746 16.232 94.6186 16.016 95.0186 15.584C95.4186 15.136 95.6186 14.528 95.6186 13.76V6.536H100.347ZM107.728 8.408C108.096 7.784 108.616 7.288 109.288 6.92C109.96 6.552 110.752 6.368 111.664 6.368C112.736 6.368 113.704 6.648 114.568 7.208C115.448 7.768 116.136 8.568 116.632 9.608C117.144 10.648 117.4 11.864 117.4 13.256C117.4 14.648 117.144 15.872 116.632 16.928C116.136 17.968 115.448 18.768 114.568 19.328C113.704 19.888 112.736 20.168 111.664 20.168C110.752 20.168 109.96 19.984 109.288 19.616C108.632 19.248 108.112 18.752 107.728 18.128V26.432H103.024V6.536H107.728V8.408ZM112.624 13.256C112.624 12.376 112.384 11.696 111.904 11.216C111.44 10.72 110.864 10.472 110.176 10.472C109.488 10.472 108.904 10.72 108.424 11.216C107.96 11.712 107.728 12.392 107.728 13.256C107.728 14.136 107.96 14.824 108.424 15.32C108.904 15.816 109.488 16.064 110.176 16.064C110.864 16.064 111.44 15.816 111.904 15.32C112.384 14.808 112.624 14.12 112.624 13.256ZM124.04 8.408C124.408 7.784 124.928 7.288 125.6 6.92C126.272 6.552 127.064 6.368 127.976 6.368C129.048 6.368 130.016 6.648 130.88 7.208C131.76 7.768 132.448 8.568 132.944 9.608C133.456 10.648 133.712 11.864 133.712 13.256C133.712 14.648 133.456 15.872 132.944 16.928C132.448 17.968 131.76 18.768 130.88 19.328C130.016 19.888 129.048 20.168 127.976 20.168C127.064 20.168 126.272 19.984 125.6 19.616C124.944 19.248 124.424 18.752 124.04 18.128V26.432H119.336V6.536H124.04V8.408ZM128.936 13.256C128.936 12.376 128.696 11.696 128.216 11.216C127.752 10.72 127.176 10.472 126.488 10.472C125.8 10.472 125.216 10.72 124.736 11.216C124.272 11.712 124.04 12.392 124.04 13.256C124.04 14.136 124.272 14.824 124.736 15.32C125.216 15.816 125.8 16.064 126.488 16.064C127.176 16.064 127.752 15.816 128.216 15.32C128.696 14.808 128.936 14.12 128.936 13.256ZM141.913 20.168C140.569 20.168 139.361 19.888 138.289 19.328C137.233 18.768 136.401 17.968 135.793 16.928C135.185 15.888 134.881 14.664 134.881 13.256C134.881 11.864 135.185 10.648 135.793 9.608C136.417 8.568 137.257 7.768 138.313 7.208C139.385 6.648 140.593 6.368 141.937 6.368C143.281 6.368 144.481 6.648 145.537 7.208C146.609 7.768 147.449 8.568 148.057 9.608C148.681 10.648 148.993 11.864 148.993 13.256C148.993 14.648 148.681 15.872 148.057 16.928C147.449 17.968 146.609 18.768 145.537 19.328C144.465 19.888 143.257 20.168 141.913 20.168ZM141.913 16.088C142.569 16.088 143.113 15.848 143.545 15.368C143.993 14.872 144.217 14.168 144.217 13.256C144.217 12.344 143.993 11.648 143.545 11.168C143.113 10.688 142.577 10.448 141.937 10.448C141.297 10.448 140.761 10.688 140.329 11.168C139.897 11.648 139.681 12.344 139.681 13.256C139.681 14.184 139.889 14.888 140.305 15.368C140.721 15.848 141.257 16.088 141.913 16.088ZM155.611 8.912C156.139 8.144 156.779 7.536 157.531 7.088C158.283 6.64 159.091 6.416 159.955 6.416V11.432H158.635C157.611 11.432 156.851 11.632 156.355 12.032C155.859 12.432 155.611 13.128 155.611 14.12V20H150.907V6.536H155.611V8.912ZM169.585 15.992V20H167.545C164.105 20 162.385 18.296 162.385 14.888V10.448H160.729V6.536H162.385V3.272H167.113V6.536H169.561V10.448H167.113V14.96C167.113 15.328 167.193 15.592 167.353 15.752C167.529 15.912 167.817 15.992 168.217 15.992H169.585ZM181.04 3.08V20H176.336V3.08H181.04ZM192.527 6.416C194.079 6.416 195.311 6.936 196.223 7.976C197.135 9 197.591 10.392 197.591 12.152V20H192.887V12.776C192.887 12.008 192.687 11.408 192.287 10.976C191.887 10.528 191.351 10.304 190.679 10.304C189.975 10.304 189.423 10.528 189.023 10.976C188.623 11.408 188.423 12.008 188.423 12.776V20H183.719V6.536H188.423V8.456C188.839 7.848 189.399 7.36 190.103 6.992C190.807 6.608 191.615 6.416 192.527 6.416ZM202.548 5.288C201.716 5.288 201.044 5.064 200.532 4.616C200.036 4.152 199.788 3.576 199.788 2.888C199.788 2.184 200.036 1.6 200.532 1.136C201.044 0.671999 201.716 0.439999 202.548 0.439999C203.364 0.439999 204.02 0.671999 204.516 1.136C205.028 1.6 205.284 2.184 205.284 2.888C205.284 3.576 205.028 4.152 204.516 4.616C204.02 5.064 203.364 5.288 202.548 5.288ZM204.876 6.536V20H200.172V6.536H204.876ZM215.499 15.992V20H213.459C210.019 20 208.299 18.296 208.299 14.888V10.448H206.643V6.536H208.299V3.272H213.027V6.536H215.475V10.448H213.027V14.96C213.027 15.328 213.107 15.592 213.267 15.752C213.443 15.912 213.731 15.992 214.131 15.992H215.499ZM220.033 5.288C219.201 5.288 218.529 5.064 218.017 4.616C217.521 4.152 217.273 3.576 217.273 2.888C217.273 2.184 217.521 1.6 218.017 1.136C218.529 0.671999 219.201 0.439999 220.033 0.439999C220.849 0.439999 221.505 0.671999 222.001 1.136C222.513 1.6 222.769 2.184 222.769 2.888C222.769 3.576 222.513 4.152 222.001 4.616C221.505 5.064 220.849 5.288 220.033 5.288ZM222.361 6.536V20H217.657V6.536H222.361ZM224.271 13.256C224.271 11.864 224.519 10.648 225.015 9.608C225.527 8.568 226.215 7.768 227.079 7.208C227.959 6.648 228.935 6.368 230.007 6.368C230.935 6.368 231.735 6.552 232.407 6.92C233.079 7.288 233.599 7.784 233.967 8.408V6.536H238.671V20H233.967V18.128C233.599 18.752 233.071 19.248 232.383 19.616C231.711 19.984 230.919 20.168 230.007 20.168C228.935 20.168 227.959 19.888 227.079 19.328C226.215 18.768 225.527 17.968 225.015 16.928C224.519 15.872 224.271 14.648 224.271 13.256ZM233.967 13.256C233.967 12.392 233.727 11.712 233.247 11.216C232.783 10.72 232.207 10.472 231.519 10.472C230.815 10.472 230.231 10.72 229.767 11.216C229.303 11.696 229.071 12.376 229.071 13.256C229.071 14.12 229.303 14.808 229.767 15.32C230.231 15.816 230.815 16.064 231.519 16.064C232.207 16.064 232.783 15.816 233.247 15.32C233.727 14.824 233.967 14.136 233.967 13.256ZM249.296 15.992V20H247.256C243.816 20 242.096 18.296 242.096 14.888V10.448H240.44V6.536H242.096V3.272H246.824V6.536H249.272V10.448H246.824V14.96C246.824 15.328 246.904 15.592 247.064 15.752C247.24 15.912 247.528 15.992 247.928 15.992H249.296ZM253.829 5.288C252.997 5.288 252.325 5.064 251.813 4.616C251.317 4.152 251.069 3.576 251.069 2.888C251.069 2.184 251.317 1.6 251.813 1.136C252.325 0.671999 252.997 0.439999 253.829 0.439999C254.645 0.439999 255.301 0.671999 255.797 1.136C256.309 1.6 256.565 2.184 256.565 2.888C256.565 3.576 256.309 4.152 255.797 4.616C255.301 5.064 254.645 5.288 253.829 5.288ZM256.157 6.536V20H251.453V6.536H256.157ZM265.292 15.56L267.812 6.536H272.828L268.196 20H262.34L257.708 6.536H262.724L265.292 15.56ZM287.286 13.112C287.286 13.48 287.262 13.848 287.214 14.216H278.31C278.358 14.952 278.558 15.504 278.91 15.872C279.278 16.224 279.742 16.4 280.302 16.4C281.086 16.4 281.646 16.048 281.982 15.344H286.998C286.79 16.272 286.382 17.104 285.774 17.84C285.182 18.56 284.43 19.128 283.518 19.544C282.606 19.96 281.598 20.168 280.494 20.168C279.166 20.168 277.982 19.888 276.942 19.328C275.918 18.768 275.11 17.968 274.518 16.928C273.942 15.888 273.654 14.664 273.654 13.256C273.654 11.848 273.942 10.632 274.518 9.608C275.094 8.568 275.894 7.768 276.918 7.208C277.958 6.648 279.15 6.368 280.494 6.368C281.822 6.368 282.998 6.64 284.022 7.184C285.046 7.728 285.846 8.512 286.422 9.536C286.998 10.544 287.286 11.736 287.286 13.112ZM282.486 11.936C282.486 11.36 282.294 10.912 281.91 10.592C281.526 10.256 281.046 10.088 280.47 10.088C279.894 10.088 279.422 10.248 279.054 10.568C278.686 10.872 278.446 11.328 278.334 11.936H282.486Z" fill="#4C813F"/>
</svg>
