<svg width="12" height="14" viewBox="0 0 12 14" fill="none" xmlns="http://www.w3.org/2000/svg">
<path d="M9.33333 0.333496V1.66683H11.3377C11.7035 1.66683 12 1.96346 12 2.3291V13.0046C12 13.3703 11.7034 13.6668 11.3377 13.6668H0.662267C0.296507 13.6668 0 13.3702 0 13.0046V2.3291C0 1.96334 0.296633 1.66683 0.662267 1.66683H2.66667V0.333496H9.33333ZM2.66667 3.00016H1.33333V12.3335H10.6667V3.00016H9.33333V4.3335H2.66667V3.00016ZM4 9.66683V11.0002H2.66667V9.66683H4ZM4 7.66683V9.00016H2.66667V7.66683H4ZM4 5.66683V7.00016H2.66667V5.66683H4ZM8 1.66683H4V3.00016H8V1.66683Z" fill="#A71B4A"/>
</svg>
