<svg width="20" height="18" viewBox="0 0 20 18" fill="none" xmlns="http://www.w3.org/2000/svg">
<path d="M7.16732 17.75L5.58398 15.0833L2.58398 14.4167L2.87565 11.3333L0.833984 9L2.87565 6.66667L2.58398 3.58333L5.58398 2.91667L7.16732 0.25L10.0007 1.45833L12.834 0.25L14.4173 2.91667L17.4173 3.58333L17.1257 6.66667L19.1673 9L17.1257 11.3333L17.4173 14.4167L14.4173 15.0833L12.834 17.75L10.0007 16.5417L7.16732 17.75ZM7.87565 15.625L10.0007 14.7083L12.1673 15.625L13.334 13.625L15.6257 13.0833L15.4173 10.75L16.959 9L15.4173 7.20833L15.6257 4.875L13.334 4.375L12.1257 2.375L10.0007 3.29167L7.83399 2.375L6.66732 4.375L4.37565 4.875L4.58398 7.20833L3.04232 9L4.58398 10.75L4.37565 13.125L6.66732 13.625L7.87565 15.625ZM9.12565 11.9583L13.834 7.25L12.6673 6.04167L9.12565 9.58333L7.33398 7.83333L6.16732 9L9.12565 11.9583Z" fill="#11704C"/>
</svg>
