<svg width="59" height="15" viewBox="0 0 59 15" fill="none" xmlns="http://www.w3.org/2000/svg">
<path d="M6.44688 7.80076V5.74447C6.44688 5.46265 6.39195 5.19755 6.28209 4.94917C6.177 4.69602 6.03132 4.4763 5.84503 4.29001C5.65875 4.10373 5.43903 3.95805 5.18587 3.85296C4.93749 3.7431 4.6724 3.68817 4.39058 3.68817C4.10877 3.68817 3.84128 3.7431 3.58812 3.85296C3.33975 3.95805 3.12241 4.10373 2.93613 4.29001C2.74984 4.4763 2.60177 4.69602 2.49191 4.94917C2.38683 5.19755 2.33429 5.46265 2.33429 5.74447V7.80076H6.44688ZM8.50317 11.9062H6.44688V9.84989H2.33429V11.9062H0.285156V5.74447C0.285156 5.17606 0.392628 4.64348 0.607572 4.14672C0.822516 3.64518 1.11388 3.20813 1.48168 2.83556C1.85425 2.46299 2.28891 2.16924 2.78567 1.95429C3.2872 1.73935 3.82217 1.63188 4.39058 1.63188C4.95899 1.63188 5.49157 1.73935 5.98833 1.95429C6.48986 2.16924 6.92692 2.46299 7.29949 2.83556C7.67206 3.20813 7.96581 3.64518 8.18076 4.14672C8.3957 4.64348 8.50317 5.17606 8.50317 5.74447V11.9062Z" fill="#A71B4A"/>
<path d="M15.0271 8.00138C15.0271 7.73389 14.9746 7.47596 14.8695 7.22758C14.7692 6.97442 14.6307 6.75231 14.454 6.56125C14.2772 6.36542 14.0694 6.21018 13.8306 6.09554C13.5966 5.97613 13.3458 5.91642 13.0783 5.91642C12.8108 5.91642 12.5577 5.9618 12.3189 6.05255C12.0848 6.14331 11.8794 6.27705 11.7027 6.45378C11.5307 6.63051 11.3946 6.85023 11.2943 7.11294C11.194 7.37087 11.1438 7.66702 11.1438 8.00138C11.1438 8.3214 11.194 8.61038 11.2943 8.86831C11.3946 9.12147 11.5307 9.3388 11.7027 9.52031C11.8794 9.70182 12.0848 9.84273 12.3189 9.94303C12.5577 10.0386 12.8108 10.0863 13.0783 10.0863C13.3458 10.0863 13.5966 10.029 13.8306 9.91437C14.0694 9.79496 14.2772 9.63972 14.454 9.44866C14.6307 9.25283 14.7692 9.03072 14.8695 8.78234C14.9746 8.52918 15.0271 8.26886 15.0271 8.00138ZM16.9975 10.9389C16.9975 11.4787 16.8948 11.985 16.6894 12.4579C16.484 12.9308 16.2022 13.3439 15.8439 13.6974C15.4905 14.0508 15.0749 14.3303 14.5973 14.5357C14.1244 14.7411 13.6181 14.8438 13.0783 14.8438L12.0967 14.8294V12.8734L13.064 12.8878C13.3697 12.8878 13.63 12.8472 13.845 12.766C14.0599 12.6895 14.2414 12.5821 14.3895 12.4435C14.5375 12.3098 14.6546 12.1546 14.7406 11.9778C14.8313 11.8011 14.903 11.6148 14.9555 11.419C14.8791 11.5432 14.7692 11.6459 14.6259 11.7271C14.4826 11.8035 14.3226 11.8656 14.1459 11.9134C13.9739 11.9659 13.7924 12.0017 13.6013 12.0208C13.4151 12.0399 13.2407 12.0495 13.0783 12.0495C12.5386 12.0495 12.0299 11.9563 11.5522 11.7701C11.0793 11.5838 10.6638 11.3187 10.3055 10.9748C9.95208 10.6261 9.67266 10.201 9.46726 9.69943C9.26187 9.1979 9.15918 8.63188 9.15918 8.00138C9.15918 7.42342 9.26187 6.88606 9.46726 6.3893C9.67266 5.89254 9.95208 5.46265 10.3055 5.09964C10.6638 4.73662 11.0793 4.45242 11.5522 4.24703C12.0299 4.04163 12.5386 3.93894 13.0783 3.93894C13.3267 3.93894 13.5727 3.96999 13.8163 4.03208C14.0599 4.09418 14.2963 4.18015 14.5256 4.29001C14.7549 4.39987 14.9722 4.52884 15.1776 4.67691C15.3878 4.82499 15.5836 4.985 15.7651 5.15695L16.5246 4.24703H16.9975V10.9389Z" fill="#A71B4A"/>
<path d="M20.0107 11.9062H18.0547V4.2327H18.5276L19.1724 5.14262C19.4877 4.85603 19.8459 4.63631 20.2471 4.48346C20.6483 4.32584 21.0639 4.24703 21.4938 4.24703H23.2205V6.19585H21.4938C21.2884 6.19585 21.095 6.23406 20.9134 6.31048C20.7319 6.38691 20.5743 6.49199 20.4406 6.62574C20.3068 6.75948 20.2017 6.9171 20.1253 7.09861C20.0489 7.28012 20.0107 7.47357 20.0107 7.67896V11.9062Z" fill="#A71B4A"/>
<path d="M25.9973 2.14774C25.9973 2.32925 25.9615 2.49882 25.8898 2.65644C25.823 2.81407 25.7298 2.95259 25.6104 3.072C25.491 3.18664 25.3501 3.27978 25.1877 3.35143C25.0301 3.4183 24.8605 3.45173 24.679 3.45173C24.4975 3.45173 24.3255 3.4183 24.1631 3.35143C24.0055 3.27978 23.867 3.18664 23.7476 3.072C23.6329 2.95259 23.5398 2.81407 23.4681 2.65644C23.4013 2.49882 23.3678 2.32925 23.3678 2.14774C23.3678 1.97101 23.4013 1.80383 23.4681 1.64621C23.5398 1.4838 23.6329 1.34529 23.7476 1.23065C23.867 1.11124 24.0055 1.01809 24.1631 0.951222C24.3255 0.879574 24.4975 0.84375 24.679 0.84375C24.8605 0.84375 25.0301 0.879574 25.1877 0.951222C25.3501 1.01809 25.491 1.11124 25.6104 1.23065C25.7298 1.34529 25.823 1.4838 25.8898 1.64621C25.9615 1.80383 25.9973 1.97101 25.9973 2.14774ZM25.6606 11.9062H23.6902V4.2327H25.6606V11.9062Z" fill="#A71B4A"/>
<path d="M34.119 11.9062H26.9256V1.63188H28.9819V9.84989H34.119V11.9062Z" fill="#A71B4A"/>
<path d="M41.7607 8.00138C41.7607 8.57456 41.658 9.10953 41.4526 9.60629C41.2472 10.0983 40.9678 10.5258 40.6143 10.8888C40.2609 11.247 39.8453 11.5312 39.3677 11.7414C38.8948 11.9468 38.3861 12.0495 37.8416 12.0495C37.3018 12.0495 36.7931 11.9468 36.3155 11.7414C35.8426 11.5312 35.427 11.247 35.0688 10.8888C34.7153 10.5258 34.4359 10.0983 34.2305 9.60629C34.0251 9.10953 33.9224 8.57456 33.9224 8.00138C33.9224 7.41864 34.0251 6.87889 34.2305 6.38213C34.4359 5.88537 34.7153 5.45787 35.0688 5.09964C35.427 4.73662 35.8426 4.45242 36.3155 4.24703C36.7931 4.04163 37.3018 3.93894 37.8416 3.93894C38.3861 3.93894 38.8948 4.03686 39.3677 4.2327C39.8453 4.42376 40.2609 4.69841 40.6143 5.05665C40.9678 5.41011 41.2472 5.83761 41.4526 6.33914C41.658 6.8359 41.7607 7.38998 41.7607 8.00138ZM39.7904 8.00138C39.7904 7.68612 39.7378 7.40192 39.6328 7.14877C39.5324 6.89083 39.3939 6.67111 39.2172 6.4896C39.0405 6.30332 38.8327 6.16241 38.5939 6.06688C38.3598 5.96658 38.109 5.91642 37.8416 5.91642C37.5741 5.91642 37.3209 5.96658 37.0821 6.06688C36.848 6.16241 36.6426 6.30332 36.4659 6.4896C36.294 6.67111 36.1578 6.89083 36.0575 7.14877C35.9572 7.40192 35.9071 7.68612 35.9071 8.00138C35.9071 8.29752 35.9572 8.57217 36.0575 8.82533C36.1578 9.07848 36.294 9.2982 36.4659 9.48449C36.6426 9.67077 36.848 9.81884 37.0821 9.9287C37.3209 10.0338 37.5741 10.0863 37.8416 10.0863C38.109 10.0863 38.3598 10.0362 38.5939 9.93587C38.8327 9.83556 39.0405 9.69465 39.2172 9.51315C39.3939 9.33164 39.5324 9.11192 39.6328 8.85399C39.7378 8.59605 39.7904 8.31185 39.7904 8.00138Z" fill="#A71B4A"/>
<path d="M49.8179 8.00138C49.8179 8.57456 49.7152 9.10953 49.5098 9.60629C49.3045 10.0983 49.025 10.5258 48.6716 10.8888C48.3181 11.247 47.9025 11.5312 47.4249 11.7414C46.952 11.9468 46.4433 12.0495 45.8988 12.0495C45.359 12.0495 44.8503 11.9468 44.3727 11.7414C43.8998 11.5312 43.4843 11.247 43.126 10.8888C42.7726 10.5258 42.4931 10.0983 42.2877 9.60629C42.0823 9.10953 41.9797 8.57456 41.9797 8.00138C41.9797 7.41864 42.0823 6.87889 42.2877 6.38213C42.4931 5.88537 42.7726 5.45787 43.126 5.09964C43.4843 4.73662 43.8998 4.45242 44.3727 4.24703C44.8503 4.04163 45.359 3.93894 45.8988 3.93894C46.4433 3.93894 46.952 4.03686 47.4249 4.2327C47.9025 4.42376 48.3181 4.69841 48.6716 5.05665C49.025 5.41011 49.3045 5.83761 49.5098 6.33914C49.7152 6.8359 49.8179 7.38998 49.8179 8.00138ZM47.8476 8.00138C47.8476 7.68612 47.7951 7.40192 47.69 7.14877C47.5897 6.89083 47.4512 6.67111 47.2744 6.4896C47.0977 6.30332 46.8899 6.16241 46.6511 6.06688C46.417 5.96658 46.1663 5.91642 45.8988 5.91642C45.6313 5.91642 45.3782 5.96658 45.1393 6.06688C44.9053 6.16241 44.6999 6.30332 44.5232 6.4896C44.3512 6.67111 44.2151 6.89083 44.1148 7.14877C44.0145 7.40192 43.9643 7.68612 43.9643 8.00138C43.9643 8.29752 44.0145 8.57217 44.1148 8.82533C44.2151 9.07848 44.3512 9.2982 44.5232 9.48449C44.6999 9.67077 44.9053 9.81884 45.1393 9.9287C45.3782 10.0338 45.6313 10.0863 45.8988 10.0863C46.1663 10.0863 46.417 10.0362 46.6511 9.93587C46.8899 9.83556 47.0977 9.69465 47.2744 9.51315C47.4512 9.33164 47.5897 9.11192 47.69 8.85399C47.7951 8.59605 47.8476 8.31185 47.8476 8.00138Z" fill="#A71B4A"/>
<path d="M52.4299 14.8294H50.4596V4.2327H50.9325L51.7135 5.15695C51.8902 4.98978 52.0836 4.83215 52.2938 4.68408C52.504 4.53601 52.7213 4.40943 52.9458 4.30434C53.1751 4.19448 53.4115 4.10851 53.6551 4.04641C53.8987 3.98432 54.1447 3.95327 54.3931 3.95327C54.9328 3.95327 55.4391 4.05119 55.912 4.24703C56.3897 4.43809 56.8052 4.71035 57.1587 5.06381C57.5169 5.41727 57.7987 5.84477 58.0041 6.34631C58.2095 6.84307 58.3122 7.39476 58.3122 8.00138C58.3122 8.63188 58.2095 9.20028 58.0041 9.7066C57.7987 10.2081 57.5169 10.6356 57.1587 10.9891C56.8052 11.3378 56.3897 11.6053 55.912 11.7915C55.4391 11.9778 54.9328 12.071 54.3931 12.071C54.2211 12.071 54.0492 12.0519 53.8772 12.0137C53.71 11.9754 53.5429 11.9253 53.3757 11.8632C53.2133 11.7963 53.0509 11.7223 52.8885 11.6411C52.7309 11.5599 52.578 11.4763 52.4299 11.3903V14.8294ZM56.3491 8.00138C56.3491 7.67657 56.2965 7.3852 56.1914 7.12727C56.0911 6.86934 55.9526 6.65201 55.7759 6.47528C55.5992 6.29377 55.3914 6.15525 55.1525 6.05972C54.9137 5.96419 54.6606 5.91642 54.3931 5.91642C54.1256 5.91642 53.8724 5.96419 53.6336 6.05972C53.3996 6.15525 53.1942 6.29377 53.0174 6.47528C52.8407 6.65201 52.6998 6.86934 52.5947 7.12727C52.4944 7.3852 52.4443 7.67657 52.4443 8.00138C52.4443 8.31185 52.4944 8.59605 52.5947 8.85399C52.6998 9.11192 52.8407 9.33164 53.0174 9.51315C53.1942 9.69465 53.3996 9.83556 53.6336 9.93587C53.8724 10.0362 54.1256 10.0863 54.3931 10.0863C54.6606 10.0863 54.9137 10.0362 55.1525 9.93587C55.3914 9.83556 55.5992 9.69465 55.7759 9.51315C55.9526 9.33164 56.0911 9.11192 56.1914 8.85399C56.2965 8.59605 56.3491 8.31185 56.3491 8.00138Z" fill="#A71B4A"/>
</svg>
