<svg width="134" height="14" viewBox="0 0 134 14" fill="none" xmlns="http://www.w3.org/2000/svg">
<path d="M10.063 13.7077H0.597656V0.188552H3.30338V11.002H10.063V13.7077Z" fill="#463F3A"/>
<path d="M23.6723 7.00471C23.6723 7.64579 23.5874 8.26487 23.4178 8.86195C23.2543 9.45275 23.0218 10.009 22.7201 10.5306C22.4184 11.046 22.0539 11.5174 21.6265 11.9448C21.1991 12.3722 20.7277 12.7398 20.2124 13.0478C19.697 13.3495 19.1408 13.582 18.5437 13.7455C17.9466 13.9152 17.3275 14 16.6864 14C16.0454 14 15.4263 13.9152 14.8292 13.7455C14.2384 13.582 13.6822 13.3495 13.1605 13.0478C12.6451 12.7398 12.1738 12.3722 11.7464 11.9448C11.319 11.5174 10.9513 11.046 10.6433 10.5306C10.3417 10.009 10.106 9.45275 9.93627 8.86195C9.77286 8.26487 9.69115 7.64579 9.69115 7.00471C9.69115 6.36364 9.77286 5.74456 9.93627 5.14747C10.106 4.55039 10.3417 3.99416 10.6433 3.47879C10.9513 2.96341 11.319 2.49203 11.7464 2.06465C12.1738 1.63726 12.6451 1.27273 13.1605 0.971044C13.6822 0.66936 14.2384 0.436813 14.8292 0.273401C15.4263 0.103704 16.0454 0.0188552 16.6864 0.0188552C17.3275 0.0188552 17.9466 0.103704 18.5437 0.273401C19.1408 0.436813 19.697 0.66936 20.2124 0.971044C20.7277 1.27273 21.1991 1.63726 21.6265 2.06465C22.0539 2.49203 22.4184 2.96341 22.7201 3.47879C23.0218 3.99416 23.2543 4.55039 23.4178 5.14747C23.5874 5.74456 23.6723 6.36364 23.6723 7.00471ZM20.9854 7.00471C20.9854 6.41392 20.8723 5.85769 20.646 5.33603C20.4198 4.80808 20.1118 4.35241 19.7221 3.96902C19.3387 3.57935 18.8831 3.27138 18.3551 3.04512C17.8335 2.81886 17.2772 2.70572 16.6864 2.70572C16.0894 2.70572 15.53 2.81886 15.0083 3.04512C14.4867 3.27138 14.031 3.57935 13.6413 3.96902C13.2516 4.35241 12.9437 4.80808 12.7174 5.33603C12.4912 5.85769 12.378 6.41392 12.378 7.00471C12.378 7.59551 12.4912 8.15174 12.7174 8.6734C12.9437 9.18878 13.2516 9.6413 13.6413 10.031C14.031 10.4207 14.4867 10.7286 15.0083 10.9549C15.53 11.1811 16.0894 11.2943 16.6864 11.2943C17.2772 11.2943 17.8335 11.1811 18.3551 10.9549C18.8831 10.7286 19.3387 10.4207 19.7221 10.031C20.1118 9.6413 20.4198 9.18878 20.646 8.6734C20.8723 8.15174 20.9854 7.59551 20.9854 7.00471Z" fill="#463F3A"/>
<path d="M35.6695 12.3219C35.041 12.8624 34.3371 13.2772 33.5577 13.5663C32.7784 13.8554 31.9707 14 31.1348 14C30.4937 14 29.8747 13.9152 29.2776 13.7455C28.6868 13.582 28.1306 13.3495 27.6089 13.0478C27.0935 12.7398 26.6221 12.3722 26.1947 11.9448C25.7674 11.5174 25.3997 11.046 25.0917 10.5306C24.79 10.009 24.5543 9.45275 24.3846 8.86195C24.2212 8.26487 24.1395 7.64579 24.1395 7.00471C24.1395 6.36364 24.2212 5.74456 24.3846 5.14747C24.5543 4.55039 24.79 3.99416 25.0917 3.47879C25.3997 2.95713 25.7674 2.4826 26.1947 2.05522C26.6221 1.62783 27.0935 1.2633 27.6089 0.961616C28.1306 0.653648 28.6868 0.417957 29.2776 0.254545C29.8747 0.0848485 30.4937 0 31.1348 0C31.9707 0 32.7784 0.144557 33.5577 0.43367C34.3371 0.716498 35.041 1.13131 35.6695 1.67811L34.2365 4.03502C33.8405 3.60763 33.3723 3.28081 32.8318 3.05455C32.2913 2.822 31.7256 2.70572 31.1348 2.70572C30.5377 2.70572 29.9784 2.81886 29.4567 3.04512C28.935 3.27138 28.4794 3.57935 28.0897 3.96902C27.7 4.35241 27.3921 4.80808 27.1658 5.33603C26.9395 5.85769 26.8264 6.41392 26.8264 7.00471C26.8264 7.59551 26.9395 8.15174 27.1658 8.6734C27.3921 9.18878 27.7 9.6413 28.0897 10.031C28.4794 10.4207 28.935 10.7286 29.4567 10.9549C29.9784 11.1811 30.5377 11.2943 31.1348 11.2943C31.7256 11.2943 32.2913 11.1811 32.8318 10.9549C33.3723 10.7223 33.8405 10.3924 34.2365 9.96498L35.6695 12.3219Z" fill="#463F3A"/>
<path d="M44.6216 8.30572V5.6C44.6216 5.22918 44.5493 4.88036 44.4047 4.55354C44.2665 4.22043 44.0748 3.93131 43.8297 3.6862C43.5845 3.44108 43.2954 3.24938 42.9623 3.11111C42.6355 2.96655 42.2867 2.89428 41.9159 2.89428C41.545 2.89428 41.1931 2.96655 40.86 3.11111C40.5331 3.24938 40.2472 3.44108 40.002 3.6862C39.7569 3.93131 39.5621 4.22043 39.4175 4.55354C39.2793 4.88036 39.2101 5.22918 39.2101 5.6V8.30572H44.6216ZM47.3273 13.7077H44.6216V11.002H39.2101V13.7077H36.5138V5.6C36.5138 4.85208 36.6552 4.15129 36.9381 3.49764C37.2209 2.83771 37.6043 2.26263 38.0882 1.77239C38.5785 1.28215 39.1504 0.895623 39.8041 0.612795C40.464 0.329966 41.1679 0.188552 41.9159 0.188552C42.6638 0.188552 43.3646 0.329966 44.0182 0.612795C44.6781 0.895623 45.2532 1.28215 45.7435 1.77239C46.2337 2.26263 46.6202 2.83771 46.9031 3.49764C47.1859 4.15129 47.3273 4.85208 47.3273 5.6V13.7077Z" fill="#463F3A"/>
<path d="M58.5609 13.7077H49.0955V0.188552H51.8013V11.002H58.5609V13.7077Z" fill="#463F3A"/>
<path d="M68.6631 13.7077H59.3958V0.188552H68.6631V2.89428H62.1015V5.6H66.5419V8.30572H62.1015V11.002H68.6631V13.7077Z" fill="#463F3A"/>
<path d="M79.2462 13.7077H69.9788V0.188552H79.2462V2.89428H72.6846V5.6H77.125V8.30572H72.6846V11.002H79.2462V13.7077Z" fill="#463F3A"/>
<path d="M98.6399 7.00471C98.6399 7.64579 98.555 8.26487 98.3853 8.86195C98.2219 9.45275 97.9894 10.009 97.6877 10.5306C97.386 11.046 97.0215 11.5174 96.5941 11.9448C96.1667 12.3722 95.6953 12.7398 95.18 13.0478C94.6646 13.3495 94.1084 13.582 93.5113 13.7455C92.9142 13.9152 92.2951 14 91.654 14C91.013 14 90.3939 13.9152 89.7968 13.7455C89.206 13.582 88.6498 13.3495 88.1281 13.0478C87.6127 12.7398 87.1413 12.3722 86.714 11.9448C86.2866 11.5174 85.9189 11.046 85.6109 10.5306C85.3092 10.009 85.0736 9.45275 84.9039 8.86195C84.7405 8.26487 84.6587 7.64579 84.6587 7.00471C84.6587 6.36364 84.7405 5.74456 84.9039 5.14747C85.0736 4.55039 85.3092 3.99416 85.6109 3.47879C85.9189 2.96341 86.2866 2.49203 86.714 2.06465C87.1413 1.63726 87.6127 1.27273 88.1281 0.971044C88.6498 0.66936 89.206 0.436813 89.7968 0.273401C90.3939 0.103704 91.013 0.0188552 91.654 0.0188552C92.2951 0.0188552 92.9142 0.103704 93.5113 0.273401C94.1084 0.436813 94.6646 0.66936 95.18 0.971044C95.6953 1.27273 96.1667 1.63726 96.5941 2.06465C97.0215 2.49203 97.386 2.96341 97.6877 3.47879C97.9894 3.99416 98.2219 4.55039 98.3853 5.14747C98.555 5.74456 98.6399 6.36364 98.6399 7.00471ZM95.953 7.00471C95.953 6.41392 95.8399 5.85769 95.6136 5.33603C95.3874 4.80808 95.0794 4.35241 94.6897 3.96902C94.3063 3.57935 93.8507 3.27138 93.3227 3.04512C92.8011 2.81886 92.2448 2.70572 91.654 2.70572C91.057 2.70572 90.4976 2.81886 89.9759 3.04512C89.4543 3.27138 88.9986 3.57935 88.6089 3.96902C88.2192 4.35241 87.9113 4.80808 87.685 5.33603C87.4587 5.85769 87.3456 6.41392 87.3456 7.00471C87.3456 7.59551 87.4587 8.15174 87.685 8.6734C87.9113 9.18878 88.2192 9.6413 88.6089 10.031C88.9986 10.4207 89.4543 10.7286 89.9759 10.9549C90.4976 11.1811 91.057 11.2943 91.654 11.2943C92.2448 11.2943 92.8011 11.1811 93.3227 10.9549C93.8507 10.7286 94.3063 10.4207 94.6897 10.031C95.0794 9.6413 95.3874 9.18878 95.6136 8.6734C95.8399 8.15174 95.953 7.59551 95.953 7.00471Z" fill="#463F3A"/>
<path d="M102.548 2.89428V8.30572H105.254C105.625 8.30572 105.974 8.23659 106.3 8.09832C106.627 7.95376 106.913 7.75892 107.158 7.5138C107.403 7.26869 107.595 6.98272 107.733 6.65589C107.878 6.32278 107.95 5.97082 107.95 5.6C107.95 5.22918 107.878 4.88036 107.733 4.55354C107.595 4.22043 107.403 3.93131 107.158 3.6862C106.913 3.44108 106.627 3.24938 106.3 3.11111C105.974 2.96655 105.625 2.89428 105.254 2.89428H102.548ZM102.548 13.7077H99.8425V0.188552H105.254C105.75 0.188552 106.228 0.254545 106.687 0.386532C107.146 0.512233 107.573 0.694501 107.969 0.933333C108.371 1.16588 108.736 1.44871 109.063 1.78182C109.396 2.10864 109.679 2.47318 109.911 2.87542C110.15 3.27767 110.332 3.70819 110.458 4.167C110.59 4.62581 110.656 5.10348 110.656 5.6C110.656 6.34164 110.515 7.04242 110.232 7.70236C109.949 8.356 109.562 8.92795 109.072 9.41818C108.582 9.90842 108.007 10.2949 107.347 10.5778C106.693 10.8606 105.996 11.002 105.254 11.002H102.548V13.7077Z" fill="#463F3A"/>
<path d="M120.937 13.7077H111.67V0.188552H120.937V2.89428H114.376V5.6H118.816V8.30572H114.376V11.002H120.937V13.7077Z" fill="#463F3A"/>
<path d="M133.066 13.7077H130.172L124.959 4.80808V13.7077H122.253V0.188552H125.147L130.361 9.09764V0.188552H133.066V13.7077Z" fill="#463F3A"/>
</svg>
