<svg width="108" height="17" viewBox="0 0 108 17" fill="none" xmlns="http://www.w3.org/2000/svg">
<g clip-path="url(#clip0_48_184)">
<path d="M21.75 0.75H2.25C1.14543 0.75 0.25 1.64543 0.25 2.75V14.25C0.25 15.3546 1.14543 16.25 2.25 16.25H21.75C22.8546 16.25 23.75 15.3546 23.75 14.25V2.75C23.75 1.64543 22.8546 0.75 21.75 0.75Z" fill="white" stroke="black" stroke-opacity="0.2" stroke-width="0.5"/>
<path d="M2.78773 6.41444C2.26459 6.12751 1.66754 5.89674 1 5.73659L1.028 5.61188H3.76498C4.13596 5.62489 4.43699 5.73651 4.53495 6.13071L5.12977 8.96659L5.31198 9.82073L6.97797 5.61188H8.77679L6.10288 11.7775H4.30397L2.78773 6.41444ZM10.1 11.7841H8.39883L9.46285 5.61188H11.1639L10.1 11.7841ZM16.2668 5.76277L16.0354 7.09559L15.8816 7.03004C15.5737 6.90525 15.1674 6.78054 14.6144 6.79371C13.9427 6.79371 13.6415 7.06277 13.6345 7.32546C13.6345 7.61441 13.9989 7.80484 14.5939 8.08725C15.574 8.52719 16.0286 9.06557 16.0218 9.76819C16.0081 11.0486 14.846 11.8761 13.0611 11.8761C12.2979 11.8694 11.5628 11.7181 11.1638 11.5476L11.4019 10.162L11.6259 10.2607C12.1789 10.4907 12.5428 10.589 13.222 10.589C13.7118 10.589 14.2369 10.3984 14.2436 9.98488C14.2436 9.71565 14.0199 9.51851 13.3617 9.21646C12.7178 8.92087 11.8568 8.42848 11.8708 7.54198C11.8781 6.34042 13.0611 5.5 14.741 5.5C15.399 5.5 15.9312 5.63789 16.2668 5.76277ZM18.5278 9.59749H19.9417C19.8718 9.28889 19.5496 7.81147 19.5496 7.81147L19.4307 7.27964C19.3467 7.50943 19.1999 7.88373 19.2069 7.87056C19.2069 7.87056 18.6678 9.2429 18.5278 9.59749ZM20.6276 5.61188L22 11.784H20.4249C20.4249 11.784 20.2708 11.0748 20.2219 10.8581H18.0378C17.9746 11.0222 17.6808 11.784 17.6808 11.784H15.8958L18.4226 6.12399C18.5977 5.72342 18.906 5.61188 19.3118 5.61188H20.6276Z" fill="#171E6C"/>
</g>
<g clip-path="url(#clip1_48_184)">
<path d="M50 0.5H30C28.8954 0.5 28 1.39543 28 2.5V14.5C28 15.6046 28.8954 16.5 30 16.5H50C51.1046 16.5 52 15.6046 52 14.5V2.5C52 1.39543 51.1046 0.5 50 0.5Z" fill="#252525"/>
<path d="M37 13.5C39.7614 13.5 42 11.2614 42 8.5C42 5.73858 39.7614 3.5 37 3.5C34.2386 3.5 32 5.73858 32 8.5C32 11.2614 34.2386 13.5 37 13.5Z" fill="#EB001B"/>
<path d="M43 13.5C45.7614 13.5 48 11.2614 48 8.5C48 5.73858 45.7614 3.5 43 3.5C40.2386 3.5 38 5.73858 38 8.5C38 11.2614 40.2386 13.5 43 13.5Z" fill="#F79E1B"/>
<path fill-rule="evenodd" clip-rule="evenodd" d="M40 4.49963C41.2144 5.41184 42 6.86418 42 8.5C42 10.1358 41.2144 11.5882 40 12.5004C38.7856 11.5882 38 10.1358 38 8.5C38 6.86418 38.7856 5.41184 40 4.49963Z" fill="#FF5F00"/>
</g>
<g clip-path="url(#clip2_48_184)">
<path d="M78 0.5H58C56.8954 0.5 56 1.39543 56 2.5V14.5C56 15.6046 56.8954 16.5 58 16.5H78C79.1046 16.5 80 15.6046 80 14.5V2.5C80 1.39543 79.1046 0.5 78 0.5Z" fill="#016FD0"/>
<path fill-rule="evenodd" clip-rule="evenodd" d="M69.7642 13.8938V8.19244L79.9117 8.20155V9.77644L78.7388 11.0298L79.9117 12.2947V13.903H78.0391L77.0439 12.8049L76.0558 13.9072L69.7642 13.8938Z" fill="#FFFFFE"/>
<path fill-rule="evenodd" clip-rule="evenodd" d="M70.4419 13.2688V8.81989H74.2142V9.84477H71.6633V10.5405H74.1534V11.5483H71.6633V12.2316H74.2142V13.2688H70.4419Z" fill="#016FD0"/>
<path fill-rule="evenodd" clip-rule="evenodd" d="M74.1954 13.2688L76.2827 11.0418L74.1953 8.82001H75.811L77.0865 10.23L78.3656 8.82001H79.9117V8.85501L77.8689 11.0418L79.9117 13.2057V13.2688H78.35L77.0519 11.8446L75.7671 13.2688H74.1954Z" fill="#016FD0"/>
<path fill-rule="evenodd" clip-rule="evenodd" d="M70.2374 3.13196H72.6834L73.5426 5.08281V3.13196H76.5624L77.0832 4.59353L77.6057 3.13196H79.9116V8.83335H67.7251L70.2374 3.13196Z" fill="#FFFFFE"/>
<path fill-rule="evenodd" clip-rule="evenodd" d="M70.7006 3.7514L68.7266 8.19658H70.0805L70.4529 7.30641H72.4708L72.843 8.19658H74.2306L72.2648 3.7514H70.7006ZM70.8702 6.30884L71.4622 4.89377L72.0538 6.30884H70.8702Z" fill="#016FD0"/>
<path fill-rule="evenodd" clip-rule="evenodd" d="M74.2119 8.19575V3.75067L76.115 3.75721L77.0943 6.48994L78.0799 3.75067H79.9115V8.19575L78.7329 8.20619V5.15284L77.6204 8.19575H76.5446L75.4089 5.14241V8.19575H74.2119Z" fill="#016FD0"/>
</g>
<g clip-path="url(#clip3_48_184)">
<path d="M105.997 16.2499L105.999 16.2499C106.954 16.2581 107.738 15.4773 107.75 14.5042L107.75 2.5063C107.746 2.03569 107.559 1.58617 107.23 1.2568C106.901 0.928269 106.459 0.746149 105.997 0.750071L86.0006 0.750062C85.5411 0.746149 85.0986 0.928269 84.7703 1.2568C84.4411 1.58617 84.2538 2.03569 84.25 2.50426L84.25 14.4937C84.2538 14.9643 84.4411 15.4138 84.7703 15.7432C85.0986 16.0717 85.5411 16.2538 86.0028 16.2499H105.997ZM105.996 16.7499C105.996 16.7499 105.995 16.7499 105.995 16.7499L105.997 16.7499H105.996Z" fill="white" stroke="black" stroke-opacity="0.2" stroke-width="0.5"/>
<path d="M96.6123 16.4999H105.997C106.524 16.5043 107.031 16.2993 107.406 15.9299C107.782 15.5605 107.996 15.057 108 14.5303V12.1716C104.456 14.2059 100.613 15.6668 96.6123 16.4999Z" fill="#F27712"/>
<path d="M107.172 9.79649H106.32L105.36 8.53029H105.269V9.79649H104.574V6.65167H105.6C106.403 6.65167 106.866 6.9827 106.866 7.57856C106.866 8.06684 106.577 8.38132 106.055 8.48063L107.172 9.79649ZM106.146 7.60339C106.146 7.29718 105.915 7.13994 105.484 7.13994H105.269V8.09167H105.468C105.915 8.09167 106.146 7.92615 106.146 7.60339ZM102.141 6.65167H104.11V7.18132H102.836V7.88477H104.061V8.4227H102.836V9.27512H104.11V9.80477H102.141V6.65167ZM99.9063 9.87925L98.4001 6.64339H99.1614L100.113 8.76201L101.073 6.64339H101.818L100.295 9.87925H99.9228H99.9063ZM93.6083 9.87098C92.549 9.87098 91.7214 9.15098 91.7214 8.21581C91.7214 7.30546 92.5656 6.56891 93.6249 6.56891C93.9228 6.56891 94.1711 6.62684 94.4773 6.75925V7.48753C94.2454 7.25971 93.9334 7.13194 93.6083 7.13167C92.9463 7.13167 92.4414 7.61167 92.4414 8.21581C92.4414 8.85305 92.938 9.30822 93.6414 9.30822C93.9559 9.30822 94.1959 9.20891 94.4773 8.96063V9.68891C94.1628 9.82132 93.898 9.87098 93.6083 9.87098ZM91.5063 8.83649C91.5063 9.44891 91.0014 9.87098 90.2732 9.87098C89.7435 9.87098 89.3628 9.68891 89.0401 9.27512L89.4952 8.88615C89.6525 9.16753 89.9173 9.30822 90.2483 9.30822C90.5628 9.30822 90.7863 9.11787 90.7863 8.8696C90.7863 8.72891 90.7201 8.62132 90.5794 8.53856C90.4251 8.46371 90.2645 8.40277 90.0994 8.35649C89.4456 8.1496 89.2221 7.92615 89.2221 7.48753C89.2221 6.97443 89.7021 6.58546 90.3311 6.58546C90.7283 6.58546 91.0842 6.7096 91.3821 6.94132L91.018 7.35512C90.8737 7.1969 90.6694 7.10677 90.4552 7.10684C90.1573 7.10684 89.9421 7.25581 89.9421 7.45443C89.9421 7.61994 90.0663 7.71098 90.4801 7.85167C91.2745 8.09994 91.5063 8.33167 91.5063 8.84477V8.83649ZM88.0883 6.65167H88.7835V9.80477H88.0883V6.65167ZM85.8538 9.80477H84.8276V6.65167H85.8538C86.9794 6.65167 87.7573 7.29718 87.7573 8.22408C87.7573 8.69581 87.5256 9.1427 87.1201 9.44063C86.7725 9.68891 86.3835 9.80477 85.8456 9.80477H85.8538ZM86.6649 7.43787C86.4332 7.25581 86.1683 7.1896 85.7132 7.1896H85.5228V9.27512H85.7132C86.1601 9.27512 86.4414 9.19236 86.6649 9.02684C86.9049 8.82822 87.0456 8.53029 87.0456 8.22408C87.0456 7.91787 86.9049 7.62822 86.6649 7.43787Z" fill="black"/>
<path d="M96.414 6.56891C95.5036 6.56891 94.7588 7.29718 94.7588 8.19925C94.7588 9.15925 95.4705 9.87925 96.414 9.87925C97.3409 9.87925 98.0691 9.15098 98.0691 8.22408C98.0691 7.29718 97.3491 6.56891 96.414 6.56891Z" fill="#F27712"/>
</g>
<defs>
<clipPath id="clip0_48_184">
<rect width="24" height="16" fill="white" transform="translate(0 0.5)"/>
</clipPath>
<clipPath id="clip1_48_184">
<rect width="24" height="16" fill="white" transform="translate(28 0.5)"/>
</clipPath>
<clipPath id="clip2_48_184">
<rect width="24" height="16" fill="white" transform="translate(56 0.5)"/>
</clipPath>
<clipPath id="clip3_48_184">
<rect width="24" height="16" fill="white" transform="translate(84 0.5)"/>
</clipPath>
</defs>
</svg>
