<svg width="306" height="245" viewBox="0 0 306 245" fill="none" xmlns="http://www.w3.org/2000/svg">
<g clip-path="url(#clip0_1915_5915)">
<circle cx="153.273" cy="142.892" r="95.8982" fill="#A71B4A" fill-opacity="0.1"/>
<circle cx="63.3857" cy="78.1397" r="6.01071" fill="#A71B4A" fill-opacity="0.1"/>
<circle cx="186.606" cy="35.7915" r="11.2018" fill="#A71B4A" fill-opacity="0.1"/>
<circle cx="72.4015" cy="219.391" r="10.6554" fill="#A71B4A" fill-opacity="0.1"/>
<circle cx="256.001" cy="194.256" r="10.6554" fill="#A71B4A" fill-opacity="0.1"/>
<circle cx="235.238" cy="206.277" r="5.19107" fill="#A71B4A" fill-opacity="0.1"/>
<path d="M158.751 51.6581C158.434 51.5907 158.434 51.1386 158.751 51.0712L163.541 50.0526C163.656 50.0281 163.747 49.9381 163.772 49.8228L164.803 45.0667C164.871 44.7515 165.321 44.7515 165.389 45.0667L166.421 49.8228C166.446 49.9381 166.536 50.0281 166.651 50.0526L171.441 51.0712C171.758 51.1386 171.758 51.5907 171.441 51.6581L166.651 52.6767C166.536 52.7012 166.446 52.7912 166.421 52.9065L165.389 57.6626C165.321 57.9778 164.871 57.9778 164.803 57.6626L163.772 52.9065C163.747 52.7912 163.656 52.7012 163.541 52.6767L158.751 51.6581Z" fill="#A71B4A"/>
<path d="M49.3005 149.515C49.4228 148.938 50.2474 148.938 50.3697 149.515L52.1963 158.145C52.2408 158.355 52.4045 158.52 52.6146 158.566L61.155 160.426C61.7285 160.551 61.7285 161.369 61.155 161.494L52.6146 163.354C52.4045 163.4 52.2408 163.565 52.1963 163.775L50.3697 172.405C50.2474 172.982 49.4228 172.982 49.3005 172.405L47.4739 163.775C47.4294 163.565 47.2657 163.4 47.0557 163.354L38.5153 161.494C37.9418 161.369 37.9418 160.551 38.5153 160.426L47.0557 158.566C47.2657 158.52 47.4294 158.355 47.4739 158.145L49.3005 149.515Z" fill="#A71B4A"/>
<path d="M238.978 80.6653C239.1 80.0876 239.925 80.0876 240.047 80.6653L241.113 85.6996C241.157 85.9099 241.321 86.0746 241.531 86.1203L246.528 87.2088C247.101 87.3338 247.101 88.1517 246.528 88.2766L241.531 89.3651C241.321 89.4109 241.157 89.5756 241.113 89.7859L240.047 94.8202C239.925 95.3979 239.1 95.3979 238.978 94.8202L237.912 89.7859C237.868 89.5756 237.704 89.4109 237.494 89.3651L232.498 88.2766C231.924 88.1517 231.924 87.3338 232.498 87.2088L237.494 86.1203C237.704 86.0746 237.868 85.9099 237.912 85.6996L238.978 80.6653Z" fill="#A71B4A"/>
<path d="M261.007 161.378L262.68 169.283L270.473 170.981L262.68 172.678L261.007 180.584L259.333 172.678L251.541 170.981L259.333 169.283L261.007 161.378Z" fill="white"/>
<path d="M207.642 99.4504L78.4121 148.902L106.007 225.675L122.673 233.052L143.437 237.424L164.475 236.604L176.769 234.418L187.698 231.14L205.73 221.85L221.03 209.829L222.211 208.302C228.879 199.683 234.791 190.504 239.882 180.868L207.642 99.4504Z" fill="#FFE7E7"/>
<path d="M88.2486 127.044L74.5879 119.394L193.163 74.587L186.879 90.1603L191.524 104.641L93.4397 142.071L88.2486 127.044Z" fill="#A71B4A" fill-opacity="0.3"/>
<path d="M105.461 225.401V225.401C117.418 231.515 130.363 235.463 143.696 237.063L144.029 237.103L153.535 237.103C160.656 237.103 167.757 236.345 174.717 234.842L177.074 234.333C184.516 232.727 191.701 230.103 198.427 226.536V226.536C203.675 223.753 208.609 220.414 213.144 216.577L214.615 215.332C218.551 212.001 222.203 208.35 225.533 204.414V204.414C230.195 198.904 234.2 192.869 237.466 186.432L240.429 180.594" stroke="#A71B4A" stroke-width="2"/>
<path d="M77.3652 147.761L106.008 225.93" stroke="#A71B4A" stroke-width="2"/>
<path d="M208.781 99.4026L240.204 181.508" stroke="#A71B4A" stroke-width="2"/>
<path d="M72.4471 119.621L194.844 73.6287" stroke="#A71B4A" stroke-width="2"/>
<path d="M76.7317 149.17L207.059 98.9094L187.846 89.9867C187.295 89.7305 187.058 89.0731 187.321 88.5243L194.012 74.5239" stroke="#A71B4A" stroke-width="2"/>
<path d="M73.5457 119.243L87.3224 126.63C87.8461 126.911 88.0495 127.558 87.7802 128.088L77.3654 148.582" stroke="#A71B4A" stroke-width="2"/>
<path d="M72.9941 118.254L81.8711 140.444" stroke="#A71B4A" stroke-width="2"/>
<path d="M87.9746 127.864L93.4389 143.164" stroke="#A71B4A" stroke-width="2"/>
<path d="M187.426 89.6139L192.89 105.46" stroke="#A71B4A" stroke-width="2"/>
<path d="M194.107 74.7797L201.95 96.3975" stroke="#A71B4A" stroke-width="2"/>
<circle cx="128.685" cy="141.798" r="5.7375" fill="#A71B4A" fill-opacity="0.3"/>
<circle cx="120.487" cy="112.291" r="4.09821" fill="#FFE7E7"/>
<circle cx="164.749" cy="128.137" r="5.7375" fill="#A71B4A" fill-opacity="0.3"/>
<circle cx="145.624" cy="103.001" r="4.09821" fill="#FFE7E7"/>
</g>
<defs>
<clipPath id="clip0_1915_5915">
<rect width="306" height="245" fill="white"/>
</clipPath>
</defs>
</svg>
