<svg width="162" height="16" viewBox="0 0 162 16" fill="none" xmlns="http://www.w3.org/2000/svg">
<path d="M12.0156 6.44531C12.0156 6.97656 11.9453 7.48958 11.8047 7.98438C11.6693 8.47396 11.4766 8.9349 11.2266 9.36719C10.9766 9.79427 10.6745 10.1849 10.3203 10.5391C9.96615 10.8932 9.57552 11.1979 9.14844 11.4531C8.72135 11.7031 8.26042 11.8958 7.76562 12.0312C7.27083 12.1719 6.75781 12.2422 6.22656 12.2422C5.69531 12.2422 5.18229 12.1719 4.6875 12.0312C4.19792 11.8958 3.73698 11.7031 3.30469 11.4531C2.8776 11.1979 2.48698 10.8932 2.13281 10.5391C1.77865 10.1849 1.47396 9.79427 1.21875 9.36719C0.96875 8.9349 0.773438 8.47396 0.632812 7.98438C0.497396 7.48958 0.429688 6.97656 0.429688 6.44531C0.429688 5.91406 0.497396 5.40104 0.632812 4.90625C0.773438 4.41146 0.96875 3.95052 1.21875 3.52344C1.47396 3.09635 1.77865 2.70573 2.13281 2.35156C2.48698 1.9974 2.8776 1.69531 3.30469 1.44531C3.73698 1.19531 4.19792 1.0026 4.6875 0.867188C5.18229 0.726562 5.69531 0.65625 6.22656 0.65625C6.75781 0.65625 7.27083 0.726562 7.76562 0.867188C8.26042 1.0026 8.72135 1.19531 9.14844 1.44531C9.57552 1.69531 9.96615 1.9974 10.3203 2.35156C10.6745 2.70573 10.9766 3.09635 11.2266 3.52344C11.4766 3.95052 11.6693 4.41146 11.8047 4.90625C11.9453 5.40104 12.0156 5.91406 12.0156 6.44531ZM9.78906 6.44531C9.78906 5.95573 9.69531 5.49479 9.50781 5.0625C9.32031 4.625 9.0651 4.2474 8.74219 3.92969C8.42448 3.60677 8.04688 3.35156 7.60938 3.16406C7.17708 2.97656 6.71615 2.88281 6.22656 2.88281C5.73177 2.88281 5.26823 2.97656 4.83594 3.16406C4.40365 3.35156 4.02604 3.60677 3.70312 3.92969C3.38021 4.2474 3.125 4.625 2.9375 5.0625C2.75 5.49479 2.65625 5.95573 2.65625 6.44531C2.65625 6.9349 2.75 7.39583 2.9375 7.82812C3.125 8.25521 3.38021 8.63021 3.70312 8.95312C4.02604 9.27604 4.40365 9.53125 4.83594 9.71875C5.26823 9.90625 5.73177 10 6.22656 10C6.71615 10 7.17708 9.90625 7.60938 9.71875C8.04688 9.53125 8.42448 9.27604 8.74219 8.95312C9.0651 8.63021 9.32031 8.25521 9.50781 7.82812C9.69531 7.39583 9.78906 6.9349 9.78906 6.44531Z" fill="#A71B4A"/>
<path d="M14.9341 15.1875H12.7856V3.63281H13.3013L14.1528 4.64062C14.3455 4.45833 14.5565 4.28646 14.7856 4.125C15.0148 3.96354 15.2518 3.82552 15.4966 3.71094C15.7466 3.59115 16.0044 3.4974 16.27 3.42969C16.5356 3.36198 16.8039 3.32812 17.0747 3.32812C17.6632 3.32812 18.2153 3.4349 18.7309 3.64844C19.2518 3.85677 19.7049 4.15365 20.0903 4.53906C20.4809 4.92448 20.7882 5.39062 21.0122 5.9375C21.2361 6.47917 21.3481 7.08073 21.3481 7.74219C21.3481 8.42969 21.2361 9.04948 21.0122 9.60156C20.7882 10.1484 20.4809 10.6146 20.0903 11C19.7049 11.3802 19.2518 11.6719 18.7309 11.875C18.2153 12.0781 17.6632 12.1797 17.0747 12.1797C16.8872 12.1797 16.6997 12.1589 16.5122 12.1172C16.3299 12.0755 16.1476 12.0208 15.9653 11.9531C15.7882 11.8802 15.6111 11.7995 15.4341 11.7109C15.2622 11.6224 15.0955 11.5312 14.9341 11.4375V15.1875ZM19.2075 7.74219C19.2075 7.38802 19.1502 7.07031 19.0356 6.78906C18.9263 6.50781 18.7752 6.27083 18.5825 6.07812C18.3898 5.88021 18.1632 5.72917 17.9028 5.625C17.6424 5.52083 17.3664 5.46875 17.0747 5.46875C16.783 5.46875 16.507 5.52083 16.2466 5.625C15.9914 5.72917 15.7674 5.88021 15.5747 6.07812C15.382 6.27083 15.2283 6.50781 15.1138 6.78906C15.0044 7.07031 14.9497 7.38802 14.9497 7.74219C14.9497 8.08073 15.0044 8.39062 15.1138 8.67188C15.2283 8.95312 15.382 9.19271 15.5747 9.39062C15.7674 9.58854 15.9914 9.74219 16.2466 9.85156C16.507 9.96094 16.783 10.0156 17.0747 10.0156C17.3664 10.0156 17.6424 9.96094 17.9028 9.85156C18.1632 9.74219 18.3898 9.58854 18.5825 9.39062C18.7752 9.19271 18.9263 8.95312 19.0356 8.67188C19.1502 8.39062 19.2075 8.08073 19.2075 7.74219Z" fill="#A71B4A"/>
<path d="M25.3838 9.95312C25.4671 9.97917 25.5504 9.9974 25.6338 10.0078C25.7171 10.013 25.8004 10.0156 25.8838 10.0156C26.0921 10.0156 26.2926 9.98698 26.4853 9.92969C26.678 9.8724 26.8577 9.79167 27.0244 9.6875C27.1963 9.57812 27.3473 9.44792 27.4775 9.29688C27.6129 9.14062 27.7223 8.96875 27.8056 8.78125L29.3681 10.3516C29.1702 10.6328 28.941 10.8854 28.6806 11.1094C28.4254 11.3333 28.1468 11.5234 27.8447 11.6797C27.5478 11.8359 27.2327 11.9531 26.8994 12.0312C26.5713 12.1146 26.2327 12.1562 25.8838 12.1562C25.2952 12.1562 24.7405 12.0469 24.2197 11.8281C23.7041 11.6094 23.2509 11.3047 22.8603 10.9141C22.4749 10.5234 22.1702 10.0599 21.9463 9.52344C21.7223 8.98177 21.6103 8.38802 21.6103 7.74219C21.6103 7.08073 21.7223 6.47656 21.9463 5.92969C22.1702 5.38281 22.4749 4.91667 22.8603 4.53125C23.2509 4.14583 23.7041 3.84635 24.2197 3.63281C24.7405 3.41927 25.2952 3.3125 25.8838 3.3125C26.2327 3.3125 26.5739 3.35417 26.9072 3.4375C27.2405 3.52083 27.5556 3.64062 27.8525 3.79688C28.1546 3.95312 28.4358 4.14583 28.6963 4.375C28.9567 4.59896 29.1858 4.85156 29.3838 5.13281L25.3838 9.95312ZM26.4775 5.55469C26.3785 5.51823 26.2796 5.49479 26.1806 5.48438C26.0869 5.47396 25.9879 5.46875 25.8838 5.46875C25.5921 5.46875 25.316 5.52344 25.0556 5.63281C24.8004 5.73698 24.5765 5.88802 24.3838 6.08594C24.1963 6.28385 24.0478 6.52344 23.9384 6.80469C23.8291 7.08073 23.7744 7.39323 23.7744 7.74219C23.7744 7.82031 23.777 7.90885 23.7822 8.00781C23.7926 8.10677 23.8056 8.20833 23.8213 8.3125C23.8421 8.41146 23.8655 8.50781 23.8916 8.60156C23.9176 8.69531 23.9515 8.77865 23.9931 8.85156L26.4775 5.55469Z" fill="#A71B4A"/>
<path d="M32.1147 12H29.9819V3.63281H30.4975L31.2006 4.44531C31.5444 4.13281 31.9324 3.89323 32.3647 3.72656C32.8022 3.55469 33.2579 3.46875 33.7319 3.46875C34.2423 3.46875 34.7241 3.56771 35.1772 3.76562C35.6303 3.95833 36.0261 4.22656 36.3647 4.57031C36.7032 4.90885 36.9689 5.30729 37.1616 5.76562C37.3595 6.21875 37.4584 6.70312 37.4584 7.21875V12H35.3256V7.21875C35.3256 7 35.284 6.79427 35.2006 6.60156C35.1173 6.40365 35.0027 6.23177 34.8569 6.08594C34.711 5.9401 34.5418 5.82552 34.3491 5.74219C34.1564 5.65885 33.9506 5.61719 33.7319 5.61719C33.5079 5.61719 33.297 5.65885 33.0991 5.74219C32.9011 5.82552 32.7293 5.9401 32.5834 6.08594C32.4376 6.23177 32.323 6.40365 32.2397 6.60156C32.1564 6.79427 32.1147 7 32.1147 7.21875V12Z" fill="#A71B4A"/>
<path d="M42.0766 4.15625C42.0766 3.69271 42.1651 3.25781 42.3422 2.85156C42.5193 2.44531 42.7589 2.09115 43.0609 1.78906C43.3682 1.48177 43.725 1.23958 44.1312 1.0625C44.5375 0.885417 44.9724 0.796875 45.4359 0.796875H50.5766V3.03906H45.4359C45.2797 3.03906 45.1339 3.06771 44.9984 3.125C44.863 3.18229 44.7432 3.26302 44.6391 3.36719C44.5401 3.46615 44.462 3.58333 44.4047 3.71875C44.3474 3.85417 44.3187 4 44.3187 4.15625C44.3187 4.3125 44.3474 4.46094 44.4047 4.60156C44.462 4.73698 44.5401 4.85677 44.6391 4.96094C44.7432 5.0599 44.863 5.13802 44.9984 5.19531C45.1339 5.2526 45.2797 5.28125 45.4359 5.28125H47.6781C48.1417 5.28125 48.5766 5.36979 48.9828 5.54688C49.3943 5.71875 49.751 5.95833 50.0531 6.26562C50.3604 6.56771 50.6 6.92448 50.7719 7.33594C50.949 7.74219 51.0375 8.17708 51.0375 8.64062C51.0375 9.10417 50.949 9.53906 50.7719 9.94531C50.6 10.3516 50.3604 10.7083 50.0531 11.0156C49.751 11.3177 49.3943 11.5573 48.9828 11.7344C48.5766 11.9115 48.1417 12 47.6781 12H42.7016V9.75781H47.6781C47.8344 9.75781 47.9802 9.72917 48.1156 9.67188C48.251 9.61458 48.3682 9.53646 48.4672 9.4375C48.5714 9.33333 48.6521 9.21354 48.7094 9.07812C48.7667 8.94271 48.7953 8.79688 48.7953 8.64062C48.7953 8.48438 48.7667 8.33854 48.7094 8.20312C48.6521 8.06771 48.5714 7.95052 48.4672 7.85156C48.3682 7.7474 48.251 7.66667 48.1156 7.60938C47.9802 7.55208 47.8344 7.52344 47.6781 7.52344H45.4359C44.9724 7.52344 44.5375 7.4349 44.1312 7.25781C43.725 7.08073 43.3682 6.84115 43.0609 6.53906C42.7589 6.23177 42.5193 5.875 42.3422 5.46875C42.1651 5.05729 42.0766 4.61979 42.0766 4.15625Z" fill="#A71B4A"/>
<path d="M55.8622 12C55.3466 12 54.8622 11.9036 54.4091 11.7109C53.9559 11.513 53.5575 11.2448 53.2137 10.9062C52.8752 10.5625 52.607 10.1641 52.4091 9.71094C52.2164 9.25781 52.12 8.77344 52.12 8.25781V5.77344H51.0809V3.64844H52.12V0.304688H54.245V3.64844H57.4794V5.77344H54.245V8.25781C54.245 8.48177 54.2867 8.69271 54.37 8.89062C54.4533 9.08333 54.5679 9.2526 54.7137 9.39844C54.8596 9.54427 55.0315 9.66146 55.2294 9.75C55.4273 9.83333 55.6382 9.875 55.8622 9.875H57.4794V12H55.8622Z" fill="#A71B4A"/>
<path d="M60.3353 12H58.2025V3.63281H58.7181L59.4212 4.625C59.765 4.3125 60.1556 4.07292 60.5931 3.90625C61.0306 3.73438 61.4837 3.64844 61.9525 3.64844H63.8353V5.77344H61.9525C61.7285 5.77344 61.5176 5.8151 61.3197 5.89844C61.1218 5.98177 60.9499 6.09635 60.8041 6.24219C60.6582 6.38802 60.5436 6.5599 60.4603 6.75781C60.377 6.95573 60.3353 7.16667 60.3353 7.39062V12Z" fill="#A71B4A"/>
<path d="M67.5194 9.95312C67.6027 9.97917 67.686 9.9974 67.7694 10.0078C67.8527 10.013 67.936 10.0156 68.0194 10.0156C68.2277 10.0156 68.4282 9.98698 68.6209 9.92969C68.8136 9.8724 68.9933 9.79167 69.16 9.6875C69.3319 9.57812 69.4829 9.44792 69.6131 9.29688C69.7485 9.14062 69.8579 8.96875 69.9413 8.78125L71.5038 10.3516C71.3058 10.6328 71.0767 10.8854 70.8163 11.1094C70.561 11.3333 70.2824 11.5234 69.9803 11.6797C69.6834 11.8359 69.3683 11.9531 69.035 12.0312C68.7069 12.1146 68.3683 12.1562 68.0194 12.1562C67.4308 12.1562 66.8761 12.0469 66.3553 11.8281C65.8397 11.6094 65.3866 11.3047 64.9959 10.9141C64.6105 10.5234 64.3058 10.0599 64.0819 9.52344C63.8579 8.98177 63.7459 8.38802 63.7459 7.74219C63.7459 7.08073 63.8579 6.47656 64.0819 5.92969C64.3058 5.38281 64.6105 4.91667 64.9959 4.53125C65.3866 4.14583 65.8397 3.84635 66.3553 3.63281C66.8761 3.41927 67.4308 3.3125 68.0194 3.3125C68.3683 3.3125 68.7095 3.35417 69.0428 3.4375C69.3761 3.52083 69.6913 3.64062 69.9881 3.79688C70.2902 3.95312 70.5715 4.14583 70.8319 4.375C71.0923 4.59896 71.3215 4.85156 71.5194 5.13281L67.5194 9.95312ZM68.6131 5.55469C68.5142 5.51823 68.4152 5.49479 68.3163 5.48438C68.2225 5.47396 68.1235 5.46875 68.0194 5.46875C67.7277 5.46875 67.4517 5.52344 67.1913 5.63281C66.936 5.73698 66.7121 5.88802 66.5194 6.08594C66.3319 6.28385 66.1834 6.52344 66.0741 6.80469C65.9647 7.08073 65.91 7.39323 65.91 7.74219C65.91 7.82031 65.9126 7.90885 65.9178 8.00781C65.9282 8.10677 65.9413 8.20833 65.9569 8.3125C65.9777 8.41146 66.0011 8.50781 66.0272 8.60156C66.0532 8.69531 66.0871 8.77865 66.1288 8.85156L68.6131 5.55469Z" fill="#A71B4A"/>
<path d="M75.3831 9.95312C75.4665 9.97917 75.5498 9.9974 75.6331 10.0078C75.7165 10.013 75.7998 10.0156 75.8831 10.0156C76.0915 10.0156 76.292 9.98698 76.4847 9.92969C76.6774 9.8724 76.8571 9.79167 77.0238 9.6875C77.1956 9.57812 77.3467 9.44792 77.4769 9.29688C77.6123 9.14062 77.7217 8.96875 77.805 8.78125L79.3675 10.3516C79.1696 10.6328 78.9404 10.8854 78.68 11.1094C78.4248 11.3333 78.1461 11.5234 77.8441 11.6797C77.5472 11.8359 77.2321 11.9531 76.8988 12.0312C76.5706 12.1146 76.2321 12.1562 75.8831 12.1562C75.2946 12.1562 74.7399 12.0469 74.2191 11.8281C73.7034 11.6094 73.2503 11.3047 72.8597 10.9141C72.4743 10.5234 72.1696 10.0599 71.9456 9.52344C71.7217 8.98177 71.6097 8.38802 71.6097 7.74219C71.6097 7.08073 71.7217 6.47656 71.9456 5.92969C72.1696 5.38281 72.4743 4.91667 72.8597 4.53125C73.2503 4.14583 73.7034 3.84635 74.2191 3.63281C74.7399 3.41927 75.2946 3.3125 75.8831 3.3125C76.2321 3.3125 76.5732 3.35417 76.9066 3.4375C77.2399 3.52083 77.555 3.64062 77.8519 3.79688C78.154 3.95312 78.4352 4.14583 78.6956 4.375C78.956 4.59896 79.1852 4.85156 79.3831 5.13281L75.3831 9.95312ZM76.4769 5.55469C76.3779 5.51823 76.279 5.49479 76.18 5.48438C76.0863 5.47396 75.9873 5.46875 75.8831 5.46875C75.5915 5.46875 75.3154 5.52344 75.055 5.63281C74.7998 5.73698 74.5758 5.88802 74.3831 6.08594C74.1956 6.28385 74.0472 6.52344 73.9378 6.80469C73.8284 7.08073 73.7738 7.39323 73.7738 7.74219C73.7738 7.82031 73.7764 7.90885 73.7816 8.00781C73.792 8.10677 73.805 8.20833 73.8206 8.3125C73.8415 8.41146 73.8649 8.50781 73.8909 8.60156C73.917 8.69531 73.9508 8.77865 73.9925 8.85156L76.4769 5.55469Z" fill="#A71B4A"/>
<path d="M84.1766 12C83.6609 12 83.1766 11.9036 82.7234 11.7109C82.2703 11.513 81.8719 11.2448 81.5281 10.9062C81.1896 10.5625 80.9214 10.1641 80.7234 9.71094C80.5307 9.25781 80.4344 8.77344 80.4344 8.25781V5.77344H79.3953V3.64844H80.4344V0.304688H82.5594V3.64844H85.7937V5.77344H82.5594V8.25781C82.5594 8.48177 82.601 8.69271 82.6844 8.89062C82.7677 9.08333 82.8823 9.2526 83.0281 9.39844C83.174 9.54427 83.3458 9.66146 83.5437 9.75C83.7417 9.83333 83.9526 9.875 84.1766 9.875H85.7937V12H84.1766Z" fill="#A71B4A"/>
<path d="M99.6931 10.8516C99.1723 11.2995 98.589 11.6432 97.9431 11.8828C97.2973 12.1224 96.628 12.2422 95.9353 12.2422C95.4041 12.2422 94.891 12.1719 94.3962 12.0312C93.9067 11.8958 93.4457 11.7031 93.0134 11.4531C92.5864 11.1979 92.1957 10.8932 91.8416 10.5391C91.4874 10.1849 91.1827 9.79427 90.9275 9.36719C90.6775 8.9349 90.4822 8.47396 90.3416 7.98438C90.2061 7.48958 90.1384 6.97656 90.1384 6.44531C90.1384 5.91406 90.2061 5.40104 90.3416 4.90625C90.4822 4.41146 90.6775 3.95052 90.9275 3.52344C91.1827 3.09115 91.4874 2.69792 91.8416 2.34375C92.1957 1.98958 92.5864 1.6875 93.0134 1.4375C93.4457 1.18229 93.9067 0.986979 94.3962 0.851562C94.891 0.710938 95.4041 0.640625 95.9353 0.640625C96.628 0.640625 97.2973 0.760417 97.9431 1C98.589 1.23438 99.1723 1.57812 99.6931 2.03125L98.5056 3.98438C98.1775 3.63021 97.7895 3.35938 97.3416 3.17188C96.8936 2.97917 96.4249 2.88281 95.9353 2.88281C95.4405 2.88281 94.977 2.97656 94.5447 3.16406C94.1124 3.35156 93.7348 3.60677 93.4119 3.92969C93.089 4.2474 92.8337 4.625 92.6462 5.0625C92.4587 5.49479 92.365 5.95573 92.365 6.44531C92.365 6.9349 92.4587 7.39583 92.6462 7.82812C92.8337 8.25521 93.089 8.63021 93.4119 8.95312C93.7348 9.27604 94.1124 9.53125 94.5447 9.71875C94.977 9.90625 95.4405 10 95.9353 10C96.4249 10 96.8936 9.90625 97.3416 9.71875C97.7895 9.52604 98.1775 9.2526 98.5056 8.89844L99.6931 10.8516Z" fill="#A71B4A"/>
<path d="M108.08 7.74219C108.08 8.36719 107.968 8.95052 107.744 9.49219C107.52 10.0286 107.216 10.4948 106.83 10.8906C106.445 11.2812 105.992 11.5911 105.471 11.8203C104.955 12.0443 104.401 12.1562 103.807 12.1562C103.218 12.1562 102.664 12.0443 102.143 11.8203C101.627 11.5911 101.174 11.2812 100.783 10.8906C100.398 10.4948 100.093 10.0286 99.8694 9.49219C99.6454 8.95052 99.5334 8.36719 99.5334 7.74219C99.5334 7.10677 99.6454 6.51823 99.8694 5.97656C100.093 5.4349 100.398 4.96875 100.783 4.57812C101.174 4.18229 101.627 3.8724 102.143 3.64844C102.664 3.42448 103.218 3.3125 103.807 3.3125C104.401 3.3125 104.955 3.41927 105.471 3.63281C105.992 3.84115 106.445 4.14062 106.83 4.53125C107.216 4.91667 107.52 5.38281 107.744 5.92969C107.968 6.47135 108.08 7.07552 108.08 7.74219ZM105.932 7.74219C105.932 7.39844 105.875 7.08854 105.76 6.8125C105.651 6.53125 105.5 6.29167 105.307 6.09375C105.114 5.89062 104.888 5.73698 104.627 5.63281C104.372 5.52344 104.099 5.46875 103.807 5.46875C103.515 5.46875 103.239 5.52344 102.979 5.63281C102.724 5.73698 102.5 5.89062 102.307 6.09375C102.119 6.29167 101.971 6.53125 101.862 6.8125C101.752 7.08854 101.698 7.39844 101.698 7.74219C101.698 8.0651 101.752 8.36458 101.862 8.64062C101.971 8.91667 102.119 9.15625 102.307 9.35938C102.5 9.5625 102.724 9.72396 102.979 9.84375C103.239 9.95833 103.515 10.0156 103.807 10.0156C104.099 10.0156 104.372 9.96094 104.627 9.85156C104.888 9.74219 105.114 9.58854 105.307 9.39062C105.5 9.19271 105.651 8.95312 105.76 8.67188C105.875 8.39062 105.932 8.08073 105.932 7.74219Z" fill="#A71B4A"/>
<path d="M119.421 12H117.296V6.6875C117.296 6.54167 117.267 6.40365 117.21 6.27344C117.158 6.14323 117.082 6.02865 116.983 5.92969C116.884 5.83073 116.77 5.75521 116.639 5.70312C116.509 5.64583 116.371 5.61719 116.225 5.61719C116.079 5.61719 115.941 5.64583 115.811 5.70312C115.686 5.75521 115.574 5.83073 115.475 5.92969C115.382 6.02865 115.306 6.14323 115.249 6.27344C115.197 6.40365 115.171 6.54167 115.171 6.6875V12H113.038V6.6875C113.038 6.54167 113.009 6.40365 112.952 6.27344C112.9 6.14323 112.824 6.02865 112.725 5.92969C112.626 5.83073 112.512 5.75521 112.382 5.70312C112.251 5.64583 112.113 5.61719 111.967 5.61719C111.822 5.61719 111.684 5.64583 111.553 5.70312C111.428 5.75521 111.316 5.83073 111.217 5.92969C111.124 6.02865 111.048 6.14323 110.991 6.27344C110.939 6.40365 110.913 6.54167 110.913 6.6875V12H108.78V3.63281H109.296L109.874 4.27344C110.171 4.02344 110.496 3.83073 110.85 3.69531C111.21 3.55469 111.582 3.48438 111.967 3.48438C112.358 3.48438 112.738 3.55729 113.108 3.70312C113.483 3.84896 113.811 4.10156 114.092 4.46094C114.223 4.28385 114.371 4.13281 114.538 4.00781C114.704 3.88281 114.879 3.78125 115.061 3.70312C115.249 3.625 115.441 3.57031 115.639 3.53906C115.837 3.5026 116.033 3.48438 116.225 3.48438C116.668 3.48438 117.082 3.56771 117.467 3.73438C117.858 3.90104 118.197 4.13021 118.483 4.42188C118.775 4.70833 119.004 5.04688 119.171 5.4375C119.337 5.82812 119.421 6.24479 119.421 6.6875V12Z" fill="#A71B4A"/>
<path d="M131.144 12H129.019V6.6875C129.019 6.54167 128.99 6.40365 128.933 6.27344C128.881 6.14323 128.805 6.02865 128.706 5.92969C128.607 5.83073 128.493 5.75521 128.363 5.70312C128.232 5.64583 128.094 5.61719 127.948 5.61719C127.803 5.61719 127.665 5.64583 127.534 5.70312C127.409 5.75521 127.297 5.83073 127.198 5.92969C127.105 6.02865 127.029 6.14323 126.972 6.27344C126.92 6.40365 126.894 6.54167 126.894 6.6875V12H124.761V6.6875C124.761 6.54167 124.732 6.40365 124.675 6.27344C124.623 6.14323 124.547 6.02865 124.448 5.92969C124.349 5.83073 124.235 5.75521 124.105 5.70312C123.974 5.64583 123.836 5.61719 123.691 5.61719C123.545 5.61719 123.407 5.64583 123.277 5.70312C123.152 5.75521 123.04 5.83073 122.941 5.92969C122.847 6.02865 122.771 6.14323 122.714 6.27344C122.662 6.40365 122.636 6.54167 122.636 6.6875V12H120.503V3.63281H121.019L121.597 4.27344C121.894 4.02344 122.219 3.83073 122.573 3.69531C122.933 3.55469 123.305 3.48438 123.691 3.48438C124.081 3.48438 124.461 3.55729 124.831 3.70312C125.206 3.84896 125.534 4.10156 125.816 4.46094C125.946 4.28385 126.094 4.13281 126.261 4.00781C126.428 3.88281 126.602 3.78125 126.784 3.70312C126.972 3.625 127.165 3.57031 127.363 3.53906C127.56 3.5026 127.756 3.48438 127.948 3.48438C128.391 3.48438 128.805 3.56771 129.191 3.73438C129.581 3.90104 129.92 4.13021 130.206 4.42188C130.498 4.70833 130.727 5.04688 130.894 5.4375C131.06 5.82812 131.144 6.24479 131.144 6.6875V12Z" fill="#A71B4A"/>
<path d="M135.554 9.95312C135.638 9.97917 135.721 9.9974 135.804 10.0078C135.888 10.013 135.971 10.0156 136.054 10.0156C136.263 10.0156 136.463 9.98698 136.656 9.92969C136.849 9.8724 137.028 9.79167 137.195 9.6875C137.367 9.57812 137.518 9.44792 137.648 9.29688C137.784 9.14062 137.893 8.96875 137.976 8.78125L139.539 10.3516C139.341 10.6328 139.112 10.8854 138.851 11.1094C138.596 11.3333 138.317 11.5234 138.015 11.6797C137.718 11.8359 137.403 11.9531 137.07 12.0312C136.742 12.1146 136.403 12.1562 136.054 12.1562C135.466 12.1562 134.911 12.0469 134.39 11.8281C133.875 11.6094 133.422 11.3047 133.031 10.9141C132.646 10.5234 132.341 10.0599 132.117 9.52344C131.893 8.98177 131.781 8.38802 131.781 7.74219C131.781 7.08073 131.893 6.47656 132.117 5.92969C132.341 5.38281 132.646 4.91667 133.031 4.53125C133.422 4.14583 133.875 3.84635 134.39 3.63281C134.911 3.41927 135.466 3.3125 136.054 3.3125C136.403 3.3125 136.744 3.35417 137.078 3.4375C137.411 3.52083 137.726 3.64062 138.023 3.79688C138.325 3.95312 138.606 4.14583 138.867 4.375C139.127 4.59896 139.356 4.85156 139.554 5.13281L135.554 9.95312ZM136.648 5.55469C136.549 5.51823 136.45 5.49479 136.351 5.48438C136.258 5.47396 136.159 5.46875 136.054 5.46875C135.763 5.46875 135.487 5.52344 135.226 5.63281C134.971 5.73698 134.747 5.88802 134.554 6.08594C134.367 6.28385 134.218 6.52344 134.109 6.80469C134 7.08073 133.945 7.39323 133.945 7.74219C133.945 7.82031 133.948 7.90885 133.953 8.00781C133.963 8.10677 133.976 8.20833 133.992 8.3125C134.013 8.41146 134.036 8.50781 134.062 8.60156C134.088 8.69531 134.122 8.77865 134.164 8.85156L136.648 5.55469Z" fill="#A71B4A"/>
<path d="M142.285 12H140.152V3.63281H140.668L141.371 4.625C141.715 4.3125 142.106 4.07292 142.543 3.90625C142.981 3.73438 143.434 3.64844 143.902 3.64844H145.785V5.77344H143.902C143.679 5.77344 143.468 5.8151 143.27 5.89844C143.072 5.98177 142.9 6.09635 142.754 6.24219C142.608 6.38802 142.494 6.5599 142.41 6.75781C142.327 6.95573 142.285 7.16667 142.285 7.39062V12Z" fill="#A71B4A"/>
<path d="M153.454 5.29688L151.891 6.86719C151.813 6.64844 151.706 6.45312 151.571 6.28125C151.436 6.10417 151.282 5.95573 151.11 5.83594C150.943 5.71615 150.761 5.625 150.563 5.5625C150.365 5.5 150.162 5.46875 149.954 5.46875C149.662 5.46875 149.386 5.52865 149.126 5.64844C148.87 5.76823 148.646 5.9375 148.454 6.15625C148.266 6.36979 148.118 6.625 148.008 6.92188C147.899 7.21875 147.844 7.54688 147.844 7.90625C147.844 8.19792 147.899 8.47135 148.008 8.72656C148.118 8.98177 148.266 9.20573 148.454 9.39844C148.646 9.59115 148.87 9.74219 149.126 9.85156C149.386 9.96094 149.662 10.0156 149.954 10.0156C150.162 10.0156 150.363 9.98698 150.555 9.92969C150.748 9.8724 150.928 9.79167 151.094 9.6875C151.266 9.57812 151.417 9.44792 151.548 9.29688C151.683 9.14062 151.792 8.96875 151.876 8.78125L153.438 10.3516C153.24 10.6328 153.011 10.8854 152.751 11.1094C152.495 11.3333 152.217 11.5234 151.915 11.6797C151.618 11.8359 151.303 11.9531 150.969 12.0312C150.641 12.1146 150.303 12.1562 149.954 12.1562C149.365 12.1562 148.811 12.0469 148.29 11.8281C147.774 11.6042 147.321 11.2995 146.93 10.9141C146.545 10.5286 146.24 10.0781 146.016 9.5625C145.792 9.04688 145.68 8.49479 145.68 7.90625C145.68 7.26562 145.792 6.66667 146.016 6.10938C146.24 5.55208 146.545 5.06771 146.93 4.65625C147.321 4.23958 147.774 3.91146 148.29 3.67188C148.811 3.43229 149.365 3.3125 149.954 3.3125C150.303 3.3125 150.644 3.35677 150.977 3.44531C151.316 3.53385 151.636 3.66406 151.938 3.83594C152.245 4.0026 152.527 4.20833 152.782 4.45312C153.042 4.69792 153.266 4.97917 153.454 5.29688Z" fill="#A71B4A"/>
<path d="M157.224 9.95312C157.307 9.97917 157.39 9.9974 157.474 10.0078C157.557 10.013 157.64 10.0156 157.724 10.0156C157.932 10.0156 158.133 9.98698 158.325 9.92969C158.518 9.8724 158.698 9.79167 158.864 9.6875C159.036 9.57812 159.187 9.44792 159.318 9.29688C159.453 9.14062 159.562 8.96875 159.646 8.78125L161.208 10.3516C161.01 10.6328 160.781 10.8854 160.521 11.1094C160.265 11.3333 159.987 11.5234 159.685 11.6797C159.388 11.8359 159.073 11.9531 158.739 12.0312C158.411 12.1146 158.073 12.1562 157.724 12.1562C157.135 12.1562 156.581 12.0469 156.06 11.8281C155.544 11.6094 155.091 11.3047 154.7 10.9141C154.315 10.5234 154.01 10.0599 153.786 9.52344C153.562 8.98177 153.45 8.38802 153.45 7.74219C153.45 7.08073 153.562 6.47656 153.786 5.92969C154.01 5.38281 154.315 4.91667 154.7 4.53125C155.091 4.14583 155.544 3.84635 156.06 3.63281C156.581 3.41927 157.135 3.3125 157.724 3.3125C158.073 3.3125 158.414 3.35417 158.747 3.4375C159.081 3.52083 159.396 3.64062 159.693 3.79688C159.995 3.95312 160.276 4.14583 160.536 4.375C160.797 4.59896 161.026 4.85156 161.224 5.13281L157.224 9.95312ZM158.318 5.55469C158.219 5.51823 158.12 5.49479 158.021 5.48438C157.927 5.47396 157.828 5.46875 157.724 5.46875C157.432 5.46875 157.156 5.52344 156.896 5.63281C156.64 5.73698 156.416 5.88802 156.224 6.08594C156.036 6.28385 155.888 6.52344 155.778 6.80469C155.669 7.08073 155.614 7.39323 155.614 7.74219C155.614 7.82031 155.617 7.90885 155.622 8.00781C155.633 8.10677 155.646 8.20833 155.661 8.3125C155.682 8.41146 155.706 8.50781 155.732 8.60156C155.758 8.69531 155.791 8.77865 155.833 8.85156L158.318 5.55469Z" fill="#A71B4A"/>
</svg>
