<svg width="24" height="19" viewBox="0 0 24 19" fill="none" xmlns="http://www.w3.org/2000/svg">
<path d="M23.7496 2.50521L22.7976 1.55322L13.9792 10.3716C12.8769 11.4739 11.023 11.4739 9.92075 10.3716L1.10237 1.60333L0.150391 2.55531L6.71406 9.11899L0.150391 15.6827L1.10237 16.6346L7.66605 10.071L8.96876 11.3737C9.77043 12.1754 10.8226 12.6263 11.9249 12.6263C13.0272 12.6263 14.0794 12.1754 14.8811 11.3737L16.1838 10.071L22.7475 16.6346L23.6995 15.6827L17.1358 9.11899L23.7496 2.50521Z" fill="#A71B4A"/>
<path d="M21.8956 18.3382H2.10439C0.951986 18.3382 0 17.3862 0 16.2338V2.10438C0 0.951982 0.951986 0 2.10439 0H21.8956C23.048 0 24 0.951982 24 2.10438V16.2338C24 17.3862 23.048 18.3382 21.8956 18.3382ZM2.05428 1.35282C1.65344 1.35282 1.35282 1.65344 1.35282 2.05428V16.1837C1.35282 16.5846 1.65344 16.8852 2.05428 16.8852H21.8455C22.2463 16.8852 22.547 16.5846 22.547 16.1837V2.05428C22.547 1.65344 22.2463 1.35282 21.8455 1.35282H2.05428Z" fill="#A71B4A"/>
</svg>
