<svg width="319" height="309" viewBox="0 0 319 309" fill="none" xmlns="http://www.w3.org/2000/svg">
<g clip-path="url(#clip0_639_900)">
<path d="M235.613 175.055V190.649H239.192C239.192 190.649 238.85 187.544 239.192 185.707C239.534 183.869 243.424 179.13 243.308 175.055H235.605H235.613Z" fill="#E0E0E0"/>
<path d="M264.268 175.055V190.649H267.846C267.846 190.649 267.504 187.544 267.846 185.707C268.189 183.869 272.079 179.13 271.962 175.055H264.26H264.268Z" fill="#E0E0E0"/>
<path d="M292.314 175.055V190.649H288.735C288.735 190.649 289.078 187.544 288.735 185.707C288.393 183.869 284.503 179.13 284.62 175.055H292.322H292.314Z" fill="#E0E0E0"/>
<path d="M317.125 175.055V190.649H313.546C313.546 190.649 313.888 187.544 313.546 185.707C313.204 183.869 309.314 179.13 309.43 175.055H317.133H317.125Z" fill="#E0E0E0"/>
<path d="M319.008 98.0889H233.178V175.564H319.008V98.0889Z" fill="#EBEBEB"/>
<path d="M295.877 98.0889L296.515 175.564H318.999V98.0889H295.877Z" fill="#E0E0E0"/>
<path d="M292.144 103.79H237.037V123.505H292.144V103.79Z" fill="#E0E0E0"/>
<path d="M292.144 127.43H237.037V147.145H292.144V127.43Z" fill="#E0E0E0"/>
<path d="M292.144 151.071H237.037V170.786H292.144V151.071Z" fill="#E0E0E0"/>
<path d="M258.16 75.8247L255.787 97.995H286.238L288.759 75.8247H258.16Z" fill="#E0E0E0"/>
<path d="M259.412 77.4199L257.102 96.8219H284.581L286.806 77.4199H259.412Z" fill="#F5F5F5"/>
<path d="M264.033 80.6812L262.617 93.5532H279.959L280.846 80.6812H264.033Z" fill="#E0E0E0"/>
<path d="M287.678 85.3731L293.964 98.0888L286.238 97.995L287.771 84.5442" fill="#E0E0E0"/>
<path d="M15.9653 28.3324C16.0042 28.223 17.6069 28.6609 19.5442 29.31C21.4892 29.9591 23.0296 30.569 22.9985 30.6785C22.9596 30.788 21.3647 30.3501 19.4197 29.701C17.4746 29.0519 15.9342 28.4419 15.9653 28.3324Z" fill="#E0E0E0"/>
<path d="M105.272 157.046V186.371H101.367L96.1309 156.717L105.272 157.046Z" fill="#E0E0E0"/>
<path d="M69.7647 157.046V186.371H65.8591L60.623 156.717L69.7647 157.046Z" fill="#E0E0E0"/>
<path d="M25.3633 157.046V186.371H29.2689L34.5127 156.717L25.3633 157.046Z" fill="#E0E0E0"/>
<path d="M0.419922 157.046V186.371H4.32554L9.56933 156.717L0.419922 157.046Z" fill="#E0E0E0"/>
<path d="M80.875 92.5443C80.875 92.5443 96.3108 88.0712 100.566 94.038C104.822 100.005 105.273 157.452 105.273 157.452C105.273 157.452 77.7241 157.953 77.2184 157.452C76.7127 156.952 80.875 92.5443 80.875 92.5443Z" fill="#E0E0E0"/>
<path d="M1.20669 146.973L0.529823 47.3591C0.444242 34.5105 10.8151 24.0549 23.6056 24.1175H59.9854C72.7137 24.1175 82.9523 34.6513 82.6566 47.4452L80.3226 146.973H1.20669Z" fill="#EBEBEB"/>
<path d="M1.20703 146.973C1.20703 146.973 15.2346 126.179 31.7128 125.499C48.1911 124.818 83.7229 125.499 83.7229 125.499C83.7229 125.499 99.4698 126.101 100.567 145.706V157.272H1.20703V146.973Z" fill="#EBEBEB"/>
<path d="M33.4556 126.093C47.0553 126.023 60.6471 125.952 74.2468 125.874C78.5025 125.851 83.3495 125.327 87.4807 126.507C99.6333 129.972 101.423 145.604 100.458 156.388C100.419 156.834 101.104 156.826 101.143 156.388C101.952 147.348 101.003 134.687 93.308 128.666C88.8734 125.194 83.7152 125.139 78.4169 125.162C63.4324 125.241 48.4401 125.319 33.4556 125.397C33.0122 125.397 33.0122 126.085 33.4556 126.085V126.093Z" fill="#E0E0E0"/>
<path d="M71.4209 27.2299C71.4209 27.2299 71.3276 27.2143 71.1486 27.1752C70.9697 27.1361 70.7129 27.0501 70.3628 26.9875C70.005 26.9328 69.5693 26.878 69.0558 26.7998C68.5345 26.7529 67.9354 26.6903 67.2586 26.6434C64.5511 26.4557 60.6299 26.3541 55.7829 26.3619C53.3555 26.3619 50.7025 26.3932 47.8472 26.4479C44.9919 26.5339 41.9421 26.4714 38.7756 26.9015C37.1885 27.1048 35.578 27.3863 33.9519 27.7852C32.3337 28.184 30.6998 28.7158 29.1672 29.5056C27.65 30.3033 26.2496 31.4294 24.9815 32.6806C23.7133 33.9397 22.5852 35.3942 21.7372 37.013C21.317 37.8263 20.9825 38.6787 20.7569 39.5468C20.5157 40.407 20.4612 41.322 20.3445 42.2213C20.1267 44.0199 19.9555 45.7951 19.7766 47.539C19.4342 51.0268 19.1853 54.4052 18.9674 57.6193C18.5473 64.0475 18.345 69.8579 18.1894 74.7299C18.0572 79.5863 17.956 83.5276 17.8782 86.2725C17.8393 87.6176 17.8082 88.6655 17.7849 89.4084C17.7693 89.7525 17.7615 90.0184 17.7537 90.2217C17.746 90.4094 17.7382 90.5033 17.7304 90.5033C17.7304 90.5033 17.7148 90.4094 17.7148 90.2217C17.7148 90.0184 17.7148 89.7447 17.7148 89.4084C17.7148 88.6655 17.7226 87.6098 17.7304 86.2647C17.7537 83.5355 17.8004 79.5941 17.9093 74.7143C18.026 69.8344 18.205 64.0318 18.6018 57.588C18.8041 54.3661 19.053 50.9877 19.3876 47.4921C19.5587 45.7482 19.7377 43.9652 19.9477 42.1665C20.0567 41.275 20.1189 40.3444 20.3679 39.4373C20.6013 38.5301 20.9514 37.6543 21.3793 36.8175C22.2584 35.1518 23.4099 33.666 24.7014 32.3835C26.0084 31.1088 27.4166 29.9748 28.9882 29.1459C30.5676 28.3404 32.2247 27.8086 33.8586 27.402C35.5002 26.9953 37.1262 26.7216 38.7289 26.5261C41.9265 26.1038 44.9919 26.1742 47.8394 26.1038C50.6947 26.0647 53.3477 26.0491 55.7751 26.0725C60.6299 26.1038 64.5589 26.2446 67.2664 26.487C67.9432 26.5496 68.5423 26.6278 69.0636 26.6825C69.5848 26.7607 70.0205 26.8467 70.3706 26.9093C70.7207 26.9875 70.9775 27.0892 71.1564 27.1361C71.3276 27.1908 71.4209 27.2221 71.4132 27.2299H71.4209Z" fill="#E0E0E0"/>
<path d="M13.2568 53.4275C13.2957 53.318 14.5872 53.6856 16.151 54.233C17.7148 54.7882 18.944 55.32 18.9051 55.4217C18.8662 55.5312 17.5747 55.1636 16.0109 54.6162C14.4549 54.0688 13.2179 53.5292 13.2568 53.4275Z" fill="#E0E0E0"/>
<path d="M16.3223 59.1521C16.3223 59.0426 16.8902 58.9253 17.606 58.894C18.3218 58.8627 18.8975 58.9253 18.9053 59.0426C18.9053 59.1521 18.3373 59.2694 17.6215 59.3007C16.9058 59.3319 16.33 59.2694 16.3223 59.1521Z" fill="#E0E0E0"/>
<path d="M39.6643 57.2441C39.6721 57.3144 39.0497 57.1189 38.4273 57.7133C38.1316 57.987 37.9138 58.4718 38.0772 58.9723C38.2172 59.465 38.7074 59.942 39.2909 59.9811C39.8744 60.0202 40.419 59.6136 40.6524 59.1522C40.9014 58.683 40.808 58.1668 40.6213 57.8071C40.2089 57.0564 39.5943 56.9547 39.6254 56.8921C39.6254 56.8687 39.7732 56.8609 40.0222 56.9469C40.2634 57.0407 40.6057 57.2519 40.8702 57.6585C41.127 58.0495 41.2904 58.7064 40.9947 59.3164C40.7224 59.9029 40.0689 60.4269 39.2753 60.3878C38.4817 60.3252 37.8982 59.7074 37.7271 59.074C37.5326 58.4093 37.8671 57.7836 38.2406 57.4943C38.614 57.1815 39.0263 57.1033 39.2831 57.1189C39.5476 57.1346 39.6721 57.2206 39.6643 57.2362V57.2441Z" fill="#E0E0E0"/>
<path d="M38.3262 48.0239C38.3262 48.0239 38.8941 48.2664 39.5632 48.978C40.2245 49.6818 40.9792 50.8705 41.2515 52.3563C41.5238 53.8422 41.2359 55.2263 40.8625 56.1178C40.489 57.025 40.0767 57.4786 40.0456 57.4473C39.9911 57.4082 40.3023 56.9077 40.598 56.0162C40.8936 55.1325 41.1115 53.8265 40.8547 52.4267C40.598 51.0269 39.9367 49.8851 39.3531 49.1657C38.7696 48.4384 38.2951 48.0787 38.334 48.0239H38.3262Z" fill="#E0E0E0"/>
<path d="M39.2216 70.1631C39.1672 70.124 39.5562 69.6 40.0074 68.6694C40.4587 67.7466 40.9566 66.3859 41.1044 64.8219C41.2445 63.2735 41.1277 61.772 40.5209 60.9743C39.9218 60.1454 39.1827 60.1297 39.2138 60.0672C39.2138 60.0437 39.385 60.0046 39.6806 60.0828C39.9763 60.1532 40.3886 60.3643 40.7465 60.7944C41.1044 61.2246 41.3534 61.858 41.4623 62.5618C41.5634 63.2656 41.5868 64.0477 41.509 64.861C41.3534 66.4876 40.7932 67.8874 40.2642 68.8023C39.7351 69.7251 39.2605 70.1943 39.2294 70.1631H39.2216Z" fill="#E0E0E0"/>
<path d="M44.8607 58.4482C44.7985 58.5499 44.0983 58.1354 43.1413 58.1433C42.1843 58.1276 41.4841 58.5343 41.4219 58.4326C41.3441 58.3622 42.0443 57.721 43.1413 57.7366C44.2383 57.7366 44.9385 58.3779 44.8607 58.4482Z" fill="#E0E0E0"/>
<path d="M62.8089 57.2441C62.8166 57.3144 62.1942 57.1189 61.5718 57.7133C61.2762 57.987 61.0583 58.4718 61.2217 58.9723C61.3618 59.465 61.8519 59.942 62.4354 59.9811C63.0189 60.0202 63.5635 59.6136 63.7969 59.1522C64.0459 58.683 63.9525 58.1668 63.7658 57.8071C63.3535 57.0564 62.7388 56.9547 62.7699 56.8921C62.7699 56.8687 62.9178 56.8609 63.1667 56.9469C63.4079 57.0407 63.7502 57.2519 64.0148 57.6585C64.2715 58.0495 64.4349 58.7064 64.1393 59.3164C63.8669 59.9029 63.2134 60.4269 62.4198 60.3878C61.6263 60.3252 61.0428 59.7074 60.8716 59.074C60.6771 58.4093 61.0116 57.7836 61.3851 57.4943C61.7585 57.1815 62.1709 57.1033 62.4276 57.1189C62.6921 57.1346 62.8166 57.2206 62.8089 57.2362V57.2441Z" fill="#E0E0E0"/>
<path d="M61.4707 48.0239C61.4707 48.0239 62.0386 48.2664 62.7077 48.978C63.369 49.6818 64.1237 50.8705 64.396 52.3563C64.6683 53.8422 64.3805 55.2263 64.007 56.1178C63.6336 57.025 63.2212 57.4786 63.1901 57.4473C63.1356 57.4082 63.4468 56.9077 63.7425 56.0162C64.0381 55.1325 64.256 53.8265 63.9992 52.4267C63.7425 51.0269 63.0812 49.8851 62.4977 49.1657C61.9142 48.4384 61.4396 48.0787 61.4785 48.0239H61.4707Z" fill="#E0E0E0"/>
<path d="M62.3662 70.1631C62.3117 70.124 62.7007 69.6 63.1519 68.6694C63.6032 67.7466 64.1011 66.3859 64.2489 64.8219C64.389 63.2735 64.2723 61.772 63.6654 60.9743C63.0664 60.1454 62.3273 60.1297 62.3584 60.0672C62.3584 60.0437 62.5295 60.0046 62.8252 60.0828C63.1208 60.1532 63.541 60.3643 63.8911 60.7944C64.2489 61.2246 64.4979 61.858 64.6068 62.5618C64.708 63.2656 64.7313 64.0477 64.6535 64.861C64.4979 66.4876 63.9377 67.8874 63.4087 68.8023C62.8796 69.7251 62.4051 70.1943 62.3739 70.1631H62.3662Z" fill="#E0E0E0"/>
<path d="M68.0052 58.4482C67.943 58.5499 67.2428 58.1354 66.2858 58.1433C65.3289 58.1276 64.6287 58.5343 64.5664 58.4326C64.4886 58.3622 65.1888 57.721 66.2858 57.7366C67.3828 57.7366 68.083 58.3779 68.0052 58.4482Z" fill="#E0E0E0"/>
<path d="M1.62687 91.8795C1.62687 91.8795 25.2239 85.7406 29.4952 93.8189C33.7665 101.897 34.5134 157.515 34.5134 157.515C34.5134 157.515 0.436517 158.774 0.358716 157.335C0.280915 155.888 1.62687 91.8795 1.62687 91.8795Z" fill="#F5F5F5"/>
<path d="M0.350454 91.6137C0.350454 91.6137 15.934 87.5863 20.1897 93.5453C24.4454 99.5121 25.5658 157.788 25.5658 157.788C25.5658 157.788 0.692778 158.523 0.187071 158.023C-0.318636 157.522 0.350454 91.6137 0.350454 91.6137Z" fill="#EBEBEB"/>
<path d="M9.47649 120.658C9.47649 120.658 9.35979 120.619 9.18863 120.65C9.01746 120.674 8.77628 120.806 8.67514 121.104C8.574 121.393 8.55844 121.839 8.62846 122.253C8.69848 122.683 9.01746 123.027 9.47649 122.934C10.1456 122.832 10.3245 122.026 10.1456 121.534C9.97442 121.01 9.59319 120.681 9.35979 120.478L9.21197 120.353L9.38313 120.314C9.66321 120.251 9.81103 120.236 9.82659 120.267C9.84215 120.298 9.70211 120.376 9.44537 120.494L9.46871 120.329C9.74879 120.486 10.2156 120.783 10.4723 121.416C10.589 121.729 10.6279 122.12 10.4957 122.511C10.379 122.902 9.99776 123.262 9.54651 123.332C9.22753 123.395 8.86964 123.309 8.63624 123.082C8.39505 122.863 8.30169 122.566 8.25501 122.316C8.19277 121.8 8.23945 121.362 8.40283 120.979C8.574 120.595 8.95522 120.447 9.17306 120.478C9.40647 120.501 9.48427 120.634 9.46871 120.65L9.47649 120.658Z" fill="#E0E0E0"/>
<path d="M13.9117 110.085C14.0128 110.148 12.6747 112.4 11.4065 115.364C10.1228 118.32 9.39923 120.838 9.28253 120.806C9.22807 120.791 9.34477 120.142 9.63263 119.117C9.9205 118.093 10.3873 116.693 11.0331 115.199C11.6788 113.706 12.3712 112.408 12.9236 111.5C13.476 110.593 13.865 110.062 13.9117 110.085Z" fill="#E0E0E0"/>
<path d="M4.61413 111.07C4.66081 111.047 4.98758 111.555 5.45438 112.415C5.92119 113.276 6.52026 114.488 7.11155 115.856C7.70283 117.225 8.16964 118.5 8.47306 119.422C8.77649 120.353 8.92431 120.939 8.86985 120.955C8.76093 120.994 7.9129 118.734 6.7381 116.013C5.57108 113.283 4.51299 111.125 4.61413 111.062V111.07Z" fill="#E0E0E0"/>
<path d="M13.8109 139.622C13.7564 139.63 13.5619 138.691 13.2507 137.182C12.9473 135.673 12.5194 133.585 12.0059 131.286C11.4924 128.987 10.9867 126.922 10.6133 125.421C10.2476 123.919 10.022 122.996 10.0764 122.973C10.1309 122.957 10.4499 123.857 10.8856 125.342C11.329 126.82 11.8814 128.893 12.3949 131.192C12.9084 133.491 13.2974 135.595 13.5308 137.127C13.7642 138.652 13.8576 139.606 13.8109 139.614V139.622Z" fill="#E0E0E0"/>
<path d="M4.62953 133.241C4.57507 133.225 4.67621 132.615 4.93295 131.645C5.1897 130.676 5.60982 129.346 6.18555 127.931C6.76128 126.507 7.38369 125.264 7.87384 124.396C8.36398 123.52 8.72187 123.012 8.76855 123.035C8.86969 123.098 7.69489 125.264 6.559 128.079C5.41532 130.887 4.74623 133.272 4.62953 133.241Z" fill="#E0E0E0"/>
<path d="M149.776 0H103.842V60.2078L149.776 61.3652V0Z" fill="#E0E0E0"/>
<path d="M146.749 2.14282H106.557V56.7435L146.749 58.1121V2.14282Z" fill="white"/>
<path d="M139.715 12.0667L113.037 11.0422V49.2049H139.715V12.0667Z" fill="#E0E0E0"/>
<path d="M113.037 49.2049L139.715 29.5996L113.037 11.0422V49.2049Z" fill="#F5F5F5"/>
<path d="M198.696 41.1499H162.822V88.1728L198.696 89.08V41.1499Z" fill="#E0E0E0"/>
<path d="M196.33 42.8235H164.945V85.4671L196.33 86.5306V42.8235Z" fill="white"/>
<path d="M190.839 50.5733L170.012 49.7756V79.5863H190.839V50.5733Z" fill="#E0E0E0"/>
<path d="M170.012 79.5863L190.839 64.2743L170.012 49.7756V79.5863Z" fill="#F5F5F5"/>
<path d="M157.898 309C234.399 309 296.415 282.422 296.415 249.637C296.415 216.851 234.399 190.273 157.898 190.273C81.3971 190.273 19.3809 216.851 19.3809 249.637C19.3809 282.422 81.3971 309 157.898 309Z" fill="#F5F5F5"/>
<path d="M121.829 246.243C118.141 246.884 114.329 247.572 111.225 249.668C108.121 251.772 105.911 255.697 106.969 259.302C108.261 263.705 113.388 265.504 117.846 266.513C146.741 273.035 177.052 273.105 205.979 266.724C209.527 265.942 213.759 264.3 214.171 260.679C214.654 256.479 209.659 254.016 205.574 253.015C191.298 249.512 176.555 247.971 161.873 248.44" fill="#E0E0E0"/>
<path d="M291.957 234.63C292.019 234.598 292.198 234.841 292.486 235.365C292.805 235.873 293.101 236.702 293.474 237.805C294.135 240.026 294.594 243.459 294.237 247.838C294.19 248.941 293.964 250.075 293.809 251.287C293.544 252.475 293.342 253.75 292.937 255.025C292.611 256.331 292.105 257.637 291.607 259.013C291.311 259.678 291.008 260.366 290.704 261.054C290.409 261.75 289.996 262.415 289.631 263.111C288.106 265.856 286.021 268.616 283.407 271.064C280.839 273.457 277.984 275.842 274.817 278.102C268.484 282.638 260.914 286.736 252.387 289.965C243.907 293.156 234.758 296.37 224.869 298.881C215.043 301.602 204.493 303.541 193.523 305.145C190.769 305.465 187.991 305.786 185.191 306.114C184.49 306.192 183.79 306.278 183.082 306.357C182.382 306.435 181.666 306.466 180.958 306.521C179.542 306.623 178.118 306.716 176.687 306.818C170.976 307.326 165.157 307.342 159.283 307.491C135.74 307.42 113.349 304.409 93.6421 299.162C91.1835 298.505 88.7406 297.895 86.3521 297.215C83.9869 296.472 81.6451 295.737 79.3422 295.009C78.1908 294.65 77.0471 294.29 75.9112 293.93C74.7753 293.586 73.6783 293.133 72.5735 292.742C70.3795 291.928 68.2167 291.138 66.0849 290.349C57.6124 287.205 49.8089 283.592 43.3359 279.166C36.855 274.771 31.8213 269.461 28.6159 264.073C25.3716 258.708 23.7378 253.461 23.1076 249.113C22.4774 244.749 22.7808 241.308 23.2165 239.064C23.3955 237.93 23.6833 237.093 23.8623 236.538C24.049 235.983 24.1812 235.709 24.2435 235.724C24.3135 235.74 24.3135 236.053 24.2668 236.632C24.2201 237.21 24.0723 238.055 24.0256 239.173C23.8545 241.394 23.8234 244.71 24.6558 248.839C25.4883 252.952 27.2699 257.871 30.5298 262.853C33.743 267.842 38.6211 272.698 44.923 276.765C51.2171 280.855 58.8261 284.21 67.2597 287.189C69.3681 287.932 71.5154 288.683 73.6939 289.449C74.7909 289.817 75.8723 290.247 77.0004 290.575C78.1207 290.912 79.2566 291.256 80.4003 291.592C82.6799 292.28 84.9906 292.976 87.3402 293.68C89.7053 294.321 92.1171 294.892 94.5523 295.518C114.026 300.491 136.09 303.338 159.267 303.408C165.056 303.26 170.79 303.252 176.415 302.767C177.823 302.673 179.223 302.579 180.624 302.486C181.324 302.431 182.024 302.407 182.717 302.337C183.409 302.259 184.101 302.181 184.794 302.102C187.556 301.79 190.294 301.485 193.01 301.18C203.824 299.647 214.234 297.825 223.943 295.236C233.715 292.867 242.779 289.809 251.197 286.798C259.568 283.78 266.944 279.971 273.184 275.725C276.303 273.613 279.128 271.377 281.679 269.132C284.185 266.919 286.145 264.479 287.678 261.953C288.036 261.312 288.448 260.71 288.752 260.061C289.063 259.42 289.374 258.786 289.677 258.168C290.199 256.894 290.728 255.674 291.086 254.446C291.521 253.242 291.77 252.045 292.082 250.919C292.284 249.77 292.564 248.69 292.665 247.642C293.249 243.466 293.062 240.151 292.681 237.969C292.455 236.89 292.292 236.045 292.105 235.506C291.949 234.95 291.903 234.645 291.965 234.614L291.957 234.63Z" fill="#E0E0E0"/>
<path d="M276.351 246.133C276.281 246.133 276.179 245.656 276.055 244.733C275.993 244.272 275.946 243.701 275.752 243.044C275.565 242.387 275.471 241.597 275.114 240.768C274.958 240.346 274.802 239.9 274.631 239.431C274.46 238.962 274.188 238.508 273.954 238.008C273.519 236.999 272.818 236.006 272.142 234.895C270.624 232.768 268.625 230.501 266.065 228.256C260.946 223.775 253.64 219.505 244.678 215.775C235.692 212.068 225.01 208.917 212.997 206.485C200.977 204.06 187.603 202.418 173.194 201.714C158.785 201.034 143.326 201.276 127.206 202.966C119.146 203.818 110.93 205.038 102.636 206.735C94.335 208.416 85.9792 210.653 77.7089 213.554C69.5009 216.549 61.2618 220.154 53.9796 225.292C50.3618 227.849 46.9619 230.806 44.3712 234.317L43.4142 235.638L42.5895 237.03C42.4573 237.265 42.3094 237.492 42.1772 237.726L41.8426 238.454C41.6326 238.939 41.3758 239.423 41.1891 239.916C40.45 241.91 40.061 243.998 40.0065 246.102C40.0688 248.205 40.4422 250.293 41.1813 252.288C41.368 252.788 41.617 253.265 41.8271 253.75L42.1616 254.477C42.2861 254.712 42.4339 254.946 42.5662 255.173L43.3909 256.565L44.3478 257.887C46.9308 261.406 50.3307 264.362 53.9563 266.919C61.2384 272.065 69.4776 275.67 77.6934 278.665C85.9636 281.566 94.3272 283.811 102.629 285.492C110.922 287.189 119.146 288.417 127.206 289.262C143.326 290.951 158.793 291.193 173.202 290.513C187.611 289.817 200.985 288.167 213.005 285.742C225.017 283.31 235.7 280.159 244.686 276.444C253.648 272.706 260.946 268.444 266.065 263.963C268.625 261.719 270.624 259.459 272.142 257.324C272.818 256.213 273.519 255.22 273.954 254.211C274.188 253.711 274.46 253.257 274.631 252.788C274.802 252.319 274.966 251.873 275.114 251.459C275.471 250.63 275.565 249.84 275.752 249.183C275.946 248.526 275.993 247.955 276.055 247.494C276.179 246.579 276.281 246.094 276.351 246.094C276.421 246.094 276.46 246.571 276.467 247.525C276.467 248.002 276.491 248.596 276.358 249.285C276.234 249.973 276.195 250.81 275.892 251.693C275.759 252.139 275.627 252.616 275.479 253.117C275.331 253.617 275.082 254.11 274.865 254.642C274.468 255.729 273.799 256.792 273.137 257.989C271.667 260.28 269.675 262.728 267.108 265.136C261.973 269.961 254.605 274.528 245.557 278.54C236.485 282.521 225.71 285.915 213.573 288.558C201.436 291.193 187.922 293.023 173.358 293.876C158.793 294.712 143.163 294.595 126.809 292.984C118.64 292.171 110.292 290.982 101.843 289.293C93.3936 287.619 84.8511 285.375 76.3552 282.419C67.906 279.361 59.3946 275.678 51.6222 270.219C47.7633 267.49 44.0522 264.315 41.0957 260.303L39.9987 258.786L39.034 257.16C38.8784 256.886 38.7073 256.62 38.5594 256.338L38.1626 255.47C37.9059 254.884 37.6103 254.321 37.3924 253.719C36.4821 251.302 36.0076 248.706 35.9453 246.078C36.0076 243.451 36.4977 240.854 37.4002 238.438C37.6258 237.836 37.9215 237.273 38.1782 236.686L38.575 235.818C38.7228 235.537 38.894 235.271 39.0496 234.997L40.0143 233.371L41.1113 231.853C44.0755 227.849 47.7789 224.674 51.6456 221.945C59.4101 216.495 67.9216 212.819 76.3708 209.753C84.8666 206.805 93.4092 204.553 101.858 202.88C110.308 201.19 118.648 199.994 126.817 199.188C143.163 197.577 158.793 197.46 173.358 198.297C187.922 199.149 201.428 200.979 213.565 203.615C225.702 206.258 236.478 209.652 245.549 213.632C254.597 217.636 261.965 222.211 267.1 227.036C269.667 229.445 271.659 231.893 273.13 234.184C273.783 235.38 274.46 236.444 274.857 237.531C275.067 238.063 275.316 238.555 275.471 239.056C275.619 239.556 275.752 240.033 275.884 240.479C276.187 241.363 276.218 242.2 276.351 242.888C276.483 243.584 276.467 244.178 276.46 244.647C276.46 245.594 276.413 246.078 276.343 246.078L276.351 246.133Z" fill="#EBEBEB"/>
<path d="M262.425 244.937C262.355 244.937 262.254 244.538 262.129 243.779C262.098 243.592 262.075 243.373 262.028 243.146C261.958 242.919 261.888 242.661 261.81 242.395C261.732 242.121 261.654 241.832 261.561 241.511C261.437 241.206 261.297 240.886 261.157 240.542C260.908 239.838 260.456 239.134 260.013 238.344C259.779 237.953 259.468 237.578 259.188 237.171C259.04 236.968 258.892 236.765 258.737 236.553C258.566 236.358 258.387 236.155 258.208 235.951C257.523 235.107 256.66 234.309 255.757 233.449C255.275 233.05 254.777 232.636 254.256 232.213C253.75 231.775 253.159 231.408 252.598 230.978C250.28 229.343 247.541 227.74 244.421 226.223C241.294 224.714 237.785 223.298 233.942 221.969C226.263 219.302 217.23 217.073 207.116 215.369C197.002 213.648 185.798 212.499 173.731 212.021C161.672 211.552 148.749 211.748 135.243 212.968C128.49 213.578 121.597 214.461 114.626 215.689C107.655 216.917 100.583 218.481 93.5729 220.608C86.5708 222.727 79.561 225.386 73.1268 229.116C69.937 230.993 66.9027 233.183 64.4287 235.811C64.1174 236.139 63.8529 236.491 63.5651 236.835C63.2772 237.179 62.9893 237.515 62.7559 237.891L62.0246 238.978L61.4333 240.119C60.7098 241.66 60.2819 243.287 60.2507 244.937C60.2741 246.587 60.702 248.213 61.4255 249.762L62.0168 250.904L62.7482 251.991C62.9738 252.366 63.2616 252.702 63.5495 253.046C63.8374 253.383 64.1019 253.742 64.4131 254.071C66.8794 256.698 69.9136 258.888 73.1113 260.765C79.5376 264.503 86.5553 267.154 93.5574 269.273C100.575 271.4 107.639 272.964 114.618 274.2C121.597 275.428 128.49 276.319 135.243 276.921C148.749 278.141 161.68 278.337 173.739 277.868C185.798 277.391 197.01 276.241 207.124 274.521C217.238 272.816 226.27 270.587 233.949 267.92C237.793 266.591 241.302 265.175 244.429 263.666C247.549 262.149 250.288 260.546 252.606 258.911C253.174 258.489 253.758 258.114 254.263 257.676C254.777 257.254 255.275 256.839 255.765 256.44C256.667 255.572 257.531 254.775 258.216 253.938C258.395 253.734 258.574 253.531 258.745 253.336C258.9 253.125 259.048 252.921 259.196 252.718C259.476 252.311 259.787 251.936 260.021 251.545C260.464 250.747 260.915 250.043 261.164 249.347C261.312 249.003 261.444 248.683 261.569 248.378C261.654 248.065 261.74 247.768 261.818 247.494C261.896 247.22 261.973 246.97 262.036 246.743C262.082 246.509 262.106 246.297 262.137 246.11C262.261 245.351 262.362 244.952 262.432 244.952C262.502 244.952 262.541 245.351 262.549 246.157C262.549 246.36 262.557 246.587 262.549 246.829C262.51 247.072 262.471 247.345 262.425 247.635C262.378 247.932 262.324 248.245 262.261 248.589C262.168 248.917 262.051 249.269 261.927 249.645C261.724 250.411 261.312 251.185 260.892 252.069C260.674 252.507 260.378 252.913 260.106 253.367C259.966 253.594 259.818 253.821 259.671 254.055C259.499 254.274 259.328 254.493 259.149 254.72C258.472 255.65 257.617 256.526 256.714 257.488C256.232 257.926 255.726 258.38 255.212 258.849C254.699 259.326 254.116 259.74 253.548 260.202C251.214 262 248.452 263.752 245.301 265.418C242.142 267.068 238.602 268.624 234.72 270.079C226.963 273.003 217.845 275.459 207.629 277.375C197.414 279.299 186.094 280.636 173.895 281.262C161.703 281.887 148.625 281.817 134.924 280.683C128.078 280.12 121.076 279.267 113.965 278.055C106.861 276.843 99.6414 275.279 92.4215 273.121C85.2093 270.962 77.9583 268.257 71.0806 264.284C67.6652 262.274 64.3275 259.912 61.4489 256.855C61.091 256.472 60.7642 256.049 60.4219 255.643C60.0796 255.236 59.7373 254.829 59.4494 254.368L58.5469 253.015L57.7767 251.545C56.8275 249.535 56.2284 247.275 56.2051 244.952C56.2284 242.63 56.843 240.37 57.7844 238.368L58.5547 236.898L59.4572 235.545C59.745 235.083 60.0874 234.677 60.4297 234.27C60.772 233.863 61.0988 233.441 61.4567 233.058C64.3431 230 67.673 227.638 71.0884 225.629C77.966 221.656 85.2171 218.958 92.4293 216.8C99.6492 214.641 106.861 213.077 113.965 211.865C121.068 210.653 128.07 209.801 134.924 209.237C148.625 208.104 161.696 208.033 173.887 208.651C186.078 209.277 197.406 210.614 207.614 212.538C217.829 214.454 226.947 216.909 234.704 219.826C238.579 221.281 242.126 222.837 245.285 224.487C248.436 226.153 251.206 227.904 253.54 229.703C254.108 230.172 254.699 230.579 255.205 231.056C255.718 231.525 256.224 231.979 256.706 232.417C257.617 233.371 258.472 234.254 259.141 235.185C259.32 235.412 259.492 235.631 259.663 235.85C259.811 236.084 259.958 236.311 260.098 236.538C260.371 236.991 260.666 237.398 260.884 237.836C261.304 238.712 261.717 239.486 261.919 240.26C262.036 240.636 262.16 240.988 262.253 241.316C262.308 241.66 262.362 241.973 262.417 242.27C262.464 242.559 262.502 242.833 262.541 243.076C262.557 243.326 262.541 243.553 262.541 243.748C262.534 244.546 262.495 244.952 262.425 244.952V244.937Z" fill="#EBEBEB"/>
<path d="M182.078 214.657C182.078 214.657 190.27 205.421 198.416 207.11C206.562 208.8 207.985 210.238 207.985 210.238C207.985 210.238 220.496 207.29 220.628 208.94C220.753 210.583 216.761 218.731 216.761 218.731C216.761 218.731 220.745 224.94 217.174 232.831C217.174 232.831 226.868 241.91 222.542 244.225C218.216 246.548 208.981 243.498 208.981 243.498C208.981 243.498 189.92 262 173.169 265.496C156.411 268.992 136.097 260.202 129.103 253.062C121.696 245.5 115.449 225.12 116.919 224.08C119.051 222.571 115.418 211.505 129.36 201.378C143.302 191.259 142.088 185.386 142.088 185.386L147.55 183.532C147.55 183.532 141.956 200.964 150.055 212.147C158.154 223.337 172.508 228.741 182.093 214.649L182.078 214.657Z" fill="#DF5B87"/>
<g opacity="0.2">
<path d="M198.3 206.923C196.759 207.548 195.343 208.549 194.441 209.949C193.538 211.349 193.204 213.156 193.772 214.72C194.34 216.284 195.896 217.496 197.553 217.457C199.513 217.41 201.474 215.76 203.248 216.596C204.345 217.12 204.851 218.403 205.776 219.193C207.301 220.499 209.978 220.006 210.942 218.239C211.565 217.097 211.479 215.658 210.958 214.462C210.437 213.265 209.526 212.288 208.538 211.443C205.605 208.925 201.847 207.392 198.004 207.142" fill="white"/>
</g>
<path d="M119.572 221.945C118.265 219.858 112.608 221.179 110.523 222.485C108.438 223.791 107.155 226.028 105.832 228.108C103.918 231.119 101.693 234.036 98.7053 235.991C95.7256 237.938 91.8511 238.806 88.5367 237.508C85.1446 236.186 82.9273 232.956 80.8422 229.961C78.7571 226.966 76.2986 223.838 72.7742 222.915C67.9428 221.648 62.7535 225.48 61.4931 230.337C60.2327 235.193 62.2711 240.472 65.6788 244.139C71.296 250.184 80.3832 252.35 88.3811 250.427C96.3791 248.503 103.218 242.872 107.582 235.858C109.232 233.207 110.601 230.305 112.857 228.155C115.114 225.996 118.622 224.753 121.384 226.192" fill="#DF5B87"/>
<path d="M191.5 216.44C191.562 217.621 191.15 218.817 190.38 219.717C190.675 219.232 190.201 218.653 189.765 218.293C189.329 217.934 188.839 217.378 189.112 216.878C189.532 216.104 190.924 216.878 191.531 216.244" fill="#263238"/>
<path d="M189.748 212.272C189.779 212.334 189.422 212.553 188.869 212.921C188.332 213.288 187.57 213.867 187.321 214.79C187.064 215.705 187.609 216.549 188.146 216.847C188.682 217.175 189.126 217.152 189.126 217.222C189.141 217.269 188.682 217.433 187.998 217.128C187.671 216.98 187.305 216.682 187.072 216.244C186.839 215.814 186.737 215.228 186.893 214.673C187.212 213.546 188.122 212.952 188.714 212.647C189.328 212.334 189.733 212.217 189.756 212.272H189.748Z" fill="#263238"/>
<path d="M195.717 223.869C195.173 223.877 194.706 224.456 194.807 224.995C194.908 225.535 195.546 225.902 196.059 225.707C196.573 225.511 196.814 224.815 196.534 224.346C196.254 223.877 195.523 223.76 195.118 224.127" fill="#263238"/>
<path d="M196.518 211.662C195.973 211.67 195.506 212.248 195.608 212.788C195.709 213.328 196.347 213.695 196.86 213.5C197.374 213.304 197.615 212.608 197.335 212.139C197.055 211.67 196.323 211.552 195.919 211.92" fill="#263238"/>
<path d="M167.233 222.626C182.951 222.626 195.693 209.818 195.693 194.019C195.693 178.221 182.951 165.413 167.233 165.413C151.515 165.413 138.773 178.221 138.773 194.019C138.773 209.818 151.515 222.626 167.233 222.626Z" fill="#455A64"/>
<path d="M184.769 224.338C184.66 217.793 182.194 211.31 177.93 206.36C176.53 204.733 174.842 203.216 172.757 202.747C170.672 202.278 168.151 203.2 167.443 205.226C166.774 207.126 167.824 209.151 168.68 210.974C171.605 217.245 172.407 224.495 170.921 231.259" fill="#DF5B87"/>
<path d="M184.287 224.08C184.287 224.08 184.263 223.885 184.256 223.509C184.256 223.134 184.232 222.587 184.209 221.875C184.123 220.46 183.905 218.403 183.213 215.971C182.528 213.539 181.361 210.716 179.455 207.979C178.514 206.61 177.378 205.241 175.892 204.248C175.145 203.771 174.313 203.372 173.418 203.232C172.531 203.075 171.582 203.161 170.71 203.466C169.839 203.779 169.077 204.35 168.61 205.109C168.151 205.875 168.011 206.79 168.081 207.674C168.236 209.449 168.921 211.114 169.396 212.725C170.43 215.924 171.271 218.872 171.605 221.414C171.963 223.955 171.854 226.051 171.621 227.459C171.512 228.162 171.364 228.702 171.271 229.07C171.162 229.429 171.092 229.617 171.076 229.609C171.029 229.601 171.278 228.843 171.449 227.435C171.628 226.035 171.691 223.963 171.294 221.461C170.92 218.95 170.057 216.049 169.007 212.858C168.75 212.053 168.485 211.232 168.213 210.395C167.956 209.55 167.715 208.659 167.645 207.713C167.567 206.774 167.707 205.758 168.228 204.89C168.758 204.029 169.613 203.396 170.555 203.06C171.504 202.723 172.523 202.637 173.488 202.802C174.46 202.966 175.34 203.388 176.125 203.889C177.689 204.936 178.833 206.36 179.782 207.752C181.704 210.551 182.863 213.429 183.509 215.9C184.162 218.379 184.333 220.46 184.372 221.883C184.372 222.595 184.372 223.15 184.341 223.525C184.318 223.9 184.294 224.096 184.279 224.096L184.287 224.08Z" fill="#263238"/>
<path d="M171.022 209.331C170.905 209.386 170.376 208.401 169.598 207.29C168.828 206.172 168.088 205.335 168.182 205.249C168.26 205.163 169.162 205.875 169.971 207.032C170.78 208.19 171.138 209.284 171.029 209.331H171.022Z" fill="#263238"/>
<path d="M172.912 207.431C172.803 207.494 172.173 206.602 171.364 205.546C170.555 204.483 169.854 203.654 169.948 203.56C170.033 203.474 170.889 204.186 171.722 205.273C172.554 206.36 173.021 207.368 172.92 207.431H172.912Z" fill="#263238"/>
<path d="M175.169 206.821C175.037 206.837 174.827 205.859 174.267 204.78C173.722 203.693 173.069 202.942 173.154 202.848C173.224 202.755 174.08 203.412 174.663 204.577C175.255 205.734 175.278 206.821 175.161 206.821H175.169Z" fill="#263238"/>
<path d="M124.84 220.647C128.777 217.91 130.815 212.663 129.757 207.971C129.586 207.228 129.36 206.383 129.772 205.742C130.41 204.733 131.873 205.249 133.048 205.421C139.56 206.368 151.432 205.797 151.432 205.797C155.431 205.421 161.655 204.764 161.655 204.764C158.668 209.816 151.557 213.601 146.142 213.515C148.297 215.392 150.187 217.574 151.673 220.022C154.194 224.166 155.532 229.109 154.949 233.934C154.373 238.751 151.775 243.388 147.706 246.008C143.637 248.62 138.113 248.996 133.935 246.556" fill="#DF5B87"/>
<path d="M139.428 248.221C139.428 248.143 140.673 248.292 142.843 247.752C144.991 247.228 148.056 245.742 150.67 242.614C151.954 241.058 153.144 239.119 153.837 236.812C154.202 235.662 154.405 234.434 154.513 233.152C154.568 231.869 154.568 230.532 154.366 229.179C154.179 227.826 153.891 226.442 153.44 225.074C153.012 223.697 152.452 222.329 151.752 220.999C150.382 218.317 148.461 215.767 146.002 213.687L145.582 213.328L146.134 213.296C149.659 213.085 153.362 212.194 156.49 210.098C158.621 208.714 160.317 206.79 161.461 204.655L161.679 204.983C149.137 206.375 137.802 206.125 129.283 205.398L129.446 205.187C130.255 207.689 130.333 210.121 130.045 212.17C129.773 214.235 129.119 215.924 128.473 217.23C127.812 218.536 127.128 219.435 126.645 220.029C126.396 220.319 126.194 220.53 126.062 220.671C125.929 220.812 125.852 220.882 125.852 220.874C125.852 220.874 125.906 220.788 126.031 220.639C126.147 220.483 126.349 220.272 126.575 219.967C127.034 219.365 127.688 218.442 128.318 217.144C128.932 215.846 129.547 214.164 129.796 212.131C130.061 210.106 129.959 207.728 129.143 205.288L129.065 205.062L129.306 205.077C137.817 205.742 149.122 205.937 161.632 204.538L162.052 204.491L161.85 204.866C160.668 207.071 158.917 209.058 156.731 210.473C153.51 212.632 149.729 213.531 146.15 213.734L146.282 213.343C148.795 215.478 150.74 218.082 152.117 220.804C152.825 222.157 153.385 223.556 153.821 224.956C154.272 226.348 154.568 227.756 154.747 229.132C154.949 230.509 154.941 231.877 154.879 233.183C154.77 234.489 154.552 235.756 154.171 236.921C153.448 239.275 152.218 241.238 150.896 242.81C148.212 245.961 145.068 247.432 142.882 247.909C142.61 247.971 142.353 248.041 142.104 248.081C141.855 248.112 141.63 248.143 141.412 248.167C141.202 248.19 140.999 248.214 140.82 248.237C140.642 248.237 140.478 248.237 140.323 248.237C140.05 248.237 139.825 248.237 139.653 248.237C139.506 248.237 139.428 248.237 139.428 248.221Z" fill="#263238"/>
<path d="M154.024 209.073C154 208.94 155.447 208.768 156.747 207.634C158.069 206.532 158.482 205.124 158.606 205.171C158.661 205.187 158.637 205.554 158.412 206.109C158.194 206.665 157.735 207.376 157.035 207.971C156.334 208.565 155.556 208.901 154.981 209.026C154.397 209.159 154.031 209.12 154.024 209.066V209.073Z" fill="#263238"/>
<path d="M187.5 221.945C187.5 222 187.017 221.969 186.535 221.437C186.302 221.171 186.092 220.788 186.029 220.311C185.967 219.842 186.053 219.31 186.286 218.833C186.761 217.848 187.679 217.339 188.332 217.191C189.001 217.034 189.422 217.159 189.414 217.214C189.414 217.284 189.001 217.284 188.426 217.496C187.858 217.707 187.095 218.192 186.691 219.028C186.271 219.865 186.426 220.757 186.784 221.241C187.126 221.742 187.523 221.883 187.5 221.945Z" fill="#263238"/>
<path d="M191.103 239.588C191.033 239.572 191.227 238.524 191.414 236.812C191.601 235.099 191.749 232.73 191.601 230.11C191.445 227.49 191.033 225.144 190.652 223.47C190.27 221.797 189.951 220.772 190.021 220.749C190.053 220.741 190.161 220.984 190.333 221.437C190.512 221.891 190.729 222.555 190.955 223.392C191.422 225.066 191.889 227.427 192.044 230.078C192.192 232.73 191.998 235.138 191.725 236.851C191.593 237.711 191.453 238.399 191.328 238.868C191.212 239.338 191.126 239.596 191.095 239.588H191.103Z" fill="#263238"/>
<path d="M188.853 210.418C188.97 210.395 189.274 211.474 189.305 212.843C189.344 214.219 189.102 215.306 188.986 215.29C188.861 215.275 188.892 214.188 188.853 212.851C188.822 211.521 188.721 210.434 188.853 210.411V210.418Z" fill="#263238"/>
<g opacity="0.2">
<path d="M196.665 253.688C196.323 251.561 193.203 248.01 191.063 248.073C188.916 248.135 186.948 249.183 185.01 250.129C183.081 251.076 180.98 251.952 178.856 251.647C176.125 251.256 174.001 249.003 171.333 248.284C169.069 247.674 166.587 248.268 164.619 249.551C162.65 250.833 161.156 252.749 160.028 254.822C158.885 256.925 158.083 259.232 156.613 261.117C155.142 263.001 152.715 264.777 150.42 264.159C150.42 264.159 165.35 269.039 177.401 264.605C186.24 261.351 196.68 253.695 196.68 253.695L196.665 253.688Z" fill="white"/>
</g>
<g opacity="0.2">
<path d="M182.74 214.821C180.865 214.548 178.881 215.322 177.675 216.792C176.469 218.262 176.112 220.374 176.742 222.164C176.983 222.845 177.356 223.486 177.457 224.206C177.644 225.558 176.812 226.841 176.617 228.194C176.446 229.406 176.843 230.704 177.738 231.533C178.632 232.362 180.017 232.651 181.13 232.143C182.491 231.525 183.153 229.969 183.534 228.514C184.716 224.018 184.39 219.146 182.631 214.845" fill="white"/>
</g>
<g opacity="0.2">
<path d="M124.808 248.174C130.425 249.34 136.54 247.768 140.905 244.038C143.177 242.098 145.044 239.471 145.394 236.499C145.752 233.519 144.282 230.219 141.527 229.077C137.832 227.537 133.506 230.149 129.655 229.054C128.037 228.593 126.675 227.521 125.321 226.52C123.968 225.519 122.505 224.542 120.84 224.323C119.175 224.104 117.261 224.886 116.709 226.481L116.693 227.85C118.366 233.457 121.408 240.62 124.808 248.182V248.174Z" fill="white"/>
</g>
<g opacity="0.2">
<path d="M78.112 250.677C82.2433 251.388 86.0866 248.057 85.6743 243.858C85.6354 243.443 85.5576 243.052 85.4253 242.708C84.4217 239.971 82.0176 237.633 79.1312 237.296C77.4118 237.101 75.5913 237.586 73.9886 236.921C72.3081 236.225 71.3355 234.45 70.7443 232.722C70.153 230.993 69.7795 229.14 68.7136 227.654C67.6478 226.176 65.5783 225.191 63.9756 226.051C63.9756 226.051 58.7395 230.735 62.1317 238.524C64.8625 244.788 70.1063 249.293 78.1042 250.661L78.112 250.677Z" fill="white"/>
</g>
<path d="M184.824 173.601C184.824 173.601 184.746 173.781 184.567 174.094C184.357 174.445 184.085 174.899 183.742 175.454C183.392 176.049 182.941 176.76 182.357 177.55C181.782 178.348 181.167 179.286 180.373 180.232C179.984 180.717 179.58 181.218 179.16 181.742C178.732 182.266 178.249 182.774 177.767 183.314C176.818 184.416 175.698 185.495 174.538 186.645C172.158 188.882 169.38 191.173 166.26 193.284C163.117 195.372 159.951 197.062 156.979 198.422C155.477 199.056 154.061 199.681 152.684 200.135C151.999 200.369 151.346 200.628 150.7 200.823C150.054 201.011 149.44 201.191 148.848 201.37C147.674 201.746 146.577 201.957 145.627 202.184C144.678 202.418 143.846 202.567 143.169 202.661C142.531 202.762 142.01 202.841 141.605 202.903C141.247 202.95 141.061 202.974 141.053 202.958C141.053 202.942 141.232 202.895 141.59 202.817C141.986 202.731 142.5 202.63 143.138 202.497C143.815 202.371 144.632 202.199 145.573 201.941C146.514 201.691 147.604 201.464 148.763 201.065C149.346 200.886 149.961 200.69 150.599 200.495C151.237 200.291 151.883 200.025 152.56 199.783C153.921 199.314 155.329 198.68 156.815 198.039C159.756 196.671 162.899 194.981 166.011 192.909C169.108 190.805 171.87 188.537 174.25 186.34C175.41 185.206 176.53 184.143 177.487 183.056C177.969 182.516 178.459 182.023 178.887 181.507C179.315 180.991 179.72 180.498 180.117 180.021C180.926 179.091 181.548 178.176 182.139 177.394C182.739 176.619 183.205 175.923 183.587 175.345C183.952 174.805 184.248 174.375 184.481 174.031C184.691 173.734 184.808 173.577 184.816 173.585L184.824 173.601Z" fill="#263238"/>
<path d="M163.646 195.2C163.646 195.2 163.374 194.872 162.961 194.231C162.751 193.91 162.495 193.519 162.246 193.034C161.989 192.557 161.67 192.025 161.39 191.4C160.783 190.172 160.184 188.647 159.647 186.919C159.141 185.183 158.706 183.228 158.464 181.147C158.239 179.067 158.231 177.065 158.348 175.251C158.488 173.445 158.737 171.826 159.056 170.488C159.188 169.816 159.383 169.229 159.523 168.705C159.663 168.182 159.818 167.736 159.958 167.384C160.223 166.664 160.386 166.273 160.417 166.289C160.503 166.32 159.904 167.9 159.367 170.559C159.087 171.888 158.877 173.491 158.76 175.274C158.675 177.065 158.698 179.036 158.916 181.093C159.157 183.149 159.569 185.073 160.052 186.801C160.557 188.514 161.118 190.031 161.685 191.267C162.798 193.738 163.732 195.153 163.654 195.2H163.646Z" fill="#263238"/>
<path d="M171.279 188.491C171.279 188.491 171.037 188.256 170.664 187.779C170.283 187.302 169.8 186.575 169.256 185.636C168.703 184.698 168.143 183.525 167.622 182.187C167.124 180.842 166.673 179.317 166.369 177.683C166.082 176.041 165.965 174.461 165.957 173.022C165.973 171.583 166.089 170.285 166.276 169.214C166.455 168.142 166.657 167.282 166.844 166.703C167.023 166.125 167.132 165.812 167.163 165.82C167.249 165.843 166.867 167.126 166.587 169.261C166.439 170.324 166.362 171.599 166.369 173.022C166.4 174.438 166.525 175.994 166.805 177.605C167.108 179.216 167.536 180.709 168.003 182.047C168.493 183.376 169.015 184.541 169.528 185.488C170.532 187.38 171.341 188.451 171.271 188.498L171.279 188.491Z" fill="#263238"/>
<path d="M178.359 181.945C178.359 181.945 177.714 181.296 176.951 180.029C176.189 178.77 175.333 176.893 174.827 174.688C174.322 172.482 174.267 170.418 174.399 168.948C174.524 167.477 174.781 166.594 174.827 166.602C174.905 166.617 174.765 167.509 174.718 168.963C174.672 170.41 174.773 172.428 175.263 174.578C175.761 176.729 176.554 178.582 177.231 179.865C177.908 181.147 178.422 181.89 178.359 181.937V181.945Z" fill="#263238"/>
<path d="M192.278 179.615C192.278 179.615 192.2 179.802 192.021 180.146C191.811 180.522 191.539 181.014 191.196 181.624C190.846 182.266 190.395 183.048 189.811 183.916C189.236 184.792 188.621 185.808 187.827 186.856C187.438 187.388 187.034 187.943 186.614 188.53C186.186 189.108 185.704 189.671 185.221 190.281C184.272 191.509 183.152 192.713 181.985 194.012C179.596 196.537 176.803 199.157 173.652 201.636C170.478 204.092 167.257 206.156 164.23 207.853C162.698 208.659 161.251 209.456 159.835 210.074C159.134 210.395 158.465 210.723 157.804 210.997C157.143 211.263 156.505 211.521 155.89 211.763C154.684 212.28 153.548 212.624 152.56 212.96C151.58 213.312 150.716 213.554 150.008 213.742C149.339 213.922 148.795 214.063 148.375 214.172C148.001 214.266 147.807 214.305 147.799 214.289C147.799 214.274 147.986 214.203 148.351 214.078C148.764 213.945 149.293 213.773 149.954 213.562C150.654 213.351 151.502 213.085 152.475 212.71C153.447 212.35 154.575 211.982 155.766 211.451C156.373 211.2 157.003 210.934 157.656 210.661C158.31 210.387 158.971 210.043 159.671 209.722C161.072 209.097 162.503 208.291 164.028 207.478C167.023 205.765 170.221 203.701 173.38 201.269C176.515 198.805 179.293 196.201 181.689 193.714C182.848 192.432 183.984 191.243 184.933 190.031C185.416 189.437 185.914 188.874 186.341 188.303C186.769 187.732 187.182 187.184 187.571 186.661C188.38 185.628 189.01 184.627 189.601 183.767C190.2 182.915 190.675 182.156 191.048 181.523C191.414 180.928 191.71 180.459 191.943 180.092C192.153 179.763 192.27 179.599 192.285 179.607L192.278 179.615Z" fill="#263238"/>
<path d="M196.159 183.493C196.159 183.493 196.113 183.689 195.973 184.041C195.817 184.44 195.615 184.948 195.358 185.581C195.218 185.918 195.07 186.293 194.907 186.692C194.728 187.091 194.51 187.521 194.292 187.982C193.833 188.897 193.358 189.969 192.697 191.071C192.378 191.634 192.044 192.221 191.693 192.831C191.343 193.441 190.915 194.035 190.503 194.676C189.702 195.967 188.706 197.249 187.687 198.618C185.563 201.284 183.026 204.061 180.093 206.68C177.129 209.269 174.056 211.435 171.154 213.21C169.676 214.047 168.283 214.876 166.906 215.509C166.221 215.838 165.576 216.182 164.93 216.456C164.284 216.722 163.662 216.98 163.063 217.23C161.888 217.754 160.768 218.082 159.803 218.418C159.32 218.583 158.869 218.739 158.457 218.864C158.037 218.974 157.655 219.075 157.298 219.169C156.636 219.341 156.107 219.474 155.695 219.576C155.329 219.662 155.135 219.701 155.127 219.685C155.127 219.67 155.314 219.599 155.672 219.482C156.076 219.357 156.597 219.193 157.243 218.989C157.593 218.888 157.974 218.77 158.387 218.645C158.799 218.512 159.243 218.332 159.717 218.16C160.666 217.801 161.771 217.449 162.93 216.909C163.522 216.659 164.136 216.393 164.774 216.112C165.412 215.83 166.05 215.478 166.727 215.15C168.089 214.508 169.466 213.672 170.928 212.835C173.799 211.052 176.841 208.893 179.782 206.321C182.7 203.716 185.22 200.972 187.352 198.336C188.371 196.983 189.375 195.724 190.184 194.45C190.596 193.816 191.024 193.23 191.382 192.627C191.74 192.025 192.082 191.447 192.409 190.891C193.094 189.804 193.576 188.749 194.059 187.849C194.292 187.396 194.518 186.981 194.704 186.582C194.883 186.184 195.039 185.824 195.195 185.488C195.475 184.87 195.708 184.369 195.879 183.978C196.043 183.634 196.136 183.454 196.151 183.462L196.159 183.493Z" fill="#263238"/>
<path d="M160.263 188.53C160.231 188.592 159.243 188.147 157.617 187.513C155.991 186.872 153.719 186.074 151.152 185.409C148.577 184.745 146.204 184.346 144.477 184.127C142.749 183.9 141.668 183.814 141.676 183.744C141.676 183.712 141.948 183.697 142.438 183.705C142.928 183.705 143.636 183.744 144.516 183.814C146.266 183.963 148.67 184.315 151.269 184.979C153.867 185.652 156.147 186.512 157.75 187.232C158.551 187.591 159.189 187.904 159.617 188.139C160.045 188.373 160.278 188.514 160.263 188.545V188.53Z" fill="#263238"/>
<path d="M159.446 178.833C159.383 178.958 156.847 177.62 153.494 176.604C150.141 175.564 147.301 175.243 147.316 175.102C147.316 175.048 148.04 175.055 149.191 175.196C150.343 175.345 151.922 175.65 153.626 176.166C155.322 176.69 156.8 177.323 157.843 177.855C158.878 178.379 159.477 178.778 159.453 178.833H159.446Z" fill="#263238"/>
<path d="M156.894 197.288C156.863 197.351 155.961 196.968 154.483 196.42C153.004 195.873 150.927 195.185 148.585 194.622C146.243 194.066 144.081 193.746 142.509 193.574C140.937 193.394 139.957 193.331 139.965 193.261C139.965 193.206 140.953 193.159 142.54 193.253C144.127 193.347 146.321 193.621 148.686 194.184C151.052 194.747 153.137 195.49 154.599 196.123C156.062 196.757 156.926 197.241 156.894 197.288Z" fill="#263238"/>
<path d="M125.299 194.129C125.299 194.082 125.921 194.098 126.995 193.808C128.053 193.519 129.547 192.831 131.002 191.478C132.495 190.164 133.834 188.185 135.024 185.832C136.245 183.501 137.358 180.756 139.179 178.254C140.96 175.728 143.123 173.687 145.27 172.115C147.433 170.559 149.588 169.464 151.463 168.744C153.338 168.025 154.933 167.657 156.03 167.454C156.583 167.352 157.018 167.313 157.306 167.274C157.602 167.243 157.757 167.235 157.757 167.251C157.757 167.29 157.151 167.399 156.061 167.626C154.98 167.876 153.416 168.291 151.572 169.034C149.736 169.784 147.628 170.895 145.504 172.443C143.403 174.015 141.287 176.025 139.536 178.512C137.747 180.967 136.634 183.673 135.382 186.019C134.16 188.381 132.76 190.399 131.204 191.712C129.679 193.065 128.123 193.722 127.026 193.972C126.474 194.098 126.038 194.137 125.742 194.144C125.447 194.144 125.291 194.144 125.291 194.129H125.299Z" fill="#455A64"/>
<path d="M181.401 189.257C181.346 189.187 182.786 188.209 184.629 186.137C186.466 184.088 188.636 180.819 189.725 176.721C189.998 175.712 190.138 174.688 190.099 173.718C190.068 172.749 189.795 171.818 189.282 171.114C188.768 170.402 188.014 169.972 187.259 169.769C186.497 169.566 185.742 169.566 185.073 169.66C183.727 169.871 182.708 170.379 182 170.692C181.3 171.02 180.911 171.208 180.895 171.177C180.879 171.153 181.245 170.919 181.922 170.535C182.607 170.176 183.618 169.613 185.018 169.347C185.719 169.222 186.52 169.206 187.345 169.401C188.162 169.597 189.025 170.074 189.609 170.864C190.2 171.646 190.496 172.663 190.535 173.695C190.581 174.727 190.433 175.791 190.153 176.838C189.041 181.022 186.785 184.33 184.863 186.348C183.898 187.364 183.035 188.107 182.412 188.577C181.79 189.046 181.416 189.273 181.401 189.249V189.257Z" fill="#455A64"/>
</g>
<defs>
<clipPath id="clip0_639_900">
<rect width="319" height="309" fill="white"/>
</clipPath>
</defs>
</svg>
