<svg width="17" height="16" viewBox="0 0 17 16" fill="none" xmlns="http://www.w3.org/2000/svg">
<g clip-path="url(#clip0_48_21)">
<path d="M15.2586 8.27102C16.0336 8.28702 16.6666 9.21902 16.6666 10.344C16.6666 11.47 16.0336 12.417 15.2586 12.433H11.0527C11.5786 12.118 11.8374 11.489 12.1031 10.754H15.2384C15.4033 10.754 15.5376 10.579 15.5376 10.342C15.5376 10.2857 15.5298 10.2299 15.5148 10.1779C15.4997 10.1259 15.4776 10.0787 15.4498 10.039C15.422 9.99933 15.389 9.96794 15.3528 9.94666C15.3165 9.92538 15.2776 9.91463 15.2384 9.91502H13.7769C13.3972 9.91291 13.0335 9.69445 12.7657 9.30755C12.4978 8.92065 12.3476 8.39686 12.348 7.85102C12.348 6.71602 12.9887 5.78802 13.7762 5.78802H16.0329V7.39702H13.7769C13.6963 7.40068 13.6199 7.44947 13.564 7.53299C13.5081 7.61651 13.4772 7.72814 13.4777 7.84402C13.4777 8.08102 13.6113 8.27102 13.7769 8.27102H15.2586ZM9.57653 5.78802C10.8329 5.78802 11.8499 7.27002 11.8499 9.09802C11.8499 10.925 10.8308 12.433 9.57444 12.433H8.43427V16H7.29688V9.10302C7.29688 7.27602 8.32018 5.78802 9.57653 5.78802ZM9.57653 10.754C10.2089 10.754 10.723 10.024 10.723 9.09802C10.723 8.17202 10.2089 7.41803 9.57653 7.41803C8.94418 7.41803 8.43427 8.17202 8.43427 9.09802V10.754H9.57653Z" fill="#DFDFDF"/>
<path d="M3.69607 12.433H6.70268C6.66605 12.7276 6.55838 12.9942 6.3986 13.1861C6.23881 13.3779 6.03712 13.4827 5.82894 13.482H1.55416C1.06581 13.482 0.666504 12.887 0.666504 12.182V6.004C0.666504 5.3 1.06581 4.74 1.55416 4.74H5.82894C6.31659 4.74 6.71659 5.317 6.71659 6.023L6.71242 10.755H3.69607C3.23416 10.755 2.83346 10.44 2.6352 9.881H5.99033V9.078C5.98923 8.20167 5.74671 7.36164 5.31584 6.7417C4.88497 6.12176 4.30082 5.77238 3.6912 5.77C3.17836 5.77281 2.68092 6.02224 2.27812 6.47857C1.87533 6.9349 1.59035 7.57186 1.46859 8.288C1.46859 8.288 1.40111 8.771 1.40111 9.086C1.40111 9.401 1.47207 9.879 1.47207 9.879C1.71694 11.326 2.62059 12.434 3.69607 12.434V12.433ZM3.6912 7.339C4.15172 7.339 4.55172 7.746 4.75068 8.271H2.63172C2.83068 7.746 3.23137 7.339 3.6912 7.339ZM5.6272 2.729V3.494C5.6272 3.593 5.56737 3.69 5.49781 3.69H4.78546C4.7159 3.69 4.65955 3.593 4.65955 3.494V2.73C4.65955 1.977 4.22546 1.364 3.6912 1.364C3.15763 1.364 2.72355 1.977 2.72355 2.73V3.494C2.72355 3.593 2.66233 3.69 2.59276 3.69H1.88042C1.81085 3.69 1.7552 3.593 1.7552 3.494V2.655C1.78372 1.182 2.63937 0 3.6919 0C4.76042 0 5.6265 1.222 5.6265 2.73L5.6272 2.729Z" fill="#DFDFDF"/>
</g>
<defs>
<clipPath id="clip0_48_21">
<rect width="16" height="16" fill="white" transform="translate(0.666504)"/>
</clipPath>
</defs>
</svg>
