<svg width="17" height="17" viewBox="0 0 17 17" fill="none" xmlns="http://www.w3.org/2000/svg">
<mask id="mask0_241_11245" style="mask-type:alpha" maskUnits="userSpaceOnUse" x="0" y="0" width="17" height="17">
<rect width="17" height="17" fill="#D9D9D9"/>
</mask>
<g mask="url(#mask0_241_11245)">
<path d="M8.50033 12.0417C8.70102 12.0417 8.86925 11.9739 9.00501 11.8381C9.14078 11.7023 9.20866 11.5341 9.20866 11.3334C9.20866 11.1327 9.14078 10.9645 9.00501 10.8287C8.86925 10.693 8.70102 10.6251 8.50033 10.6251C8.29963 10.6251 8.1314 10.693 7.99564 10.8287C7.85987 10.9645 7.79199 11.1327 7.79199 11.3334C7.79199 11.5341 7.85987 11.7023 7.99564 11.8381C8.1314 11.9739 8.29963 12.0417 8.50033 12.0417ZM7.79199 9.20842H9.20866V4.95842H7.79199V9.20842ZM8.50033 15.5834C7.52046 15.5834 6.59963 15.3975 5.73783 15.0256C4.87602 14.6537 4.12637 14.149 3.48887 13.5115C2.85137 12.874 2.34668 12.1244 1.9748 11.2626C1.60293 10.4008 1.41699 9.47994 1.41699 8.50008C1.41699 7.52022 1.60293 6.59939 1.9748 5.73758C2.34668 4.87578 2.85137 4.12612 3.48887 3.48862C4.12637 2.85112 4.87602 2.34644 5.73783 1.97456C6.59963 1.60269 7.52046 1.41675 8.50033 1.41675C9.48019 1.41675 10.401 1.60269 11.2628 1.97456C12.1246 2.34644 12.8743 2.85112 13.5118 3.48862C14.1493 4.12612 14.654 4.87578 15.0258 5.73758C15.3977 6.59939 15.5837 7.52022 15.5837 8.50008C15.5837 9.47994 15.3977 10.4008 15.0258 11.2626C14.654 12.1244 14.1493 12.874 13.5118 13.5115C12.8743 14.149 12.1246 14.6537 11.2628 15.0256C10.401 15.3975 9.48019 15.5834 8.50033 15.5834ZM8.50033 14.1667C10.0823 14.1667 11.4222 13.6178 12.5201 12.5199C13.618 11.422 14.167 10.082 14.167 8.50008C14.167 6.91814 13.618 5.57821 12.5201 4.48029C11.4222 3.38237 10.0823 2.83341 8.50033 2.83341C6.91838 2.83341 5.57845 3.38237 4.48053 4.48029C3.38262 5.57821 2.83366 6.91814 2.83366 8.50008C2.83366 10.082 3.38262 11.422 4.48053 12.5199C5.57845 13.6178 6.91838 14.1667 8.50033 14.1667Z" fill="#FF2D2D"/>
</g>
</svg>
