<svg width="17" height="16" viewBox="0 0 17 16" fill="none" xmlns="http://www.w3.org/2000/svg">
<g clip-path="url(#clip0_48_26)">
<path d="M0.333496 3.512C0.333496 2.125 1.15968 1 2.17713 1H14.4899C15.5073 1 16.3335 2.125 16.3335 3.512V12.488C16.3324 12.8194 16.2839 13.1473 16.1907 13.4529C16.0975 13.7585 15.9614 14.0359 15.7902 14.2692C15.6189 14.5024 15.416 14.6871 15.1929 14.8125C14.9698 14.9378 14.7309 15.0016 14.4899 15H2.17713C1.15895 15 0.333496 13.875 0.333496 12.488V3.512ZM1.06077 12.472C1.06077 13.352 1.53568 14 2.18004 14H8.32259V2H2.18004C1.53568 2 1.06077 2.647 1.06077 3.528V12.472ZM10.1793 12.375H11.6942V9.042H11.711C11.9975 9.772 12.5706 10.043 13.1 10.043C14.4048 10.043 15.1022 8.536 15.1022 6.723C15.1022 5.239 14.4382 3.625 13.2259 3.625C12.5357 3.625 11.8971 4.015 11.5931 4.874H11.5757V3.768H10.1793V12.375ZM13.5371 6.77C13.5371 7.747 13.1924 8.419 12.62 8.419C12.1153 8.419 11.6942 7.747 11.6942 6.852C11.6942 5.934 12.0637 5.25 12.62 5.25C13.2099 5.25 13.5379 5.958 13.5379 6.77H13.5371Z" fill="#DFDFDF"/>
<path d="M7.10236 3.765V9.095C7.10236 11.575 6.21581 12.375 4.42381 12.375C3.84649 12.3773 3.27288 12.2478 2.72636 11.992L2.80345 10.346C3.27181 10.659 3.66454 10.844 4.30527 10.844C5.19181 10.844 5.66963 10.277 5.66963 9.094V8.77H5.65218C5.28563 9.477 4.77363 9.802 4.15836 9.802C2.93945 9.802 2.18018 8.551 2.18018 6.766C2.18018 4.97 2.80345 3.625 4.18454 3.625C4.84127 3.625 5.36999 4.112 5.69581 4.855H5.71181V3.765H7.10236ZM3.76636 6.732C3.76636 7.67 4.17654 8.202 4.6369 8.202C5.18236 8.202 5.61872 7.577 5.61872 6.65C5.61872 5.978 5.32781 5.225 4.6369 5.225C4.06527 5.225 3.76636 5.909 3.76636 6.732Z" fill="#DFDFDF"/>
</g>
<defs>
<clipPath id="clip0_48_26">
<rect width="16" height="16" fill="white" transform="translate(0.333496)"/>
</clipPath>
</defs>
</svg>
