<svg xmlns="http://www.w3.org/2000/svg" width="65" height="15" viewBox="0 0 65 15" fill="none">
  <path d="M8.81705 10.8776C8.33891 11.284 7.80578 11.5972 7.21766 11.8171C6.62955 12.0323 6.01753 12.1399 5.3816 12.1399C4.89389 12.1399 4.42292 12.0753 3.96869 11.9462C3.51923 11.8219 3.09847 11.645 2.70639 11.4155C2.31431 11.1812 1.95571 10.9039 1.63057 10.5835C1.30543 10.2584 1.02811 9.89976 0.798604 9.50768C0.569096 9.11083 0.389793 8.68528 0.260694 8.23104C0.136377 7.77681 0.0742188 7.30584 0.0742188 6.81813C0.0742188 6.33043 0.136377 5.86185 0.260694 5.4124C0.389793 4.96294 0.569096 4.54218 0.798604 4.1501C1.02811 3.75324 1.30543 3.39464 1.63057 3.07428C1.95571 2.74915 2.31431 2.47182 2.70639 2.24232C3.09847 2.01281 3.51923 1.83589 3.96869 1.71158C4.42292 1.58248 4.89389 1.51793 5.3816 1.51793C6.01753 1.51793 6.62955 1.6279 7.21766 1.84785C7.80578 2.06301 8.33891 2.3738 8.81705 2.78023L7.74123 4.57326C7.43043 4.25768 7.07183 4.01144 6.66541 3.83453C6.25899 3.65283 5.83105 3.56199 5.3816 3.56199C4.93214 3.56199 4.50899 3.64805 4.11213 3.82018C3.72005 3.99232 3.37579 4.2266 3.07934 4.52305C2.78289 4.81472 2.5486 5.15898 2.37647 5.55584C2.20434 5.94792 2.11828 6.36868 2.11828 6.81813C2.11828 7.27237 2.20434 7.69792 2.37647 8.09477C2.5486 8.49163 2.78289 8.83828 3.07934 9.13473C3.37579 9.43118 3.72005 9.66547 4.11213 9.8376C4.50899 10.0097 4.93214 10.0958 5.3816 10.0958C5.63979 10.0958 5.89082 10.0647 6.13467 10.0026C6.37852 9.9404 6.61042 9.85434 6.83037 9.74436V6.81813H8.81705V10.8776Z" fill="#A71B4A"/>
  <path d="M11.6397 11.9175H9.68172V4.23617H10.1551L10.8006 5.14703C11.1161 4.86014 11.4748 4.6402 11.8764 4.48719C12.278 4.32941 12.694 4.25051 13.1243 4.25051H14.8528V6.20133H13.1243C12.9187 6.20133 12.7251 6.23958 12.5434 6.31609C12.3617 6.39259 12.2039 6.49778 12.07 6.63166C11.9362 6.76554 11.831 6.92333 11.7545 7.10502C11.678 7.28671 11.6397 7.48036 11.6397 7.68596V11.9175Z" fill="#A71B4A"/>
  <path d="M18.2349 10.0384C18.3114 10.0623 18.3879 10.0791 18.4644 10.0886C18.5409 10.0934 18.6174 10.0958 18.6939 10.0958C18.8852 10.0958 19.0693 10.0695 19.2462 10.0169C19.4231 9.96431 19.5881 9.8902 19.7411 9.79457C19.8988 9.69416 20.0375 9.57462 20.157 9.43596C20.2814 9.29252 20.3818 9.13473 20.4583 8.9626L21.8927 10.4042C21.711 10.6624 21.5006 10.8943 21.2616 11.0999C21.0273 11.3055 20.7715 11.48 20.4941 11.6235C20.2216 11.7669 19.9323 11.8745 19.6263 11.9462C19.3251 12.0227 19.0143 12.061 18.6939 12.061C18.1536 12.061 17.6444 11.9606 17.1663 11.7597C16.6929 11.5589 16.2769 11.2792 15.9183 10.9206C15.5645 10.562 15.2848 10.1364 15.0792 9.64395C14.8736 9.14669 14.7708 8.6016 14.7708 8.00871C14.7708 7.40147 14.8736 6.84682 15.0792 6.34477C15.2848 5.84273 15.5645 5.41479 15.9183 5.06096C16.2769 4.70714 16.6929 4.43221 17.1663 4.23617C17.6444 4.04013 18.1536 3.94211 18.6939 3.94211C19.0143 3.94211 19.3275 3.98036 19.6335 4.05686C19.9395 4.13337 20.2288 4.24334 20.5013 4.38678C20.7786 4.53023 21.0368 4.70714 21.2759 4.91752C21.515 5.12312 21.7254 5.35502 21.907 5.61322L18.2349 10.0384ZM19.239 6.00051C19.1482 5.96704 19.0573 5.94553 18.9665 5.93596C18.8804 5.9264 18.7896 5.92162 18.6939 5.92162C18.4262 5.92162 18.1728 5.97182 17.9337 6.07223C17.6994 6.16786 17.4938 6.30652 17.3169 6.48822C17.1448 6.66991 17.0085 6.88986 16.9081 7.14805C16.8077 7.40147 16.7575 7.68835 16.7575 8.00871C16.7575 8.08043 16.7598 8.16171 16.7646 8.25256C16.7742 8.34341 16.7861 8.43665 16.8005 8.53227C16.8196 8.62312 16.8411 8.71158 16.865 8.79764C16.8889 8.88371 16.92 8.96021 16.9583 9.02715L19.239 6.00051Z" fill="#A71B4A"/>
  <path d="M25.4541 10.0384C25.5306 10.0623 25.6071 10.0791 25.6836 10.0886C25.7601 10.0934 25.8366 10.0958 25.9131 10.0958C26.1044 10.0958 26.2885 10.0695 26.4654 10.0169C26.6423 9.96431 26.8072 9.8902 26.9602 9.79457C27.118 9.69416 27.2567 9.57462 27.3762 9.43596C27.5005 9.29252 27.601 9.13473 27.6775 8.9626L29.1119 10.4042C28.9302 10.6624 28.7198 10.8943 28.4807 11.0999C28.2464 11.3055 27.9906 11.48 27.7133 11.6235C27.4408 11.7669 27.1515 11.8745 26.8455 11.9462C26.5443 12.0227 26.2335 12.061 25.9131 12.061C25.3728 12.061 24.8636 11.9606 24.3855 11.7597C23.9121 11.5589 23.4961 11.2792 23.1375 10.9206C22.7837 10.562 22.504 10.1364 22.2984 9.64395C22.0928 9.14669 21.99 8.6016 21.99 8.00871C21.99 7.40147 22.0928 6.84682 22.2984 6.34477C22.504 5.84273 22.7837 5.41479 23.1375 5.06096C23.4961 4.70714 23.9121 4.43221 24.3855 4.23617C24.8636 4.04013 25.3728 3.94211 25.9131 3.94211C26.2335 3.94211 26.5467 3.98036 26.8527 4.05686C27.1587 4.13337 27.448 4.24334 27.7205 4.38678C27.9978 4.53023 28.256 4.70714 28.4951 4.91752C28.7342 5.12312 28.9445 5.35502 29.1262 5.61322L25.4541 10.0384ZM26.4582 6.00051C26.3673 5.96704 26.2765 5.94553 26.1857 5.93596C26.0996 5.9264 26.0087 5.92162 25.9131 5.92162C25.6454 5.92162 25.3919 5.97182 25.1529 6.07223C24.9186 6.16786 24.713 6.30652 24.5361 6.48822C24.3639 6.66991 24.2277 6.88986 24.1273 7.14805C24.0268 7.40147 23.9766 7.68835 23.9766 8.00871C23.9766 8.08043 23.979 8.16171 23.9838 8.25256C23.9934 8.34341 24.0053 8.43665 24.0197 8.53227C24.0388 8.62312 24.0603 8.71158 24.0842 8.79764C24.1081 8.88371 24.1392 8.96021 24.1775 9.02715L26.4582 6.00051Z" fill="#A71B4A"/>
  <path d="M31.6333 11.9175H29.6753V4.23617H30.1487L30.7942 4.98207C31.1098 4.69518 31.466 4.47524 31.8628 4.32223C32.2645 4.16445 32.6828 4.08555 33.1179 4.08555C33.5865 4.08555 34.0288 4.1764 34.4448 4.35809C34.8608 4.53501 35.2242 4.78125 35.535 5.09682C35.8457 5.40762 36.0896 5.77339 36.2665 6.19416C36.4482 6.61014 36.5391 7.05482 36.5391 7.52818V11.9175H34.5811V7.52818C34.5811 7.32736 34.5428 7.13849 34.4663 6.96158C34.3898 6.77988 34.2846 6.6221 34.1507 6.48822C34.0169 6.35434 33.8615 6.24915 33.6845 6.17264C33.5076 6.09614 33.3188 6.05789 33.1179 6.05789C32.9123 6.05789 32.7187 6.09614 32.537 6.17264C32.3553 6.24915 32.1975 6.35434 32.0636 6.48822C31.9298 6.6221 31.8246 6.77988 31.7481 6.96158C31.6716 7.13849 31.6333 7.32736 31.6333 7.52818V11.9175Z" fill="#A71B4A"/>
  <path d="M37.1025 4.7167C37.1025 4.29115 37.1838 3.89191 37.3464 3.51895C37.5089 3.146 37.7289 2.82087 38.0062 2.54355C38.2883 2.26144 38.6158 2.03911 38.9888 1.87654C39.3617 1.71397 39.761 1.63268 40.1865 1.63268H44.9058V3.69109H40.1865C40.0431 3.69109 39.9092 3.71738 39.7849 3.76998C39.6606 3.82258 39.5506 3.89669 39.455 3.99232C39.3641 4.08316 39.2924 4.19074 39.2398 4.31506C39.1872 4.43938 39.1609 4.57326 39.1609 4.7167C39.1609 4.86014 39.1872 4.99641 39.2398 5.12551C39.2924 5.24983 39.3641 5.3598 39.455 5.45543C39.5506 5.54628 39.6606 5.618 39.7849 5.67059C39.9092 5.72319 40.0431 5.74949 40.1865 5.74949H42.2449C42.6705 5.74949 43.0697 5.83077 43.4427 5.99334C43.8204 6.15113 44.1479 6.37107 44.4252 6.65318C44.7073 6.9305 44.9273 7.25803 45.0851 7.63576C45.2477 8.00871 45.3289 8.40796 45.3289 8.8335C45.3289 9.25905 45.2477 9.6583 45.0851 10.0312C44.9273 10.4042 44.7073 10.7317 44.4252 11.0138C44.1479 11.2912 43.8204 11.5111 43.4427 11.6737C43.0697 11.8362 42.6705 11.9175 42.2449 11.9175H37.6763V9.85912H42.2449C42.3884 9.85912 42.5222 9.83282 42.6466 9.78022C42.7709 9.72763 42.8785 9.65591 42.9693 9.56506C43.0649 9.46943 43.139 9.35946 43.1916 9.23514C43.2442 9.11083 43.2705 8.97695 43.2705 8.8335C43.2705 8.69006 43.2442 8.55618 43.1916 8.43186C43.139 8.30755 43.0649 8.19997 42.9693 8.10912C42.8785 8.01349 42.7709 7.93938 42.6466 7.88678C42.5222 7.83419 42.3884 7.80789 42.2449 7.80789H40.1865C39.761 7.80789 39.3617 7.7266 38.9888 7.56404C38.6158 7.40147 38.2883 7.18152 38.0062 6.9042C37.7289 6.6221 37.5089 6.29457 37.3464 5.92162C37.1838 5.54389 37.1025 5.14225 37.1025 4.7167Z" fill="#A71B4A"/>
  <path d="M47.9364 14.8437H45.9641V4.23617H46.4375L47.2192 5.16137C47.3961 4.99402 47.5898 4.83624 47.8002 4.68801C48.0105 4.53979 48.2281 4.41308 48.4528 4.30789C48.6823 4.19792 48.919 4.11185 49.1629 4.04969C49.4067 3.98753 49.653 3.95645 49.9016 3.95645C50.4419 3.95645 50.9487 4.05447 51.4221 4.25051C51.9002 4.44177 52.3162 4.71431 52.67 5.06814C53.0286 5.42196 53.3108 5.8499 53.5164 6.35195C53.722 6.84921 53.8248 7.40147 53.8248 8.00871C53.8248 8.63986 53.722 9.20885 53.5164 9.71568C53.3108 10.2177 53.0286 10.6457 52.67 10.9995C52.3162 11.3485 51.9002 11.6163 51.4221 11.8028C50.9487 11.9892 50.4419 12.0825 49.9016 12.0825C49.7295 12.0825 49.5573 12.0634 49.3852 12.0251C49.2179 11.9869 49.0505 11.9366 48.8832 11.8745C48.7206 11.8075 48.558 11.7334 48.3955 11.6522C48.2377 11.5709 48.0847 11.4872 47.9364 11.4011V14.8437ZM51.8596 8.00871C51.8596 7.68357 51.807 7.39191 51.7018 7.13371C51.6014 6.87551 51.4627 6.65796 51.2858 6.48104C51.1089 6.29935 50.9009 6.16069 50.6618 6.06506C50.4228 5.96943 50.1694 5.92162 49.9016 5.92162C49.6338 5.92162 49.3804 5.96943 49.1414 6.06506C48.9071 6.16069 48.7015 6.29935 48.5246 6.48104C48.3476 6.65796 48.2066 6.87551 48.1014 7.13371C48.001 7.39191 47.9508 7.68357 47.9508 8.00871C47.9508 8.3195 48.001 8.604 48.1014 8.86219C48.2066 9.12039 48.3476 9.34033 48.5246 9.52203C48.7015 9.70372 48.9071 9.84477 49.1414 9.94518C49.3804 10.0456 49.6338 10.0958 49.9016 10.0958C50.1694 10.0958 50.4228 10.0456 50.6618 9.94518C50.9009 9.84477 51.1089 9.70372 51.2858 9.52203C51.4627 9.34033 51.6014 9.12039 51.7018 8.86219C51.807 8.604 51.8596 8.3195 51.8596 8.00871Z" fill="#A71B4A"/>
  <path d="M56.7837 2.14908C56.7837 2.33077 56.7478 2.50051 56.6761 2.6583C56.6092 2.81609 56.5159 2.95475 56.3964 3.07428C56.2769 3.18904 56.1358 3.28227 55.9732 3.354C55.8155 3.42094 55.6457 3.45441 55.464 3.45441C55.2823 3.45441 55.1102 3.42094 54.9476 3.354C54.7898 3.28227 54.6512 3.18904 54.5316 3.07428C54.4169 2.95475 54.3237 2.81609 54.2519 2.6583C54.185 2.50051 54.1515 2.33077 54.1515 2.14908C54.1515 1.97217 54.185 1.80482 54.2519 1.64703C54.3237 1.48446 54.4169 1.3458 54.5316 1.23105C54.6512 1.11151 54.7898 1.01827 54.9476 0.951332C55.1102 0.879611 55.2823 0.84375 55.464 0.84375C55.6457 0.84375 55.8155 0.879611 55.9732 0.951332C56.1358 1.01827 56.2769 1.11151 56.3964 1.23105C56.5159 1.3458 56.6092 1.48446 56.6761 1.64703C56.7478 1.80482 56.7837 1.97217 56.7837 2.14908ZM56.4466 11.9175H54.4743V4.23617H56.4466V11.9175Z" fill="#A71B4A"/>
  <path d="M59.4629 11.9175H57.5049V4.23617H57.9783L58.6238 4.98207C58.9393 4.69518 59.2956 4.47524 59.6924 4.32223C60.0941 4.16445 60.5124 4.08555 60.9475 4.08555C61.4161 4.08555 61.8584 4.1764 62.2744 4.35809C62.6904 4.53501 63.0538 4.78125 63.3645 5.09682C63.6753 5.40762 63.9192 5.77339 64.0961 6.19416C64.2778 6.61014 64.3686 7.05482 64.3686 7.52818V11.9175H62.4107V7.52818C62.4107 7.32736 62.3724 7.13849 62.2959 6.96158C62.2194 6.77988 62.1142 6.6221 61.9803 6.48822C61.8464 6.35434 61.6911 6.24915 61.5141 6.17264C61.3372 6.09614 61.1484 6.05789 60.9475 6.05789C60.7419 6.05789 60.5483 6.09614 60.3666 6.17264C60.1849 6.24915 60.0271 6.35434 59.8932 6.48822C59.7594 6.6221 59.6542 6.77988 59.5777 6.96158C59.5012 7.13849 59.4629 7.32736 59.4629 7.52818V11.9175Z" fill="#A71B4A"/>
</svg>