<svg width="24" height="24" viewBox="0 0 24 24" fill="none" xmlns="http://www.w3.org/2000/svg">
<g id="Your_Icons">
<path id="Vector" d="M5.09063 17.835C5.58244 17.835 6.05411 17.6396 6.40187 17.2919C6.74963 16.9441 6.945 16.4724 6.945 15.9806V11.0356C6.9451 10.5502 6.75483 10.084 6.41505 9.73733C6.07526 9.39061 5.61307 9.19096 5.12772 9.18125C5.27971 7.82178 5.92727 6.56596 6.94666 5.65375C7.96605 4.74155 9.2858 4.23691 10.6538 4.23626H13.1262C14.4942 4.23691 15.814 4.74155 16.8333 5.65375C17.8527 6.56596 18.5003 7.82178 18.6523 9.18125C18.1669 9.19096 17.7047 9.39061 17.365 9.73733C17.0252 10.084 16.8349 10.5502 16.835 11.0356V15.9806C16.8341 16.4538 17.0142 16.9093 17.3382 17.254C17.6623 17.5988 18.1058 17.8066 18.5781 17.835C18.4506 18.1957 18.2146 18.5081 17.9025 18.7295C17.5905 18.9508 17.2176 19.0702 16.835 19.0713H14.2512C14.1054 18.6588 13.8185 18.3112 13.4412 18.0899C13.0639 17.8686 12.6205 17.7877 12.1893 17.8617C11.7582 17.9357 11.3671 18.1597 11.0851 18.4941C10.8032 18.8286 10.6485 19.2519 10.6485 19.6894C10.6485 20.1268 10.8032 20.5502 11.0851 20.8846C11.3671 21.2191 11.7582 21.4431 12.1893 21.517C12.6205 21.591 13.0639 21.5102 13.4412 21.2889C13.8185 21.0675 14.1054 20.7199 14.2512 20.3075H16.835C17.587 20.3041 18.3119 20.0266 18.874 19.5271C19.4361 19.0276 19.7968 18.3403 19.8885 17.5939C20.4493 17.3579 20.9279 16.9615 21.2644 16.4546C21.6008 15.9477 21.7802 15.3528 21.78 14.7444V12.2719C21.7809 11.6697 21.6059 11.0804 21.2764 10.5764C20.947 10.0724 20.4775 9.67554 19.9256 9.43469C19.8322 7.69533 19.0748 6.05816 17.8097 4.86087C16.5445 3.66359 14.8681 2.9975 13.1262 3.00001H10.6538C8.91189 2.9975 7.23549 3.66359 5.97035 4.86087C4.7052 6.05816 3.9478 7.69533 3.85438 9.43469C3.3025 9.67554 2.833 10.0724 2.50357 10.5764C2.17413 11.0804 1.99911 11.6697 2 12.2719V14.7444C2 15.5641 2.32562 16.3502 2.90523 16.9298C3.48483 17.5094 4.27094 17.835 5.09063 17.835ZM12.5081 20.3075C12.3859 20.3075 12.2664 20.2712 12.1647 20.2033C12.0631 20.1354 11.9838 20.0389 11.9371 19.9259C11.8903 19.813 11.878 19.6887 11.9019 19.5688C11.9257 19.4489 11.9846 19.3387 12.071 19.2523C12.1575 19.1658 12.2676 19.107 12.3875 19.0831C12.5074 19.0593 12.6317 19.0715 12.7447 19.1183C12.8576 19.1651 12.9542 19.2443 13.0221 19.346C13.09 19.4476 13.1262 19.5671 13.1262 19.6894C13.1262 19.8533 13.0611 20.0105 12.9452 20.1265C12.8293 20.2424 12.6721 20.3075 12.5081 20.3075ZM20.5437 12.2719V14.7444C20.5437 15.2362 20.3484 15.7079 20.0006 16.0556C19.6528 16.4034 19.1812 16.5988 18.6894 16.5988C18.5254 16.5988 18.3682 16.5336 18.2523 16.4177C18.1364 16.3018 18.0712 16.1446 18.0712 15.9806V11.0356C18.0712 10.8717 18.1364 10.7145 18.2523 10.5985C18.3682 10.4826 18.5254 10.4175 18.6894 10.4175C19.1812 10.4175 19.6528 10.6129 20.0006 10.9606C20.3484 11.3084 20.5437 11.7801 20.5437 12.2719ZM3.23625 12.2719C3.23625 11.7801 3.43162 11.3084 3.77939 10.9606C4.12715 10.6129 4.59882 10.4175 5.09063 10.4175C5.25456 10.4175 5.41179 10.4826 5.52771 10.5985C5.64363 10.7145 5.70875 10.8717 5.70875 11.0356V15.9806C5.70875 16.1446 5.64363 16.3018 5.52771 16.4177C5.41179 16.5336 5.25456 16.5988 5.09063 16.5988C4.59882 16.5988 4.12715 16.4034 3.77939 16.0556C3.43162 15.7079 3.23625 15.2362 3.23625 14.7444V12.2719Z" fill="#A71B4A"/>
</g>
</svg>
