<svg width="30" height="30" viewBox="0 0 30 30" fill="none" xmlns="http://www.w3.org/2000/svg">
<circle opacity="0.1" cx="15" cy="15" r="15" fill="#A71B4A"/>
<path fill-rule="evenodd" clip-rule="evenodd" d="M14.9997 8.33325C12.4197 8.33325 10.333 10.4199 10.333 12.9999C10.333 15.7799 13.2797 19.6133 14.493 21.0733C14.7597 21.3933 15.2463 21.3933 15.513 21.0733C16.7197 19.6133 19.6663 15.7799 19.6663 12.9999C19.6663 10.4199 17.5797 8.33325 14.9997 8.33325ZM11.6663 12.9999C11.6663 11.1599 13.1597 9.66659 14.9997 9.66659C16.8397 9.66659 18.333 11.1599 18.333 12.9999C18.333 14.9199 16.413 17.7933 14.9997 19.5866C13.613 17.8066 11.6663 14.8999 11.6663 12.9999ZM13.333 12.9999C13.333 13.9199 14.0797 14.6666 14.9997 14.6666C15.9197 14.6666 16.6663 13.9199 16.6663 12.9999C16.6663 12.0799 15.9197 11.3333 14.9997 11.3333C14.0797 11.3333 13.333 12.0799 13.333 12.9999Z" fill="#A71B4A"/>
</svg>
