<svg width="16" height="16" viewBox="0 0 16 16" fill="none" xmlns="http://www.w3.org/2000/svg">
<g clip-path="url(#clip0_13727_9641)">
<path d="M8.66667 14.6673C4.98477 14.6673 2 11.6825 2 8.00065C2 4.31875 4.98477 1.33398 8.66667 1.33398C12.3485 1.33398 15.3333 4.31875 15.3333 8.00065C15.3333 11.6825 12.3485 14.6673 8.66667 14.6673ZM8.66667 13.334C11.6122 13.334 14 10.9462 14 8.00065C14 5.05513 11.6122 2.66732 8.66667 2.66732C5.72115 2.66732 3.33333 5.05513 3.33333 8.00065C3.33333 10.9462 5.72115 13.334 8.66667 13.334ZM8.00173 10.6673L5.17333 7.83892L6.11614 6.89605L8.00173 8.78172L11.773 5.01046L12.7158 5.95327L8.00173 10.6673Z" fill="#5EC401"/>
</g>
<defs>
<clipPath id="clip0_13727_9641">
<rect width="16" height="16" fill="white"/>
</clipPath>
</defs>
</svg>
