<svg width="24" height="24" viewBox="0 0 24 24" fill="none" xmlns="http://www.w3.org/2000/svg">
<path d="M11.7772 21H3.31823C4.30234 19.7508 4.83533 18.2056 4.83068 16.6154V3H17.8804V10.1799C17.8804 10.2794 17.9199 10.3748 17.9903 10.4451C18.0606 10.5154 18.156 10.5549 18.2554 10.5549C18.3549 10.5549 18.4503 10.5154 18.5206 10.4451C18.5909 10.3748 18.6304 10.2794 18.6304 10.1799V2.625C18.6304 2.57575 18.6207 2.52698 18.6019 2.48148C18.5831 2.43598 18.5554 2.39463 18.5206 2.35981C18.4858 2.32498 18.4444 2.29736 18.3989 2.27852C18.3534 2.25968 18.3047 2.24999 18.2554 2.25H4.45568C4.40643 2.24999 4.35766 2.25968 4.31216 2.27852C4.26665 2.29736 4.22531 2.32498 4.19049 2.35981C4.15566 2.39463 4.12804 2.43598 4.1092 2.48148C4.09036 2.52698 4.08067 2.57575 4.08068 2.625V16.6154C4.08299 17.4504 3.91965 18.2776 3.60014 19.0491C3.28062 19.8205 2.81126 20.521 2.21923 21.1099C2.16678 21.1623 2.13106 21.2291 2.11658 21.3019C2.10211 21.3746 2.10953 21.45 2.13792 21.5185C2.1663 21.587 2.21436 21.6456 2.27603 21.6868C2.3377 21.728 2.4102 21.75 2.48436 21.75H11.7772C11.8766 21.75 11.972 21.7105 12.0423 21.6402C12.1126 21.5698 12.1522 21.4745 12.1522 21.375C12.1522 21.2755 12.1126 21.1802 12.0423 21.1098C11.972 21.0395 11.8766 21 11.7772 21Z" fill="#8D3543" stroke="#8D3543" stroke-width="0.5"/>
<path d="M15.6572 6.97363H7.05469C6.95523 6.97363 6.85985 7.01314 6.78952 7.08347C6.7192 7.15379 6.67969 7.24918 6.67969 7.34863C6.67969 7.44809 6.7192 7.54347 6.78952 7.6138C6.85985 7.68412 6.95523 7.72363 7.05469 7.72363H15.6572C15.7566 7.72363 15.852 7.68412 15.9224 7.6138C15.9927 7.54347 16.0322 7.44809 16.0322 7.34863C16.0322 7.24918 15.9927 7.15379 15.9224 7.08347C15.852 7.01314 15.7566 6.97363 15.6572 6.97363Z" fill="#8D3543" stroke="#8D3543" stroke-width="0.5"/>
<path d="M16.0322 9.88867C16.0322 9.83942 16.0225 9.79065 16.0037 9.74515C15.9848 9.69965 15.9572 9.6583 15.9224 9.62348C15.8876 9.58865 15.8462 9.56103 15.8007 9.54219C15.7552 9.52335 15.7064 9.51366 15.6572 9.51367H7.05469C6.95523 9.51367 6.85985 9.55318 6.78952 9.62351C6.7192 9.69383 6.67969 9.78922 6.67969 9.88867C6.67969 9.98813 6.7192 10.0835 6.78952 10.1538C6.85985 10.2242 6.95523 10.2637 7.05469 10.2637H15.6572C15.7064 10.2637 15.7552 10.254 15.8007 10.2352C15.8462 10.2163 15.8876 10.1887 15.9224 10.1539C15.9572 10.119 15.9848 10.0777 16.0037 10.0322C16.0225 9.98669 16.0322 9.93792 16.0322 9.88867Z" fill="#8D3543" stroke="#8D3543" stroke-width="0.5"/>
<path d="M12.2932 12.4297C12.2932 12.3804 12.2835 12.3317 12.2646 12.2862C12.2458 12.2407 12.2182 12.1993 12.1833 12.1645C12.1485 12.1297 12.1072 12.102 12.0617 12.0832C12.0162 12.0644 11.9674 12.0547 11.9182 12.0547H7.05469C6.95523 12.0547 6.85985 12.0942 6.78952 12.1645C6.7192 12.2348 6.67969 12.3302 6.67969 12.4297C6.67969 12.5291 6.7192 12.6245 6.78952 12.6949C6.85985 12.7652 6.95523 12.8047 7.05469 12.8047H11.9182C11.9674 12.8047 12.0162 12.795 12.0617 12.7762C12.1072 12.7573 12.1485 12.7297 12.1833 12.6949C12.2182 12.6601 12.2458 12.6187 12.2646 12.5732C12.2835 12.5277 12.2932 12.4789 12.2932 12.4297Z" fill="#8D3543" stroke="#8D3543" stroke-width="0.5"/>
<path d="M7.05469 14.5957C6.95523 14.5957 6.85985 14.6352 6.78952 14.7055C6.7192 14.7759 6.67969 14.8712 6.67969 14.9707C6.67969 15.0702 6.7192 15.1655 6.78952 15.2359C6.85985 15.3062 6.95523 15.3457 7.05469 15.3457H10.1135C10.2129 15.3457 10.3083 15.3062 10.3786 15.2359C10.449 15.1655 10.4885 15.0702 10.4885 14.9707C10.4885 14.8712 10.449 14.7759 10.3786 14.7055C10.3083 14.6352 10.2129 14.5957 10.1135 14.5957H7.05469Z" fill="#8D3543" stroke="#8D3543" stroke-width="0.5"/>
<path d="M20.4722 13.4743C19.845 12.8459 19.0571 12.4021 18.1947 12.1913C17.3322 11.9804 16.4285 12.0107 15.5821 12.2788C14.7357 12.5469 13.9793 13.0425 13.3955 13.7114C12.8118 14.3803 12.4231 15.1969 12.2721 16.0717L11.9741 15.7737C11.9038 15.7034 11.8084 15.6639 11.7089 15.6639C11.6095 15.6639 11.5141 15.7034 11.4438 15.7737C11.3735 15.844 11.334 15.9394 11.334 16.0389C11.334 16.1383 11.3735 16.2337 11.4438 16.304L12.3067 17.1669C12.3772 17.237 12.4726 17.2764 12.5721 17.2764C12.6716 17.2764 12.767 17.237 12.8375 17.1669L13.7006 16.304C13.7709 16.2337 13.8104 16.1383 13.8104 16.0389C13.8104 15.9394 13.7709 15.844 13.7006 15.7737C13.6303 15.7034 13.5349 15.6639 13.4355 15.6639C13.336 15.6639 13.2406 15.7034 13.1703 15.7737L13.0852 15.8589C13.3157 14.987 13.8278 14.2157 14.5417 13.6646C15.2556 13.1136 16.1316 12.8138 17.0334 12.8117C17.9352 12.8095 18.8126 13.1053 19.5291 13.6529C20.2456 14.2005 20.7613 14.9695 20.9959 15.8402C21.2306 16.711 21.1712 17.6349 20.8269 18.4685C20.4827 19.302 19.8728 19.9986 19.092 20.4499C18.3112 20.9013 17.4033 21.0822 16.5091 20.9646C15.615 20.847 14.7847 20.4374 14.1472 19.7995C14.0769 19.7292 13.9815 19.6897 13.8821 19.6897C13.7826 19.6897 13.6872 19.7292 13.6169 19.7995C13.5466 19.8698 13.5071 19.9652 13.5071 20.0646C13.5071 20.1641 13.5466 20.2594 13.6169 20.3298C14.5262 21.2381 15.7589 21.7482 17.0441 21.7478C18.3294 21.7475 19.5619 21.2368 20.4706 20.328C21.3794 19.4192 21.8901 18.1867 21.8904 16.9015C21.8907 15.6162 21.3806 14.3835 20.4722 13.4743Z" fill="#8D3543" stroke="#8D3543" stroke-width="0.5"/>
<path d="M17.0447 13.6553C16.9954 13.6553 16.9467 13.665 16.9012 13.6838C16.8557 13.7026 16.8143 13.7303 16.7795 13.7651C16.7447 13.7999 16.717 13.8412 16.6982 13.8868C16.6794 13.9323 16.6697 13.981 16.6697 14.0303V16.9021C16.6703 17.0016 16.7098 17.0969 16.7799 17.1676L18.1389 18.5266C18.2094 18.5962 18.3045 18.6351 18.4035 18.6347C18.5026 18.6344 18.5974 18.5949 18.6675 18.5249C18.7375 18.4549 18.777 18.36 18.7773 18.261C18.7776 18.162 18.7388 18.0668 18.6692 17.9964L17.4197 16.7469V14.0303C17.4197 13.981 17.41 13.9323 17.3912 13.8868C17.3723 13.8412 17.3447 13.7999 17.3099 13.7651C17.275 13.7303 17.2337 13.7026 17.1882 13.6838C17.1427 13.665 17.0939 13.6553 17.0447 13.6553Z" fill="#8D3543" stroke="#8D3543" stroke-width="0.5"/>
</svg>
