<svg width="79" height="12" viewBox="0 0 79 12" fill="none" xmlns="http://www.w3.org/2000/svg">
<g id="Asset 3 1" clip-path="url(#clip0_2022_255)">
<g id="Layer 1">
<g id="Group">
<path id="Vector" d="M1.85979 11.6147C1.29912 11.3625 0.86152 11.0065 0.533322 10.517C0.205124 10.0275 0.0273498 9.44905 0 8.76673H2.48884C2.52986 9.15239 2.65293 9.44905 2.85806 9.65671C3.06318 9.86438 3.33668 9.96821 3.67855 9.96821C4.02043 9.96821 4.29392 9.87921 4.49905 9.70121C4.70417 9.52322 4.7999 9.28589 4.7999 8.98922C4.7999 8.73706 4.71785 8.51456 4.55375 8.3514C4.38965 8.18824 4.1982 8.0399 3.96573 7.93607C3.73325 7.83224 3.40505 7.69874 2.96746 7.56524C2.35209 7.35758 1.84611 7.14992 1.44954 6.94225C1.05297 6.73459 0.724771 6.42309 0.437597 6.0226C0.150424 5.6221 0.0273498 5.07328 0.0273498 4.42062C0.0273498 3.45647 0.355548 2.68515 0.998269 2.13632C1.64099 1.58749 2.48883 1.30566 3.52813 1.30566C4.56742 1.30566 5.44262 1.58749 6.08534 2.13632C6.72806 2.68515 7.08361 3.44163 7.12463 4.42062H4.59477C4.5811 4.07946 4.45802 3.8273 4.2529 3.61963C4.04778 3.4268 3.77428 3.3378 3.44608 3.3378C3.15891 3.3378 2.94011 3.4268 2.76233 3.58997C2.58456 3.75313 2.50251 3.99046 2.50251 4.30196C2.50251 4.64312 2.65293 4.89528 2.94011 5.08811C3.22728 5.28094 3.69223 5.47377 4.3076 5.69627C4.92297 5.91877 5.42894 6.14126 5.81184 6.34893C6.19474 6.55659 6.53661 6.85325 6.82378 7.25375C7.11096 7.65424 7.24771 8.15857 7.24771 8.78156C7.24771 9.40455 7.11096 9.90888 6.82378 10.3984C6.55028 10.8879 6.14004 11.2735 5.60672 11.5554C5.07339 11.8372 4.45802 11.9855 3.73325 11.9855C3.00848 11.9855 2.40679 11.8669 1.84611 11.6147H1.85979Z" fill="#3AA5E1"/>
<path id="Vector_2" d="M13.3467 11.8813L11.022 8.41035V11.8813H8.68359V0.904785H11.022V6.97153L13.3331 3.60441H16.2185L13.0459 7.75769L16.2458 11.8813H13.3467Z" fill="#3AA5E1"/>
<path id="Vector_3" d="M17.3126 2.34382C17.0528 2.07682 16.916 1.75049 16.916 1.36483C16.916 0.979171 17.0528 0.638009 17.3126 0.371013C17.5724 0.104017 17.9143 -0.0146484 18.3109 -0.0146484C18.7074 -0.0146484 19.0493 0.11885 19.3091 0.371013C19.5689 0.638009 19.7057 0.964338 19.7057 1.36483C19.7057 1.76533 19.5689 2.07682 19.3091 2.34382C19.0493 2.61082 18.7211 2.72948 18.3109 2.72948C17.9006 2.72948 17.5724 2.59598 17.3126 2.34382ZM19.4732 3.5898V11.8667H17.1348V3.60463H19.4732V3.5898Z" fill="#3AA5E1"/>
<path id="Vector_4" d="M23.5074 0.904785V11.8813H21.1689V0.904785H23.5074Z" fill="#3AA5E1"/>
<path id="Vector_5" d="M27.5415 0.904785V11.8813H25.2031V0.904785H27.5415Z" fill="#3AA5E1"/>
<path id="Vector_6" d="M33.7221 11.6145C33.1614 11.3623 32.7238 11.0063 32.3956 10.5169C32.0674 10.0274 31.8897 9.44887 31.8623 8.76654H34.3511C34.3922 9.1522 34.5152 9.44887 34.7204 9.65653C34.9255 9.86419 35.199 9.96803 35.5409 9.96803C35.8827 9.96803 36.1562 9.87903 36.3614 9.70103C36.5665 9.52303 36.6622 9.2857 36.6622 8.98904C36.6622 8.73688 36.5802 8.51438 36.4161 8.35122C36.252 8.18805 36.0605 8.03972 35.828 7.93589C35.5956 7.83206 35.2674 7.69856 34.8298 7.56506C34.2144 7.3574 33.7084 7.14973 33.3118 6.94207C32.9153 6.7344 32.5871 6.42291 32.2999 6.02241C32.0127 5.62192 31.876 5.08793 31.876 4.43527C31.876 3.47112 32.2042 2.69979 32.8469 2.15097C33.4896 1.60214 34.3375 1.32031 35.3768 1.32031C36.4161 1.32031 37.2912 1.60214 37.934 2.15097C38.5767 2.69979 38.9322 3.45628 38.9733 4.43527H36.4434C36.4297 4.09411 36.3067 3.84194 36.1015 3.63428C35.8964 3.44145 35.6229 3.35245 35.2947 3.35245C35.0075 3.35245 34.7887 3.44145 34.611 3.60461C34.4332 3.76778 34.3511 4.00511 34.3511 4.3166C34.3511 4.65777 34.5016 4.90993 34.7887 5.10276C35.0759 5.29559 35.5409 5.48842 36.1562 5.71092C36.7716 5.93342 37.2776 6.15591 37.6605 6.36358C38.0434 6.57124 38.3852 6.8679 38.6724 7.2684C38.9596 7.66889 39.0963 8.17322 39.0963 8.79621C39.0963 9.4192 38.9596 9.92353 38.6724 10.413C38.3989 10.9025 37.9887 11.2882 37.4553 11.57C36.922 11.8518 36.3067 12.0002 35.5819 12.0002C34.8571 12.0002 34.2554 11.8815 33.6947 11.6293L33.7221 11.6145Z" fill="#3AA5E1"/>
<path id="Vector_7" d="M47.698 8.35129H42.4058C42.4468 8.87045 42.5972 9.25611 42.8571 9.52311C43.1306 9.7901 43.4588 9.9236 43.8553 9.9236C44.4434 9.9236 44.8399 9.65661 45.0724 9.12261H47.5612C47.4382 9.67144 47.2057 10.1609 46.8775 10.5911C46.5493 11.0213 46.1254 11.3624 45.6194 11.6146C45.1134 11.8667 44.5528 11.9854 43.9374 11.9854C43.1853 11.9854 42.5289 11.8074 41.9408 11.4662C41.3528 11.1251 40.9016 10.6208 40.5734 9.98293C40.2452 9.34511 40.0811 8.58862 40.0811 7.7283C40.0811 6.86798 40.2452 6.11149 40.5597 5.47366C40.8879 4.83584 41.3391 4.33151 41.9272 3.99035C42.5152 3.64919 43.1853 3.47119 43.9374 3.47119C44.6895 3.47119 45.3322 3.63436 45.9066 3.97552C46.4809 4.31668 46.9322 4.79134 47.2467 5.41433C47.5612 6.03732 47.7253 6.76415 47.7253 7.5948C47.7253 7.83213 47.7253 8.08429 47.6843 8.33646L47.698 8.35129ZM45.3459 6.94214C45.3459 6.51198 45.2092 6.15599 44.9357 5.90382C44.6622 5.65166 44.3203 5.51816 43.91 5.51816C43.4998 5.51816 43.1853 5.63683 42.9118 5.88899C42.6383 6.14115 42.4742 6.48232 42.4195 6.94214H45.3459Z" fill="#3AA5E1"/>
<path id="Vector_8" d="M56.1218 8.35129H50.8296C50.8706 8.87045 51.0211 9.25611 51.2809 9.52311C51.5544 9.7901 51.8826 9.9236 52.2792 9.9236C52.8672 9.9236 53.2638 9.65661 53.4962 9.12261H55.9851C55.862 9.67144 55.6295 10.1609 55.3013 10.5911C54.9731 11.0213 54.5492 11.3624 54.0432 11.6146C53.5373 11.8667 52.9766 11.9854 52.3612 11.9854C51.6091 11.9854 50.9527 11.8074 50.3647 11.4662C49.7767 11.1251 49.3254 10.6208 48.9972 9.98293C48.669 9.34511 48.5049 8.58862 48.5049 7.7283C48.5049 6.86798 48.669 6.11149 48.9835 5.47366C49.3117 4.83584 49.763 4.33151 50.351 3.99035C50.939 3.64919 51.6091 3.47119 52.3612 3.47119C53.1133 3.47119 53.756 3.63436 54.3304 3.97552C54.9047 4.31668 55.356 4.79134 55.6705 5.41433C55.9851 6.03732 56.1492 6.76415 56.1492 7.5948C56.1492 7.83213 56.1492 8.08429 56.1081 8.33646L56.1218 8.35129ZM53.7697 6.94214C53.7697 6.51198 53.633 6.15599 53.3595 5.90382C53.086 5.65166 52.7441 5.51816 52.3339 5.51816C51.9236 5.51816 51.6091 5.63683 51.3356 5.88899C51.0621 6.14115 50.898 6.48232 50.8433 6.94214H53.7697Z" fill="#3AA5E1"/>
<path id="Vector_9" d="M62.0567 11.8813L59.732 8.41035V11.8813H57.3936V0.904785H59.732V6.97153L62.043 3.60441H64.9284L61.7559 7.75769L64.9558 11.8813H62.0567Z" fill="#3AA5E1"/>
<path id="Vector_10" d="M72.9968 8.35129H67.7046C67.7456 8.87045 67.8961 9.25611 68.1559 9.52311C68.4294 9.7901 68.7576 9.9236 69.1542 9.9236C69.7422 9.9236 70.1388 9.65661 70.3712 9.12261H72.8601C72.737 9.67144 72.5045 10.1609 72.1763 10.5911C71.8481 11.0213 71.4242 11.3624 70.9182 11.6146C70.4123 11.8667 69.8516 11.9854 69.2362 11.9854C68.4841 11.9854 67.8277 11.8074 67.2397 11.4662C66.6516 11.1251 66.2004 10.6208 65.8722 9.98293C65.544 9.34511 65.3799 8.58862 65.3799 7.7283C65.3799 6.86798 65.544 6.11149 65.8585 5.47366C66.1867 4.83584 66.638 4.33151 67.226 3.99035C67.814 3.64919 68.4841 3.47119 69.2362 3.47119C69.9883 3.47119 70.631 3.63436 71.2054 3.97552C71.7797 4.31668 72.231 4.79134 72.5455 5.41433C72.8601 6.03732 73.0242 6.76415 73.0242 7.5948C73.0242 7.83213 73.0242 8.08429 72.9831 8.33646L72.9968 8.35129ZM70.6447 6.94214C70.6447 6.51198 70.508 6.15599 70.2345 5.90382C69.961 5.65166 69.6191 5.51816 69.2089 5.51816C68.7986 5.51816 68.4841 5.63683 68.2106 5.88899C67.9371 6.14115 67.773 6.48232 67.7183 6.94214H70.6447Z" fill="#3AA5E1"/>
<path id="Vector_11" d="M77.6326 3.90147C78.0428 3.63448 78.4941 3.50098 79.0001 3.50098V6.18577H78.3574C77.7693 6.18577 77.3317 6.31927 77.0446 6.58627C76.7574 6.85326 76.607 7.34276 76.607 8.02508V11.8669H74.2686V3.60481H76.607V4.98429C76.8805 4.52446 77.2223 4.16847 77.6326 3.90147Z" fill="#3AA5E1"/>
</g>
</g>
</g>
<defs>
<clipPath id="clip0_2022_255">
<rect width="79" height="12" fill="white"/>
</clipPath>
</defs>
</svg>
