<svg width="14" height="14" viewBox="0 0 14 14" fill="none" xmlns="http://www.w3.org/2000/svg">
<path d="M6.9987 13.6668C3.3168 13.6668 0.332031 10.682 0.332031 7.00016C0.332031 3.31826 3.3168 0.333496 6.9987 0.333496C10.6806 0.333496 13.6654 3.31826 13.6654 7.00016C13.6654 10.682 10.6806 13.6668 6.9987 13.6668ZM6.9987 12.3335C9.94423 12.3335 12.332 9.9457 12.332 7.00016C12.332 4.05464 9.94423 1.66683 6.9987 1.66683C4.05318 1.66683 1.66536 4.05464 1.66536 7.00016C1.66536 9.9457 4.05318 12.3335 6.9987 12.3335ZM6.33376 9.66683L3.50536 6.83843L4.44817 5.89556L6.33376 7.78123L10.105 4.00998L11.0478 4.95278L6.33376 9.66683Z" fill="#5EC401"/>
</svg>
