<svg width="77" height="76" viewBox="0 0 77 76" fill="none" xmlns="http://www.w3.org/2000/svg">
<g id="Group 1000003203">
<path id="Vector 140" d="M43.055 37.1166C30.4962 36.4351 30.1317 19.7227 30.1317 19.7227C30.1317 19.7227 29.1576 21.2783 28.8011 22.3844C28.3408 23.8125 28.3588 26.201 28.3588 26.201C28.3588 26.201 28.4465 28.1205 28.6408 29.3332C28.9044 30.978 29.6331 33.2473 29.6331 33.2473L32.3861 39.2233C32.3861 39.2233 35.4322 46.4512 32.056 49.3952C27.1466 53.6761 21.5958 54.048 21.5958 54.048C21.5958 54.048 25.147 56.0365 27.6339 56.7147C29.3407 57.1802 30.337 57.3543 32.1034 57.4531C34.1917 57.57 35.3908 57.4606 37.4455 57.0696C39.491 56.6803 40.641 56.3433 42.5332 55.4741C44.6672 54.4938 45.7641 53.6946 47.5841 52.2104C50.1917 50.0841 51.3679 48.5216 53.3181 45.7797C55.2458 43.0693 56.1297 41.3878 57.4726 38.3449C59.1575 34.5268 60.6061 28.1281 60.6061 28.1281C60.6061 28.1281 55.6137 37.798 43.055 37.1166Z" fill="black"/>
<path id="Subtract" fill-rule="evenodd" clip-rule="evenodd" d="M18.8564 22.1902C18.8227 22.2318 18.789 22.2735 18.7554 22.3153C10.2325 32.9355 11.5788 48.1702 21.7626 56.3428C31.9463 64.5155 47.1111 62.5314 55.634 51.9111C56.7507 50.5197 57.6979 49.0491 58.4781 47.5255C57.6193 50.7253 56.098 53.8032 53.8915 56.5527C45.3685 67.1729 29.8499 68.8731 19.2296 60.3501C8.6094 51.8272 6.90922 36.3086 15.4322 25.6883C16.476 24.3877 17.6247 23.2209 18.8564 22.1902Z" fill="#3A3A3A"/>
<path id="Subtract_2" fill-rule="evenodd" clip-rule="evenodd" d="M65.0969 31.9184C67.2095 35.4646 68.4113 39.5386 68.4113 43.8718C68.4113 57.5881 56.3696 68.7073 41.5154 68.7073C38.8984 68.7073 36.3686 68.3621 33.9767 67.7185C37.153 69.2093 40.6994 70.0425 44.4404 70.0425C58.0577 70.0425 69.0967 59.0035 69.0967 45.3862C69.0967 40.4164 67.6263 35.7901 65.0969 31.9184Z" fill="#3A3A3A"/>
<path id="Vector 138" d="M37.6135 15.9954L37.42 18.2562C37.42 18.2562 40.4843 15.407 45.4443 15.1128C50.4043 14.8186 54.8305 20.6485 54.8305 20.6485L55.3644 16.7464L64.6654 13.2702L47.255 0L29.3184 12.1166L33.8219 14.1683L33.1951 19.5878H33.8219L34.5105 14.4857L37.6135 15.9954Z" fill="#3AA5E1"/>
<ellipse id="Ellipse 1902" cx="45.4051" cy="24.758" rx="8.50621" ry="8.51723" fill="#3AA5E1"/>
<path id="Vector 139" d="M44.5255 36.883C31.9542 37.2701 30.1724 20.6489 30.1724 20.6489C30.1724 20.6489 29.3339 22.2817 29.0725 23.414C28.7351 24.876 28.9558 27.2544 28.9558 27.2544C28.9558 27.2544 29.2061 29.1595 29.5027 30.3513C29.9049 31.9678 30.8237 34.1671 30.8237 34.1671L34.074 39.8878C34.074 39.8878 37.7227 46.8311 34.6086 50.051C30.0802 54.7332 24.5811 55.575 24.5811 55.575C24.5811 55.575 28.2882 57.2548 30.8237 57.7195C32.5638 58.0384 33.5714 58.1273 35.3397 58.0758C37.4305 58.015 38.6159 57.8042 40.63 57.2402C42.6351 56.6787 43.7523 56.2453 45.5639 55.2186C47.607 54.0607 48.6321 53.1712 50.3196 51.538C52.7373 49.198 53.7766 47.5412 55.487 44.6437C57.1777 41.7795 57.9156 40.029 58.9954 36.883C60.3501 32.9357 61.2503 26.4372 61.2503 26.4372C61.2503 26.4372 57.0968 36.4959 44.5255 36.883Z" fill="#3AA5E1"/>
<path id="Star 10" d="M70.5 17L71.9593 21.8369H76.6819L72.8613 24.8262L74.3206 29.6631L70.5 26.6738L66.6794 29.6631L68.1387 24.8262L64.3181 21.8369H69.0407L70.5 17Z" fill="#F99622"/>
</g>
</svg>
