<svg width="74" height="74" viewBox="0 0 74 74" fill="none" xmlns="http://www.w3.org/2000/svg">
<rect width="74" height="74" rx="6" fill="#8D353A"/>
<g clip-path="url(#clip0_60_93)">
<mask id="path-2-outside-1_60_93" maskUnits="userSpaceOnUse" x="6" y="6.31152" width="57" height="57" fill="black">
<rect fill="white" x="6" y="6.31152" width="57" height="57"/>
<path d="M45.666 33.923C45.28 34.299 45.066 34.803 45.062 35.342C45.059 35.881 45.267 36.388 45.648 36.769L46.894 38.015C47.218 38.339 47.617 38.542 48.035 38.625C48.119 39.043 48.321 39.442 48.644 39.765L49.723 40.843C50.145 41.266 50.707 41.498 51.305 41.498C51.903 41.498 52.465 41.266 52.887 40.843L61.743 31.987C62.616 31.115 62.616 29.695 61.743 28.823L60.665 27.745C60.342 27.422 59.944 27.22 59.527 27.136C59.442 26.707 59.231 26.312 58.915 25.995L57.668 24.747C57.291 24.37 56.776 24.135 56.234 24.159C55.703 24.162 55.209 24.371 54.84 24.748L44.923 14.866C45.309 14.49 45.523 13.986 45.527 13.447C45.531 12.908 45.322 12.401 44.941 12.02L43.695 10.774C43.382 10.46 42.981 10.264 42.558 10.183C42.477 9.75802 42.273 9.35202 41.945 9.02402L40.867 7.94602C40.023 7.10102 38.548 7.09902 37.702 7.94602L28.846 16.801C28.423 17.224 28.191 17.785 28.191 18.383C28.191 18.982 28.423 19.543 28.846 19.966L29.924 21.044C30.24 21.36 30.634 21.57 31.063 21.656C31.149 22.084 31.358 22.478 31.674 22.794L32.92 24.04C33.295 24.415 33.813 24.63 34.343 24.63C34.347 24.63 34.351 24.63 34.355 24.63C34.886 24.627 35.381 24.417 35.749 24.04L37.345 25.637C37.635 25.926 37.635 26.398 37.345 26.687L30.092 33.94L29.384 33.232C28.213 32.063 26.31 32.063 25.141 33.233C23.972 34.403 23.972 36.306 25.141 37.476L25.848 38.183L16.78 47.251C16.253 47.778 15.591 48.153 14.866 48.335L11.96 49.061C10.885 49.331 9.901 49.887 9.117 50.671L8.791 50.996C7.637 52.154 7 53.69 7 55.324C7 56.958 7.637 58.497 8.793 59.653L10.036 60.895C11.193 62.051 12.73 62.688 14.364 62.688C15.999 62.688 17.536 62.051 18.693 60.895L19.018 60.57C19.802 59.787 20.359 58.803 20.628 57.726L21.354 54.821C21.535 54.097 21.91 53.435 22.438 52.907L31.506 43.839L32.213 44.546C33.347 45.679 35.323 45.678 36.455 44.547C37.022 43.981 37.334 43.227 37.334 42.425C37.334 41.624 37.022 40.87 36.455 40.304L35.748 39.597L43.001 32.344C43.291 32.054 43.762 32.054 44.051 32.343L45.666 33.923ZM60.399 30.405C60.399 30.45 60.387 30.515 60.33 30.573L51.474 39.429C51.359 39.544 51.253 39.544 51.139 39.429L50.06 38.351C49.967 38.258 49.967 38.108 50.06 38.015L58.916 29.159C58.962 29.113 59.023 29.09 59.084 29.09C59.145 29.09 59.206 29.113 59.252 29.159L60.33 30.237C60.387 30.294 60.399 30.36 60.399 30.405ZM30.19 18.383C30.19 18.338 30.202 18.273 30.259 18.215L39.115 9.36002C39.173 9.30202 39.238 9.29102 39.283 9.29102C39.328 9.29102 39.393 9.30302 39.451 9.36002L40.529 10.438C40.622 10.531 40.622 10.681 40.529 10.774L31.673 19.63C31.581 19.723 31.43 19.722 31.337 19.63L30.259 18.552C30.202 18.494 30.19 18.429 30.19 18.383ZM41.588 30.929L32.921 39.597L35.042 41.718C35.231 41.907 35.335 42.158 35.335 42.425C35.335 42.693 35.231 42.943 35.042 43.132C34.665 43.511 34.006 43.511 33.628 43.132L31.506 41.011L21.024 51.493C20.239 52.277 19.683 53.261 19.414 54.337L18.688 57.242C18.507 57.967 18.132 58.628 17.604 59.156L17.279 59.481C16.5 60.26 15.464 60.689 14.364 60.689C13.28 60.689 12.218 60.249 11.45 59.482L10.208 58.24C9.429 57.46 9 56.425 9 55.324C9 54.223 9.429 53.189 10.207 52.41L10.532 52.085C11.061 51.557 11.723 51.182 12.447 51L15.353 50.274C16.43 50.004 17.413 49.448 18.196 48.665L28.679 38.183L26.557 36.062C26.167 35.672 26.167 35.037 26.557 34.647C26.752 34.453 27.008 34.355 27.264 34.355C27.52 34.355 27.776 34.453 27.972 34.647L30.093 36.768L38.76 28.101C39.829 27.033 39.829 25.292 38.76 24.223L37.164 22.626C36.786 22.248 36.284 22.04 35.75 22.04C35.746 22.04 35.741 22.04 35.737 22.04C35.198 22.043 34.694 22.258 34.335 22.626L33.089 21.38C33.031 21.322 33.02 21.257 33.02 21.212C33.02 21.167 33.032 21.102 33.089 21.044L41.946 12.188C42.06 12.073 42.166 12.073 42.281 12.188L43.527 13.434C43.15 13.802 42.941 14.297 42.938 14.829C42.935 15.363 43.15 15.886 43.528 16.263L53.427 26.162C53.805 26.54 54.307 26.748 54.841 26.748C54.845 26.748 54.849 26.748 54.854 26.748C55.393 26.745 55.896 26.53 56.255 26.162L57.502 27.41C57.559 27.467 57.571 27.532 57.571 27.576C57.571 27.622 57.559 27.687 57.502 27.745L48.645 36.601C48.551 36.692 48.402 36.693 48.31 36.601L47.065 35.354C47.441 34.986 47.65 34.492 47.653 33.96C47.656 33.427 47.442 32.903 47.064 32.525L45.467 30.928C44.396 29.861 42.657 29.861 41.588 30.929Z"/>
</mask>
<path d="M45.666 33.923C45.28 34.299 45.066 34.803 45.062 35.342C45.059 35.881 45.267 36.388 45.648 36.769L46.894 38.015C47.218 38.339 47.617 38.542 48.035 38.625C48.119 39.043 48.321 39.442 48.644 39.765L49.723 40.843C50.145 41.266 50.707 41.498 51.305 41.498C51.903 41.498 52.465 41.266 52.887 40.843L61.743 31.987C62.616 31.115 62.616 29.695 61.743 28.823L60.665 27.745C60.342 27.422 59.944 27.22 59.527 27.136C59.442 26.707 59.231 26.312 58.915 25.995L57.668 24.747C57.291 24.37 56.776 24.135 56.234 24.159C55.703 24.162 55.209 24.371 54.84 24.748L44.923 14.866C45.309 14.49 45.523 13.986 45.527 13.447C45.531 12.908 45.322 12.401 44.941 12.02L43.695 10.774C43.382 10.46 42.981 10.264 42.558 10.183C42.477 9.75802 42.273 9.35202 41.945 9.02402L40.867 7.94602C40.023 7.10102 38.548 7.09902 37.702 7.94602L28.846 16.801C28.423 17.224 28.191 17.785 28.191 18.383C28.191 18.982 28.423 19.543 28.846 19.966L29.924 21.044C30.24 21.36 30.634 21.57 31.063 21.656C31.149 22.084 31.358 22.478 31.674 22.794L32.92 24.04C33.295 24.415 33.813 24.63 34.343 24.63C34.347 24.63 34.351 24.63 34.355 24.63C34.886 24.627 35.381 24.417 35.749 24.04L37.345 25.637C37.635 25.926 37.635 26.398 37.345 26.687L30.092 33.94L29.384 33.232C28.213 32.063 26.31 32.063 25.141 33.233C23.972 34.403 23.972 36.306 25.141 37.476L25.848 38.183L16.78 47.251C16.253 47.778 15.591 48.153 14.866 48.335L11.96 49.061C10.885 49.331 9.901 49.887 9.117 50.671L8.791 50.996C7.637 52.154 7 53.69 7 55.324C7 56.958 7.637 58.497 8.793 59.653L10.036 60.895C11.193 62.051 12.73 62.688 14.364 62.688C15.999 62.688 17.536 62.051 18.693 60.895L19.018 60.57C19.802 59.787 20.359 58.803 20.628 57.726L21.354 54.821C21.535 54.097 21.91 53.435 22.438 52.907L31.506 43.839L32.213 44.546C33.347 45.679 35.323 45.678 36.455 44.547C37.022 43.981 37.334 43.227 37.334 42.425C37.334 41.624 37.022 40.87 36.455 40.304L35.748 39.597L43.001 32.344C43.291 32.054 43.762 32.054 44.051 32.343L45.666 33.923ZM60.399 30.405C60.399 30.45 60.387 30.515 60.33 30.573L51.474 39.429C51.359 39.544 51.253 39.544 51.139 39.429L50.06 38.351C49.967 38.258 49.967 38.108 50.06 38.015L58.916 29.159C58.962 29.113 59.023 29.09 59.084 29.09C59.145 29.09 59.206 29.113 59.252 29.159L60.33 30.237C60.387 30.294 60.399 30.36 60.399 30.405ZM30.19 18.383C30.19 18.338 30.202 18.273 30.259 18.215L39.115 9.36002C39.173 9.30202 39.238 9.29102 39.283 9.29102C39.328 9.29102 39.393 9.30302 39.451 9.36002L40.529 10.438C40.622 10.531 40.622 10.681 40.529 10.774L31.673 19.63C31.581 19.723 31.43 19.722 31.337 19.63L30.259 18.552C30.202 18.494 30.19 18.429 30.19 18.383ZM41.588 30.929L32.921 39.597L35.042 41.718C35.231 41.907 35.335 42.158 35.335 42.425C35.335 42.693 35.231 42.943 35.042 43.132C34.665 43.511 34.006 43.511 33.628 43.132L31.506 41.011L21.024 51.493C20.239 52.277 19.683 53.261 19.414 54.337L18.688 57.242C18.507 57.967 18.132 58.628 17.604 59.156L17.279 59.481C16.5 60.26 15.464 60.689 14.364 60.689C13.28 60.689 12.218 60.249 11.45 59.482L10.208 58.24C9.429 57.46 9 56.425 9 55.324C9 54.223 9.429 53.189 10.207 52.41L10.532 52.085C11.061 51.557 11.723 51.182 12.447 51L15.353 50.274C16.43 50.004 17.413 49.448 18.196 48.665L28.679 38.183L26.557 36.062C26.167 35.672 26.167 35.037 26.557 34.647C26.752 34.453 27.008 34.355 27.264 34.355C27.52 34.355 27.776 34.453 27.972 34.647L30.093 36.768L38.76 28.101C39.829 27.033 39.829 25.292 38.76 24.223L37.164 22.626C36.786 22.248 36.284 22.04 35.75 22.04C35.746 22.04 35.741 22.04 35.737 22.04C35.198 22.043 34.694 22.258 34.335 22.626L33.089 21.38C33.031 21.322 33.02 21.257 33.02 21.212C33.02 21.167 33.032 21.102 33.089 21.044L41.946 12.188C42.06 12.073 42.166 12.073 42.281 12.188L43.527 13.434C43.15 13.802 42.941 14.297 42.938 14.829C42.935 15.363 43.15 15.886 43.528 16.263L53.427 26.162C53.805 26.54 54.307 26.748 54.841 26.748C54.845 26.748 54.849 26.748 54.854 26.748C55.393 26.745 55.896 26.53 56.255 26.162L57.502 27.41C57.559 27.467 57.571 27.532 57.571 27.576C57.571 27.622 57.559 27.687 57.502 27.745L48.645 36.601C48.551 36.692 48.402 36.693 48.31 36.601L47.065 35.354C47.441 34.986 47.65 34.492 47.653 33.96C47.656 33.427 47.442 32.903 47.064 32.525L45.467 30.928C44.396 29.861 42.657 29.861 41.588 30.929Z" fill="#E9C37A"/>
<path d="M45.666 33.923C45.28 34.299 45.066 34.803 45.062 35.342C45.059 35.881 45.267 36.388 45.648 36.769L46.894 38.015C47.218 38.339 47.617 38.542 48.035 38.625C48.119 39.043 48.321 39.442 48.644 39.765L49.723 40.843C50.145 41.266 50.707 41.498 51.305 41.498C51.903 41.498 52.465 41.266 52.887 40.843L61.743 31.987C62.616 31.115 62.616 29.695 61.743 28.823L60.665 27.745C60.342 27.422 59.944 27.22 59.527 27.136C59.442 26.707 59.231 26.312 58.915 25.995L57.668 24.747C57.291 24.37 56.776 24.135 56.234 24.159C55.703 24.162 55.209 24.371 54.84 24.748L44.923 14.866C45.309 14.49 45.523 13.986 45.527 13.447C45.531 12.908 45.322 12.401 44.941 12.02L43.695 10.774C43.382 10.46 42.981 10.264 42.558 10.183C42.477 9.75802 42.273 9.35202 41.945 9.02402L40.867 7.94602C40.023 7.10102 38.548 7.09902 37.702 7.94602L28.846 16.801C28.423 17.224 28.191 17.785 28.191 18.383C28.191 18.982 28.423 19.543 28.846 19.966L29.924 21.044C30.24 21.36 30.634 21.57 31.063 21.656C31.149 22.084 31.358 22.478 31.674 22.794L32.92 24.04C33.295 24.415 33.813 24.63 34.343 24.63C34.347 24.63 34.351 24.63 34.355 24.63C34.886 24.627 35.381 24.417 35.749 24.04L37.345 25.637C37.635 25.926 37.635 26.398 37.345 26.687L30.092 33.94L29.384 33.232C28.213 32.063 26.31 32.063 25.141 33.233C23.972 34.403 23.972 36.306 25.141 37.476L25.848 38.183L16.78 47.251C16.253 47.778 15.591 48.153 14.866 48.335L11.96 49.061C10.885 49.331 9.901 49.887 9.117 50.671L8.791 50.996C7.637 52.154 7 53.69 7 55.324C7 56.958 7.637 58.497 8.793 59.653L10.036 60.895C11.193 62.051 12.73 62.688 14.364 62.688C15.999 62.688 17.536 62.051 18.693 60.895L19.018 60.57C19.802 59.787 20.359 58.803 20.628 57.726L21.354 54.821C21.535 54.097 21.91 53.435 22.438 52.907L31.506 43.839L32.213 44.546C33.347 45.679 35.323 45.678 36.455 44.547C37.022 43.981 37.334 43.227 37.334 42.425C37.334 41.624 37.022 40.87 36.455 40.304L35.748 39.597L43.001 32.344C43.291 32.054 43.762 32.054 44.051 32.343L45.666 33.923ZM60.399 30.405C60.399 30.45 60.387 30.515 60.33 30.573L51.474 39.429C51.359 39.544 51.253 39.544 51.139 39.429L50.06 38.351C49.967 38.258 49.967 38.108 50.06 38.015L58.916 29.159C58.962 29.113 59.023 29.09 59.084 29.09C59.145 29.09 59.206 29.113 59.252 29.159L60.33 30.237C60.387 30.294 60.399 30.36 60.399 30.405ZM30.19 18.383C30.19 18.338 30.202 18.273 30.259 18.215L39.115 9.36002C39.173 9.30202 39.238 9.29102 39.283 9.29102C39.328 9.29102 39.393 9.30302 39.451 9.36002L40.529 10.438C40.622 10.531 40.622 10.681 40.529 10.774L31.673 19.63C31.581 19.723 31.43 19.722 31.337 19.63L30.259 18.552C30.202 18.494 30.19 18.429 30.19 18.383ZM41.588 30.929L32.921 39.597L35.042 41.718C35.231 41.907 35.335 42.158 35.335 42.425C35.335 42.693 35.231 42.943 35.042 43.132C34.665 43.511 34.006 43.511 33.628 43.132L31.506 41.011L21.024 51.493C20.239 52.277 19.683 53.261 19.414 54.337L18.688 57.242C18.507 57.967 18.132 58.628 17.604 59.156L17.279 59.481C16.5 60.26 15.464 60.689 14.364 60.689C13.28 60.689 12.218 60.249 11.45 59.482L10.208 58.24C9.429 57.46 9 56.425 9 55.324C9 54.223 9.429 53.189 10.207 52.41L10.532 52.085C11.061 51.557 11.723 51.182 12.447 51L15.353 50.274C16.43 50.004 17.413 49.448 18.196 48.665L28.679 38.183L26.557 36.062C26.167 35.672 26.167 35.037 26.557 34.647C26.752 34.453 27.008 34.355 27.264 34.355C27.52 34.355 27.776 34.453 27.972 34.647L30.093 36.768L38.76 28.101C39.829 27.033 39.829 25.292 38.76 24.223L37.164 22.626C36.786 22.248 36.284 22.04 35.75 22.04C35.746 22.04 35.741 22.04 35.737 22.04C35.198 22.043 34.694 22.258 34.335 22.626L33.089 21.38C33.031 21.322 33.02 21.257 33.02 21.212C33.02 21.167 33.032 21.102 33.089 21.044L41.946 12.188C42.06 12.073 42.166 12.073 42.281 12.188L43.527 13.434C43.15 13.802 42.941 14.297 42.938 14.829C42.935 15.363 43.15 15.886 43.528 16.263L53.427 26.162C53.805 26.54 54.307 26.748 54.841 26.748C54.845 26.748 54.849 26.748 54.854 26.748C55.393 26.745 55.896 26.53 56.255 26.162L57.502 27.41C57.559 27.467 57.571 27.532 57.571 27.576C57.571 27.622 57.559 27.687 57.502 27.745L48.645 36.601C48.551 36.692 48.402 36.693 48.31 36.601L47.065 35.354C47.441 34.986 47.65 34.492 47.653 33.96C47.656 33.427 47.442 32.903 47.064 32.525L45.467 30.928C44.396 29.861 42.657 29.861 41.588 30.929Z" stroke="#E9C37A" stroke-width="0.4" mask="url(#path-2-outside-1_60_93)"/>
<path d="M43.9 66.689V66.789H44H67H67.1V66.689V65.689C67.1 61.7738 63.9152 58.589 60 58.589H51C47.0848 58.589 43.9 61.7748 43.9 65.689V66.689ZM64.775 64.589H46.225C46.7251 62.4155 48.6771 60.789 51 60.789H60C62.3239 60.789 64.275 62.4154 64.775 64.589Z" fill="#E9C37A" stroke="#DFB975" stroke-width="0.2"/>
<path d="M49 55.589C48.3928 55.589 47.9 56.0807 47.9 56.689C47.9 57.2973 48.3928 57.789 49 57.789H62C62.6072 57.789 63.1 57.2973 63.1 56.689C63.1 56.0807 62.6072 55.589 62 55.589H49Z" fill="#E9C37A" stroke="#DFB975" stroke-width="0.2"/>
</g>
<defs>
<clipPath id="clip0_60_93">
<rect width="60" height="60" fill="white" transform="translate(7 7)"/>
</clipPath>
</defs>
</svg>
