<svg width="12" height="12" viewBox="0 0 12 12" fill="none" xmlns="http://www.w3.org/2000/svg">
<g id="language">
<path id="language_2" d="M6 12C5.17436 12 4.39658 11.8421 3.66667 11.5263C2.93676 11.2105 2.30107 10.7818 1.75962 10.2404C1.21816 9.69893 0.789528 9.06324 0.473717 8.33333C0.157906 7.60342 0 6.82564 0 6C0 5.17179 0.157906 4.39337 0.473717 3.66475C0.789528 2.93612 1.21816 2.30107 1.75962 1.75962C2.30107 1.21816 2.93676 0.789527 3.66667 0.473716C4.39658 0.157905 5.17436 0 6 0C6.82821 0 7.60663 0.157905 8.33525 0.473716C9.06388 0.789527 9.69893 1.21816 10.2404 1.75962C10.7818 2.30107 11.2105 2.93612 11.5263 3.66475C11.8421 4.39337 12 5.17179 12 6C12 6.82564 11.8421 7.60342 11.5263 8.33333C11.2105 9.06324 10.7818 9.69893 10.2404 10.2404C9.69893 10.7818 9.06388 11.2105 8.33525 11.5263C7.60663 11.8421 6.82821 12 6 12ZM6 11.3385C6.39146 10.8359 6.71411 10.3423 6.96795 9.8577C7.2218 9.37308 7.42821 8.83077 7.58718 8.23077H4.41282C4.58888 8.86496 4.79957 9.42436 5.04487 9.90898C5.29017 10.3936 5.60854 10.8701 6 11.3385ZM5.15128 11.2385C4.84017 10.8718 4.55619 10.4186 4.29935 9.87885C4.04252 9.33911 3.85128 8.78975 3.72563 8.23077H1.16923C1.55129 9.05983 2.09296 9.73975 2.79423 10.2705C3.49551 10.8013 4.28119 11.1239 5.15128 11.2385ZM6.84872 11.2385C7.71881 11.1239 8.50449 10.8013 9.20577 10.2705C9.90704 9.73975 10.4487 9.05983 10.8308 8.23077H8.27437C8.10599 8.79829 7.89338 9.35192 7.63655 9.89167C7.37971 10.4314 7.11709 10.8803 6.84872 11.2385ZM0.897433 7.5641H3.58718C3.53675 7.2906 3.50107 7.02415 3.48013 6.76475C3.45919 6.50534 3.44872 6.25042 3.44872 6C3.44872 5.74958 3.45919 5.49466 3.48013 5.23525C3.50107 4.97585 3.53675 4.7094 3.58718 4.4359H0.897433C0.824789 4.66667 0.768167 4.91816 0.727567 5.19038C0.686967 5.46261 0.666667 5.73248 0.666667 6C0.666667 6.26752 0.686967 6.53739 0.727567 6.80962C0.768167 7.08184 0.824789 7.33333 0.897433 7.5641ZM4.25385 7.5641H7.74615C7.79658 7.2906 7.83227 7.02842 7.8532 6.77757C7.87415 6.52671 7.88462 6.26752 7.88462 6C7.88462 5.73248 7.87415 5.47329 7.8532 5.22243C7.83227 4.97158 7.79658 4.7094 7.74615 4.4359H4.25385C4.20342 4.7094 4.16773 4.97158 4.1468 5.22243C4.12586 5.47329 4.11538 5.73248 4.11538 6C4.11538 6.26752 4.12586 6.52671 4.1468 6.77757C4.16773 7.02842 4.20342 7.2906 4.25385 7.5641ZM8.41282 7.5641H11.1026C11.1752 7.33333 11.2318 7.08184 11.2724 6.80962C11.313 6.53739 11.3333 6.26752 11.3333 6C11.3333 5.73248 11.313 5.46261 11.2724 5.19038C11.2318 4.91816 11.1752 4.66667 11.1026 4.4359H8.41282C8.46325 4.7094 8.49894 4.97585 8.51988 5.23525C8.54082 5.49466 8.55128 5.74958 8.55128 6C8.55128 6.25042 8.54082 6.50534 8.51988 6.76475C8.49894 7.02415 8.46325 7.2906 8.41282 7.5641ZM8.27437 3.76923H10.8308C10.4402 2.92308 9.90491 2.24316 9.225 1.72948C8.54509 1.21582 7.75299 0.888894 6.84872 0.748716C7.15983 1.15812 7.43953 1.62628 7.68782 2.1532C7.93612 2.68012 8.13163 3.2188 8.27437 3.76923ZM4.41282 3.76923H7.58718C7.41112 3.14359 7.19402 2.57778 6.9359 2.0718C6.67778 1.56581 6.36581 1.09572 6 0.661534C5.63419 1.09572 5.32222 1.56581 5.0641 2.0718C4.80598 2.57778 4.58888 3.14359 4.41282 3.76923ZM1.16923 3.76923H3.72563C3.86837 3.2188 4.06388 2.68012 4.31218 2.1532C4.56047 1.62628 4.84017 1.15812 5.15128 0.748716C4.23846 0.888894 3.44423 1.21796 2.76858 1.7359C2.09295 2.25384 1.55983 2.93162 1.16923 3.76923Z" fill="#252525"/>
</g>
</svg>
