<svg width="216" height="36" viewBox="0 0 216 36" fill="none" xmlns="http://www.w3.org/2000/svg">
<path d="M1.46875 2.57812H6.42188V22.6562H20.625V27H1.46875V2.57812Z" fill="#8D353A"/>
<path d="M23.9844 17.7188C23.9844 16.4688 24.2396 15.276 24.75 14.1406C25.2604 12.9948 25.9948 11.9844 26.9531 11.1094C27.9115 10.2344 29.0833 9.53646 30.4688 9.01562C31.8646 8.49479 33.4479 8.23438 35.2188 8.23438C36.9792 8.23438 38.5625 8.5 39.9688 9.03125C41.3854 9.55208 42.5833 10.2708 43.5625 11.1875C44.5521 12.1042 45.3073 13.1823 45.8281 14.4219C46.3594 15.6615 46.625 16.9896 46.625 18.4062C46.625 18.5833 46.6198 18.776 46.6094 18.9844C46.6094 19.1823 46.599 19.3646 46.5781 19.5312H29.1406C29.3385 20.0833 29.6562 20.5885 30.0938 21.0469C30.5417 21.5052 31.099 21.901 31.7656 22.2344C32.4323 22.5677 33.2031 22.8281 34.0781 23.0156C34.9531 23.1927 35.9219 23.2812 36.9844 23.2812C38.0469 23.2812 39.1042 23.1719 40.1562 22.9531C41.2083 22.724 42.2135 22.4375 43.1719 22.0938L44.7344 25.625C44.1302 25.9062 43.5156 26.1562 42.8906 26.375C42.276 26.5833 41.6302 26.7604 40.9531 26.9062C40.2865 27.0417 39.5833 27.1458 38.8438 27.2188C38.1146 27.2917 37.3438 27.3281 36.5312 27.3281C34.4583 27.3281 32.6406 27.0781 31.0781 26.5781C29.5156 26.0781 28.2083 25.3958 27.1562 24.5312C26.1042 23.6667 25.3125 22.651 24.7812 21.4844C24.25 20.3177 23.9844 19.0625 23.9844 17.7188ZM41.7188 15.9219C41.5521 15.4115 41.2917 14.9375 40.9375 14.5C40.5938 14.0521 40.1615 13.6667 39.6406 13.3438C39.1198 13.0104 38.5156 12.75 37.8281 12.5625C37.1406 12.375 36.3854 12.2812 35.5625 12.2812C34.6875 12.2812 33.8906 12.3802 33.1719 12.5781C32.4531 12.776 31.8229 13.0417 31.2812 13.375C30.7396 13.7083 30.2865 14.0938 29.9219 14.5312C29.5677 14.9688 29.3073 15.4323 29.1406 15.9219H41.7188Z" fill="#8D353A"/>
<path d="M54.5 30.125C55.0833 30.3333 55.6771 30.5052 56.2812 30.6406C56.8854 30.7865 57.4688 30.901 58.0312 30.9844C58.6042 31.0781 59.151 31.1406 59.6719 31.1719C60.1927 31.2135 60.6562 31.2344 61.0625 31.2344C62.2917 31.2344 63.3594 31.0833 64.2656 30.7812C65.1823 30.4896 65.9427 30.0938 66.5469 29.5938C67.1615 29.0938 67.6198 28.5104 67.9219 27.8438C68.224 27.1875 68.375 26.4896 68.375 25.75V24.9531C67.9792 25.224 67.5156 25.4844 66.9844 25.7344C66.4531 25.9844 65.8698 26.2031 65.2344 26.3906C64.599 26.5781 63.9219 26.7292 63.2031 26.8438C62.4948 26.9583 61.7604 27.0156 61 27.0156C59.4896 27.0156 58.0938 26.7917 56.8125 26.3438C55.5312 25.8854 54.4219 25.25 53.4844 24.4375C52.5469 23.6146 51.8125 22.6302 51.2812 21.4844C50.7604 20.3385 50.5 19.0677 50.5 17.6719C50.5 16.2448 50.776 14.9531 51.3281 13.7969C51.8802 12.6302 52.6406 11.6354 53.6094 10.8125C54.5885 9.98958 55.7448 9.35417 57.0781 8.90625C58.4115 8.45833 59.8594 8.23438 61.4219 8.23438C62.0885 8.23438 62.75 8.27604 63.4062 8.35938C64.0625 8.44271 64.6875 8.55729 65.2812 8.70312C65.8854 8.84896 66.4479 9.02604 66.9688 9.23438C67.5 9.43229 67.9688 9.65104 68.375 9.89062V8.5625H73V24.8906C73 26.5677 72.7448 28.0521 72.2344 29.3438C71.724 30.6354 70.974 31.7188 69.9844 32.5938C69.0052 33.4792 67.7865 34.1458 66.3281 34.5938C64.8698 35.0521 63.1979 35.2812 61.3125 35.2812C60.6354 35.2812 59.9323 35.25 59.2031 35.1875C58.474 35.1354 57.7396 35.0521 57 34.9375C56.2708 34.8333 55.5469 34.7031 54.8281 34.5469C54.1198 34.401 53.4375 34.2292 52.7812 34.0312L54.5 30.125ZM55.3594 17.625C55.3594 18.3646 55.5052 19.0625 55.7969 19.7188C56.099 20.3646 56.526 20.9323 57.0781 21.4219C57.6302 21.901 58.2969 22.2812 59.0781 22.5625C59.8594 22.8333 60.7396 22.9688 61.7188 22.9688C62.3542 22.9688 62.9844 22.9115 63.6094 22.7969C64.2448 22.6719 64.849 22.5 65.4219 22.2812C66.0052 22.0625 66.5469 21.7969 67.0469 21.4844C67.5573 21.1719 68 20.8229 68.375 20.4375V14.3594C67.9062 13.9844 67.4115 13.6667 66.8906 13.4062C66.3698 13.1458 65.8385 12.9323 65.2969 12.7656C64.7552 12.599 64.2083 12.4792 63.6562 12.4062C63.1042 12.3229 62.5677 12.2812 62.0469 12.2812C60.9844 12.2812 60.0365 12.4219 59.2031 12.7031C58.3802 12.9844 57.6823 13.3698 57.1094 13.8594C56.5469 14.3385 56.1146 14.901 55.8125 15.5469C55.5104 16.1927 55.3594 16.8854 55.3594 17.625Z" fill="#8D353A"/>
<path d="M77.3906 21.1875C77.3906 20.3021 77.5833 19.4948 77.9688 18.7656C78.3542 18.0365 78.9323 17.4115 79.7031 16.8906C80.474 16.3594 81.4323 15.9531 82.5781 15.6719C83.7344 15.3802 85.0781 15.2344 86.6094 15.2344C87.7448 15.2344 88.9375 15.3177 90.1875 15.4844C91.4479 15.651 92.7448 15.9062 94.0781 16.25C94.026 15.6667 93.849 15.1302 93.5469 14.6406C93.2448 14.1406 92.8229 13.7135 92.2812 13.3594C91.75 12.9948 91.1042 12.7135 90.3438 12.5156C89.5938 12.3177 88.7396 12.2188 87.7812 12.2188C87.2604 12.2188 86.6875 12.25 86.0625 12.3125C85.4375 12.375 84.7917 12.4688 84.125 12.5938C83.4583 12.7188 82.7969 12.875 82.1406 13.0625C81.4948 13.25 80.8906 13.474 80.3281 13.7344L78.9219 9.9375C79.6198 9.6875 80.3646 9.45833 81.1562 9.25C81.9583 9.04167 82.776 8.86458 83.6094 8.71875C84.4427 8.5625 85.276 8.44271 86.1094 8.35938C86.9427 8.27604 87.75 8.23438 88.5312 8.23438C91.9792 8.23438 94.5417 9.11458 96.2188 10.875C97.8958 12.6354 98.7344 15.3333 98.7344 18.9688V27H94.1094V25.2656C93.6302 25.5469 93.1042 25.8125 92.5312 26.0625C91.9688 26.3125 91.3542 26.5312 90.6875 26.7188C90.0208 26.9062 89.3021 27.0521 88.5312 27.1562C87.7708 27.2708 86.9635 27.3281 86.1094 27.3281C84.6719 27.3281 83.4062 27.1719 82.3125 26.8594C81.2292 26.5469 80.3229 26.1146 79.5938 25.5625C78.8646 25.0104 78.3125 24.3646 77.9375 23.625C77.5729 22.875 77.3906 22.0625 77.3906 21.1875ZM82.2656 21.0312C82.2656 21.3333 82.3438 21.625 82.5 21.9062C82.6562 22.1771 82.9062 22.4219 83.25 22.6406C83.5938 22.849 84.0312 23.0208 84.5625 23.1562C85.1042 23.2812 85.7552 23.3438 86.5156 23.3438C87.3281 23.3438 88.1146 23.2708 88.875 23.125C89.6354 22.9792 90.3438 22.7865 91 22.5469C91.6562 22.3073 92.25 22.0312 92.7812 21.7188C93.3125 21.4062 93.7552 21.0833 94.1094 20.75V19.9375C93.401 19.7396 92.6979 19.5729 92 19.4375C91.3125 19.3021 90.651 19.1979 90.0156 19.125C89.3906 19.0417 88.7969 18.9844 88.2344 18.9531C87.6823 18.9219 87.1979 18.9062 86.7812 18.9062C85.9167 18.9062 85.1979 18.9635 84.625 19.0781C84.0521 19.1927 83.5885 19.349 83.2344 19.5469C82.8802 19.7344 82.6302 19.9583 82.4844 20.2188C82.3385 20.4792 82.2656 20.75 82.2656 21.0312Z" fill="#8D353A"/>
<path d="M104.984 1.07812H109.609V27H104.984V1.07812Z" fill="#8D353A"/>
<path d="M116.125 2.57812H136.922V6.92188H121.078V11.7969H135.109V15.875H121.078V22.6719H137.25V27H116.125V2.57812Z" fill="#8D353A"/>
<path d="M141.297 21.1875C141.297 20.3021 141.49 19.4948 141.875 18.7656C142.26 18.0365 142.839 17.4115 143.609 16.8906C144.38 16.3594 145.339 15.9531 146.484 15.6719C147.641 15.3802 148.984 15.2344 150.516 15.2344C151.651 15.2344 152.844 15.3177 154.094 15.4844C155.354 15.651 156.651 15.9062 157.984 16.25C157.932 15.6667 157.755 15.1302 157.453 14.6406C157.151 14.1406 156.729 13.7135 156.188 13.3594C155.656 12.9948 155.01 12.7135 154.25 12.5156C153.5 12.3177 152.646 12.2188 151.688 12.2188C151.167 12.2188 150.594 12.25 149.969 12.3125C149.344 12.375 148.698 12.4688 148.031 12.5938C147.365 12.7188 146.703 12.875 146.047 13.0625C145.401 13.25 144.797 13.474 144.234 13.7344L142.828 9.9375C143.526 9.6875 144.271 9.45833 145.062 9.25C145.865 9.04167 146.682 8.86458 147.516 8.71875C148.349 8.5625 149.182 8.44271 150.016 8.35938C150.849 8.27604 151.656 8.23438 152.438 8.23438C155.885 8.23438 158.448 9.11458 160.125 10.875C161.802 12.6354 162.641 15.3333 162.641 18.9688V27H158.016V25.2656C157.536 25.5469 157.01 25.8125 156.438 26.0625C155.875 26.3125 155.26 26.5312 154.594 26.7188C153.927 26.9062 153.208 27.0521 152.438 27.1562C151.677 27.2708 150.87 27.3281 150.016 27.3281C148.578 27.3281 147.312 27.1719 146.219 26.8594C145.135 26.5469 144.229 26.1146 143.5 25.5625C142.771 25.0104 142.219 24.3646 141.844 23.625C141.479 22.875 141.297 22.0625 141.297 21.1875ZM146.172 21.0312C146.172 21.3333 146.25 21.625 146.406 21.9062C146.562 22.1771 146.812 22.4219 147.156 22.6406C147.5 22.849 147.938 23.0208 148.469 23.1562C149.01 23.2812 149.661 23.3438 150.422 23.3438C151.234 23.3438 152.021 23.2708 152.781 23.125C153.542 22.9792 154.25 22.7865 154.906 22.5469C155.562 22.3073 156.156 22.0312 156.688 21.7188C157.219 21.4062 157.661 21.0833 158.016 20.75V19.9375C157.307 19.7396 156.604 19.5729 155.906 19.4375C155.219 19.3021 154.557 19.1979 153.922 19.125C153.297 19.0417 152.703 18.9844 152.141 18.9531C151.589 18.9219 151.104 18.9062 150.688 18.9062C149.823 18.9062 149.104 18.9635 148.531 19.0781C147.958 19.1927 147.495 19.349 147.141 19.5469C146.786 19.7344 146.536 19.9583 146.391 20.2188C146.245 20.4792 146.172 20.75 146.172 21.0312Z" fill="#8D353A"/>
<path d="M169.5 21.3438C170.75 22.0938 172.125 22.6458 173.625 23C175.125 23.3542 176.661 23.5312 178.234 23.5312C179.297 23.5312 180.182 23.4583 180.891 23.3125C181.599 23.1667 182.167 22.9792 182.594 22.75C183.021 22.5208 183.323 22.2604 183.5 21.9688C183.677 21.6771 183.766 21.3802 183.766 21.0781C183.766 20.6406 183.573 20.2656 183.188 19.9531C182.812 19.6406 182.188 19.4844 181.312 19.4844C180.906 19.4844 180.469 19.5104 180 19.5625C179.531 19.6146 179.036 19.6719 178.516 19.7344C178.005 19.7865 177.469 19.8385 176.906 19.8906C176.354 19.9427 175.792 19.9688 175.219 19.9688C173.969 19.9688 172.901 19.8333 172.016 19.5625C171.141 19.2917 170.427 18.9219 169.875 18.4531C169.323 17.9844 168.922 17.4323 168.672 16.7969C168.422 16.151 168.297 15.4583 168.297 14.7188C168.297 13.7812 168.516 12.9167 168.953 12.125C169.391 11.3333 170.016 10.651 170.828 10.0781C171.641 9.49479 172.62 9.04167 173.766 8.71875C174.922 8.39583 176.208 8.23438 177.625 8.23438C178.365 8.23438 179.135 8.28125 179.938 8.375C180.75 8.45833 181.547 8.57292 182.328 8.71875C183.109 8.86458 183.859 9.03646 184.578 9.23438C185.297 9.42188 185.932 9.625 186.484 9.84375L185.031 13.4375C183.854 13 182.677 12.6562 181.5 12.4062C180.333 12.1458 179.13 12.0156 177.891 12.0156C177.026 12.0156 176.292 12.0833 175.688 12.2188C175.094 12.3438 174.609 12.5156 174.234 12.7344C173.859 12.9427 173.583 13.1875 173.406 13.4688C173.24 13.7396 173.156 14.026 173.156 14.3281C173.156 14.5469 173.198 14.7448 173.281 14.9219C173.375 15.099 173.521 15.2552 173.719 15.3906C173.927 15.5156 174.193 15.6146 174.516 15.6875C174.849 15.75 175.255 15.7812 175.734 15.7812C176.172 15.7812 176.635 15.7552 177.125 15.7031C177.615 15.651 178.125 15.599 178.656 15.5469C179.188 15.4844 179.734 15.4271 180.297 15.375C180.87 15.3229 181.453 15.2969 182.047 15.2969C183.151 15.2969 184.115 15.4271 184.938 15.6875C185.771 15.9479 186.458 16.3125 187 16.7812C187.542 17.25 187.948 17.8021 188.219 18.4375C188.49 19.0729 188.625 19.7656 188.625 20.5156C188.625 21.4844 188.401 22.3854 187.953 23.2188C187.505 24.0521 186.839 24.776 185.953 25.3906C185.068 25.9948 183.964 26.4688 182.641 26.8125C181.328 27.1562 179.807 27.3281 178.078 27.3281C177.016 27.3281 175.99 27.2604 175 27.125C174.01 27 173.068 26.8281 172.172 26.6094C171.276 26.3802 170.432 26.1146 169.641 25.8125C168.859 25.5104 168.146 25.1875 167.5 24.8438L169.5 21.3438Z" fill="#8D353A"/>
<path d="M191.922 17.7188C191.922 16.4688 192.177 15.276 192.688 14.1406C193.198 12.9948 193.932 11.9844 194.891 11.1094C195.849 10.2344 197.021 9.53646 198.406 9.01562C199.802 8.49479 201.385 8.23438 203.156 8.23438C204.917 8.23438 206.5 8.5 207.906 9.03125C209.323 9.55208 210.521 10.2708 211.5 11.1875C212.49 12.1042 213.245 13.1823 213.766 14.4219C214.297 15.6615 214.562 16.9896 214.562 18.4062C214.562 18.5833 214.557 18.776 214.547 18.9844C214.547 19.1823 214.536 19.3646 214.516 19.5312H197.078C197.276 20.0833 197.594 20.5885 198.031 21.0469C198.479 21.5052 199.036 21.901 199.703 22.2344C200.37 22.5677 201.141 22.8281 202.016 23.0156C202.891 23.1927 203.859 23.2812 204.922 23.2812C205.984 23.2812 207.042 23.1719 208.094 22.9531C209.146 22.724 210.151 22.4375 211.109 22.0938L212.672 25.625C212.068 25.9062 211.453 26.1562 210.828 26.375C210.214 26.5833 209.568 26.7604 208.891 26.9062C208.224 27.0417 207.521 27.1458 206.781 27.2188C206.052 27.2917 205.281 27.3281 204.469 27.3281C202.396 27.3281 200.578 27.0781 199.016 26.5781C197.453 26.0781 196.146 25.3958 195.094 24.5312C194.042 23.6667 193.25 22.651 192.719 21.4844C192.188 20.3177 191.922 19.0625 191.922 17.7188ZM209.656 15.9219C209.49 15.4115 209.229 14.9375 208.875 14.5C208.531 14.0521 208.099 13.6667 207.578 13.3438C207.057 13.0104 206.453 12.75 205.766 12.5625C205.078 12.375 204.323 12.2812 203.5 12.2812C202.625 12.2812 201.828 12.3802 201.109 12.5781C200.391 12.776 199.76 13.0417 199.219 13.375C198.677 13.7083 198.224 14.0938 197.859 14.5312C197.505 14.9688 197.245 15.4323 197.078 15.9219H209.656Z" fill="#8D353A"/>
<path d="M1.46875 2.57812H6.42188V22.6562H20.625V27H1.46875V2.57812Z" stroke="#8D353A"/>
<path d="M23.9844 17.7188C23.9844 16.4688 24.2396 15.276 24.75 14.1406C25.2604 12.9948 25.9948 11.9844 26.9531 11.1094C27.9115 10.2344 29.0833 9.53646 30.4688 9.01562C31.8646 8.49479 33.4479 8.23438 35.2188 8.23438C36.9792 8.23438 38.5625 8.5 39.9688 9.03125C41.3854 9.55208 42.5833 10.2708 43.5625 11.1875C44.5521 12.1042 45.3073 13.1823 45.8281 14.4219C46.3594 15.6615 46.625 16.9896 46.625 18.4062C46.625 18.5833 46.6198 18.776 46.6094 18.9844C46.6094 19.1823 46.599 19.3646 46.5781 19.5312H29.1406C29.3385 20.0833 29.6562 20.5885 30.0938 21.0469C30.5417 21.5052 31.099 21.901 31.7656 22.2344C32.4323 22.5677 33.2031 22.8281 34.0781 23.0156C34.9531 23.1927 35.9219 23.2812 36.9844 23.2812C38.0469 23.2812 39.1042 23.1719 40.1562 22.9531C41.2083 22.724 42.2135 22.4375 43.1719 22.0938L44.7344 25.625C44.1302 25.9062 43.5156 26.1562 42.8906 26.375C42.276 26.5833 41.6302 26.7604 40.9531 26.9062C40.2865 27.0417 39.5833 27.1458 38.8438 27.2188C38.1146 27.2917 37.3438 27.3281 36.5312 27.3281C34.4583 27.3281 32.6406 27.0781 31.0781 26.5781C29.5156 26.0781 28.2083 25.3958 27.1562 24.5312C26.1042 23.6667 25.3125 22.651 24.7812 21.4844C24.25 20.3177 23.9844 19.0625 23.9844 17.7188ZM41.7188 15.9219C41.5521 15.4115 41.2917 14.9375 40.9375 14.5C40.5938 14.0521 40.1615 13.6667 39.6406 13.3438C39.1198 13.0104 38.5156 12.75 37.8281 12.5625C37.1406 12.375 36.3854 12.2812 35.5625 12.2812C34.6875 12.2812 33.8906 12.3802 33.1719 12.5781C32.4531 12.776 31.8229 13.0417 31.2812 13.375C30.7396 13.7083 30.2865 14.0938 29.9219 14.5312C29.5677 14.9688 29.3073 15.4323 29.1406 15.9219H41.7188Z" stroke="#8D353A"/>
<path d="M54.5 30.125C55.0833 30.3333 55.6771 30.5052 56.2812 30.6406C56.8854 30.7865 57.4688 30.901 58.0312 30.9844C58.6042 31.0781 59.151 31.1406 59.6719 31.1719C60.1927 31.2135 60.6562 31.2344 61.0625 31.2344C62.2917 31.2344 63.3594 31.0833 64.2656 30.7812C65.1823 30.4896 65.9427 30.0938 66.5469 29.5938C67.1615 29.0938 67.6198 28.5104 67.9219 27.8438C68.224 27.1875 68.375 26.4896 68.375 25.75V24.9531C67.9792 25.224 67.5156 25.4844 66.9844 25.7344C66.4531 25.9844 65.8698 26.2031 65.2344 26.3906C64.599 26.5781 63.9219 26.7292 63.2031 26.8438C62.4948 26.9583 61.7604 27.0156 61 27.0156C59.4896 27.0156 58.0938 26.7917 56.8125 26.3438C55.5312 25.8854 54.4219 25.25 53.4844 24.4375C52.5469 23.6146 51.8125 22.6302 51.2812 21.4844C50.7604 20.3385 50.5 19.0677 50.5 17.6719C50.5 16.2448 50.776 14.9531 51.3281 13.7969C51.8802 12.6302 52.6406 11.6354 53.6094 10.8125C54.5885 9.98958 55.7448 9.35417 57.0781 8.90625C58.4115 8.45833 59.8594 8.23438 61.4219 8.23438C62.0885 8.23438 62.75 8.27604 63.4062 8.35938C64.0625 8.44271 64.6875 8.55729 65.2812 8.70312C65.8854 8.84896 66.4479 9.02604 66.9688 9.23438C67.5 9.43229 67.9688 9.65104 68.375 9.89062V8.5625H73V24.8906C73 26.5677 72.7448 28.0521 72.2344 29.3438C71.724 30.6354 70.974 31.7188 69.9844 32.5938C69.0052 33.4792 67.7865 34.1458 66.3281 34.5938C64.8698 35.0521 63.1979 35.2812 61.3125 35.2812C60.6354 35.2812 59.9323 35.25 59.2031 35.1875C58.474 35.1354 57.7396 35.0521 57 34.9375C56.2708 34.8333 55.5469 34.7031 54.8281 34.5469C54.1198 34.401 53.4375 34.2292 52.7812 34.0312L54.5 30.125ZM55.3594 17.625C55.3594 18.3646 55.5052 19.0625 55.7969 19.7188C56.099 20.3646 56.526 20.9323 57.0781 21.4219C57.6302 21.901 58.2969 22.2812 59.0781 22.5625C59.8594 22.8333 60.7396 22.9688 61.7188 22.9688C62.3542 22.9688 62.9844 22.9115 63.6094 22.7969C64.2448 22.6719 64.849 22.5 65.4219 22.2812C66.0052 22.0625 66.5469 21.7969 67.0469 21.4844C67.5573 21.1719 68 20.8229 68.375 20.4375V14.3594C67.9062 13.9844 67.4115 13.6667 66.8906 13.4062C66.3698 13.1458 65.8385 12.9323 65.2969 12.7656C64.7552 12.599 64.2083 12.4792 63.6562 12.4062C63.1042 12.3229 62.5677 12.2812 62.0469 12.2812C60.9844 12.2812 60.0365 12.4219 59.2031 12.7031C58.3802 12.9844 57.6823 13.3698 57.1094 13.8594C56.5469 14.3385 56.1146 14.901 55.8125 15.5469C55.5104 16.1927 55.3594 16.8854 55.3594 17.625Z" stroke="#8D353A"/>
<path d="M77.3906 21.1875C77.3906 20.3021 77.5833 19.4948 77.9688 18.7656C78.3542 18.0365 78.9323 17.4115 79.7031 16.8906C80.474 16.3594 81.4323 15.9531 82.5781 15.6719C83.7344 15.3802 85.0781 15.2344 86.6094 15.2344C87.7448 15.2344 88.9375 15.3177 90.1875 15.4844C91.4479 15.651 92.7448 15.9062 94.0781 16.25C94.026 15.6667 93.849 15.1302 93.5469 14.6406C93.2448 14.1406 92.8229 13.7135 92.2812 13.3594C91.75 12.9948 91.1042 12.7135 90.3438 12.5156C89.5938 12.3177 88.7396 12.2188 87.7812 12.2188C87.2604 12.2188 86.6875 12.25 86.0625 12.3125C85.4375 12.375 84.7917 12.4688 84.125 12.5938C83.4583 12.7188 82.7969 12.875 82.1406 13.0625C81.4948 13.25 80.8906 13.474 80.3281 13.7344L78.9219 9.9375C79.6198 9.6875 80.3646 9.45833 81.1562 9.25C81.9583 9.04167 82.776 8.86458 83.6094 8.71875C84.4427 8.5625 85.276 8.44271 86.1094 8.35938C86.9427 8.27604 87.75 8.23438 88.5312 8.23438C91.9792 8.23438 94.5417 9.11458 96.2188 10.875C97.8958 12.6354 98.7344 15.3333 98.7344 18.9688V27H94.1094V25.2656C93.6302 25.5469 93.1042 25.8125 92.5312 26.0625C91.9688 26.3125 91.3542 26.5312 90.6875 26.7188C90.0208 26.9062 89.3021 27.0521 88.5312 27.1562C87.7708 27.2708 86.9635 27.3281 86.1094 27.3281C84.6719 27.3281 83.4062 27.1719 82.3125 26.8594C81.2292 26.5469 80.3229 26.1146 79.5938 25.5625C78.8646 25.0104 78.3125 24.3646 77.9375 23.625C77.5729 22.875 77.3906 22.0625 77.3906 21.1875ZM82.2656 21.0312C82.2656 21.3333 82.3438 21.625 82.5 21.9062C82.6562 22.1771 82.9062 22.4219 83.25 22.6406C83.5938 22.849 84.0312 23.0208 84.5625 23.1562C85.1042 23.2812 85.7552 23.3438 86.5156 23.3438C87.3281 23.3438 88.1146 23.2708 88.875 23.125C89.6354 22.9792 90.3438 22.7865 91 22.5469C91.6562 22.3073 92.25 22.0312 92.7812 21.7188C93.3125 21.4062 93.7552 21.0833 94.1094 20.75V19.9375C93.401 19.7396 92.6979 19.5729 92 19.4375C91.3125 19.3021 90.651 19.1979 90.0156 19.125C89.3906 19.0417 88.7969 18.9844 88.2344 18.9531C87.6823 18.9219 87.1979 18.9062 86.7812 18.9062C85.9167 18.9062 85.1979 18.9635 84.625 19.0781C84.0521 19.1927 83.5885 19.349 83.2344 19.5469C82.8802 19.7344 82.6302 19.9583 82.4844 20.2188C82.3385 20.4792 82.2656 20.75 82.2656 21.0312Z" stroke="#8D353A"/>
<path d="M104.984 1.07812H109.609V27H104.984V1.07812Z" stroke="#8D353A"/>
<path d="M116.125 2.57812H136.922V6.92188H121.078V11.7969H135.109V15.875H121.078V22.6719H137.25V27H116.125V2.57812Z" stroke="#8D353A"/>
<path d="M141.297 21.1875C141.297 20.3021 141.49 19.4948 141.875 18.7656C142.26 18.0365 142.839 17.4115 143.609 16.8906C144.38 16.3594 145.339 15.9531 146.484 15.6719C147.641 15.3802 148.984 15.2344 150.516 15.2344C151.651 15.2344 152.844 15.3177 154.094 15.4844C155.354 15.651 156.651 15.9062 157.984 16.25C157.932 15.6667 157.755 15.1302 157.453 14.6406C157.151 14.1406 156.729 13.7135 156.188 13.3594C155.656 12.9948 155.01 12.7135 154.25 12.5156C153.5 12.3177 152.646 12.2188 151.688 12.2188C151.167 12.2188 150.594 12.25 149.969 12.3125C149.344 12.375 148.698 12.4688 148.031 12.5938C147.365 12.7188 146.703 12.875 146.047 13.0625C145.401 13.25 144.797 13.474 144.234 13.7344L142.828 9.9375C143.526 9.6875 144.271 9.45833 145.062 9.25C145.865 9.04167 146.682 8.86458 147.516 8.71875C148.349 8.5625 149.182 8.44271 150.016 8.35938C150.849 8.27604 151.656 8.23438 152.438 8.23438C155.885 8.23438 158.448 9.11458 160.125 10.875C161.802 12.6354 162.641 15.3333 162.641 18.9688V27H158.016V25.2656C157.536 25.5469 157.01 25.8125 156.438 26.0625C155.875 26.3125 155.26 26.5312 154.594 26.7188C153.927 26.9062 153.208 27.0521 152.438 27.1562C151.677 27.2708 150.87 27.3281 150.016 27.3281C148.578 27.3281 147.312 27.1719 146.219 26.8594C145.135 26.5469 144.229 26.1146 143.5 25.5625C142.771 25.0104 142.219 24.3646 141.844 23.625C141.479 22.875 141.297 22.0625 141.297 21.1875ZM146.172 21.0312C146.172 21.3333 146.25 21.625 146.406 21.9062C146.562 22.1771 146.812 22.4219 147.156 22.6406C147.5 22.849 147.938 23.0208 148.469 23.1562C149.01 23.2812 149.661 23.3438 150.422 23.3438C151.234 23.3438 152.021 23.2708 152.781 23.125C153.542 22.9792 154.25 22.7865 154.906 22.5469C155.562 22.3073 156.156 22.0312 156.688 21.7188C157.219 21.4062 157.661 21.0833 158.016 20.75V19.9375C157.307 19.7396 156.604 19.5729 155.906 19.4375C155.219 19.3021 154.557 19.1979 153.922 19.125C153.297 19.0417 152.703 18.9844 152.141 18.9531C151.589 18.9219 151.104 18.9062 150.688 18.9062C149.823 18.9062 149.104 18.9635 148.531 19.0781C147.958 19.1927 147.495 19.349 147.141 19.5469C146.786 19.7344 146.536 19.9583 146.391 20.2188C146.245 20.4792 146.172 20.75 146.172 21.0312Z" stroke="#8D353A"/>
<path d="M169.5 21.3438C170.75 22.0938 172.125 22.6458 173.625 23C175.125 23.3542 176.661 23.5312 178.234 23.5312C179.297 23.5312 180.182 23.4583 180.891 23.3125C181.599 23.1667 182.167 22.9792 182.594 22.75C183.021 22.5208 183.323 22.2604 183.5 21.9688C183.677 21.6771 183.766 21.3802 183.766 21.0781C183.766 20.6406 183.573 20.2656 183.188 19.9531C182.812 19.6406 182.188 19.4844 181.312 19.4844C180.906 19.4844 180.469 19.5104 180 19.5625C179.531 19.6146 179.036 19.6719 178.516 19.7344C178.005 19.7865 177.469 19.8385 176.906 19.8906C176.354 19.9427 175.792 19.9688 175.219 19.9688C173.969 19.9688 172.901 19.8333 172.016 19.5625C171.141 19.2917 170.427 18.9219 169.875 18.4531C169.323 17.9844 168.922 17.4323 168.672 16.7969C168.422 16.151 168.297 15.4583 168.297 14.7188C168.297 13.7812 168.516 12.9167 168.953 12.125C169.391 11.3333 170.016 10.651 170.828 10.0781C171.641 9.49479 172.62 9.04167 173.766 8.71875C174.922 8.39583 176.208 8.23438 177.625 8.23438C178.365 8.23438 179.135 8.28125 179.938 8.375C180.75 8.45833 181.547 8.57292 182.328 8.71875C183.109 8.86458 183.859 9.03646 184.578 9.23438C185.297 9.42188 185.932 9.625 186.484 9.84375L185.031 13.4375C183.854 13 182.677 12.6562 181.5 12.4062C180.333 12.1458 179.13 12.0156 177.891 12.0156C177.026 12.0156 176.292 12.0833 175.688 12.2188C175.094 12.3438 174.609 12.5156 174.234 12.7344C173.859 12.9427 173.583 13.1875 173.406 13.4688C173.24 13.7396 173.156 14.026 173.156 14.3281C173.156 14.5469 173.198 14.7448 173.281 14.9219C173.375 15.099 173.521 15.2552 173.719 15.3906C173.927 15.5156 174.193 15.6146 174.516 15.6875C174.849 15.75 175.255 15.7812 175.734 15.7812C176.172 15.7812 176.635 15.7552 177.125 15.7031C177.615 15.651 178.125 15.599 178.656 15.5469C179.188 15.4844 179.734 15.4271 180.297 15.375C180.87 15.3229 181.453 15.2969 182.047 15.2969C183.151 15.2969 184.115 15.4271 184.938 15.6875C185.771 15.9479 186.458 16.3125 187 16.7812C187.542 17.25 187.948 17.8021 188.219 18.4375C188.49 19.0729 188.625 19.7656 188.625 20.5156C188.625 21.4844 188.401 22.3854 187.953 23.2188C187.505 24.0521 186.839 24.776 185.953 25.3906C185.068 25.9948 183.964 26.4688 182.641 26.8125C181.328 27.1562 179.807 27.3281 178.078 27.3281C177.016 27.3281 175.99 27.2604 175 27.125C174.01 27 173.068 26.8281 172.172 26.6094C171.276 26.3802 170.432 26.1146 169.641 25.8125C168.859 25.5104 168.146 25.1875 167.5 24.8438L169.5 21.3438Z" stroke="#8D353A"/>
<path d="M191.922 17.7188C191.922 16.4688 192.177 15.276 192.688 14.1406C193.198 12.9948 193.932 11.9844 194.891 11.1094C195.849 10.2344 197.021 9.53646 198.406 9.01562C199.802 8.49479 201.385 8.23438 203.156 8.23438C204.917 8.23438 206.5 8.5 207.906 9.03125C209.323 9.55208 210.521 10.2708 211.5 11.1875C212.49 12.1042 213.245 13.1823 213.766 14.4219C214.297 15.6615 214.562 16.9896 214.562 18.4062C214.562 18.5833 214.557 18.776 214.547 18.9844C214.547 19.1823 214.536 19.3646 214.516 19.5312H197.078C197.276 20.0833 197.594 20.5885 198.031 21.0469C198.479 21.5052 199.036 21.901 199.703 22.2344C200.37 22.5677 201.141 22.8281 202.016 23.0156C202.891 23.1927 203.859 23.2812 204.922 23.2812C205.984 23.2812 207.042 23.1719 208.094 22.9531C209.146 22.724 210.151 22.4375 211.109 22.0938L212.672 25.625C212.068 25.9062 211.453 26.1562 210.828 26.375C210.214 26.5833 209.568 26.7604 208.891 26.9062C208.224 27.0417 207.521 27.1458 206.781 27.2188C206.052 27.2917 205.281 27.3281 204.469 27.3281C202.396 27.3281 200.578 27.0781 199.016 26.5781C197.453 26.0781 196.146 25.3958 195.094 24.5312C194.042 23.6667 193.25 22.651 192.719 21.4844C192.188 20.3177 191.922 19.0625 191.922 17.7188ZM209.656 15.9219C209.49 15.4115 209.229 14.9375 208.875 14.5C208.531 14.0521 208.099 13.6667 207.578 13.3438C207.057 13.0104 206.453 12.75 205.766 12.5625C205.078 12.375 204.323 12.2812 203.5 12.2812C202.625 12.2812 201.828 12.3802 201.109 12.5781C200.391 12.776 199.76 13.0417 199.219 13.375C198.677 13.7083 198.224 14.0938 197.859 14.5312C197.505 14.9688 197.245 15.4323 197.078 15.9219H209.656Z" stroke="#8D353A"/>
</svg>
