<svg width="37" height="32" viewBox="0 0 37 32" fill="none" xmlns="http://www.w3.org/2000/svg">
<g id="Group 7086">
<path id="Vector" fill-rule="evenodd" clip-rule="evenodd" d="M0.5 11.3896V28.9709C0.5 29.7479 0.808067 30.493 1.3589 31.0421C1.90803 31.5929 2.6531 31.901 3.43012 31.901H33.5695C34.3465 31.901 35.0916 31.5929 35.6407 31.0421C36.1915 30.493 36.4996 29.7479 36.4996 28.9709V11.3896C36.4996 10.6964 35.937 10.1338 35.2438 10.1338C34.5505 10.1338 33.988 10.6964 33.988 11.3896V28.9709C33.988 29.0813 33.9445 29.1887 33.8657 29.2672C33.787 29.3459 33.6799 29.3894 33.5695 29.3894H3.43012C3.31967 29.3894 3.21231 29.3459 3.13383 29.2672C3.05505 29.1884 3.01161 29.0813 3.01161 28.9709V11.3896C3.01161 10.6964 2.44902 10.1338 1.75581 10.1338C1.06259 10.1338 0.5 10.6964 0.5 11.3896Z" fill="white"/>
<path id="Vector_2" fill-rule="evenodd" clip-rule="evenodd" d="M29.0067 4.70433C29.0067 3.48354 28.5212 2.31155 27.6587 1.44763C26.7948 0.585355 25.6225 0.0996094 24.402 0.0996094H12.6814C11.4606 0.0996094 10.2886 0.585111 9.42468 1.44763C8.56241 2.31155 8.07666 3.48383 8.07666 4.70433V7.21594C8.07666 7.90916 8.63925 8.47174 9.33247 8.47174H27.7512C28.4444 8.47174 29.007 7.90916 29.007 7.21594L29.0067 4.70433ZM26.4951 4.70433V5.96013H10.588V4.70433C10.588 4.14846 10.8089 3.61752 11.2008 3.22427C11.5943 2.83239 12.125 2.6115 12.6808 2.6115H24.4014C24.9573 2.6115 25.4882 2.83239 25.8815 3.22427C26.2734 3.61783 26.4942 4.14847 26.4942 4.70433H26.4951Z" fill="white"/>
<path id="Vector_3" fill-rule="evenodd" clip-rule="evenodd" d="M36.4996 11.39V8.87836C36.4996 7.2593 35.1869 5.94824 33.5695 5.94824H3.43012C1.81271 5.94824 0.5 7.2593 0.5 8.87836V11.39C0.5 14.8577 3.31128 17.669 6.77903 17.669H30.221C33.6887 17.669 36.5 14.8577 36.5 11.39H36.4996ZM33.988 8.87836V11.39C33.988 13.4713 32.3019 15.1574 30.2205 15.1574H6.7786C4.69726 15.1574 3.01118 13.4713 3.01118 11.39V8.87836C3.01118 8.64738 3.19871 8.45985 3.42969 8.45985H33.569C33.8 8.45985 33.9875 8.64738 33.9875 8.87836H33.988Z" fill="white"/>
<path id="Vector_4" fill-rule="evenodd" clip-rule="evenodd" d="M25.6162 14.7382V18.9242C25.6162 19.6174 26.1788 20.18 26.872 20.18C27.5652 20.18 28.1278 19.6174 28.1278 18.9242V14.7382C28.1278 14.045 27.5652 13.4824 26.872 13.4824C26.1788 13.4824 25.6162 14.045 25.6162 14.7382Z" fill="white"/>
<path id="Vector_5" fill-rule="evenodd" clip-rule="evenodd" d="M8.87207 14.7382V18.9242C8.87207 19.6174 9.43466 20.18 10.1279 20.18C10.8211 20.18 11.3837 19.6174 11.3837 18.9242V14.7382C11.3837 14.045 10.8211 13.4824 10.1279 13.4824C9.43466 13.4824 8.87207 14.045 8.87207 14.7382Z" fill="white"/>
</g>
</svg>
