<svg width="33" height="17" viewBox="0 0 33 17" fill="none" xmlns="http://www.w3.org/2000/svg">
<path id="Vector" d="M31.511 6.14231C32.4124 5.86782 32.4124 4.57471 31.511 4.33927L18.4988 0.459057C17.8326 0.263034 17.1663 0.18457 16.5 0.18457C15.8337 0.18457 15.1675 0.263034 14.5012 0.459057L1.48902 4.33927C0.587644 4.61376 0.587644 5.86782 1.48902 6.14231L6.42732 7.63173V12.0998C6.42732 13.0012 7.01511 13.8244 7.91674 14.0986L11.1698 15.0393C14.6971 16.0976 18.499 16.0976 22.0656 15.0393L25.2796 14.0986C26.1418 13.8241 26.769 13.0403 26.769 12.0998L26.7687 7.55327L29.7082 6.69102V11.2375H29.5515C29.3164 11.2375 29.1204 11.4335 29.1204 11.6687V13.785C29.1204 14.0201 29.3164 14.2161 29.5515 14.2161H29.63L28.9635 15.5095C28.8459 15.784 29.0026 16.0973 29.3162 16.0973H31.3543C31.6679 16.0973 31.8639 15.7837 31.707 15.5095L31.0407 14.177H31.1192C31.3543 14.177 31.5503 13.981 31.5503 13.7458V11.6295C31.5503 11.3944 31.3543 11.1984 31.1192 11.1984H30.9625V6.29894L31.511 6.14231Z" fill="white"/>
</svg>
