<svg width="298" height="143" viewBox="0 0 298 143" fill="none" xmlns="http://www.w3.org/2000/svg">
<path d="M29.7981 142.455H24.8863V124.31H4.91178V142.455H0V103.548H4.91178V120.005H24.8863V103.548H29.7981V142.455Z" fill="#010155"/>
<path d="M50.8757 112.757C54.4413 112.757 57.0791 113.538 58.7891 115.101C60.4992 116.663 61.3542 119.151 61.3542 122.566V142.455H57.8614L56.9336 138.314H56.7153C55.8784 139.367 55.0052 140.257 54.0957 140.984C53.2224 141.674 52.2037 142.183 51.0394 142.51C49.9115 142.837 48.529 143 46.8917 143C45.1453 143 43.5626 142.691 42.1437 142.074C40.7611 141.456 39.6696 140.512 38.8691 139.24C38.0687 137.932 37.6685 136.298 37.6685 134.336C37.6685 131.43 38.8146 129.196 41.1067 127.633C43.3989 126.035 46.9281 125.163 51.6943 125.018L56.6607 124.854V123.111C56.6607 120.677 56.1331 118.988 55.078 118.043C54.0229 117.099 52.5312 116.626 50.6028 116.626C49.0747 116.626 47.6194 116.862 46.2368 117.335C44.8542 117.771 43.5626 118.279 42.362 118.86L40.8884 115.264C42.1618 114.574 43.6718 113.993 45.4182 113.52C47.1646 113.012 48.9838 112.757 50.8757 112.757ZM52.2947 128.342C48.6563 128.487 46.1277 129.068 44.7087 130.086C43.3261 131.103 42.6348 132.538 42.6348 134.39C42.6348 136.025 43.126 137.224 44.1084 137.987C45.1271 138.75 46.4187 139.131 47.9832 139.131C50.4573 139.131 52.513 138.459 54.1502 137.115C55.7875 135.734 56.6061 133.628 56.6061 130.794V128.178L52.2947 128.342Z" fill="#010155"/>
<path d="M84.0328 112.703C84.5785 112.703 85.1607 112.739 85.7792 112.812C86.4341 112.848 86.998 112.921 87.471 113.03L86.8707 117.444C86.3977 117.335 85.8701 117.244 85.288 117.171C84.7423 117.099 84.2147 117.062 83.7053 117.062C82.5774 117.062 81.5041 117.298 80.4854 117.771C79.4666 118.243 78.5571 118.915 77.7566 119.787C76.9562 120.622 76.3195 121.639 75.8465 122.838C75.4099 124.037 75.1916 125.381 75.1916 126.871V142.455H70.3889V113.248H74.3184L74.8641 118.588H75.0824C75.7009 117.498 76.4468 116.517 77.32 115.645C78.1932 114.737 79.1938 114.029 80.3217 113.52C81.4495 112.975 82.6866 112.703 84.0328 112.703Z" fill="#010155"/>
<path d="M125.024 112.703C128.334 112.703 130.809 113.557 132.446 115.264C134.083 116.935 134.902 119.66 134.902 123.438V142.455H130.154V123.656C130.154 121.367 129.662 119.641 128.68 118.479C127.734 117.316 126.242 116.735 124.205 116.735C121.367 116.735 119.329 117.553 118.092 119.187C116.892 120.822 116.291 123.202 116.291 126.326V142.455H111.543V123.656C111.543 122.13 111.325 120.858 110.889 119.841C110.452 118.788 109.797 118.007 108.924 117.498C108.051 116.99 106.923 116.735 105.54 116.735C103.575 116.735 102.029 117.153 100.901 117.989C99.7734 118.788 98.9547 119.968 98.4454 121.53C97.9724 123.093 97.7359 125.018 97.7359 127.307V142.455H92.9332V113.248H96.8081L97.5176 117.226H97.7904C98.409 116.209 99.1548 115.373 100.028 114.719C100.938 114.029 101.938 113.52 103.03 113.193C104.121 112.866 105.249 112.703 106.413 112.703C108.669 112.703 110.543 113.103 112.035 113.902C113.563 114.701 114.672 115.936 115.364 117.607H115.637C116.619 115.936 117.947 114.701 119.621 113.902C121.331 113.103 123.132 112.703 125.024 112.703Z" fill="#010155"/>
<path d="M169.37 127.797C169.37 130.231 169.042 132.392 168.387 134.281C167.769 136.134 166.859 137.714 165.659 139.022C164.494 140.33 163.057 141.329 161.347 142.019C159.674 142.673 157.8 143 155.726 143C153.798 143 152.015 142.673 150.378 142.019C148.74 141.329 147.321 140.33 146.121 139.022C144.92 137.714 143.974 136.134 143.283 134.281C142.628 132.392 142.3 130.231 142.3 127.797C142.3 124.564 142.846 121.839 143.938 119.623C145.029 117.371 146.594 115.664 148.631 114.501C150.669 113.302 153.088 112.703 155.89 112.703C158.546 112.703 160.874 113.302 162.875 114.501C164.913 115.664 166.496 117.371 167.623 119.623C168.788 121.839 169.37 124.564 169.37 127.797ZM147.267 127.797C147.267 130.086 147.558 132.084 148.14 133.791C148.759 135.462 149.705 136.752 150.978 137.66C152.251 138.568 153.87 139.022 155.835 139.022C157.8 139.022 159.419 138.568 160.692 137.66C161.966 136.752 162.894 135.462 163.476 133.791C164.094 132.084 164.403 130.086 164.403 127.797C164.403 125.472 164.094 123.492 163.476 121.857C162.857 120.223 161.911 118.969 160.638 118.098C159.401 117.189 157.782 116.735 155.781 116.735C152.797 116.735 150.632 117.716 149.286 119.678C147.94 121.639 147.267 124.346 147.267 127.797Z" fill="#010155"/>
<path d="M191.062 112.703C194.555 112.703 197.192 113.557 198.975 115.264C200.758 116.935 201.649 119.66 201.649 123.438V142.455H196.901V123.765C196.901 121.403 196.374 119.641 195.319 118.479C194.264 117.316 192.608 116.735 190.352 116.735C187.114 116.735 184.877 117.643 183.64 119.46C182.403 121.276 181.784 123.892 181.784 127.307V142.455H176.981V113.248H180.856L181.566 117.226H181.839C182.493 116.209 183.294 115.373 184.24 114.719C185.222 114.029 186.296 113.52 187.46 113.193C188.624 112.866 189.825 112.703 191.062 112.703Z" fill="#010155"/>
<path d="M215.52 113.248V142.455H210.718V113.248H215.52ZM213.174 102.295C213.901 102.295 214.538 102.549 215.084 103.058C215.666 103.53 215.957 104.293 215.957 105.347C215.957 106.364 215.666 107.127 215.084 107.635C214.538 108.144 213.901 108.398 213.174 108.398C212.373 108.398 211.7 108.144 211.154 107.635C210.609 107.127 210.336 106.364 210.336 105.347C210.336 104.293 210.609 103.53 211.154 103.058C211.7 102.549 212.373 102.295 213.174 102.295Z" fill="#010155"/>
<path d="M249.893 142.455L245.199 130.413H229.754L225.116 142.455H220.149L235.376 103.385H239.796L254.968 142.455H249.893ZM239.36 114.283C239.251 113.993 239.069 113.466 238.814 112.703C238.559 111.94 238.305 111.159 238.05 110.36C237.832 109.524 237.65 108.889 237.504 108.453C237.322 109.179 237.122 109.924 236.904 110.687C236.722 111.413 236.522 112.085 236.303 112.703C236.122 113.32 235.958 113.847 235.812 114.283L231.392 126.053H243.726L239.36 114.283Z" fill="#010155"/>
<path d="M264.446 113.248V142.455H259.644V113.248H264.446ZM262.1 102.295C262.827 102.295 263.464 102.549 264.01 103.058C264.592 103.53 264.883 104.293 264.883 105.347C264.883 106.364 264.592 107.127 264.01 107.635C263.464 108.144 262.827 108.398 262.1 108.398C261.299 108.398 260.626 108.144 260.08 107.635C259.535 107.127 259.262 106.364 259.262 105.347C259.262 104.293 259.535 103.53 260.08 103.058C260.626 102.549 261.299 102.295 262.1 102.295Z" fill="#010155"/>
<path d="M284.083 143C280.445 143 277.534 141.747 275.351 139.24C273.168 136.697 272.077 132.919 272.077 127.906C272.077 122.893 273.168 119.115 275.351 116.572C277.571 113.993 280.5 112.703 284.138 112.703C285.666 112.703 286.994 112.903 288.122 113.302C289.25 113.666 290.232 114.174 291.069 114.828C291.906 115.482 292.615 116.209 293.197 117.008H293.525C293.488 116.535 293.416 115.845 293.307 114.937C293.234 113.993 293.197 113.248 293.197 112.703V101.042H298V142.455H294.125L293.416 138.532H293.197C292.615 139.367 291.906 140.13 291.069 140.82C290.232 141.474 289.232 142.001 288.067 142.401C286.939 142.8 285.611 143 284.083 143ZM284.847 139.022C287.94 139.022 290.105 138.187 291.342 136.516C292.615 134.808 293.252 132.247 293.252 128.832V127.96C293.252 124.328 292.652 121.549 291.451 119.623C290.25 117.662 288.031 116.681 284.793 116.681C282.21 116.681 280.263 117.716 278.953 119.787C277.68 121.821 277.043 124.564 277.043 128.015C277.043 131.502 277.68 134.209 278.953 136.134C280.263 138.059 282.228 139.022 284.847 139.022Z" fill="#010155"/>
<path d="M150.844 0.316182C149.473 0.748419 149.401 1.61289 149.04 12.2747C148.823 18.6862 148.39 23.657 148.03 23.5849C147.669 23.5129 145.937 19.4787 144.206 14.652C142.546 9.75335 140.815 5.50302 140.454 5.14283C140.093 4.78263 138.939 4.63855 137.929 4.92671C135.403 5.57506 135.475 6.72769 138.578 17.3895C141.103 26.1063 141.68 31.4372 140.382 33.4543C139.804 34.3188 139.155 34.0307 136.63 31.5093C131.796 26.8267 125.807 24.8816 123.715 27.403C122.921 28.3395 123.426 29.0599 127.322 32.5178C129.992 34.8951 132.517 37.9928 133.672 40.226C136.341 45.629 138.578 48.2945 141.897 50.1675L144.855 51.8244L144.422 64.4313C144.134 71.3471 143.773 81.2885 143.556 86.4754L143.123 95.9846L145.937 96.4889C149.112 96.9931 161.305 95.6964 162.316 94.6879C162.676 94.3277 162.604 85.6109 162.171 73.7244L161.45 53.3372L163.47 50.8158C166.139 47.43 167.51 43.1076 168.088 36.1918C168.52 31.2211 168.953 29.8524 172.2 24.3053C176.313 17.2455 177.323 13.7876 175.447 13.0672C173.355 12.2747 172.272 13.2833 167.799 20.2711C165.418 24.0892 163.253 26.9708 163.109 26.8267C162.893 26.6106 163.759 22.1441 165.057 16.8132C167.438 6.51158 167.438 3.19776 164.985 3.19776C162.893 3.19776 162.316 4.35039 159.502 14.58C157.986 19.7668 156.543 24.0892 156.183 24.0892C155.822 24.0892 155.533 20.127 155.533 15.2283C155.533 1.68493 154.668 -1.05257 150.844 0.316182ZM147.092 34.4629C149.906 35.6155 152.287 38.2089 152.936 40.6583C153.369 42.3152 153.369 42.3152 152.575 41.0185C150.916 38.2089 148.607 36.1198 145.793 34.8231C142.474 33.3103 143.556 32.9501 147.092 34.4629Z" fill="#010155"/>
<path d="M115.201 36.2643C114.191 36.9127 114.335 39.7942 115.634 48.0067C116.283 52.2571 114.984 51.2485 112.026 45.3413C109.573 40.2985 107.913 38.8577 106.831 40.7307C106.543 41.0909 107.481 44.1886 108.924 47.5025C112.387 55.5709 112.459 60.3255 108.996 56.5074C107.553 54.9225 102.574 53.2656 101.42 53.986C100.41 54.6344 100.554 56.5074 101.564 56.5074C101.997 56.5074 104.883 59.0288 107.841 62.1985C110.872 65.2962 113.758 67.9617 114.263 68.1057C114.984 68.3219 115.489 71.2034 116.067 77.759L116.932 87.1242L122.993 90.2218C126.312 91.8788 129.126 93.1755 129.27 93.1034C129.342 92.9594 128.621 87.3403 127.538 80.5686C125.735 68.4659 125.735 68.1778 127.033 65.4403C127.899 63.6393 128.332 61.19 128.26 58.1643C128.188 54.8505 128.621 52.6173 129.919 49.6636C133.599 41.3791 131.146 39.0738 127.033 46.9261L124.508 51.8248L124.869 47.8627C125.085 45.7015 125.446 42.7479 125.663 41.3791C126.023 38.4975 125.158 36.6965 123.57 37.2729C122.849 37.561 122.199 39.6502 121.622 43.8284C121.117 47.2143 120.54 50.0238 120.251 50.0238C119.963 50.0238 119.313 47.2143 118.88 43.7564C118.015 37.2729 117.004 35.1837 115.201 36.2643ZM118.447 58.8127L119.818 60.4696L118.015 59.0288C117.004 58.2363 116.067 57.5159 115.922 57.4439C115.778 57.2998 115.922 57.2278 116.355 57.2278C116.716 57.2278 117.654 57.9482 118.447 58.8127Z" fill="#010155"/>
<path d="M182.012 39.7215C181.796 40.0817 181.435 42.9633 181.146 46.2771C180.858 49.5189 180.353 52.4004 180.064 52.5445C179.703 52.7606 178.91 50.4554 178.188 47.4297C177.467 44.4041 176.457 41.7386 175.879 41.5945C173.859 40.8021 173.571 42.531 174.725 48.2222C175.302 51.3919 175.591 55.1379 175.374 56.5067L174.869 59.0281L173.426 57.2271C171.55 54.9218 168.52 52.9047 166.933 52.9047C165.129 52.9047 165.273 55.21 167.149 56.3626C167.943 56.8669 169.53 59.3162 170.612 61.8376C171.767 64.287 173.499 66.9524 174.509 67.7449L176.312 69.1136L174.942 79.1991C174.22 84.7462 173.643 89.7169 173.571 90.2212C173.571 91.3738 179.559 88.2761 182.878 85.3945C184.97 83.6656 185.115 83.1613 185.548 77.0379C185.908 71.707 186.341 70.1942 187.64 68.7534C189.372 66.8083 190.887 62.9902 190.887 60.5409C190.887 59.6764 192.186 57.083 193.773 54.7057C198.535 47.5738 196.948 44.9083 191.897 51.4639C190.382 53.481 189.011 54.8498 188.867 54.4896C188.794 54.2014 189.372 52.0402 190.165 49.6629C191.969 44.4761 192.041 41.8827 190.454 42.2429C189.732 42.387 188.434 44.6922 187.135 47.862C185.981 50.8156 184.826 53.409 184.61 53.6251C184.393 53.8412 184.393 50.7435 184.538 46.7814C184.754 40.586 184.61 39.5774 183.527 39.3613C182.878 39.2172 182.229 39.4333 182.012 39.7215ZM181.435 61.7656C181.291 61.9817 180.353 61.0452 179.415 59.8205L177.683 57.5873L179.703 59.5324C180.858 60.6129 181.652 61.6215 181.435 61.7656Z" fill="#010155"/>
</svg>
