<svg width="150" height="21" viewBox="0 0 150 21" fill="none" xmlns="http://www.w3.org/2000/svg">
<path d="M15.488 3.08V20H10.784V13.208H5.048V20H0.344V3.08H5.048V9.44H10.784V3.08H15.488ZM17.4119 13.256C17.4119 11.864 17.6599 10.648 18.1559 9.608C18.6679 8.568 19.3559 7.768 20.2199 7.208C21.0999 6.648 22.0759 6.368 23.1479 6.368C24.0759 6.368 24.8759 6.552 25.5479 6.92C26.2199 7.288 26.7399 7.784 27.1079 8.408V6.536H31.8119V20H27.1079V18.128C26.7399 18.752 26.2119 19.248 25.5239 19.616C24.8519 19.984 24.0599 20.168 23.1479 20.168C22.0759 20.168 21.0999 19.888 20.2199 19.328C19.3559 18.768 18.6679 17.968 18.1559 16.928C17.6599 15.872 17.4119 14.648 17.4119 13.256ZM27.1079 13.256C27.1079 12.392 26.8679 11.712 26.3879 11.216C25.9239 10.72 25.3479 10.472 24.6599 10.472C23.9559 10.472 23.3719 10.72 22.9079 11.216C22.4439 11.696 22.2119 12.376 22.2119 13.256C22.2119 14.12 22.4439 14.808 22.9079 15.32C23.3719 15.816 23.9559 16.064 24.6599 16.064C25.3479 16.064 25.9239 15.816 26.3879 15.32C26.8679 14.824 27.1079 14.136 27.1079 13.256ZM39.1964 8.912C39.7244 8.144 40.3644 7.536 41.1164 7.088C41.8684 6.64 42.6764 6.416 43.5404 6.416V11.432H42.2204C41.1964 11.432 40.4364 11.632 39.9404 12.032C39.4444 12.432 39.1964 13.128 39.1964 14.12V20H34.4924V6.536H39.1964V8.912ZM62.8188 6.416C64.5148 6.416 65.8428 6.928 66.8028 7.952C67.7788 8.976 68.2668 10.376 68.2668 12.152V20H63.5628V12.776C63.5628 12.056 63.3628 11.496 62.9628 11.096C62.5628 10.696 62.0188 10.496 61.3308 10.496C60.6428 10.496 60.0988 10.696 59.6988 11.096C59.2988 11.496 59.0988 12.056 59.0988 12.776V20H54.3948V12.776C54.3948 12.056 54.1948 11.496 53.7948 11.096C53.4108 10.696 52.8748 10.496 52.1868 10.496C51.4828 10.496 50.9308 10.696 50.5308 11.096C50.1308 11.496 49.9308 12.056 49.9308 12.776V20H45.2268V6.536H49.9308V8.312C50.3468 7.736 50.8828 7.28 51.5388 6.944C52.2108 6.592 52.9788 6.416 53.8428 6.416C54.8348 6.416 55.7148 6.632 56.4828 7.064C57.2668 7.496 57.8828 8.104 58.3308 8.888C58.8108 8.152 59.4428 7.56 60.2268 7.112C61.0108 6.648 61.8748 6.416 62.8188 6.416ZM77.108 20.168C75.764 20.168 74.556 19.888 73.484 19.328C72.428 18.768 71.596 17.968 70.988 16.928C70.38 15.888 70.076 14.664 70.076 13.256C70.076 11.864 70.38 10.648 70.988 9.608C71.612 8.568 72.452 7.768 73.508 7.208C74.58 6.648 75.788 6.368 77.132 6.368C78.476 6.368 79.676 6.648 80.732 7.208C81.804 7.768 82.644 8.568 83.252 9.608C83.876 10.648 84.188 11.864 84.188 13.256C84.188 14.648 83.876 15.872 83.252 16.928C82.644 17.968 81.804 18.768 80.732 19.328C79.66 19.888 78.452 20.168 77.108 20.168ZM77.108 16.088C77.764 16.088 78.308 15.848 78.74 15.368C79.188 14.872 79.412 14.168 79.412 13.256C79.412 12.344 79.188 11.648 78.74 11.168C78.308 10.688 77.772 10.448 77.132 10.448C76.492 10.448 75.956 10.688 75.524 11.168C75.092 11.648 74.876 12.344 74.876 13.256C74.876 14.184 75.084 14.888 75.5 15.368C75.916 15.848 76.452 16.088 77.108 16.088ZM94.9098 6.416C96.4618 6.416 97.6938 6.936 98.6058 7.976C99.5178 9 99.9738 10.392 99.9738 12.152V20H95.2698V12.776C95.2698 12.008 95.0698 11.408 94.6698 10.976C94.2698 10.528 93.7338 10.304 93.0618 10.304C92.3578 10.304 91.8058 10.528 91.4058 10.976C91.0058 11.408 90.8058 12.008 90.8058 12.776V20H86.1018V6.536H90.8058V8.456C91.2218 7.848 91.7818 7.36 92.4858 6.992C93.1898 6.608 93.9978 6.416 94.9098 6.416ZM104.931 5.288C104.099 5.288 103.427 5.064 102.915 4.616C102.419 4.152 102.171 3.576 102.171 2.888C102.171 2.184 102.419 1.6 102.915 1.136C103.427 0.671999 104.099 0.439999 104.931 0.439999C105.747 0.439999 106.403 0.671999 106.899 1.136C107.411 1.6 107.667 2.184 107.667 2.888C107.667 3.576 107.411 4.152 106.899 4.616C106.403 5.064 105.747 5.288 104.931 5.288ZM107.259 6.536V20H102.555V6.536H107.259ZM120.642 17.24H114.642L113.73 20H108.786L114.954 3.08H120.378L126.522 20H121.554L120.642 17.24ZM119.466 13.64L117.642 8.168L115.842 13.64H119.466ZM130.431 5.288C129.599 5.288 128.927 5.064 128.415 4.616C127.919 4.152 127.671 3.576 127.671 2.888C127.671 2.184 127.919 1.6 128.415 1.136C128.927 0.671999 129.599 0.439999 130.431 0.439999C131.247 0.439999 131.903 0.671999 132.399 1.136C132.911 1.6 133.167 2.184 133.167 2.888C133.167 3.576 132.911 4.152 132.399 4.616C131.903 5.064 131.247 5.288 130.431 5.288ZM132.759 6.536V20H128.055V6.536H132.759ZM134.67 13.256C134.67 11.864 134.918 10.648 135.414 9.608C135.926 8.568 136.622 7.768 137.502 7.208C138.382 6.648 139.358 6.368 140.43 6.368C141.294 6.368 142.062 6.552 142.734 6.92C143.422 7.272 143.958 7.76 144.342 8.384V2.24H149.07V20H144.342V18.128C143.974 18.752 143.454 19.248 142.782 19.616C142.11 19.984 141.318 20.168 140.406 20.168C139.334 20.168 138.358 19.888 137.478 19.328C136.614 18.768 135.926 17.968 135.414 16.928C134.918 15.872 134.67 14.648 134.67 13.256ZM144.366 13.256C144.366 12.392 144.126 11.712 143.646 11.216C143.182 10.72 142.606 10.472 141.918 10.472C141.214 10.472 140.63 10.72 140.166 11.216C139.702 11.696 139.47 12.376 139.47 13.256C139.47 14.12 139.702 14.808 140.166 15.32C140.63 15.816 141.214 16.064 141.918 16.064C142.606 16.064 143.182 15.816 143.646 15.32C144.126 14.824 144.366 14.136 144.366 13.256Z" fill="#010155"/>
</svg>
