<svg width="134" height="134" viewBox="0 0 134 134" fill="none" xmlns="http://www.w3.org/2000/svg">
<g clip-path="url(#clip0_2962_74)">
<path d="M64.2539 63.8125L49.3083 88.7181L43.8459 85.4419L52.0875 71.7019L52.9959 70.1875H51.23H32.0588L47.0044 45.282L52.4668 48.5581L44.2252 62.2981L43.3168 63.8125H45.0827H64.2539Z" fill="black" stroke="white" stroke-width="2"/>
<path d="M120.438 29.3125V30.3125H121.438H124.625V53.4375H121.438H120.438V54.4375V102.594C120.438 106.216 118.999 109.689 116.438 112.25C113.877 114.811 110.403 116.25 106.781 116.25C103.159 116.25 99.6859 114.811 97.1248 112.25C94.5638 109.689 93.125 106.216 93.125 102.594V71.1875V70.1875H92.125H79.5625H78.5625V71.1875V108.875V109.875H79.5625H86.9375V116.25H9.375V109.875H16.75H17.75V108.875V20.9375C17.75 20.0921 18.0858 19.2814 18.6836 18.6836C19.2814 18.0858 20.0921 17.75 20.9375 17.75H75.375C76.2204 17.75 77.0311 18.0858 77.6289 18.6836C78.2267 19.2814 78.5625 20.0921 78.5625 20.9375V62.8125V63.8125H79.5625H96.3125C97.1579 63.8125 97.9686 64.1483 98.5664 64.7461C99.1642 65.3439 99.5 66.1546 99.5 67V102.594C99.5 104.525 100.267 106.377 101.633 107.742C102.998 109.108 104.85 109.875 106.781 109.875C108.712 109.875 110.564 109.108 111.93 107.742C113.295 106.377 114.062 104.525 114.062 102.594V54.4375V53.4375H113.062H109.875V30.3125H113.062H114.062V29.3125V17.75H120.438V29.3125ZM71.1875 109.875H72.1875V108.875V25.125V24.125H71.1875H25.125H24.125V25.125V108.875V109.875H25.125H71.1875Z" fill="black" stroke="white" stroke-width="2"/>
</g>
<defs>
<clipPath id="clip0_2962_74">
<rect width="134" height="134" fill="white"/>
</clipPath>
</defs>
</svg>
