<svg width="40" height="40" viewBox="0 0 40 40" fill="none" xmlns="http://www.w3.org/2000/svg">
<path d="M0 20C0 8.95431 8.95431 0 20 0C31.0457 0 40 8.95431 40 20C40 31.0457 31.0457 40 20 40C8.95431 40 0 31.0457 0 20Z" fill="white"/>
<path d="M28.9 19.599C28.8 19.499 28.8 19.399 28.7 19.299L25.7 16.299C25.3 15.899 24.7 15.899 24.3 16.299C23.9 16.699 23.9 17.299 24.3 17.699L25.6 18.999H21C20.4 18.999 20 19.399 20 19.999C20 20.599 20.4 20.999 21 20.999H25.6L24.3 22.299C23.9 22.699 23.9 23.299 24.3 23.699C24.5 23.899 24.8 23.999 25 23.999C25.2 23.999 25.5 23.899 25.7 23.699L28.7 20.699C28.8 20.599 28.9 20.499 28.9 20.399C29 20.099 29 19.899 28.9 19.599Z" fill="#696868"/>
<path d="M23.5 26.1C22.4 26.7 21.2 27 20 27C16.1 27 13 23.9 13 20C13 16.1 16.1 13 20 13C21.2 13 22.4 13.3 23.5 13.9C24 14.2 24.6 14 24.9 13.5C25.2 13 25 12.4 24.5 12.1C23.1 11.4 21.6 11 20 11C15 11 11 15 11 20C11 25 15 29 20 29C21.6 29 23.1 28.6 24.5 27.8C25 27.5 25.1 26.9 24.9 26.4C24.6 26 24 25.8 23.5 26.1Z" fill="#696868"/>
</svg>
