<svg width="134" height="134" viewBox="0 0 134 134" fill="none" xmlns="http://www.w3.org/2000/svg">
<g clip-path="url(#clip0_2962_57)">
<path d="M92.125 37.6875H91.3294C91.8455 36.3512 92.1151 34.9324 92.125 33.5V25.125C92.125 21.7932 90.8015 18.5979 88.4455 16.242C86.0896 13.886 82.8943 12.5625 79.5625 12.5625H12.5625C9.23072 12.5625 6.0354 13.886 3.67947 16.242C1.32355 18.5979 0 21.7932 0 25.125L0 33.5C0.0154397 36.2507 0.933307 38.9204 2.61267 41.099C4.29204 43.2776 6.64007 44.8448 9.29625 45.56C8.69186 47.05 8.37911 48.6421 8.375 50.25V58.625C8.37911 60.2329 8.69186 61.825 9.29625 63.315C6.64007 64.0302 4.29204 65.5974 2.61267 67.776C0.933307 69.9546 0.0154397 72.6243 0 75.375L0 83.75C0.0154397 86.5007 0.933307 89.1704 2.61267 91.349C4.29204 93.5276 6.64007 95.0948 9.29625 95.81C8.69186 97.3 8.37911 98.8921 8.375 100.5V108.875C8.375 112.207 9.69855 115.402 12.0545 117.758C14.4104 120.114 17.6057 121.438 20.9375 121.438H92.125C103.231 121.438 113.882 117.026 121.735 109.173C129.588 101.32 134 90.6684 134 79.5625C134 68.4566 129.588 57.8055 121.735 49.9524C113.882 42.0993 103.231 37.6875 92.125 37.6875ZM53.7675 62.8125H20.9375C19.8269 62.8125 18.7618 62.3713 17.9765 61.586C17.1912 60.8007 16.75 59.7356 16.75 58.625V50.25C16.75 49.1394 17.1912 48.0743 17.9765 47.289C18.7618 46.5037 19.8269 46.0625 20.9375 46.0625H67C61.2163 50.409 56.6573 56.1798 53.7675 62.8125ZM8.375 25.125C8.375 24.0144 8.81618 22.9493 9.60149 22.164C10.3868 21.3787 11.4519 20.9375 12.5625 20.9375H79.5625C80.6731 20.9375 81.7382 21.3787 82.5235 22.164C83.3088 22.9493 83.75 24.0144 83.75 25.125V33.5C83.75 34.6106 83.3088 35.6757 82.5235 36.461C81.7382 37.2463 80.6731 37.6875 79.5625 37.6875H12.5625C11.4519 37.6875 10.3868 37.2463 9.60149 36.461C8.81618 35.6757 8.375 34.6106 8.375 33.5V25.125ZM8.375 75.375C8.375 74.2644 8.81618 73.1993 9.60149 72.414C10.3868 71.6287 11.4519 71.1875 12.5625 71.1875H51.0875C49.9708 76.715 49.9708 82.41 51.0875 87.9375H12.5625C11.4519 87.9375 10.3868 87.4963 9.60149 86.711C8.81618 85.9257 8.375 84.8606 8.375 83.75V75.375ZM20.9375 113.062C19.8269 113.062 18.7618 112.621 17.9765 111.836C17.1912 111.051 16.75 109.986 16.75 108.875V100.5C16.75 99.3894 17.1912 98.3243 17.9765 97.539C18.7618 96.7537 19.8269 96.3125 20.9375 96.3125H53.7675C56.6573 102.945 61.2163 108.716 67 113.062H20.9375ZM92.125 113.062C85.4993 113.062 79.0224 111.098 73.5134 107.417C68.0044 103.736 63.7106 98.5037 61.175 92.3824C58.6395 86.2611 57.9761 79.5253 59.2687 73.027C60.5613 66.5286 63.7519 60.5595 68.4369 55.8744C73.122 51.1894 79.0911 47.9988 85.5895 46.7062C92.0878 45.4136 98.8236 46.077 104.945 48.6125C111.066 51.1481 116.298 55.4418 119.979 60.9509C123.66 66.4599 125.625 72.9368 125.625 79.5625C125.625 88.4473 122.096 96.9681 115.813 103.251C109.531 109.533 101.01 113.062 92.125 113.062Z" fill="black"/>
<path d="M92.125 67H100.5C101.611 67 102.676 66.5588 103.461 65.7735C104.246 64.9882 104.688 63.9231 104.688 62.8125C104.688 61.7019 104.246 60.6368 103.461 59.8515C102.676 59.0662 101.611 58.625 100.5 58.625H96.3125C96.3125 57.5144 95.8713 56.4493 95.086 55.664C94.3007 54.8787 93.2356 54.4375 92.125 54.4375C91.0144 54.4375 89.9493 54.8787 89.164 55.664C88.3787 56.4493 87.9375 57.5144 87.9375 58.625V59.3788C85.168 60.3837 82.8398 62.33 81.3599 64.8775C79.88 67.425 79.3425 70.4116 79.8414 73.3152C80.3403 76.2188 81.8438 78.8547 84.0892 80.7621C86.3346 82.6696 89.1789 83.7271 92.125 83.75C93.2356 83.75 94.3007 84.1912 95.086 84.9765C95.8713 85.7618 96.3125 86.8269 96.3125 87.9375C96.3125 89.0481 95.8713 90.1132 95.086 90.8985C94.3007 91.6838 93.2356 92.125 92.125 92.125H83.75C82.6394 92.125 81.5743 92.5662 80.789 93.3515C80.0037 94.1368 79.5625 95.2019 79.5625 96.3125C79.5625 97.4231 80.0037 98.4882 80.789 99.2735C81.5743 100.059 82.6394 100.5 83.75 100.5H87.9375C87.9375 101.611 88.3787 102.676 89.164 103.461C89.9493 104.246 91.0144 104.688 92.125 104.688C93.2356 104.688 94.3007 104.246 95.086 103.461C95.8713 102.676 96.3125 101.611 96.3125 100.5V99.7463C99.082 98.7413 101.41 96.795 102.89 94.2475C104.37 91.7 104.908 88.7134 104.409 85.8098C103.91 82.9062 102.406 80.2703 100.161 78.3629C97.9154 76.4554 95.0711 75.3979 92.125 75.375C91.0144 75.375 89.9493 74.9338 89.164 74.1485C88.3787 73.3632 87.9375 72.2981 87.9375 71.1875C87.9375 70.0769 88.3787 69.0118 89.164 68.2265C89.9493 67.4412 91.0144 67 92.125 67Z" fill="black"/>
</g>
<defs>
<clipPath id="clip0_2962_57">
<rect width="134" height="134" fill="white"/>
</clipPath>
</defs>
</svg>
