<svg width="150" height="98" viewBox="0 0 150 98" fill="none" xmlns="http://www.w3.org/2000/svg">
<g clip-path="url(#clip0_2683_864)">
<path d="M43.2686 30.4079V10.8232H50.5994C52.7212 10.8232 54.5563 11.2163 56.0951 11.9928C57.6339 12.7788 58.8191 13.9004 59.6506 15.3671C60.4821 16.8338 60.8931 18.5785 60.8931 20.6108C60.8931 22.6431 60.4726 24.3686 59.6411 25.8353C58.8095 27.302 57.6148 28.4331 56.076 29.2192C54.5372 30.0053 52.7117 30.4079 50.5994 30.4079H43.2686ZM46.6233 27.5512H50.5994C52.8168 27.5512 54.5276 26.9281 55.7224 25.6915C56.9171 24.4549 57.5192 22.7581 57.5192 20.6108C57.5192 18.4635 56.9266 16.7571 55.7319 15.5205C54.5468 14.2839 52.8263 13.6704 50.5994 13.6704H46.6233V27.5512Z" fill="#241F20"/>
<path d="M65.5094 14.1588C64.9932 14.1588 64.5536 13.9767 64.1808 13.6124C63.8081 13.2481 63.6265 12.8072 63.6265 12.2703C63.6265 11.7335 63.8081 11.3117 64.1713 10.9378C64.5345 10.564 64.9837 10.3818 65.5094 10.3818C66.035 10.3818 66.4651 10.564 66.8379 10.9283C67.2106 11.2925 67.3922 11.7335 67.3922 12.2703C67.3922 12.8072 67.2106 13.2289 66.8474 13.6028C66.4842 13.9767 66.0446 14.1588 65.5094 14.1588ZM63.875 30.4075V15.9035H67.1533V30.4075H63.875Z" fill="#241F20"/>
<path d="M77.1027 36.4956C75.0287 36.4956 73.3465 36.0642 72.0371 35.2111C70.7373 34.3579 69.9631 33.1692 69.7241 31.6546H73.1936C73.6141 33.0925 74.8853 33.8019 77.0263 33.8019C78.4217 33.8019 79.4922 33.476 80.2281 32.8241C80.9641 32.1722 81.3368 31.2424 81.3368 30.0345V27.8584H81.2126C80.8112 28.6829 80.209 29.306 79.4062 29.7469C78.6033 30.1783 77.6475 30.3988 76.5388 30.3988C75.1721 30.3988 73.9869 30.092 72.9833 29.4881C71.9798 28.8842 71.196 28.031 70.6417 26.9286C70.0873 25.8262 69.8101 24.5128 69.8101 22.9982C69.8101 20.7263 70.4218 18.9241 71.6548 17.5916C72.8878 16.2591 74.5795 15.5977 76.73 15.5977C77.9152 15.5977 78.9378 15.8181 79.7789 16.2591C80.62 16.7001 81.2891 17.3423 81.7956 18.1859H82.8087V15.8852H86.2113V19.2021H84.5483V30.1112C84.5483 32.1435 83.8983 33.7156 82.608 34.8276C81.3177 35.9396 79.4826 36.4956 77.1027 36.4956ZM77.3417 27.5517C78.546 27.5517 79.5017 27.2066 80.209 26.526C80.9163 25.8453 81.2699 24.9155 81.2699 23.7555V22.2313C81.2699 21.0906 80.9163 20.1703 80.1995 19.4897C79.4826 18.809 78.5268 18.4639 77.3417 18.4639C76.0036 18.4639 74.9714 18.8666 74.2163 19.6622C73.4708 20.4579 73.098 21.5795 73.098 23.0078C73.098 24.4362 73.4708 25.5769 74.2163 26.3726C74.9618 27.1586 76.0036 27.5613 77.3417 27.5613V27.5517Z" fill="#241F20"/>
<path d="M90.3594 14.1588C89.8433 14.1588 89.4037 13.9767 89.0309 13.6124C88.6582 13.2481 88.4766 12.8072 88.4766 12.2703C88.4766 11.7335 88.6582 11.3117 89.0214 10.9378C89.3846 10.564 89.8338 10.3818 90.3594 10.3818C90.8851 10.3818 91.3152 10.564 91.688 10.9283C92.0607 11.2925 92.2423 11.7335 92.2423 12.2703C92.2423 12.8072 92.0607 13.2289 91.6975 13.6028C91.3343 13.9767 90.8947 14.1588 90.3594 14.1588ZM88.7155 30.4075V15.9035H91.9938V30.4075H88.7155Z" fill="#241F20"/>
<path d="M99.4011 30.4079C98.5123 30.4079 97.8336 30.1778 97.3366 29.7272C96.8492 29.2767 96.6007 28.5865 96.6007 27.6758V18.4634H94.001V15.9039H96.6294V11.5518H99.8599V15.9039H103.454V18.4634H99.8886V27.8196H103.817V30.4079H99.4011Z" fill="#241F20"/>
<path d="M110.67 30.667C109.016 30.667 107.707 30.2548 106.751 29.4304C105.795 28.606 105.317 27.5323 105.317 26.1903C105.317 24.8482 105.795 23.6978 106.761 22.9214C107.726 22.1449 109.102 21.7614 110.909 21.7614H115.487V21.1575C115.487 19.2211 114.397 18.2529 112.209 18.2529C110.364 18.2529 109.255 18.9239 108.882 20.2564H105.604C105.881 18.7609 106.589 17.601 107.736 16.7958C108.882 15.9905 110.383 15.5879 112.228 15.5879C114.302 15.5879 115.888 16.0672 116.978 17.0258C118.067 17.9844 118.612 19.3745 118.612 21.1958V27.0722H120.18V30.389H116.777V28.0883H115.764C115.267 28.8936 114.588 29.5263 113.738 29.9768C112.887 30.4274 111.855 30.6574 110.651 30.6574L110.67 30.667ZM111.148 28.1075C111.97 28.1075 112.706 27.9445 113.365 27.6282C114.025 27.3023 114.541 26.8709 114.923 26.334C115.305 25.7972 115.487 25.1933 115.487 24.5318V24.0717H111.071C109.303 24.0717 108.424 24.7332 108.424 26.0561C108.424 26.6983 108.663 27.2064 109.15 27.5707C109.628 27.9349 110.297 28.1171 111.148 28.1171V28.1075Z" fill="#241F20"/>
<path d="M122.78 30.4079V10.0947H126.058V30.4079H122.78Z" fill="#241F20"/>
<path d="M57.156 59.4157H43.2686V39.8311H57.156V42.7357H46.6233V47.8356H56.487V50.6923H46.6233V56.5207H57.156V59.4253V59.4157Z" fill="#241F20"/>
<path d="M60.5009 59.4159V48.2192H58.8379V44.9024H62.2596V47.2031H63.2727C63.7888 46.3787 64.477 45.746 65.3372 45.305C66.1974 44.864 67.2392 44.6436 68.4626 44.6436C70.3933 44.6436 71.8938 45.19 72.9834 46.2732C74.0635 47.366 74.6082 48.8136 74.6082 50.6349V59.4159H71.3299V51.2197C71.3299 50.031 71.0145 49.1203 70.3741 48.4876C69.7433 47.8549 68.8067 47.5482 67.5642 47.5482C66.3216 47.5482 65.385 47.8645 64.7446 48.4876C64.1042 49.1203 63.7793 50.031 63.7793 51.2197V59.4159H60.5009Z" fill="#241F20"/>
<path d="M84.644 59.7127C83.1148 59.7127 81.7863 59.406 80.6585 58.7829C79.5211 58.1598 78.6513 57.2778 78.0396 56.1371C77.4279 54.9963 77.1221 53.6542 77.1221 52.1205C77.1221 50.5867 77.4279 49.2638 78.0301 48.1422C78.6322 47.0206 79.4924 46.1578 80.6011 45.5443C81.7098 44.9308 83.0192 44.624 84.5294 44.624C86.0395 44.624 87.2247 44.9116 88.2665 45.4868C89.3083 46.062 90.1207 46.8768 90.6846 47.9313C91.258 48.9858 91.5448 50.2416 91.5448 51.6891V52.8969H80.2666C80.3908 54.2198 80.8401 55.236 81.5951 55.9549C82.3502 56.6739 83.3633 57.0286 84.6345 57.0286C85.5712 57.0286 86.3262 56.856 86.9284 56.5014C87.5209 56.1467 87.9319 55.6194 88.1613 54.91H91.4874C91.1338 56.4247 90.3596 57.6038 89.1649 58.4569C87.9702 59.3005 86.4696 59.7223 84.6727 59.7223L84.644 59.7127ZM80.3526 50.5962H88.4003C88.276 49.5322 87.865 48.7173 87.196 48.1422C86.5174 47.567 85.6285 47.2794 84.5198 47.2794C83.4111 47.2794 82.4936 47.567 81.7672 48.1422C81.0408 48.7173 80.5724 49.5322 80.343 50.5962H80.3526Z" fill="#241F20"/>
<path d="M94.9092 59.4161V48.2194H93.2461V44.9026H96.6678V47.6826H97.6809C98.0632 46.7336 98.6845 46.005 99.5256 45.5065C100.367 45.008 101.342 44.7588 102.431 44.7588H103.635V47.5867H102.288C100.921 47.5867 99.8888 47.9798 99.191 48.7754C98.4933 49.5615 98.1397 50.6256 98.1397 51.9389V59.4065H94.9092V59.4161Z" fill="#241F20"/>
<path d="M112.152 65.5122C110.078 65.5122 108.395 65.0809 107.086 64.2277C105.786 63.3745 105.012 62.1858 104.773 60.6712H108.242C108.663 62.1091 109.934 62.8185 112.075 62.8185C113.471 62.8185 114.541 62.4926 115.277 61.8407C116.013 61.1888 116.386 60.259 116.386 59.0511V56.875H116.261C115.86 57.6995 115.258 58.3226 114.455 58.7635C113.652 59.1949 112.696 59.4154 111.588 59.4154C110.221 59.4154 109.036 59.1086 108.032 58.5047C107.029 57.9008 106.245 57.0476 105.69 55.9452C105.136 54.8428 104.859 53.5294 104.859 52.0148C104.859 49.7429 105.471 47.9407 106.704 46.6082C107.937 45.2757 109.628 44.6143 111.779 44.6143C112.964 44.6143 113.987 44.8347 114.828 45.2757C115.669 45.7167 116.338 46.359 116.844 47.2025H117.858V44.9018H121.26V48.2187H119.597V59.1278C119.597 61.1601 118.947 62.7322 117.657 63.8442C116.367 64.9562 114.531 65.5122 112.152 65.5122ZM112.4 56.5683C113.604 56.5683 114.56 56.2232 115.267 55.5426C115.975 54.8619 116.328 53.9321 116.328 52.7721V51.2479C116.328 50.1072 115.975 49.1869 115.258 48.5063C114.541 47.8256 113.585 47.4805 112.4 47.4805C111.062 47.4805 110.03 47.8832 109.275 48.6788C108.529 49.4745 108.156 50.5961 108.156 52.0244C108.156 53.4528 108.529 54.5935 109.275 55.3892C110.02 56.1752 111.062 56.5779 112.4 56.5779V56.5683Z" fill="#241F20"/>
<path d="M124.366 65.2253V62.5891H127.721L129.05 59.3969L122.684 44.9121H126.106L130.665 55.5528H130.789L135.176 44.9121H138.454L132.28 59.4161L130.952 62.5604C130.598 63.3944 130.216 64.0558 129.805 64.5159C129.394 64.9857 128.725 65.2157 127.788 65.2157H124.366V65.2253Z" fill="#241F20"/>
<path d="M51.7557 88.7206C49.8728 88.7206 48.2193 88.2988 46.7856 87.4648C45.352 86.6308 44.2337 85.4517 43.4308 83.937C42.628 82.4224 42.2266 80.6585 42.2266 78.6454C42.2266 76.6323 42.6471 74.8685 43.4786 73.3538C44.3102 71.8392 45.4762 70.6601 46.9768 69.8261C48.4678 68.9921 50.2169 68.5703 52.2049 68.5703C53.7628 68.5703 55.1487 68.8291 56.353 69.3564C57.5573 69.8836 58.5417 70.6313 59.3063 71.6091C60.071 72.5869 60.568 73.766 60.7878 75.1561H57.2896C57.0794 73.9961 56.5346 73.1046 55.6553 72.4719C54.7759 71.8392 53.6194 71.5325 52.2049 71.5325C50.8668 71.5325 49.7103 71.82 48.7259 72.4048C47.7414 72.9896 46.9672 73.814 46.4224 74.8972C45.8776 75.9805 45.6005 77.2458 45.6005 78.6934C45.6005 80.1409 45.8776 81.435 46.432 82.5279C46.9863 83.6207 47.751 84.4643 48.7354 85.0682C49.7199 85.6721 50.8572 85.9789 52.1571 85.9789C53.1702 85.9789 54.0782 85.8064 54.8811 85.4612C55.6839 85.1161 56.3243 84.6464 56.8022 84.0425C57.2801 83.4481 57.5095 82.7675 57.5095 82.0102V80.9941H51.8226V78.3387H58.0638C58.9431 78.3387 59.6217 78.5592 60.0901 79.0001C60.5584 79.4411 60.7878 80.0834 60.7878 80.927V88.4713H57.6528V85.883H57.5286C57.0985 86.7841 56.3721 87.4935 55.3494 88.0016C54.3267 88.5097 53.132 88.7589 51.7461 88.7589L51.7557 88.7206Z" fill="#241F20"/>
<path d="M65.0029 88.4337V77.237H63.3398V73.9202H66.7615V76.7002H67.7747C68.157 75.7511 68.7782 75.0226 69.6193 74.5241C70.4604 74.0256 71.4353 73.7764 72.5249 73.7764H73.7292V76.6043H72.3815C71.0148 76.6043 69.9825 76.9973 69.2848 77.793C68.5871 78.5791 68.2334 79.6431 68.2334 80.9564V88.4241H65.0029V88.4337Z" fill="#241F20"/>
<path d="M77.4469 72.1852C76.9307 72.1852 76.4911 72.003 76.1183 71.6388C75.7456 71.2745 75.564 70.8335 75.564 70.2967C75.564 69.7599 75.7456 69.3381 76.1088 68.9642C76.472 68.5903 76.9212 68.4082 77.4469 68.4082C77.9725 68.4082 78.4026 68.5903 78.7754 68.9546C79.1481 69.3189 79.3297 69.7599 79.3297 70.2967C79.3297 70.8335 79.1481 71.2553 78.7849 71.6292C78.4217 72.003 77.9821 72.1852 77.4469 72.1852ZM75.8029 88.4338V73.9299H79.0812V88.4338H75.8029Z" fill="#241F20"/>
<path d="M88.6489 88.7209C87.1866 88.7209 85.9441 88.4142 84.9118 87.7911C83.8796 87.168 83.1054 86.2956 82.5702 85.1644C82.0349 84.0333 81.7769 82.7104 81.7769 81.1766C81.7769 79.6428 82.0349 78.3103 82.5606 77.1791C83.0863 76.0383 83.8413 75.166 84.8258 74.5525C85.8102 73.939 86.9954 73.6322 88.3622 73.6322C89.49 73.6322 90.4553 73.8431 91.2582 74.2745C92.061 74.7059 92.6823 75.3098 93.1124 76.0959H93.208V68.1201H96.4863V85.1165H98.1207V88.4333H94.7181V86.1326H93.705C93.208 86.9666 92.5389 87.6089 91.6883 88.0595C90.8376 88.51 89.8245 88.7209 88.6394 88.7209H88.6489ZM89.2033 85.893C90.4267 85.893 91.392 85.5479 92.1184 84.8577C92.8448 84.1675 93.208 83.228 93.208 82.0489V80.3042C93.208 79.1251 92.8448 78.1952 92.1184 77.4954C91.392 76.8052 90.4267 76.4601 89.2033 76.4601C87.8652 76.4601 86.8425 76.8819 86.1257 77.7159C85.4088 78.5499 85.0552 79.7099 85.0552 81.1766C85.0552 82.6433 85.4088 83.7936 86.1257 84.6372C86.8425 85.4712 87.8652 85.893 89.2033 85.893Z" fill="#241F20"/>
<path d="M98.6078 97.5303H41.8727C36.8549 97.5303 32.7642 93.437 32.7642 88.3946V9.13567C32.7642 4.10291 36.8453 0 41.8727 0H129.202C131.181 0 133.035 0.776484 134.421 2.17607C135.816 3.57566 136.581 5.44498 136.571 7.42933L136.485 26.736C136.466 30.1966 139.267 33.0437 142.717 33.0821C146.731 33.13 150 36.4468 150 40.4731V69.7494C150 71.7242 149.226 73.5839 147.83 74.9835C146.435 76.3831 144.59 77.15 142.602 77.1404L117.322 77.0445C114.732 77.0445 112.342 78.0319 110.526 79.8437C108.71 81.6555 107.707 84.0808 107.707 86.6499V88.4042C107.707 93.437 103.626 97.5399 98.5982 97.5399L98.6078 97.5303ZM41.8632 1.07366C37.4284 1.07366 33.8251 4.68766 33.8251 9.13567V88.4042C33.8251 92.8522 37.4284 96.4662 41.8632 96.4662H98.5982C103.033 96.4662 106.636 92.8522 106.636 88.4042V86.6499C106.636 83.7932 107.745 81.0995 109.771 79.0864C111.788 77.0637 114.483 75.9804 117.322 75.9709L142.602 76.0667C144.313 76.1051 145.871 75.4149 147.075 74.2262C148.27 73.0279 148.93 71.4462 148.93 69.7494V40.4731C148.93 37.0316 146.139 34.1941 142.698 34.1557C138.665 34.1078 135.396 30.7814 135.415 26.7264L135.501 7.41974C135.501 5.72298 134.861 4.13166 133.666 2.93339C132.471 1.73511 130.894 1.07366 129.202 1.07366H41.8632Z" fill="#241F20"/>
<path d="M56.9358 96.5625H26.542V97.5211H56.9358V96.5625Z" fill="#241F20"/>
<path d="M26.5421 97.5209H9.19466C6.74786 97.5209 4.45399 96.5623 2.72403 94.8367C0.994073 93.1112 0.0478516 90.801 0.0478516 88.3469C0.0478516 83.2853 4.14814 79.1729 9.19466 79.1729C14.2412 79.1729 18.351 83.2853 18.351 88.3469C18.351 92.8812 22.0308 96.5623 26.5421 96.5623V97.5209ZM9.19466 80.1315C4.67382 80.1315 1.00363 83.8222 1.00363 88.3469C1.00363 90.5421 1.85427 92.6032 3.40264 94.1561C4.951 95.7091 7.00592 96.5623 9.19466 96.5623H22.4704C19.4597 95.0572 17.3952 91.9417 17.3952 88.3469C17.3952 83.8126 13.7155 80.1315 9.19466 80.1315Z" fill="#241F20"/>
<mask id="mask0_2683_864" style="mask-type:luminance" maskUnits="userSpaceOnUse" x="0" y="79" width="18" height="19">
<path d="M9.14694 97.0896C13.9347 97.0896 17.8159 93.1969 17.8159 88.3949C17.8159 83.5929 13.9347 79.7002 9.14694 79.7002C4.35923 79.7002 0.478027 83.5929 0.478027 88.3949C0.478027 93.1969 4.35923 97.0896 9.14694 97.0896Z" fill="white"/>
</mask>
<g mask="url(#mask0_2683_864)">
<path d="M16.1814 78.9141H15.2256V98.0002H16.1814V78.9141Z" fill="#241F20"/>
<path d="M14.0119 78.9141H13.0562V98.0002H14.0119V78.9141Z" fill="#241F20"/>
<path d="M11.8425 78.9141H10.8867V98.0002H11.8425V78.9141Z" fill="#241F20"/>
<path d="M9.67258 78.9141H8.7168V98.0002H9.67258V78.9141Z" fill="#241F20"/>
<path d="M5.33322 78.9141H4.37744V98.0002H5.33322V78.9141Z" fill="#241F20"/>
<path d="M3.16379 78.9141H2.20801V98.0002H3.16379V78.9141Z" fill="#241F20"/>
<path d="M7.50314 78.9141H6.54736V98.0002H7.50314V78.9141Z" fill="#241F20"/>
</g>
<path d="M9.14681 97.5687C4.10029 97.5687 0 93.4563 0 88.3947C0 83.3332 4.10029 79.2207 9.14681 79.2207C14.1933 79.2207 18.2936 83.3332 18.2936 88.3947C18.2936 93.4563 14.1933 97.5687 9.14681 97.5687ZM9.14681 80.1793C4.62597 80.1793 0.955779 83.87 0.955779 88.3947C0.955779 92.9194 4.63553 96.6101 9.14681 96.6101C13.6581 96.6101 17.3378 92.9194 17.3378 88.3947C17.3378 83.87 13.6581 80.1793 9.14681 80.1793Z" fill="#241F20"/>
</g>
<defs>
<clipPath id="clip0_2683_864">
<rect width="150" height="98" fill="white"/>
</clipPath>
</defs>
</svg>
