<svg width="134" height="134" viewBox="0 0 134 134" fill="none" xmlns="http://www.w3.org/2000/svg">
<g clip-path="url(#clip0_2962_64)">
<path d="M26.9245 5.82313C27.6437 6.41541 27.9529 6.87247 28.0588 7.81602C28.0899 8.432 28.1039 9.04633 28.1124 9.66304C28.1175 9.88811 28.1226 10.1132 28.1278 10.3451C28.1434 11.0623 28.1556 11.7796 28.1676 12.497C28.1776 12.9839 28.1878 13.4709 28.1983 13.9579C28.2234 15.1502 28.2454 16.3426 28.2658 17.535C28.4538 17.4031 28.4538 17.4031 28.6457 17.2685C43.2905 7.01991 61.5519 3.36196 79.1073 6.43027C90.0719 8.45622 100.729 13.0957 109.399 20.1522C109.652 20.3499 109.906 20.5476 110.167 20.7513C112.437 22.5245 112.437 22.5245 112.646 23.5587C112.697 24.7811 112.592 25.4825 111.787 26.4335C111.043 27.21 110.618 27.4526 109.529 27.6276C107.894 27.6011 106.903 26.4098 105.735 25.3866C98.1227 19.2261 89.3842 14.9766 79.8244 12.8241C79.6497 12.7844 79.4751 12.7447 79.2952 12.7039C65.5974 9.67313 50.858 12.0272 38.4728 18.4511C38.2572 18.5626 38.0417 18.6742 37.8196 18.7891C36.0393 19.7385 34.378 20.8456 32.715 21.9843C33.1685 21.99 33.1685 21.99 33.6312 21.9958C34.7556 22.011 35.8798 22.0312 37.004 22.053C37.4901 22.0616 37.9763 22.069 38.4624 22.0749C39.1622 22.0837 39.8617 22.0974 40.5614 22.1121C40.8862 22.1146 40.8862 22.1146 41.2175 22.1171C42.4349 22.148 43.2352 22.2551 44.2306 23.0311C44.8479 23.8248 44.8481 24.6697 44.8205 25.6575C44.7217 26.422 44.4553 26.8897 43.9689 27.4804C43.0374 28.1016 42.1941 28.0716 41.0941 28.0757C40.9123 28.077 40.7305 28.0784 40.5431 28.0797C39.9433 28.0834 39.3436 28.0831 38.7437 28.0825C38.3259 28.0835 37.908 28.0847 37.4902 28.0859C36.6148 28.0879 35.7394 28.0878 34.864 28.0864C33.7434 28.0849 32.6229 28.0893 31.5023 28.0954C30.6394 28.0993 29.7766 28.0995 28.9137 28.0987C28.5006 28.0988 28.0875 28.1002 27.6744 28.1028C27.0962 28.106 26.5182 28.1043 25.94 28.1012C25.6113 28.1014 25.2826 28.1016 24.944 28.1017C23.9963 27.9945 23.5139 27.808 22.7697 27.2186C22.11 26.3269 22.1783 25.4255 22.1744 24.3439C22.173 24.162 22.1717 23.9802 22.1703 23.7928C22.1667 23.193 22.1669 22.5933 22.1675 21.9935C22.1665 21.5756 22.1654 21.1578 22.1641 20.7399C22.1622 19.8645 22.1622 18.9892 22.1636 18.1138C22.1651 16.9931 22.1607 15.8726 22.1546 14.752C22.1508 13.8892 22.1506 13.0263 22.1514 12.1635C22.1512 11.7504 22.1499 11.3373 22.1472 10.9242C22.144 10.346 22.1458 9.76796 22.1488 9.18976C22.1486 8.86106 22.1485 8.53237 22.1483 8.19372C22.2541 7.25898 22.4762 6.76946 23.0314 6.01942C24.157 5.14395 25.686 5.28469 26.9245 5.82313Z" fill="black"/>
<path d="M93.4296 105.924C93.6114 105.923 93.7933 105.922 93.9806 105.92C94.5805 105.917 95.1802 105.917 95.78 105.918C96.1979 105.917 96.6157 105.915 97.0336 105.914C97.909 105.912 98.7843 105.912 99.6597 105.914C100.78 105.915 101.901 105.911 103.021 105.905C103.884 105.901 104.747 105.901 105.61 105.901C106.023 105.901 106.436 105.9 106.849 105.897C107.428 105.894 108.006 105.896 108.584 105.899C108.912 105.899 109.241 105.898 109.58 105.898C110.522 106.005 111.005 106.21 111.754 106.781C112.378 107.717 112.378 108.232 112.441 109.346C112.451 109.521 112.461 109.695 112.471 109.874C112.563 111.652 112.566 113.428 112.544 115.208C112.541 115.542 112.537 115.876 112.533 116.22C112.525 116.918 112.515 117.616 112.505 118.314C112.492 119.206 112.485 120.098 112.479 120.99C112.473 121.849 112.459 122.707 112.446 123.566C112.445 123.885 112.444 124.204 112.443 124.532C112.437 124.828 112.431 125.125 112.425 125.43C112.421 125.69 112.418 125.949 112.415 126.217C112.239 127.135 111.879 127.579 111.231 128.242C109.959 128.666 108.82 128.708 107.599 128.177C106.973 127.661 106.794 127.431 106.52 126.672C106.475 125.904 106.459 125.162 106.469 124.394C106.47 124.065 106.47 124.065 106.471 123.73C106.474 123.031 106.48 122.333 106.487 121.634C106.49 121.16 106.492 120.685 106.494 120.211C106.5 119.049 106.509 117.888 106.52 116.727C106.391 116.811 106.262 116.895 106.13 116.982C103.284 118.834 100.438 120.529 97.3595 121.961C97.1821 122.046 97.0047 122.131 96.8219 122.218C80.5782 129.975 61.6096 130.538 44.705 124.637C38.0205 122.217 31.8486 118.903 26.172 114.633C26.0057 114.509 25.8394 114.384 25.668 114.256C25.1575 113.872 24.6501 113.485 24.1437 113.095C23.9874 112.977 23.8311 112.859 23.6701 112.737C22.8994 112.134 22.297 111.65 21.9845 110.707C21.8367 109.398 21.8397 108.87 22.4916 107.714C23.3977 106.956 23.9098 106.821 25.0515 106.707C26.4614 106.883 27.454 107.969 28.4784 108.875C40.3966 119.15 56.5102 123.934 72.0929 122.951C82.9293 122.049 93.8774 118.675 102.594 112.016C102.268 112.012 101.942 112.008 101.606 112.004C100.393 111.989 99.1815 111.969 97.9694 111.947C97.4452 111.938 96.921 111.931 96.3968 111.925C95.6424 111.916 94.8883 111.903 94.134 111.888C93.9004 111.886 93.6667 111.885 93.4259 111.883C92.1702 111.853 91.3142 111.781 90.2931 110.969C89.6758 110.175 89.6756 109.33 89.7032 108.343C89.802 107.578 90.0684 107.11 90.5548 106.52C91.4863 105.898 92.3297 105.928 93.4296 105.924Z" fill="black"/>
<path d="M93.1149 72.4539C93.5786 72.452 93.5786 72.452 94.0517 72.45C94.897 72.4468 95.7423 72.4449 96.5875 72.4437C97.1171 72.4429 97.6466 72.4419 98.1762 72.4407C99.8371 72.4371 101.498 72.4346 103.159 72.4336C105.069 72.4324 106.978 72.4278 108.888 72.4202C110.369 72.4146 111.85 72.4119 113.331 72.4116C114.213 72.4113 115.095 72.4098 115.977 72.4051C116.963 72.4006 117.95 72.4011 118.936 72.4028C119.223 72.4004 119.511 72.398 119.807 72.3955C123.93 72.4175 127.267 73.734 130.26 76.5752C132.775 79.2269 134.028 82.2895 134.062 85.9245C134.065 86.1349 134.067 86.3452 134.069 86.562C134.072 87.0061 134.075 87.4502 134.077 87.8944C134.08 88.348 134.086 88.8016 134.093 89.2551C134.105 89.9116 134.109 90.5678 134.112 91.2243C134.116 91.4261 134.121 91.6279 134.125 91.8358C134.121 92.8177 134.038 93.3749 133.502 94.2096C132.598 95.0865 131.903 95.1068 130.684 95.097C129.648 94.9389 129.209 94.4531 128.504 93.6953C128.211 92.8155 128.205 92.135 128.196 91.208C128.19 90.8681 128.184 90.5282 128.177 90.178C128.168 89.6411 128.161 89.1044 128.157 88.5675C128.133 85.4886 127.767 83.0937 125.605 80.8067C123.388 78.7833 121.159 78.437 118.251 78.4396C117.817 78.437 117.817 78.437 117.374 78.4343C116.421 78.4293 115.468 78.4283 114.514 78.4277C113.849 78.426 113.184 78.4243 112.518 78.4224C111.125 78.4193 109.731 78.4183 108.337 78.4186C106.732 78.419 105.127 78.4134 103.522 78.4052C101.972 78.3975 100.421 78.3956 98.8701 78.3959C98.2136 78.3953 97.5571 78.393 96.9006 78.389C95.9799 78.3838 95.0595 78.3853 94.1389 78.3885C93.7366 78.3841 93.7366 78.3841 93.3261 78.3796C90.8447 78.401 88.5177 79.0639 86.5728 80.6574C83.7617 83.5177 83.9265 87.2797 83.9096 91.0403C83.8635 93.2425 83.8635 93.2425 83.2492 94.2781C82.3204 95.0677 81.622 95.1065 80.4336 95.097C79.3983 94.9389 78.9589 94.4531 78.254 93.6953C77.8104 92.3646 77.9333 90.9498 77.9294 89.5571C77.9269 89.0108 77.9188 88.4648 77.9105 87.9186C77.8777 83.8401 78.7939 79.8318 81.6599 76.7778C84.9677 73.4735 88.5239 72.4586 93.1149 72.4539Z" fill="black"/>
<path d="M13.1356 72.4593C13.5378 72.4571 13.5378 72.4571 13.9481 72.4548C14.2395 72.4545 14.5309 72.4542 14.8311 72.4539C15.1402 72.4526 15.4493 72.4513 15.7678 72.45C16.6142 72.4468 17.4605 72.4449 18.3069 72.4437C18.837 72.4429 19.3671 72.4419 19.8972 72.4407C21.5596 72.4371 23.222 72.4346 24.8843 72.4336C26.796 72.4324 28.7077 72.4278 30.6194 72.4202C32.1016 72.4146 33.5837 72.4119 35.0659 72.4116C35.9489 72.4113 36.8319 72.4098 37.7149 72.4051C38.7026 72.4006 39.6901 72.4011 40.6778 72.4028C40.9655 72.4004 41.2532 72.398 41.5495 72.3955C45.9533 72.419 49.2457 73.8581 52.3437 76.9453C52.4948 77.0904 52.646 77.2355 52.8017 77.3849C55.6779 80.396 56.1029 84.4373 56.0904 88.3888C56.0895 88.939 56.0957 89.4888 56.1023 90.0389C56.1029 90.3925 56.1031 90.746 56.1028 91.0996C56.1036 91.416 56.1044 91.7324 56.1052 92.0584C55.9754 93.1926 55.5477 93.8562 54.7973 94.6931C53.8229 95.1803 52.8866 95.1807 51.8202 95.0039C51.069 94.5344 50.6448 94.2233 50.2499 93.4336C50.2159 92.9549 50.1969 92.475 50.1855 91.9952C50.1769 91.7028 50.1683 91.4105 50.1595 91.1093C50.1437 90.498 50.1287 89.8866 50.1145 89.2752C50.0164 86.0369 49.8047 83.0765 47.4273 80.6574C45.219 78.8482 42.6604 78.3581 39.8778 78.3802C39.5884 78.3783 39.2991 78.3765 39.001 78.3746C38.0532 78.37 37.1057 78.373 36.158 78.3766C35.4942 78.3759 34.8304 78.3749 34.1667 78.3736C32.779 78.372 31.3913 78.3741 30.0037 78.3792C28.4065 78.3848 26.8095 78.383 25.2123 78.3772C23.6666 78.3719 22.121 78.3725 20.5753 78.3755C19.9217 78.3762 19.2681 78.3754 18.6145 78.373C17.699 78.3703 16.7837 78.3744 15.8682 78.3802C15.6016 78.3781 15.335 78.3759 15.0604 78.3738C12.1613 78.4076 9.96314 79.2864 7.87807 81.2954C6.41039 82.9567 5.99586 84.6654 5.96425 86.8324C5.95312 87.3498 5.95312 87.3498 5.94176 87.8777C5.93097 88.4233 5.92131 88.9688 5.91441 89.5144C5.90716 90.0435 5.89487 90.5726 5.88247 91.1017C5.87728 91.4171 5.87209 91.7325 5.86675 92.0575C5.72251 93.1858 5.29589 93.8581 4.54729 94.6931C3.57285 95.1803 2.63657 95.1807 1.57024 95.0039C0.81903 94.5344 0.39478 94.2233 -7.12499e-05 93.4336C-0.0323808 92.7389 -0.0493849 92.0513 -0.0532329 91.3562C-0.0547247 91.1482 -0.0562165 90.9402 -0.0577535 90.7259C-0.0602292 90.2842 -0.0619378 89.8424 -0.0629451 89.4006C-0.0654637 88.7325 -0.0735714 88.0647 -0.0818584 87.3967C-0.0962563 85.1919 -0.0811907 83.2004 0.785085 81.1328C0.914636 80.7776 0.914636 80.7776 1.0468 80.4151C2.69149 76.9073 5.53529 74.5541 9.11101 73.1995C10.4598 72.7273 11.7041 72.4641 13.1356 72.4593Z" fill="black"/>
<path d="M36.1171 41.3516C39.1641 43.6838 41.0476 46.4963 41.8749 50.25C42.262 55.007 41.585 58.9206 38.4644 62.6653C35.7697 65.5553 32.5593 66.9664 28.6585 67.1182C24.2546 67.1959 20.9463 66.0282 17.6752 63.0006C14.7704 60.0234 13.7713 56.4914 13.7923 52.441C13.8834 48.7444 15.3747 45.3962 17.9328 42.7266C22.9194 38.1955 30.5252 37.5963 36.1171 41.3516ZM21.101 48.3689C19.9635 49.9993 19.4166 51.9335 19.6288 53.9141C20.1558 56.5796 21.5525 58.6741 23.8163 60.1953C25.8206 61.3177 27.9853 61.6876 30.2233 61.0602C32.9559 59.9409 34.6683 58.1623 35.9536 55.5335C36.4145 53.1825 36.2688 51.0407 35.0703 48.9414C33.7804 47.0702 32.0676 45.7347 29.9504 44.9175C26.3225 44.2579 23.4231 45.5436 21.101 48.3689Z" fill="black"/>
<path d="M115.087 41.8764C117.79 44.166 119.586 47.2543 120.129 50.7738C120.372 55.3071 119.699 59.0637 116.661 62.6166C113.925 65.4845 110.768 67.0022 106.811 67.142C102.475 67.176 99.0632 66.0175 95.8544 63.0255C93.0677 60.084 92.0735 56.9386 92.0268 52.9821C92.0231 52.7532 92.0194 52.5243 92.0156 52.2885C92.044 48.4564 93.6946 45.2785 96.3401 42.5828C101.481 37.7816 109.548 37.8176 115.087 41.8764ZM99.4531 48.1566C97.9922 50.2589 97.6551 52.1568 97.8828 54.6996C98.5538 57.1573 100.146 59.0972 102.294 60.4083C104.158 61.4406 106.208 61.5685 108.278 61.0718C110.81 60.1615 112.607 58.3719 113.848 56.0082C114.703 53.792 114.512 51.6134 113.586 49.4652C112.179 47.1503 110.32 45.549 107.68 44.878C104.334 44.2282 101.654 45.6743 99.4531 48.1566Z" fill="black"/>
</g>
<defs>
<clipPath id="clip0_2962_64">
<rect width="134" height="134" fill="white"/>
</clipPath>
</defs>
</svg>
