<svg width="135" height="134" viewBox="0 0 135 134" fill="none" xmlns="http://www.w3.org/2000/svg">
<path d="M46.4211 21.2255H46.9211V20.7255V12.3423C46.9211 8.05446 50.5101 4.5 54.8043 4.5H79.9375C84.2311 4.5 87.8125 8.05383 87.8125 12.3423V20.7255V21.2255H88.3125H100.859C105.15 21.2255 108.734 24.8092 108.734 29.1005V121.25C108.734 125.541 105.15 129.125 100.859 129.125H33.875C29.5838 129.125 26 125.541 26 121.25V29.1005C26 24.8092 29.5838 21.2255 33.875 21.2255H46.4211ZM54.8043 11.8423H54.3043V12.3423V20.7255V21.2255H54.8043H79.9375H80.4375V20.7255V12.3423V11.8423H79.9375H54.8043ZM33.875 28.6005H33.375V29.1005V121.25V121.75H33.875H100.859H101.359V121.25V29.1005V28.6005H100.859H33.875Z" fill="black" stroke="white"/>
<mask id="path-2-inside-1_2962_42" fill="white">
<path d="M67.2285 49.9947C66.4104 50.0283 65.6201 50.3012 64.9554 50.7791C64.2906 51.2571 63.7805 51.9192 63.4882 52.6841L55.1111 73.6113C54.8554 74.2475 54.7599 74.9368 54.8329 75.6186C54.9059 76.3004 55.1452 76.9539 55.5297 77.5216C55.9143 78.0893 56.4324 78.5543 57.0386 78.8749C57.6447 79.1956 58.3203 79.3623 59.006 79.3608H69.5778L63.4882 94.5384C63.2473 95.0541 63.1141 95.6132 63.0966 96.1821C63.0792 96.751 63.1779 97.3175 63.3867 97.847C63.5954 98.3764 63.91 98.8578 64.311 99.2617C64.7121 99.6655 65.1912 99.9833 65.7192 100.196C66.2472 100.408 66.813 100.511 67.382 100.498C67.9509 100.484 68.5112 100.355 69.0285 100.118C69.5458 99.8802 70.0094 99.5401 70.3908 99.1177C70.7723 98.6953 71.0636 98.1993 71.247 97.6605L79.6241 76.7333C79.8798 76.0971 79.9753 75.4078 79.9023 74.726C79.8294 74.0442 79.5901 73.3907 79.2055 72.823C78.8209 72.2553 78.3028 71.7903 77.6967 71.4697C77.0905 71.149 76.4149 70.9823 75.7292 70.9838H65.1574L71.247 55.7752C71.5138 55.1276 71.6139 54.4236 71.5381 53.7273C71.4623 53.031 71.2132 52.3646 70.8134 51.7896C70.4136 51.2145 69.8759 50.7488 69.2497 50.4352C68.6234 50.1217 67.9285 49.9703 67.2285 49.9947Z"/>
</mask>
<path d="M67.2285 49.9947C66.4104 50.0283 65.6201 50.3012 64.9554 50.7791C64.2906 51.2571 63.7805 51.9192 63.4882 52.6841L55.1111 73.6113C54.8554 74.2475 54.7599 74.9368 54.8329 75.6186C54.9059 76.3004 55.1452 76.9539 55.5297 77.5216C55.9143 78.0893 56.4324 78.5543 57.0386 78.8749C57.6447 79.1956 58.3203 79.3623 59.006 79.3608H69.5778L63.4882 94.5384C63.2473 95.0541 63.1141 95.6132 63.0966 96.1821C63.0792 96.751 63.1779 97.3175 63.3867 97.847C63.5954 98.3764 63.91 98.8578 64.311 99.2617C64.7121 99.6655 65.1912 99.9833 65.7192 100.196C66.2472 100.408 66.813 100.511 67.382 100.498C67.9509 100.484 68.5112 100.355 69.0285 100.118C69.5458 99.8802 70.0094 99.5401 70.3908 99.1177C70.7723 98.6953 71.0636 98.1993 71.247 97.6605L79.6241 76.7333C79.8798 76.0971 79.9753 75.4078 79.9023 74.726C79.8294 74.0442 79.5901 73.3907 79.2055 72.823C78.8209 72.2553 78.3028 71.7903 77.6967 71.4697C77.0905 71.149 76.4149 70.9823 75.7292 70.9838H65.1574L71.247 55.7752C71.5138 55.1276 71.6139 54.4236 71.5381 53.7273C71.4623 53.031 71.2132 52.3646 70.8134 51.7896C70.4136 51.2145 69.8759 50.7488 69.2497 50.4352C68.6234 50.1217 67.9285 49.9703 67.2285 49.9947Z" fill="black"/>
<path d="M67.2285 49.9947L67.1936 48.9953L67.1875 48.9956L67.2285 49.9947ZM63.4882 52.6841L64.4166 53.0557L64.4195 53.0484L64.4223 53.0411L63.4882 52.6841ZM55.1111 73.6113L56.039 73.9841L56.0395 73.9829L55.1111 73.6113ZM59.006 79.3608V78.3608L59.0039 78.3608L59.006 79.3608ZM69.5778 79.3608L70.5059 79.7332L71.0565 78.3608H69.5778V79.3608ZM63.4882 94.5384L64.3942 94.9617L64.406 94.9365L64.4163 94.9108L63.4882 94.5384ZM71.247 97.6605L70.3186 97.2889L70.3089 97.3133L70.3004 97.3382L71.247 97.6605ZM79.6241 76.7333L78.6962 76.3604L78.6957 76.3617L79.6241 76.7333ZM75.7292 70.9838V71.9838L75.7314 71.9838L75.7292 70.9838ZM65.1574 70.9838L64.2291 70.612L63.6798 71.9838H65.1574V70.9838ZM71.247 55.7752L70.3223 55.3943L70.3187 55.4035L71.247 55.7752ZM67.1875 48.9956C66.1739 49.0372 65.1949 49.3752 64.3716 49.9672L65.5391 51.591C66.0453 51.2271 66.6469 51.0194 67.2695 50.9939L67.1875 48.9956ZM64.3716 49.9672C63.5482 50.5592 62.9162 51.3795 62.5541 52.3271L64.4223 53.0411C64.6448 52.459 65.033 51.9549 65.5391 51.591L64.3716 49.9672ZM62.5598 52.3124L54.1828 73.2396L56.0395 73.9829L64.4166 53.0557L62.5598 52.3124ZM54.1833 73.2384C53.8665 74.0265 53.7481 74.8804 53.8386 75.725L55.8272 75.5121C55.7716 74.9931 55.8444 74.4685 56.039 73.9841L54.1833 73.2384ZM53.8386 75.725C53.929 76.5697 54.2254 77.3792 54.7018 78.0824L56.3577 76.9607C56.0649 76.5286 55.8828 76.0311 55.8272 75.5121L53.8386 75.725ZM54.7018 78.0824C55.1781 78.7855 55.8198 79.3615 56.5709 79.7589L57.5062 77.991C57.0451 77.747 56.6506 77.3931 56.3577 76.9607L54.7018 78.0824ZM56.5709 79.7589C57.322 80.1562 58.1589 80.3626 59.0082 80.3608L59.0039 78.3608C58.4816 78.3619 57.9674 78.235 57.5062 77.991L56.5709 79.7589ZM59.006 80.3608H69.5778V78.3608H59.006V80.3608ZM68.6497 78.9885L62.5601 94.1661L64.4163 94.9108L70.5059 79.7332L68.6497 78.9885ZM62.5822 94.1152C62.2838 94.754 62.1187 95.4466 62.0971 96.1514L64.0962 96.2127C64.1095 95.7798 64.2109 95.3542 64.3942 94.9617L62.5822 94.1152ZM62.0971 96.1514C62.0755 96.8561 62.1977 97.5579 62.4564 98.2138L64.3169 97.4801C64.158 97.0771 64.0829 96.6458 64.0962 96.2127L62.0971 96.1514ZM62.4564 98.2138C62.715 98.8697 63.1046 99.466 63.6015 99.9663L65.0206 98.557C64.7153 98.2496 64.4759 97.8832 64.3169 97.4801L62.4564 98.2138ZM63.6015 99.9663C64.0983 100.467 64.6919 100.86 65.3459 101.123L66.0925 99.2681C65.6905 99.1063 65.3258 98.8644 65.0206 98.557L63.6015 99.9663ZM65.3459 101.123C65.9997 101.387 66.7005 101.514 67.4057 101.497L67.3582 99.4979C66.9255 99.5082 66.4948 99.4299 66.0925 99.2681L65.3459 101.123ZM67.4057 101.497C68.1105 101.481 68.8046 101.32 69.4454 101.026L68.6116 99.2086C68.2178 99.3892 67.7913 99.4876 67.3582 99.4979L67.4057 101.497ZM69.4454 101.026C70.0862 100.733 70.6604 100.311 71.133 99.7879L69.6486 98.4475C69.3584 98.769 69.0055 99.0279 68.6116 99.2086L69.4454 101.026ZM71.133 99.7879C71.6056 99.2645 71.9665 98.6501 72.1937 97.9828L70.3004 97.3382C70.1607 97.7485 69.9389 98.1261 69.6486 98.4475L71.133 99.7879ZM72.1754 98.0322L80.5525 77.105L78.6957 76.3617L70.3186 97.2889L72.1754 98.0322ZM80.552 77.1062C80.8687 76.318 80.9871 75.4642 80.8967 74.6196L78.908 74.8324C78.9636 75.3515 78.8909 75.8761 78.6962 76.3604L80.552 77.1062ZM80.8967 74.6196C80.8062 73.7749 80.5098 72.9654 80.0334 72.2622L78.3776 73.3839C78.6703 73.816 78.8525 74.3134 78.908 74.8324L80.8967 74.6196ZM80.0334 72.2622C79.5571 71.5591 78.9154 70.9831 78.1643 70.5857L77.229 72.3536C77.6902 72.5975 78.0846 72.9515 78.3776 73.3839L80.0334 72.2622ZM78.1643 70.5857C77.4132 70.1884 76.5763 69.9819 75.7271 69.9838L75.7314 71.9838C76.2536 71.9826 76.7678 72.1096 77.229 72.3536L78.1643 70.5857ZM75.7292 69.9838H65.1574V71.9838H75.7292V69.9838ZM66.0858 71.3555L72.1754 56.1469L70.3187 55.4035L64.2291 70.612L66.0858 71.3555ZM72.1717 56.1561C72.5021 55.3539 72.6261 54.4817 72.5322 53.6192L70.544 53.8355C70.6016 54.3655 70.5255 54.9014 70.3224 55.3944L72.1717 56.1561ZM72.5322 53.6192C72.4384 52.7567 72.1298 51.9312 71.6345 51.2187L69.9923 52.3604C70.2966 52.798 70.4863 53.3054 70.544 53.8355L72.5322 53.6192ZM71.6345 51.2187C71.1392 50.5064 70.4732 49.9295 69.6974 49.541L68.802 51.3294C69.2787 51.5681 69.6879 51.9226 69.9923 52.3604L71.6345 51.2187ZM69.6974 49.541C68.9215 49.1526 68.0606 48.9651 67.1936 48.9954L67.2634 50.9941C67.7963 50.9755 68.3253 51.0908 68.802 51.3294L69.6974 49.541Z" fill="white" mask="url(#path-2-inside-1_2962_42)"/>
</svg>
