<svg width="130" height="134" viewBox="0 0 130 134" fill="none" xmlns="http://www.w3.org/2000/svg">
<path d="M0.5 46.2486C0.5 46.2871 0.5 46.2871 0.5 46.2486C0.576953 53.713 4.80935 60.177 11.0425 63.3706V130.319C11.0425 131.897 12.3507 133.205 13.9282 133.205H76.2984H99.5381H116.044C117.622 133.205 118.93 131.897 118.93 130.319V63.3706C125.125 60.1385 129.396 53.6745 129.473 46.2486C129.473 46.2101 129.473 46.1332 129.473 46.0947V46.0562C129.473 45.9792 129.473 45.9408 129.473 45.8638C129.473 45.8253 129.473 45.7869 129.473 45.7484C129.473 45.7099 129.473 45.633 129.434 45.5945C129.434 45.556 129.434 45.5175 129.396 45.4406C129.396 45.4021 129.357 45.3636 129.357 45.3251C129.357 45.2867 129.319 45.2097 129.319 45.1712C129.319 45.1328 129.28 45.0943 129.28 45.0558C129.242 44.9789 129.242 44.9404 129.203 44.9019V44.8634L116.929 18.8534V8.96499C116.929 4.04002 112.928 0 107.964 0H21.8929C16.9679 0 12.9279 4.00154 12.9279 8.96499V19.0843L0.769333 44.8634V44.9019C0.730857 44.9404 0.730858 45.0173 0.692382 45.0558C0.692382 45.0943 0.653906 45.1328 0.653906 45.1712C0.653906 45.2097 0.615427 45.2867 0.615427 45.3251C0.615427 45.3636 0.576952 45.4021 0.576952 45.4406C0.576952 45.479 0.576952 45.5175 0.538476 45.5945C0.538476 45.633 0.538476 45.7099 0.5 45.7484C0.5 45.7869 0.5 45.8253 0.5 45.8638C0.5 45.9408 0.5 45.9792 0.5 46.0562V46.0947C0.5 46.1716 0.5 46.2101 0.5 46.2486ZM17.7759 22.3932H39.1303L34.3207 43.209H7.92593L17.7759 22.3932ZM84.9171 22.3932L89.7267 43.209H67.8721V22.3932H84.9171ZM122.008 43.209H95.6135L90.8425 22.3932H112.197L122.008 43.209ZM91.9198 52.828C89.4958 57.0989 84.9171 59.8307 79.9537 59.8307C74.8748 59.8307 70.2192 56.9835 67.8336 52.5202V49.0189H90.9964L91.9198 52.828ZM38.9379 48.9804H62.1006V52.4817C59.7536 56.945 55.0595 59.7923 49.9806 59.7923C45.0171 59.7923 40.4385 57.0604 38.0144 52.7896L38.9379 48.9804ZM62.1006 43.209H40.2461L45.0556 22.3932H62.1006V43.209ZM6.57926 48.9804H32.974L32.243 52.2124C29.9344 56.8296 25.1633 59.8307 19.969 59.8307C13.4281 59.8307 7.92593 55.1751 6.57926 48.9804ZM79.1841 127.472V99.4229C79.1841 99.0766 79.4535 98.8073 79.7998 98.8073H96.0753C96.4215 98.8073 96.6909 99.0766 96.6909 99.4229V127.472H79.1841ZM113.159 127.472H102.424V99.4229C102.424 95.9216 99.5766 93.0358 96.0368 93.0358H79.7613C76.2599 93.0358 73.3742 95.8831 73.3742 99.4229V127.472H16.814V65.3329C17.8528 65.4868 18.8917 65.6022 20.0075 65.6022C25.8559 65.6022 31.358 62.9473 35.0133 58.5225C38.6685 62.9088 44.1707 65.6022 50.0191 65.6022C55.8675 65.6022 61.3696 62.9473 65.0248 58.5225C68.6801 62.9088 74.1822 65.6022 80.0306 65.6022C85.879 65.6022 91.3811 62.9473 95.0364 58.5225C98.6917 62.9088 104.194 65.6022 110.042 65.6022C111.12 65.6022 112.197 65.5252 113.236 65.3329V127.472H113.159ZM109.965 59.8307C104.771 59.8307 99.9999 56.8681 97.6913 52.2124L96.9602 48.9804H123.355C122.047 55.1751 116.545 59.8307 109.965 59.8307ZM18.7378 9.00346C18.7378 7.27203 20.1614 5.80993 21.9313 5.80993H108.003C109.734 5.80993 111.196 7.23355 111.196 9.00346V16.6218H18.7378V9.00346Z" fill="black"/>
<path d="M57.9834 73.0264H26.7021C25.1246 73.0264 23.8164 74.3346 23.8164 75.9121V100.922C23.8164 102.499 25.1246 103.807 26.7021 103.807H57.9834C59.5609 103.807 60.8691 102.499 60.8691 100.922V75.9121C60.8691 74.2961 59.5609 73.0264 57.9834 73.0264ZM55.0977 85.5312H45.2093V78.7978H55.0977V85.5312ZM39.4378 78.7978V85.5312H29.5879V78.7978H39.4378ZM29.5879 91.3026H39.4763V98.036H29.5879V91.3026ZM45.2093 98.036V91.3026H55.0977V98.036H45.2093Z" fill="black"/>
</svg>
