<svg width="140" height="134" viewBox="0 0 140 134" fill="none" xmlns="http://www.w3.org/2000/svg">
<g clip-path="url(#clip0_2962_49)">
<path d="M136.97 115.238H131.703V105.353C131.703 104.49 131.36 103.662 130.749 103.051C130.139 102.441 129.311 102.098 128.447 102.098H121.7V41.431H137.03C137.685 41.4213 138.318 41.1946 138.83 40.7864C139.342 40.3782 139.705 39.8116 139.86 39.1753C140.016 38.5391 139.956 37.8691 139.69 37.2705C139.424 36.6719 138.967 36.1784 138.391 35.8674L71.3909 0.355045C70.9628 0.127055 70.4851 0.0078125 70 0.0078125C69.515 0.0078125 69.0373 0.127055 68.6091 0.355045L1.66833 35.9266C1.11996 36.2503 0.690615 36.7422 0.444074 37.3293C0.197533 37.9165 0.146945 38.5674 0.299822 39.1856C0.452699 39.8037 0.800887 40.3561 1.29267 40.7606C1.78446 41.1651 2.3936 41.4002 3.02964 41.431H18.3591V102.098H11.5526C10.6892 102.098 9.86125 102.441 9.25076 103.051C8.64027 103.662 8.2973 104.49 8.2973 105.353V115.238H3.02964C2.6256 115.237 2.2257 115.319 1.85457 115.479C1.48344 115.638 1.14894 115.872 0.871683 116.166C0.594427 116.46 0.380287 116.808 0.242458 117.187C0.104629 117.567 0.0460309 117.971 0.0702736 118.374V131.218C0.0702736 132.003 0.382063 132.756 0.937051 133.311C1.49204 133.866 2.24477 134.177 3.02964 134.177H136.97C137.755 134.177 138.508 133.866 139.063 133.311C139.618 132.756 139.93 132.003 139.93 131.218V118.374C139.954 117.971 139.895 117.567 139.758 117.187C139.62 116.808 139.406 116.46 139.128 116.166C138.851 115.872 138.517 115.638 138.145 115.479C137.774 115.319 137.374 115.237 136.97 115.238ZM115.722 102.157H111.046V41.431H115.722V102.157ZM46.5915 41.431V102.098H34.754V41.431H46.5915ZM52.5102 41.431H57.186V102.098H52.5102V41.431ZM63.1047 41.431H77.0137V102.098H63.1047V41.431ZM82.9325 41.431H87.6083V102.098H82.9325V41.431ZM93.527 41.431H105.364V102.098H93.527V41.431ZM69.8521 6.27377L125.133 35.5123H14.9263L69.8521 6.27377ZM24.2779 41.431H28.9537V102.098H24.2779V41.431ZM14.8079 108.609H125.192V114.942H14.8079V108.609ZM134.011 128.081H5.989V121.156H10.2505C10.6801 121.244 11.123 121.244 11.5526 121.156H128.447C128.877 121.244 129.32 121.244 129.75 121.156H134.011V128.081Z" fill="black"/>
<path d="M70.0297 31.2509C71.7622 31.2509 73.4558 30.7371 74.8964 29.7746C76.3369 28.8121 77.4597 27.444 78.1227 25.8434C78.7857 24.2427 78.9591 22.4815 78.6211 20.7822C78.2831 19.083 77.4489 17.5222 76.2238 16.2971C74.9987 15.072 73.4379 14.2378 71.7387 13.8998C70.0395 13.5618 68.2782 13.7352 66.6775 14.3982C65.0769 15.0612 63.7088 16.184 62.7463 17.6245C61.7838 19.0651 61.27 20.7587 61.27 22.4912C61.27 23.6415 61.4966 24.7806 61.9368 25.8434C62.377 26.9061 63.0223 27.8718 63.8357 28.6852C64.6491 29.4986 65.6148 30.1439 66.6775 30.5841C67.7403 31.0243 68.8794 31.2509 70.0297 31.2509ZM70.0297 19.4134C70.5916 19.4134 71.1409 19.5801 71.6081 19.8922C72.0753 20.2044 72.4394 20.6481 72.6545 21.1672C72.8695 21.6863 72.9258 22.2576 72.8161 22.8087C72.7065 23.3598 72.4359 23.866 72.0386 24.2633C71.6413 24.6606 71.1351 24.9312 70.584 25.0408C70.0329 25.1504 69.4617 25.0942 68.9425 24.8792C68.4234 24.6641 67.9797 24.3 67.6675 23.8328C67.3554 23.3656 67.1887 22.8163 67.1887 22.2544C67.2483 21.5427 67.5737 20.8795 68.1001 20.3969C68.6266 19.9143 69.3155 19.6477 70.0297 19.6502V19.4134Z" fill="black"/>
</g>
<defs>
<clipPath id="clip0_2962_49">
<rect width="139.86" height="134" fill="white" transform="translate(0.0703125)"/>
</clipPath>
</defs>
</svg>
