<svg width="24" height="24" viewBox="0 0 24 24" fill="none" xmlns="http://www.w3.org/2000/svg">
<path d="M12 24C5.37258 24 0 18.6274 0 12C0 5.37258 5.37258 0 12 0C18.6274 0 24 5.37258 24 12C24 18.6274 18.6274 24 12 24ZM12 21.6C17.302 21.6 21.6 17.302 21.6 12C21.6 6.69806 17.302 2.4 12 2.4C6.69806 2.4 2.4 6.69806 2.4 12C2.4 17.302 6.69806 21.6 12 21.6ZM12 10.303L15.3941 6.90883L17.0911 8.60588L13.697 12L17.0911 15.3941L15.3941 17.0911L12 13.697L8.60588 17.0911L6.90883 15.3941L10.303 12L6.90883 8.60588L8.60588 6.90883L12 10.303Z" fill="#E93324"/>
</svg>
