<svg width="267" height="183" viewBox="0 0 267 183" fill="none" xmlns="http://www.w3.org/2000/svg">
<path d="M19.5161 168.093C18.0359 168.057 16.6563 168.029 15.3771 168.011C14.1163 168.011 12.9193 168.011 11.7864 168.011C9.5753 168.011 7.72054 168.029 6.22212 168.066C4.74197 168.121 3.53592 168.167 2.60397 168.203C1.50756 168.258 0.639572 168.313 0 168.368C0.127914 167.143 0.237555 165.91 0.328923 164.667C0.438563 163.425 0.529931 162.2 0.603025 160.994C0.676118 159.788 0.740076 158.628 0.794896 157.513C0.849716 156.398 0.8954 155.348 0.931947 154.361C1.00504 152.058 1.05072 149.856 1.069 147.755C1.05072 145.562 1.00504 143.315 0.931947 141.012C0.8954 140.025 0.849716 138.993 0.794896 137.915C0.740076 136.818 0.676118 135.704 0.603025 134.571C0.529931 133.438 0.438563 132.305 0.328923 131.172C0.237555 130.021 0.127914 128.906 0 127.828C2.28418 127.919 4.32168 127.992 6.11248 128.047C7.92155 128.084 9.52962 128.102 10.9367 128.102C12.3255 128.102 13.5224 128.093 14.5274 128.075C15.5325 128.038 16.3548 128.001 16.9943 127.965C17.7435 127.928 18.3648 127.883 18.8582 127.828C18.8582 127.81 18.8582 127.974 18.8582 128.321C18.8582 128.668 18.8674 129.125 18.8856 129.692C18.9039 130.258 18.9313 130.898 18.9679 131.61C19.0227 132.323 19.0958 133.045 19.1871 133.776C17.0674 133.575 15.2127 133.447 13.6229 133.392C12.0331 133.319 10.6717 133.282 9.53875 133.282C9.06364 133.282 8.64335 133.282 8.27788 133.282C7.93069 133.282 7.60176 133.301 7.29112 133.337C7.25457 135.366 7.22716 137.275 7.20889 139.066C7.19061 140.839 7.18147 142.52 7.18147 144.109C8.46062 144.073 9.60271 144.027 10.6078 143.972C11.6128 143.899 12.4716 143.817 13.1843 143.726C14.0066 143.634 14.7376 143.534 15.3771 143.424C15.3589 143.552 15.3497 143.698 15.3497 143.863C15.3314 144.009 15.3223 144.183 15.3223 144.384C15.3223 144.585 15.3223 144.813 15.3223 145.069C15.3223 145.654 15.3406 146.357 15.3771 147.179C15.4137 147.983 15.4868 148.851 15.5964 149.783C13.6229 149.528 11.9234 149.372 10.4981 149.317C9.07278 149.244 7.96723 149.208 7.18147 149.208C7.18147 151.108 7.19061 152.808 7.20889 154.306C7.22716 155.786 7.24543 157.093 7.26371 158.226C7.30025 159.359 7.32766 160.327 7.34594 161.131C7.38248 161.935 7.41903 162.602 7.45558 163.132C9.31947 163.096 10.9824 163.004 12.4442 162.858C13.9061 162.712 15.1396 162.566 16.1446 162.42C17.1497 162.255 17.9171 162.109 18.4471 161.981C18.977 161.853 19.242 161.771 19.242 161.734C19.2237 161.826 19.2146 161.926 19.2146 162.036C19.1963 162.127 19.1871 162.246 19.1871 162.392C19.1871 162.538 19.1871 162.712 19.1871 162.913C19.1871 163.425 19.2054 164.11 19.242 164.969C19.2785 165.828 19.3699 166.869 19.5161 168.093Z" fill="#8A7012"/>
<path d="M29.4934 137.092L29.3289 139.34C29.9319 138.335 30.5715 137.568 31.2476 137.038C31.942 136.508 32.5816 136.133 33.1664 135.914C33.7511 135.695 34.2354 135.576 34.6191 135.558C35.0211 135.539 35.2404 135.53 35.2769 135.53C36.6292 135.53 37.8078 135.841 38.8129 136.462C39.8179 137.083 40.6493 137.988 41.3072 139.176C41.965 140.345 42.4493 141.78 42.7599 143.479C43.0888 145.16 43.2533 147.07 43.2533 149.208C43.2533 150.779 43.2259 152.387 43.1711 154.032C43.1345 155.658 43.0432 157.285 42.897 158.911C42.7691 160.519 42.5863 162.091 42.3488 163.626C42.1295 165.161 41.828 166.622 41.4442 168.011L35.0577 167.244C35.4779 165.069 35.8069 163.041 36.0444 161.159C36.282 159.276 36.4556 157.632 36.5652 156.225C36.6931 154.58 36.7662 153.073 36.7845 151.702C36.7845 149.966 36.7297 148.459 36.62 147.179C36.5104 145.882 36.3094 144.813 36.017 143.972C35.7429 143.114 35.3592 142.474 34.8658 142.054C34.3724 141.633 33.742 141.423 32.9745 141.423C32.4628 141.533 31.9512 141.898 31.4395 142.52C31.0009 143.05 30.535 143.899 30.0416 145.069C29.5482 146.22 29.1188 147.846 28.7533 149.948C28.6985 151.373 28.6619 152.789 28.6437 154.196C28.6437 155.585 28.6437 157.065 28.6437 158.637C28.6437 159.971 28.6437 161.405 28.6437 162.94C28.6437 164.475 28.6619 166.211 28.6985 168.148L22.4764 168.011C22.5312 166.147 22.5677 164.174 22.586 162.091C22.6226 159.989 22.6408 157.659 22.6408 155.101C22.6408 152.561 22.6226 149.811 22.586 146.851C22.5495 143.89 22.4764 140.601 22.3667 136.983L29.4934 137.092Z" fill="#8A7012"/>
<path d="M68.0321 137.038C67.155 139.76 66.3327 142.401 65.5652 144.959C64.7977 147.517 64.0759 150.076 63.3998 152.634C62.7237 155.174 62.0841 157.741 61.4811 160.336C60.8781 162.931 60.3116 165.626 59.7817 168.422L51.8601 168.587C51.3667 165.864 50.8642 163.233 50.3526 160.693C49.8592 158.134 49.3292 155.594 48.7628 153.073C48.2146 150.551 47.6298 148.011 47.0085 145.453C46.3872 142.894 45.7202 140.254 45.0076 137.531L52.8743 137.202C53.2946 141.113 53.7606 145.105 54.2722 149.18C54.7839 153.255 55.3869 157.257 56.0813 161.186C56.9767 157.221 57.6985 153.182 58.2467 149.071C58.8132 144.941 59.2517 140.893 59.5624 136.928L68.0321 137.038Z" fill="#8A7012"/>
<path d="M77.242 129.006C77.242 129.591 77.1323 130.149 76.913 130.678C76.6938 131.19 76.3923 131.638 76.0085 132.022C75.6248 132.405 75.1679 132.716 74.638 132.954C74.1263 133.173 73.5781 133.282 72.9934 133.282C72.4086 133.282 71.8513 133.173 71.3214 132.954C70.8097 132.716 70.362 132.405 69.9783 132.022C69.5945 131.638 69.2839 131.19 69.0463 130.678C68.827 130.149 68.7174 129.591 68.7174 129.006C68.7174 128.422 68.827 127.874 69.0463 127.362C69.2839 126.832 69.5945 126.375 69.9783 125.991C70.362 125.608 70.8097 125.306 71.3214 125.087C71.8513 124.849 72.4086 124.73 72.9934 124.73C73.5781 124.73 74.1263 124.849 74.638 125.087C75.1679 125.306 75.6248 125.608 76.0085 125.991C76.3923 126.375 76.6938 126.832 76.913 127.362C77.1323 127.874 77.242 128.422 77.242 129.006ZM77.242 137.312C77.0958 138.755 76.9679 140.318 76.8582 141.999C76.7669 143.662 76.6846 145.37 76.6115 147.125C76.5567 148.879 76.511 150.642 76.4745 152.415C76.4379 154.187 76.4105 155.878 76.3923 157.486C76.374 159.094 76.3557 160.601 76.3374 162.008C76.3374 163.397 76.3374 164.594 76.3374 165.599V168.696L70.1153 168.916C70.1519 167.655 70.1701 166.431 70.1701 165.243C70.1701 164.055 70.1701 162.867 70.1701 161.679C70.1701 159.615 70.1519 157.604 70.1153 155.649C70.0788 153.676 70.0148 151.702 69.9234 149.729C69.8503 147.755 69.7498 145.754 69.6219 143.726C69.494 141.697 69.3387 139.596 69.156 137.421L77.242 137.312Z" fill="#8A7012"/>
<path d="M87.7675 168.587L80.449 169.135C80.7413 165.864 80.9515 162.712 81.0794 159.678C81.2256 156.627 81.2987 153.575 81.2987 150.523C81.2987 148.367 81.2621 146.211 81.189 144.055C81.1342 141.88 81.0246 139.651 80.8601 137.367L87.0274 137.038C86.9909 137.44 86.9635 137.833 86.9452 138.216C86.9269 138.6 86.9178 138.975 86.9178 139.34C87.5573 138.353 88.2517 137.586 89.0009 137.038C89.7684 136.471 90.4811 136.06 91.1389 135.804C91.8882 135.494 92.6465 135.302 93.414 135.229C94.748 135.229 95.89 135.439 96.8403 135.859C97.7905 136.261 98.5671 136.791 99.1701 137.449C99.7732 138.088 100.212 138.81 100.486 139.614C100.76 140.4 100.897 141.167 100.897 141.917C100.897 142.684 100.815 143.461 100.65 144.247C100.486 145.032 100.203 145.745 99.8006 146.385C99.4168 147.006 98.896 147.517 98.2382 147.92C97.5986 148.303 96.8037 148.495 95.8535 148.495C94.9033 148.495 94.1541 148.322 93.6059 147.974C93.0577 147.627 92.6374 147.216 92.345 146.741C92.0709 146.247 91.8882 145.745 91.7968 145.233C91.7237 144.703 91.6871 144.256 91.6871 143.89C91.6871 143.634 91.7328 143.351 91.8242 143.04C91.9156 142.712 92.0526 142.383 92.2354 142.054C92.4181 141.725 92.6465 141.405 92.9206 141.094C93.1947 140.765 93.5145 140.464 93.88 140.19C93.7703 140.153 93.6516 140.126 93.5236 140.108C93.414 140.089 93.3044 140.08 93.1947 140.08C92.281 140.08 91.4679 140.373 90.7552 140.957C90.0425 141.524 89.4212 142.319 88.8913 143.342C88.3797 144.365 87.9502 145.571 87.603 146.96C87.2741 148.349 87.0274 149.866 86.863 151.51C86.9543 154.343 87.0822 157.148 87.2467 159.925C87.4112 162.703 87.5848 165.59 87.7675 168.587Z" fill="#8A7012"/>
<path d="M112.546 169.025C110.737 169.025 109.175 168.632 107.859 167.847C106.562 167.061 105.484 165.965 104.625 164.558C103.784 163.15 103.163 161.478 102.761 159.541C102.359 157.604 102.158 155.494 102.158 153.21C102.158 150.56 102.395 148.13 102.871 145.919C103.346 143.707 104.04 141.807 104.954 140.217C105.886 138.627 107.028 137.394 108.38 136.517C109.75 135.621 111.322 135.174 113.095 135.174C114.885 135.174 116.429 135.548 117.727 136.298C119.024 137.047 120.093 138.098 120.934 139.45C121.793 140.802 122.423 142.419 122.825 144.301C123.227 146.184 123.428 148.258 123.428 150.523C123.428 151.693 123.355 152.963 123.209 154.333C123.081 155.704 122.853 157.075 122.524 158.445C122.213 159.816 121.793 161.14 121.263 162.42C120.733 163.68 120.066 164.804 119.262 165.791C118.458 166.778 117.498 167.563 116.384 168.148C115.287 168.733 114.008 169.025 112.546 169.025ZM116.822 148.495C116.822 147.106 116.758 145.864 116.63 144.767C116.503 143.653 116.292 142.712 116 141.944C115.726 141.177 115.37 140.592 114.931 140.19C114.511 139.77 113.999 139.559 113.396 139.559C112.738 139.559 112.126 139.907 111.56 140.601C110.993 141.295 110.491 142.3 110.052 143.616C109.632 144.932 109.294 146.54 109.038 148.44C108.8 150.322 108.681 152.451 108.681 154.827C108.681 156.362 108.755 157.741 108.901 158.966C109.047 160.172 109.266 161.204 109.559 162.063C109.851 162.904 110.207 163.552 110.628 164.009C111.066 164.448 111.578 164.667 112.163 164.667C112.747 164.667 113.268 164.43 113.725 163.954C114.182 163.461 114.575 162.803 114.904 161.981C115.251 161.159 115.543 160.208 115.781 159.13C116.037 158.034 116.238 156.892 116.384 155.704C116.53 154.498 116.64 153.274 116.713 152.031C116.786 150.788 116.822 149.61 116.822 148.495Z" fill="#8A7012"/>
<path d="M147.33 136.764C147.239 137.842 147.147 138.956 147.056 140.108C146.983 141.241 146.91 142.383 146.836 143.534C146.763 144.667 146.699 145.791 146.645 146.905C146.608 148.002 146.572 149.043 146.535 150.03C146.444 152.369 146.38 154.662 146.343 156.91C146.233 159.066 146.17 161.204 146.151 163.324C146.151 165.425 146.087 167.426 145.959 169.327C145.831 171.246 145.585 173.018 145.219 174.644C144.872 176.289 144.296 177.705 143.492 178.893C142.688 180.099 141.601 181.04 140.231 181.716C138.878 182.392 137.133 182.73 134.995 182.73C133.369 182.73 132.072 182.493 131.103 182.018C130.153 181.561 129.422 180.994 128.91 180.318C128.417 179.661 128.088 178.957 127.923 178.208C127.777 177.459 127.704 176.792 127.704 176.207C127.704 175.586 127.796 175.001 127.978 174.453C128.179 173.923 128.453 173.457 128.801 173.055C129.148 172.653 129.568 172.333 130.061 172.095C130.573 171.858 131.149 171.739 131.788 171.739C132.464 171.739 133.058 171.867 133.57 172.123C134.1 172.379 134.538 172.707 134.886 173.109C135.251 173.53 135.525 173.996 135.708 174.507C135.909 175.019 136.009 175.531 136.009 176.042C135.973 176.335 135.9 176.636 135.79 176.947C135.681 177.203 135.516 177.486 135.297 177.797C135.096 178.126 134.785 178.445 134.365 178.756C134.785 178.902 135.178 178.975 135.543 178.975C136.019 178.975 136.521 178.829 137.051 178.537C137.581 178.263 138.065 177.824 138.504 177.221C138.942 176.618 139.308 175.86 139.6 174.946C139.893 174.032 140.057 172.945 140.094 171.684L140.203 164.092C139.491 165.298 138.76 166.239 138.01 166.915C137.279 167.573 136.612 168.057 136.009 168.368C135.297 168.733 134.621 168.952 133.981 169.025C133.049 169.025 132.108 168.76 131.158 168.23C130.208 167.701 129.349 166.787 128.581 165.489C127.814 164.192 127.183 162.465 126.69 160.309C126.197 158.134 125.95 155.412 125.95 152.141C125.95 149.984 126.078 148.084 126.334 146.439C126.589 144.776 126.937 143.333 127.375 142.109C127.814 140.884 128.325 139.861 128.91 139.039C129.513 138.198 130.153 137.522 130.829 137.01C131.523 136.499 132.245 136.133 132.994 135.914C133.744 135.695 134.484 135.585 135.215 135.585C135.781 135.621 136.366 135.749 136.969 135.969C137.499 136.17 138.093 136.48 138.75 136.901C139.408 137.321 140.066 137.924 140.724 138.71L140.888 136.078L147.33 136.764ZM140.56 143.726C140.139 143.013 139.646 142.392 139.079 141.862C138.531 141.332 137.919 141.067 137.243 141.067C136.731 141.067 136.21 141.25 135.681 141.615C135.169 141.962 134.703 142.575 134.283 143.452C133.862 144.31 133.515 145.462 133.241 146.905C132.985 148.349 132.857 150.167 132.857 152.36C132.857 154.388 132.949 156.069 133.131 157.403C133.314 158.737 133.561 159.806 133.871 160.61C134.182 161.396 134.538 161.954 134.94 162.282C135.342 162.593 135.772 162.748 136.229 162.748C136.832 162.748 137.353 162.566 137.791 162.2C138.248 161.835 138.632 161.396 138.942 160.885C139.253 160.355 139.509 159.806 139.71 159.24C139.929 158.673 140.112 158.18 140.258 157.76C140.295 155.366 140.331 153.009 140.368 150.688C140.404 148.367 140.468 146.046 140.56 143.726Z" fill="#8A7012"/>
<path d="M157.828 168.587L150.509 169.135C150.802 165.864 151.012 162.712 151.14 159.678C151.286 156.627 151.359 153.575 151.359 150.523C151.359 148.367 151.323 146.211 151.25 144.055C151.195 141.88 151.085 139.651 150.921 137.367L157.088 137.038C157.051 137.44 157.024 137.833 157.006 138.216C156.987 138.6 156.978 138.975 156.978 139.34C157.618 138.353 158.312 137.586 159.061 137.038C159.829 136.471 160.542 136.06 161.199 135.804C161.949 135.494 162.707 135.302 163.474 135.229C164.808 135.229 165.951 135.439 166.901 135.859C167.851 136.261 168.628 136.791 169.231 137.449C169.834 138.088 170.272 138.81 170.546 139.614C170.82 140.4 170.957 141.167 170.957 141.917C170.957 142.684 170.875 143.461 170.711 144.247C170.546 145.032 170.263 145.745 169.861 146.385C169.477 147.006 168.957 147.517 168.299 147.92C167.659 148.303 166.864 148.495 165.914 148.495C164.964 148.495 164.215 148.322 163.666 147.974C163.118 147.627 162.698 147.216 162.405 146.741C162.131 146.247 161.949 145.745 161.857 145.233C161.784 144.703 161.748 144.256 161.748 143.89C161.748 143.634 161.793 143.351 161.885 143.04C161.976 142.712 162.113 142.383 162.296 142.054C162.479 141.725 162.707 141.405 162.981 141.094C163.255 140.765 163.575 140.464 163.94 140.19C163.831 140.153 163.712 140.126 163.584 140.108C163.474 140.089 163.365 140.08 163.255 140.08C162.342 140.08 161.528 140.373 160.816 140.957C160.103 141.524 159.482 142.319 158.952 143.342C158.44 144.365 158.011 145.571 157.664 146.96C157.335 148.349 157.088 149.866 156.923 151.51C157.015 154.343 157.143 157.148 157.307 159.925C157.472 162.703 157.645 165.59 157.828 168.587Z" fill="#8A7012"/>
<path d="M182.607 169.025C180.798 169.025 179.235 168.632 177.92 167.847C176.622 167.061 175.544 165.965 174.685 164.558C173.845 163.15 173.223 161.478 172.821 159.541C172.419 157.604 172.218 155.494 172.218 153.21C172.218 150.56 172.456 148.13 172.931 145.919C173.406 143.707 174.101 141.807 175.014 140.217C175.946 138.627 177.088 137.394 178.44 136.517C179.811 135.621 181.382 135.174 183.155 135.174C184.946 135.174 186.49 135.548 187.787 136.298C189.085 137.047 190.154 138.098 190.994 139.45C191.853 140.802 192.484 142.419 192.886 144.301C193.288 146.184 193.489 148.258 193.489 150.523C193.489 151.693 193.416 152.963 193.269 154.333C193.141 155.704 192.913 157.075 192.584 158.445C192.273 159.816 191.853 161.14 191.323 162.42C190.793 163.68 190.126 164.804 189.322 165.791C188.518 166.778 187.559 167.563 186.444 168.148C185.348 168.733 184.069 169.025 182.607 169.025ZM186.883 148.495C186.883 147.106 186.819 145.864 186.691 144.767C186.563 143.653 186.353 142.712 186.061 141.944C185.786 141.177 185.43 140.592 184.992 140.19C184.571 139.77 184.06 139.559 183.457 139.559C182.799 139.559 182.187 139.907 181.62 140.601C181.054 141.295 180.551 142.3 180.112 143.616C179.692 144.932 179.354 146.54 179.098 148.44C178.861 150.322 178.742 152.451 178.742 154.827C178.742 156.362 178.815 157.741 178.961 158.966C179.107 160.172 179.327 161.204 179.619 162.063C179.911 162.904 180.268 163.552 180.688 164.009C181.127 164.448 181.638 164.667 182.223 164.667C182.808 164.667 183.329 164.43 183.785 163.954C184.242 163.461 184.635 162.803 184.964 161.981C185.311 161.159 185.604 160.208 185.841 159.13C186.097 158.034 186.298 156.892 186.444 155.704C186.59 154.498 186.7 153.274 186.773 152.031C186.846 150.788 186.883 149.61 186.883 148.495Z" fill="#8A7012"/>
<path d="M225.778 137.833C225.705 139.404 225.65 140.976 225.613 142.547C225.595 144.1 225.577 145.507 225.559 146.768C225.54 148.248 225.531 149.665 225.531 151.017C225.495 152.351 225.431 153.73 225.339 155.156C225.248 156.563 225.083 157.933 224.846 159.267C224.627 160.601 224.316 161.862 223.914 163.05C223.53 164.238 223.028 165.279 222.406 166.175C221.785 167.07 221.027 167.774 220.131 168.285C219.254 168.815 218.213 169.08 217.007 169.08C216.02 169.007 215.079 168.724 214.183 168.23C213.8 168.011 213.407 167.746 213.005 167.436C212.603 167.107 212.219 166.705 211.854 166.23C211.488 165.754 211.141 165.197 210.812 164.558C210.483 163.918 210.209 163.169 209.99 162.31C209.387 163.881 208.683 165.097 207.879 165.955C207.075 166.814 206.317 167.445 205.604 167.847C204.745 168.322 203.886 168.605 203.027 168.696C202.041 168.696 201.2 168.477 200.506 168.039C199.811 167.6 199.227 166.997 198.751 166.23C198.276 165.444 197.902 164.53 197.628 163.489C197.354 162.447 197.143 161.323 196.997 160.117C196.851 158.911 196.75 157.65 196.696 156.334C196.659 155.019 196.641 153.712 196.641 152.415C196.641 151.976 196.641 151.666 196.641 151.483C196.659 151.282 196.668 151.09 196.668 150.907C196.687 150.706 196.705 150.441 196.723 150.112C196.741 149.765 196.75 149.235 196.75 148.523C196.769 147.81 196.778 146.841 196.778 145.617C196.796 144.393 196.805 142.785 196.805 140.793C196.805 140.172 196.805 139.569 196.805 138.984C196.805 138.381 196.787 137.823 196.75 137.312L204.535 137.531C203.914 140.784 203.493 143.972 203.274 147.097C203.073 150.222 202.973 153.347 202.973 156.471C202.973 158.5 203.11 159.971 203.384 160.885C203.658 161.798 204.197 162.255 205.001 162.255C205.366 162.255 205.695 162.054 205.988 161.652C206.298 161.232 206.563 160.684 206.783 160.007C207.02 159.313 207.221 158.527 207.386 157.65C207.568 156.773 207.715 155.878 207.824 154.964C207.934 154.032 208.016 153.118 208.071 152.223C208.126 151.328 208.153 150.514 208.153 149.783C208.153 149.016 208.144 148.276 208.126 147.563C208.126 146.851 208.098 146.11 208.043 145.343C208.007 144.557 207.952 143.735 207.879 142.876C207.824 141.999 207.742 141.021 207.632 139.943L214.649 140.299C214.284 142.456 213.973 144.548 213.717 146.576C213.48 148.586 213.361 150.587 213.361 152.579C213.361 153.712 213.407 154.873 213.498 156.06C213.608 157.23 213.772 158.299 213.992 159.267C214.229 160.218 214.531 161.003 214.896 161.625C215.262 162.228 215.7 162.529 216.212 162.529C216.851 162.529 217.372 162.145 217.774 161.378C218.194 160.592 218.514 159.578 218.733 158.335C218.971 157.075 219.135 155.667 219.227 154.114C219.318 152.543 219.364 150.971 219.364 149.4C219.364 149.235 219.355 148.842 219.336 148.221C219.318 147.6 219.273 146.787 219.199 145.782C219.126 144.776 219.017 143.589 218.871 142.218C218.724 140.848 218.514 139.331 218.24 137.668L225.778 137.833Z" fill="#8A7012"/>
<path d="M239.072 125.799C238.926 127.682 238.807 129.536 238.716 131.364C238.624 133.173 238.533 134.991 238.441 136.818C239.245 136.782 240.04 136.754 240.826 136.736C241.612 136.7 242.416 136.654 243.238 136.599L243.348 143.616C242.471 143.47 241.603 143.351 240.744 143.26C239.885 143.168 239.044 143.095 238.222 143.04C238.167 144.594 238.131 146.129 238.112 147.645C238.112 149.162 238.112 150.697 238.112 152.25C238.112 155.028 238.14 157.787 238.195 160.528C238.268 163.269 238.377 166.029 238.524 168.806L231.37 168.696C231.607 164.402 231.799 160.117 231.945 155.841C232.11 151.547 232.219 147.225 232.274 142.876C231.507 142.913 230.739 142.958 229.972 143.013C229.204 143.05 228.418 143.095 227.614 143.15L227.834 136.654C228.583 136.709 229.323 136.754 230.054 136.791C230.803 136.809 231.543 136.837 232.274 136.873C232.274 135.046 232.256 133.228 232.219 131.419C232.183 129.591 232.146 127.755 232.11 125.909L239.072 125.799Z" fill="#8A7012"/>
<path d="M252.777 125.745C252.631 128.12 252.494 130.477 252.366 132.816C252.238 135.155 252.128 137.513 252.037 139.888C252.676 138.682 253.389 137.75 254.175 137.092C254.961 136.416 255.701 135.923 256.395 135.612C257.199 135.247 258.012 135.028 258.835 134.954C260.15 134.954 261.274 135.274 262.206 135.914C263.138 136.553 263.905 137.467 264.509 138.655C265.112 139.843 265.55 141.277 265.824 142.958C266.098 144.621 266.235 146.485 266.235 148.55C266.235 152.004 266.117 155.348 265.879 158.582C265.66 161.798 265.185 164.941 264.454 168.011L258.04 167.244C258.46 165.069 258.78 163.041 258.999 161.159C259.237 159.276 259.41 157.632 259.52 156.225C259.648 154.58 259.721 153.073 259.739 151.702C259.739 149.966 259.712 148.459 259.657 147.179C259.62 145.882 259.492 144.813 259.273 143.972C259.072 143.114 258.752 142.474 258.314 142.054C257.875 141.633 257.263 141.423 256.477 141.423C255.874 141.515 255.28 141.88 254.696 142.52C254.44 142.794 254.184 143.141 253.928 143.561C253.672 143.982 253.407 144.502 253.133 145.124C252.877 145.727 252.631 146.439 252.393 147.262C252.156 148.084 251.946 149.034 251.763 150.112C251.708 151.976 251.671 153.831 251.653 155.677C251.653 157.522 251.653 159.359 251.653 161.186C251.653 162.337 251.653 163.498 251.653 164.667C251.653 165.837 251.671 166.997 251.708 168.148L245.486 168.011C245.687 164.667 245.833 161.323 245.924 157.979C246.034 154.635 246.089 151.264 246.089 147.865C246.089 144.137 246.025 140.437 245.897 136.764C245.769 133.072 245.586 129.363 245.349 125.635L252.777 125.745Z" fill="#8A7012"/>
<path d="M132.599 9.72209L127.443 15.7301H130.065H132.687V25.343V34.9559H137.93H143.174V25.343V15.7301H145.795H148.417L143.261 9.72209C140.443 6.42312 138.039 3.71403 137.93 3.71403C137.821 3.71403 135.418 6.42312 132.599 9.72209Z" fill="#8A7012"/>
<path d="M95.8953 23.7045L90.7393 29.7126H93.361H95.9827V39.3255V48.9384H101.226H106.469V39.3255V29.7126H109.091H111.713L106.557 23.7045C103.739 20.4055 101.335 17.6965 101.226 17.6965C101.117 17.6965 98.7136 20.4055 95.8953 23.7045Z" fill="#8A7012"/>
<path d="M169.302 23.7045L164.146 29.7126H166.768H169.39V39.3255V48.9384H174.633H179.877V39.3255V29.7126H182.498H185.12L179.964 23.7045C177.146 20.4055 174.743 17.6965 174.633 17.6965C174.524 17.6965 172.121 20.4055 169.302 23.7045Z" fill="#8A7012"/>
<path d="M135.374 49.2442C132.577 49.9215 129.475 52.3247 128.23 54.7716C127.553 56.1262 127.006 58.0925 127.006 59.2067C127.006 59.9713 126.963 60.015 125.914 60.2772C125.324 60.4301 124.254 60.9326 123.554 61.3696C121.217 62.8989 119.797 65.0618 119.316 67.8801C118.814 70.8732 119.971 74.063 122.287 76.1822C124.603 78.2577 126.089 78.6509 131.857 78.6509H136.182V93.5072V108.364H137.93H139.678V93.5072V78.6509H144.004C149.99 78.6509 151.519 78.214 153.879 75.8326C156.042 73.6697 157.047 70.6111 156.522 67.7927C156.02 64.9963 154.6 62.8771 152.306 61.3696C151.607 60.9326 150.536 60.4301 149.946 60.2772C148.898 60.015 148.854 59.9713 148.854 59.2067C148.854 56.8908 147.609 54.2036 145.599 52.1936C142.846 49.4409 139.066 48.3485 135.374 49.2442ZM139.678 64.9963V67.0718L141.863 65.9794C143.064 65.3895 144.069 64.887 144.113 64.887C144.244 64.887 145.664 67.9457 145.555 68.0331C145.511 68.0768 144.157 68.7759 142.584 69.5624L139.678 71.0043V74.8276V78.6509H137.93H136.182V74.8276V71.0043L133.298 69.5624C131.704 68.7759 130.349 68.0768 130.305 68.0331C130.196 67.9457 131.616 64.887 131.747 64.887C131.791 64.887 132.796 65.3895 133.998 65.9794L136.182 67.0718V64.9963V62.9208H137.93H139.678V64.9963Z" fill="#8A7012"/>
<path d="M100.855 68.3608C97.3152 69.2784 94.3877 72.5773 94.0818 76.0074L93.9507 77.2964L93.0987 77.4275C91.766 77.646 90.2804 78.4325 89.2098 79.5248C85.4302 83.2826 86.5226 89.5528 91.3946 91.9342C92.5525 92.5023 92.7273 92.5241 96.922 92.5896L101.226 92.677V100.52V108.364H102.974H104.722V100.52V92.677L108.61 92.5896C112.259 92.5241 112.543 92.5023 113.723 91.9342C115.383 91.1696 116.738 89.8587 117.524 88.3294C118.092 87.1933 118.158 86.8438 118.158 84.9867C118.158 83.1952 118.07 82.7364 117.59 81.6877C116.65 79.6996 114.575 77.9737 112.565 77.493C112.04 77.3619 111.975 77.2309 111.866 76.0292C111.603 73.1672 109.637 70.4144 106.841 69.0381C105.595 68.4263 105.115 68.3171 103.476 68.2515C102.406 68.2078 101.248 68.2734 100.855 68.3608ZM104.722 81.1634V82.5835L106.251 81.8188C107.081 81.4037 107.824 81.0542 107.889 81.0542C107.933 81.0542 108.348 81.7314 108.763 82.5835L109.528 84.1128L107.125 85.3144L104.722 86.516V89.5747V92.6333H102.974H101.226V89.5747V86.516L98.8227 85.3144L96.4195 84.1128L97.1842 82.5835C97.5993 81.7314 98.0144 81.0542 98.0581 81.0542C98.1236 81.0542 98.8664 81.4037 99.6966 81.8188L101.226 82.5835V81.1634V79.7433H102.974H104.722V81.1634Z" fill="#8A7012"/>
<path d="M170.81 68.47C167.249 69.3439 164.299 72.621 163.994 76.0293L163.863 77.2746L162.748 77.6241C160.564 78.3232 158.401 80.5298 157.767 82.649C157.614 83.1515 157.505 84.2658 157.505 85.1178C157.527 87.958 159.275 90.6234 161.962 91.9342C163.098 92.4804 163.36 92.5241 167.161 92.5896L171.138 92.677V100.52V108.364H172.886H174.633V100.52V92.677L178.522 92.5896C182.171 92.5241 182.455 92.5023 183.634 91.9342C185.295 91.1696 186.649 89.8587 187.436 88.3294C188.004 87.1933 188.07 86.8438 188.07 84.9867C188.07 83.1952 187.982 82.7364 187.501 81.6877C186.562 79.6996 184.487 77.9737 182.477 77.493C181.952 77.3619 181.887 77.2309 181.756 76.0074C181.384 72.4463 178.369 69.191 174.677 68.4045C173.235 68.0986 172.23 68.1205 170.81 68.47ZM174.633 81.1634V82.5835L176.163 81.8188C176.993 81.4037 177.736 81.0542 177.801 81.0542C177.845 81.0542 178.26 81.7314 178.675 82.5835L179.44 84.1128L177.037 85.3144L174.633 86.516V89.5747V92.6333H172.886H171.138V89.5747V86.516L168.734 85.3144L166.331 84.1128L167.096 82.5835C167.511 81.7314 167.926 81.0542 167.97 81.0542C168.035 81.0542 168.778 81.4037 169.608 81.8188L171.138 82.5835V81.1634V79.7433H172.886H174.633V81.1634Z" fill="#8A7012"/>
</svg>
