<svg width="170" height="25" viewBox="0 0 170 25" fill="none" xmlns="http://www.w3.org/2000/svg">
<path d="M7.04 1.08C8.816 1.08 10.368 1.44 11.696 2.16C13.04 2.864 14.072 3.856 14.792 5.136C15.512 6.416 15.872 7.88 15.872 9.528C15.872 11.16 15.504 12.616 14.768 13.896C14.048 15.176 13.016 16.184 11.672 16.92C10.344 17.64 8.8 18 7.04 18H0.344V1.08H7.04ZM6.68 13.848C8.056 13.848 9.136 13.472 9.92 12.72C10.704 11.968 11.096 10.904 11.096 9.528C11.096 8.136 10.704 7.064 9.92 6.312C9.136 5.544 8.056 5.16 6.68 5.16H5.048V13.848H6.68ZM22.6964 6.912C23.2244 6.144 23.8644 5.536 24.6164 5.088C25.3684 4.64 26.1764 4.416 27.0404 4.416V9.432H25.7204C24.6964 9.432 23.9364 9.632 23.4404 10.032C22.9444 10.432 22.6964 11.128 22.6964 12.12V18H17.9924V4.536H22.6964V6.912ZM27.9588 11.256C27.9588 9.864 28.2068 8.648 28.7028 7.608C29.2148 6.568 29.9028 5.768 30.7668 5.208C31.6468 4.648 32.6228 4.368 33.6948 4.368C34.6228 4.368 35.4228 4.552 36.0948 4.92C36.7668 5.288 37.2868 5.784 37.6548 6.408V4.536H42.3588V18H37.6548V16.128C37.2868 16.752 36.7588 17.248 36.0708 17.616C35.3988 17.984 34.6068 18.168 33.6948 18.168C32.6228 18.168 31.6468 17.888 30.7668 17.328C29.9028 16.768 29.2148 15.968 28.7028 14.928C28.2068 13.872 27.9588 12.648 27.9588 11.256ZM37.6548 11.256C37.6548 10.392 37.4148 9.712 36.9348 9.216C36.4708 8.72 35.8948 8.472 35.2068 8.472C34.5028 8.472 33.9188 8.72 33.4548 9.216C32.9908 9.696 32.7588 10.376 32.7588 11.256C32.7588 12.12 32.9908 12.808 33.4548 13.32C33.9188 13.816 34.5028 14.064 35.2068 14.064C35.8948 14.064 36.4708 13.816 36.9348 13.32C37.4148 12.824 37.6548 12.136 37.6548 11.256ZM50.0073 4.368C50.9193 4.368 51.7113 4.552 52.3833 4.92C53.0713 5.288 53.5993 5.784 53.9673 6.408V4.536H58.6713V17.856C58.6713 19.12 58.4313 20.256 57.9513 21.264C57.4713 22.288 56.7193 23.104 55.6953 23.712C54.6873 24.32 53.4073 24.624 51.8553 24.624C49.7753 24.624 48.1113 24.136 46.8633 23.16C45.6153 22.184 44.9033 20.856 44.7273 19.176H49.3593C49.4553 19.608 49.6953 19.944 50.0793 20.184C50.4633 20.424 50.9593 20.544 51.5673 20.544C53.1673 20.544 53.9673 19.648 53.9673 17.856V16.128C53.5993 16.752 53.0713 17.248 52.3833 17.616C51.7113 17.984 50.9193 18.168 50.0073 18.168C48.9353 18.168 47.9593 17.888 47.0793 17.328C46.2153 16.768 45.5273 15.968 45.0153 14.928C44.5193 13.872 44.2713 12.648 44.2713 11.256C44.2713 9.864 44.5193 8.648 45.0153 7.608C45.5273 6.568 46.2153 5.768 47.0793 5.208C47.9593 4.648 48.9353 4.368 50.0073 4.368ZM53.9673 11.256C53.9673 10.392 53.7273 9.712 53.2473 9.216C52.7833 8.72 52.2073 8.472 51.5193 8.472C50.8153 8.472 50.2313 8.72 49.7673 9.216C49.3033 9.696 49.0713 10.376 49.0713 11.256C49.0713 12.12 49.3033 12.808 49.7673 13.32C50.2313 13.816 50.8153 14.064 51.5193 14.064C52.2073 14.064 52.7833 13.816 53.2473 13.32C53.7273 12.824 53.9673 12.136 53.9673 11.256ZM67.6158 18.168C66.2718 18.168 65.0638 17.888 63.9918 17.328C62.9358 16.768 62.1038 15.968 61.4958 14.928C60.8878 13.888 60.5838 12.664 60.5838 11.256C60.5838 9.864 60.8878 8.648 61.4958 7.608C62.1198 6.568 62.9598 5.768 64.0158 5.208C65.0878 4.648 66.2958 4.368 67.6398 4.368C68.9838 4.368 70.1838 4.648 71.2398 5.208C72.3118 5.768 73.1518 6.568 73.7598 7.608C74.3838 8.648 74.6958 9.864 74.6958 11.256C74.6958 12.648 74.3838 13.872 73.7598 14.928C73.1518 15.968 72.3118 16.768 71.2398 17.328C70.1678 17.888 68.9598 18.168 67.6158 18.168ZM67.6158 14.088C68.2718 14.088 68.8158 13.848 69.2478 13.368C69.6958 12.872 69.9198 12.168 69.9198 11.256C69.9198 10.344 69.6958 9.648 69.2478 9.168C68.8158 8.688 68.2798 8.448 67.6398 8.448C66.9998 8.448 66.4638 8.688 66.0318 9.168C65.5998 9.648 65.3838 10.344 65.3838 11.256C65.3838 12.184 65.5918 12.888 66.0078 13.368C66.4238 13.848 66.9598 14.088 67.6158 14.088ZM85.4176 4.416C86.9696 4.416 88.2016 4.936 89.1136 5.976C90.0256 7 90.4816 8.392 90.4816 10.152V18H85.7776V10.776C85.7776 10.008 85.5776 9.408 85.1776 8.976C84.7776 8.528 84.2416 8.304 83.5696 8.304C82.8656 8.304 82.3136 8.528 81.9136 8.976C81.5136 9.408 81.3136 10.008 81.3136 10.776V18H76.6096V4.536H81.3136V6.456C81.7296 5.848 82.2896 5.36 82.9936 4.992C83.6976 4.608 84.5056 4.416 85.4176 4.416ZM109.129 1.08V4.824H102.361V7.8H107.353V11.376H102.361V18H97.6565V1.08H109.129ZM117.374 18.168C116.03 18.168 114.822 17.888 113.75 17.328C112.694 16.768 111.862 15.968 111.254 14.928C110.646 13.888 110.342 12.664 110.342 11.256C110.342 9.864 110.646 8.648 111.254 7.608C111.878 6.568 112.718 5.768 113.774 5.208C114.846 4.648 116.054 4.368 117.398 4.368C118.742 4.368 119.942 4.648 120.998 5.208C122.07 5.768 122.91 6.568 123.518 7.608C124.142 8.648 124.454 9.864 124.454 11.256C124.454 12.648 124.142 13.872 123.518 14.928C122.91 15.968 122.07 16.768 120.998 17.328C119.926 17.888 118.718 18.168 117.374 18.168ZM117.374 14.088C118.03 14.088 118.574 13.848 119.006 13.368C119.454 12.872 119.678 12.168 119.678 11.256C119.678 10.344 119.454 9.648 119.006 9.168C118.574 8.688 118.038 8.448 117.398 8.448C116.758 8.448 116.222 8.688 115.79 9.168C115.358 9.648 115.142 10.344 115.142 11.256C115.142 12.184 115.35 12.888 115.766 13.368C116.182 13.848 116.718 14.088 117.374 14.088ZM132.631 18.168C131.287 18.168 130.079 17.888 129.007 17.328C127.951 16.768 127.119 15.968 126.511 14.928C125.903 13.888 125.599 12.664 125.599 11.256C125.599 9.864 125.903 8.648 126.511 7.608C127.135 6.568 127.975 5.768 129.031 5.208C130.103 4.648 131.311 4.368 132.655 4.368C133.999 4.368 135.199 4.648 136.255 5.208C137.327 5.768 138.167 6.568 138.775 7.608C139.399 8.648 139.711 9.864 139.711 11.256C139.711 12.648 139.399 13.872 138.775 14.928C138.167 15.968 137.327 16.768 136.255 17.328C135.183 17.888 133.975 18.168 132.631 18.168ZM132.631 14.088C133.287 14.088 133.831 13.848 134.263 13.368C134.711 12.872 134.935 12.168 134.935 11.256C134.935 10.344 134.711 9.648 134.263 9.168C133.831 8.688 133.295 8.448 132.655 8.448C132.015 8.448 131.479 8.688 131.047 9.168C130.615 9.648 130.399 10.344 130.399 11.256C130.399 12.184 130.607 12.888 131.023 13.368C131.439 13.848 131.975 14.088 132.631 14.088ZM140.857 11.256C140.857 9.864 141.105 8.648 141.601 7.608C142.113 6.568 142.809 5.768 143.689 5.208C144.569 4.648 145.545 4.368 146.617 4.368C147.481 4.368 148.249 4.552 148.921 4.92C149.609 5.272 150.145 5.76 150.529 6.384V0.24H155.257V18H150.529V16.128C150.161 16.752 149.641 17.248 148.969 17.616C148.297 17.984 147.505 18.168 146.593 18.168C145.521 18.168 144.545 17.888 143.665 17.328C142.801 16.768 142.113 15.968 141.601 14.928C141.105 13.872 140.857 12.648 140.857 11.256ZM150.553 11.256C150.553 10.392 150.313 9.712 149.833 9.216C149.369 8.72 148.793 8.472 148.105 8.472C147.401 8.472 146.817 8.72 146.353 9.216C145.889 9.696 145.657 10.376 145.657 11.256C145.657 12.12 145.889 12.808 146.353 13.32C146.817 13.816 147.401 14.064 148.105 14.064C148.793 14.064 149.369 13.816 149.833 13.32C150.313 12.824 150.553 12.136 150.553 11.256ZM163.674 18.168C162.458 18.168 161.37 17.968 160.41 17.568C159.466 17.152 158.714 16.592 158.154 15.888C157.61 15.168 157.306 14.36 157.242 13.464H161.802C161.866 13.896 162.066 14.232 162.402 14.472C162.738 14.712 163.154 14.832 163.65 14.832C164.034 14.832 164.338 14.752 164.562 14.592C164.786 14.432 164.898 14.224 164.898 13.968C164.898 13.632 164.714 13.384 164.346 13.224C163.978 13.064 163.37 12.888 162.522 12.696C161.562 12.504 160.762 12.288 160.122 12.048C159.482 11.808 158.922 11.416 158.442 10.872C157.978 10.328 157.746 9.592 157.746 8.664C157.746 7.864 157.962 7.144 158.394 6.504C158.826 5.848 159.458 5.328 160.29 4.944C161.138 4.56 162.154 4.368 163.338 4.368C165.098 4.368 166.482 4.8 167.49 5.664C168.498 6.528 169.082 7.664 169.242 9.072H164.994C164.914 8.64 164.722 8.312 164.418 8.088C164.13 7.848 163.738 7.728 163.242 7.728C162.858 7.728 162.562 7.8 162.354 7.944C162.162 8.088 162.066 8.288 162.066 8.544C162.066 8.864 162.25 9.112 162.618 9.288C162.986 9.448 163.578 9.616 164.394 9.792C165.37 10 166.178 10.232 166.818 10.488C167.474 10.744 168.042 11.16 168.522 11.736C169.018 12.296 169.266 13.064 169.266 14.04C169.266 14.824 169.034 15.528 168.57 16.152C168.122 16.776 167.474 17.272 166.626 17.64C165.794 17.992 164.81 18.168 163.674 18.168Z" fill="#00B088"/>
</svg>
