<svg width="115" height="26" viewBox="0 0 115 26" fill="none" xmlns="http://www.w3.org/2000/svg">
<path d="M9.1875 19.2695C8.55469 19.2539 7.96484 19.2422 7.41797 19.2344C6.87891 19.2344 6.36719 19.2344 5.88281 19.2344C4.9375 19.2344 4.14453 19.2422 3.50391 19.2578C2.87109 19.2812 2.35547 19.3008 1.95703 19.3164C1.48828 19.3398 1.11719 19.3633 0.84375 19.3867C0.898438 18.8633 0.945312 18.3359 0.984375 17.8047C1.03125 17.2734 1.07031 16.75 1.10156 16.2344C1.13281 15.7188 1.16016 15.2227 1.18359 14.7461C1.20703 14.2695 1.22656 13.8203 1.24219 13.3984C1.27344 12.4141 1.29297 11.4727 1.30078 10.5742C1.29297 9.63672 1.27344 8.67578 1.24219 7.69141C1.22656 7.26953 1.20703 6.82812 1.18359 6.36719C1.16016 5.89844 1.13281 5.42188 1.10156 4.9375C1.07031 4.45312 1.03125 3.96875 0.984375 3.48438C0.945312 2.99219 0.898438 2.51562 0.84375 2.05469C1.82031 2.09375 2.69141 2.125 3.45703 2.14844C4.23047 2.16406 4.91797 2.17188 5.51953 2.17188C6.11328 2.17188 6.625 2.16797 7.05469 2.16016C7.48438 2.14453 7.83594 2.12891 8.10938 2.11328C8.42969 2.09766 8.69531 2.07812 8.90625 2.05469C8.90625 2.04687 8.90625 2.11719 8.90625 2.26562C8.90625 2.41406 8.91016 2.60937 8.91797 2.85156C8.92578 3.09375 8.9375 3.36719 8.95312 3.67188C8.97656 3.97656 9.00781 4.28516 9.04688 4.59766C8.14062 4.51172 7.34766 4.45703 6.66797 4.43359C5.98828 4.40234 5.40625 4.38672 4.92188 4.38672C4.71875 4.38672 4.53906 4.38672 4.38281 4.38672C4.23438 4.38672 4.09375 4.39453 3.96094 4.41016C3.94531 5.27734 3.93359 6.09375 3.92578 6.85938C3.91797 7.61719 3.91406 8.33594 3.91406 9.01562C4.46094 9 4.94922 8.98047 5.37891 8.95703C5.80859 8.92578 6.17578 8.89062 6.48047 8.85156C6.83203 8.8125 7.14453 8.76953 7.41797 8.72266C7.41016 8.77734 7.40625 8.83984 7.40625 8.91016C7.39844 8.97266 7.39453 9.04688 7.39453 9.13281C7.39453 9.21875 7.39453 9.31641 7.39453 9.42578C7.39453 9.67578 7.40234 9.97656 7.41797 10.3281C7.43359 10.6719 7.46484 11.043 7.51172 11.4414C6.66797 11.332 5.94141 11.2656 5.33203 11.2422C4.72266 11.2109 4.25 11.1953 3.91406 11.1953C3.91406 12.0078 3.91797 12.7344 3.92578 13.375C3.93359 14.0078 3.94141 14.5664 3.94922 15.0508C3.96484 15.5352 3.97656 15.9492 3.98438 16.293C4 16.6367 4.01562 16.9219 4.03125 17.1484C4.82812 17.1328 5.53906 17.0938 6.16406 17.0312C6.78906 16.9688 7.31641 16.9062 7.74609 16.8438C8.17578 16.7734 8.50391 16.7109 8.73047 16.6562C8.95703 16.6016 9.07031 16.5664 9.07031 16.5508C9.0625 16.5898 9.05859 16.6328 9.05859 16.6797C9.05078 16.7188 9.04688 16.7695 9.04688 16.832C9.04688 16.8945 9.04688 16.9688 9.04688 17.0547C9.04688 17.2734 9.05469 17.5664 9.07031 17.9336C9.08594 18.3008 9.125 18.7461 9.1875 19.2695ZM13.4531 6.01562L13.3828 6.97656C13.6406 6.54688 13.9141 6.21875 14.2031 5.99219C14.5 5.76562 14.7734 5.60547 15.0234 5.51172C15.2734 5.41797 15.4805 5.36719 15.6445 5.35938C15.8164 5.35156 15.9102 5.34766 15.9258 5.34766C16.5039 5.34766 17.0078 5.48047 17.4375 5.74609C17.8672 6.01172 18.2227 6.39844 18.5039 6.90625C18.7852 7.40625 18.9922 8.01953 19.125 8.74609C19.2656 9.46484 19.3359 10.2812 19.3359 11.1953C19.3359 11.8672 19.3242 12.5547 19.3008 13.2578C19.2852 13.9531 19.2461 14.6484 19.1836 15.3438C19.1289 16.0312 19.0508 16.7031 18.9492 17.3594C18.8555 18.0156 18.7266 18.6406 18.5625 19.2344L15.832 18.9062C16.0117 17.9766 16.1523 17.1094 16.2539 16.3047C16.3555 15.5 16.4297 14.7969 16.4766 14.1953C16.5312 13.4922 16.5625 12.8477 16.5703 12.2617C16.5703 11.5195 16.5469 10.875 16.5 10.3281C16.4531 9.77344 16.3672 9.31641 16.2422 8.95703C16.125 8.58984 15.9609 8.31641 15.75 8.13672C15.5391 7.95703 15.2695 7.86719 14.9414 7.86719C14.7227 7.91406 14.5039 8.07031 14.2852 8.33594C14.0977 8.5625 13.8984 8.92578 13.6875 9.42578C13.4766 9.91797 13.293 10.6133 13.1367 11.5117C13.1133 12.1211 13.0977 12.7266 13.0898 13.3281C13.0898 13.9219 13.0898 14.5547 13.0898 15.2266C13.0898 15.7969 13.0898 16.4102 13.0898 17.0664C13.0898 17.7227 13.0977 18.4648 13.1133 19.293L10.4531 19.2344C10.4766 18.4375 10.4922 17.5938 10.5 16.7031C10.5156 15.8047 10.5234 14.8086 10.5234 13.7148C10.5234 12.6289 10.5156 11.4531 10.5 10.1875C10.4844 8.92188 10.4531 7.51562 10.4062 5.96875L13.4531 6.01562ZM29.9297 5.99219C29.5547 7.15625 29.2031 8.28516 28.875 9.37891C28.5469 10.4727 28.2383 11.5664 27.9492 12.6602C27.6602 13.7461 27.3867 14.8438 27.1289 15.9531C26.8711 17.0625 26.6289 18.2148 26.4023 19.4102L23.0156 19.4805C22.8047 18.3164 22.5898 17.1914 22.3711 16.1055C22.1602 15.0117 21.9336 13.9258 21.6914 12.8477C21.457 11.7695 21.207 10.6836 20.9414 9.58984C20.6758 8.49609 20.3906 7.36719 20.0859 6.20312L23.4492 6.0625C23.6289 7.73438 23.8281 9.44141 24.0469 11.1836C24.2656 12.9258 24.5234 14.6367 24.8203 16.3164C25.2031 14.6211 25.5117 12.8945 25.7461 11.1367C25.9883 9.37109 26.1758 7.64062 26.3086 5.94531L29.9297 5.99219ZM33.8672 2.55859C33.8672 2.80859 33.8203 3.04688 33.7266 3.27344C33.6328 3.49219 33.5039 3.68359 33.3398 3.84766C33.1758 4.01172 32.9805 4.14453 32.7539 4.24609C32.5352 4.33984 32.3008 4.38672 32.0508 4.38672C31.8008 4.38672 31.5625 4.33984 31.3359 4.24609C31.1172 4.14453 30.9258 4.01172 30.7617 3.84766C30.5977 3.68359 30.4648 3.49219 30.3633 3.27344C30.2695 3.04688 30.2227 2.80859 30.2227 2.55859C30.2227 2.30859 30.2695 2.07422 30.3633 1.85547C30.4648 1.62891 30.5977 1.43359 30.7617 1.26953C30.9258 1.10547 31.1172 0.976562 31.3359 0.882812C31.5625 0.78125 31.8008 0.730469 32.0508 0.730469C32.3008 0.730469 32.5352 0.78125 32.7539 0.882812C32.9805 0.976562 33.1758 1.10547 33.3398 1.26953C33.5039 1.43359 33.6328 1.62891 33.7266 1.85547C33.8203 2.07422 33.8672 2.30859 33.8672 2.55859ZM33.8672 6.10938C33.8047 6.72656 33.75 7.39453 33.7031 8.11328C33.6641 8.82422 33.6289 9.55469 33.5977 10.3047C33.5742 11.0547 33.5547 11.8086 33.5391 12.5664C33.5234 13.3242 33.5117 14.0469 33.5039 14.7344C33.4961 15.4219 33.4883 16.0664 33.4805 16.668C33.4805 17.2617 33.4805 17.7734 33.4805 18.2031V19.5273L30.8203 19.6211C30.8359 19.082 30.8438 18.5586 30.8438 18.0508C30.8438 17.543 30.8438 17.0352 30.8438 16.5273C30.8438 15.6445 30.8359 14.7852 30.8203 13.9492C30.8047 13.1055 30.7773 12.2617 30.7383 11.418C30.707 10.5742 30.6641 9.71875 30.6094 8.85156C30.5547 7.98438 30.4883 7.08594 30.4102 6.15625L33.8672 6.10938ZM38.3672 19.4805L35.2383 19.7148C35.3633 18.3164 35.4531 16.9688 35.5078 15.6719C35.5703 14.3672 35.6016 13.0625 35.6016 11.7578C35.6016 10.8359 35.5859 9.91406 35.5547 8.99219C35.5312 8.0625 35.4844 7.10938 35.4141 6.13281L38.0508 5.99219C38.0352 6.16406 38.0234 6.33203 38.0156 6.49609C38.0078 6.66016 38.0039 6.82031 38.0039 6.97656C38.2773 6.55469 38.5742 6.22656 38.8945 5.99219C39.2227 5.75 39.5273 5.57422 39.8086 5.46484C40.1289 5.33203 40.4531 5.25 40.7812 5.21875C41.3516 5.21875 41.8398 5.30859 42.2461 5.48828C42.6523 5.66016 42.9844 5.88672 43.2422 6.16797C43.5 6.44141 43.6875 6.75 43.8047 7.09375C43.9219 7.42969 43.9805 7.75781 43.9805 8.07812C43.9805 8.40625 43.9453 8.73828 43.875 9.07422C43.8047 9.41016 43.6836 9.71484 43.5117 9.98828C43.3477 10.2539 43.125 10.4727 42.8438 10.6445C42.5703 10.8086 42.2305 10.8906 41.8242 10.8906C41.418 10.8906 41.0977 10.8164 40.8633 10.668C40.6289 10.5195 40.4492 10.3438 40.3242 10.1406C40.207 9.92969 40.1289 9.71484 40.0898 9.49609C40.0586 9.26953 40.043 9.07812 40.043 8.92188C40.043 8.8125 40.0625 8.69141 40.1016 8.55859C40.1406 8.41797 40.1992 8.27734 40.2773 8.13672C40.3555 7.99609 40.4531 7.85938 40.5703 7.72656C40.6875 7.58594 40.8242 7.45703 40.9805 7.33984C40.9336 7.32422 40.8828 7.3125 40.8281 7.30469C40.7812 7.29688 40.7344 7.29297 40.6875 7.29297C40.2969 7.29297 39.9492 7.41797 39.6445 7.66797C39.3398 7.91016 39.0742 8.25 38.8477 8.6875C38.6289 9.125 38.4453 9.64062 38.2969 10.2344C38.1562 10.8281 38.0508 11.4766 37.9805 12.1797C38.0195 13.3906 38.0742 14.5898 38.1445 15.7773C38.2148 16.9648 38.2891 18.1992 38.3672 19.4805ZM48.9609 19.668C48.1875 19.668 47.5195 19.5 46.957 19.1641C46.4023 18.8281 45.9414 18.3594 45.5742 17.7578C45.2148 17.1562 44.9492 16.4414 44.7773 15.6133C44.6055 14.7852 44.5195 13.8828 44.5195 12.9062C44.5195 11.7734 44.6211 10.7344 44.8242 9.78906C45.0273 8.84375 45.3242 8.03125 45.7148 7.35156C46.1133 6.67188 46.6016 6.14453 47.1797 5.76953C47.7656 5.38672 48.4375 5.19531 49.1953 5.19531C49.9609 5.19531 50.6211 5.35547 51.1758 5.67578C51.7305 5.99609 52.1875 6.44531 52.5469 7.02344C52.9141 7.60156 53.1836 8.29297 53.3555 9.09766C53.5273 9.90234 53.6133 10.7891 53.6133 11.7578C53.6133 12.2578 53.582 12.8008 53.5195 13.3867C53.4648 13.9727 53.3672 14.5586 53.2266 15.1445C53.0938 15.7305 52.9141 16.2969 52.6875 16.8438C52.4609 17.3828 52.1758 17.8633 51.832 18.2852C51.4883 18.707 51.0781 19.043 50.6016 19.293C50.1328 19.543 49.5859 19.668 48.9609 19.668ZM50.7891 10.8906C50.7891 10.2969 50.7617 9.76562 50.707 9.29688C50.6523 8.82031 50.5625 8.41797 50.4375 8.08984C50.3203 7.76172 50.168 7.51172 49.9805 7.33984C49.8008 7.16016 49.582 7.07031 49.3242 7.07031C49.043 7.07031 48.7812 7.21875 48.5391 7.51562C48.2969 7.8125 48.082 8.24219 47.8945 8.80469C47.7148 9.36719 47.5703 10.0547 47.4609 10.8672C47.3594 11.6719 47.3086 12.582 47.3086 13.5977C47.3086 14.2539 47.3398 14.8438 47.4023 15.3672C47.4648 15.8828 47.5586 16.3242 47.6836 16.6914C47.8086 17.0508 47.9609 17.3281 48.1406 17.5234C48.3281 17.7109 48.5469 17.8047 48.7969 17.8047C49.0469 17.8047 49.2695 17.7031 49.4648 17.5C49.6602 17.2891 49.8281 17.0078 49.9688 16.6562C50.1172 16.3047 50.2422 15.8984 50.3438 15.4375C50.4531 14.9688 50.5391 14.4805 50.6016 13.9727C50.6641 13.457 50.7109 12.9336 50.7422 12.4023C50.7734 11.8711 50.7891 11.3672 50.7891 10.8906ZM63.832 5.875C63.793 6.33594 63.7539 6.8125 63.7148 7.30469C63.6836 7.78906 63.6523 8.27734 63.6211 8.76953C63.5898 9.25391 63.5625 9.73438 63.5391 10.2109C63.5234 10.6797 63.5078 11.125 63.4922 11.5469C63.4531 12.5469 63.4258 13.5273 63.4102 14.4883C63.3633 15.4102 63.3359 16.3242 63.3281 17.2305C63.3281 18.1289 63.3008 18.9844 63.2461 19.7969C63.1914 20.6172 63.0859 21.375 62.9297 22.0703C62.7812 22.7734 62.5352 23.3789 62.1914 23.8867C61.8477 24.4023 61.3828 24.8047 60.7969 25.0938C60.2188 25.3828 59.4727 25.5273 58.5586 25.5273C57.8633 25.5273 57.3086 25.4258 56.8945 25.2227C56.4883 25.0273 56.1758 24.7852 55.957 24.4961C55.7461 24.2148 55.6055 23.9141 55.5352 23.5938C55.4727 23.2734 55.4414 22.9883 55.4414 22.7383C55.4414 22.4727 55.4805 22.2227 55.5586 21.9883C55.6445 21.7617 55.7617 21.5625 55.9102 21.3906C56.0586 21.2188 56.2383 21.082 56.4492 20.9805C56.668 20.8789 56.9141 20.8281 57.1875 20.8281C57.4766 20.8281 57.7305 20.8828 57.9492 20.9922C58.1758 21.1016 58.3633 21.2422 58.5117 21.4141C58.668 21.5938 58.7852 21.793 58.8633 22.0117C58.9492 22.2305 58.9922 22.4492 58.9922 22.668C58.9766 22.793 58.9453 22.9219 58.8984 23.0547C58.8516 23.1641 58.7812 23.2852 58.6875 23.418C58.6016 23.5586 58.4688 23.6953 58.2891 23.8281C58.4688 23.8906 58.6367 23.9219 58.793 23.9219C58.9961 23.9219 59.2109 23.8594 59.4375 23.7344C59.6641 23.6172 59.8711 23.4297 60.0586 23.1719C60.2461 22.9141 60.4023 22.5898 60.5273 22.1992C60.6523 21.8086 60.7227 21.3438 60.7383 20.8047L60.7852 17.5586C60.4805 18.0742 60.168 18.4766 59.8477 18.7656C59.5352 19.0469 59.25 19.2539 58.9922 19.3867C58.6875 19.543 58.3984 19.6367 58.125 19.668C57.7266 19.668 57.3242 19.5547 56.918 19.3281C56.5117 19.1016 56.1445 18.7109 55.8164 18.1562C55.4883 17.6016 55.2188 16.8633 55.0078 15.9414C54.7969 15.0117 54.6914 13.8477 54.6914 12.4492C54.6914 11.5273 54.7461 10.7148 54.8555 10.0117C54.9648 9.30078 55.1133 8.68359 55.3008 8.16016C55.4883 7.63672 55.707 7.19922 55.957 6.84766C56.2148 6.48828 56.4883 6.19922 56.7773 5.98047C57.0742 5.76172 57.3828 5.60547 57.7031 5.51172C58.0234 5.41797 58.3398 5.37109 58.6523 5.37109C58.8945 5.38672 59.1445 5.44141 59.4023 5.53516C59.6289 5.62109 59.8828 5.75391 60.1641 5.93359C60.4453 6.11328 60.7266 6.37109 61.0078 6.70703L61.0781 5.58203L63.832 5.875ZM60.9375 8.85156C60.7578 8.54688 60.5469 8.28125 60.3047 8.05469C60.0703 7.82812 59.8086 7.71484 59.5195 7.71484C59.3008 7.71484 59.0781 7.79297 58.8516 7.94922C58.6328 8.09766 58.4336 8.35938 58.2539 8.73438C58.0742 9.10156 57.9258 9.59375 57.8086 10.2109C57.6992 10.8281 57.6445 11.6055 57.6445 12.543C57.6445 13.4102 57.6836 14.1289 57.7617 14.6992C57.8398 15.2695 57.9453 15.7266 58.0781 16.0703C58.2109 16.4062 58.3633 16.6445 58.5352 16.7852C58.707 16.918 58.8906 16.9844 59.0859 16.9844C59.3438 16.9844 59.5664 16.9062 59.7539 16.75C59.9492 16.5938 60.1133 16.4062 60.2461 16.1875C60.3789 15.9609 60.4883 15.7266 60.5742 15.4844C60.668 15.2422 60.7461 15.0312 60.8086 14.8516C60.8242 13.8281 60.8398 12.8203 60.8555 11.8281C60.8711 10.8359 60.8984 9.84375 60.9375 8.85156ZM68.3203 19.4805L65.1914 19.7148C65.3164 18.3164 65.4062 16.9688 65.4609 15.6719C65.5234 14.3672 65.5547 13.0625 65.5547 11.7578C65.5547 10.8359 65.5391 9.91406 65.5078 8.99219C65.4844 8.0625 65.4375 7.10938 65.3672 6.13281L68.0039 5.99219C67.9883 6.16406 67.9766 6.33203 67.9688 6.49609C67.9609 6.66016 67.957 6.82031 67.957 6.97656C68.2305 6.55469 68.5273 6.22656 68.8477 5.99219C69.1758 5.75 69.4805 5.57422 69.7617 5.46484C70.082 5.33203 70.4062 5.25 70.7344 5.21875C71.3047 5.21875 71.793 5.30859 72.1992 5.48828C72.6055 5.66016 72.9375 5.88672 73.1953 6.16797C73.4531 6.44141 73.6406 6.75 73.7578 7.09375C73.875 7.42969 73.9336 7.75781 73.9336 8.07812C73.9336 8.40625 73.8984 8.73828 73.8281 9.07422C73.7578 9.41016 73.6367 9.71484 73.4648 9.98828C73.3008 10.2539 73.0781 10.4727 72.7969 10.6445C72.5234 10.8086 72.1836 10.8906 71.7773 10.8906C71.3711 10.8906 71.0508 10.8164 70.8164 10.668C70.582 10.5195 70.4023 10.3438 70.2773 10.1406C70.1602 9.92969 70.082 9.71484 70.043 9.49609C70.0117 9.26953 69.9961 9.07812 69.9961 8.92188C69.9961 8.8125 70.0156 8.69141 70.0547 8.55859C70.0938 8.41797 70.1523 8.27734 70.2305 8.13672C70.3086 7.99609 70.4062 7.85938 70.5234 7.72656C70.6406 7.58594 70.7773 7.45703 70.9336 7.33984C70.8867 7.32422 70.8359 7.3125 70.7812 7.30469C70.7344 7.29688 70.6875 7.29297 70.6406 7.29297C70.25 7.29297 69.9023 7.41797 69.5977 7.66797C69.293 7.91016 69.0273 8.25 68.8008 8.6875C68.582 9.125 68.3984 9.64062 68.25 10.2344C68.1094 10.8281 68.0039 11.4766 67.9336 12.1797C67.9727 13.3906 68.0273 14.5898 68.0977 15.7773C68.168 16.9648 68.2422 18.1992 68.3203 19.4805ZM78.9141 19.668C78.1406 19.668 77.4727 19.5 76.9102 19.1641C76.3555 18.8281 75.8945 18.3594 75.5273 17.7578C75.168 17.1562 74.9023 16.4414 74.7305 15.6133C74.5586 14.7852 74.4727 13.8828 74.4727 12.9062C74.4727 11.7734 74.5742 10.7344 74.7773 9.78906C74.9805 8.84375 75.2773 8.03125 75.668 7.35156C76.0664 6.67188 76.5547 6.14453 77.1328 5.76953C77.7188 5.38672 78.3906 5.19531 79.1484 5.19531C79.9141 5.19531 80.5742 5.35547 81.1289 5.67578C81.6836 5.99609 82.1406 6.44531 82.5 7.02344C82.8672 7.60156 83.1367 8.29297 83.3086 9.09766C83.4805 9.90234 83.5664 10.7891 83.5664 11.7578C83.5664 12.2578 83.5352 12.8008 83.4727 13.3867C83.418 13.9727 83.3203 14.5586 83.1797 15.1445C83.0469 15.7305 82.8672 16.2969 82.6406 16.8438C82.4141 17.3828 82.1289 17.8633 81.7852 18.2852C81.4414 18.707 81.0312 19.043 80.5547 19.293C80.0859 19.543 79.5391 19.668 78.9141 19.668ZM80.7422 10.8906C80.7422 10.2969 80.7148 9.76562 80.6602 9.29688C80.6055 8.82031 80.5156 8.41797 80.3906 8.08984C80.2734 7.76172 80.1211 7.51172 79.9336 7.33984C79.7539 7.16016 79.5352 7.07031 79.2773 7.07031C78.9961 7.07031 78.7344 7.21875 78.4922 7.51562C78.25 7.8125 78.0352 8.24219 77.8477 8.80469C77.668 9.36719 77.5234 10.0547 77.4141 10.8672C77.3125 11.6719 77.2617 12.582 77.2617 13.5977C77.2617 14.2539 77.293 14.8438 77.3555 15.3672C77.418 15.8828 77.5117 16.3242 77.6367 16.6914C77.7617 17.0508 77.9141 17.3281 78.0938 17.5234C78.2812 17.7109 78.5 17.8047 78.75 17.8047C79 17.8047 79.2227 17.7031 79.418 17.5C79.6133 17.2891 79.7812 17.0078 79.9219 16.6562C80.0703 16.3047 80.1953 15.8984 80.2969 15.4375C80.4062 14.9688 80.4922 14.4805 80.5547 13.9727C80.6172 13.457 80.6641 12.9336 80.6953 12.4023C80.7266 11.8711 80.7422 11.3672 80.7422 10.8906ZM97.3711 6.33203C97.3398 7.00391 97.3164 7.67578 97.3008 8.34766C97.293 9.01172 97.2852 9.61328 97.2773 10.1523C97.2695 10.7852 97.2656 11.3906 97.2656 11.9688C97.25 12.5391 97.2227 13.1289 97.1836 13.7383C97.1445 14.3398 97.0742 14.9258 96.9727 15.4961C96.8789 16.0664 96.7461 16.6055 96.5742 17.1133C96.4102 17.6211 96.1953 18.0664 95.9297 18.4492C95.6641 18.832 95.3398 19.1328 94.957 19.3516C94.582 19.5781 94.1367 19.6914 93.6211 19.6914C93.1992 19.6602 92.7969 19.5391 92.4141 19.3281C92.25 19.2344 92.082 19.1211 91.9102 18.9883C91.7383 18.8477 91.5742 18.6758 91.418 18.4727C91.2617 18.2695 91.1133 18.0312 90.9727 17.7578C90.832 17.4844 90.7148 17.1641 90.6211 16.7969C90.3633 17.4688 90.0625 17.9883 89.7188 18.3555C89.375 18.7227 89.0508 18.9922 88.7461 19.1641C88.3789 19.3672 88.0117 19.4883 87.6445 19.5273C87.2227 19.5273 86.8633 19.4336 86.5664 19.2461C86.2695 19.0586 86.0195 18.8008 85.8164 18.4727C85.6133 18.1367 85.4531 17.7461 85.3359 17.3008C85.2188 16.8555 85.1289 16.375 85.0664 15.8594C85.0039 15.3438 84.9609 14.8047 84.9375 14.2422C84.9219 13.6797 84.9141 13.1211 84.9141 12.5664C84.9141 12.3789 84.9141 12.2461 84.9141 12.168C84.9219 12.082 84.9258 12 84.9258 11.9219C84.9336 11.8359 84.9414 11.7227 84.9492 11.582C84.957 11.4336 84.9609 11.207 84.9609 10.9023C84.9688 10.5977 84.9727 10.1836 84.9727 9.66016C84.9805 9.13672 84.9844 8.44922 84.9844 7.59766C84.9844 7.33203 84.9844 7.07422 84.9844 6.82422C84.9844 6.56641 84.9766 6.32812 84.9609 6.10938L88.2891 6.20312C88.0234 7.59375 87.8438 8.95703 87.75 10.293C87.6641 11.6289 87.6211 12.9648 87.6211 14.3008C87.6211 15.168 87.6797 15.7969 87.7969 16.1875C87.9141 16.5781 88.1445 16.7734 88.4883 16.7734C88.6445 16.7734 88.7852 16.6875 88.9102 16.5156C89.043 16.3359 89.1562 16.1016 89.25 15.8125C89.3516 15.5156 89.4375 15.1797 89.5078 14.8047C89.5859 14.4297 89.6484 14.0469 89.6953 13.6562C89.7422 13.2578 89.7773 12.8672 89.8008 12.4844C89.8242 12.1016 89.8359 11.7539 89.8359 11.4414C89.8359 11.1133 89.832 10.7969 89.8242 10.4922C89.8242 10.1875 89.8125 9.87109 89.7891 9.54297C89.7734 9.20703 89.75 8.85547 89.7188 8.48828C89.6953 8.11328 89.6602 7.69531 89.6133 7.23438L92.6133 7.38672C92.457 8.30859 92.3242 9.20312 92.2148 10.0703C92.1133 10.9297 92.0625 11.7852 92.0625 12.6367C92.0625 13.1211 92.082 13.6172 92.1211 14.125C92.168 14.625 92.2383 15.082 92.332 15.4961C92.4336 15.9023 92.5625 16.2383 92.7188 16.5039C92.875 16.7617 93.0625 16.8906 93.2812 16.8906C93.5547 16.8906 93.7773 16.7266 93.9492 16.3984C94.1289 16.0625 94.2656 15.6289 94.3594 15.0977C94.4609 14.5586 94.5312 13.957 94.5703 13.293C94.6094 12.6211 94.6289 11.9492 94.6289 11.2773C94.6289 11.207 94.625 11.0391 94.6172 10.7734C94.6094 10.5078 94.5898 10.1602 94.5586 9.73047C94.5273 9.30078 94.4805 8.79297 94.418 8.20703C94.3555 7.62109 94.2656 6.97266 94.1484 6.26172L97.3711 6.33203ZM103.055 1.1875C102.992 1.99219 102.941 2.78516 102.902 3.56641C102.863 4.33984 102.824 5.11719 102.785 5.89844C103.129 5.88281 103.469 5.87109 103.805 5.86328C104.141 5.84766 104.484 5.82812 104.836 5.80469L104.883 8.80469C104.508 8.74219 104.137 8.69141 103.77 8.65234C103.402 8.61328 103.043 8.58203 102.691 8.55859C102.668 9.22266 102.652 9.87891 102.645 10.5273C102.645 11.1758 102.645 11.832 102.645 12.4961C102.645 13.6836 102.656 14.8633 102.68 16.0352C102.711 17.207 102.758 18.3867 102.82 19.5742L99.7617 19.5273C99.8633 17.6914 99.9453 15.8594 100.008 14.0312C100.078 12.1953 100.125 10.3477 100.148 8.48828C99.8203 8.50391 99.4922 8.52344 99.1641 8.54688C98.8359 8.5625 98.5 8.58203 98.1562 8.60547L98.25 5.82812C98.5703 5.85156 98.8867 5.87109 99.1992 5.88672C99.5195 5.89453 99.8359 5.90625 100.148 5.92188C100.148 5.14062 100.141 4.36328 100.125 3.58984C100.109 2.80859 100.094 2.02344 100.078 1.23438L103.055 1.1875ZM108.914 1.16406C108.852 2.17969 108.793 3.1875 108.738 4.1875C108.684 5.1875 108.637 6.19531 108.598 7.21094C108.871 6.69531 109.176 6.29688 109.512 6.01562C109.848 5.72656 110.164 5.51562 110.461 5.38281C110.805 5.22656 111.152 5.13281 111.504 5.10156C112.066 5.10156 112.547 5.23828 112.945 5.51172C113.344 5.78516 113.672 6.17578 113.93 6.68359C114.188 7.19141 114.375 7.80469 114.492 8.52344C114.609 9.23438 114.668 10.0312 114.668 10.9141C114.668 12.3906 114.617 13.8203 114.516 15.2031C114.422 16.5781 114.219 17.9219 113.906 19.2344L111.164 18.9062C111.344 17.9766 111.48 17.1094 111.574 16.3047C111.676 15.5 111.75 14.7969 111.797 14.1953C111.852 13.4922 111.883 12.8477 111.891 12.2617C111.891 11.5195 111.879 10.875 111.855 10.3281C111.84 9.77344 111.785 9.31641 111.691 8.95703C111.605 8.58984 111.469 8.31641 111.281 8.13672C111.094 7.95703 110.832 7.86719 110.496 7.86719C110.238 7.90625 109.984 8.0625 109.734 8.33594C109.625 8.45312 109.516 8.60156 109.406 8.78125C109.297 8.96094 109.184 9.18359 109.066 9.44922C108.957 9.70703 108.852 10.0117 108.75 10.3633C108.648 10.7148 108.559 11.1211 108.48 11.582C108.457 12.3789 108.441 13.1719 108.434 13.9609C108.434 14.75 108.434 15.5352 108.434 16.3164C108.434 16.8086 108.434 17.3047 108.434 17.8047C108.434 18.3047 108.441 18.8008 108.457 19.293L105.797 19.2344C105.883 17.8047 105.945 16.375 105.984 14.9453C106.031 13.5156 106.055 12.0742 106.055 10.6211C106.055 9.02734 106.027 7.44531 105.973 5.875C105.918 4.29688 105.84 2.71094 105.738 1.11719L108.914 1.16406Z" fill="#8A7012"/>
</svg>
