<svg width="8" height="10" viewBox="0 0 8 10" fill="none" xmlns="http://www.w3.org/2000/svg">
<path d="M7 4.16412C7 6.67619 4 8.82939 4 8.82939C4 8.82939 1 6.67619 1 4.16412C1 3.30753 1.31607 2.48602 1.87868 1.88031C2.44129 1.27461 3.20435 0.934326 4 0.934326C4.79565 0.934326 5.55871 1.27461 6.12132 1.88031C6.68393 2.48602 7 3.30753 7 4.16412Z" fill="black"/>
<path d="M4 5.24072C4.55228 5.24072 5 4.75871 5 4.16412C5 3.56954 4.55228 3.08753 4 3.08753C3.44772 3.08753 3 3.56954 3 4.16412C3 4.75871 3.44772 5.24072 4 5.24072Z" fill="black"/>
<path d="M7 4.16412C7 6.67619 4 8.82939 4 8.82939C4 8.82939 1 6.67619 1 4.16412C1 3.30753 1.31607 2.48602 1.87868 1.88031C2.44129 1.27461 3.20435 0.934326 4 0.934326C4.79565 0.934326 5.55871 1.27461 6.12132 1.88031C6.68393 2.48602 7 3.30753 7 4.16412Z" stroke="white" stroke-width="0.7" stroke-linecap="round" stroke-linejoin="round"/>
<path d="M4 5.24072C4.55228 5.24072 5 4.75871 5 4.16412C5 3.56954 4.55228 3.08753 4 3.08753C3.44772 3.08753 3 3.56954 3 4.16412C3 4.75871 3.44772 5.24072 4 5.24072Z" stroke="white" stroke-width="0.7" stroke-linecap="round" stroke-linejoin="round"/>
</svg>
