<svg width="114" height="14" viewBox="0 0 114 14" fill="none" xmlns="http://www.w3.org/2000/svg">
<path d="M5.122 10.091C4.264 10.091 3.47533 9.89167 2.756 9.493C2.03667 9.08567 1.46467 8.52667 1.04 7.816C0.624 7.09667 0.416 6.28633 0.416 5.385C0.416 4.48367 0.624 3.67767 1.04 2.967C1.46467 2.24767 2.03667 1.68867 2.756 1.29C3.47533 0.891333 4.264 0.692 5.122 0.692C5.98867 0.692 6.77733 0.891333 7.488 1.29C8.20733 1.68867 8.775 2.24767 9.191 2.967C9.607 3.67767 9.815 4.48367 9.815 5.385C9.815 6.28633 9.607 7.09667 9.191 7.816C8.775 8.52667 8.20733 9.08567 7.488 9.493C6.76867 9.89167 5.98 10.091 5.122 10.091ZM5.122 7.725C5.772 7.725 6.28333 7.51267 6.656 7.088C7.03733 6.66333 7.228 6.09567 7.228 5.385C7.228 4.657 7.03733 4.085 6.656 3.669C6.28333 3.24433 5.772 3.032 5.122 3.032C4.46333 3.032 3.94767 3.24433 3.575 3.669C3.20233 4.085 3.016 4.657 3.016 5.385C3.016 6.10433 3.20233 6.67633 3.575 7.101C3.94767 7.517 4.46333 7.725 5.122 7.725ZM13.5084 3.721C13.7078 3.383 13.9894 3.11433 14.3534 2.915C14.7174 2.71567 15.1464 2.616 15.6404 2.616C16.2211 2.616 16.7454 2.76767 17.2134 3.071C17.6901 3.37433 18.0628 3.80767 18.3314 4.371C18.6088 4.93433 18.7474 5.593 18.7474 6.347C18.7474 7.101 18.6088 7.764 18.3314 8.336C18.0628 8.89933 17.6901 9.33267 17.2134 9.636C16.7454 9.93933 16.2211 10.091 15.6404 10.091C15.1464 10.091 14.7174 9.99133 14.3534 9.792C13.9981 9.59267 13.7164 9.324 13.5084 8.986V13.484H10.9604V2.707H13.5084V3.721ZM16.1604 6.347C16.1604 5.87033 16.0304 5.502 15.7704 5.242C15.5191 4.97333 15.2071 4.839 14.8344 4.839C14.4618 4.839 14.1454 4.97333 13.8854 5.242C13.6341 5.51067 13.5084 5.879 13.5084 6.347C13.5084 6.82367 13.6341 7.19633 13.8854 7.465C14.1454 7.73367 14.4618 7.868 14.8344 7.868C15.2071 7.868 15.5191 7.73367 15.7704 7.465C16.0304 7.18767 16.1604 6.815 16.1604 6.347ZM26.7644 6.269C26.7644 6.46833 26.7514 6.66767 26.7254 6.867H21.9024C21.9284 7.26567 22.0367 7.56467 22.2274 7.764C22.4267 7.95467 22.678 8.05 22.9814 8.05C23.406 8.05 23.7094 7.85933 23.8914 7.478H26.6084C26.4957 7.98067 26.2747 8.43133 25.9454 8.83C25.6247 9.22 25.2174 9.52767 24.7234 9.753C24.2294 9.97833 23.6834 10.091 23.0854 10.091C22.366 10.091 21.7247 9.93933 21.1614 9.636C20.6067 9.33267 20.169 8.89933 19.8484 8.336C19.5364 7.77267 19.3804 7.10967 19.3804 6.347C19.3804 5.58433 19.5364 4.92567 19.8484 4.371C20.1604 3.80767 20.5937 3.37433 21.1484 3.071C21.7117 2.76767 22.3574 2.616 23.0854 2.616C23.8047 2.616 24.4417 2.76333 24.9964 3.058C25.551 3.35267 25.9844 3.77733 26.2964 4.332C26.6084 4.878 26.7644 5.52367 26.7644 6.269ZM24.1644 5.632C24.1644 5.32 24.0604 5.07733 23.8524 4.904C23.6444 4.722 23.3844 4.631 23.0724 4.631C22.7604 4.631 22.5047 4.71767 22.3054 4.891C22.106 5.05567 21.976 5.30267 21.9154 5.632H24.1644ZM32.5781 2.642C33.4188 2.642 34.0861 2.92367 34.5801 3.487C35.0741 4.04167 35.3211 4.79567 35.3211 5.749V10H32.7731V6.087C32.7731 5.671 32.6648 5.346 32.4481 5.112C32.2314 4.86933 31.9411 4.748 31.5771 4.748C31.1958 4.748 30.8968 4.86933 30.6801 5.112C30.4634 5.346 30.3551 5.671 30.3551 6.087V10H27.8071V2.707H30.3551V3.747C30.5804 3.41767 30.8838 3.15333 31.2651 2.954C31.6464 2.746 32.0841 2.642 32.5781 2.642ZM38.8955 5.398C38.8955 4.49667 39.0818 3.695 39.4545 2.993C39.8358 2.28233 40.3732 1.732 41.0665 1.342C41.7598 0.943333 42.5572 0.744 43.4585 0.744C44.6025 0.744 45.5645 1.05167 46.3445 1.667C47.1245 2.27367 47.6272 3.10133 47.8525 4.15H45.1095C44.9448 3.80333 44.7152 3.539 44.4205 3.357C44.1345 3.175 43.8008 3.084 43.4195 3.084C42.8302 3.084 42.3578 3.29633 42.0025 3.721C41.6558 4.137 41.4825 4.696 41.4825 5.398C41.4825 6.10867 41.6558 6.67633 42.0025 7.101C42.3578 7.517 42.8302 7.725 43.4195 7.725C43.8008 7.725 44.1345 7.634 44.4205 7.452C44.7152 7.27 44.9448 7.00567 45.1095 6.659H47.8525C47.6272 7.70767 47.1245 8.53967 46.3445 9.155C45.5645 9.76167 44.6025 10.065 43.4585 10.065C42.5572 10.065 41.7598 9.87 41.0665 9.48C40.3732 9.08133 39.8358 8.531 39.4545 7.829C39.0818 7.11833 38.8955 6.308 38.8955 5.398ZM52.4521 10.091C51.7241 10.091 51.0697 9.93933 50.4891 9.636C49.9171 9.33267 49.4664 8.89933 49.1371 8.336C48.8077 7.77267 48.6431 7.10967 48.6431 6.347C48.6431 5.593 48.8077 4.93433 49.1371 4.371C49.4751 3.80767 49.9301 3.37433 50.5021 3.071C51.0827 2.76767 51.7371 2.616 52.4651 2.616C53.1931 2.616 53.8431 2.76767 54.4151 3.071C54.9957 3.37433 55.4507 3.80767 55.7801 4.371C56.1181 4.93433 56.2871 5.593 56.2871 6.347C56.2871 7.101 56.1181 7.764 55.7801 8.336C55.4507 8.89933 54.9957 9.33267 54.4151 9.636C53.8344 9.93933 53.1801 10.091 52.4521 10.091ZM52.4521 7.881C52.8074 7.881 53.1021 7.751 53.3361 7.491C53.5787 7.22233 53.7001 6.841 53.7001 6.347C53.7001 5.853 53.5787 5.476 53.3361 5.216C53.1021 4.956 52.8117 4.826 52.4651 4.826C52.1184 4.826 51.8281 4.956 51.5941 5.216C51.3601 5.476 51.2431 5.853 51.2431 6.347C51.2431 6.84967 51.3557 7.231 51.5811 7.491C51.8064 7.751 52.0967 7.881 52.4521 7.881ZM66.8527 2.642C67.7714 2.642 68.4907 2.91933 69.0107 3.474C69.5394 4.02867 69.8037 4.787 69.8037 5.749V10H67.2557V6.087C67.2557 5.697 67.1474 5.39367 66.9307 5.177C66.714 4.96033 66.4194 4.852 66.0467 4.852C65.674 4.852 65.3794 4.96033 65.1627 5.177C64.946 5.39367 64.8377 5.697 64.8377 6.087V10H62.2897V6.087C62.2897 5.697 62.1814 5.39367 61.9647 5.177C61.7567 4.96033 61.4664 4.852 61.0937 4.852C60.7124 4.852 60.4134 4.96033 60.1967 5.177C59.98 5.39367 59.8717 5.697 59.8717 6.087V10H57.3237V2.707H59.8717V3.669C60.097 3.357 60.3874 3.11 60.7427 2.928C61.1067 2.73733 61.5227 2.642 61.9907 2.642C62.528 2.642 63.0047 2.759 63.4207 2.993C63.8454 3.227 64.179 3.55633 64.4217 3.981C64.6817 3.58233 65.024 3.26167 65.4487 3.019C65.8734 2.76767 66.3414 2.642 66.8527 2.642ZM80.7287 2.642C81.6473 2.642 82.3667 2.91933 82.8867 3.474C83.4153 4.02867 83.6797 4.787 83.6797 5.749V10H81.1317V6.087C81.1317 5.697 81.0233 5.39367 80.8067 5.177C80.59 4.96033 80.2953 4.852 79.9227 4.852C79.55 4.852 79.2553 4.96033 79.0387 5.177C78.822 5.39367 78.7137 5.697 78.7137 6.087V10H76.1657V6.087C76.1657 5.697 76.0573 5.39367 75.8407 5.177C75.6327 4.96033 75.3423 4.852 74.9697 4.852C74.5883 4.852 74.2893 4.96033 74.0727 5.177C73.856 5.39367 73.7477 5.697 73.7477 6.087V10H71.1997V2.707H73.7477V3.669C73.973 3.357 74.2633 3.11 74.6187 2.928C74.9827 2.73733 75.3987 2.642 75.8667 2.642C76.404 2.642 76.8807 2.759 77.2967 2.993C77.7213 3.227 78.055 3.55633 78.2977 3.981C78.5577 3.58233 78.9 3.26167 79.3247 3.019C79.7493 2.76767 80.2173 2.642 80.7287 2.642ZM92.0437 6.269C92.0437 6.46833 92.0307 6.66767 92.0047 6.867H87.1817C87.2077 7.26567 87.316 7.56467 87.5067 7.764C87.706 7.95467 87.9573 8.05 88.2607 8.05C88.6853 8.05 88.9887 7.85933 89.1707 7.478H91.8877C91.775 7.98067 91.554 8.43133 91.2247 8.83C90.904 9.22 90.4967 9.52767 90.0027 9.753C89.5087 9.97833 88.9627 10.091 88.3647 10.091C87.6453 10.091 87.004 9.93933 86.4407 9.636C85.886 9.33267 85.4483 8.89933 85.1277 8.336C84.8157 7.77267 84.6597 7.10967 84.6597 6.347C84.6597 5.58433 84.8157 4.92567 85.1277 4.371C85.4397 3.80767 85.873 3.37433 86.4277 3.071C86.991 2.76767 87.6367 2.616 88.3647 2.616C89.084 2.616 89.721 2.76333 90.2757 3.058C90.8303 3.35267 91.2637 3.77733 91.5757 4.332C91.8877 4.878 92.0437 5.52367 92.0437 6.269ZM89.4437 5.632C89.4437 5.32 89.3397 5.07733 89.1317 4.904C88.9237 4.722 88.6637 4.631 88.3517 4.631C88.0397 4.631 87.784 4.71767 87.5847 4.891C87.3853 5.05567 87.2553 5.30267 87.1947 5.632H89.4437ZM95.6344 3.994C95.9204 3.578 96.2671 3.24867 96.6744 3.006C97.0817 2.76333 97.5194 2.642 97.9874 2.642V5.359H97.2724C96.7177 5.359 96.3061 5.46733 96.0374 5.684C95.7687 5.90067 95.6344 6.27767 95.6344 6.815V10H93.0864V2.707H95.6344V3.994ZM98.4849 6.347C98.4849 5.593 98.6409 4.93433 98.9529 4.371C99.2649 3.80767 99.6982 3.37433 100.253 3.071C100.816 2.76767 101.458 2.616 102.177 2.616C103.104 2.616 103.884 2.87167 104.517 3.383C105.15 3.88567 105.557 4.592 105.739 5.502H103.035C102.879 5.02533 102.576 4.787 102.125 4.787C101.804 4.787 101.549 4.92133 101.358 5.19C101.176 5.45 101.085 5.83567 101.085 6.347C101.085 6.85833 101.176 7.24833 101.358 7.517C101.549 7.78567 101.804 7.92 102.125 7.92C102.584 7.92 102.888 7.68167 103.035 7.205H105.739C105.557 8.10633 105.15 8.81267 104.517 9.324C103.884 9.83533 103.104 10.091 102.177 10.091C101.458 10.091 100.816 9.93933 100.253 9.636C99.6982 9.33267 99.2649 8.89933 98.9529 8.336C98.6409 7.77267 98.4849 7.10967 98.4849 6.347ZM113.765 6.269C113.765 6.46833 113.752 6.66767 113.726 6.867H108.903C108.929 7.26567 109.038 7.56467 109.228 7.764C109.428 7.95467 109.679 8.05 109.982 8.05C110.407 8.05 110.71 7.85933 110.892 7.478H113.609C113.497 7.98067 113.276 8.43133 112.946 8.83C112.626 9.22 112.218 9.52767 111.724 9.753C111.23 9.97833 110.684 10.091 110.086 10.091C109.367 10.091 108.726 9.93933 108.162 9.636C107.608 9.33267 107.17 8.89933 106.849 8.336C106.537 7.77267 106.381 7.10967 106.381 6.347C106.381 5.58433 106.537 4.92567 106.849 4.371C107.161 3.80767 107.595 3.37433 108.149 3.071C108.713 2.76767 109.358 2.616 110.086 2.616C110.806 2.616 111.443 2.76333 111.997 3.058C112.552 3.35267 112.985 3.77733 113.297 4.332C113.609 4.878 113.765 5.52367 113.765 6.269ZM111.165 5.632C111.165 5.32 111.061 5.07733 110.853 4.904C110.645 4.722 110.385 4.631 110.073 4.631C109.761 4.631 109.506 4.71767 109.306 4.891C109.107 5.05567 108.977 5.30267 108.916 5.632H111.165Z" fill="#53A052"/>
</svg>
