<svg width="17" height="17" viewBox="0 0 17 17" fill="none" xmlns="http://www.w3.org/2000/svg">
<path d="M7.15959 1.78337L1.18893 13.2889C1.06583 13.535 1.00069 13.814 1.00001 14.0982C0.999316 14.3823 1.0631 14.6617 1.185 14.9086C1.30691 15.1555 1.48269 15.3612 1.69486 15.5053C1.90702 15.6494 2.14818 15.7269 2.39434 15.73H14.3357C14.5818 15.7269 14.823 15.6494 15.0351 15.5053C15.2473 15.3612 15.4231 15.1555 15.545 14.9086C15.6669 14.6617 15.7307 14.3823 15.73 14.0982C15.7293 13.814 15.6642 13.535 15.5411 13.2889L9.57041 1.78337C9.44474 1.54424 9.2678 1.34652 9.05666 1.2093C8.84552 1.07209 8.60731 1 8.365 1C8.12269 1 7.88448 1.07209 7.67334 1.2093C7.4622 1.34652 7.28526 1.54424 7.15959 1.78337Z" stroke="#F37A20" stroke-width="2" stroke-linecap="round" stroke-linejoin="round"/>
<path d="M8.36475 5.96582V9.22058" stroke="#F37A20" stroke-width="2" stroke-linecap="round" stroke-linejoin="round"/>
<path d="M8.36475 12.4756H8.37223" stroke="#F37A20" stroke-width="2" stroke-linecap="round" stroke-linejoin="round"/>
</svg>
