<svg width="29" height="41" viewBox="0 0 29 41" fill="none" xmlns="http://www.w3.org/2000/svg">
<path fill-rule="evenodd" clip-rule="evenodd" d="M12.3217 27.0328C12.3217 27.0328 12.0095 26.929 11.856 26.8697C10.371 26.2951 8.93112 25.3844 7.96935 24.1148C6.82705 22.6068 5.99267 20.6565 6.04976 18.7586C6.11326 16.6471 7.05723 14.4318 8.53952 12.9416C10.0383 11.4349 12.2598 10.4052 14.3743 10.4267C16.5632 10.4491 18.8437 11.5592 20.3611 13.1528C21.7541 14.6156 22.5739 16.7679 22.6228 18.797C22.6678 20.6604 21.9237 22.5992 20.7983 24.0764C19.7813 25.4112 18.1964 26.3709 16.655 26.908C16.5593 26.9414 16.3699 27.0136 16.3699 27.0136L16.3509 27.8583C16.3448 28.1304 16.088 28.4634 15.8188 28.4727C14.3213 28.5243 14.3033 28.4945 13.0059 28.5111C12.7187 28.5147 12.3477 28.11 12.3407 27.8199L12.3217 27.0328Z" fill="white" stroke="black"/>
<path d="M14.3423 25.0522C17.6873 25.0522 20.399 22.2889 20.399 18.8801C20.399 15.4714 17.6873 12.708 14.3423 12.708C10.9974 12.708 8.28571 15.4714 8.28571 18.8801C8.28571 22.2889 10.9974 25.0522 14.3423 25.0522Z" stroke="black" stroke-width="0.5"/>
<path d="M11.6007 18.5965C12.8708 18.5965 13.9003 17.5809 13.9003 16.328C13.9003 15.0751 12.8708 14.0594 11.6007 14.0594C10.3307 14.0594 9.30115 15.0751 9.30115 16.328C9.30115 17.5809 10.3307 18.5965 11.6007 18.5965Z" fill="white" stroke="black" stroke-width="0.5"/>
<path d="M17.1914 18.6508C18.4615 18.6508 19.491 17.6352 19.491 16.3823C19.491 15.1294 18.4615 14.1138 17.1914 14.1138C15.9214 14.1138 14.8918 15.1294 14.8918 16.3823C14.8918 17.6352 15.9214 18.6508 17.1914 18.6508Z" fill="white" stroke="black" stroke-width="0.5"/>
<path d="M14.3423 25.0039C15.6124 25.0039 16.6419 23.9882 16.6419 22.7353C16.6419 21.4825 15.6124 20.4668 14.3423 20.4668C13.0723 20.4668 12.0427 21.4825 12.0427 22.7353C12.0427 23.9882 13.0723 25.0039 14.3423 25.0039Z" fill="white" stroke="black" stroke-width="0.5"/>
<path d="M10.4781 22.558C11.394 22.558 12.1366 21.8108 12.1366 20.8891C12.1366 19.9674 11.394 19.2202 10.4781 19.2202C9.56216 19.2202 8.81964 19.9674 8.81964 20.8891C8.81964 21.8108 9.56216 22.558 10.4781 22.558Z" fill="white" stroke="black" stroke-width="0.5"/>
<path d="M18.1913 22.5855C19.1306 22.5855 19.8921 21.8163 19.8921 20.8675C19.8921 19.9186 19.1306 19.1494 18.1913 19.1494C17.2519 19.1494 16.4904 19.9186 16.4904 20.8675C16.4904 21.8163 17.2519 22.5855 18.1913 22.5855Z" fill="white" stroke="black" stroke-width="0.5"/>
<path d="M11.6185 16.9327C11.9779 16.9327 12.2692 16.6456 12.2692 16.2913C12.2692 15.9371 11.9779 15.6499 11.6185 15.6499C11.2591 15.6499 10.9677 15.9371 10.9677 16.2913C10.9677 16.6456 11.2591 16.9327 11.6185 16.9327Z" fill="black" stroke="black"/>
<path d="M17.1681 16.9519C17.5275 16.9519 17.8189 16.6647 17.8189 16.3105C17.8189 15.9562 17.5275 15.6691 17.1681 15.6691C16.8087 15.6691 16.5174 15.9562 16.5174 16.3105C16.5174 16.6647 16.8087 16.9519 17.1681 16.9519Z" fill="black" stroke="black"/>
<path d="M14.3553 23.3256C14.7147 23.3256 15.006 23.0384 15.006 22.6841C15.006 22.3299 14.7147 22.0427 14.3553 22.0427C13.9959 22.0427 13.7045 22.3299 13.7045 22.6841C13.7045 23.0384 13.9959 23.3256 14.3553 23.3256Z" fill="black" stroke="black"/>
<path d="M10.4876 21.3503C10.7028 21.3503 10.8772 21.1698 10.8772 20.9471C10.8772 20.7244 10.7028 20.5439 10.4876 20.5439C10.2724 20.5439 10.098 20.7244 10.098 20.9471C10.098 21.1698 10.2724 21.3503 10.4876 21.3503Z" fill="black" stroke="black"/>
<path d="M18.2047 21.2743C18.4199 21.2743 18.5943 21.0938 18.5943 20.8712C18.5943 20.6485 18.4199 20.468 18.2047 20.468C17.9895 20.468 17.8151 20.6485 17.8151 20.8712C17.8151 21.0938 17.9895 21.2743 18.2047 21.2743Z" fill="black" stroke="black"/>
<path d="M12.3802 8.29168L16.1432 8.26453" stroke="black"/>
<path fill-rule="evenodd" clip-rule="evenodd" d="M12.3802 9.94777L12.3533 7.69434C12.3533 7.69434 12.1101 7.69715 12.0039 7.74864C11.8724 7.81236 11.7234 7.90621 11.6813 8.04728C11.4391 8.85997 11.1707 10.2464 11.1707 10.2464" fill="black"/>
<path d="M12.3802 9.94777L12.3533 7.69434C12.3533 7.69434 12.1101 7.69715 12.0039 7.74864C11.8724 7.81236 11.7234 7.90621 11.6813 8.04728C11.4391 8.85997 11.1707 10.2464 11.1707 10.2464" stroke="black"/>
<path fill-rule="evenodd" clip-rule="evenodd" d="M16.1467 9.97487L16.1735 7.72144C16.1735 7.72144 16.4167 7.72425 16.523 7.77574C16.6545 7.83946 16.8035 7.93331 16.8455 8.07438C17.0877 8.88707 17.3562 10.2735 17.3562 10.2735" fill="black"/>
<path d="M16.1467 9.97487L16.1735 7.72144C16.1735 7.72144 16.4167 7.72425 16.523 7.77574C16.6545 7.83946 16.8035 7.93331 16.8455 8.07438C17.0877 8.88707 17.3562 10.2735 17.3562 10.2735" stroke="black"/>
<path opacity="0.99" d="M18.0654 29.3958H10.6872C8.70392 29.3958 7.09613 31.0198 7.09613 33.0231V33.0842C7.09613 35.0876 8.70392 36.7116 10.6872 36.7116H18.0654C20.0487 36.7116 21.6564 35.0876 21.6564 33.0842V33.0231C21.6564 31.0198 20.0487 29.3958 18.0654 29.3958Z" fill="white" stroke="black" stroke-linecap="round"/>
<path fill-rule="evenodd" clip-rule="evenodd" d="M11.9091 27.3716C11.9091 27.3716 11.3813 27.1668 11.2283 27.0851C9.7393 26.2899 8.54791 25.6483 7.66443 24.4616C6.47777 22.8677 5.58131 20.8309 5.64147 18.8384C5.7084 16.6216 6.7032 14.2958 8.26532 12.7314C9.84483 11.1495 12.186 10.0684 14.4143 10.091C16.7211 10.1145 19.1244 11.28 20.7236 12.9531C22.1915 14.4888 23.0555 16.7484 23.1071 18.8787C23.1545 20.835 22.4589 22.8151 21.1843 24.4213C20.2287 25.6254 19.0124 26.3311 17.464 27.1254C17.369 27.1742 16.8215 27.3515 16.8215 27.3515L16.8015 28.2383C16.795 28.5239 16.9045 29.1423 16.6208 29.152C15.0427 29.2063 14.0735 29.1749 12.7061 29.1923C12.4034 29.1962 11.9784 29.2319 11.9671 28.9275L11.9091 27.3716Z" stroke="black"/>
<path d="M11.1242 35.0235C12.2182 35.0235 13.1051 34.1019 13.1051 32.965C13.1051 31.8281 12.2182 30.9065 11.1242 30.9065C10.0302 30.9065 9.14331 31.8281 9.14331 32.965C9.14331 34.1019 10.0302 35.0235 11.1242 35.0235Z" stroke="black"/>
<path d="M17.6242 34.9467C18.7182 34.9467 19.6051 34.0251 19.6051 32.8882C19.6051 31.7513 18.7182 30.8297 17.6242 30.8297C16.5302 30.8297 15.6433 31.7513 15.6433 32.8882C15.6433 34.0251 16.5302 34.9467 17.6242 34.9467Z" stroke="black"/>
</svg>
