<svg width="29" height="41" viewBox="0 0 29 41" fill="none" xmlns="http://www.w3.org/2000/svg">
<path d="M18.9285 24.7542H9.56074C7.04191 24.7542 5 26.8167 5 29.361C5 31.9052 7.04191 33.9678 9.56074 33.9678H18.9285C21.4473 33.9678 23.4892 31.9052 23.4892 29.361C23.4892 26.8167 21.4473 24.7542 18.9285 24.7542Z" fill="white" stroke="black" stroke-linecap="round" stroke-linejoin="round"/>
<path fill-rule="evenodd" clip-rule="evenodd" d="M9.26107 7.02979H19.4532C19.4532 7.02979 20.5219 7.75973 20.9721 8.26129C21.4224 8.76285 21.8513 9.43722 22.1511 9.98203C22.4509 10.5268 22.6937 11.0148 22.9005 11.6474C23.1072 12.28 23.2967 12.9391 23.3501 13.767C23.4036 14.5949 23.3259 15.7276 23.1253 16.5678C22.9247 17.4081 22.5521 18.1727 22.226 18.7631C21.8999 19.3535 21.661 19.6527 21.2518 20.1257C20.8425 20.5987 20.3047 21.1321 19.7529 21.564C19.2011 21.9958 18.6205 22.3911 17.9543 22.6995C17.2882 23.0079 15.781 23.3808 15.781 23.3808C15.781 23.3808 13.7401 23.6572 12.1089 23.078C11.4605 22.8477 11.0356 22.7692 10.3103 22.3967C9.40165 21.93 8.52654 21.3383 7.83717 20.5799C6.88971 19.5375 6.13039 18.2806 5.66385 16.9463C5.29443 15.8898 5.17345 14.7354 5.2142 13.6156C5.24516 12.765 5.44213 11.9142 5.7388 11.1175C5.99078 10.4408 6.41836 9.78988 6.78798 9.22505C7.14956 8.67252 7.78623 8.06679 8.21188 7.71108C8.63753 7.35536 9.26107 7.02979 9.26107 7.02979Z" fill="white" stroke="black" stroke-linejoin="round"/>
<path d="M16.83 19.8406C17.709 19.8406 18.4215 19.1379 18.4215 18.271C18.4215 17.4041 17.709 16.7013 16.83 16.7013C15.9511 16.7013 15.2386 17.4041 15.2386 18.271C15.2386 19.1379 15.9511 19.8406 16.83 19.8406Z" stroke="black"/>
<path d="M11.7341 19.8406C12.613 19.8406 13.3255 19.1379 13.3255 18.271C13.3255 17.4041 12.613 16.7013 11.7341 16.7013C10.8552 16.7013 10.1426 17.4041 10.1426 18.271C10.1426 19.1379 10.8552 19.8406 11.7341 19.8406Z" stroke="black"/>
<path d="M9.33595 15.6015C10.2149 15.6015 10.9274 14.8987 10.9274 14.0318C10.9274 13.1649 10.2149 12.4622 9.33595 12.4622C8.45702 12.4622 7.74451 13.1649 7.74451 14.0318C7.74451 14.8987 8.45702 15.6015 9.33595 15.6015Z" stroke="black"/>
<path d="M14.2822 15.6015C15.1611 15.6015 15.8736 14.8987 15.8736 14.0318C15.8736 13.1649 15.1611 12.4622 14.2822 12.4622C13.4032 12.4622 12.6907 13.1649 12.6907 14.0318C12.6907 14.8987 13.4032 15.6015 14.2822 15.6015Z" stroke="black"/>
<path d="M19.1533 15.6015C20.0322 15.6015 20.7447 14.8987 20.7447 14.0318C20.7447 13.1649 20.0322 12.4622 19.1533 12.4622C18.2743 12.4622 17.5618 13.1649 17.5618 14.0318C17.5618 14.8987 18.2743 15.6015 19.1533 15.6015Z" stroke="black"/>
<path d="M16.7926 11.7991C17.4343 11.7991 17.9545 11.2567 17.9545 10.5876C17.9545 9.91859 17.4343 9.37622 16.7926 9.37622C16.151 9.37622 15.6308 9.91859 15.6308 10.5876C15.6308 11.2567 16.151 11.7991 16.7926 11.7991Z" stroke="black"/>
<path d="M11.9215 11.7991C12.5631 11.7991 13.0833 11.2567 13.0833 10.5876C13.0833 9.91859 12.5631 9.37622 11.9215 9.37622C11.2798 9.37622 10.7596 9.91859 10.7596 10.5876C10.7596 11.2567 11.2798 11.7991 11.9215 11.7991Z" stroke="black"/>
<path d="M10.1602 31.8863C11.541 31.8863 12.6603 30.7388 12.6603 29.3232C12.6603 27.9076 11.541 26.76 10.1602 26.76C8.77947 26.76 7.66016 27.9076 7.66016 29.3232C7.66016 30.7388 8.77947 31.8863 10.1602 31.8863Z" stroke="black"/>
<path d="M18.329 31.8105C19.7097 31.8105 20.829 30.663 20.829 29.2474C20.829 27.8318 19.7097 26.6842 18.329 26.6842C16.9482 26.6842 15.8289 27.8318 15.8289 29.2474C15.8289 30.663 16.9482 31.8105 18.329 31.8105Z" stroke="black"/>
<path d="M10.46 23.7592L18.1041 23.8349" stroke="black"/>
</svg>
