<svg width="29" height="41" viewBox="0 0 29 41" fill="none" xmlns="http://www.w3.org/2000/svg">
<path fill-rule="evenodd" clip-rule="evenodd" d="M8.43263 10.0938C8.43263 10.0938 10.4114 8.97647 11.4833 8.62773C12.5363 8.28514 13.6428 8.04312 14.749 8.03043C16.0142 8.01592 17.2912 8.2455 18.4986 8.62773C19.5577 8.96304 21.4955 10.0938 21.4955 10.0938L22.9469 9.76802L24.9897 11.8314L24.5596 13.3518C24.5596 13.3518 25.7333 15.4741 26.0379 16.6369C26.3163 17.6999 26.3779 18.8234 26.3336 19.9221C26.2824 21.1886 26.1076 22.4738 25.6885 23.6687C25.3322 24.6845 24.7717 25.6317 24.1296 26.4923C23.4966 27.3406 22.7297 28.0932 21.904 28.7512C21.2184 29.2976 20.4645 29.7689 19.6678 30.1304C18.856 30.4987 17.9868 30.7406 17.1143 30.9177C16.431 31.0565 15.7309 31.1231 15.0339 31.1295C14.3463 31.1358 13.6545 31.082 12.9778 30.9584C12.2805 30.8312 11.5911 30.6382 10.9323 30.3747C10.1909 30.0782 9.47395 29.7061 8.80893 29.2616C7.91732 28.6656 7.05606 27.9966 6.33612 27.1982C5.60655 26.3891 4.96948 25.4736 4.5084 24.4832C4.08365 23.5709 3.83764 22.5729 3.67517 21.5782C3.51312 20.586 3.45207 19.5661 3.54078 18.5646C3.63084 17.5477 3.89039 16.5456 4.21274 15.5781C4.48257 14.7681 5.26099 13.2432 5.26099 13.2432L4.9062 11.6576L6.76618 9.76802L8.43263 10.0938Z" fill="white" stroke="black"/>
<path d="M20.2322 22.4672C21.6684 22.4672 22.8326 21.2304 22.8326 19.7048C22.8326 18.1792 21.6684 16.9424 20.2322 16.9424C18.7961 16.9424 17.6318 18.1792 17.6318 19.7048C17.6318 21.2304 18.7961 22.4672 20.2322 22.4672Z" fill="white" stroke="black"/>
<path d="M9.74969 22.4672C11.1858 22.4672 12.3501 21.2304 12.3501 19.7048C12.3501 18.1792 11.1858 16.9424 9.74969 16.9424C8.31353 16.9424 7.14929 18.1792 7.14929 19.7048C7.14929 21.2304 8.31353 22.4672 9.74969 22.4672Z" fill="white" stroke="black"/>
<path d="M14.9372 15.6867C16.3919 15.6867 17.5712 14.4955 17.5712 13.026C17.5712 11.5566 16.3919 10.3654 14.9372 10.3654C13.4824 10.3654 12.3031 11.5566 12.3031 13.026C12.3031 14.4955 13.4824 15.6867 14.9372 15.6867Z" fill="white" stroke="black" stroke-width="0.5"/>
<path d="M12.9965 13.6757C13.3369 13.6757 13.6128 13.3848 13.6128 13.026C13.6128 12.6672 13.3369 12.3763 12.9965 12.3763C12.6562 12.3763 12.3802 12.6672 12.3802 13.026C12.3802 13.3848 12.6562 13.6757 12.9965 13.6757Z" fill="white" stroke="black" stroke-width="0.5"/>
<path d="M16.8241 13.6757C17.1644 13.6757 17.4404 13.3848 17.4404 13.026C17.4404 12.6672 17.1644 12.3763 16.8241 12.3763C16.4837 12.3763 16.2078 12.6672 16.2078 13.026C16.2078 13.3848 16.4837 13.6757 16.8241 13.6757Z" fill="white" stroke="black" stroke-width="0.5"/>
<path d="M14.9641 15.5545C15.3044 15.5545 15.5804 15.2636 15.5804 14.9048C15.5804 14.546 15.3044 14.2551 14.9641 14.2551C14.6237 14.2551 14.3478 14.546 14.3478 14.9048C14.3478 15.2636 14.6237 15.5545 14.9641 15.5545Z" fill="white" stroke="black" stroke-width="0.5"/>
<path d="M14.9641 11.7643C15.3044 11.7643 15.5804 11.4734 15.5804 11.1146C15.5804 10.7558 15.3044 10.465 14.9641 10.465C14.6237 10.465 14.3478 10.7558 14.3478 11.1146C14.3478 11.4734 14.6237 11.7643 14.9641 11.7643Z" fill="white" stroke="black" stroke-width="0.5"/>
<path d="M14.9372 28.9901C16.3919 28.9901 17.5712 27.7988 17.5712 26.3294C17.5712 24.8599 16.3919 23.6687 14.9372 23.6687C13.4824 23.6687 12.3031 24.8599 12.3031 26.3294C12.3031 27.7988 13.4824 28.9901 14.9372 28.9901Z" fill="white" stroke="black" stroke-width="0.5"/>
<path d="M12.9965 26.979C13.3369 26.979 13.6128 26.6882 13.6128 26.3294C13.6128 25.9706 13.3369 25.6797 12.9965 25.6797C12.6562 25.6797 12.3802 25.9706 12.3802 26.3294C12.3802 26.6882 12.6562 26.979 12.9965 26.979Z" fill="white" stroke="black" stroke-width="0.5"/>
<path d="M16.8241 26.979C17.1644 26.979 17.4404 26.6882 17.4404 26.3294C17.4404 25.9706 17.1644 25.6797 16.8241 25.6797C16.4837 25.6797 16.2078 25.9706 16.2078 26.3294C16.2078 26.6882 16.4837 26.979 16.8241 26.979Z" fill="white" stroke="black" stroke-width="0.5"/>
<path d="M14.9641 28.8578C15.3044 28.8578 15.5804 28.5669 15.5804 28.2081C15.5804 27.8493 15.3044 27.5585 14.9641 27.5585C14.6237 27.5585 14.3478 27.8493 14.3478 28.2081C14.3478 28.5669 14.6237 28.8578 14.9641 28.8578Z" fill="white" stroke="black" stroke-width="0.5"/>
<path d="M14.9641 25.0678C15.3044 25.0678 15.5804 24.7769 15.5804 24.4181C15.5804 24.0593 15.3044 23.7684 14.9641 23.7684C14.6237 23.7684 14.3478 24.0593 14.3478 24.4181C14.3478 24.7769 14.6237 25.0678 14.9641 25.0678Z" fill="white" stroke="black" stroke-width="0.5"/>
</svg>
