<svg width="16" height="9" viewBox="0 0 16 9" fill="none" xmlns="http://www.w3.org/2000/svg">
<path d="M10.8124 3.24996H8.69363L9.24363 0.498706C9.27238 0.355581 9.198 0.211831 9.06488 0.152456C8.933 0.0912059 8.7755 0.134331 8.68738 0.249956L4.93738 5.24996C4.86675 5.34433 4.85488 5.47121 4.908 5.57683C4.96113 5.68308 5.06925 5.74996 5.18738 5.74996H7.30613L6.75613 8.50121C6.72738 8.64433 6.80175 8.78808 6.93488 8.84746C6.9755 8.86621 7.01988 8.87496 7.06238 8.87496C7.158 8.87496 7.25175 8.83058 7.31238 8.74996L11.0624 3.74996C11.133 3.65558 11.1449 3.52871 11.0918 3.42308C11.0386 3.31683 10.9311 3.24996 10.8124 3.24996Z" fill="#43B620"/>
<path d="M12.9998 4.49997C12.9998 3.90559 12.7267 3.35934 12.2517 3.00122C12.1148 2.89872 11.9186 2.92434 11.8142 3.06309C11.7104 3.20122 11.7379 3.39684 11.8761 3.50059C12.1929 3.73934 12.3748 4.10372 12.3748 4.49997C12.3748 4.89684 12.1923 5.26184 11.8748 5.50059C11.7361 5.60372 11.7086 5.79934 11.8123 5.93747C11.8736 6.01934 11.9673 6.06247 12.0617 6.06247C12.1267 6.06247 12.1929 6.04247 12.2492 5.99934C12.7198 5.64747 12.9998 5.08684 12.9998 4.49997Z" fill="#43B620"/>
<path d="M14.2498 4.49999C14.2498 3.30499 13.5841 2.23186 12.5141 1.70061C12.3616 1.62311 12.1716 1.68624 12.0954 1.84124C12.0185 1.99561 12.0816 2.18374 12.236 2.25999C13.0923 2.68562 13.6248 3.54436 13.6248 4.49999C13.6248 5.45561 13.0923 6.31436 12.2354 6.74061C12.081 6.81686 12.0179 7.00499 12.0948 7.15936C12.1491 7.26936 12.2598 7.33249 12.3741 7.33249C12.421 7.33249 12.4685 7.32186 12.5135 7.29937C13.5841 6.76811 14.2498 5.69499 14.2498 4.49999Z" fill="#43B620"/>
<path d="M12.8102 0.461832C12.6527 0.394957 12.4683 0.469957 12.402 0.629332C12.3358 0.788707 12.4108 0.971207 12.5702 1.03746C13.9702 1.62371 14.8752 2.98183 14.8752 4.49996C14.8752 6.01808 13.9702 7.37683 12.5702 7.96183C12.4108 8.02808 12.3358 8.21058 12.402 8.36996C12.452 8.48996 12.5683 8.56246 12.6902 8.56246C12.7302 8.56246 12.7714 8.55433 12.8102 8.53808C14.4439 7.85558 15.5002 6.27058 15.5002 4.49996C15.5002 2.72933 14.4439 1.14433 12.8102 0.461832Z" fill="#43B620"/>
<path d="M3.625 4.49998C3.625 4.10373 3.80687 3.73936 4.12437 3.49998C4.2625 3.39623 4.29 3.20061 4.18625 3.06248C4.08187 2.92373 3.885 2.89811 3.74875 3.00061C3.27312 3.35936 3 3.90561 3 4.49998C3 5.08686 3.28 5.64748 3.75 5.99936C3.80625 6.04248 3.8725 6.06248 3.9375 6.06248C4.03188 6.06248 4.12625 6.01936 4.18688 5.93748C4.29063 5.79936 4.26312 5.60373 4.12437 5.50061C3.8075 5.26186 3.625 4.89686 3.625 4.49998Z" fill="#43B620"/>
<path d="M3.76437 6.74064C2.9075 6.31439 2.375 5.45564 2.375 4.50001C2.375 3.54439 2.9075 2.68564 3.76437 2.25939C3.91875 2.18314 3.98125 1.99501 3.90438 1.84064C3.82812 1.68626 3.63812 1.62251 3.48563 1.70001C2.41562 2.23189 1.75 3.30501 1.75 4.50001C1.75 5.69501 2.41562 6.76814 3.48563 7.29939C3.53062 7.32251 3.57812 7.33251 3.625 7.33251C3.74 7.33251 3.85 7.26939 3.90438 7.15939C3.98125 7.00501 3.91875 6.81689 3.76437 6.74064Z" fill="#43B620"/>
<path d="M3.43 7.96189C2.03 7.37689 1.125 6.01814 1.125 4.50001C1.125 2.98189 2.03 1.62376 3.43 1.03814C3.58938 0.971886 3.66437 0.789386 3.5975 0.630011C3.53187 0.470011 3.3475 0.396261 3.18937 0.462511C1.55562 1.14439 0.5 2.72939 0.5 4.50001C0.5 6.27064 1.55562 7.85564 3.19 8.53814C3.22875 8.55439 3.27 8.56251 3.31 8.56251C3.43187 8.56251 3.54812 8.49063 3.59812 8.37001C3.66437 8.21126 3.58938 8.02876 3.43 7.96189Z" fill="#43B620"/>
</svg>
