<svg xmlns="http://www.w3.org/2000/svg" width="1254" height="836" viewBox="0 0 1254 836">
<g>
<path d="M 615.80 391.00 C631.12,391.00 638.41,390.63 640.32,389.75 C642.43,388.78 642.90,388.52 642.88,384.22 L 643.07 391.00 L 615.80 391.00 ZM 465.34 279.51 C472.67,283.83 479.79,288.73 486.69,294.22 C497.03,302.43 496.21,298.93 485.25,288.02 C476.31,279.12 466.19,271.21 455.22,264.46 C464.81,270.31 473.75,277.01 481.74,284.41 C488.91,291.06 496.50,299.84 495.73,300.60 C495.44,300.89 491.67,298.28 487.35,294.80 C480.25,289.08 472.91,283.98 465.34,279.51 ZM 410.64 367.75 C410.81,366.17 411.07,364.29 411.35,362.62 C411.18,364.39 411.20,366.25 411.43,367.50 C411.80,369.46 412.50,370.81 412.98,370.51 C413.00,370.50 413.03,370.48 413.06,370.45 C411.81,372.03 411.01,373.00 410.88,373.00 C410.45,373.00 410.34,370.64 410.64,367.75 ZM 433.00 342.84 L 433.00 342.84 C433.00,343.32 427.49,351.06 421.97,358.58 C427.27,351.28 432.96,343.26 433.00,342.84 ZM 411.61 353.80 C410.68,353.18 409.03,353.00 406.39,353.00 C409.06,353.00 410.71,353.16 411.61,353.80 Z" fill="rgba(53,145,79,1)"/>
<path d="M 345.00 552.57 C328.95,550.31 307.61,544.73 299.00,540.55 C297.62,539.88 293.80,538.06 290.50,536.49 C274.54,528.94 255.14,515.75 243.34,504.44 L 238.50 499.79 L 245.00 500.42 C248.57,500.76 257.10,501.25 263.94,501.51 C276.10,501.96 276.50,502.05 281.55,505.40 C295.50,514.66 314.46,524.46 326.47,528.62 C342.28,534.09 373.27,539.16 386.50,538.44 C404.34,537.46 418.31,535.60 424.26,533.40 C426.33,532.63 428.35,532.08 428.76,532.16 C429.17,532.25 430.40,531.98 431.50,531.56 C441.26,527.89 445.26,526.19 450.00,523.71 C455.93,520.61 455.38,520.59 443.00,523.48 C413.77,530.31 405.06,531.34 381.59,530.76 C361.63,530.26 348.89,528.22 333.04,522.96 C324.23,520.04 312.55,514.04 313.63,513.00 C314.11,512.53 319.88,513.45 326.50,515.05 C355.91,522.16 379.02,523.26 419.35,519.45 C431.60,518.30 458.70,511.01 473.00,505.01 C477.12,503.29 484.77,500.32 490.00,498.42 C495.23,496.52 501.19,494.23 503.26,493.33 C505.33,492.42 507.29,491.96 507.63,492.30 C508.59,493.26 496.69,506.11 488.22,513.24 C465.22,532.60 442.08,543.88 412.50,550.15 C399.98,552.80 396.17,553.16 376.50,553.51 C361.52,553.78 351.47,553.48 345.00,552.57 ZM 320.76 507.06 C308.53,503.11 301.41,490.28 302.46,474.08 C303.36,460.23 309.71,452.00 319.50,452.00 C330.57,452.00 338.62,464.21 339.95,483.00 L 340.62 492.50 L 342.31 488.78 C346.80,478.91 342.16,459.24 333.31,450.64 C325.09,442.66 310.59,443.84 303.17,453.09 C297.07,460.72 295.21,476.08 298.95,488.09 C301.11,495.03 300.91,496.24 297.69,495.52 C294.19,494.74 261.80,492.19 246.41,491.48 C232.98,490.86 231.98,490.95 224.84,493.42 C214.64,496.94 208.47,496.86 203.40,493.14 C197.72,488.98 194.80,481.24 194.22,468.84 C193.82,460.20 194.01,458.75 196.01,455.19 C198.19,451.32 200.21,449.76 204.62,448.54 C206.20,448.10 207.49,448.79 209.62,451.23 C213.33,455.47 215.47,460.57 217.70,470.50 L 219.50 478.50 L 219.80 471.08 C220.13,462.77 217.40,451.81 213.77,446.90 C210.66,442.69 206.13,440.85 201.82,442.04 C194.79,443.98 191.16,451.53 190.18,466.23 C189.46,477.00 188.20,479.25 185.67,474.31 C182.67,468.47 181.27,457.47 181.47,441.29 C181.76,417.61 181.25,419.85 187.25,415.75 C202.58,405.28 226.67,392.51 239.48,388.07 C248.39,384.97 264.38,381.24 274.00,380.01 C295.29,377.28 333.34,377.86 349.50,381.16 C370.05,385.35 389.62,396.01 405.71,411.78 L 413.78 419.68 L 423.84 420.30 C435.46,421.01 450.68,424.82 459.38,429.20 C475.65,437.39 483.88,452.91 483.95,475.50 C483.99,486.86 483.79,487.17 476.77,486.89 L 470.80 486.64 L 468.58 491.07 C461.54,505.07 437.87,509.32 430.50,497.90 L 428.50 494.80 L 413.50 495.39 C405.25,495.72 387.99,496.28 375.15,496.64 C352.66,497.28 351.69,497.39 349.04,499.62 C341.42,506.03 328.28,509.49 320.76,507.06 ZM 443.00 485.95 C461.63,484.50 467.08,482.96 452.00,483.40 C439.11,483.77 416.35,482.56 405.00,480.90 C400.88,480.29 390.59,478.25 382.14,476.37 C370.31,473.72 366.47,473.20 365.39,474.09 C363.44,475.71 363.61,482.43 365.65,484.13 C368.64,486.62 419.06,487.80 443.00,485.95 ZM 256.63 478.26 C258.76,475.66 261.32,472.70 262.31,471.70 C263.31,470.69 265.79,467.71 267.81,465.07 C269.84,462.42 273.45,457.95 275.84,455.13 L 280.19 450.00 L 272.99 450.00 C267.26,450.00 265.90,449.72 266.32,448.62 C266.82,447.31 269.54,436.20 270.57,431.25 C271.52,426.70 268.08,429.11 259.88,438.75 C255.32,444.11 248.91,451.31 245.64,454.75 L 239.68 461.00 L 247.84 461.00 C252.33,461.00 256.00,461.34 256.00,461.76 C256.00,462.17 254.88,466.56 253.51,471.51 C249.79,484.96 250.28,486.03 256.63,478.26 ZM 393.68 453.80 C395.51,453.14 397.00,452.32 397.00,451.99 C397.00,450.87 390.61,444.83 386.25,441.83 C380.03,437.55 371.86,434.16 362.60,432.02 C352.70,429.73 341.99,428.50 342.02,429.65 C342.06,431.98 352.58,444.41 356.76,447.06 C362.35,450.61 366.46,451.82 378.50,453.48 C390.69,455.16 389.95,455.15 393.68,453.80 ZM 457.56 452.47 C469.73,449.37 470.99,448.02 466.65,442.72 L 464.37 439.94 L 455.44 442.85 C447.26,445.51 433.70,447.70 413.50,449.62 L 406.50 450.28 L 409.99 451.74 C417.93,455.07 445.71,455.49 457.56,452.47 ZM 257.00 419.20 C254.83,417.44 254.70,416.95 255.79,414.57 C258.03,409.64 267.45,407.61 276.47,410.11 C278.92,410.79 282.16,412.97 284.96,415.81 C290.84,421.78 291.43,419.68 286.65,409.76 C279.89,395.69 274.74,390.99 266.10,391.01 C259.31,391.02 245.50,395.06 235.50,399.95 C225.65,404.77 211.00,414.35 211.00,415.96 C211.00,416.41 211.73,417.07 212.63,417.41 C214.49,418.13 230.79,419.88 239.00,420.25 C242.02,420.39 247.86,420.65 251.96,420.83 L 259.42 421.16 L 257.00 419.20 ZM 399.00 419.22 C399.00,417.86 386.77,406.46 379.33,400.88 C361.87,387.79 355.82,386.00 329.08,386.00 C313.26,386.00 295.27,387.30 289.42,388.86 L 286.92 389.53 L 289.97 394.14 C293.66,399.71 308.49,414.13 313.14,416.67 C316.18,418.33 320.17,418.55 355.00,419.02 C376.17,419.31 394.74,419.65 396.25,419.77 C397.76,419.90 399.00,419.65 399.00,419.22 ZM 490.00 479.95 L 490.00 472.70 L 502.25 473.37 C518.74,474.27 533.52,476.46 536.53,478.43 C537.89,479.32 539.00,480.85 539.00,481.82 C539.00,483.66 534.57,484.19 499.25,486.58 L 490.00 487.21 L 490.00 479.95 ZM 906.72 479.23 C901.03,477.14 894.08,469.64 893.31,464.74 C893.03,462.96 892.40,460.74 891.90,459.82 C891.41,458.89 891.00,446.39 891.00,432.03 L 891.00 405.92 L 900.25 406.21 L 909.50 406.50 L 910.00 430.00 C910.56,456.27 911.05,458.37 917.36,461.37 C921.81,463.48 924.57,463.40 929.50,461.03 C937.35,457.26 936.92,458.76 937.04,434.73 C937.10,422.27 937.61,411.62 938.24,409.57 L 939.34 406.00 L 948.67 406.00 L 958.00 406.00 L 958.00 442.00 L 958.00 478.00 L 949.05 478.00 L 940.09 478.00 L 939.43 474.50 L 938.78 471.01 L 935.76 473.55 C927.73,480.31 915.96,482.61 906.72,479.23 ZM 1000.70 479.45 C998.06,478.60 994.34,477.03 992.42,475.96 C988.11,473.53 988.21,473.53 987.82,476.25 C987.64,477.49 987.16,478.39 986.75,478.25 C986.34,478.11 982.62,478.00 978.50,478.00 L 971.00 478.00 L 971.00 424.61 L 971.00 371.22 L 973.25 370.67 C974.49,370.36 978.76,370.11 982.75,370.11 L 990.00 370.10 L 990.00 390.47 L 990.00 410.85 L 995.67 407.44 C1002.45,403.36 1006.22,402.53 1014.37,403.34 C1022.73,404.17 1024.13,404.52 1028.92,406.96 C1034.80,409.96 1040.07,415.58 1043.52,422.53 C1046.34,428.19 1046.49,429.15 1046.50,441.00 C1046.50,453.09 1046.39,453.72 1043.24,460.17 C1039.21,468.41 1032.11,475.07 1024.20,478.03 C1016.68,480.84 1006.89,481.43 1000.70,479.45 ZM 1014.67 462.90 C1018.63,461.65 1024.44,454.70 1025.89,449.46 C1027.80,442.59 1027.27,436.26 1024.34,430.89 C1022.88,428.20 1021.39,426.00 1021.03,426.00 C1020.67,426.00 1019.48,425.17 1018.39,424.15 C1013.58,419.67 999.70,419.07 993.14,423.06 L 990.00 424.97 L 990.00 441.53 L 990.00 458.10 L 992.62 460.53 C994.06,461.86 996.88,463.23 998.87,463.56 C1000.87,463.89 1002.95,464.33 1003.50,464.53 C1004.81,465.02 1010.67,464.16 1014.67,462.90 ZM 569.00 423.99 L 569.00 369.98 L 605.75 370.24 L 642.50 370.50 L 642.77 379.50 C643.04,388.43 643.02,388.51 640.32,389.75 C638.41,390.63 631.12,391.00 615.80,391.00 L 594.00 391.00 L 594.00 401.87 L 594.00 412.74 L 597.75 413.27 C599.81,413.55 610.28,413.64 621.00,413.46 L 640.50 413.13 L 640.18 423.07 L 639.87 433.00 L 626.68 433.08 C619.43,433.13 609.22,433.24 604.00,433.33 L 594.50 433.50 L 594.22 445.13 C593.94,456.49 593.99,456.76 596.22,457.36 C597.47,457.70 609.64,457.98 623.25,457.99 L 648.00 458.00 L 648.00 468.00 L 648.00 478.00 L 608.50 478.00 L 569.00 478.00 L 569.00 423.99 ZM 693.68 477.28 C693.42,476.85 692.75,474.92 692.19,473.00 C691.62,471.08 690.17,467.02 688.97,464.00 C687.76,460.98 686.55,457.26 686.27,455.75 C686.00,454.24 685.30,453.00 684.72,453.00 C684.14,453.00 683.95,452.72 684.29,452.38 C684.63,452.03 684.09,450.12 683.09,448.13 C681.55,445.08 678.10,436.56 672.83,422.79 C672.26,421.30 671.95,419.91 672.15,419.70 C672.34,419.48 671.95,418.64 671.27,417.83 C670.59,417.01 668.73,412.78 667.13,408.42 C665.54,404.07 663.02,397.35 661.54,393.50 C660.06,389.65 658.48,385.38 658.03,384.00 C657.57,382.62 656.03,378.90 654.60,375.72 L 652.00 369.94 L 665.68 370.22 L 679.35 370.50 L 683.27 381.50 C685.42,387.55 690.03,400.15 693.50,409.50 C696.98,418.85 701.77,431.79 704.16,438.26 C708.12,448.98 708.57,449.77 709.40,447.26 C709.89,445.74 710.79,444.17 711.40,443.77 C712.01,443.36 712.16,443.02 711.74,443.02 C711.32,443.01 711.69,441.31 712.57,439.25 C713.44,437.19 714.32,434.83 714.51,434.00 C715.17,431.21 721.89,413.07 723.12,410.78 C723.79,409.52 724.21,408.37 724.05,408.20 C723.67,407.81 727.06,398.79 728.08,397.47 C728.52,396.90 729.10,395.33 729.36,393.97 C729.98,390.81 732.34,384.15 735.64,376.32 L 738.24 370.14 L 751.62 370.06 C758.98,370.02 765.00,370.35 765.00,370.79 C765.00,371.24 762.35,378.33 759.12,386.55 C755.88,394.77 750.86,407.80 747.96,415.50 C745.06,423.20 741.38,432.88 739.80,437.00 C738.21,441.12 736.27,446.30 735.49,448.50 C734.70,450.70 731.85,458.12 729.13,465.00 L 724.21 477.50 L 709.18 477.78 C700.91,477.93 693.94,477.70 693.68,477.28 ZM 792.77 424.51 C792.55,380.70 792.74,370.93 793.83,370.51 C794.56,370.23 798.94,370.00 803.56,370.00 L 811.96 370.00 L 812.23 391.25 L 812.50 412.50 L 834.50 412.50 L 856.50 412.50 L 856.77 391.25 L 857.04 370.00 L 864.39 370.00 C868.44,370.00 873.16,370.28 874.88,370.62 L 878.00 371.25 L 878.00 424.62 L 878.00 478.00 L 867.41 478.00 L 856.82 478.00 L 857.02 461.25 C857.13,452.04 857.17,441.69 857.11,438.25 L 857.00 432.00 L 834.50 432.00 L 812.00 432.00 L 812.00 455.00 L 812.00 478.00 L 802.52 478.00 L 793.03 478.00 L 792.77 424.51 ZM 504.97 464.22 C494.17,458.97 490.92,448.22 493.40,426.00 C493.80,422.42 494.21,414.33 494.30,408.00 C494.44,398.71 494.14,395.88 492.73,393.28 C491.04,390.18 488.30,388.00 486.07,388.00 C485.34,388.00 485.00,396.73 485.00,415.59 L 485.00 443.18 L 481.17 438.34 C479.06,435.68 476.58,432.88 475.67,432.13 C474.15,430.87 474.00,425.63 474.02,372.13 C474.03,334.19 474.39,312.97 475.04,312.00 C475.89,310.74 476.52,311.03 478.88,313.79 C483.26,318.88 484.00,323.06 484.01,342.62 C484.01,352.45 484.30,364.21 484.65,368.75 C485.22,375.97 485.53,377.00 487.20,377.00 C492.19,377.00 497.79,382.01 501.05,389.39 C504.09,396.26 504.54,406.76 502.57,425.04 C500.25,446.53 501.93,453.78 509.70,455.93 C514.39,457.22 517.31,455.54 519.59,450.23 C520.91,447.17 521.08,444.27 520.56,434.00 C519.69,417.02 519.31,413.39 516.88,399.50 C515.72,392.90 514.57,384.09 514.32,379.93 C513.86,372.39 513.84,372.34 510.52,371.14 C505.74,369.41 500.38,363.03 498.56,356.88 C497.70,354.00 497.00,348.15 497.00,343.88 L 497.00 336.12 L 501.50 335.45 L 506.00 334.77 L 506.00 327.82 C506.00,320.19 507.13,317.00 509.84,317.00 C513.12,317.00 514.00,319.17 514.00,327.26 L 514.00 335.11 L 518.25 334.81 L 522.50 334.50 L 522.84 327.00 C523.19,319.08 524.08,317.00 527.09,317.00 C529.88,317.00 531.00,320.14 531.00,327.93 C531.00,334.28 531.20,335.00 532.95,335.00 C534.03,335.00 536.11,335.55 537.58,336.22 C540.24,337.43 540.25,337.46 539.78,346.48 C539.21,357.22 536.98,363.05 531.63,367.75 C529.60,369.54 527.50,371.00 526.97,371.00 C526.43,371.00 526.00,374.28 526.00,378.30 C526.00,382.32 525.51,386.09 524.91,386.69 C524.12,387.48 524.26,390.80 525.40,398.64 C529.34,425.63 530.08,432.30 530.13,441.16 C530.20,451.29 528.78,456.44 524.70,460.87 C520.00,465.97 511.54,467.41 504.97,464.22 ZM 464.72 422.59 C459.99,419.00 440.58,413.77 425.73,412.08 C417.25,411.12 416.91,410.98 410.78,405.80 C397.26,394.38 386.92,388.08 374.00,383.40 C369.88,381.91 365.95,380.26 365.27,379.73 C364.33,379.01 364.09,370.84 364.27,345.14 C364.47,315.19 364.69,311.15 366.26,308.28 C367.23,306.51 368.96,304.55 370.12,303.94 C373.22,302.28 457.01,302.35 461.03,304.01 C462.65,304.69 465.00,306.87 466.24,308.87 L 468.50 312.50 L 468.80 368.25 C469.11,427.16 469.20,425.98 464.72,422.59 ZM 448.55 377.55 L 451.00 375.09 L 451.00 347.27 C451.00,323.70 450.76,319.10 449.44,317.22 C447.89,315.00 447.85,315.00 415.14,315.00 C391.01,315.00 382.08,315.32 381.20,316.20 C380.32,317.08 380.00,325.34 380.00,347.14 C380.00,376.75 380.01,376.89 382.22,378.44 C384.12,379.77 388.99,380.00 415.27,380.00 L 446.09 380.00 L 448.55 377.55 ZM 196.44 392.52 C196.13,390.86 196.37,384.55 196.98,378.50 C200.41,344.40 214.30,315.11 238.85,290.21 C266.81,261.84 298.36,246.29 340.50,240.10 C352.45,238.34 385.81,239.36 397.96,241.84 C431.21,248.65 462.16,265.02 485.25,288.02 C496.21,298.93 497.03,302.43 486.69,294.22 C451.28,266.08 410.28,253.34 364.10,256.14 C343.58,257.39 319.54,263.47 301.31,272.02 C274.40,284.65 250.26,307.66 237.64,332.72 C230.63,346.65 225.97,362.42 224.51,377.23 C223.85,383.95 223.84,383.97 220.17,384.99 C218.15,385.56 212.11,388.16 206.75,390.78 L 197.00 395.54 L 196.44 392.52 ZM 235.00 371.46 C235.00,364.29 240.32,345.60 244.67,337.50 C245.56,335.85 247.41,332.45 248.78,329.93 C252.93,322.34 265.03,308.00 273.38,300.79 C296.48,280.83 323.73,269.04 355.00,265.47 C376.43,263.02 393.26,263.81 410.50,268.09 C422.44,271.05 432.16,275.17 430.69,276.64 C430.58,276.75 426.89,275.97 422.50,274.90 C411.88,272.31 381.23,271.26 364.50,272.90 C325.73,276.72 288.22,295.24 263.87,322.59 C251.94,335.99 240.66,356.17 237.89,369.08 C236.77,374.28 235.00,375.74 235.00,371.46 ZM 411.43 367.50 C411.07,365.55 411.24,362.11 411.81,359.86 C413.33,353.86 412.65,353.00 406.39,353.00 C403.43,353.00 401.00,352.71 401.00,352.36 C401.00,351.28 414.37,333.57 416.24,332.19 C417.21,331.47 418.00,330.34 418.00,329.67 C418.00,328.27 423.88,321.54 424.53,322.19 C425.05,322.71 423.31,338.43 422.43,341.21 C421.85,343.06 422.20,343.17 427.40,342.85 C430.48,342.66 433.00,342.65 433.00,342.84 C433.00,343.50 413.85,369.98 412.98,370.51 C412.50,370.81 411.80,369.46 411.43,367.50 Z" fill="rgba(72,178,97,1)"/>
</g>
</svg>