<svg xmlns="http://www.w3.org/2000/svg" width="866" height="774" viewBox="0 0 866 774">
<g>
<path d="M 0.00 0.00 L 866.00 0.00 L 866.00 774.00 L 0.00 774.00 ZM 390.28 633.10 C395.15,634.35 408.66,633.32 416.27,631.10 C425.65,628.37 433.15,624.78 440.64,619.44 C445.49,615.98 448.40,614.67 452.76,613.99 C455.92,613.50 481.45,612.38 509.50,611.50 C537.55,610.63 569.28,609.54 580.00,609.08 C594.19,608.47 599.68,608.55 600.17,609.37 C607.31,621.41 617.18,627.00 631.32,627.00 C651.64,627.00 670.43,616.14 679.30,599.25 L 683.06 592.09 L 692.82 592.68 C702.24,593.26 702.67,593.19 705.53,590.72 L 708.50 588.17 L 708.37 572.34 C708.31,563.63 707.70,552.90 707.02,548.50 C702.47,518.94 688.53,495.80 667.64,483.17 C648.75,471.74 615.58,463.00 584.95,461.38 L 571.64 460.68 L 558.07 447.95 C542.54,433.38 535.56,427.47 525.08,420.03 C496.87,400.00 463.42,386.75 430.48,382.56 C402.91,379.05 354.26,377.94 321.00,380.05 C281.00,382.60 240.25,391.80 210.17,405.10 C177.80,419.40 121.15,452.26 116.42,459.48 C112.65,465.23 112.04,522.08 115.50,545.35 C117.79,560.78 122.02,572.00 125.55,572.00 C127.87,572.00 128.80,568.28 130.49,552.08 C133.44,523.86 138.60,511.28 149.34,506.08 C161.23,500.32 173.58,505.96 180.33,520.23 C186.17,532.58 190.26,556.23 188.42,567.03 L 187.49 572.50 L 183.75 557.50 C179.36,539.96 174.17,528.30 167.78,521.63 C162.62,516.25 160.77,515.96 153.31,519.43 C147.04,522.36 141.74,529.02 139.36,536.99 C138.03,541.45 137.84,544.92 138.37,555.32 C139.55,578.78 144.09,593.07 152.99,601.40 C164.66,612.31 173.77,613.08 198.58,605.26 L 210.50 601.50 L 228.00 601.63 C247.63,601.78 265.52,602.88 310.00,606.70 C312.45,606.91 314.73,607.10 316.87,607.29 C342.18,609.47 345.95,609.79 346.61,608.51 C346.79,608.17 346.75,607.73 346.83,607.19 C347.01,605.92 345.89,600.29 344.34,594.69 C341.81,585.53 341.53,582.93 341.53,569.00 C341.54,551.84 342.74,545.60 348.22,534.06 C354.52,520.82 367.07,512.28 381.75,511.28 C400.91,509.97 413.76,518.33 423.54,538.43 C429.16,549.98 432.00,560.85 432.71,573.52 C433.32,584.48 432.35,590.81 428.89,598.53 L 426.66 603.50 L 425.44 589.00 C423.43,565.30 419.05,550.42 410.58,538.56 C403.15,528.15 392.83,523.03 381.89,524.33 C362.82,526.58 351.67,544.74 351.67,573.50 C351.67,587.24 353.30,595.38 358.14,605.68 C363.80,617.74 378.12,629.96 390.28,633.10 ZM 671.50 466.36 C674.90,469.05 676.83,468.39 677.70,464.25 C678.14,462.19 678.42,412.96 678.33,354.86 L 678.17 249.22 L 675.46 244.86 C671.95,239.20 668.19,235.18 664.69,233.35 C660.13,230.98 607.66,229.68 547.00,230.44 C518.12,230.80 492.14,231.44 489.26,231.87 C483.17,232.76 480.01,235.28 476.91,241.69 C473.85,248.00 472.79,273.76 473.18,332.32 C473.49,378.43 473.57,380.21 475.45,381.59 C476.53,382.37 483.28,385.30 490.45,388.09 C518.04,398.81 533.99,408.10 557.79,427.33 C577.93,443.60 576.46,442.88 595.23,445.57 C629.90,450.53 662.83,459.50 671.50,466.36 ZM 143.41 410.86 C144.43,412.50 145.79,411.99 163.20,403.47 C171.41,399.45 181.59,394.93 185.81,393.42 C190.04,391.92 194.26,389.97 195.18,389.10 C196.37,387.97 197.21,384.39 198.03,377.00 C203.51,327.58 223.60,280.13 254.75,243.00 C272.54,221.80 298.23,199.47 322.00,184.53 C356.23,163.03 402.12,147.43 452.00,140.36 C467.92,138.10 521.69,137.77 538.00,139.83 C605.80,148.39 656.16,169.35 713.48,212.87 C722.27,219.54 729.81,225.00 730.23,225.00 C731.96,225.00 730.71,222.76 725.10,215.81 C719.27,208.58 705.07,194.44 695.46,186.29 C692.73,183.98 689.42,181.16 688.10,180.04 C686.78,178.92 685.43,178.00 685.10,178.00 C684.77,177.99 683.15,176.74 681.50,175.22 C675.11,169.32 659.47,158.85 642.00,148.78 C608.45,129.42 561.30,112.87 527.46,108.55 C502.28,105.34 456.99,104.09 435.33,106.01 C402.80,108.89 361.18,119.72 329.00,133.68 C263.20,162.24 202.86,218.89 172.11,281.00 C157.25,311.00 148.73,339.75 144.52,374.12 C142.84,387.83 142.20,408.90 143.41,410.86 ZM 443.91 722.96 C456.81,724.10 507.24,724.12 526.00,722.98 C549.47,721.55 570.35,717.60 598.00,709.37 C650.30,693.80 698.33,664.91 736.09,626.34 C752.89,609.17 757.64,603.00 754.04,603.00 C753.15,603.00 704.61,621.34 680.00,630.97 C658.12,639.54 616.76,651.04 594.00,654.90 C572.42,658.56 542.99,660.41 506.00,660.43 C462.10,660.46 444.30,658.45 400.16,648.43 C391.72,646.52 382.05,644.66 378.66,644.31 C372.89,643.71 372.59,643.78 373.94,645.41 C374.73,646.37 381.55,650.21 389.11,653.95 C412.46,665.50 439.04,672.90 472.00,677.03 C476.67,677.62 494.97,678.36 512.65,678.68 C556.48,679.47 568.02,678.18 618.25,666.87 C632.96,663.56 645.78,661.02 646.75,661.23 C650.50,662.05 610.21,680.02 601.14,681.57 C599.14,681.92 593.95,683.29 589.62,684.62 C562.49,692.98 506.55,696.12 473.00,691.17 C437.48,685.94 408.24,678.83 387.88,670.50 C366.46,661.72 335.47,645.03 307.47,627.18 C301.02,623.07 296.27,622.35 266.71,620.99 C253.63,620.39 239.26,619.49 234.77,618.97 C230.29,618.46 226.46,618.21 226.26,618.41 C226.06,618.61 231.21,623.57 237.70,629.43 C251.86,642.21 271.74,657.15 290.63,669.20 C308.71,680.74 344.31,698.72 359.50,703.98 C382.49,711.95 423.28,721.12 443.91,722.96 ZM 754.39 549.64 C760.74,551.71 773.38,550.86 779.50,547.93 C789.36,543.23 795.61,534.56 798.04,522.22 C800.23,511.05 798.71,479.35 794.56,450.00 L 794.26 447.83 C788.34,405.94 787.66,401.13 788.72,396.75 C788.87,396.11 789.07,395.48 789.29,394.74 C790.14,391.86 791.09,384.51 791.39,378.42 C791.69,372.32 792.18,366.68 792.49,365.88 C792.80,365.08 794.62,363.58 796.53,362.55 C801.71,359.76 809.77,350.74 812.59,344.58 C815.87,337.43 817.74,327.99 818.58,314.36 C819.47,300.02 819.03,298.37 813.71,295.96 C811.40,294.90 808.38,294.03 807.00,294.01 C801.93,293.93 801.57,293.01 800.96,278.80 C800.22,261.59 798.02,256.78 791.59,258.39 C787.41,259.44 785.89,264.41 785.14,279.47 L 784.50 292.50 L 777.02 293.17 C772.91,293.53 769.26,293.66 768.91,293.45 C768.57,293.23 768.04,286.86 767.75,279.28 C767.46,271.70 766.74,264.29 766.16,262.81 C764.83,259.45 761.58,257.64 758.34,258.45 C754.23,259.48 752.70,264.77 752.21,279.72 C751.93,288.19 752.03,291.42 750.47,292.85 C749.32,293.91 747.27,293.99 743.50,294.49 C740.75,294.85 737.42,295.40 736.10,295.72 L 733.70 296.29 L 734.36 311.40 C735.17,329.97 736.04,334.57 740.47,343.59 C744.75,352.30 751.95,359.81 760.25,364.20 C767.50,368.03 766.89,366.22 769.51,391.90 C770.37,400.37 772.16,413.65 773.49,421.40 C778.57,450.94 781.67,487.43 780.83,507.69 C780.48,516.22 780.04,518.22 777.46,523.00 C772.09,532.97 762.82,535.05 752.87,528.52 C748.03,525.33 745.22,519.17 743.93,508.92 C742.84,500.24 743.08,494.54 745.65,468.00 C747.73,446.56 747.70,421.60 745.58,412.00 C741.71,394.49 730.05,379.40 718.55,377.01 C715.10,376.29 712.63,375.18 712.03,374.07 C710.34,370.91 709.00,347.46 708.97,320.60 C708.94,290.84 707.77,271.82 705.53,264.35 C703.60,257.93 695.59,246.74 693.24,247.19 C692.30,247.37 691.21,249.01 690.72,251.01 C689.47,256.05 688.62,451.48 689.78,468.71 L 690.73 482.92 L 696.02 488.71 C698.93,491.89 703.10,496.86 705.28,499.75 C707.46,502.64 709.64,505.00 710.12,505.00 C710.61,505.00 711.03,483.39 711.06,455.75 C711.09,428.66 711.45,404.70 711.85,402.50 C712.48,399.09 712.93,398.54 714.90,398.76 C718.86,399.20 722.77,402.82 725.68,408.77 C728.29,414.10 728.51,415.51 728.84,429.00 C729.03,436.98 728.65,450.70 728.00,459.50 C724.38,508.21 725.89,523.71 735.48,536.27 C739.33,541.32 748.27,547.64 754.39,549.64 ZM 639.41 377.10 L 634.58 382.00 L 577.04 381.88 C545.39,381.82 517.29,381.39 514.58,380.94 C511.41,380.41 508.75,379.20 507.08,377.54 L 504.50 374.95 L 504.53 318.23 C504.54,277.05 504.87,260.76 505.72,258.82 C506.67,256.66 507.83,255.99 511.70,255.35 C514.34,254.92 543.05,254.56 575.50,254.54 C626.01,254.51 634.93,254.72 637.46,256.00 C642.98,258.80 643.20,260.97 643.74,319.35 L 644.24 372.19 ZM 539.85 460.11 C539.11,460.58 537.60,460.90 536.50,460.82 C535.40,460.73 512.90,460.30 486.50,459.86 C422.87,458.80 381.34,457.35 376.81,456.02 C371.00,454.32 361.72,446.77 345.46,430.53 C331.78,416.86 322.00,404.76 322.00,401.52 C322.00,399.16 341.19,396.59 370.50,395.01 C407.43,393.02 439.41,394.16 455.94,398.06 C476.09,402.82 500.13,418.60 529.88,446.61 C540.07,456.20 541.97,458.77 539.85,460.11 ZM 219.28 361.39 C218.79,368.76 218.93,370.19 220.09,369.81 C220.87,369.56 222.06,367.59 222.75,365.43 C229.50,344.29 231.86,338.01 236.98,327.56 C250.28,300.40 265.14,279.70 286.93,257.98 C310.99,233.99 332.41,218.81 364.50,203.01 C397.75,186.64 425.62,178.08 464.50,172.31 C474.42,170.84 483.09,170.54 514.50,170.57 C555.90,170.60 573.44,171.91 592.50,176.38 C598.00,177.67 602.87,178.52 603.32,178.26 C606.42,176.50 591.87,169.63 574.50,164.68 C535.25,153.48 492.88,151.30 446.00,158.06 C391.72,165.90 344.71,185.87 304.00,218.39 C283.73,234.57 261.01,259.59 248.60,279.41 C233.38,303.68 220.78,338.92 219.28,361.39 ZM 262.06 459.17 L 266.50 462.99 L 257.50 462.81 C224.12,462.12 176.79,457.73 173.53,455.02 C170.95,452.88 171.75,451.55 178.81,446.28 C204.50,427.12 237.73,411.60 265.14,405.95 C283.66,402.13 294.68,404.49 303.57,414.16 C314.11,425.62 330.15,459.00 325.12,459.00 C324.64,459.00 320.93,456.01 316.87,452.35 C306.18,442.71 301.17,440.65 287.33,440.17 C270.93,439.61 262.69,443.09 258.93,452.17 C257.64,455.27 257.71,455.41 262.06,459.17 ZM 262.80 573.93 C250.85,587.32 249.58,587.85 251.23,578.72 C251.75,575.85 253.97,566.80 256.17,558.61 C259.39,546.61 259.91,543.56 258.84,542.88 C258.10,542.41 250.83,542.02 242.67,542.02 L 227.84 542.00 L 238.81 530.25 C244.84,523.79 256.27,511.08 264.21,502.00 C279.60,484.41 285.12,479.00 287.65,479.00 C289.69,479.00 289.17,482.51 284.13,502.79 C281.51,513.32 280.66,518.30 281.41,518.79 C282.01,519.18 288.10,519.72 294.95,520.00 L 307.40 520.50 L 301.40 527.50 C298.11,531.35 290.16,541.03 283.75,549.00 C277.34,556.97 267.91,568.19 262.80,573.93 ZM 533.46 526.32 C525.52,530.10 521.42,530.06 495.00,525.92 C469.37,521.90 460.46,517.61 445.91,502.29 C436.65,492.53 428.62,481.42 429.64,479.77 C430.04,479.12 433.07,478.99 437.89,479.41 C465.43,481.82 495.10,490.63 512.84,501.67 C520.60,506.51 537.00,521.29 537.00,523.45 C537.00,524.10 535.41,525.39 533.46,526.32 ZM 564.45 359.75 C563.96,365.51 564.07,368.00 564.84,368.00 C566.40,368.00 608.00,311.79 608.00,309.68 C608.00,309.35 603.39,308.94 597.75,308.78 C588.17,308.52 587.52,308.37 587.75,306.50 C587.88,305.40 588.63,300.00 589.42,294.50 C592.04,276.19 592.43,269.00 590.77,269.00 C589.03,269.00 581.56,277.62 579.81,281.65 C579.13,283.22 576.50,286.80 573.98,289.62 C568.89,295.29 552.86,316.15 548.57,322.69 C547.05,325.00 546.10,327.36 546.46,327.94 C546.83,328.53 550.39,329.00 554.49,329.00 C567.70,329.00 569.08,330.66 566.65,343.59 C565.83,347.94 564.84,355.21 564.45,359.75 ZM 604.29 592.02 C555.74,593.91 489.06,591.71 477.97,587.84 C476.20,587.22 474.46,585.70 473.93,584.31 C472.64,580.92 472.77,572.60 474.16,569.55 C475.16,567.36 475.96,567.00 479.91,567.00 C482.43,567.01 491.02,568.37 499.00,570.04 C563.79,583.60 572.60,584.66 629.50,585.70 C648.20,586.05 662.25,586.67 660.71,587.09 C654.77,588.70 627.02,591.13 604.29,592.02 ZM 723.25 565.00 L 720.00 565.00 L 720.00 593.00 L 724.25 592.99 C730.66,592.97 793.94,588.19 803.59,586.99 C816.91,585.33 818.84,584.07 815.44,579.22 C813.11,575.89 809.33,574.31 798.39,572.10 C783.76,569.14 740.22,565.03 723.25,565.00 ZM 635.50 527.99 C608.16,530.50 573.44,528.03 562.00,522.76 L 557.50 520.69 L 575.00 518.88 C615.31,514.71 642.09,509.75 662.77,502.61 L 670.04 500.11 L 674.02 505.15 C681.68,514.83 680.51,517.47 666.59,521.90 C655.02,525.58 649.15,526.73 635.50,527.99 Z" fill="rgb(25,25,25)"/>
<path d="M 564.45 359.75 C564.60,358.04 564.83,355.95 565.10,353.76 C564.49,359.00 564.19,363.50 564.56,364.10 C565.68,365.92 567.68,364.75 572.88,358.37 C568.42,364.12 565.25,368.00 564.84,368.00 C564.07,368.00 563.96,365.51 564.45,359.75 ZM 719.31 217.25 C725.03,221.36 727.62,222.75 728.43,222.30 C729.23,221.85 729.09,220.99 727.40,218.70 C731.02,223.40 731.69,225.00 730.23,225.00 C729.91,225.00 725.38,221.77 719.31,217.25 ZM 567.15 340.75 C567.91,335.94 567.86,333.06 566.36,331.36 C568.13,333.10 568.16,336.02 567.15,340.75 ZM 725.46 216.25 C724.79,215.44 724.01,214.52 723.12,213.47 C722.54,212.80 721.93,212.10 721.29,211.38 C722.77,213.03 724.07,214.53 725.10,215.81 C725.22,215.96 725.34,216.10 725.46,216.25 ZM 699.21 189.56 C697.93,188.43 696.68,187.33 695.45,186.29 L 688.10 180.04 C689.42,181.16 692.73,183.98 695.46,186.29 C696.65,187.30 697.91,188.40 699.21,189.56 Z" fill="rgb(53,104,63)"/>
<path d="M 443.91 722.96 C423.28,721.12 382.49,711.95 359.50,703.98 C344.31,698.72 308.71,680.74 290.63,669.20 C271.74,657.15 251.86,642.21 237.70,629.43 C231.21,623.57 226.06,618.61 226.26,618.41 C226.46,618.21 230.29,618.46 234.77,618.97 C239.26,619.49 253.63,620.39 266.71,620.99 C296.27,622.35 301.02,623.07 307.47,627.18 C335.47,645.03 366.46,661.72 387.88,670.50 C408.24,678.83 437.48,685.94 473.00,691.17 C506.55,696.12 562.49,692.98 589.62,684.62 C593.95,683.29 599.14,681.92 601.14,681.57 C610.21,680.02 650.50,662.05 646.75,661.23 C645.78,661.02 632.96,663.56 618.25,666.87 C568.02,678.18 556.48,679.47 512.65,678.68 C494.97,678.36 476.67,677.62 472.00,677.03 C439.04,672.90 412.46,665.50 389.11,653.95 C381.55,650.21 374.73,646.37 373.94,645.41 C372.59,643.78 372.89,643.71 378.66,644.31 C382.05,644.66 391.72,646.52 400.16,648.43 C444.30,658.45 462.10,660.46 506.00,660.43 C542.99,660.41 572.42,658.56 594.00,654.90 C616.76,651.04 658.12,639.54 680.00,630.97 C704.61,621.34 753.15,603.00 754.04,603.00 C757.64,603.00 752.89,609.17 736.09,626.34 C698.33,664.91 650.30,693.80 598.00,709.37 C570.35,717.60 549.47,721.55 526.00,722.98 C507.24,724.12 456.81,724.10 443.91,722.96 ZM 390.28 633.10 C378.12,629.96 363.80,617.74 358.14,605.68 C353.30,595.38 351.67,587.24 351.67,573.50 C351.67,544.74 362.82,526.58 381.89,524.33 C392.83,523.03 403.15,528.15 410.58,538.56 C419.05,550.42 423.43,565.30 425.44,589.00 L 426.66 603.50 L 428.89 598.53 C432.35,590.81 433.32,584.48 432.71,573.52 C432.00,560.85 429.16,549.98 423.54,538.43 C413.76,518.33 400.91,509.97 381.75,511.28 C367.07,512.28 354.52,520.82 348.22,534.06 C342.74,545.60 341.54,551.84 341.53,569.00 C341.53,582.93 341.81,585.53 344.34,594.69 C345.89,600.29 347.01,605.92 346.83,607.19 C346.43,610.01 349.05,610.05 310.00,606.70 C265.52,602.88 247.63,601.78 228.00,601.63 L 210.50 601.50 L 198.58 605.26 C173.77,613.08 164.66,612.31 152.99,601.40 C144.09,593.07 139.55,578.78 138.37,555.32 C137.84,544.92 138.03,541.45 139.36,536.99 C141.74,529.02 147.04,522.36 153.31,519.43 C160.77,515.96 162.62,516.25 167.78,521.63 C174.17,528.30 179.36,539.96 183.75,557.50 L 187.49 572.50 L 188.42 567.03 C190.26,556.23 186.17,532.58 180.33,520.23 C173.58,505.96 161.23,500.32 149.34,506.08 C138.60,511.28 133.44,523.86 130.49,552.08 C128.80,568.28 127.87,572.00 125.55,572.00 C122.02,572.00 117.79,560.78 115.50,545.35 C112.04,522.08 112.65,465.23 116.42,459.48 C121.15,452.26 177.80,419.40 210.17,405.10 C240.25,391.80 281.00,382.60 321.00,380.05 C354.26,377.94 402.91,379.05 430.48,382.56 C463.42,386.75 496.87,400.00 525.08,420.03 C535.56,427.47 542.54,433.38 558.07,447.95 L 571.64 460.68 L 584.95 461.38 C615.58,463.00 648.75,471.74 667.64,483.17 C688.53,495.80 702.47,518.94 707.02,548.50 C707.70,552.90 708.31,563.63 708.37,572.34 L 708.50 588.17 L 705.53 590.72 C702.67,593.19 702.24,593.26 692.82,592.68 L 683.06 592.09 L 679.30 599.25 C670.43,616.14 651.64,627.00 631.32,627.00 C617.18,627.00 607.31,621.41 600.17,609.37 C599.68,608.55 594.19,608.47 580.00,609.08 C569.28,609.54 537.55,610.63 509.50,611.50 C481.45,612.38 455.92,613.50 452.76,613.99 C448.40,614.67 445.49,615.98 440.64,619.44 C433.15,624.78 425.65,628.37 416.27,631.10 C408.66,633.32 395.15,634.35 390.28,633.10 ZM 604.29 592.02 C627.02,591.13 654.77,588.70 660.71,587.09 C662.25,586.67 648.20,586.05 629.50,585.70 C572.60,584.66 563.79,583.60 499.00,570.04 C491.02,568.37 482.43,567.01 479.91,567.00 C475.96,567.00 475.16,567.36 474.16,569.55 C472.77,572.60 472.64,580.92 473.93,584.31 C474.46,585.70 476.20,587.22 477.97,587.84 C489.06,591.71 555.74,593.91 604.29,592.02 ZM 262.80 573.93 C267.91,568.19 277.34,556.97 283.75,549.00 C290.16,541.03 298.11,531.35 301.40,527.50 L 307.40 520.50 L 294.95 520.00 C288.10,519.72 282.01,519.18 281.41,518.79 C280.66,518.30 281.51,513.32 284.13,502.79 C289.17,482.51 289.69,479.00 287.65,479.00 C285.12,479.00 279.60,484.41 264.21,502.00 C256.27,511.08 244.84,523.79 238.81,530.25 L 227.84 542.00 L 242.67 542.02 C250.83,542.02 258.10,542.41 258.84,542.88 C259.91,543.56 259.39,546.61 256.17,558.61 C253.97,566.80 251.75,575.85 251.23,578.72 C249.58,587.85 250.85,587.32 262.80,573.93 ZM 533.46 526.32 C535.41,525.39 537.00,524.10 537.00,523.45 C537.00,521.29 520.60,506.51 512.84,501.67 C495.10,490.63 465.43,481.82 437.89,479.41 C433.07,478.99 430.04,479.12 429.64,479.77 C428.62,481.42 436.65,492.53 445.91,502.29 C460.46,517.61 469.37,521.90 495.00,525.92 C521.42,530.06 525.52,530.10 533.46,526.32 ZM 635.50 527.99 C649.15,526.73 655.02,525.58 666.59,521.90 C680.51,517.47 681.68,514.83 674.02,505.15 L 670.04 500.11 L 662.77 502.61 C642.09,509.75 615.31,514.71 575.00,518.88 L 557.50 520.69 L 562.00 522.76 C573.44,528.03 608.16,530.50 635.50,527.99 ZM 262.06 459.17 C257.71,455.41 257.64,455.27 258.93,452.17 C262.69,443.09 270.93,439.61 287.33,440.17 C301.17,440.65 306.18,442.71 316.87,452.35 C320.93,456.01 324.64,459.00 325.12,459.00 C330.15,459.00 314.11,425.62 303.57,414.16 C294.68,404.49 283.66,402.13 265.14,405.95 C237.73,411.60 204.50,427.12 178.81,446.28 C171.75,451.55 170.95,452.88 173.53,455.02 C176.79,457.73 224.12,462.12 257.50,462.81 L 266.50 462.99 L 262.06 459.17 ZM 539.85 460.11 C541.97,458.77 540.07,456.20 529.88,446.61 C500.13,418.60 476.09,402.82 455.94,398.06 C439.41,394.16 407.43,393.02 370.50,395.01 C341.19,396.59 322.00,399.16 322.00,401.52 C322.00,404.76 331.78,416.86 345.46,430.53 C361.72,446.77 371.00,454.32 376.81,456.02 C381.34,457.35 422.87,458.80 486.50,459.86 C512.90,460.30 535.40,460.73 536.50,460.82 C537.60,460.90 539.11,460.58 539.85,460.11 ZM 720.00 579.00 L 720.00 565.00 L 723.25 565.00 C740.22,565.03 783.76,569.14 798.39,572.10 C809.33,574.31 813.11,575.89 815.44,579.22 C818.84,584.07 816.91,585.33 803.59,586.99 C793.94,588.19 730.66,592.97 724.25,592.99 L 720.00 593.00 L 720.00 579.00 ZM 754.39 549.64 C748.27,547.64 739.33,541.32 735.48,536.27 C725.89,523.71 724.38,508.21 728.00,459.50 C728.65,450.70 729.03,436.98 728.84,429.00 C728.51,415.51 728.29,414.10 725.68,408.77 C722.77,402.82 718.86,399.20 714.90,398.76 C712.93,398.54 712.48,399.09 711.85,402.50 C711.45,404.70 711.09,428.66 711.06,455.75 C711.03,483.39 710.61,505.00 710.12,505.00 C709.64,505.00 707.46,502.64 705.28,499.75 C703.10,496.86 698.93,491.89 696.02,488.71 L 690.73 482.92 L 689.78 468.71 C688.62,451.48 689.47,256.05 690.72,251.01 C691.21,249.01 692.30,247.37 693.24,247.19 C695.59,246.74 703.60,257.93 705.53,264.35 C707.77,271.82 708.94,290.84 708.97,320.60 C709.00,347.46 710.34,370.91 712.03,374.07 C712.63,375.18 715.10,376.29 718.55,377.01 C730.05,379.40 741.71,394.49 745.58,412.00 C747.70,421.60 747.73,446.56 745.65,468.00 C743.08,494.54 742.84,500.24 743.93,508.92 C745.22,519.17 748.03,525.33 752.87,528.52 C762.82,535.05 772.09,532.97 777.46,523.00 C780.04,518.22 780.48,516.22 780.83,507.69 C781.67,487.43 778.57,450.94 773.49,421.40 C772.16,413.65 770.37,400.37 769.51,391.90 C766.89,366.22 767.50,368.03 760.25,364.20 C751.95,359.81 744.75,352.30 740.47,343.59 C736.04,334.57 735.17,329.97 734.36,311.40 L 733.70 296.29 L 736.10 295.72 C737.42,295.40 740.75,294.85 743.50,294.49 C752.38,293.32 751.72,294.44 752.21,279.72 C752.70,264.77 754.23,259.48 758.34,258.45 C761.58,257.64 764.83,259.45 766.16,262.81 C766.74,264.29 767.46,271.70 767.75,279.28 C768.04,286.86 768.57,293.23 768.91,293.45 C769.26,293.66 772.91,293.53 777.02,293.17 L 784.50 292.50 L 785.14 279.47 C785.89,264.41 787.41,259.44 791.59,258.39 C798.02,256.78 800.22,261.59 800.96,278.80 C801.57,293.01 801.93,293.93 807.00,294.01 C808.38,294.03 811.40,294.90 813.71,295.96 C819.03,298.37 819.47,300.02 818.58,314.36 C817.74,327.99 815.87,337.43 812.59,344.58 C809.77,350.74 801.71,359.76 796.53,362.55 C794.62,363.58 792.80,365.08 792.49,365.88 C792.18,366.68 791.69,372.32 791.39,378.42 C791.09,384.51 790.14,391.86 789.29,394.74 C787.55,400.61 787.47,399.77 794.56,450.00 C798.71,479.35 800.23,511.05 798.04,522.22 C795.61,534.56 789.36,543.23 779.50,547.93 C773.38,550.86 760.74,551.71 754.39,549.64 ZM 671.50 466.36 C662.83,459.50 629.90,450.53 595.23,445.57 C576.46,442.88 577.93,443.60 557.79,427.33 C533.99,408.10 518.04,398.81 490.45,388.09 C483.28,385.30 476.53,382.37 475.45,381.59 C473.57,380.21 473.49,378.43 473.18,332.32 C472.79,273.76 473.85,248.00 476.91,241.69 C480.01,235.28 483.17,232.76 489.26,231.87 C492.14,231.44 518.12,230.80 547.00,230.44 C607.66,229.68 660.13,230.98 664.69,233.35 C668.19,235.18 671.95,239.20 675.46,244.86 L 678.17 249.22 L 678.33 354.86 C678.42,412.96 678.14,462.19 677.70,464.25 C676.83,468.39 674.90,469.05 671.50,466.36 ZM 639.41 377.10 L 644.24 372.19 L 643.74 319.35 C643.20,260.97 642.98,258.80 637.46,256.00 C634.93,254.72 626.01,254.51 575.50,254.54 C543.05,254.56 514.34,254.92 511.70,255.35 C507.83,255.99 506.67,256.66 505.72,258.82 C504.87,260.76 504.54,277.05 504.53,318.23 L 504.50 374.95 L 507.08 377.54 C508.75,379.20 511.41,380.41 514.58,380.94 C517.29,381.39 545.39,381.82 577.04,381.88 L 634.58 382.00 L 639.41 377.10 ZM 143.41 410.86 C142.20,408.90 142.84,387.83 144.52,374.12 C148.73,339.75 157.25,311.00 172.11,281.00 C202.86,218.89 263.20,162.24 329.00,133.68 C361.18,119.72 402.80,108.89 435.33,106.01 C456.99,104.09 502.28,105.34 527.46,108.55 C561.30,112.87 608.45,129.42 642.00,148.78 C659.47,158.85 675.11,169.32 681.50,175.22 C683.15,176.74 684.77,177.99 685.10,178.00 C685.43,178.00 686.78,178.92 688.10,180.04 C689.42,181.16 692.73,183.98 695.45,186.29 C704.87,194.29 716.30,205.53 723.12,213.47 C728.65,219.93 729.66,221.61 728.43,222.30 C727.31,222.93 722.76,220.01 711.20,211.22 C656.03,169.31 605.05,148.29 538.00,139.83 C521.69,137.77 467.92,138.10 452.00,140.36 C402.12,147.43 356.23,163.03 322.00,184.53 C298.23,199.47 272.54,221.80 254.75,243.00 C223.60,280.13 203.51,327.58 198.03,377.00 C197.21,384.39 196.37,387.97 195.18,389.10 C194.26,389.97 190.04,391.92 185.81,393.42 C181.59,394.93 171.41,399.45 163.20,403.47 C145.79,411.99 144.43,412.50 143.41,410.86 ZM 219.28 361.39 C220.78,338.92 233.38,303.68 248.60,279.41 C261.01,259.59 283.73,234.57 304.00,218.39 C344.71,185.87 391.72,165.90 446.00,158.06 C492.88,151.30 535.25,153.48 574.50,164.68 C591.87,169.63 606.42,176.50 603.32,178.26 C602.87,178.52 598.00,177.67 592.50,176.38 C573.44,171.91 555.90,170.60 514.50,170.57 C483.09,170.54 474.42,170.84 464.50,172.31 C425.62,178.08 397.75,186.64 364.50,203.01 C332.41,218.81 310.99,233.99 286.93,257.98 C265.14,279.70 250.28,300.40 236.98,327.56 C231.86,338.01 229.50,344.29 222.75,365.43 C222.06,367.59 220.87,369.56 220.09,369.81 C218.93,370.19 218.79,368.76 219.28,361.39 ZM 564.56 364.10 C563.88,362.99 565.48,348.52 567.15,340.75 C569.21,331.12 566.93,329.00 554.49,329.00 C550.39,329.00 546.83,328.53 546.46,327.94 C546.10,327.36 547.05,325.00 548.57,322.69 C552.86,316.15 568.89,295.29 573.98,289.62 C576.50,286.80 579.13,283.22 579.81,281.65 C581.56,277.62 589.03,269.00 590.77,269.00 C592.43,269.00 592.04,276.19 589.42,294.50 C588.63,300.00 587.88,305.40 587.75,306.50 C587.52,308.37 588.17,308.52 597.75,308.78 C603.39,308.94 608.00,309.33 608.00,309.66 C608.00,310.56 592.27,332.73 579.72,349.50 C569.21,363.55 566.08,366.56 564.56,364.10 Z" fill="rgb(71,177,97)"/>
</g>
</svg>