<svg width="197" height="208" viewBox="0 0 197 208" fill="none" xmlns="http://www.w3.org/2000/svg">
<path d="M98.3271 207.994C132.197 207.994 159.654 206.288 159.654 204.184C159.654 202.08 132.197 200.374 98.3271 200.374C64.4571 200.374 37 202.08 37 204.184C37 206.288 64.4571 207.994 98.3271 207.994Z" fill="#F2F2F2"/>
<path d="M132.726 97.1215C118.722 97.2051 104.502 96.5534 91.2003 92.8604C77.8989 89.1674 66.1348 82.1992 55.4402 74.0612C48.4385 68.764 42.0719 64.553 32.9814 65.188C24.0932 65.6552 15.5916 68.9714 8.73467 74.6461C-2.82891 84.7726 -1.07432 103.488 3.53774 116.656C10.4893 136.491 31.6446 150.261 49.6082 159.234C70.3792 169.611 93.1889 175.644 116.065 179.103C136.118 182.144 161.868 184.366 179.231 171.265C195.189 159.251 199.567 131.779 195.657 113.23C194.705 107.752 191.788 102.809 187.452 99.3273C176.239 91.1392 159.529 96.6035 146.929 96.8876C142.334 96.9879 137.505 97.1048 132.726 97.1215Z" fill="#F2F2F2"/>
<path d="M101.103 18.3667L94.0073 20.1964L22.4116 38.6595L15.3162 40.4893C13.2455 41.0258 11.4722 42.3617 10.3853 44.204C9.29835 46.0463 8.9866 48.2446 9.51841 50.3165L35.4949 151.048C36.0314 153.118 37.3674 154.892 39.2097 155.978C41.052 157.065 43.2502 157.377 45.3221 156.845L45.3376 156.841L131.093 134.727L131.109 134.723C133.179 134.186 134.953 132.85 136.04 131.008C137.126 129.166 137.438 126.967 136.906 124.896L110.93 24.1645C110.393 22.0938 109.057 20.3205 107.215 19.2336C105.373 18.1466 103.175 17.8349 101.103 18.3667Z" fill="white" stroke="#BABABA"/>
<path d="M95.7451 50.9859L52.3635 62.1732C51.879 62.2981 51.3647 62.2255 50.9337 61.9712C50.5027 61.7169 50.1904 61.3019 50.0655 60.8174C49.9405 60.3328 50.0132 59.8185 50.2674 59.3875C50.5217 58.9566 50.9367 58.6443 51.4213 58.5193L94.8029 47.3321C95.2872 47.2076 95.8012 47.2806 96.2318 47.5349C96.6624 47.7892 96.9744 48.204 97.0993 48.6883C97.2242 49.1725 97.1517 49.6865 96.8978 50.1174C96.6439 50.5482 96.2293 50.8606 95.7451 50.9859Z" fill="#F2F2F2"/>
<path d="M104.871 55.2085L53.9535 68.3391C53.469 68.4641 52.9547 68.3914 52.5237 68.1372C52.0928 67.8829 51.7805 67.4679 51.6555 66.9833C51.5306 66.4988 51.6032 65.9845 51.8575 65.5535C52.1117 65.1226 52.5268 64.8102 53.0113 64.6853L103.929 51.5546C104.413 51.4297 104.928 51.5023 105.359 51.7566C105.79 52.0109 106.102 52.4259 106.227 52.9104C106.352 53.395 106.279 53.9093 106.025 54.3403C105.771 54.7712 105.356 55.0835 104.871 55.2085Z" fill="#F2F2F2"/>
<path d="M102.871 78.6181L59.4893 89.8054C59.2494 89.8673 58.9996 89.8813 58.7543 89.8466C58.509 89.812 58.2729 89.7293 58.0595 89.6034C57.8461 89.4775 57.6596 89.3109 57.5106 89.1129C57.3616 88.9149 57.2531 88.6895 57.1912 88.4496C57.1294 88.2097 57.1154 87.9599 57.15 87.7146C57.1847 87.4693 57.2673 87.2332 57.3932 87.0198C57.5191 86.8064 57.6858 86.6199 57.8838 86.4709C58.0817 86.3219 58.3071 86.2134 58.547 86.1516L101.929 74.9643C102.169 74.9024 102.418 74.8884 102.664 74.9231C102.909 74.9577 103.145 75.0404 103.358 75.1663C103.572 75.2922 103.758 75.4589 103.907 75.6568C104.056 75.8548 104.165 76.0802 104.227 76.3201C104.289 76.56 104.303 76.8098 104.268 77.0551C104.233 77.3004 104.151 77.5365 104.025 77.7499C103.899 77.9633 103.732 78.1498 103.534 78.2988C103.336 78.4478 103.111 78.5563 102.871 78.6181Z" fill="#F2F2F2"/>
<path d="M111.997 82.8406L61.0793 95.9712C60.8394 96.0331 60.5896 96.0471 60.3443 96.0124C60.099 95.9778 59.8629 95.8951 59.6495 95.7693C59.4361 95.6434 59.2496 95.4767 59.1006 95.2787C58.9517 95.0807 58.8431 94.8553 58.7813 94.6154C58.7194 94.3755 58.7054 94.1257 58.74 93.8804C58.7747 93.6351 58.8573 93.399 58.9832 93.1856C59.1091 92.9722 59.2758 92.7857 59.4738 92.6367C59.6718 92.4878 59.8971 92.3792 60.1371 92.3174L111.055 79.1867C111.539 79.0618 112.054 79.1344 112.485 79.3887C112.916 79.6429 113.228 80.058 113.353 80.5425C113.478 81.027 113.405 81.5414 113.151 81.9723C112.897 82.4033 112.481 82.7156 111.997 82.8406Z" fill="#F2F2F2"/>
<path d="M109.997 106.25L66.615 117.437C66.1306 117.562 65.6166 117.489 65.1859 117.235C64.7552 116.981 64.4432 116.566 64.3183 116.081C64.1934 115.597 64.2659 115.083 64.5199 114.652C64.7739 114.221 65.1886 113.909 65.6728 113.784L109.054 102.596C109.539 102.471 110.053 102.544 110.484 102.798C110.915 103.053 111.228 103.468 111.352 103.952C111.477 104.437 111.405 104.951 111.15 105.382C110.896 105.813 110.481 106.125 109.997 106.25Z" fill="#F2F2F2"/>
<path d="M119.123 110.473L68.2051 123.603C67.9651 123.665 67.7152 123.68 67.4697 123.645C67.2242 123.611 66.9879 123.528 66.7744 123.402C66.5608 123.276 66.3741 123.11 66.225 122.912C66.0759 122.713 65.9673 122.488 65.9054 122.248C65.8435 122.008 65.8295 121.758 65.8642 121.513C65.899 121.267 65.9817 121.031 66.1078 120.817C66.2339 120.604 66.4008 120.417 66.5989 120.268C66.7971 120.12 67.0227 120.011 67.2628 119.949L118.18 106.819C118.665 106.694 119.179 106.767 119.61 107.021C120.041 107.275 120.354 107.69 120.479 108.175C120.603 108.659 120.531 109.173 120.277 109.604C120.022 110.035 119.607 110.348 119.123 110.473Z" fill="#F2F2F2"/>
<path d="M44.9576 73.6442L29.6053 77.6033C29.373 77.6629 29.1265 77.6279 28.9199 77.5061C28.7133 77.3842 28.5635 77.1853 28.5034 76.9532L24.9793 63.2874C24.9196 63.0551 24.9546 62.8086 25.0764 62.602C25.1983 62.3955 25.3972 62.2457 25.6294 62.1855L40.9817 58.2264C41.214 58.1668 41.4605 58.2018 41.6671 58.3236C41.8737 58.4455 42.0235 58.6444 42.0836 58.8765L45.6077 72.5423C45.6674 72.7746 45.6324 73.0211 45.5105 73.2277C45.3887 73.4342 45.1898 73.584 44.9576 73.6442Z" fill="#E6E6E6"/>
<path d="M52.0834 101.276L36.731 105.235C36.4987 105.295 36.2522 105.26 36.0457 105.138C35.8391 105.016 35.6893 104.817 35.6291 104.585L32.105 90.9195C32.0454 90.6872 32.0803 90.4407 32.2022 90.2341C32.3241 90.0275 32.5229 89.8777 32.7551 89.8176L48.1075 85.8585C48.3398 85.7989 48.5863 85.8338 48.7928 85.9557C48.9994 86.0776 49.1492 86.2764 49.2094 86.5086L52.7335 100.174C52.7931 100.407 52.7582 100.653 52.6363 100.86C52.5144 101.066 52.3156 101.216 52.0834 101.276Z" fill="#E6E6E6"/>
<path d="M59.2092 128.908L43.8568 132.867C43.6245 132.927 43.378 132.892 43.1714 132.77C42.9648 132.648 42.815 132.45 42.7549 132.217L39.2308 118.552C39.1711 118.319 39.2061 118.073 39.328 117.866C39.4498 117.66 39.6487 117.51 39.8809 117.45L55.2332 113.491C55.4655 113.431 55.712 113.466 55.9186 113.588C56.1252 113.71 56.275 113.909 56.3351 114.141L59.8593 127.806C59.9189 128.039 59.8839 128.285 59.7621 128.492C59.6402 128.698 59.4413 128.848 59.2092 128.908Z" fill="#E6E6E6"/>
<path d="M160.12 44.0039H71.527C69.3879 44.0063 67.3372 44.8571 65.8246 46.3696C64.3121 47.8822 63.4613 49.9329 63.4589 52.072V156.099C63.4613 158.238 64.3121 160.288 65.8246 161.801C67.3372 163.313 69.3879 164.164 71.527 164.167H160.12C162.259 164.164 164.31 163.313 165.822 161.801C167.335 160.288 168.186 158.238 168.188 156.099V52.072C168.186 49.933 167.335 47.8822 165.822 46.3697C164.31 44.8571 162.259 44.0063 160.12 44.0039Z" fill="white" stroke="#BABABA"/>
<path d="M146.787 101.166H101.986C101.738 101.167 101.492 101.118 101.263 101.023C101.034 100.929 100.826 100.79 100.65 100.615C100.475 100.439 100.336 100.231 100.241 100.002C100.146 99.7732 100.097 99.5277 100.097 99.2798C100.097 99.0318 100.146 98.7863 100.241 98.5573C100.336 98.3282 100.475 98.1201 100.65 97.9449C100.826 97.7697 101.034 97.6308 101.263 97.5361C101.492 97.4414 101.738 97.3928 101.986 97.3931H146.787C147.287 97.3936 147.766 97.5926 148.12 97.9464C148.473 98.3002 148.671 98.7797 148.671 99.2798C148.671 99.7798 148.473 100.259 148.12 100.613C147.766 100.967 147.287 101.166 146.787 101.166Z" fill="#E6E6E6"/>
<path d="M154.569 107.534H101.986C101.738 107.534 101.492 107.486 101.263 107.391C101.034 107.296 100.826 107.157 100.65 106.982C100.475 106.807 100.336 106.599 100.241 106.37C100.146 106.141 100.097 105.895 100.097 105.647C100.097 105.399 100.146 105.154 100.241 104.925C100.336 104.696 100.475 104.488 100.65 104.312C100.826 104.137 101.034 103.998 101.263 103.904C101.492 103.809 101.738 103.76 101.986 103.76H154.569C155.07 103.76 155.55 103.959 155.903 104.313C156.257 104.667 156.456 105.147 156.456 105.647C156.456 106.148 156.257 106.627 155.903 106.981C155.55 107.335 155.07 107.534 154.569 107.534Z" fill="#E6E6E6"/>
<path d="M146.787 129.703H101.986C101.738 129.703 101.492 129.654 101.263 129.56C101.034 129.465 100.826 129.326 100.65 129.151C100.475 128.976 100.336 128.767 100.241 128.538C100.146 128.309 100.097 128.064 100.097 127.816C100.097 127.568 100.146 127.322 100.241 127.093C100.336 126.864 100.475 126.656 100.65 126.481C100.826 126.306 101.034 126.167 101.263 126.072C101.492 125.978 101.738 125.929 101.986 125.929H146.787C147.287 125.929 147.767 126.128 148.121 126.482C148.475 126.836 148.673 127.316 148.673 127.816C148.673 128.316 148.475 128.796 148.121 129.15C147.767 129.504 147.287 129.703 146.787 129.703Z" fill="#E6E6E6"/>
<path d="M154.569 136.07H101.986C101.738 136.07 101.492 136.022 101.263 135.927C101.034 135.832 100.826 135.693 100.65 135.518C100.475 135.343 100.336 135.135 100.241 134.906C100.146 134.677 100.097 134.431 100.097 134.183C100.097 133.935 100.146 133.69 100.241 133.461C100.336 133.232 100.475 133.024 100.65 132.848C100.826 132.673 101.034 132.534 101.263 132.44C101.492 132.345 101.738 132.296 101.986 132.297H154.569C154.817 132.296 155.063 132.345 155.292 132.44C155.521 132.534 155.729 132.673 155.905 132.848C156.08 133.024 156.219 133.232 156.314 133.461C156.409 133.69 156.458 133.935 156.458 134.183C156.458 134.431 156.409 134.677 156.314 134.906C156.219 135.135 156.08 135.343 155.905 135.518C155.729 135.693 155.521 135.832 155.292 135.927C155.063 136.022 154.817 136.07 154.569 136.07Z" fill="#E6E6E6"/>
<path d="M91.9502 110.425H76.0956C75.8558 110.424 75.6258 110.329 75.4562 110.159C75.2866 109.99 75.1912 109.76 75.1909 109.52V95.4071C75.1912 95.1673 75.2866 94.9373 75.4562 94.7677C75.6258 94.5981 75.8558 94.5027 76.0956 94.5024H91.9502C92.1901 94.5027 92.42 94.5981 92.5896 94.7677C92.7592 94.9373 92.8546 95.1673 92.8549 95.4071V109.52C92.8546 109.76 92.7592 109.99 92.5896 110.159C92.42 110.329 92.1901 110.424 91.9502 110.425Z" fill="#E6E6E6"/>
<path d="M91.9502 138.961H76.0956C75.8558 138.96 75.6258 138.865 75.4562 138.695C75.2866 138.526 75.1912 138.296 75.1909 138.056V123.943C75.1912 123.703 75.2866 123.473 75.4562 123.304C75.6258 123.134 75.8558 123.039 76.0956 123.039H91.9502C92.1901 123.039 92.42 123.134 92.5896 123.304C92.7592 123.473 92.8546 123.703 92.8549 123.943V138.056C92.8546 138.296 92.7592 138.526 92.5896 138.695C92.42 138.865 92.1901 138.96 91.9502 138.961Z" fill="#E6E6E6"/>
<path d="M146.837 69.4001H113.807C113.306 69.4001 112.826 69.2013 112.473 68.8475C112.119 68.4937 111.92 68.0138 111.92 67.5134C111.92 67.013 112.119 66.5331 112.473 66.1793C112.826 65.8255 113.306 65.6267 113.807 65.6267H146.837C147.337 65.6267 147.817 65.8255 148.171 66.1793C148.524 66.5331 148.723 67.013 148.723 67.5134C148.723 68.0138 148.524 68.4937 148.171 68.8475C147.817 69.2013 147.337 69.4001 146.837 69.4001Z" fill="#CCCCCC"/>
<path d="M154.619 75.7675H113.807C113.559 75.7675 113.314 75.7187 113.085 75.6239C112.856 75.5291 112.648 75.3901 112.473 75.2149C112.297 75.0397 112.158 74.8317 112.064 74.6028C111.969 74.3739 111.92 74.1286 111.92 73.8808C111.92 73.6331 111.969 73.3877 112.064 73.1588C112.158 72.9299 112.297 72.7219 112.473 72.5467C112.648 72.3715 112.856 72.2326 113.085 72.1378C113.314 72.0429 113.559 71.9941 113.807 71.9941H154.619C155.119 71.9941 155.599 72.1929 155.953 72.5467C156.307 72.9006 156.506 73.3804 156.506 73.8808C156.506 74.3812 156.307 74.8611 155.953 75.2149C155.599 75.5687 155.119 75.7675 154.619 75.7675Z" fill="#CCCCCC"/>
<path d="M106.497 83.4843H76.0459C75.8061 83.484 75.5761 83.3886 75.4065 83.219C75.2369 83.0494 75.1415 82.8195 75.1412 82.5796V58.8146C75.1415 58.5747 75.2369 58.3448 75.4065 58.1752C75.5761 58.0056 75.8061 57.9102 76.0459 57.9099H106.497C106.736 57.9102 106.966 58.0056 107.136 58.1752C107.306 58.3448 107.401 58.5747 107.401 58.8146V82.5796C107.401 82.8195 107.306 83.0494 107.136 83.219C106.966 83.3886 106.736 83.484 106.497 83.4843Z" fill="#CCCCCC"/>
<path d="M125.435 29.9287V36.3016" stroke="#BABABA" stroke-linecap="round" stroke-linejoin="round"/>
<path d="M122.246 33.1152H128.623" stroke="#BABABA" stroke-linecap="round" stroke-linejoin="round"/>
<path d="M99 146.002V153.184" stroke="#BABABA" stroke-linecap="round" stroke-linejoin="round"/>
<path d="M95 149.594H102.185" stroke="#BABABA" stroke-linecap="round" stroke-linejoin="round"/>
<path d="M98.6376 3.95957C99.5421 3.95957 100.275 3.22676 100.275 2.3228C100.275 1.41884 99.5421 0.686035 98.6376 0.686035C97.7332 0.686035 97 1.41884 97 2.3228C97 3.22676 97.7332 3.95957 98.6376 3.95957Z" fill="#CFCFCF"/>
<path d="M98.6376 176.739C99.5421 176.739 100.275 176.006 100.275 175.102C100.275 174.198 99.5421 173.465 98.6376 173.465C97.7332 173.465 97 174.198 97 175.102C97 176.006 97.7332 176.739 98.6376 176.739Z" fill="#CFCFCF"/>
</svg>
