<svg width="206" height="27" viewBox="0 0 206 27" fill="none" xmlns="http://www.w3.org/2000/svg">
<path d="M4.19356 6.44V9.848H9.68956V13.016H4.19356V16.712H10.4096V20H0.0895626V3.152H10.4096V6.44H4.19356ZM28.8899 3.152L22.9139 20H17.7779L11.8019 3.152H16.1699L20.3459 15.872L24.5459 3.152H28.8899ZM34.9951 11.552C34.9951 9.888 35.3551 8.408 36.0751 7.112C36.7951 5.8 37.7951 4.784 39.0751 4.064C40.3711 3.328 41.8351 2.96 43.4671 2.96C45.4671 2.96 47.1791 3.488 48.6031 4.544C50.0271 5.6 50.9791 7.04 51.4591 8.864H46.9471C46.6111 8.16 46.1311 7.624 45.5071 7.256C44.8991 6.888 44.2031 6.704 43.4191 6.704C42.1551 6.704 41.1311 7.144 40.3471 8.024C39.5631 8.904 39.1711 10.08 39.1711 11.552C39.1711 13.024 39.5631 14.2 40.3471 15.08C41.1311 15.96 42.1551 16.4 43.4191 16.4C44.2031 16.4 44.8991 16.216 45.5071 15.848C46.1311 15.48 46.6111 14.944 46.9471 14.24H51.4591C50.9791 16.064 50.0271 17.504 48.6031 18.56C47.1791 19.6 45.4671 20.12 43.4671 20.12C41.8351 20.12 40.3711 19.76 39.0751 19.04C37.7951 18.304 36.7951 17.288 36.0751 15.992C35.3551 14.696 34.9951 13.216 34.9951 11.552ZM62.2044 6.464C63.7404 6.464 64.9724 6.976 65.9004 8C66.8284 9.008 67.2924 10.4 67.2924 12.176V20H63.2124V12.728C63.2124 11.832 62.9804 11.136 62.5164 10.64C62.0524 10.144 61.4284 9.896 60.6444 9.896C59.8604 9.896 59.2364 10.144 58.7724 10.64C58.3084 11.136 58.0764 11.832 58.0764 12.728V20H53.9724V2.24H58.0764V8.408C58.4924 7.816 59.0604 7.344 59.7804 6.992C60.5004 6.64 61.3084 6.464 62.2044 6.464ZM69.3283 13.28C69.3283 11.904 69.5843 10.696 70.0963 9.656C70.6243 8.616 71.3363 7.816 72.2323 7.256C73.1283 6.696 74.1283 6.416 75.2323 6.416C76.1763 6.416 77.0003 6.608 77.7043 6.992C78.4243 7.376 78.9763 7.88 79.3603 8.504V6.608H83.4643V20H79.3603V18.104C78.9603 18.728 78.4003 19.232 77.6803 19.616C76.9763 20 76.1523 20.192 75.2083 20.192C74.1203 20.192 73.1283 19.912 72.2323 19.352C71.3363 18.776 70.6243 17.968 70.0963 16.928C69.5843 15.872 69.3283 14.656 69.3283 13.28ZM79.3603 13.304C79.3603 12.28 79.0723 11.472 78.4963 10.88C77.9363 10.288 77.2483 9.992 76.4323 9.992C75.6163 9.992 74.9203 10.288 74.3443 10.88C73.7843 11.456 73.5043 12.256 73.5043 13.28C73.5043 14.304 73.7843 15.12 74.3443 15.728C74.9203 16.32 75.6163 16.616 76.4323 16.616C77.2483 16.616 77.9363 16.32 78.4963 15.728C79.0723 15.136 79.3603 14.328 79.3603 13.304ZM90.5373 8.84C91.0173 8.104 91.6173 7.528 92.3373 7.112C93.0573 6.68 93.8573 6.464 94.7373 6.464V10.808H93.6093C92.5853 10.808 91.8173 11.032 91.3053 11.48C90.7933 11.912 90.5373 12.68 90.5373 13.784V20H86.4333V6.608H90.5373V8.84ZM101.787 6.416C102.731 6.416 103.555 6.608 104.259 6.992C104.979 7.376 105.531 7.88 105.915 8.504V6.608H110.019V19.976C110.019 21.208 109.771 22.32 109.275 23.312C108.795 24.32 108.051 25.12 107.043 25.712C106.051 26.304 104.811 26.6 103.323 26.6C101.339 26.6 99.7309 26.128 98.4989 25.184C97.2669 24.256 96.5629 22.992 96.3869 21.392H100.443C100.571 21.904 100.875 22.304 101.355 22.592C101.835 22.896 102.427 23.048 103.131 23.048C103.979 23.048 104.651 22.8 105.147 22.304C105.659 21.824 105.915 21.048 105.915 19.976V18.08C105.515 18.704 104.963 19.216 104.259 19.616C103.555 20 102.731 20.192 101.787 20.192C100.683 20.192 99.6829 19.912 98.7869 19.352C97.8909 18.776 97.1789 17.968 96.6509 16.928C96.1389 15.872 95.8829 14.656 95.8829 13.28C95.8829 11.904 96.1389 10.696 96.6509 9.656C97.1789 8.616 97.8909 7.816 98.7869 7.256C99.6829 6.696 100.683 6.416 101.787 6.416ZM105.915 13.304C105.915 12.28 105.627 11.472 105.051 10.88C104.491 10.288 103.803 9.992 102.987 9.992C102.171 9.992 101.475 10.288 100.899 10.88C100.339 11.456 100.059 12.256 100.059 13.28C100.059 14.304 100.339 15.12 100.899 15.728C101.475 16.32 102.171 16.616 102.987 16.616C103.803 16.616 104.491 16.32 105.051 15.728C105.627 15.136 105.915 14.328 105.915 13.304ZM115.052 5.216C114.332 5.216 113.74 5.008 113.276 4.592C112.828 4.16 112.604 3.632 112.604 3.008C112.604 2.368 112.828 1.84 113.276 1.424C113.74 0.991999 114.332 0.775999 115.052 0.775999C115.756 0.775999 116.332 0.991999 116.78 1.424C117.244 1.84 117.476 2.368 117.476 3.008C117.476 3.632 117.244 4.16 116.78 4.592C116.332 5.008 115.756 5.216 115.052 5.216ZM117.092 6.608V20H112.988V6.608H117.092ZM128.226 6.464C129.794 6.464 131.042 6.976 131.97 8C132.914 9.008 133.386 10.4 133.386 12.176V20H129.306V12.728C129.306 11.832 129.074 11.136 128.61 10.64C128.146 10.144 127.522 9.896 126.738 9.896C125.954 9.896 125.33 10.144 124.866 10.64C124.402 11.136 124.17 11.832 124.17 12.728V20H120.066V6.608H124.17V8.384C124.586 7.792 125.146 7.328 125.85 6.992C126.554 6.64 127.346 6.464 128.226 6.464ZM141.326 6.416C142.27 6.416 143.094 6.608 143.798 6.992C144.518 7.376 145.07 7.88 145.454 8.504V6.608H149.558V19.976C149.558 21.208 149.31 22.32 148.814 23.312C148.334 24.32 147.59 25.12 146.582 25.712C145.59 26.304 144.35 26.6 142.862 26.6C140.878 26.6 139.27 26.128 138.038 25.184C136.806 24.256 136.102 22.992 135.926 21.392H139.982C140.11 21.904 140.414 22.304 140.894 22.592C141.374 22.896 141.966 23.048 142.67 23.048C143.518 23.048 144.19 22.8 144.686 22.304C145.198 21.824 145.454 21.048 145.454 19.976V18.08C145.054 18.704 144.502 19.216 143.798 19.616C143.094 20 142.27 20.192 141.326 20.192C140.222 20.192 139.222 19.912 138.326 19.352C137.43 18.776 136.718 17.968 136.19 16.928C135.678 15.872 135.422 14.656 135.422 13.28C135.422 11.904 135.678 10.696 136.19 9.656C136.718 8.616 137.43 7.816 138.326 7.256C139.222 6.696 140.222 6.416 141.326 6.416ZM145.454 13.304C145.454 12.28 145.166 11.472 144.59 10.88C144.03 10.288 143.342 9.992 142.526 9.992C141.71 9.992 141.014 10.288 140.438 10.88C139.878 11.456 139.598 12.256 139.598 13.28C139.598 14.304 139.878 15.12 140.438 15.728C141.014 16.32 141.71 16.616 142.526 16.616C143.342 16.616 144.03 16.32 144.59 15.728C145.166 15.136 145.454 14.328 145.454 13.304ZM168.101 17.024H161.813L160.805 20H156.509L162.605 3.152H167.357L173.453 20H169.109L168.101 17.024ZM167.045 13.856L164.957 7.688L162.893 13.856H167.045ZM179.412 8.504C179.812 7.88 180.364 7.376 181.068 6.992C181.772 6.608 182.596 6.416 183.54 6.416C184.644 6.416 185.644 6.696 186.54 7.256C187.436 7.816 188.14 8.616 188.652 9.656C189.18 10.696 189.444 11.904 189.444 13.28C189.444 14.656 189.18 15.872 188.652 16.928C188.14 17.968 187.436 18.776 186.54 19.352C185.644 19.912 184.644 20.192 183.54 20.192C182.612 20.192 181.788 20 181.068 19.616C180.364 19.232 179.812 18.736 179.412 18.128V26.384H175.308V6.608H179.412V8.504ZM185.268 13.28C185.268 12.256 184.98 11.456 184.404 10.88C183.844 10.288 183.148 9.992 182.316 9.992C181.5 9.992 180.804 10.288 180.228 10.88C179.668 11.472 179.388 12.28 179.388 13.304C179.388 14.328 179.668 15.136 180.228 15.728C180.804 16.32 181.5 16.616 182.316 16.616C183.132 16.616 183.828 16.32 184.404 15.728C184.98 15.12 185.268 14.304 185.268 13.28ZM195.701 8.504C196.101 7.88 196.653 7.376 197.357 6.992C198.061 6.608 198.885 6.416 199.829 6.416C200.933 6.416 201.933 6.696 202.829 7.256C203.725 7.816 204.429 8.616 204.941 9.656C205.469 10.696 205.733 11.904 205.733 13.28C205.733 14.656 205.469 15.872 204.941 16.928C204.429 17.968 203.725 18.776 202.829 19.352C201.933 19.912 200.933 20.192 199.829 20.192C198.901 20.192 198.077 20 197.357 19.616C196.653 19.232 196.101 18.736 195.701 18.128V26.384H191.597V6.608H195.701V8.504ZM201.557 13.28C201.557 12.256 201.269 11.456 200.693 10.88C200.133 10.288 199.437 9.992 198.605 9.992C197.789 9.992 197.093 10.288 196.517 10.88C195.957 11.472 195.677 12.28 195.677 13.304C195.677 14.328 195.957 15.136 196.517 15.728C197.093 16.32 197.789 16.616 198.605 16.616C199.421 16.616 200.117 16.32 200.693 15.728C201.269 15.12 201.557 14.304 201.557 13.28Z" fill="black"/>
</svg>
