<svg width="209" height="198" viewBox="0 0 209 198" fill="none" xmlns="http://www.w3.org/2000/svg">
<g clip-path="url(#clip0_98_4330)">
<path d="M153.386 45.0053C125.844 19.5213 83.2135 19.481 55.6307 44.9995" stroke="black" stroke-width="6" stroke-miterlimit="10" stroke-linecap="round" stroke-linejoin="round"/>
<path d="M41.25 26.0935C58.2987 11.615 80.3788 2.875 104.506 2.875C128.512 2.875 150.494 11.5287 167.509 25.8865" stroke="black" stroke-width="6" stroke-miterlimit="10" stroke-linecap="round" stroke-linejoin="round"/>
<path d="M72.875 61.4732C81.1205 53.6647 92.2525 48.875 104.506 48.875C116.759 48.875 127.897 53.6705 136.142 61.4847" stroke="black" stroke-width="6" stroke-miterlimit="10" stroke-linecap="round" stroke-linejoin="round"/>
<path d="M130.133 89.125L92.7585 135.125L98.5085 106.375H72.6335L110.008 60.375L104.258 89.125H130.133Z" fill="#4461F2" stroke="black" stroke-width="6" stroke-miterlimit="10" stroke-linejoin="round"/>
</g>
<path d="M6.19356 174.44V177.848H11.6896V181.016H6.19356V184.712H12.4096V188H2.08956V171.152H12.4096V174.44H6.19356ZM30.8899 171.152L24.9139 188H19.7779L13.8019 171.152H18.1699L22.3459 183.872L26.5459 171.152H30.8899ZM36.9951 179.552C36.9951 177.888 37.3551 176.408 38.0751 175.112C38.7951 173.8 39.7951 172.784 41.0751 172.064C42.3711 171.328 43.8351 170.96 45.4671 170.96C47.4671 170.96 49.1791 171.488 50.6031 172.544C52.0271 173.6 52.9791 175.04 53.4591 176.864H48.9471C48.6111 176.16 48.1311 175.624 47.5071 175.256C46.8991 174.888 46.2031 174.704 45.4191 174.704C44.1551 174.704 43.1311 175.144 42.3471 176.024C41.5631 176.904 41.1711 178.08 41.1711 179.552C41.1711 181.024 41.5631 182.2 42.3471 183.08C43.1311 183.96 44.1551 184.4 45.4191 184.4C46.2031 184.4 46.8991 184.216 47.5071 183.848C48.1311 183.48 48.6111 182.944 48.9471 182.24H53.4591C52.9791 184.064 52.0271 185.504 50.6031 186.56C49.1791 187.6 47.4671 188.12 45.4671 188.12C43.8351 188.12 42.3711 187.76 41.0751 187.04C39.7951 186.304 38.7951 185.288 38.0751 183.992C37.3551 182.696 36.9951 181.216 36.9951 179.552ZM64.2044 174.464C65.7404 174.464 66.9724 174.976 67.9004 176C68.8284 177.008 69.2924 178.4 69.2924 180.176V188H65.2124V180.728C65.2124 179.832 64.9804 179.136 64.5164 178.64C64.0524 178.144 63.4284 177.896 62.6444 177.896C61.8604 177.896 61.2364 178.144 60.7724 178.64C60.3084 179.136 60.0764 179.832 60.0764 180.728V188H55.9724V170.24H60.0764V176.408C60.4924 175.816 61.0604 175.344 61.7804 174.992C62.5004 174.64 63.3084 174.464 64.2044 174.464ZM71.3283 181.28C71.3283 179.904 71.5843 178.696 72.0963 177.656C72.6243 176.616 73.3363 175.816 74.2323 175.256C75.1283 174.696 76.1283 174.416 77.2323 174.416C78.1763 174.416 79.0003 174.608 79.7043 174.992C80.4243 175.376 80.9763 175.88 81.3603 176.504V174.608H85.4643V188H81.3603V186.104C80.9603 186.728 80.4003 187.232 79.6803 187.616C78.9763 188 78.1523 188.192 77.2083 188.192C76.1203 188.192 75.1283 187.912 74.2323 187.352C73.3363 186.776 72.6243 185.968 72.0963 184.928C71.5843 183.872 71.3283 182.656 71.3283 181.28ZM81.3603 181.304C81.3603 180.28 81.0723 179.472 80.4963 178.88C79.9363 178.288 79.2483 177.992 78.4323 177.992C77.6163 177.992 76.9203 178.288 76.3443 178.88C75.7843 179.456 75.5043 180.256 75.5043 181.28C75.5043 182.304 75.7843 183.12 76.3443 183.728C76.9203 184.32 77.6163 184.616 78.4323 184.616C79.2483 184.616 79.9363 184.32 80.4963 183.728C81.0723 183.136 81.3603 182.328 81.3603 181.304ZM92.5373 176.84C93.0173 176.104 93.6173 175.528 94.3373 175.112C95.0573 174.68 95.8573 174.464 96.7373 174.464V178.808H95.6093C94.5853 178.808 93.8173 179.032 93.3053 179.48C92.7933 179.912 92.5373 180.68 92.5373 181.784V188H88.4333V174.608H92.5373V176.84ZM103.787 174.416C104.731 174.416 105.555 174.608 106.259 174.992C106.979 175.376 107.531 175.88 107.915 176.504V174.608H112.019V187.976C112.019 189.208 111.771 190.32 111.275 191.312C110.795 192.32 110.051 193.12 109.043 193.712C108.051 194.304 106.811 194.6 105.323 194.6C103.339 194.6 101.731 194.128 100.499 193.184C99.2669 192.256 98.5629 190.992 98.3869 189.392H102.443C102.571 189.904 102.875 190.304 103.355 190.592C103.835 190.896 104.427 191.048 105.131 191.048C105.979 191.048 106.651 190.8 107.147 190.304C107.659 189.824 107.915 189.048 107.915 187.976V186.08C107.515 186.704 106.963 187.216 106.259 187.616C105.555 188 104.731 188.192 103.787 188.192C102.683 188.192 101.683 187.912 100.787 187.352C99.8909 186.776 99.1789 185.968 98.6509 184.928C98.1389 183.872 97.8829 182.656 97.8829 181.28C97.8829 179.904 98.1389 178.696 98.6509 177.656C99.1789 176.616 99.8909 175.816 100.787 175.256C101.683 174.696 102.683 174.416 103.787 174.416ZM107.915 181.304C107.915 180.28 107.627 179.472 107.051 178.88C106.491 178.288 105.803 177.992 104.987 177.992C104.171 177.992 103.475 178.288 102.899 178.88C102.339 179.456 102.059 180.256 102.059 181.28C102.059 182.304 102.339 183.12 102.899 183.728C103.475 184.32 104.171 184.616 104.987 184.616C105.803 184.616 106.491 184.32 107.051 183.728C107.627 183.136 107.915 182.328 107.915 181.304ZM117.052 173.216C116.332 173.216 115.74 173.008 115.276 172.592C114.828 172.16 114.604 171.632 114.604 171.008C114.604 170.368 114.828 169.84 115.276 169.424C115.74 168.992 116.332 168.776 117.052 168.776C117.756 168.776 118.332 168.992 118.78 169.424C119.244 169.84 119.476 170.368 119.476 171.008C119.476 171.632 119.244 172.16 118.78 172.592C118.332 173.008 117.756 173.216 117.052 173.216ZM119.092 174.608V188H114.988V174.608H119.092ZM130.226 174.464C131.794 174.464 133.042 174.976 133.97 176C134.914 177.008 135.386 178.4 135.386 180.176V188H131.306V180.728C131.306 179.832 131.074 179.136 130.61 178.64C130.146 178.144 129.522 177.896 128.738 177.896C127.954 177.896 127.33 178.144 126.866 178.64C126.402 179.136 126.17 179.832 126.17 180.728V188H122.066V174.608H126.17V176.384C126.586 175.792 127.146 175.328 127.85 174.992C128.554 174.64 129.346 174.464 130.226 174.464ZM143.326 174.416C144.27 174.416 145.094 174.608 145.798 174.992C146.518 175.376 147.07 175.88 147.454 176.504V174.608H151.558V187.976C151.558 189.208 151.31 190.32 150.814 191.312C150.334 192.32 149.59 193.12 148.582 193.712C147.59 194.304 146.35 194.6 144.862 194.6C142.878 194.6 141.27 194.128 140.038 193.184C138.806 192.256 138.102 190.992 137.926 189.392H141.982C142.11 189.904 142.414 190.304 142.894 190.592C143.374 190.896 143.966 191.048 144.67 191.048C145.518 191.048 146.19 190.8 146.686 190.304C147.198 189.824 147.454 189.048 147.454 187.976V186.08C147.054 186.704 146.502 187.216 145.798 187.616C145.094 188 144.27 188.192 143.326 188.192C142.222 188.192 141.222 187.912 140.326 187.352C139.43 186.776 138.718 185.968 138.19 184.928C137.678 183.872 137.422 182.656 137.422 181.28C137.422 179.904 137.678 178.696 138.19 177.656C138.718 176.616 139.43 175.816 140.326 175.256C141.222 174.696 142.222 174.416 143.326 174.416ZM147.454 181.304C147.454 180.28 147.166 179.472 146.59 178.88C146.03 178.288 145.342 177.992 144.526 177.992C143.71 177.992 143.014 178.288 142.438 178.88C141.878 179.456 141.598 180.256 141.598 181.28C141.598 182.304 141.878 183.12 142.438 183.728C143.014 184.32 143.71 184.616 144.526 184.616C145.342 184.616 146.03 184.32 146.59 183.728C147.166 183.136 147.454 182.328 147.454 181.304ZM170.101 185.024H163.813L162.805 188H158.509L164.605 171.152H169.357L175.453 188H171.109L170.101 185.024ZM169.045 181.856L166.957 175.688L164.893 181.856H169.045ZM181.412 176.504C181.812 175.88 182.364 175.376 183.068 174.992C183.772 174.608 184.596 174.416 185.54 174.416C186.644 174.416 187.644 174.696 188.54 175.256C189.436 175.816 190.14 176.616 190.652 177.656C191.18 178.696 191.444 179.904 191.444 181.28C191.444 182.656 191.18 183.872 190.652 184.928C190.14 185.968 189.436 186.776 188.54 187.352C187.644 187.912 186.644 188.192 185.54 188.192C184.612 188.192 183.788 188 183.068 187.616C182.364 187.232 181.812 186.736 181.412 186.128V194.384H177.308V174.608H181.412V176.504ZM187.268 181.28C187.268 180.256 186.98 179.456 186.404 178.88C185.844 178.288 185.148 177.992 184.316 177.992C183.5 177.992 182.804 178.288 182.228 178.88C181.668 179.472 181.388 180.28 181.388 181.304C181.388 182.328 181.668 183.136 182.228 183.728C182.804 184.32 183.5 184.616 184.316 184.616C185.132 184.616 185.828 184.32 186.404 183.728C186.98 183.12 187.268 182.304 187.268 181.28ZM197.701 176.504C198.101 175.88 198.653 175.376 199.357 174.992C200.061 174.608 200.885 174.416 201.829 174.416C202.933 174.416 203.933 174.696 204.829 175.256C205.725 175.816 206.429 176.616 206.941 177.656C207.469 178.696 207.733 179.904 207.733 181.28C207.733 182.656 207.469 183.872 206.941 184.928C206.429 185.968 205.725 186.776 204.829 187.352C203.933 187.912 202.933 188.192 201.829 188.192C200.901 188.192 200.077 188 199.357 187.616C198.653 187.232 198.101 186.736 197.701 186.128V194.384H193.597V174.608H197.701V176.504ZM203.557 181.28C203.557 180.256 203.269 179.456 202.693 178.88C202.133 178.288 201.437 177.992 200.605 177.992C199.789 177.992 199.093 178.288 198.517 178.88C197.957 179.472 197.677 180.28 197.677 181.304C197.677 182.328 197.957 183.136 198.517 183.728C199.093 184.32 199.789 184.616 200.605 184.616C201.421 184.616 202.117 184.32 202.693 183.728C203.269 183.12 203.557 182.304 203.557 181.28Z" fill="black"/>
<defs>
<clipPath id="clip0_98_4330">
<rect width="138" height="138" fill="white" transform="translate(35.5)"/>
</clipPath>
</defs>
</svg>
