<svg width="40" height="41" viewBox="0 0 40 41" fill="none" xmlns="http://www.w3.org/2000/svg">
<path d="M31.5 20.0298C31.5 26.3811 26.3513 31.5298 20 31.5298C13.6487 31.5298 8.5 26.3811 8.5 20.0298C8.5 13.6785 13.6487 8.52979 20 8.52979C26.3513 8.52979 31.5 13.6785 31.5 20.0298Z" fill="white"/>
<path fill-rule="evenodd" clip-rule="evenodd" d="M20 30.7199C25.904 30.7199 30.6901 25.9338 30.6901 20.0298C30.6901 14.1258 25.904 9.33964 20 9.33964C14.096 9.33964 9.30986 14.1258 9.30986 20.0298C9.30986 25.9338 14.096 30.7199 20 30.7199ZM20 31.5298C26.3513 31.5298 31.5 26.3811 31.5 20.0298C31.5 13.6785 26.3513 8.52979 20 8.52979C13.6487 8.52979 8.5 13.6785 8.5 20.0298C8.5 26.3811 13.6487 31.5298 20 31.5298Z" fill="black"/>
<path d="M16.179 10.7041C16.2128 10.7038 16.2466 10.7035 16.2814 10.7032C16.3945 10.7023 16.5077 10.702 16.6208 10.7017C16.702 10.7012 16.7831 10.7006 16.8643 10.7001C17.1309 10.6984 17.3975 10.6975 17.6641 10.6967C17.756 10.6964 17.848 10.6961 17.9399 10.6957C18.3722 10.6942 18.8045 10.693 19.2368 10.6923C19.7347 10.6916 20.2327 10.6894 20.7306 10.6861C21.1161 10.6837 21.5015 10.6825 21.887 10.6822C22.117 10.682 22.3469 10.6813 22.5768 10.6793C22.7935 10.6774 23.0101 10.6771 23.2268 10.6779C23.3058 10.6779 23.3849 10.6774 23.464 10.6763C24.0036 10.6691 24.3698 10.7601 24.8318 11.04C24.8919 11.0718 24.9521 11.1033 25.0126 11.1342C25.6912 11.5098 26.3105 11.9691 26.8825 12.4923C26.9643 12.5663 27.0477 12.6371 27.1323 12.7078C27.6843 13.1908 28.1541 13.7906 28.5571 14.4009C28.5809 14.4369 28.6048 14.4729 28.6293 14.51C29.2324 15.4568 29.7226 16.5029 29.9744 17.5998C29.9818 17.6317 29.9892 17.6635 29.9968 17.6963C30.0197 17.7973 30.0416 17.8984 30.063 17.9997C30.0693 18.0287 30.0755 18.0578 30.082 18.0877C30.2136 18.7506 30.2326 19.4266 30.23 20.1003C30.23 20.139 30.2299 20.1777 30.2299 20.2176C30.2282 20.9149 30.2154 21.6067 30.0039 22.2768C29.9748 22.3765 29.9542 22.4747 29.9355 22.5768C29.8919 22.8066 29.8215 23.0247 29.7466 23.246C29.7323 23.2884 29.7181 23.3307 29.7034 23.3743C29.4272 24.1798 29.078 24.9524 28.5976 25.6579C28.5806 25.6832 28.5635 25.7084 28.546 25.7344C28.2635 26.1506 27.9614 26.5387 27.6258 26.9132C27.5893 26.9547 27.5527 26.9963 27.5162 27.0378C27.0395 27.5747 26.5052 28.0304 25.9251 28.4519C25.8894 28.4783 25.8894 28.4783 25.853 28.5052C25.1671 29.0071 24.3051 29.4864 23.4864 29.715C23.3511 29.7544 23.2187 29.8005 23.0855 29.8464C21.1407 30.5006 18.9678 30.4882 17.0167 29.8692C16.987 29.8603 16.9574 29.8515 16.9269 29.8424C14.9103 29.2403 13.0277 27.8993 11.8079 26.1808C11.7548 26.1064 11.7002 26.0333 11.645 25.9603C11.0534 25.1706 10.6133 24.2404 10.2948 23.3093C10.2733 23.2479 10.2733 23.2479 10.2513 23.1852C10.1079 22.7503 10.0167 22.3006 9.93039 21.8516C9.92352 21.8164 9.91666 21.7813 9.90959 21.7451C9.80651 21.1917 9.7974 20.6386 9.79625 20.0775C9.79611 20.0424 9.79596 20.0074 9.7958 19.9713C9.79435 19.3176 9.84719 18.6789 9.97847 18.0376C9.99149 17.9739 9.99149 17.9739 10.0048 17.9089C10.3829 16.1263 11.2564 14.4222 12.5219 13.1051C12.5489 13.077 12.5758 13.049 12.6036 13.0201C12.9994 12.6108 13.397 12.2248 13.8582 11.8903C13.9047 11.8557 13.9512 11.821 13.9977 11.7864C15.4655 10.7038 15.4655 10.7038 16.179 10.7041ZM15.316 11.5259C15.2474 11.5647 15.1789 11.6034 15.1103 11.6421C15.0538 11.6764 14.9975 11.7111 14.9414 11.746C14.8957 11.7743 14.8957 11.7743 14.8491 11.8032C14.5879 11.9668 14.3437 12.1455 14.1012 12.3357C14.0601 12.3655 14.0191 12.3953 13.9768 12.426C13.6507 12.6659 13.3624 12.9411 13.0762 13.2266C13.039 13.2636 13.0018 13.3006 12.9634 13.3387C11.6755 14.64 10.868 16.2897 10.4695 18.063C10.4613 18.0986 10.4531 18.1342 10.4446 18.1709C10.3065 18.8088 10.2795 19.4496 10.2822 20.1003C10.2822 20.1375 10.2823 20.1747 10.2824 20.2131C10.2847 21.004 10.3695 21.7365 10.5783 22.4995C10.6082 22.623 10.6377 22.7466 10.667 22.8702C10.7017 22.9923 10.7446 23.1089 10.7901 23.2273C10.8182 23.3015 10.8445 23.3764 10.8706 23.4514C11.1523 24.2466 11.5588 24.9647 12.036 25.6579C12.079 25.7213 12.079 25.7213 12.1229 25.786C12.3353 26.0893 12.5813 26.3642 12.8261 26.6414C12.8836 26.7075 12.9393 26.7747 12.9947 26.8425C13.0703 26.9318 13.1412 27.0059 13.2306 27.0802C13.3523 27.1832 13.4679 27.2904 13.5822 27.4016C14.3532 28.1412 15.3177 28.6687 16.2878 29.0998C16.313 29.1112 16.3382 29.1226 16.3641 29.1344C18.4454 30.0678 21.0815 30.0808 23.2092 29.3102C23.2503 29.2942 23.2913 29.2782 23.3336 29.2618C23.3712 29.2475 23.4089 29.2332 23.4478 29.2184C23.5732 29.1685 23.6962 29.1146 23.8195 29.0593C23.8492 29.0461 23.8789 29.0329 23.9096 29.0194C24.8634 28.5931 25.7538 28.044 26.5173 27.3271C26.6013 27.2485 26.6873 27.1743 26.7755 27.1005C27.4887 26.4791 28.0509 25.6649 28.5167 24.8481C28.5305 24.824 28.5444 24.8 28.5587 24.7752C28.7899 24.3719 28.9638 23.9521 29.1299 23.5184C29.1597 23.4431 29.1925 23.3689 29.2259 23.2951C30.0201 21.3431 29.9314 19.0165 29.278 17.0501C29.2513 16.9692 29.2253 16.8881 29.1997 16.8069C28.8061 15.5717 28.0815 14.4294 27.1949 13.4903C27.1167 13.4069 27.0428 13.3224 26.9703 13.2342C26.8388 13.0793 26.6872 12.9527 26.5325 12.8216C26.4897 12.784 26.4469 12.7463 26.4042 12.7085C26.0967 12.4382 25.7832 12.1943 25.4392 11.9713C25.4145 11.9551 25.3897 11.939 25.3643 11.9223C25.2849 11.8707 25.2052 11.8196 25.1254 11.7688C25.0907 11.7465 25.0907 11.7465 25.0554 11.7238C25.0045 11.6919 24.9529 11.661 24.901 11.6308C24.8417 11.596 24.7825 11.5608 24.7245 11.5239C24.2415 11.219 23.8525 11.1489 23.2879 11.1554C23.2087 11.155 23.1294 11.1544 23.0502 11.1537C22.8371 11.1522 22.6241 11.153 22.4109 11.1543C22.1867 11.1554 21.9625 11.1546 21.7382 11.1542C21.3619 11.1537 20.9855 11.1547 20.6092 11.1566C20.1756 11.1588 19.742 11.1585 19.3084 11.1569C18.8893 11.1555 18.4702 11.1558 18.051 11.157C17.8736 11.1575 17.6961 11.1573 17.5186 11.1565C17.3092 11.1558 17.0999 11.1566 16.8905 11.1586C16.8142 11.1591 16.7379 11.1591 16.6616 11.1584C16.1321 11.1543 15.7692 11.2515 15.316 11.5259Z" fill="#0B0B0B"/>
<path d="M24.5161 16.9168C25.372 16.8809 26.2271 17.198 26.8577 17.7761C26.8853 17.8005 26.9129 17.8249 26.9414 17.85C27.5126 18.3833 27.8914 19.1492 27.9241 19.9329C27.9406 20.9271 27.6351 21.7642 26.9537 22.4985C26.5679 22.8856 26.0941 23.1858 25.5619 23.3237C25.519 23.336 25.519 23.336 25.4752 23.3487C24.64 23.556 23.7061 23.376 22.9704 22.9592C22.5307 22.6761 22.1986 22.3464 21.9175 21.9064C21.8992 21.8778 21.8809 21.8491 21.862 21.8196C21.4196 21.0767 21.3297 20.2213 21.5137 19.3886C21.6691 18.7785 21.9643 18.3036 22.4035 17.8571C22.4343 17.8258 22.4651 17.7945 22.4968 17.7622C23.0612 17.2219 23.747 16.9707 24.5161 16.9168Z" fill="#FAFBFB"/>
<path d="M15.2232 16.9196C16.116 16.89 17.013 17.2566 17.6658 17.8571C18.089 18.3015 18.3622 18.8035 18.5161 19.3959C18.5306 19.4392 18.5452 19.4825 18.5601 19.5271C18.6066 19.7183 18.6093 19.8959 18.6072 20.0918C18.6069 20.1296 18.6066 20.1674 18.6063 20.2064C18.5933 21.042 18.2968 21.7632 17.7468 22.3923C17.7122 22.4334 17.7122 22.4334 17.6769 22.4754C17.193 23.0072 16.4189 23.3701 15.7041 23.4102C14.6678 23.4488 13.8274 23.2107 13.0471 22.491C12.3912 21.8015 12.0864 20.9021 12.1046 19.9599C12.1404 19.2156 12.4738 18.5259 12.9686 17.9786C12.9944 17.95 13.0202 17.9214 13.0467 17.8919C13.6178 17.2911 14.404 16.9662 15.2232 16.9196Z" fill="#FAFBFB"/>
<path d="M20.8647 23.8096C20.9118 23.8367 20.9118 23.8367 20.9598 23.8645C21.3504 24.1077 21.5863 24.3907 21.7556 24.8219C21.8653 25.3191 21.8303 25.8007 21.5612 26.2355C21.2769 26.6456 20.957 26.925 20.4598 27.049C20.1064 27.0992 19.731 27.0863 19.407 26.9275C19.3773 26.9142 19.3477 26.9009 19.3171 26.8872C18.85 26.656 18.5956 26.287 18.4225 25.8089C18.3247 25.341 18.3603 24.8497 18.6177 24.4416C19.1286 23.743 20.054 23.3291 20.8647 23.8096Z" fill="#FBFBFB"/>
<path d="M15.2232 16.9196C16.116 16.89 17.013 17.2566 17.6658 17.8571C18.089 18.3015 18.3622 18.8035 18.5161 19.3959C18.5306 19.4392 18.5452 19.4825 18.5601 19.5271C18.6066 19.7183 18.6093 19.8959 18.6072 20.0918C18.6069 20.1296 18.6066 20.1674 18.6063 20.2064C18.5933 21.042 18.2968 21.7632 17.7468 22.3923C17.7122 22.4334 17.7122 22.4334 17.6769 22.4754C17.193 23.0072 16.4189 23.3701 15.7041 23.4102C14.6678 23.4488 13.8274 23.2107 13.0471 22.491C12.3912 21.8015 12.0864 20.9021 12.1046 19.9599C12.1404 19.2156 12.4738 18.5259 12.9686 17.9786C12.9944 17.95 13.0202 17.9214 13.0467 17.8919C13.6178 17.2911 14.404 16.9662 15.2232 16.9196ZM13.495 18.1406C13.4713 18.1606 13.4475 18.1807 13.423 18.2013C13.0678 18.5235 12.8153 18.979 12.6852 19.4364C12.6761 19.4637 12.6671 19.4911 12.6578 19.5192C12.4658 20.1931 12.618 20.9621 12.9494 21.5644C13.336 22.2169 13.9368 22.666 14.6695 22.8592C15.3618 23.0283 16.1272 22.9465 16.743 22.5875C17.3078 22.2372 17.7101 21.7595 17.9492 21.1371C17.9652 21.0956 17.9812 21.0541 17.9976 21.0113C18.2176 20.3553 18.1706 19.6375 17.8839 19.0099C17.4793 18.2276 16.8636 17.7586 16.0355 17.4596C15.1542 17.2196 14.1574 17.5432 13.495 18.1406Z" fill="#090A09"/>
<path d="M24.5161 16.9168C25.372 16.8809 26.2271 17.198 26.8577 17.7761C26.8853 17.8005 26.9129 17.8249 26.9414 17.85C27.5126 18.3833 27.8914 19.1492 27.9241 19.9329C27.9406 20.9271 27.6351 21.7642 26.9537 22.4985C26.5679 22.8856 26.0941 23.1858 25.5619 23.3237C25.519 23.336 25.519 23.336 25.4752 23.3487C24.64 23.556 23.7061 23.376 22.9704 22.9592C22.5307 22.6761 22.1986 22.3464 21.9175 21.9064C21.8992 21.8778 21.8809 21.8491 21.862 21.8196C21.4196 21.0767 21.3297 20.2213 21.5137 19.3886C21.6691 18.7785 21.9643 18.3036 22.4035 17.8571C22.4343 17.8258 22.4651 17.7945 22.4968 17.7622C23.0612 17.2219 23.747 16.9707 24.5161 16.9168ZM22.6113 18.3191C22.0796 18.9648 21.8392 19.6953 21.9175 20.5297C22.0197 21.2416 22.4038 21.9061 22.9558 22.3643C23.6382 22.8535 24.3798 23.038 25.2161 22.9026C25.9491 22.7352 26.62 22.2845 27.025 21.6495C27.4282 20.961 27.5323 20.2282 27.3427 19.4492C27.1354 18.7455 26.7222 18.1763 26.0863 17.7989C24.8876 17.1639 23.5618 17.3214 22.6113 18.3191Z" fill="#090A0A"/>
<path d="M16.3869 18.9459C16.6594 19.1689 16.8832 19.4887 16.9369 19.8413C16.9849 20.4264 16.868 20.8399 16.4915 21.299C16.2115 21.5942 15.9016 21.7295 15.4974 21.7527C15.0156 21.7587 14.6826 21.6875 14.3049 21.38C13.9591 21.0383 13.7771 20.6785 13.7607 20.188C13.7716 19.7682 13.9344 19.3706 14.2255 19.0667C14.8781 18.4578 15.6559 18.4575 16.3869 18.9459Z" fill="#040404"/>
<path d="M25.6432 18.9254C25.6831 18.9579 25.6831 18.9579 25.7239 18.9909C25.7626 19.0221 25.7626 19.0221 25.802 19.0539C26.0711 19.2952 26.2287 19.6447 26.2614 20.0031C26.277 20.5315 26.1266 20.9519 25.7644 21.3395C25.4159 21.6786 25 21.7579 24.5322 21.753C24.0967 21.7273 23.7515 21.5379 23.4613 21.2155C23.1684 20.8695 23.0608 20.4569 23.0755 20.0063C23.1323 19.5723 23.3335 19.237 23.6587 18.9504C24.2749 18.4789 25.0041 18.4549 25.6432 18.9254Z" fill="#040404"/>
<path d="M23.8207 13.2004C24.1359 13.3805 24.3574 13.664 24.4686 14.0103C24.5029 14.363 24.4945 14.6739 24.3066 14.9821C24.2824 15.0247 24.2582 15.0673 24.2332 15.1112C24.0126 15.3949 23.768 15.5479 23.4158 15.63C23.0371 15.673 22.7122 15.6175 22.3959 15.4022C22.1508 15.2055 21.9683 14.9166 21.8771 14.6177C21.8363 14.219 21.8885 13.8633 22.1251 13.5345C22.5702 13.0016 23.203 12.8906 23.8207 13.2004Z" fill="#0A0A0A"/>
<path d="M17.6041 13.2601C17.8697 13.4479 18.0953 13.722 18.1517 14.0508C18.178 14.3975 18.1703 14.6803 17.9897 14.9821C17.9655 15.0247 17.9413 15.0673 17.9163 15.1112C17.7095 15.3772 17.47 15.5499 17.1394 15.63C16.7443 15.6745 16.4036 15.6373 16.0764 15.4027C15.7915 15.1665 15.5867 14.8771 15.5484 14.5032C15.5368 14.0903 15.6152 13.765 15.883 13.4451C16.3719 12.9525 17.0154 12.91 17.6041 13.2601Z" fill="#0A0A0A"/>
<path d="M16.8559 24.2955C17.1824 24.5281 17.4067 24.7888 17.491 25.1854C17.5469 25.543 17.4836 25.9119 17.2735 26.2113C17.0196 26.5165 16.7215 26.6976 16.3251 26.7379C15.937 26.752 15.643 26.6761 15.3425 26.4265C15.0384 26.1377 14.9086 25.8246 14.8945 25.4091C14.9074 24.9487 15.13 24.6731 15.4539 24.3664C15.9067 24.0645 16.3655 24.0513 16.8559 24.2955Z" fill="#090909"/>
<path d="M20.7837 16.2779C21.0598 16.4697 21.2872 16.707 21.3506 17.0473C21.3841 17.507 21.3799 17.8628 21.0726 18.2312C20.8367 18.4822 20.6103 18.6442 20.2573 18.667C20.2184 18.6705 20.1796 18.674 20.1395 18.6776C19.7518 18.6984 19.454 18.604 19.1574 18.3486C19.083 18.2696 19.0217 18.1903 18.9616 18.1001C18.9441 18.0745 18.9266 18.0489 18.9086 18.0226C18.7329 17.7077 18.7475 17.279 18.8249 16.9346C18.9405 16.6415 19.172 16.3648 19.4525 16.2197C19.5045 16.1977 19.5567 16.1765 19.6094 16.1564C19.6479 16.1397 19.6863 16.123 19.7259 16.1058C20.1113 16.0133 20.4347 16.0973 20.7837 16.2779Z" fill="#0A0A0A"/>
<path d="M24.4631 24.283C24.7921 24.4845 25.0017 24.7314 25.1165 25.1054C25.1801 25.4787 25.1546 25.8228 24.9452 26.146C24.7084 26.4539 24.456 26.6632 24.0637 26.7251C23.5903 26.7655 23.2883 26.6852 22.9172 26.3935C22.6543 26.1504 22.5435 25.8397 22.5123 25.49C22.5214 25.0866 22.6669 24.7446 22.9517 24.4616C23.3643 24.1093 23.9682 24.0402 24.4631 24.283Z" fill="#0A0A0B"/>
<path d="M20.7433 13.2004C21.0255 13.3937 21.2614 13.6331 21.3506 13.9698C21.3975 14.3843 21.3742 14.7632 21.1248 15.112C20.8823 15.4063 20.6409 15.5866 20.2573 15.63C19.8278 15.6673 19.5262 15.5766 19.1841 15.3175C18.9685 15.1328 18.8441 14.8955 18.7996 14.6177C18.7661 14.1678 18.8051 13.8199 19.1008 13.4687C19.5611 12.9839 20.1396 12.8982 20.7433 13.2004Z" fill="#090909"/>
<path d="M20.8647 23.8096C20.9118 23.8367 20.9118 23.8367 20.9598 23.8645C21.3504 24.1077 21.5863 24.3907 21.7556 24.8219C21.8653 25.3191 21.8303 25.8007 21.5612 26.2355C21.2769 26.6456 20.957 26.925 20.4598 27.049C20.1064 27.0992 19.731 27.0863 19.407 26.9275C19.3773 26.9142 19.3477 26.9009 19.3171 26.8872C18.85 26.656 18.5956 26.287 18.4225 25.8089C18.3247 25.341 18.3603 24.8497 18.6177 24.4416C19.1286 23.743 20.054 23.3291 20.8647 23.8096ZM19.1083 24.5796C18.8864 24.8506 18.861 25.1514 18.8641 25.4905C18.9023 25.8184 19.082 26.125 19.3276 26.3443C19.6368 26.5655 19.9656 26.608 20.3383 26.5631C20.6708 26.4807 20.9088 26.3089 21.1178 26.0418C21.3077 25.7026 21.3774 25.3832 21.2836 24.9956C21.1366 24.5837 20.8749 24.354 20.4897 24.171C19.9567 23.9908 19.4748 24.1865 19.1083 24.5796Z" fill="#090A0A"/>
<path d="M16.4157 24.641C16.6732 24.7309 16.8528 24.8563 16.9774 25.1054C17.0628 25.3304 17.0399 25.5626 16.9521 25.7811C16.8448 26.0025 16.694 26.1041 16.4915 26.2392C16.224 26.2745 15.9597 26.294 15.7348 26.1278C15.5607 25.975 15.4168 25.7958 15.3817 25.563C15.3732 25.2917 15.4022 25.1147 15.5685 24.8966C15.6774 24.7847 15.783 24.7253 15.9246 24.6599C16.0769 24.5838 16.2539 24.6006 16.4157 24.641Z" fill="#F5F5F5"/>
<path d="M20.5359 16.6993C20.7278 16.8435 20.848 16.9737 20.8837 17.2172C20.8922 17.5285 20.8553 17.7269 20.6496 17.966C20.4215 18.1622 20.2325 18.2091 19.935 18.1999C19.7292 18.1684 19.5918 18.0865 19.4475 17.9381C19.2824 17.7057 19.2039 17.4921 19.245 17.2092C19.3259 16.958 19.472 16.7876 19.6904 16.6423C19.995 16.4998 20.2571 16.5254 20.5359 16.6993Z" fill="#F4F5F5"/>
<path d="M20.5046 13.6318C20.6569 13.7401 20.7811 13.8836 20.8647 14.0508C20.8916 14.3436 20.9164 14.633 20.7298 14.876C20.5356 15.0648 20.3417 15.1553 20.0701 15.1669C19.7859 15.1518 19.6246 15.0513 19.4348 14.8455C19.282 14.6535 19.2225 14.4642 19.2297 14.2161C19.2781 13.9498 19.4765 13.7538 19.6904 13.6054C19.9738 13.476 20.2356 13.4838 20.5046 13.6318Z" fill="#F4F4F4"/>
<path d="M17.307 13.6319C17.4735 13.7522 17.6007 13.8962 17.6658 14.0913C17.6974 14.3781 17.6606 14.6157 17.5038 14.8607C17.3449 15.0436 17.1622 15.1236 16.9254 15.1572C16.682 15.1742 16.5237 15.1251 16.3289 14.978C16.1457 14.8028 16.0368 14.6076 16.0258 14.352C16.0423 14.1203 16.081 13.9331 16.2511 13.7666C16.5741 13.5057 16.9276 13.4194 17.307 13.6319Z" fill="#F5F5F5"/>
<path d="M24.2941 24.7616C24.4639 24.8711 24.5666 24.9819 24.623 25.1813C24.6255 25.223 24.628 25.2648 24.6306 25.3078C24.6339 25.3604 24.6373 25.4131 24.6407 25.4673C24.6365 25.669 24.5854 25.8333 24.445 25.984C24.2111 26.1945 24.0049 26.2609 23.6907 26.2545C23.4515 26.222 23.3042 26.1003 23.1576 25.9152C23.0313 25.6819 22.9676 25.4938 23.0109 25.2268C23.1219 24.9604 23.3119 24.7649 23.5752 24.6473C23.8595 24.5835 24.0418 24.6253 24.2941 24.7616Z" fill="#F5F5F5"/>
<path d="M23.7397 13.7268C23.9096 13.901 23.9944 14.06 23.9979 14.3039C23.9925 14.554 23.9336 14.7364 23.7644 14.9226C23.5649 15.1033 23.359 15.162 23.0925 15.1544C22.871 15.1265 22.6805 15.0162 22.5249 14.8606C22.3848 14.6632 22.3338 14.4725 22.3449 14.2311C22.3938 13.9617 22.5761 13.7819 22.7782 13.6106C23.0962 13.4049 23.452 13.5401 23.7397 13.7268Z" fill="#F5F5F5"/>
<path d="M23.2481 13.8712C23.414 13.9048 23.5241 13.9931 23.6182 14.1318C23.6543 14.2613 23.6521 14.3663 23.6182 14.4962C23.5475 14.6201 23.4644 14.7148 23.3348 14.7797C23.0481 14.8031 23.0481 14.8031 22.8944 14.7063C22.782 14.5906 22.7306 14.5244 22.7122 14.3621C22.7301 14.1864 22.7789 14.1056 22.8894 13.9698C23.0169 13.8848 23.0958 13.8665 23.2481 13.8712Z" fill="#0E0E0E"/>
<path d="M16.37 24.9839C16.5028 25.0676 16.5663 25.1366 16.6535 25.2673C16.6843 25.536 16.6843 25.536 16.6123 25.665C16.486 25.8226 16.3939 25.8674 16.1954 25.8899C15.9964 25.8697 15.9412 25.8137 15.8031 25.6723C15.7538 25.5243 15.7468 25.4229 15.7626 25.2673C15.9123 25.0166 16.0831 24.9431 16.37 24.9839Z" fill="#0E0D0E"/>
<path d="M17.0179 13.8888C17.1403 13.9595 17.2372 14.044 17.3013 14.1723C17.3205 14.3634 17.3311 14.4824 17.2077 14.6354C17.0792 14.7579 17.0156 14.7761 16.8407 14.7923C16.6681 14.7774 16.6108 14.7404 16.4915 14.6177C16.3988 14.4853 16.3914 14.3719 16.4105 14.2128C16.5572 13.9498 16.7101 13.8302 17.0179 13.8888Z" fill="#0D0D0D"/>
<path d="M23.8055 24.9662C23.9825 24.9697 24.0871 25.0241 24.2133 25.1468C24.2977 25.2746 24.305 25.3835 24.2937 25.534C24.2532 25.6779 24.1869 25.7485 24.0665 25.8342C23.9168 25.9066 23.8239 25.9014 23.6587 25.8747C23.545 25.8021 23.4761 25.7525 23.4158 25.6318C23.3988 25.4947 23.3958 25.3637 23.4158 25.2268C23.5145 25.1028 23.5145 25.1028 23.6182 25.0244C23.6587 24.9839 23.6587 24.9839 23.8055 24.9662Z" fill="#0C0C0C"/>
<path d="M20.2168 13.8888C20.3401 13.9493 20.4235 14.0176 20.5003 14.1318C20.5359 14.2741 20.535 14.3942 20.5003 14.5367C20.4116 14.6511 20.3452 14.7155 20.2168 14.7797C19.9088 14.7968 19.9088 14.7968 19.7714 14.6987C19.6342 14.5449 19.6272 14.4298 19.6325 14.2295C19.659 14.0809 19.734 14.0167 19.8524 13.9293C19.9821 13.8645 20.0732 13.8723 20.2168 13.8888Z" fill="#080808"/>
<path d="M20.1763 16.9258C20.3003 16.9973 20.3993 17.0677 20.5003 17.1687C20.5233 17.3057 20.5221 17.4366 20.5003 17.5737C20.4116 17.688 20.3452 17.7524 20.2168 17.8166C19.9298 17.8402 19.9298 17.8402 19.7739 17.7407C19.6375 17.6001 19.6342 17.4931 19.6354 17.3035C19.6599 17.1448 19.7378 17.0755 19.8524 16.9663C19.9685 16.9082 20.0473 16.9134 20.1763 16.9258Z" fill="#0B0B0B"/>
<path d="M22.5654 13.1599C22.6055 13.1733 22.6456 13.1867 22.6869 13.2004C22.6312 13.2612 22.6312 13.2612 22.5654 13.3219C22.5387 13.3219 22.512 13.3219 22.4844 13.3219C22.4212 13.3664 22.4212 13.3664 22.3579 13.4231C22.3195 13.4566 22.2811 13.49 22.2415 13.5244C22.2148 13.511 22.188 13.4977 22.1605 13.4839C22.2127 13.4374 22.265 13.391 22.3174 13.3447C22.3611 13.3059 22.3611 13.3059 22.4057 13.2664C22.4844 13.2004 22.4844 13.2004 22.5654 13.1599Z" fill="#303030"/>
<path d="M19.8524 13.9293C19.8791 13.9427 19.9059 13.956 19.9334 13.9698C19.8845 14.0086 19.8845 14.0086 19.8347 14.0483C19.7004 14.2088 19.6953 14.3331 19.6904 14.5367C19.6771 14.5367 19.6637 14.5367 19.6499 14.5367C19.6189 14.1813 19.6189 14.1813 19.695 14.0598C19.7512 14.0052 19.7512 14.0052 19.8524 13.9293Z" fill="#282929"/>
<path d="M15.8031 24.7004C15.8298 24.7138 15.8566 24.7272 15.8841 24.7409C15.7638 24.8612 15.6436 24.9815 15.5197 25.1054C15.5197 24.9839 15.5197 24.9839 15.6158 24.8801C15.6509 24.8476 15.686 24.815 15.7221 24.7814C15.7488 24.7547 15.7756 24.728 15.8031 24.7004Z" fill="#D4D4D4"/>
</svg>
