<svg width="18" height="18" viewBox="0 0 18 18" fill="none" xmlns="http://www.w3.org/2000/svg">
<path d="M17.157 16.5508L17.0465 16.6658C16.7207 16.9629 16.3041 17.1412 15.8643 17.1716C15.4245 17.202 14.9873 17.0828 14.6237 16.8334L9.66232 13.49C9.5419 13.4072 9.3986 13.3643 9.25253 13.3672C9.10647 13.37 8.96496 13.4186 8.84789 13.506L4.02158 17.0416C3.66718 17.3001 3.23677 17.4333 2.79827 17.4201C2.35977 17.4069 1.93814 17.2481 1.59992 16.9687C1.2617 16.6893 1.02613 16.3053 0.930391 15.8772C0.834653 15.449 0.884192 15.0012 1.07119 14.6044L7.24289 1.41816C7.39864 1.08262 7.64549 0.797563 7.95534 0.595473C8.26519 0.393383 8.62557 0.282382 8.99542 0.275119C9.36528 0.267856 9.72974 0.36462 10.0473 0.55439C10.3648 0.744158 10.6227 1.0193 10.7915 1.34847L17.4797 14.2785C17.6732 14.6427 17.7463 15.0589 17.6883 15.4672C17.6303 15.8755 17.4442 16.2549 17.157 16.5508ZM8.41023 1.96265L2.23126 15.149C2.16594 15.2877 2.14871 15.4441 2.1823 15.5937C2.21589 15.7433 2.29838 15.8773 2.41672 15.9748C2.53506 16.0722 2.68251 16.1273 2.83573 16.1316C2.98895 16.1358 3.1392 16.0888 3.26273 15.998L8.08903 12.4624C8.41635 12.225 8.80852 12.0934 9.21281 12.0855C9.61711 12.0776 10.0141 12.1936 10.3505 12.418L15.3119 15.7614C15.4389 15.8473 15.5909 15.8883 15.7438 15.8781C15.8968 15.8678 16.0419 15.8069 16.1564 15.7049C16.2708 15.6029 16.348 15.4657 16.3756 15.315C16.4033 15.1642 16.38 15.0085 16.3093 14.8725L9.64642 1.93837C9.5873 1.82408 9.49737 1.72861 9.38679 1.66279C9.27622 1.59698 9.14943 1.56343 9.02077 1.56596C8.89212 1.56848 8.76674 1.60698 8.65884 1.67709C8.55093 1.7472 8.46481 1.84612 8.41023 1.96265Z" fill="white"/>
</svg>
