<svg width="27" height="26" viewBox="0 0 27 26" fill="none" xmlns="http://www.w3.org/2000/svg">
<g clip-path="url(#clip0_144_4540)">
<path d="M21.4311 17.5807L21.3206 17.6956C20.9949 17.9927 20.5783 18.171 20.1385 18.2014C19.6986 18.2319 19.2614 18.1127 18.8979 17.8632L13.9365 14.5198C13.8161 14.4371 13.6728 14.3941 13.5267 14.397C13.3806 14.3999 13.2391 14.4484 13.1221 14.5358L8.29575 18.0714C7.94135 18.33 7.51094 18.4632 7.07244 18.45C6.63394 18.4368 6.21231 18.278 5.87409 17.9986C5.53587 17.7192 5.3003 17.3351 5.20456 16.907C5.10882 16.4789 5.15836 16.0311 5.34536 15.6342L11.5171 2.44801C11.6728 2.11246 11.9197 1.82741 12.2295 1.62532C12.5394 1.42323 12.8997 1.31223 13.2696 1.30497C13.6395 1.2977 14.0039 1.39447 14.3215 1.58424C14.639 1.774 14.8969 2.04915 15.0657 2.37832L21.7539 15.3083C21.9474 15.6725 22.0204 16.0887 21.9624 16.4971C21.9044 16.9054 21.7184 17.2848 21.4311 17.5807ZM12.6844 2.9925L6.50543 16.1788C6.44011 16.3175 6.42288 16.474 6.45647 16.6235C6.49006 16.7731 6.57255 16.9072 6.69089 17.0046C6.80923 17.102 6.95668 17.1572 7.1099 17.1614C7.26312 17.1656 7.41337 17.1186 7.5369 17.0279L12.3632 13.4923C12.6905 13.2548 13.0827 13.1233 13.487 13.1153C13.8913 13.1074 14.2883 13.2234 14.6247 13.4479L19.5861 16.7913C19.7131 16.8771 19.8651 16.9181 20.018 16.9079C20.1709 16.8977 20.3161 16.8368 20.4305 16.7348C20.545 16.6328 20.6221 16.4956 20.6498 16.3448C20.6775 16.1941 20.6541 16.0384 20.5834 15.9024L13.9206 2.96822C13.8615 2.85392 13.7715 2.75846 13.661 2.69264C13.5504 2.62682 13.4236 2.59328 13.2949 2.5958C13.1663 2.59833 13.0409 2.63683 12.933 2.70694C12.8251 2.77705 12.739 2.87597 12.6844 2.9925Z" fill="#4461F2"/>
</g>
<defs>
<clipPath id="clip0_144_4540">
<rect width="18" height="18" fill="white" transform="translate(0.774414 13.2798) rotate(-46.1251)"/>
</clipPath>
</defs>
</svg>
