<svg width="124" height="24" viewBox="0 0 124 24" fill="none" xmlns="http://www.w3.org/2000/svg">
<mask id="path-1-outside-1_1637_3437" maskUnits="userSpaceOnUse" x="0" y="0" width="26" height="24" fill="black">
<rect fill="white" width="26" height="24"/>
<path d="M6.7457 1.1512C6.7457 1.28728 6.69278 1.3024 6.24674 1.3024C5.81581 1.3024 5.74021 1.32508 5.70997 1.44605C5.68728 1.54433 5.58144 1.61237 5.37732 1.64261C5.211 1.67285 5.08247 1.73333 5.08247 1.79381C5.08247 1.8543 4.95395 1.91478 4.78007 1.94502C4.56082 1.98282 4.47766 2.03574 4.47766 2.13402C4.47766 2.2323 4.3945 2.27766 4.18282 2.31546C3.97869 2.3457 3.88041 2.40619 3.85017 2.51203C3.82749 2.60275 3.74433 2.66323 3.65361 2.66323C3.54777 2.66323 3.49485 2.70859 3.49485 2.81443C3.49485 2.91271 3.44192 2.96564 3.34364 2.96564C3.23024 2.96564 3.19244 3.01856 3.19244 3.15464C3.19244 3.29072 3.15464 3.34364 3.04124 3.34364C2.94296 3.34364 2.89003 3.39656 2.89003 3.49484C2.89003 3.59313 2.83711 3.64605 2.73883 3.64605C2.63299 3.64605 2.58763 3.69897 2.58763 3.80481C2.58763 3.89553 2.52715 3.97869 2.44399 4.00137C2.3457 4.02405 2.27766 4.1299 2.24742 4.33402C2.20962 4.55326 2.16426 4.62887 2.05086 4.62887C1.9299 4.62887 1.90722 4.68179 1.90722 4.96907C1.90722 5.25636 1.88454 5.30928 1.75601 5.30928C1.62749 5.30928 1.60481 5.3622 1.60481 5.64948C1.60481 5.93677 1.58213 5.98969 1.45361 5.98969C1.31753 5.98969 1.30241 6.04261 1.30241 6.4811C1.30241 6.91959 1.28729 6.97251 1.1512 6.97251C1.00756 6.97251 1 7.02543 1 8.43917C1 9.8378 1.00756 9.90584 1.1512 9.94364C1.27973 9.97388 1.30241 10.0495 1.30241 10.4804C1.30241 10.9265 1.31753 10.9794 1.45361 10.9794C1.58969 10.9794 1.60481 11.0323 1.60481 11.4708C1.60481 11.9093 1.61993 11.9622 1.75601 11.9622C1.88454 11.9622 1.90722 12.0151 1.90722 12.3024C1.90722 12.5821 1.9299 12.6426 2.05086 12.6426C2.16426 12.6426 2.20206 12.7182 2.23986 12.9828C2.27766 13.1945 2.33058 13.323 2.39863 13.323C2.46667 13.323 2.51959 13.4515 2.55739 13.6632C2.59519 13.9278 2.63299 14.0034 2.74639 14.0034C2.86735 14.0034 2.89003 14.0639 2.89003 14.3436C2.89003 14.6309 2.91271 14.6838 3.04124 14.6838C3.16976 14.6838 3.19244 14.7368 3.19244 14.9863C3.19244 15.2357 3.22268 15.2887 3.33608 15.2887C3.44948 15.2887 3.48729 15.3643 3.52509 15.6289C3.56289 15.8481 3.61581 15.9691 3.69141 15.9691C3.75189 15.9691 3.79725 16.0371 3.79725 16.1278C3.79725 16.2186 3.85773 16.3017 3.94089 16.3244C4.03918 16.3471 4.10722 16.4529 4.13746 16.6495C4.1677 16.846 4.23574 16.9519 4.33402 16.9746C4.44742 17.0048 4.47766 17.0804 4.47766 17.3223C4.47766 17.5794 4.50034 17.6323 4.62887 17.6323C4.74227 17.6323 4.78007 17.6852 4.78007 17.8213C4.78007 17.9574 4.81787 18.0103 4.93127 18.0103C5.05979 18.0103 5.08247 18.0632 5.08247 18.3127C5.08247 18.5622 5.10515 18.6151 5.23368 18.6151C5.34708 18.6151 5.38488 18.668 5.38488 18.8041C5.38488 18.9402 5.42268 18.9931 5.52852 18.9931C5.64948 18.9931 5.68728 19.0612 5.73265 19.3333C5.77045 19.5979 5.80825 19.6735 5.92165 19.6735C6.01237 19.6735 6.06529 19.7265 6.06529 19.8247C6.06529 19.923 6.11821 19.9759 6.21649 19.9759C6.34502 19.9759 6.3677 20.0289 6.3677 20.3162C6.3677 20.6034 6.39038 20.6564 6.5189 20.6564C6.62474 20.6564 6.6701 20.7093 6.6701 20.8151C6.6701 20.9058 6.73058 20.989 6.81375 21.0117C6.91203 21.0344 6.98007 21.1402 7.01031 21.3443C7.04811 21.5636 7.09347 21.6392 7.20687 21.6392C7.31271 21.6392 7.35052 21.6921 7.35052 21.8282C7.35052 21.9643 7.38832 22.0172 7.50172 22.0172C7.63024 22.0172 7.65292 22.0701 7.65292 22.3196C7.65292 22.5691 7.6756 22.622 7.80412 22.622C7.91753 22.622 7.95533 22.6749 7.95533 22.811C7.95533 22.9773 7.98557 23 8.25773 23C8.5299 23 8.56014 22.9773 8.56014 22.811C8.56014 22.6749 8.59794 22.622 8.70378 22.622C8.81718 22.622 8.86254 22.5464 8.90034 22.3196C8.93814 22.0928 8.9835 22.0172 9.09691 22.0172C9.20275 22.0172 9.24055 21.9643 9.24055 21.8282C9.24055 21.6921 9.27835 21.6392 9.39175 21.6392C9.52027 21.6392 9.54296 21.5863 9.54296 21.3368C9.54296 21.0873 9.56564 21.0344 9.69416 21.0344C9.80756 21.0344 9.84536 20.9814 9.84536 20.8454C9.84536 20.7093 9.88316 20.6564 9.989 20.6564C10.1024 20.6564 10.1402 20.5808 10.178 20.3162L10.2309 19.9759H15.4474H20.6564V20.611C20.6564 21.2158 20.6639 21.2536 20.8302 21.2763C20.9361 21.2914 21.0041 21.3595 21.0192 21.4653C21.0419 21.6392 21.0495 21.6392 22.4405 21.6392H23.8316V21.4502C23.8316 21.3141 23.8694 21.2612 23.9828 21.2612C24.134 21.2612 24.134 21.2082 24.134 16.8007C24.134 12.3931 24.134 12.3402 23.9828 12.3402C23.8543 12.3402 23.8316 12.2873 23.8316 12C23.8316 11.7127 23.8089 11.6598 23.6804 11.6598C23.5519 11.6598 23.5292 11.6069 23.5292 11.3196V10.9794H24.1794H24.8371L24.7918 10.4653C24.7615 10.1856 24.7388 9.88316 24.7388 9.78488C24.7388 9.69416 24.6935 9.61856 24.633 9.61856C24.5574 9.61856 24.5045 9.49759 24.4667 9.27835C24.4289 9.01375 24.3911 8.93814 24.2777 8.93814C24.1869 8.93814 24.134 8.88522 24.134 8.78694C24.134 8.68866 24.0811 8.63574 23.9828 8.63574C23.8845 8.63574 23.8316 8.58282 23.8316 8.48454C23.8316 8.34089 23.7787 8.33333 22.8866 8.33333H21.9416V7.99313C21.9416 7.70584 21.9189 7.65292 21.7904 7.65292C21.6619 7.65292 21.6392 7.6 21.6392 7.31271C21.6392 7.03299 21.6165 6.97251 21.4955 6.97251C21.3519 6.97251 21.2612 6.67766 21.2612 6.20893C21.2612 6.07285 21.2158 5.99725 21.11 5.96701C20.989 5.93677 20.9588 5.86117 20.9588 5.61924C20.9588 5.3622 20.9361 5.30928 20.8076 5.30928C20.679 5.30928 20.6564 5.25636 20.6564 4.96907C20.6564 4.68179 20.6337 4.62887 20.5052 4.62887C20.4069 4.62887 20.354 4.57594 20.354 4.47766C20.354 4.37938 20.301 4.32646 20.2103 4.32646C20.112 4.32646 20.0515 4.26598 20.0364 4.15258C20.0213 4.01649 19.9608 3.97869 19.734 3.96357C19.5072 3.94089 19.4467 3.91065 19.4467 3.78969C19.4467 3.65361 19.3787 3.64605 17.8667 3.64605H16.2942L16.2412 3.41168C16.2186 3.28316 16.1959 3.05636 16.1959 2.92027C16.1959 2.71615 16.1656 2.66323 16.0447 2.66323C15.9313 2.66323 15.8935 2.61031 15.8935 2.47423C15.8935 2.33814 15.8557 2.28522 15.7423 2.28522C15.644 2.28522 15.5911 2.2323 15.5911 2.13402C15.5911 1.98282 15.5381 1.98282 13.5498 1.98282C11.5993 1.98282 11.5086 1.97526 11.5086 1.83917C11.5086 1.72577 11.433 1.68797 11.1684 1.65017C10.8962 1.60481 10.8282 1.56701 10.8282 1.44605C10.8282 1.31753 10.7753 1.3024 10.3368 1.3024C9.89828 1.3024 9.84536 1.28728 9.84536 1.1512C9.84536 1.00756 9.79244 1 8.29553 1C6.79862 1 6.7457 1.00756 6.7457 1.1512ZM9.84536 1.83162C9.84536 1.9677 9.89828 1.98282 10.3368 1.98282C10.7677 1.98282 10.8282 1.99794 10.8282 2.12646C10.8282 2.23986 10.9038 2.28522 11.1306 2.32302C11.3574 2.36082 11.433 2.40619 11.433 2.51959C11.433 2.64055 11.4859 2.66323 11.7354 2.66323C11.9849 2.66323 12.0378 2.68591 12.0378 2.81443C12.0378 2.92784 12.0907 2.96564 12.2268 2.96564C12.3629 2.96564 12.4158 3.00344 12.4158 3.11684C12.4158 3.21512 12.4687 3.26804 12.567 3.26804C12.6804 3.26804 12.7182 3.32096 12.7182 3.45704C12.7182 3.59313 12.756 3.64605 12.8694 3.64605C12.9677 3.64605 13.0206 3.69897 13.0206 3.79725C13.0206 3.89553 13.0735 3.94845 13.1643 3.94845C13.2625 3.94845 13.323 4.00893 13.3381 4.11478C13.3533 4.22818 13.4213 4.29622 13.5347 4.31134C13.6557 4.33402 13.701 4.38694 13.701 4.52302C13.701 4.63643 13.7464 4.70447 13.8144 4.70447C13.89 4.70447 13.943 4.81031 13.9732 5.00687C14.011 5.23368 14.0564 5.30928 14.1622 5.30928C14.2832 5.30928 14.3058 5.36976 14.3058 5.64948C14.3058 5.93677 14.3285 5.98969 14.457 5.98969C14.5931 5.98969 14.6082 6.04261 14.6082 6.39794C14.6082 6.94983 14.6838 7.27491 14.8048 7.27491C14.888 7.27491 14.9107 7.50928 14.9107 8.48454C14.9107 9.45979 14.888 9.69416 14.8048 9.69416C14.6838 9.69416 14.6082 10.0192 14.6082 10.5711C14.6082 10.9265 14.5931 10.9794 14.457 10.9794C14.3285 10.9794 14.3058 11.0323 14.3058 11.3196C14.3058 11.6069 14.2832 11.6598 14.1546 11.6598C14.0337 11.6598 14.0034 11.7127 14.0034 11.9168C14.0034 12.3175 13.9203 12.6426 13.8144 12.6426C13.754 12.6426 13.6935 12.7711 13.6632 12.9375C13.633 13.1416 13.5649 13.2474 13.4667 13.2701C13.3533 13.3003 13.323 13.3759 13.323 13.6103C13.323 13.8447 13.2928 13.9203 13.1718 13.9505C13.066 13.9732 13.0206 14.0564 13.0206 14.1849C13.0206 14.3285 12.9828 14.3814 12.8694 14.3814C12.7409 14.3814 12.7182 14.4344 12.7182 14.6838C12.7182 14.9333 12.6955 14.9863 12.567 14.9863C12.4385 14.9863 12.4158 15.0392 12.4158 15.2962C12.4158 15.5381 12.3856 15.6137 12.2722 15.644C12.1739 15.6667 12.1058 15.7725 12.0756 15.9691C12.0454 16.1656 11.9773 16.2715 11.879 16.2942C11.7959 16.3168 11.7354 16.4 11.7354 16.4907C11.7354 16.5814 11.69 16.6495 11.6296 16.6495C11.554 16.6495 11.501 16.7704 11.4632 16.9897C11.4254 17.2543 11.3876 17.3299 11.2742 17.3299C11.1608 17.3299 11.1306 17.3828 11.1306 17.6323C11.1306 17.8818 11.1079 17.9347 10.9794 17.9347C10.866 17.9347 10.8282 17.9876 10.8282 18.1237C10.8282 18.2598 10.7904 18.3127 10.6845 18.3127C10.5711 18.3127 10.5333 18.3883 10.4955 18.6529C10.4502 18.9251 10.4124 18.9931 10.2914 18.9931C10.1856 18.9931 10.1478 19.046 10.1478 19.1821C10.1478 19.2955 10.1024 19.3711 10.0344 19.3711C9.95876 19.3711 9.90584 19.477 9.8756 19.6735C9.8378 19.9003 9.79244 19.9759 9.6866 19.9759C9.58076 19.9759 9.54296 20.0289 9.54296 20.1649C9.54296 20.301 9.50515 20.354 9.39931 20.354C9.28591 20.354 9.24055 20.4296 9.20275 20.6564C9.17251 20.8454 9.11203 20.9588 9.04399 20.9588C8.9835 20.9588 8.93814 21.0268 8.93814 21.1175C8.93814 21.2082 8.87766 21.2914 8.7945 21.3141C8.69622 21.3368 8.62818 21.4426 8.59794 21.6467C8.54502 21.934 8.53746 21.9416 8.25017 21.9416C7.95533 21.9416 7.95533 21.9416 7.95533 21.6392C7.95533 21.3897 7.93265 21.3368 7.80412 21.3368C7.69072 21.3368 7.65292 21.2838 7.65292 21.1478C7.65292 21.0117 7.61512 20.9588 7.50928 20.9588C7.39588 20.9588 7.35052 20.8832 7.31271 20.6639C7.28247 20.4598 7.21443 20.354 7.11615 20.3313C7.03299 20.3086 6.97251 20.2254 6.97251 20.1347C6.97251 20.0289 6.92715 19.9759 6.82131 19.9759C6.69278 19.9759 6.6701 19.923 6.6701 19.6735C6.6701 19.4241 6.64742 19.3711 6.5189 19.3711C6.4055 19.3711 6.3677 19.3182 6.3677 19.1821C6.3677 19.046 6.3299 18.9931 6.21649 18.9931C6.08797 18.9931 6.06529 18.9402 6.06529 18.6832C6.06529 18.4412 6.03505 18.3656 5.91409 18.3354C5.83093 18.3127 5.76289 18.2296 5.76289 18.1464C5.76289 18.0632 5.70241 17.9801 5.61924 17.9574C5.52096 17.9347 5.45292 17.8289 5.42268 17.6247C5.38488 17.4055 5.33952 17.3299 5.22612 17.3299C5.10515 17.3299 5.08247 17.277 5.08247 16.9897C5.08247 16.7024 5.05979 16.6495 4.93127 16.6495C4.81787 16.6495 4.78007 16.5966 4.78007 16.4605C4.78007 16.3244 4.74227 16.2715 4.62887 16.2715C4.50034 16.2715 4.47766 16.2186 4.47766 15.9691C4.47766 15.7196 4.44742 15.6667 4.33402 15.6667C4.22062 15.6667 4.18282 15.5911 4.14502 15.3265C4.09966 15.0543 4.06186 14.9863 3.94089 14.9863C3.83505 14.9863 3.79725 14.9333 3.79725 14.7973C3.79725 14.6838 3.75189 14.6082 3.69141 14.6082C3.61581 14.6082 3.56289 14.4873 3.52509 14.268C3.48729 14.0034 3.44948 13.9278 3.33608 13.9278C3.22268 13.9278 3.19244 13.8749 3.19244 13.6254C3.19244 13.3759 3.16976 13.323 3.04124 13.323C2.91271 13.323 2.89003 13.2701 2.89003 12.9828C2.89003 12.6955 2.86735 12.6426 2.73883 12.6426C2.61787 12.6426 2.58763 12.5897 2.58763 12.3856C2.58763 11.9471 2.50447 11.6749 2.35326 11.6371C2.23986 11.6069 2.20962 11.5313 2.20962 11.2893C2.20962 11.0777 2.17938 10.9794 2.10378 10.9794C1.98282 10.9794 1.90722 10.6543 1.90722 10.1024C1.90722 9.74708 1.8921 9.69416 1.75601 9.69416C1.61237 9.69416 1.60481 9.64124 1.60481 8.37113C1.60481 7.10103 1.61237 7.04811 1.75601 7.04811C1.88454 7.04811 1.90722 6.99519 1.90722 6.75326C1.90722 6.32234 1.99038 5.98969 2.09622 5.98969C2.14914 5.98969 2.21718 5.84605 2.23986 5.64948C2.28522 5.37732 2.32302 5.30928 2.44399 5.30928C2.55739 5.30928 2.58763 5.25636 2.58763 5.01443C2.58763 4.78763 2.61787 4.71203 2.73883 4.68179C2.82955 4.65911 2.89003 4.57594 2.89003 4.48522C2.89003 4.37938 2.9354 4.32646 3.04124 4.32646C3.15464 4.32646 3.19244 4.27354 3.19244 4.13746C3.19244 4.00137 3.23024 3.94845 3.34364 3.94845C3.44192 3.94845 3.49485 3.89553 3.49485 3.79725C3.49485 3.69897 3.54777 3.64605 3.63849 3.64605C3.73677 3.64605 3.79725 3.58557 3.81237 3.47216C3.82749 3.36632 3.89553 3.29828 4.00893 3.28316C4.11478 3.26804 4.17526 3.20756 4.17526 3.10928C4.17526 3.01856 4.22818 2.96564 4.32646 2.96564C4.42474 2.96564 4.47766 2.91271 4.47766 2.81443C4.47766 2.68591 4.53058 2.66323 4.78007 2.66323C5.02955 2.66323 5.08247 2.64055 5.08247 2.51959C5.08247 2.39862 5.15052 2.36082 5.42268 2.31546C5.68728 2.27766 5.76289 2.23986 5.76289 2.12646C5.76289 1.99794 5.82337 1.98282 6.22405 1.98282C6.61718 1.98282 6.69278 1.96014 6.72302 1.83162C6.76082 1.68797 6.82887 1.68041 8.30309 1.68041C9.79244 1.68041 9.84536 1.68797 9.84536 1.83162ZM15.2887 2.81443C15.2887 2.91271 15.3416 2.96564 15.4399 2.96564C15.5684 2.96564 15.5911 3.01856 15.5911 3.30584V3.64605H14.646C13.7615 3.64605 13.701 3.63849 13.701 3.50241C13.701 3.40412 13.6405 3.34364 13.5347 3.32852C13.4213 3.3134 13.3533 3.24536 13.3381 3.13196C13.323 3.02612 13.2625 2.96564 13.1643 2.96564C13.0735 2.96564 13.0206 2.91271 13.0206 2.81443C13.0206 2.67079 13.0735 2.66323 14.1546 2.66323C15.2357 2.66323 15.2887 2.67079 15.2887 2.81443ZM19.3711 4.47766C19.3711 4.59106 19.4241 4.62887 19.5601 4.62887C19.6962 4.62887 19.7491 4.66667 19.7491 4.77251C19.7491 4.84811 19.8172 4.93127 19.9003 4.95395C19.9911 4.97663 20.0515 5.05979 20.0515 5.15051C20.0515 5.25636 20.0969 5.30928 20.2027 5.30928C20.3313 5.30928 20.354 5.3622 20.354 5.64948C20.354 5.93677 20.3766 5.98969 20.5052 5.98969C20.6412 5.98969 20.6564 6.04261 20.6564 6.4811C20.6564 6.91959 20.6715 6.97251 20.8076 6.97251C20.9361 6.97251 20.9588 7.02543 20.9588 7.31271C20.9588 7.6 20.9814 7.65292 21.11 7.65292C21.2309 7.65292 21.2612 7.70584 21.2612 7.90997C21.2612 8.31065 21.3443 8.63574 21.4577 8.63574C21.5182 8.63574 21.5711 8.77182 21.6089 8.97594C21.6543 9.30859 21.6619 9.31615 21.9491 9.31615C22.1911 9.31615 22.244 9.29347 22.244 9.16495C22.244 9.02887 22.2969 9.01375 22.8866 9.01375C23.4763 9.01375 23.5292 9.02887 23.5292 9.16495C23.5292 9.26323 23.5821 9.31615 23.6804 9.31615C23.7938 9.31615 23.8316 9.36907 23.8316 9.50515C23.8316 9.64124 23.8694 9.69416 23.9828 9.69416C24.1113 9.69416 24.134 9.74708 24.134 9.99656V10.299H23.189H22.244V10.488C22.244 10.6241 22.2818 10.677 22.3876 10.677C22.501 10.677 22.5464 10.7526 22.5842 10.9794C22.6144 11.1684 22.6749 11.2818 22.743 11.2818C22.8034 11.2818 22.8488 11.3498 22.8488 11.4405C22.8488 11.5313 22.9093 11.6144 23 11.6371C23.1058 11.6674 23.1588 11.7656 23.1966 12.0076C23.2192 12.1966 23.2873 12.3402 23.3402 12.3402C23.3931 12.3402 23.4536 12.446 23.4838 12.5746C23.5065 12.7031 23.5292 14.646 23.5292 16.8838V20.9588H22.4405H21.3594L21.3065 20.7244C21.2838 20.5959 21.2612 20.2179 21.2612 19.8928V19.2955H16.0447C10.8811 19.2955 10.8282 19.2955 10.8282 19.1443C10.8282 19.046 10.8811 18.9931 10.9794 18.9931C11.0928 18.9931 11.1306 18.9402 11.1306 18.8041C11.1306 18.668 11.1684 18.6151 11.2818 18.6151C11.4103 18.6151 11.433 18.5622 11.433 18.3127C11.433 18.0632 11.4557 18.0103 11.5842 18.0103C11.6976 18.0103 11.7354 17.9574 11.7354 17.8213C11.7354 17.6701 11.7732 17.6323 11.9244 17.6323C12.0605 17.6323 12.1134 17.6701 12.1134 17.7835C12.1134 17.912 12.1663 17.9347 12.4158 17.9347H12.7182V17.6323V17.3299H12.4158C12.1436 17.3299 12.1134 17.3072 12.1134 17.1409C12.1134 17.0048 12.1512 16.9519 12.2646 16.9519C12.3931 16.9519 12.4158 16.899 12.4158 16.6495C12.4158 16.4 12.4385 16.3471 12.567 16.3471C12.6804 16.3471 12.7182 16.2942 12.7182 16.1581C12.7182 16.022 12.756 15.9691 12.8694 15.9691C12.9979 15.9691 13.0206 15.9162 13.0206 15.6289C13.0206 15.3416 13.0433 15.2887 13.1718 15.2887C13.2701 15.2887 13.323 15.2357 13.323 15.1375C13.323 14.9938 13.3759 14.9863 15.2509 14.9863H17.1787V14.646V14.3058H15.4399C13.7842 14.3058 13.701 14.2983 13.701 14.1622C13.701 14.0866 13.7691 14.0034 13.8522 13.9808C13.9732 13.9505 14.0034 13.8749 14.0034 13.633V13.323H15.8935H17.7835V12.9828V12.6426H16.1959H14.6082V12.3024C14.6082 12.0151 14.6309 11.9622 14.7594 11.9622C14.8804 11.9622 14.9107 11.9093 14.9107 11.7052C14.9107 11.3045 14.9938 10.9794 15.0997 10.9794C15.2055 10.9794 15.2887 10.6467 15.2887 10.2158C15.2887 10.0192 15.3189 9.92096 15.3945 9.92096C15.5457 9.92096 15.5911 9.5732 15.5911 8.48454C15.5911 7.39588 15.5457 7.04811 15.3945 7.04811C15.3189 7.04811 15.2887 6.94983 15.2887 6.75326C15.2887 6.31478 15.2055 5.98969 15.0921 5.98969C15.0316 5.98969 14.9787 5.85361 14.9409 5.64948C14.9107 5.44536 14.8577 5.30928 14.7897 5.30928C14.7292 5.30928 14.6763 5.17319 14.6385 4.96907C14.6007 4.70447 14.5629 4.62887 14.4495 4.62887C14.3588 4.62887 14.3058 4.57594 14.3058 4.47766C14.3058 4.32646 14.3588 4.32646 16.8385 4.32646C19.3182 4.32646 19.3711 4.32646 19.3711 4.47766Z"/>
</mask>
<path d="M6.7457 1.1512C6.7457 1.28728 6.69278 1.3024 6.24674 1.3024C5.81581 1.3024 5.74021 1.32508 5.70997 1.44605C5.68728 1.54433 5.58144 1.61237 5.37732 1.64261C5.211 1.67285 5.08247 1.73333 5.08247 1.79381C5.08247 1.8543 4.95395 1.91478 4.78007 1.94502C4.56082 1.98282 4.47766 2.03574 4.47766 2.13402C4.47766 2.2323 4.3945 2.27766 4.18282 2.31546C3.97869 2.3457 3.88041 2.40619 3.85017 2.51203C3.82749 2.60275 3.74433 2.66323 3.65361 2.66323C3.54777 2.66323 3.49485 2.70859 3.49485 2.81443C3.49485 2.91271 3.44192 2.96564 3.34364 2.96564C3.23024 2.96564 3.19244 3.01856 3.19244 3.15464C3.19244 3.29072 3.15464 3.34364 3.04124 3.34364C2.94296 3.34364 2.89003 3.39656 2.89003 3.49484C2.89003 3.59313 2.83711 3.64605 2.73883 3.64605C2.63299 3.64605 2.58763 3.69897 2.58763 3.80481C2.58763 3.89553 2.52715 3.97869 2.44399 4.00137C2.3457 4.02405 2.27766 4.1299 2.24742 4.33402C2.20962 4.55326 2.16426 4.62887 2.05086 4.62887C1.9299 4.62887 1.90722 4.68179 1.90722 4.96907C1.90722 5.25636 1.88454 5.30928 1.75601 5.30928C1.62749 5.30928 1.60481 5.3622 1.60481 5.64948C1.60481 5.93677 1.58213 5.98969 1.45361 5.98969C1.31753 5.98969 1.30241 6.04261 1.30241 6.4811C1.30241 6.91959 1.28729 6.97251 1.1512 6.97251C1.00756 6.97251 1 7.02543 1 8.43917C1 9.8378 1.00756 9.90584 1.1512 9.94364C1.27973 9.97388 1.30241 10.0495 1.30241 10.4804C1.30241 10.9265 1.31753 10.9794 1.45361 10.9794C1.58969 10.9794 1.60481 11.0323 1.60481 11.4708C1.60481 11.9093 1.61993 11.9622 1.75601 11.9622C1.88454 11.9622 1.90722 12.0151 1.90722 12.3024C1.90722 12.5821 1.9299 12.6426 2.05086 12.6426C2.16426 12.6426 2.20206 12.7182 2.23986 12.9828C2.27766 13.1945 2.33058 13.323 2.39863 13.323C2.46667 13.323 2.51959 13.4515 2.55739 13.6632C2.59519 13.9278 2.63299 14.0034 2.74639 14.0034C2.86735 14.0034 2.89003 14.0639 2.89003 14.3436C2.89003 14.6309 2.91271 14.6838 3.04124 14.6838C3.16976 14.6838 3.19244 14.7368 3.19244 14.9863C3.19244 15.2357 3.22268 15.2887 3.33608 15.2887C3.44948 15.2887 3.48729 15.3643 3.52509 15.6289C3.56289 15.8481 3.61581 15.9691 3.69141 15.9691C3.75189 15.9691 3.79725 16.0371 3.79725 16.1278C3.79725 16.2186 3.85773 16.3017 3.94089 16.3244C4.03918 16.3471 4.10722 16.4529 4.13746 16.6495C4.1677 16.846 4.23574 16.9519 4.33402 16.9746C4.44742 17.0048 4.47766 17.0804 4.47766 17.3223C4.47766 17.5794 4.50034 17.6323 4.62887 17.6323C4.74227 17.6323 4.78007 17.6852 4.78007 17.8213C4.78007 17.9574 4.81787 18.0103 4.93127 18.0103C5.05979 18.0103 5.08247 18.0632 5.08247 18.3127C5.08247 18.5622 5.10515 18.6151 5.23368 18.6151C5.34708 18.6151 5.38488 18.668 5.38488 18.8041C5.38488 18.9402 5.42268 18.9931 5.52852 18.9931C5.64948 18.9931 5.68728 19.0612 5.73265 19.3333C5.77045 19.5979 5.80825 19.6735 5.92165 19.6735C6.01237 19.6735 6.06529 19.7265 6.06529 19.8247C6.06529 19.923 6.11821 19.9759 6.21649 19.9759C6.34502 19.9759 6.3677 20.0289 6.3677 20.3162C6.3677 20.6034 6.39038 20.6564 6.5189 20.6564C6.62474 20.6564 6.6701 20.7093 6.6701 20.8151C6.6701 20.9058 6.73058 20.989 6.81375 21.0117C6.91203 21.0344 6.98007 21.1402 7.01031 21.3443C7.04811 21.5636 7.09347 21.6392 7.20687 21.6392C7.31271 21.6392 7.35052 21.6921 7.35052 21.8282C7.35052 21.9643 7.38832 22.0172 7.50172 22.0172C7.63024 22.0172 7.65292 22.0701 7.65292 22.3196C7.65292 22.5691 7.6756 22.622 7.80412 22.622C7.91753 22.622 7.95533 22.6749 7.95533 22.811C7.95533 22.9773 7.98557 23 8.25773 23C8.5299 23 8.56014 22.9773 8.56014 22.811C8.56014 22.6749 8.59794 22.622 8.70378 22.622C8.81718 22.622 8.86254 22.5464 8.90034 22.3196C8.93814 22.0928 8.9835 22.0172 9.09691 22.0172C9.20275 22.0172 9.24055 21.9643 9.24055 21.8282C9.24055 21.6921 9.27835 21.6392 9.39175 21.6392C9.52027 21.6392 9.54296 21.5863 9.54296 21.3368C9.54296 21.0873 9.56564 21.0344 9.69416 21.0344C9.80756 21.0344 9.84536 20.9814 9.84536 20.8454C9.84536 20.7093 9.88316 20.6564 9.989 20.6564C10.1024 20.6564 10.1402 20.5808 10.178 20.3162L10.2309 19.9759H15.4474H20.6564V20.611C20.6564 21.2158 20.6639 21.2536 20.8302 21.2763C20.9361 21.2914 21.0041 21.3595 21.0192 21.4653C21.0419 21.6392 21.0495 21.6392 22.4405 21.6392H23.8316V21.4502C23.8316 21.3141 23.8694 21.2612 23.9828 21.2612C24.134 21.2612 24.134 21.2082 24.134 16.8007C24.134 12.3931 24.134 12.3402 23.9828 12.3402C23.8543 12.3402 23.8316 12.2873 23.8316 12C23.8316 11.7127 23.8089 11.6598 23.6804 11.6598C23.5519 11.6598 23.5292 11.6069 23.5292 11.3196V10.9794H24.1794H24.8371L24.7918 10.4653C24.7615 10.1856 24.7388 9.88316 24.7388 9.78488C24.7388 9.69416 24.6935 9.61856 24.633 9.61856C24.5574 9.61856 24.5045 9.49759 24.4667 9.27835C24.4289 9.01375 24.3911 8.93814 24.2777 8.93814C24.1869 8.93814 24.134 8.88522 24.134 8.78694C24.134 8.68866 24.0811 8.63574 23.9828 8.63574C23.8845 8.63574 23.8316 8.58282 23.8316 8.48454C23.8316 8.34089 23.7787 8.33333 22.8866 8.33333H21.9416V7.99313C21.9416 7.70584 21.9189 7.65292 21.7904 7.65292C21.6619 7.65292 21.6392 7.6 21.6392 7.31271C21.6392 7.03299 21.6165 6.97251 21.4955 6.97251C21.3519 6.97251 21.2612 6.67766 21.2612 6.20893C21.2612 6.07285 21.2158 5.99725 21.11 5.96701C20.989 5.93677 20.9588 5.86117 20.9588 5.61924C20.9588 5.3622 20.9361 5.30928 20.8076 5.30928C20.679 5.30928 20.6564 5.25636 20.6564 4.96907C20.6564 4.68179 20.6337 4.62887 20.5052 4.62887C20.4069 4.62887 20.354 4.57594 20.354 4.47766C20.354 4.37938 20.301 4.32646 20.2103 4.32646C20.112 4.32646 20.0515 4.26598 20.0364 4.15258C20.0213 4.01649 19.9608 3.97869 19.734 3.96357C19.5072 3.94089 19.4467 3.91065 19.4467 3.78969C19.4467 3.65361 19.3787 3.64605 17.8667 3.64605H16.2942L16.2412 3.41168C16.2186 3.28316 16.1959 3.05636 16.1959 2.92027C16.1959 2.71615 16.1656 2.66323 16.0447 2.66323C15.9313 2.66323 15.8935 2.61031 15.8935 2.47423C15.8935 2.33814 15.8557 2.28522 15.7423 2.28522C15.644 2.28522 15.5911 2.2323 15.5911 2.13402C15.5911 1.98282 15.5381 1.98282 13.5498 1.98282C11.5993 1.98282 11.5086 1.97526 11.5086 1.83917C11.5086 1.72577 11.433 1.68797 11.1684 1.65017C10.8962 1.60481 10.8282 1.56701 10.8282 1.44605C10.8282 1.31753 10.7753 1.3024 10.3368 1.3024C9.89828 1.3024 9.84536 1.28728 9.84536 1.1512C9.84536 1.00756 9.79244 1 8.29553 1C6.79862 1 6.7457 1.00756 6.7457 1.1512ZM9.84536 1.83162C9.84536 1.9677 9.89828 1.98282 10.3368 1.98282C10.7677 1.98282 10.8282 1.99794 10.8282 2.12646C10.8282 2.23986 10.9038 2.28522 11.1306 2.32302C11.3574 2.36082 11.433 2.40619 11.433 2.51959C11.433 2.64055 11.4859 2.66323 11.7354 2.66323C11.9849 2.66323 12.0378 2.68591 12.0378 2.81443C12.0378 2.92784 12.0907 2.96564 12.2268 2.96564C12.3629 2.96564 12.4158 3.00344 12.4158 3.11684C12.4158 3.21512 12.4687 3.26804 12.567 3.26804C12.6804 3.26804 12.7182 3.32096 12.7182 3.45704C12.7182 3.59313 12.756 3.64605 12.8694 3.64605C12.9677 3.64605 13.0206 3.69897 13.0206 3.79725C13.0206 3.89553 13.0735 3.94845 13.1643 3.94845C13.2625 3.94845 13.323 4.00893 13.3381 4.11478C13.3533 4.22818 13.4213 4.29622 13.5347 4.31134C13.6557 4.33402 13.701 4.38694 13.701 4.52302C13.701 4.63643 13.7464 4.70447 13.8144 4.70447C13.89 4.70447 13.943 4.81031 13.9732 5.00687C14.011 5.23368 14.0564 5.30928 14.1622 5.30928C14.2832 5.30928 14.3058 5.36976 14.3058 5.64948C14.3058 5.93677 14.3285 5.98969 14.457 5.98969C14.5931 5.98969 14.6082 6.04261 14.6082 6.39794C14.6082 6.94983 14.6838 7.27491 14.8048 7.27491C14.888 7.27491 14.9107 7.50928 14.9107 8.48454C14.9107 9.45979 14.888 9.69416 14.8048 9.69416C14.6838 9.69416 14.6082 10.0192 14.6082 10.5711C14.6082 10.9265 14.5931 10.9794 14.457 10.9794C14.3285 10.9794 14.3058 11.0323 14.3058 11.3196C14.3058 11.6069 14.2832 11.6598 14.1546 11.6598C14.0337 11.6598 14.0034 11.7127 14.0034 11.9168C14.0034 12.3175 13.9203 12.6426 13.8144 12.6426C13.754 12.6426 13.6935 12.7711 13.6632 12.9375C13.633 13.1416 13.5649 13.2474 13.4667 13.2701C13.3533 13.3003 13.323 13.3759 13.323 13.6103C13.323 13.8447 13.2928 13.9203 13.1718 13.9505C13.066 13.9732 13.0206 14.0564 13.0206 14.1849C13.0206 14.3285 12.9828 14.3814 12.8694 14.3814C12.7409 14.3814 12.7182 14.4344 12.7182 14.6838C12.7182 14.9333 12.6955 14.9863 12.567 14.9863C12.4385 14.9863 12.4158 15.0392 12.4158 15.2962C12.4158 15.5381 12.3856 15.6137 12.2722 15.644C12.1739 15.6667 12.1058 15.7725 12.0756 15.9691C12.0454 16.1656 11.9773 16.2715 11.879 16.2942C11.7959 16.3168 11.7354 16.4 11.7354 16.4907C11.7354 16.5814 11.69 16.6495 11.6296 16.6495C11.554 16.6495 11.501 16.7704 11.4632 16.9897C11.4254 17.2543 11.3876 17.3299 11.2742 17.3299C11.1608 17.3299 11.1306 17.3828 11.1306 17.6323C11.1306 17.8818 11.1079 17.9347 10.9794 17.9347C10.866 17.9347 10.8282 17.9876 10.8282 18.1237C10.8282 18.2598 10.7904 18.3127 10.6845 18.3127C10.5711 18.3127 10.5333 18.3883 10.4955 18.6529C10.4502 18.9251 10.4124 18.9931 10.2914 18.9931C10.1856 18.9931 10.1478 19.046 10.1478 19.1821C10.1478 19.2955 10.1024 19.3711 10.0344 19.3711C9.95876 19.3711 9.90584 19.477 9.8756 19.6735C9.8378 19.9003 9.79244 19.9759 9.6866 19.9759C9.58076 19.9759 9.54296 20.0289 9.54296 20.1649C9.54296 20.301 9.50515 20.354 9.39931 20.354C9.28591 20.354 9.24055 20.4296 9.20275 20.6564C9.17251 20.8454 9.11203 20.9588 9.04399 20.9588C8.9835 20.9588 8.93814 21.0268 8.93814 21.1175C8.93814 21.2082 8.87766 21.2914 8.7945 21.3141C8.69622 21.3368 8.62818 21.4426 8.59794 21.6467C8.54502 21.934 8.53746 21.9416 8.25017 21.9416C7.95533 21.9416 7.95533 21.9416 7.95533 21.6392C7.95533 21.3897 7.93265 21.3368 7.80412 21.3368C7.69072 21.3368 7.65292 21.2838 7.65292 21.1478C7.65292 21.0117 7.61512 20.9588 7.50928 20.9588C7.39588 20.9588 7.35052 20.8832 7.31271 20.6639C7.28247 20.4598 7.21443 20.354 7.11615 20.3313C7.03299 20.3086 6.97251 20.2254 6.97251 20.1347C6.97251 20.0289 6.92715 19.9759 6.82131 19.9759C6.69278 19.9759 6.6701 19.923 6.6701 19.6735C6.6701 19.4241 6.64742 19.3711 6.5189 19.3711C6.4055 19.3711 6.3677 19.3182 6.3677 19.1821C6.3677 19.046 6.3299 18.9931 6.21649 18.9931C6.08797 18.9931 6.06529 18.9402 6.06529 18.6832C6.06529 18.4412 6.03505 18.3656 5.91409 18.3354C5.83093 18.3127 5.76289 18.2296 5.76289 18.1464C5.76289 18.0632 5.70241 17.9801 5.61924 17.9574C5.52096 17.9347 5.45292 17.8289 5.42268 17.6247C5.38488 17.4055 5.33952 17.3299 5.22612 17.3299C5.10515 17.3299 5.08247 17.277 5.08247 16.9897C5.08247 16.7024 5.05979 16.6495 4.93127 16.6495C4.81787 16.6495 4.78007 16.5966 4.78007 16.4605C4.78007 16.3244 4.74227 16.2715 4.62887 16.2715C4.50034 16.2715 4.47766 16.2186 4.47766 15.9691C4.47766 15.7196 4.44742 15.6667 4.33402 15.6667C4.22062 15.6667 4.18282 15.5911 4.14502 15.3265C4.09966 15.0543 4.06186 14.9863 3.94089 14.9863C3.83505 14.9863 3.79725 14.9333 3.79725 14.7973C3.79725 14.6838 3.75189 14.6082 3.69141 14.6082C3.61581 14.6082 3.56289 14.4873 3.52509 14.268C3.48729 14.0034 3.44948 13.9278 3.33608 13.9278C3.22268 13.9278 3.19244 13.8749 3.19244 13.6254C3.19244 13.3759 3.16976 13.323 3.04124 13.323C2.91271 13.323 2.89003 13.2701 2.89003 12.9828C2.89003 12.6955 2.86735 12.6426 2.73883 12.6426C2.61787 12.6426 2.58763 12.5897 2.58763 12.3856C2.58763 11.9471 2.50447 11.6749 2.35326 11.6371C2.23986 11.6069 2.20962 11.5313 2.20962 11.2893C2.20962 11.0777 2.17938 10.9794 2.10378 10.9794C1.98282 10.9794 1.90722 10.6543 1.90722 10.1024C1.90722 9.74708 1.8921 9.69416 1.75601 9.69416C1.61237 9.69416 1.60481 9.64124 1.60481 8.37113C1.60481 7.10103 1.61237 7.04811 1.75601 7.04811C1.88454 7.04811 1.90722 6.99519 1.90722 6.75326C1.90722 6.32234 1.99038 5.98969 2.09622 5.98969C2.14914 5.98969 2.21718 5.84605 2.23986 5.64948C2.28522 5.37732 2.32302 5.30928 2.44399 5.30928C2.55739 5.30928 2.58763 5.25636 2.58763 5.01443C2.58763 4.78763 2.61787 4.71203 2.73883 4.68179C2.82955 4.65911 2.89003 4.57594 2.89003 4.48522C2.89003 4.37938 2.9354 4.32646 3.04124 4.32646C3.15464 4.32646 3.19244 4.27354 3.19244 4.13746C3.19244 4.00137 3.23024 3.94845 3.34364 3.94845C3.44192 3.94845 3.49485 3.89553 3.49485 3.79725C3.49485 3.69897 3.54777 3.64605 3.63849 3.64605C3.73677 3.64605 3.79725 3.58557 3.81237 3.47216C3.82749 3.36632 3.89553 3.29828 4.00893 3.28316C4.11478 3.26804 4.17526 3.20756 4.17526 3.10928C4.17526 3.01856 4.22818 2.96564 4.32646 2.96564C4.42474 2.96564 4.47766 2.91271 4.47766 2.81443C4.47766 2.68591 4.53058 2.66323 4.78007 2.66323C5.02955 2.66323 5.08247 2.64055 5.08247 2.51959C5.08247 2.39862 5.15052 2.36082 5.42268 2.31546C5.68728 2.27766 5.76289 2.23986 5.76289 2.12646C5.76289 1.99794 5.82337 1.98282 6.22405 1.98282C6.61718 1.98282 6.69278 1.96014 6.72302 1.83162C6.76082 1.68797 6.82887 1.68041 8.30309 1.68041C9.79244 1.68041 9.84536 1.68797 9.84536 1.83162ZM15.2887 2.81443C15.2887 2.91271 15.3416 2.96564 15.4399 2.96564C15.5684 2.96564 15.5911 3.01856 15.5911 3.30584V3.64605H14.646C13.7615 3.64605 13.701 3.63849 13.701 3.50241C13.701 3.40412 13.6405 3.34364 13.5347 3.32852C13.4213 3.3134 13.3533 3.24536 13.3381 3.13196C13.323 3.02612 13.2625 2.96564 13.1643 2.96564C13.0735 2.96564 13.0206 2.91271 13.0206 2.81443C13.0206 2.67079 13.0735 2.66323 14.1546 2.66323C15.2357 2.66323 15.2887 2.67079 15.2887 2.81443ZM19.3711 4.47766C19.3711 4.59106 19.4241 4.62887 19.5601 4.62887C19.6962 4.62887 19.7491 4.66667 19.7491 4.77251C19.7491 4.84811 19.8172 4.93127 19.9003 4.95395C19.9911 4.97663 20.0515 5.05979 20.0515 5.15051C20.0515 5.25636 20.0969 5.30928 20.2027 5.30928C20.3313 5.30928 20.354 5.3622 20.354 5.64948C20.354 5.93677 20.3766 5.98969 20.5052 5.98969C20.6412 5.98969 20.6564 6.04261 20.6564 6.4811C20.6564 6.91959 20.6715 6.97251 20.8076 6.97251C20.9361 6.97251 20.9588 7.02543 20.9588 7.31271C20.9588 7.6 20.9814 7.65292 21.11 7.65292C21.2309 7.65292 21.2612 7.70584 21.2612 7.90997C21.2612 8.31065 21.3443 8.63574 21.4577 8.63574C21.5182 8.63574 21.5711 8.77182 21.6089 8.97594C21.6543 9.30859 21.6619 9.31615 21.9491 9.31615C22.1911 9.31615 22.244 9.29347 22.244 9.16495C22.244 9.02887 22.2969 9.01375 22.8866 9.01375C23.4763 9.01375 23.5292 9.02887 23.5292 9.16495C23.5292 9.26323 23.5821 9.31615 23.6804 9.31615C23.7938 9.31615 23.8316 9.36907 23.8316 9.50515C23.8316 9.64124 23.8694 9.69416 23.9828 9.69416C24.1113 9.69416 24.134 9.74708 24.134 9.99656V10.299H23.189H22.244V10.488C22.244 10.6241 22.2818 10.677 22.3876 10.677C22.501 10.677 22.5464 10.7526 22.5842 10.9794C22.6144 11.1684 22.6749 11.2818 22.743 11.2818C22.8034 11.2818 22.8488 11.3498 22.8488 11.4405C22.8488 11.5313 22.9093 11.6144 23 11.6371C23.1058 11.6674 23.1588 11.7656 23.1966 12.0076C23.2192 12.1966 23.2873 12.3402 23.3402 12.3402C23.3931 12.3402 23.4536 12.446 23.4838 12.5746C23.5065 12.7031 23.5292 14.646 23.5292 16.8838V20.9588H22.4405H21.3594L21.3065 20.7244C21.2838 20.5959 21.2612 20.2179 21.2612 19.8928V19.2955H16.0447C10.8811 19.2955 10.8282 19.2955 10.8282 19.1443C10.8282 19.046 10.8811 18.9931 10.9794 18.9931C11.0928 18.9931 11.1306 18.9402 11.1306 18.8041C11.1306 18.668 11.1684 18.6151 11.2818 18.6151C11.4103 18.6151 11.433 18.5622 11.433 18.3127C11.433 18.0632 11.4557 18.0103 11.5842 18.0103C11.6976 18.0103 11.7354 17.9574 11.7354 17.8213C11.7354 17.6701 11.7732 17.6323 11.9244 17.6323C12.0605 17.6323 12.1134 17.6701 12.1134 17.7835C12.1134 17.912 12.1663 17.9347 12.4158 17.9347H12.7182V17.6323V17.3299H12.4158C12.1436 17.3299 12.1134 17.3072 12.1134 17.1409C12.1134 17.0048 12.1512 16.9519 12.2646 16.9519C12.3931 16.9519 12.4158 16.899 12.4158 16.6495C12.4158 16.4 12.4385 16.3471 12.567 16.3471C12.6804 16.3471 12.7182 16.2942 12.7182 16.1581C12.7182 16.022 12.756 15.9691 12.8694 15.9691C12.9979 15.9691 13.0206 15.9162 13.0206 15.6289C13.0206 15.3416 13.0433 15.2887 13.1718 15.2887C13.2701 15.2887 13.323 15.2357 13.323 15.1375C13.323 14.9938 13.3759 14.9863 15.2509 14.9863H17.1787V14.646V14.3058H15.4399C13.7842 14.3058 13.701 14.2983 13.701 14.1622C13.701 14.0866 13.7691 14.0034 13.8522 13.9808C13.9732 13.9505 14.0034 13.8749 14.0034 13.633V13.323H15.8935H17.7835V12.9828V12.6426H16.1959H14.6082V12.3024C14.6082 12.0151 14.6309 11.9622 14.7594 11.9622C14.8804 11.9622 14.9107 11.9093 14.9107 11.7052C14.9107 11.3045 14.9938 10.9794 15.0997 10.9794C15.2055 10.9794 15.2887 10.6467 15.2887 10.2158C15.2887 10.0192 15.3189 9.92096 15.3945 9.92096C15.5457 9.92096 15.5911 9.5732 15.5911 8.48454C15.5911 7.39588 15.5457 7.04811 15.3945 7.04811C15.3189 7.04811 15.2887 6.94983 15.2887 6.75326C15.2887 6.31478 15.2055 5.98969 15.0921 5.98969C15.0316 5.98969 14.9787 5.85361 14.9409 5.64948C14.9107 5.44536 14.8577 5.30928 14.7897 5.30928C14.7292 5.30928 14.6763 5.17319 14.6385 4.96907C14.6007 4.70447 14.5629 4.62887 14.4495 4.62887C14.3588 4.62887 14.3058 4.57594 14.3058 4.47766C14.3058 4.32646 14.3588 4.32646 16.8385 4.32646C19.3182 4.32646 19.3711 4.32646 19.3711 4.47766Z" fill="#F37A20"/>
<path d="M6.7457 1.1512C6.7457 1.28728 6.69278 1.3024 6.24674 1.3024C5.81581 1.3024 5.74021 1.32508 5.70997 1.44605C5.68728 1.54433 5.58144 1.61237 5.37732 1.64261C5.211 1.67285 5.08247 1.73333 5.08247 1.79381C5.08247 1.8543 4.95395 1.91478 4.78007 1.94502C4.56082 1.98282 4.47766 2.03574 4.47766 2.13402C4.47766 2.2323 4.3945 2.27766 4.18282 2.31546C3.97869 2.3457 3.88041 2.40619 3.85017 2.51203C3.82749 2.60275 3.74433 2.66323 3.65361 2.66323C3.54777 2.66323 3.49485 2.70859 3.49485 2.81443C3.49485 2.91271 3.44192 2.96564 3.34364 2.96564C3.23024 2.96564 3.19244 3.01856 3.19244 3.15464C3.19244 3.29072 3.15464 3.34364 3.04124 3.34364C2.94296 3.34364 2.89003 3.39656 2.89003 3.49484C2.89003 3.59313 2.83711 3.64605 2.73883 3.64605C2.63299 3.64605 2.58763 3.69897 2.58763 3.80481C2.58763 3.89553 2.52715 3.97869 2.44399 4.00137C2.3457 4.02405 2.27766 4.1299 2.24742 4.33402C2.20962 4.55326 2.16426 4.62887 2.05086 4.62887C1.9299 4.62887 1.90722 4.68179 1.90722 4.96907C1.90722 5.25636 1.88454 5.30928 1.75601 5.30928C1.62749 5.30928 1.60481 5.3622 1.60481 5.64948C1.60481 5.93677 1.58213 5.98969 1.45361 5.98969C1.31753 5.98969 1.30241 6.04261 1.30241 6.4811C1.30241 6.91959 1.28729 6.97251 1.1512 6.97251C1.00756 6.97251 1 7.02543 1 8.43917C1 9.8378 1.00756 9.90584 1.1512 9.94364C1.27973 9.97388 1.30241 10.0495 1.30241 10.4804C1.30241 10.9265 1.31753 10.9794 1.45361 10.9794C1.58969 10.9794 1.60481 11.0323 1.60481 11.4708C1.60481 11.9093 1.61993 11.9622 1.75601 11.9622C1.88454 11.9622 1.90722 12.0151 1.90722 12.3024C1.90722 12.5821 1.9299 12.6426 2.05086 12.6426C2.16426 12.6426 2.20206 12.7182 2.23986 12.9828C2.27766 13.1945 2.33058 13.323 2.39863 13.323C2.46667 13.323 2.51959 13.4515 2.55739 13.6632C2.59519 13.9278 2.63299 14.0034 2.74639 14.0034C2.86735 14.0034 2.89003 14.0639 2.89003 14.3436C2.89003 14.6309 2.91271 14.6838 3.04124 14.6838C3.16976 14.6838 3.19244 14.7368 3.19244 14.9863C3.19244 15.2357 3.22268 15.2887 3.33608 15.2887C3.44948 15.2887 3.48729 15.3643 3.52509 15.6289C3.56289 15.8481 3.61581 15.9691 3.69141 15.9691C3.75189 15.9691 3.79725 16.0371 3.79725 16.1278C3.79725 16.2186 3.85773 16.3017 3.94089 16.3244C4.03918 16.3471 4.10722 16.4529 4.13746 16.6495C4.1677 16.846 4.23574 16.9519 4.33402 16.9746C4.44742 17.0048 4.47766 17.0804 4.47766 17.3223C4.47766 17.5794 4.50034 17.6323 4.62887 17.6323C4.74227 17.6323 4.78007 17.6852 4.78007 17.8213C4.78007 17.9574 4.81787 18.0103 4.93127 18.0103C5.05979 18.0103 5.08247 18.0632 5.08247 18.3127C5.08247 18.5622 5.10515 18.6151 5.23368 18.6151C5.34708 18.6151 5.38488 18.668 5.38488 18.8041C5.38488 18.9402 5.42268 18.9931 5.52852 18.9931C5.64948 18.9931 5.68728 19.0612 5.73265 19.3333C5.77045 19.5979 5.80825 19.6735 5.92165 19.6735C6.01237 19.6735 6.06529 19.7265 6.06529 19.8247C6.06529 19.923 6.11821 19.9759 6.21649 19.9759C6.34502 19.9759 6.3677 20.0289 6.3677 20.3162C6.3677 20.6034 6.39038 20.6564 6.5189 20.6564C6.62474 20.6564 6.6701 20.7093 6.6701 20.8151C6.6701 20.9058 6.73058 20.989 6.81375 21.0117C6.91203 21.0344 6.98007 21.1402 7.01031 21.3443C7.04811 21.5636 7.09347 21.6392 7.20687 21.6392C7.31271 21.6392 7.35052 21.6921 7.35052 21.8282C7.35052 21.9643 7.38832 22.0172 7.50172 22.0172C7.63024 22.0172 7.65292 22.0701 7.65292 22.3196C7.65292 22.5691 7.6756 22.622 7.80412 22.622C7.91753 22.622 7.95533 22.6749 7.95533 22.811C7.95533 22.9773 7.98557 23 8.25773 23C8.5299 23 8.56014 22.9773 8.56014 22.811C8.56014 22.6749 8.59794 22.622 8.70378 22.622C8.81718 22.622 8.86254 22.5464 8.90034 22.3196C8.93814 22.0928 8.9835 22.0172 9.09691 22.0172C9.20275 22.0172 9.24055 21.9643 9.24055 21.8282C9.24055 21.6921 9.27835 21.6392 9.39175 21.6392C9.52027 21.6392 9.54296 21.5863 9.54296 21.3368C9.54296 21.0873 9.56564 21.0344 9.69416 21.0344C9.80756 21.0344 9.84536 20.9814 9.84536 20.8454C9.84536 20.7093 9.88316 20.6564 9.989 20.6564C10.1024 20.6564 10.1402 20.5808 10.178 20.3162L10.2309 19.9759H15.4474H20.6564V20.611C20.6564 21.2158 20.6639 21.2536 20.8302 21.2763C20.9361 21.2914 21.0041 21.3595 21.0192 21.4653C21.0419 21.6392 21.0495 21.6392 22.4405 21.6392H23.8316V21.4502C23.8316 21.3141 23.8694 21.2612 23.9828 21.2612C24.134 21.2612 24.134 21.2082 24.134 16.8007C24.134 12.3931 24.134 12.3402 23.9828 12.3402C23.8543 12.3402 23.8316 12.2873 23.8316 12C23.8316 11.7127 23.8089 11.6598 23.6804 11.6598C23.5519 11.6598 23.5292 11.6069 23.5292 11.3196V10.9794H24.1794H24.8371L24.7918 10.4653C24.7615 10.1856 24.7388 9.88316 24.7388 9.78488C24.7388 9.69416 24.6935 9.61856 24.633 9.61856C24.5574 9.61856 24.5045 9.49759 24.4667 9.27835C24.4289 9.01375 24.3911 8.93814 24.2777 8.93814C24.1869 8.93814 24.134 8.88522 24.134 8.78694C24.134 8.68866 24.0811 8.63574 23.9828 8.63574C23.8845 8.63574 23.8316 8.58282 23.8316 8.48454C23.8316 8.34089 23.7787 8.33333 22.8866 8.33333H21.9416V7.99313C21.9416 7.70584 21.9189 7.65292 21.7904 7.65292C21.6619 7.65292 21.6392 7.6 21.6392 7.31271C21.6392 7.03299 21.6165 6.97251 21.4955 6.97251C21.3519 6.97251 21.2612 6.67766 21.2612 6.20893C21.2612 6.07285 21.2158 5.99725 21.11 5.96701C20.989 5.93677 20.9588 5.86117 20.9588 5.61924C20.9588 5.3622 20.9361 5.30928 20.8076 5.30928C20.679 5.30928 20.6564 5.25636 20.6564 4.96907C20.6564 4.68179 20.6337 4.62887 20.5052 4.62887C20.4069 4.62887 20.354 4.57594 20.354 4.47766C20.354 4.37938 20.301 4.32646 20.2103 4.32646C20.112 4.32646 20.0515 4.26598 20.0364 4.15258C20.0213 4.01649 19.9608 3.97869 19.734 3.96357C19.5072 3.94089 19.4467 3.91065 19.4467 3.78969C19.4467 3.65361 19.3787 3.64605 17.8667 3.64605H16.2942L16.2412 3.41168C16.2186 3.28316 16.1959 3.05636 16.1959 2.92027C16.1959 2.71615 16.1656 2.66323 16.0447 2.66323C15.9313 2.66323 15.8935 2.61031 15.8935 2.47423C15.8935 2.33814 15.8557 2.28522 15.7423 2.28522C15.644 2.28522 15.5911 2.2323 15.5911 2.13402C15.5911 1.98282 15.5381 1.98282 13.5498 1.98282C11.5993 1.98282 11.5086 1.97526 11.5086 1.83917C11.5086 1.72577 11.433 1.68797 11.1684 1.65017C10.8962 1.60481 10.8282 1.56701 10.8282 1.44605C10.8282 1.31753 10.7753 1.3024 10.3368 1.3024C9.89828 1.3024 9.84536 1.28728 9.84536 1.1512C9.84536 1.00756 9.79244 1 8.29553 1C6.79862 1 6.7457 1.00756 6.7457 1.1512ZM9.84536 1.83162C9.84536 1.9677 9.89828 1.98282 10.3368 1.98282C10.7677 1.98282 10.8282 1.99794 10.8282 2.12646C10.8282 2.23986 10.9038 2.28522 11.1306 2.32302C11.3574 2.36082 11.433 2.40619 11.433 2.51959C11.433 2.64055 11.4859 2.66323 11.7354 2.66323C11.9849 2.66323 12.0378 2.68591 12.0378 2.81443C12.0378 2.92784 12.0907 2.96564 12.2268 2.96564C12.3629 2.96564 12.4158 3.00344 12.4158 3.11684C12.4158 3.21512 12.4687 3.26804 12.567 3.26804C12.6804 3.26804 12.7182 3.32096 12.7182 3.45704C12.7182 3.59313 12.756 3.64605 12.8694 3.64605C12.9677 3.64605 13.0206 3.69897 13.0206 3.79725C13.0206 3.89553 13.0735 3.94845 13.1643 3.94845C13.2625 3.94845 13.323 4.00893 13.3381 4.11478C13.3533 4.22818 13.4213 4.29622 13.5347 4.31134C13.6557 4.33402 13.701 4.38694 13.701 4.52302C13.701 4.63643 13.7464 4.70447 13.8144 4.70447C13.89 4.70447 13.943 4.81031 13.9732 5.00687C14.011 5.23368 14.0564 5.30928 14.1622 5.30928C14.2832 5.30928 14.3058 5.36976 14.3058 5.64948C14.3058 5.93677 14.3285 5.98969 14.457 5.98969C14.5931 5.98969 14.6082 6.04261 14.6082 6.39794C14.6082 6.94983 14.6838 7.27491 14.8048 7.27491C14.888 7.27491 14.9107 7.50928 14.9107 8.48454C14.9107 9.45979 14.888 9.69416 14.8048 9.69416C14.6838 9.69416 14.6082 10.0192 14.6082 10.5711C14.6082 10.9265 14.5931 10.9794 14.457 10.9794C14.3285 10.9794 14.3058 11.0323 14.3058 11.3196C14.3058 11.6069 14.2832 11.6598 14.1546 11.6598C14.0337 11.6598 14.0034 11.7127 14.0034 11.9168C14.0034 12.3175 13.9203 12.6426 13.8144 12.6426C13.754 12.6426 13.6935 12.7711 13.6632 12.9375C13.633 13.1416 13.5649 13.2474 13.4667 13.2701C13.3533 13.3003 13.323 13.3759 13.323 13.6103C13.323 13.8447 13.2928 13.9203 13.1718 13.9505C13.066 13.9732 13.0206 14.0564 13.0206 14.1849C13.0206 14.3285 12.9828 14.3814 12.8694 14.3814C12.7409 14.3814 12.7182 14.4344 12.7182 14.6838C12.7182 14.9333 12.6955 14.9863 12.567 14.9863C12.4385 14.9863 12.4158 15.0392 12.4158 15.2962C12.4158 15.5381 12.3856 15.6137 12.2722 15.644C12.1739 15.6667 12.1058 15.7725 12.0756 15.9691C12.0454 16.1656 11.9773 16.2715 11.879 16.2942C11.7959 16.3168 11.7354 16.4 11.7354 16.4907C11.7354 16.5814 11.69 16.6495 11.6296 16.6495C11.554 16.6495 11.501 16.7704 11.4632 16.9897C11.4254 17.2543 11.3876 17.3299 11.2742 17.3299C11.1608 17.3299 11.1306 17.3828 11.1306 17.6323C11.1306 17.8818 11.1079 17.9347 10.9794 17.9347C10.866 17.9347 10.8282 17.9876 10.8282 18.1237C10.8282 18.2598 10.7904 18.3127 10.6845 18.3127C10.5711 18.3127 10.5333 18.3883 10.4955 18.6529C10.4502 18.9251 10.4124 18.9931 10.2914 18.9931C10.1856 18.9931 10.1478 19.046 10.1478 19.1821C10.1478 19.2955 10.1024 19.3711 10.0344 19.3711C9.95876 19.3711 9.90584 19.477 9.8756 19.6735C9.8378 19.9003 9.79244 19.9759 9.6866 19.9759C9.58076 19.9759 9.54296 20.0289 9.54296 20.1649C9.54296 20.301 9.50515 20.354 9.39931 20.354C9.28591 20.354 9.24055 20.4296 9.20275 20.6564C9.17251 20.8454 9.11203 20.9588 9.04399 20.9588C8.9835 20.9588 8.93814 21.0268 8.93814 21.1175C8.93814 21.2082 8.87766 21.2914 8.7945 21.3141C8.69622 21.3368 8.62818 21.4426 8.59794 21.6467C8.54502 21.934 8.53746 21.9416 8.25017 21.9416C7.95533 21.9416 7.95533 21.9416 7.95533 21.6392C7.95533 21.3897 7.93265 21.3368 7.80412 21.3368C7.69072 21.3368 7.65292 21.2838 7.65292 21.1478C7.65292 21.0117 7.61512 20.9588 7.50928 20.9588C7.39588 20.9588 7.35052 20.8832 7.31271 20.6639C7.28247 20.4598 7.21443 20.354 7.11615 20.3313C7.03299 20.3086 6.97251 20.2254 6.97251 20.1347C6.97251 20.0289 6.92715 19.9759 6.82131 19.9759C6.69278 19.9759 6.6701 19.923 6.6701 19.6735C6.6701 19.4241 6.64742 19.3711 6.5189 19.3711C6.4055 19.3711 6.3677 19.3182 6.3677 19.1821C6.3677 19.046 6.3299 18.9931 6.21649 18.9931C6.08797 18.9931 6.06529 18.9402 6.06529 18.6832C6.06529 18.4412 6.03505 18.3656 5.91409 18.3354C5.83093 18.3127 5.76289 18.2296 5.76289 18.1464C5.76289 18.0632 5.70241 17.9801 5.61924 17.9574C5.52096 17.9347 5.45292 17.8289 5.42268 17.6247C5.38488 17.4055 5.33952 17.3299 5.22612 17.3299C5.10515 17.3299 5.08247 17.277 5.08247 16.9897C5.08247 16.7024 5.05979 16.6495 4.93127 16.6495C4.81787 16.6495 4.78007 16.5966 4.78007 16.4605C4.78007 16.3244 4.74227 16.2715 4.62887 16.2715C4.50034 16.2715 4.47766 16.2186 4.47766 15.9691C4.47766 15.7196 4.44742 15.6667 4.33402 15.6667C4.22062 15.6667 4.18282 15.5911 4.14502 15.3265C4.09966 15.0543 4.06186 14.9863 3.94089 14.9863C3.83505 14.9863 3.79725 14.9333 3.79725 14.7973C3.79725 14.6838 3.75189 14.6082 3.69141 14.6082C3.61581 14.6082 3.56289 14.4873 3.52509 14.268C3.48729 14.0034 3.44948 13.9278 3.33608 13.9278C3.22268 13.9278 3.19244 13.8749 3.19244 13.6254C3.19244 13.3759 3.16976 13.323 3.04124 13.323C2.91271 13.323 2.89003 13.2701 2.89003 12.9828C2.89003 12.6955 2.86735 12.6426 2.73883 12.6426C2.61787 12.6426 2.58763 12.5897 2.58763 12.3856C2.58763 11.9471 2.50447 11.6749 2.35326 11.6371C2.23986 11.6069 2.20962 11.5313 2.20962 11.2893C2.20962 11.0777 2.17938 10.9794 2.10378 10.9794C1.98282 10.9794 1.90722 10.6543 1.90722 10.1024C1.90722 9.74708 1.8921 9.69416 1.75601 9.69416C1.61237 9.69416 1.60481 9.64124 1.60481 8.37113C1.60481 7.10103 1.61237 7.04811 1.75601 7.04811C1.88454 7.04811 1.90722 6.99519 1.90722 6.75326C1.90722 6.32234 1.99038 5.98969 2.09622 5.98969C2.14914 5.98969 2.21718 5.84605 2.23986 5.64948C2.28522 5.37732 2.32302 5.30928 2.44399 5.30928C2.55739 5.30928 2.58763 5.25636 2.58763 5.01443C2.58763 4.78763 2.61787 4.71203 2.73883 4.68179C2.82955 4.65911 2.89003 4.57594 2.89003 4.48522C2.89003 4.37938 2.9354 4.32646 3.04124 4.32646C3.15464 4.32646 3.19244 4.27354 3.19244 4.13746C3.19244 4.00137 3.23024 3.94845 3.34364 3.94845C3.44192 3.94845 3.49485 3.89553 3.49485 3.79725C3.49485 3.69897 3.54777 3.64605 3.63849 3.64605C3.73677 3.64605 3.79725 3.58557 3.81237 3.47216C3.82749 3.36632 3.89553 3.29828 4.00893 3.28316C4.11478 3.26804 4.17526 3.20756 4.17526 3.10928C4.17526 3.01856 4.22818 2.96564 4.32646 2.96564C4.42474 2.96564 4.47766 2.91271 4.47766 2.81443C4.47766 2.68591 4.53058 2.66323 4.78007 2.66323C5.02955 2.66323 5.08247 2.64055 5.08247 2.51959C5.08247 2.39862 5.15052 2.36082 5.42268 2.31546C5.68728 2.27766 5.76289 2.23986 5.76289 2.12646C5.76289 1.99794 5.82337 1.98282 6.22405 1.98282C6.61718 1.98282 6.69278 1.96014 6.72302 1.83162C6.76082 1.68797 6.82887 1.68041 8.30309 1.68041C9.79244 1.68041 9.84536 1.68797 9.84536 1.83162ZM15.2887 2.81443C15.2887 2.91271 15.3416 2.96564 15.4399 2.96564C15.5684 2.96564 15.5911 3.01856 15.5911 3.30584V3.64605H14.646C13.7615 3.64605 13.701 3.63849 13.701 3.50241C13.701 3.40412 13.6405 3.34364 13.5347 3.32852C13.4213 3.3134 13.3533 3.24536 13.3381 3.13196C13.323 3.02612 13.2625 2.96564 13.1643 2.96564C13.0735 2.96564 13.0206 2.91271 13.0206 2.81443C13.0206 2.67079 13.0735 2.66323 14.1546 2.66323C15.2357 2.66323 15.2887 2.67079 15.2887 2.81443ZM19.3711 4.47766C19.3711 4.59106 19.4241 4.62887 19.5601 4.62887C19.6962 4.62887 19.7491 4.66667 19.7491 4.77251C19.7491 4.84811 19.8172 4.93127 19.9003 4.95395C19.9911 4.97663 20.0515 5.05979 20.0515 5.15051C20.0515 5.25636 20.0969 5.30928 20.2027 5.30928C20.3313 5.30928 20.354 5.3622 20.354 5.64948C20.354 5.93677 20.3766 5.98969 20.5052 5.98969C20.6412 5.98969 20.6564 6.04261 20.6564 6.4811C20.6564 6.91959 20.6715 6.97251 20.8076 6.97251C20.9361 6.97251 20.9588 7.02543 20.9588 7.31271C20.9588 7.6 20.9814 7.65292 21.11 7.65292C21.2309 7.65292 21.2612 7.70584 21.2612 7.90997C21.2612 8.31065 21.3443 8.63574 21.4577 8.63574C21.5182 8.63574 21.5711 8.77182 21.6089 8.97594C21.6543 9.30859 21.6619 9.31615 21.9491 9.31615C22.1911 9.31615 22.244 9.29347 22.244 9.16495C22.244 9.02887 22.2969 9.01375 22.8866 9.01375C23.4763 9.01375 23.5292 9.02887 23.5292 9.16495C23.5292 9.26323 23.5821 9.31615 23.6804 9.31615C23.7938 9.31615 23.8316 9.36907 23.8316 9.50515C23.8316 9.64124 23.8694 9.69416 23.9828 9.69416C24.1113 9.69416 24.134 9.74708 24.134 9.99656V10.299H23.189H22.244V10.488C22.244 10.6241 22.2818 10.677 22.3876 10.677C22.501 10.677 22.5464 10.7526 22.5842 10.9794C22.6144 11.1684 22.6749 11.2818 22.743 11.2818C22.8034 11.2818 22.8488 11.3498 22.8488 11.4405C22.8488 11.5313 22.9093 11.6144 23 11.6371C23.1058 11.6674 23.1588 11.7656 23.1966 12.0076C23.2192 12.1966 23.2873 12.3402 23.3402 12.3402C23.3931 12.3402 23.4536 12.446 23.4838 12.5746C23.5065 12.7031 23.5292 14.646 23.5292 16.8838V20.9588H22.4405H21.3594L21.3065 20.7244C21.2838 20.5959 21.2612 20.2179 21.2612 19.8928V19.2955H16.0447C10.8811 19.2955 10.8282 19.2955 10.8282 19.1443C10.8282 19.046 10.8811 18.9931 10.9794 18.9931C11.0928 18.9931 11.1306 18.9402 11.1306 18.8041C11.1306 18.668 11.1684 18.6151 11.2818 18.6151C11.4103 18.6151 11.433 18.5622 11.433 18.3127C11.433 18.0632 11.4557 18.0103 11.5842 18.0103C11.6976 18.0103 11.7354 17.9574 11.7354 17.8213C11.7354 17.6701 11.7732 17.6323 11.9244 17.6323C12.0605 17.6323 12.1134 17.6701 12.1134 17.7835C12.1134 17.912 12.1663 17.9347 12.4158 17.9347H12.7182V17.6323V17.3299H12.4158C12.1436 17.3299 12.1134 17.3072 12.1134 17.1409C12.1134 17.0048 12.1512 16.9519 12.2646 16.9519C12.3931 16.9519 12.4158 16.899 12.4158 16.6495C12.4158 16.4 12.4385 16.3471 12.567 16.3471C12.6804 16.3471 12.7182 16.2942 12.7182 16.1581C12.7182 16.022 12.756 15.9691 12.8694 15.9691C12.9979 15.9691 13.0206 15.9162 13.0206 15.6289C13.0206 15.3416 13.0433 15.2887 13.1718 15.2887C13.2701 15.2887 13.323 15.2357 13.323 15.1375C13.323 14.9938 13.3759 14.9863 15.2509 14.9863H17.1787V14.646V14.3058H15.4399C13.7842 14.3058 13.701 14.2983 13.701 14.1622C13.701 14.0866 13.7691 14.0034 13.8522 13.9808C13.9732 13.9505 14.0034 13.8749 14.0034 13.633V13.323H15.8935H17.7835V12.9828V12.6426H16.1959H14.6082V12.3024C14.6082 12.0151 14.6309 11.9622 14.7594 11.9622C14.8804 11.9622 14.9107 11.9093 14.9107 11.7052C14.9107 11.3045 14.9938 10.9794 15.0997 10.9794C15.2055 10.9794 15.2887 10.6467 15.2887 10.2158C15.2887 10.0192 15.3189 9.92096 15.3945 9.92096C15.5457 9.92096 15.5911 9.5732 15.5911 8.48454C15.5911 7.39588 15.5457 7.04811 15.3945 7.04811C15.3189 7.04811 15.2887 6.94983 15.2887 6.75326C15.2887 6.31478 15.2055 5.98969 15.0921 5.98969C15.0316 5.98969 14.9787 5.85361 14.9409 5.64948C14.9107 5.44536 14.8577 5.30928 14.7897 5.30928C14.7292 5.30928 14.6763 5.17319 14.6385 4.96907C14.6007 4.70447 14.5629 4.62887 14.4495 4.62887C14.3588 4.62887 14.3058 4.57594 14.3058 4.47766C14.3058 4.32646 14.3588 4.32646 16.8385 4.32646C19.3182 4.32646 19.3711 4.32646 19.3711 4.47766Z" stroke="#F37A20" stroke-width="0.4" mask="url(#path-1-outside-1_1637_3437)"/>
<path d="M3.49512 8.63561V9.61843H4.44013H5.38515V10.639V11.6597H6.36797H7.35079V10.639V9.61087L8.28068 9.63355L9.20302 9.65623L9.2257 10.6542L9.24838 11.6597H10.1858H11.1309V10.639V9.61843H12.0759H13.0209V8.63561V7.65279H12.0759H11.1309V8.63561V9.61843H10.1858H9.24082V8.63561V7.65279H8.2958H7.35079V8.63561V9.61843H6.36797H5.38515V8.63561V7.65279H4.44013H3.49512V8.63561Z" fill="#F37A20"/>
<path d="M15.8936 10.6393V10.9795H16.196H16.4984V10.6393V10.2991H16.196H15.8936V10.6393Z" fill="#F37A20"/>
<path d="M17.1787 10.6393V10.9795H17.4811H17.7835V10.6393V10.2991H17.4811H17.1787V10.6393Z" fill="#F37A20"/>
<path d="M18.4639 10.6393V10.9795H18.7663H19.0687V10.6393V10.2991H18.7663H18.4639V10.6393Z" fill="#F37A20"/>
<path d="M19.749 10.6317V10.9795H20.059H20.3614L20.3387 10.6544C20.316 10.3444 20.3085 10.3369 20.0363 10.3142L19.749 10.2915V10.6317Z" fill="#F37A20"/>
<path d="M21.0114 10.352C20.9812 10.3747 20.9585 10.5334 20.9585 10.6922C20.9585 10.9795 20.9585 10.9795 21.2609 10.9795H21.5633V10.6393C21.5633 10.3066 21.5633 10.2991 21.3138 10.2991C21.1702 10.2991 21.0341 10.3218 21.0114 10.352Z" fill="#F37A20"/>
<path d="M19.9987 12.1136C19.9761 12.2118 19.8702 12.2799 19.7115 12.3101C19.4847 12.3479 19.4544 12.3933 19.4091 12.6503C19.3713 12.8696 19.3259 12.9452 19.2125 12.9452C19.084 12.9452 19.0688 13.0057 19.0688 13.6256C19.0688 14.2455 19.084 14.306 19.2125 14.306C19.3259 14.306 19.3637 14.3816 19.4015 14.6462C19.4544 14.9713 19.4695 14.9864 19.719 14.9864C19.9231 14.9864 19.9761 15.0167 19.9761 15.1376C19.9761 15.2813 20.029 15.2888 20.6565 15.2888C21.284 15.2888 21.3369 15.2813 21.3369 15.1376C21.3369 15.0167 21.3898 14.9864 21.5939 14.9864C21.8434 14.9864 21.8585 14.9713 21.9115 14.6462C21.9493 14.3816 21.9871 14.306 22.1005 14.306C22.229 14.306 22.2441 14.2455 22.2441 13.6256C22.2441 13.0057 22.229 12.9452 22.1005 12.9452C21.9871 12.9452 21.9417 12.8696 21.9039 12.6503C21.8585 12.3933 21.8283 12.3479 21.6015 12.3101C21.4427 12.2799 21.3369 12.2118 21.3142 12.1136C21.2764 11.9775 21.2084 11.9624 20.6565 11.9624C20.1046 11.9624 20.0365 11.9775 19.9987 12.1136ZM21.2613 12.8318C21.2613 12.9679 21.2991 13.0208 21.4049 13.0208C21.5864 13.0208 21.6771 13.4744 21.6015 13.9734C21.5637 14.238 21.5259 14.306 21.4049 14.306C21.3142 14.306 21.2613 14.3589 21.2613 14.4572C21.2613 14.5933 21.2084 14.6084 20.6565 14.6084C20.1046 14.6084 20.0517 14.5933 20.0517 14.4572C20.0517 14.3589 19.9987 14.306 19.908 14.306C19.7266 14.306 19.6359 13.8524 19.7115 13.3534C19.7493 13.0888 19.7871 13.0208 19.908 13.0208C20.0139 13.0208 20.0517 12.9679 20.0517 12.8318C20.0517 12.6428 20.0592 12.6428 20.6565 12.6428C21.2537 12.6428 21.2613 12.6428 21.2613 12.8318Z" fill="#F37A20"/>
<path d="M13.3989 17.6324V17.9348H13.7013H14.0037V17.6324V17.33H13.7013H13.3989V17.6324Z" fill="#F37A20"/>
<path d="M14.6084 17.6324V17.9348H14.9108H15.2132V17.6324V17.33H14.9108H14.6084V17.6324Z" fill="#F37A20"/>
<path d="M15.8936 17.6324V17.9348H16.196H16.4984V17.6324V17.33H16.196H15.8936V17.6324Z" fill="#F37A20"/>
<path d="M17.1787 17.6324V17.9348H17.4811H17.7835V17.6324V17.33H17.4811H17.1787V17.6324Z" fill="#F37A20"/>
<path d="M18.4639 17.6324V17.9348H18.7663H19.0687V17.6324V17.33H18.7663H18.4639V17.6324Z" fill="#F37A20"/>
<path d="M19.749 17.6324V17.9348H20.0514H20.3538V17.6324V17.33H20.0514H19.749V17.6324Z" fill="#F37A20"/>
<path d="M20.9585 17.6324V17.9348H21.2609H21.5633V17.6324V17.33H21.2609H20.9585V17.6324Z" fill="#F37A20"/>
<path d="M22.2441 17.6324V17.9348H22.5465H22.849V17.6324V17.33H22.5465H22.2441V17.6324Z" fill="#F37A20"/>
<path d="M37.6969 6.575V7.97H34.9219V17H33.2119V7.97H30.4219V6.575H37.6969ZM40.6887 9.935C40.9387 9.515 41.2687 9.19 41.6787 8.96C42.0987 8.72 42.5937 8.6 43.1637 8.6V10.37H42.7287C42.0587 10.37 41.5487 10.54 41.1987 10.88C40.8587 11.22 40.6887 11.81 40.6887 12.65V17H38.9787V8.735H40.6887V9.935ZM43.7155 12.83C43.7155 12 43.8855 11.265 44.2255 10.625C44.5755 9.985 45.0455 9.49 45.6355 9.14C46.2355 8.78 46.8955 8.6 47.6155 8.6C48.2655 8.6 48.8305 8.73 49.3105 8.99C49.8005 9.24 50.1905 9.555 50.4805 9.935V8.735H52.2055V17H50.4805V15.77C50.1905 16.16 49.7955 16.485 49.2955 16.745C48.7955 17.005 48.2255 17.135 47.5855 17.135C46.8755 17.135 46.2255 16.955 45.6355 16.595C45.0455 16.225 44.5755 15.715 44.2255 15.065C43.8855 14.405 43.7155 13.66 43.7155 12.83ZM50.4805 12.86C50.4805 12.29 50.3605 11.795 50.1205 11.375C49.8905 10.955 49.5855 10.635 49.2055 10.415C48.8255 10.195 48.4155 10.085 47.9755 10.085C47.5355 10.085 47.1255 10.195 46.7455 10.415C46.3655 10.625 46.0555 10.94 45.8155 11.36C45.5855 11.77 45.4705 12.26 45.4705 12.83C45.4705 13.4 45.5855 13.9 45.8155 14.33C46.0555 14.76 46.3655 15.09 46.7455 15.32C47.1355 15.54 47.5455 15.65 47.9755 15.65C48.4155 15.65 48.8255 15.54 49.2055 15.32C49.5855 15.1 49.8905 14.78 50.1205 14.36C50.3605 13.93 50.4805 13.43 50.4805 12.86ZM57.1966 15.47L59.5366 8.735H61.3516L58.2016 17H56.1616L53.0266 8.735H54.8566L57.1966 15.47ZM69.7691 12.665C69.7691 12.975 69.7491 13.255 69.7091 13.505H63.3941C63.4441 14.165 63.6891 14.695 64.1291 15.095C64.5691 15.495 65.1091 15.695 65.7491 15.695C66.6691 15.695 67.3191 15.31 67.6991 14.54H69.5441C69.2941 15.3 68.8391 15.925 68.1791 16.415C67.5291 16.895 66.7191 17.135 65.7491 17.135C64.9591 17.135 64.2491 16.96 63.6191 16.61C62.9991 16.25 62.5091 15.75 62.1491 15.11C61.7991 14.46 61.6241 13.71 61.6241 12.86C61.6241 12.01 61.7941 11.265 62.1341 10.625C62.4841 9.975 62.9691 9.475 63.5891 9.125C64.2191 8.775 64.9391 8.6 65.7491 8.6C66.5291 8.6 67.2241 8.77 67.8341 9.11C68.4441 9.45 68.9191 9.93 69.2591 10.55C69.5991 11.16 69.7691 11.865 69.7691 12.665ZM67.9841 12.125C67.9741 11.495 67.7491 10.99 67.3091 10.61C66.8691 10.23 66.3241 10.04 65.6741 10.04C65.0841 10.04 64.5791 10.23 64.1591 10.61C63.7391 10.98 63.4891 11.485 63.4091 12.125H67.9841ZM72.712 5.9V17H71.002V5.9H72.712ZM83.5335 11.645C84.0935 11.745 84.5685 12.04 84.9585 12.53C85.3485 13.02 85.5435 13.575 85.5435 14.195C85.5435 14.725 85.4035 15.205 85.1235 15.635C84.8535 16.055 84.4585 16.39 83.9385 16.64C83.4185 16.88 82.8135 17 82.1235 17H77.9535V6.575H81.9285C82.6385 6.575 83.2485 6.695 83.7585 6.935C84.2685 7.175 84.6535 7.5 84.9135 7.91C85.1735 8.31 85.3035 8.76 85.3035 9.26C85.3035 9.86 85.1435 10.36 84.8235 10.76C84.5035 11.16 84.0735 11.455 83.5335 11.645ZM79.6635 10.955H81.7785C82.3385 10.955 82.7735 10.83 83.0835 10.58C83.4035 10.32 83.5635 9.95 83.5635 9.47C83.5635 9 83.4035 8.635 83.0835 8.375C82.7735 8.105 82.3385 7.97 81.7785 7.97H79.6635V10.955ZM81.9735 15.605C82.5535 15.605 83.0085 15.465 83.3385 15.185C83.6685 14.905 83.8335 14.515 83.8335 14.015C83.8335 13.505 83.6585 13.1 83.3085 12.8C82.9585 12.5 82.4935 12.35 81.9135 12.35H79.6635V15.605H81.9735ZM94.4368 8.735V17H92.7268V16.025C92.4568 16.365 92.1018 16.635 91.6618 16.835C91.2318 17.025 90.7718 17.12 90.2818 17.12C89.6318 17.12 89.0468 16.985 88.5268 16.715C88.0168 16.445 87.6118 16.045 87.3118 15.515C87.0218 14.985 86.8768 14.345 86.8768 13.595V8.735H88.5718V13.34C88.5718 14.08 88.7568 14.65 89.1268 15.05C89.4968 15.44 90.0018 15.635 90.6418 15.635C91.2818 15.635 91.7868 15.44 92.1568 15.05C92.5368 14.65 92.7268 14.08 92.7268 13.34V8.735H94.4368ZM95.673 12.83C95.673 12 95.843 11.265 96.183 10.625C96.533 9.985 97.003 9.49 97.593 9.14C98.193 8.78 98.858 8.6 99.588 8.6C100.128 8.6 100.658 8.72 101.178 8.96C101.708 9.19 102.128 9.5 102.438 9.89V5.9H104.163V17H102.438V15.755C102.158 16.155 101.768 16.485 101.268 16.745C100.778 17.005 100.213 17.135 99.573 17.135C98.853 17.135 98.193 16.955 97.593 16.595C97.003 16.225 96.533 15.715 96.183 15.065C95.843 14.405 95.673 13.66 95.673 12.83ZM102.438 12.86C102.438 12.29 102.318 11.795 102.078 11.375C101.848 10.955 101.543 10.635 101.163 10.415C100.783 10.195 100.373 10.085 99.933 10.085C99.493 10.085 99.083 10.195 98.703 10.415C98.323 10.625 98.013 10.94 97.773 11.36C97.543 11.77 97.428 12.26 97.428 12.83C97.428 13.4 97.543 13.9 97.773 14.33C98.013 14.76 98.323 15.09 98.703 15.32C99.093 15.54 99.503 15.65 99.933 15.65C100.373 15.65 100.783 15.54 101.163 15.32C101.543 15.1 101.848 14.78 102.078 14.36C102.318 13.93 102.438 13.43 102.438 12.86ZM105.389 12.83C105.389 12 105.559 11.265 105.899 10.625C106.249 9.985 106.719 9.49 107.309 9.14C107.909 8.78 108.574 8.6 109.304 8.6C109.844 8.6 110.374 8.72 110.894 8.96C111.424 9.19 111.844 9.5 112.154 9.89V5.9H113.879V17H112.154V15.755C111.874 16.155 111.484 16.485 110.984 16.745C110.494 17.005 109.929 17.135 109.289 17.135C108.569 17.135 107.909 16.955 107.309 16.595C106.719 16.225 106.249 15.715 105.899 15.065C105.559 14.405 105.389 13.66 105.389 12.83ZM112.154 12.86C112.154 12.29 112.034 11.795 111.794 11.375C111.564 10.955 111.259 10.635 110.879 10.415C110.499 10.195 110.089 10.085 109.649 10.085C109.209 10.085 108.799 10.195 108.419 10.415C108.039 10.625 107.729 10.94 107.489 11.36C107.259 11.77 107.144 12.26 107.144 12.83C107.144 13.4 107.259 13.9 107.489 14.33C107.729 14.76 108.039 15.09 108.419 15.32C108.809 15.54 109.219 15.65 109.649 15.65C110.089 15.65 110.499 15.54 110.879 15.32C111.259 15.1 111.564 14.78 111.794 14.36C112.034 13.93 112.154 13.43 112.154 12.86ZM123.115 8.735L118.045 20.885H116.275L117.955 16.865L114.7 8.735H116.605L118.93 15.035L121.345 8.735H123.115Z" fill="#F37A20"/>
</svg>
