<svg width="10" height="9" viewBox="0 0 10 9" fill="none" xmlns="http://www.w3.org/2000/svg">
<path d="M3.58317 8.875L2.7915 7.54167L1.2915 7.20833L1.43734 5.66667L0.416504 4.5L1.43734 3.33333L1.2915 1.79167L2.7915 1.45833L3.58317 0.125L4.99984 0.729167L6.4165 0.125L7.20817 1.45833L8.70817 1.79167L8.56234 3.33333L9.58317 4.5L8.56234 5.66667L8.70817 7.20833L7.20817 7.54167L6.4165 8.875L4.99984 8.27083L3.58317 8.875ZM3.93734 7.8125L4.99984 7.35417L6.08317 7.8125L6.6665 6.8125L7.81234 6.54167L7.70817 5.375L8.479 4.5L7.70817 3.60417L7.81234 2.4375L6.6665 2.1875L6.06234 1.1875L4.99984 1.64583L3.9165 1.1875L3.33317 2.1875L2.18734 2.4375L2.2915 3.60417L1.52067 4.5L2.2915 5.375L2.18734 6.5625L3.33317 6.8125L3.93734 7.8125ZM4.56234 5.97917L6.9165 3.625L6.33317 3.02083L4.56234 4.79167L3.6665 3.91667L3.08317 4.5L4.56234 5.97917Z" fill="#11704C"/>
</svg>
