<svg width="32" height="32" viewBox="0 0 32 32" fill="none" xmlns="http://www.w3.org/2000/svg">
<path d="M29.9999 15C29.7915 14.9987 29.5887 14.9322 29.4199 14.81L15.9999 5.23002L2.5799 14.81C2.3646 14.9375 2.10933 14.9797 1.86446 14.9282C1.61959 14.8767 1.40294 14.7352 1.25726 14.5318C1.11158 14.3283 1.04747 14.0777 1.07758 13.8293C1.10769 13.5809 1.22984 13.3528 1.4199 13.19L15.4199 3.19002C15.5893 3.06944 15.792 3.00464 15.9999 3.00464C16.2078 3.00464 16.4105 3.06944 16.5799 3.19002L30.5799 13.19C30.7506 13.3136 30.878 13.488 30.9437 13.6883C31.0094 13.8886 31.0101 14.1045 30.9458 14.3052C30.8815 14.5059 30.7554 14.6812 30.5855 14.806C30.4156 14.9308 30.2107 14.9987 29.9999 15Z" fill="#4461F2"/>
<path d="M5 9C4.73478 9 4.48043 8.89464 4.29289 8.70711C4.10536 8.51957 4 8.26522 4 8V4C4 3.73478 4.10536 3.48043 4.29289 3.29289C4.48043 3.10536 4.73478 3 5 3H9C9.26522 3 9.51957 3.10536 9.70711 3.29289C9.89464 3.48043 10 3.73478 10 4C10 4.26522 9.89464 4.51957 9.70711 4.70711C9.51957 4.89464 9.26522 5 9 5H6V8C6 8.26522 5.89464 8.51957 5.70711 8.70711C5.51957 8.89464 5.26522 9 5 9Z" fill="#4461F2"/>
<path d="M25 29H20C19.7348 29 19.4804 28.8946 19.2929 28.7071C19.1054 28.5196 19 28.2652 19 28V21H13V28C13 28.2652 12.8946 28.5196 12.7071 28.7071C12.5196 28.8946 12.2652 29 12 29H7C6.20435 29 5.44129 28.6839 4.87868 28.1213C4.31607 27.5587 4 26.7956 4 26V16C4 15.7348 4.10536 15.4804 4.29289 15.2929C4.48043 15.1054 4.73478 15 5 15C5.26522 15 5.51957 15.1054 5.70711 15.2929C5.89464 15.4804 6 15.7348 6 16V26C6 26.2652 6.10536 26.5196 6.29289 26.7071C6.48043 26.8946 6.73478 27 7 27H11V20C11 19.7348 11.1054 19.4804 11.2929 19.2929C11.4804 19.1054 11.7348 19 12 19H20C20.2652 19 20.5196 19.1054 20.7071 19.2929C20.8946 19.4804 21 19.7348 21 20V27H25C25.2652 27 25.5196 26.8946 25.7071 26.7071C25.8946 26.5196 26 26.2652 26 26V16C26 15.7348 26.1054 15.4804 26.2929 15.2929C26.4804 15.1054 26.7348 15 27 15C27.2652 15 27.5196 15.1054 27.7071 15.2929C27.8946 15.4804 28 15.7348 28 16V26C28 26.7956 27.6839 27.5587 27.1213 28.1213C26.5587 28.6839 25.7956 29 25 29Z" fill="#4461F2"/>
</svg>
