<svg width="13" height="20" viewBox="0 0 13 20" fill="none" xmlns="http://www.w3.org/2000/svg">
<path d="M11.8125 19.0938H0.703125C0.516645 19.0938 0.337802 19.0197 0.205941 18.8879C0.0740792 18.756 0 18.5772 0 18.3907V8.01538C0 7.8289 0.0740792 7.65006 0.205941 7.5182C0.337802 7.38634 0.516645 7.31226 0.703125 7.31226H11.8125C11.999 7.31226 12.1778 7.38634 12.3097 7.5182C12.4415 7.65006 12.5156 7.8289 12.5156 8.01538V18.3907C12.5156 18.5772 12.4415 18.756 12.3097 18.8879C12.1778 19.0197 11.999 19.0938 11.8125 19.0938ZM1.40625 17.6876H11.1094V8.71851H1.40625V17.6876Z" fill="white"/>
<path d="M10.4839 8.71845H2.03467C1.84819 8.71845 1.66935 8.64437 1.53748 8.51251C1.40562 8.38065 1.33154 8.20181 1.33154 8.01533C1.33154 7.82885 1.40562 7.65 1.53748 7.51814C1.66935 7.38628 1.84819 7.3122 2.03467 7.3122H9.78076V5.17751C9.77007 4.2506 9.39435 3.36527 8.7351 2.71359C8.07586 2.06191 7.18626 1.69642 6.25928 1.69642C5.3323 1.69642 4.4427 2.06191 3.78345 2.71359C3.12421 3.36527 2.74849 4.2506 2.73779 5.17751C2.73779 5.36399 2.66371 5.54284 2.53185 5.6747C2.39999 5.80656 2.22115 5.88064 2.03467 5.88064C1.84819 5.88064 1.66935 5.80656 1.53748 5.6747C1.40562 5.54284 1.33154 5.36399 1.33154 5.17751C1.34421 3.87892 1.86896 2.63782 2.79171 1.72402C3.71446 0.810227 4.96062 0.297607 6.25928 0.297607C7.55793 0.297607 8.80409 0.810227 9.72684 1.72402C10.6496 2.63782 11.1743 3.87892 11.187 5.17751V8.01533C11.187 8.20181 11.1129 8.38065 10.9811 8.51251C10.8492 8.64437 10.6704 8.71845 10.4839 8.71845Z" fill="white"/>
<path d="M6.25977 14.5314C5.82867 14.5314 5.40724 14.4035 5.0488 14.164C4.69035 13.9245 4.41097 13.5841 4.246 13.1858C4.08102 12.7875 4.03786 12.3493 4.12196 11.9265C4.20606 11.5036 4.41366 11.1152 4.71849 10.8104C5.02333 10.5056 5.41171 10.298 5.83453 10.2139C6.25735 10.1298 6.69561 10.1729 7.0939 10.3379C7.49218 10.5029 7.8326 10.7823 8.07211 11.1407C8.31162 11.4992 8.43945 11.9206 8.43945 12.3517C8.43883 12.9296 8.20899 13.4836 7.80035 13.8923C7.39172 14.3009 6.83767 14.5308 6.25977 14.5314ZM6.25977 11.5782C6.1068 11.5782 5.95726 11.6236 5.83007 11.7086C5.70288 11.7936 5.60374 11.9144 5.5452 12.0557C5.48666 12.197 5.47135 12.3525 5.50119 12.5026C5.53103 12.6526 5.6047 12.7904 5.71286 12.8986C5.82103 13.0068 5.95884 13.0804 6.10888 13.1103C6.25891 13.1401 6.41442 13.1248 6.55575 13.0662C6.69708 13.0077 6.81787 12.9086 6.90286 12.7814C6.98784 12.6542 7.0332 12.5047 7.0332 12.3517C7.03296 12.1466 6.95139 11.9501 6.8064 11.8051C6.6614 11.6601 6.46482 11.5785 6.25977 11.5782Z" fill="white"/>
<path d="M6.25977 16.2343C6.07329 16.2343 5.89444 16.1603 5.76258 16.0284C5.63072 15.8965 5.55664 15.7177 5.55664 15.5312V13.8282C5.55664 13.6418 5.63072 13.4629 5.76258 13.3311C5.89444 13.1992 6.07329 13.1251 6.25977 13.1251C6.44625 13.1251 6.62509 13.1992 6.75695 13.3311C6.88881 13.4629 6.96289 13.6418 6.96289 13.8282V15.5312C6.96289 15.7177 6.88881 15.8965 6.75695 16.0284C6.62509 16.1603 6.44625 16.2343 6.25977 16.2343Z" fill="white"/>
</svg>
