<svg width="158" height="144" viewBox="0 0 158 144" fill="none" xmlns="http://www.w3.org/2000/svg">
<path d="M102.348 51.1741C116.421 51.1741 127.935 39.6599 127.935 25.587C127.935 11.5142 116.421 0 102.348 0C88.2753 0 76.7611 11.5142 76.7611 25.587C76.7611 39.6599 88.2753 51.1741 102.348 51.1741ZM88.5951 16.6316L93.0729 12.1538L102.028 21.1093L110.984 12.1538L115.462 16.6316L106.506 25.587L115.462 34.5425L110.984 39.0202L102.348 30.0648L93.3927 39.0202L88.5951 34.8623L97.5506 25.9069L88.5951 16.6316Z" fill="#FF5552"/>
<path d="M75.8029 143.287C82.5153 143.287 87.9567 137.846 87.9567 131.133C87.9567 124.421 82.5153 118.98 75.8029 118.98C69.0905 118.98 63.649 124.421 63.649 131.133C63.649 137.846 69.0905 143.287 75.8029 143.287Z" fill="#FF5552"/>
<path d="M125.378 143.287C132.09 143.287 137.532 137.846 137.532 131.133C137.532 124.421 132.09 118.98 125.378 118.98C118.665 118.98 113.224 124.421 113.224 131.133C113.224 137.846 118.665 143.287 125.378 143.287Z" fill="#FF5552"/>
<path d="M48.9352 60.7692L37.1012 31.9838H0V38.3806H32.9433L50.5344 81.8785V81.5587H150.004L158 60.7692H48.9352Z" fill="#FF5552"/>
<path d="M61.7275 108.745H139.768L147.764 87.9555H53.0919L61.7275 108.745Z" fill="#FF5552"/>
</svg>
