<svg width="334" height="154" viewBox="0 0 334 154" fill="none" xmlns="http://www.w3.org/2000/svg">
<path d="M0 136.031C0.48844 132.574 0.770233 126.262 0.845378 117.094C0.845378 110.519 0.601157 105.409 0.112717 101.765C2.70521 101.314 5.974 101.088 9.9191 101.088C13.1879 101.088 16.1373 101.408 18.7674 102.046C21.435 102.685 23.8584 103.718 26.0376 105.146C28.2168 106.536 29.9076 108.509 31.1099 111.064C32.3122 113.619 32.9134 116.681 32.9134 120.25C32.9134 125.886 31.2226 130.526 27.8411 134.171C24.4596 137.778 19.6503 139.581 13.4133 139.581C7.66476 139.581 3.19365 138.398 0 136.031ZM9.35551 106.893C9.5058 109.11 9.58095 111.74 9.58095 114.784C9.58095 122.11 9.31794 127.953 8.79193 132.311C10.8584 133.363 12.7934 133.889 14.5969 133.889C17.5275 133.889 19.7631 132.706 21.3035 130.338C22.8816 127.934 23.6706 124.947 23.6706 121.377C23.6706 116.531 22.6561 112.886 20.6272 110.444C18.6359 107.964 15.7616 106.724 12.0044 106.724C11.1026 106.724 10.2197 106.781 9.35551 106.893Z" fill="#00B088"/>
<path d="M41.49 112.078C42.9177 112.078 44.0261 112.323 44.8151 112.811C45.6042 113.299 45.9987 114.257 45.9987 115.685V116.418C47.0131 115.216 48.2154 114.126 49.6056 113.149C51.0334 112.172 52.4423 111.684 53.8325 111.684C54.9221 111.684 55.7675 111.947 56.3686 112.473C56.9698 112.961 57.2704 113.619 57.2704 114.445C57.2704 115.986 56.5941 117.489 55.2415 118.954C53.9264 118.127 52.7053 117.714 51.5782 117.714C49.925 117.714 47.99 118.86 45.7732 121.152C45.6605 123.369 45.6042 125.51 45.6042 127.577C45.6042 132.912 45.9235 136.538 46.5623 138.454C44.9842 138.943 43.425 139.187 41.8845 139.187C40.1186 139.187 38.8787 138.886 38.1648 138.285C37.4885 137.646 37.1504 136.726 37.1504 135.523C37.1504 134.922 37.1692 133.513 37.2067 131.297C37.2819 129.08 37.3195 127.314 37.3195 125.999C37.3195 120.626 37.188 116.23 36.9249 112.811C38.3527 112.323 39.8744 112.078 41.49 112.078Z" fill="#00B088"/>
<path d="M64.7815 121.321C61.4751 120.72 59.8219 119.311 59.8219 117.094C59.8219 115.591 60.8927 114.314 63.0344 113.262C65.2135 112.21 67.8248 111.684 70.8682 111.684C74.8133 111.684 77.7251 112.435 79.6038 113.938C81.4824 115.441 82.4217 117.94 82.4217 121.434C82.4217 121.734 82.4029 122.843 82.3653 124.759C82.3278 126.675 82.309 128.103 82.309 129.042C82.309 133.363 82.6659 136.594 83.3798 138.736C81.7266 139.187 80.2613 139.412 78.9838 139.412C76.2786 139.412 74.7006 138.323 74.2497 136.143C73.348 137.195 72.1832 138.041 70.7555 138.68C69.3653 139.281 67.9563 139.581 66.5286 139.581C64.4621 139.581 62.715 138.924 61.2872 137.609C59.8971 136.256 59.202 134.265 59.202 131.635C59.202 129.531 59.6153 127.99 60.4419 127.013C61.306 126.036 62.4708 125.304 63.9361 124.815C66.7916 123.914 70.1731 123.35 74.0806 123.125C74.0806 120.833 73.8176 119.236 73.2916 118.334C72.8032 117.395 71.7511 116.925 70.1355 116.925C69.1962 116.925 68.1818 117.32 67.0922 118.109C66.0401 118.898 65.2699 119.968 64.7815 121.321ZM74.0243 127.182C72.8971 127.37 72.0329 127.539 71.4318 127.69C70.8306 127.84 70.1731 128.084 69.4592 128.422C68.7829 128.723 68.2945 129.136 67.9939 129.662C67.7309 130.151 67.5994 130.771 67.5994 131.522C67.5994 132.461 67.8248 133.175 68.2757 133.664C68.7266 134.114 69.2902 134.34 69.9665 134.34C71.5445 134.34 72.8595 133.87 73.9115 132.931C73.874 132.593 73.8552 132.029 73.8552 131.24C73.8552 129.888 73.9115 128.535 74.0243 127.182Z" fill="#00B088"/>
<path d="M100.183 133.438C99.5438 133.438 98.736 133.401 97.7591 133.325C97.3834 134.34 97.1955 135.073 97.1955 135.523C97.1955 136.275 98.4354 136.651 100.915 136.651H107.453C109.782 136.651 111.755 137.233 113.37 138.398C114.986 139.525 115.794 141.31 115.794 143.752C115.794 146.57 114.178 148.843 110.947 150.571C107.716 152.337 103.827 153.22 99.2808 153.22C95.1103 153.22 91.973 152.581 89.8689 151.304C87.7649 150.026 86.7129 148.448 86.7129 146.57C86.7129 145.067 87.84 143.226 90.0944 141.047C89.2302 140.445 88.7981 139.6 88.7981 138.51C88.7981 137.909 89.2114 136.951 90.038 135.636C90.9022 134.321 91.8978 133.1 93.025 131.973C91.184 131.071 89.7562 129.794 88.7418 128.14C87.7273 126.45 87.2201 124.515 87.2201 122.336C87.2201 119.292 88.4412 116.756 90.8834 114.727C93.3632 112.698 96.4629 111.684 100.183 111.684C103.602 111.684 106.513 112.529 108.918 114.22C110.759 112.003 112.732 110.895 114.836 110.895C115.85 110.895 116.677 111.195 117.316 111.797C117.954 112.398 118.274 113.243 118.274 114.333C118.274 115.122 118.086 116.08 117.71 117.207C117.146 117.094 116.602 117.038 116.076 117.038C114.798 117.038 113.502 117.338 112.187 117.94C112.826 119.292 113.145 120.758 113.145 122.336C113.145 125.755 111.868 128.46 109.313 130.451C106.795 132.443 103.752 133.438 100.183 133.438ZM104.748 122.843C104.748 121.19 104.334 119.818 103.508 118.729C102.681 117.639 101.554 117.094 100.126 117.094C97.158 117.094 95.6739 118.672 95.6739 121.828C95.6739 123.594 96.0684 125.078 96.8574 126.281C97.6464 127.445 98.736 128.028 100.126 128.028C101.779 128.028 102.963 127.614 103.677 126.788C104.391 125.924 104.748 124.609 104.748 122.843ZM103.226 142.512H95.6739C95.3357 143.414 95.1666 144.259 95.1666 145.048C95.1666 146.889 96.8386 147.81 100.183 147.81C102.625 147.81 104.466 147.471 105.706 146.795C106.983 146.156 107.622 145.367 107.622 144.428C107.622 143.151 106.157 142.512 103.226 142.512Z" fill="#00B088"/>
<path d="M144.182 135.862C141.664 138.341 138.358 139.581 134.263 139.581C130.167 139.581 126.861 138.341 124.344 135.862C121.864 133.382 120.624 130.075 120.624 125.942C120.624 121.622 121.864 118.165 124.344 115.573C126.861 112.98 130.167 111.684 134.263 111.684C138.358 111.684 141.664 112.98 144.182 115.573C146.699 118.165 147.958 121.622 147.958 125.942C147.958 130.075 146.699 133.382 144.182 135.862ZM139.56 127.07C139.56 124.214 139.091 121.847 138.151 119.968C137.212 118.052 135.916 117.094 134.263 117.094C132.647 117.094 131.37 117.864 130.43 119.405C129.529 120.945 129.078 122.974 129.078 125.492C129.078 127.971 129.529 130.038 130.43 131.691C131.37 133.307 132.647 134.114 134.263 134.114C135.953 134.114 137.25 133.476 138.151 132.198C139.091 130.883 139.56 129.174 139.56 127.07Z" fill="#00B088"/>
<path d="M151.788 112.811C153.329 112.323 154.794 112.078 156.184 112.078C158.927 112.078 160.486 113.187 160.862 115.403C163.304 112.961 166.085 111.74 169.203 111.74C171.758 111.74 173.862 112.473 175.515 113.938C177.169 115.403 177.995 117.489 177.995 120.194C177.995 120.269 177.958 121.622 177.882 124.252C177.845 126.882 177.826 128.873 177.826 130.226C177.826 133.457 178.145 136.2 178.784 138.454C177.169 138.943 175.534 139.187 173.881 139.187C170.875 139.187 169.372 138.041 169.372 135.749C169.372 134.396 169.429 131.916 169.541 128.31C169.654 124.665 169.71 122.467 169.71 121.716C169.71 120.175 169.391 119.029 168.752 118.278C168.151 117.489 167.362 117.094 166.385 117.094C164.807 117.094 163.06 118.015 161.144 119.856C161.219 124.665 161.257 128.14 161.257 130.282C161.257 133.588 161.351 136.482 161.538 138.961C160.299 139.074 159.19 139.13 158.213 139.13C154.456 139.13 152.577 138.229 152.577 136.425C152.577 136.275 152.615 134.96 152.69 132.48C152.803 130 152.859 127.427 152.859 124.759C152.859 118.635 152.502 114.652 151.788 112.811Z" fill="#00B088"/>
<path d="M204.736 107.401C204.887 108.603 204.962 111.684 204.962 116.643H209.414C211.819 116.643 214.036 116.531 216.064 116.305C216.29 116.794 216.403 117.583 216.403 118.672C216.403 120.062 216.083 121.039 215.445 121.603C214.806 122.129 213.66 122.392 212.007 122.392H204.962V127.577C204.962 131.935 205.413 135.542 206.314 138.398C205.976 138.548 205.262 138.717 204.173 138.905C203.083 139.093 202.238 139.187 201.637 139.187C199.457 139.187 197.992 138.811 197.241 138.06C196.527 137.271 196.17 135.843 196.17 133.776C196.17 133.175 196.189 132.123 196.226 130.62C196.264 129.117 196.283 127.708 196.283 126.393V115.122C196.283 110.125 196.02 105.747 195.494 101.99C200.34 101.652 205.281 101.483 210.316 101.483C215.726 101.483 219.239 101.783 220.855 102.385C221.569 102.648 221.926 103.399 221.926 104.639C221.926 106.104 221.7 107.382 221.249 108.471C218.77 107.682 214.58 107.288 208.681 107.288C207.93 107.288 206.615 107.325 204.736 107.401Z" fill="#00B088"/>
<path d="M243.36 135.862C240.842 138.341 237.536 139.581 233.44 139.581C229.345 139.581 226.039 138.341 223.521 135.862C221.042 133.382 219.802 130.075 219.802 125.942C219.802 121.622 221.042 118.165 223.521 115.573C226.039 112.98 229.345 111.684 233.44 111.684C237.536 111.684 240.842 112.98 243.36 115.573C245.877 118.165 247.136 121.622 247.136 125.942C247.136 130.075 245.877 133.382 243.36 135.862ZM238.738 127.07C238.738 124.214 238.269 121.847 237.329 119.968C236.39 118.052 235.094 117.094 233.44 117.094C231.825 117.094 230.547 117.864 229.608 119.405C228.706 120.945 228.255 122.974 228.255 125.492C228.255 127.971 228.706 130.038 229.608 131.691C230.547 133.307 231.825 134.114 233.44 134.114C235.131 134.114 236.427 133.476 237.329 132.198C238.269 130.883 238.738 129.174 238.738 127.07Z" fill="#00B088"/>
<path d="M273.96 135.862C271.443 138.341 268.137 139.581 264.041 139.581C259.946 139.581 256.64 138.341 254.122 135.862C251.643 133.382 250.403 130.075 250.403 125.942C250.403 121.622 251.643 118.165 254.122 115.573C256.64 112.98 259.946 111.684 264.041 111.684C268.137 111.684 271.443 112.98 273.96 115.573C276.478 118.165 277.737 121.622 277.737 125.942C277.737 130.075 276.478 133.382 273.96 135.862ZM269.339 127.07C269.339 124.214 268.869 121.847 267.93 119.968C266.991 118.052 265.695 117.094 264.041 117.094C262.426 117.094 261.148 117.864 260.209 119.405C259.307 120.945 258.856 122.974 258.856 125.492C258.856 127.971 259.307 130.038 260.209 131.691C261.148 133.307 262.426 134.114 264.041 134.114C265.732 134.114 267.028 133.476 267.93 132.198C268.869 130.883 269.339 129.174 269.339 127.07Z" fill="#00B088"/>
<path d="M281.004 125.661C281.004 121.791 282.074 118.503 284.216 115.798C286.358 113.055 289.025 111.684 292.219 111.684C294.323 111.684 296.446 112.323 298.587 113.6C298.663 111.195 298.7 109.298 298.7 107.908C298.7 103.812 298.55 100.468 298.249 97.8759C299.978 97.3875 301.236 97.1433 302.025 97.1433C305.52 97.1433 307.267 98.3456 307.267 100.75C307.267 102.967 307.173 107.231 306.985 113.544C306.835 119.856 306.759 124.158 306.759 126.45C306.759 132.386 307.116 136.482 307.83 138.736C306.027 139.187 304.561 139.412 303.434 139.412C301.856 139.412 300.729 139.13 300.053 138.567C299.376 137.966 298.926 137.158 298.7 136.143C297.723 137.158 296.577 137.984 295.262 138.623C293.985 139.262 292.764 139.581 291.599 139.581C288.706 139.581 286.207 138.266 284.103 135.636C282.037 133.006 281.004 129.681 281.004 125.661ZM298.362 118.278C297.235 117.451 296.07 117.038 294.868 117.038C293.177 117.038 291.843 117.789 290.866 119.292C289.889 120.758 289.401 122.711 289.401 125.153C289.401 127.859 289.889 130.094 290.866 131.86C291.843 133.588 293.045 134.453 294.473 134.453C296.126 134.453 297.46 133.889 298.475 132.762C298.4 125.022 298.362 120.194 298.362 118.278Z" fill="#00B088"/>
<path d="M327.384 120.757C327.083 119.593 326.557 118.691 325.805 118.052C325.054 117.414 324.227 117.094 323.326 117.094C322.462 117.094 321.729 117.32 321.128 117.771C320.527 118.221 320.226 118.879 320.226 119.743C320.226 120.645 320.658 121.359 321.522 121.885C322.424 122.411 323.495 122.843 324.735 123.181C326.012 123.481 327.271 123.876 328.511 124.364C329.788 124.815 330.859 125.586 331.723 126.675C332.625 127.765 333.076 129.155 333.076 130.846C333.076 133.701 331.93 135.88 329.638 137.383C327.384 138.849 324.716 139.581 321.635 139.581C320.658 139.581 319.7 139.525 318.761 139.412C317.821 139.337 316.732 139.168 315.492 138.905C314.29 138.604 313.313 138.116 312.561 137.44C311.847 136.726 311.49 135.862 311.49 134.847C311.49 132.818 313.012 131.24 316.055 130.113C316.431 131.466 317.145 132.48 318.197 133.156C319.249 133.833 320.357 134.171 321.522 134.171C324.04 134.171 325.298 133.269 325.298 131.466C325.298 130.601 324.622 129.906 323.269 129.38C321.954 128.817 320.508 128.366 318.93 128.028C317.352 127.652 315.886 126.844 314.534 125.604C313.219 124.327 312.561 122.636 312.561 120.532C312.561 117.864 313.688 115.723 315.943 114.107C318.235 112.492 320.808 111.684 323.664 111.684C324.979 111.684 326.294 111.834 327.609 112.135C328.962 112.398 330.183 112.942 331.272 113.769C332.362 114.558 332.907 115.535 332.907 116.7C332.907 117.714 332.437 118.597 331.498 119.349C330.596 120.062 329.225 120.532 327.384 120.757Z" fill="#00B088"/>
<path d="M211.161 0H117.23V93.9309H211.161V0Z" fill="black"/>
<path d="M211.161 0H117.23V93.9309H211.161V0Z" fill="black"/>
<path d="M131.63 58.487C127.297 54.6888 122.521 51.9753 117.278 50.1587C117.278 50.2774 117.272 50.3962 117.272 50.5149C117.272 53.1525 117.526 55.7341 118.014 58.2398C120.968 60.1785 123.604 62.7698 125.905 66.1397C127.716 63.4296 129.631 60.8837 131.63 58.487Z" fill="#00B088"/>
<path d="M141.344 48.5333C134.018 44.2568 126.285 41.5039 118.723 39.7598C118.131 41.9161 117.712 44.1381 117.481 46.4097C123.864 48.2861 129.706 50.9996 134.904 54.7745C136.978 52.5524 139.127 50.472 141.344 48.5333Z" fill="#00B088"/>
<path d="M154.161 39.1365C151.384 37.6298 148.565 36.2746 145.728 35.0514L145.492 29.0309C148.643 28.4704 150.504 25.536 150.504 23.3962C150.504 19.044 144.406 7.18768 144.406 7.18768C144.406 7.18768 138.307 18.9154 138.307 23.3962C138.307 25.5327 140.195 28.4638 143.319 29.0276L143.125 33.9601C136.739 31.3982 130.284 29.4991 123.99 28.1242C122.506 30.4025 121.243 32.8127 120.225 35.3383C129.278 37.643 137.642 40.996 145.148 45.381C148.071 43.0899 151.088 41.0125 154.167 39.1297L154.161 39.1365Z" fill="#00B088"/>
<path d="M210.999 47.4121C190.809 48.9849 169.265 61.7148 162.564 93.9012C163.106 93.9177 163.648 93.9308 164.195 93.9308C169.66 93.9308 174.903 93.0637 179.781 91.4744C184.354 64.6594 195.058 54.9924 211.003 53.5875C211.08 52.572 211.119 51.55 211.119 50.5179C211.119 49.4861 211.077 48.4375 210.999 47.4121Z" fill="#00B088"/>
<path d="M210.548 43.7226C210.194 41.6358 209.68 39.5983 209.015 37.6231C184.931 40.063 155.059 50.4984 141.38 88.4611C146.036 90.8646 151.181 92.5527 156.642 93.3703C164.578 59.7468 184.258 46.8813 210.548 43.7226Z" fill="#00B088"/>
<path d="M207.073 32.8555C205.918 30.4586 204.535 28.177 202.949 26.0339C199.897 26.4097 196.767 26.8977 193.583 27.5176L193.352 21.685C196.479 21.1278 198.329 18.2132 198.329 16.0931C198.329 11.774 192.272 0.00332519 192.272 0.00332519C192.272 0.00332519 186.215 11.6487 186.215 16.0964C186.215 18.2165 188.088 21.1278 191.191 21.6883L190.94 28.0649C183.97 29.5683 176.797 31.7115 169.732 34.6854L169.459 27.7945C173.185 27.1285 175.388 23.66 175.388 21.1344C175.388 15.9909 168.176 1.97169 168.176 1.97169C168.176 1.97169 160.964 15.8392 160.964 21.1344C160.964 23.66 163.196 27.1252 166.892 27.7945L166.566 36.0834C150.549 43.4427 135.338 55.2693 124.604 73.8319C127.551 78.108 131.286 81.8735 135.616 84.9564C147.12 55.3122 173.344 37.5836 207.073 32.8655V32.8555Z" fill="#00B088"/>
<path d="M186.583 87.7885C204.422 80.0963 209.784 57.8674 209.784 57.8674C188.366 60.8972 186.583 87.7885 186.583 87.7885Z" fill="#00B088"/>
</svg>
