<svg width="28" height="28" viewBox="0 0 28 28" fill="none" xmlns="http://www.w3.org/2000/svg">
<path d="M25.2846 24.0109C25.2846 25.3184 24.2221 26.421 22.9147 26.421H3.95045C2.64303 26.421 1.58047 25.3184 1.58047 24.0109V5.04673C1.58047 3.73931 2.64303 2.71534 3.95045 2.71534H15.0123V1.13635H3.95045C1.77191 1.13635 0 2.86968 0 5.04821V24.0109C0 26.1895 1.77191 28 3.95045 28H22.9132C25.0917 28 26.8636 26.188 26.8636 24.0109V12.9877H25.2831L25.2846 24.0109Z" fill="#53A052"/>
<path d="M27.0657 0.895973C25.8725 -0.298658 23.7905 -0.298658 22.5958 0.895973L11.9955 11.4963C11.8946 11.5972 11.8219 11.7248 11.7878 11.8628L10.6718 16.3312C10.605 16.5998 10.6837 16.8847 10.8796 17.0821C11.0294 17.232 11.2313 17.3136 11.4375 17.3136C11.5014 17.3136 11.5652 17.3062 11.629 17.2899L16.0988 16.1724C16.2383 16.1383 16.3645 16.0656 16.4654 15.9647L27.0657 5.36434C27.6623 4.76777 27.9917 3.97382 27.9917 3.12941C27.9917 2.28501 27.6637 1.49255 27.0657 0.895973ZM15.5037 14.6929L12.5238 15.4378L13.2688 12.4579L22.0379 3.68889L24.2728 5.92381L15.5037 14.6929ZM25.9482 4.24688L25.3902 4.80487L23.1553 2.56994L23.7133 2.01195C24.3099 1.41538 25.3517 1.41538 25.9482 2.01195C26.2465 2.31024 26.4112 2.70647 26.4112 3.12941C26.4112 3.55236 26.2465 3.94859 25.9482 4.24688Z" fill="#53A052"/>
</svg>
