<svg width="18" height="18" viewBox="0 0 18 18" fill="none" xmlns="http://www.w3.org/2000/svg">
<path d="M17.7011 16.2977L14.4709 13.0912C16.993 9.86211 16.7277 5.26331 13.8287 2.36596C12.3022 0.840459 10.2657 0 8.09807 0C5.92938 0 3.89381 0.840503 2.36744 2.36596C0.840985 3.89146 0 5.92673 0 8.093C0 10.2603 0.84103 12.2946 2.36744 13.82C3.8939 15.3455 5.93045 16.186 8.09807 16.186C9.89077 16.186 11.6611 15.5891 13.0768 14.4609L16.2853 17.7123C16.4841 17.911 16.7279 18 16.9932 18C17.2586 18 17.5023 17.8894 17.7011 17.7123C18.0996 17.3366 18.0996 16.6956 17.7011 16.2974L17.7011 16.2977ZM14.2056 8.093C14.2056 9.72907 13.5643 11.2555 12.4129 12.4052C11.2624 13.5549 9.71355 14.1968 8.09801 14.1968C6.48247 14.1968 4.93353 13.5558 3.78311 12.4052C2.63264 11.2555 1.99041 9.70753 1.99041 8.093C1.99041 6.45693 2.63176 4.9305 3.78311 3.7808C4.93357 2.63106 6.48247 1.98923 8.09801 1.98923C9.7351 1.98923 11.2625 2.63018 12.4129 3.7808C13.5634 4.93141 14.2056 6.45702 14.2056 8.093Z" fill="white"/>
</svg>
