<svg width="95" height="57" viewBox="0 0 95 57" fill="none" xmlns="http://www.w3.org/2000/svg">
<path d="M8.52699 56.3906C7.28572 56.3906 6.14339 56.2017 5.1 55.824C4.0746 55.4462 3.17513 54.9065 2.40159 54.2049C1.62804 53.5033 1.03439 52.6668 0.620635 51.6954C0.206878 50.706 0 49.5996 0 48.3763C0 46.7753 0.350794 45.3721 1.05238 44.1668C1.75397 42.9615 2.7164 42.0351 3.93968 41.3875C5.18095 40.7218 6.60212 40.389 8.20318 40.389C9.28254 40.389 10.236 40.5509 11.0635 40.8748C11.909 41.1806 12.6016 41.6303 13.1413 42.224C13.681 42.7996 14.0497 43.4652 14.2476 44.2208L13.3571 43.7351V40.6589H15.8667V45.8398L13.7079 45.8668C13.2042 44.8774 12.5656 44.1488 11.7921 43.6811C11.0365 43.1954 10.1011 42.9525 8.98572 42.9525C7.90635 42.9525 6.9799 43.1864 6.20635 43.6541C5.45079 44.1039 4.85714 44.7335 4.4254 45.543C4.01164 46.3525 3.80476 47.279 3.80476 48.3224C3.80476 49.1499 3.92169 49.8964 4.15556 50.5621C4.40741 51.2277 4.74921 51.8033 5.18095 52.289C5.63069 52.7748 6.15238 53.1525 6.74603 53.4224C7.35767 53.6742 8.02328 53.8001 8.74286 53.8001C9.49841 53.8001 10.182 53.6742 10.7937 53.4224C11.4053 53.1525 11.927 52.7568 12.3587 52.2351C12.8085 51.6954 13.1503 51.0208 13.3841 50.2113L16.2444 51.3176C15.9206 52.415 15.3989 53.3414 14.6794 54.097C13.9778 54.8345 13.1053 55.4012 12.0619 55.797C11.0185 56.1748 9.84021 56.3726 8.52699 56.3906Z" fill="#447F98"/>
<path d="M18.2484 56.0938V54.07H19.8405V42.3859H18.2754V40.389H23.0786V54.07H24.5627V56.0938H18.2484Z" fill="#447F98"/>
<path d="M25.4675 56.0938V54.07H27.1136V47.3779H25.4945V45.3541H30.3786V54.07H31.9437V56.0938H25.4675ZM28.4628 43.2494C27.8691 43.2494 27.3834 43.0695 27.0056 42.7097C26.6279 42.3499 26.439 41.8912 26.439 41.3335C26.439 40.7578 26.6279 40.2901 27.0056 39.9303C27.3834 39.5705 27.8691 39.3906 28.4628 39.3906C29.0564 39.3906 29.5331 39.5705 29.8929 39.9303C30.2707 40.2901 30.4596 40.7578 30.4596 41.3335C30.4776 41.8912 30.2977 42.3499 29.9199 42.7097C29.5421 43.0695 29.0564 43.2494 28.4628 43.2494Z" fill="#447F98"/>
<path d="M32.8987 56.0938V54.07H34.5447V47.3779H32.9257V45.3541H37.6209L37.6749 46.6763L36.7844 47.0001C37.522 46.4245 38.2686 45.9658 39.0241 45.624C39.7977 45.2642 40.5892 45.0843 41.3987 45.0843C42.568 45.0843 43.4585 45.4441 44.0701 46.1636C44.6998 46.8832 45.0146 47.7647 45.0146 48.8081V54.07H46.6067V56.0938H40.3733V54.07H41.7495V49.3208C41.7495 48.7091 41.5966 48.2324 41.2908 47.8906C41.0029 47.5488 40.5982 47.3779 40.0765 47.3779C39.6088 47.3779 39.1051 47.4949 38.5654 47.7287C38.0257 47.9446 37.504 48.2414 37.0003 48.6192L37.8098 47.297V54.07H39.267V56.0938H32.8987ZM47.74 56.0938V54.07H49.1162V49.3208C49.1162 48.7091 48.9723 48.2324 48.6844 47.8906C48.3966 47.5488 47.9918 47.3779 47.4701 47.3779C46.9844 47.3779 46.4897 47.4859 45.986 47.7017C45.4823 47.8996 45.0056 48.1785 44.5559 48.5382L44.0971 47.0271C44.8527 46.4515 45.6082 45.9837 46.3638 45.624C47.1193 45.2642 47.9289 45.0843 48.7924 45.0843C49.8717 45.0843 50.7352 45.4261 51.3828 46.1097C52.0485 46.7753 52.3813 47.6658 52.3813 48.7811V54.07H53.9733V56.0938H47.74Z" fill="#447F98"/>
<path d="M58.6331 56.3906C57.5358 56.3906 56.6633 56.0938 56.0157 55.5001C55.3681 54.9065 55.0443 54.1509 55.0443 53.2335C55.0443 52.406 55.2421 51.7494 55.6379 51.2636C56.0337 50.7779 56.5554 50.4271 57.203 50.2113C57.8686 49.9954 58.5702 49.8875 59.3077 49.8875C59.9374 49.8875 60.531 49.9414 61.0887 50.0494C61.6464 50.1573 62.1411 50.2922 62.5728 50.4541L61.8982 50.5621V49.4827C61.8982 48.7451 61.7003 48.1964 61.3046 47.8367C60.9268 47.4769 60.3871 47.297 59.6855 47.297C59.1818 47.297 58.6241 47.3779 58.0125 47.5398C57.4009 47.6837 56.7622 47.9176 56.0966 48.2414L55.3141 46.3255C56.1056 45.9118 56.9331 45.606 57.7966 45.4081C58.6601 45.1922 59.4966 45.0843 60.3062 45.0843C61.3316 45.0843 62.195 45.2552 62.8966 45.597C63.6162 45.9388 64.1649 46.4245 64.5427 47.0541C64.9204 47.6658 65.1093 48.4033 65.1093 49.2668V54.07H66.5395V56.0938H62.3839L61.9792 54.4748H62.8696C62.24 55.1224 61.5924 55.6081 60.9268 55.9319C60.2612 56.2377 59.4966 56.3906 58.6331 56.3906ZM59.6315 54.5557C60.1173 54.5557 60.594 54.4478 61.0617 54.2319C61.5474 54.016 62.0331 53.6652 62.5189 53.1795L61.8982 54.1779V51.3446L62.4649 51.9113C62.1231 51.7673 61.7363 51.6504 61.3046 51.5605C60.8908 51.4525 60.4411 51.3986 59.9554 51.3986C59.4517 51.3986 58.9929 51.5155 58.5792 51.7494C58.1834 51.9832 57.9855 52.406 57.9855 53.0176C57.9855 53.4853 58.1294 53.8631 58.4173 54.1509C58.7051 54.4208 59.1099 54.5557 59.6315 54.5557Z" fill="#447F98"/>
<path d="M72.1699 56.0938C71.0905 56.0938 70.263 55.8419 69.6874 55.3382C69.1297 54.8166 68.8509 54.007 68.8509 52.9097V47.3779H67.3397V45.3541H68.8239V41.8192L72.1159 41.1176V45.3541H74.6794V47.3779H72.1159V52.424C72.1159 53.0176 72.2149 53.4314 72.4128 53.6652C72.6106 53.8991 72.9524 54.016 73.4381 54.016H74.8143V56.0938H72.1699Z" fill="#447F98"/>
<path d="M75.9574 56.0938V54.07H77.6034V47.3779H75.9844V45.3541H80.8685V54.07H82.4336V56.0938H75.9574ZM78.9526 43.2494C78.359 43.2494 77.8732 43.0695 77.4955 42.7097C77.1177 42.3499 76.9288 41.8912 76.9288 41.3335C76.9288 40.7578 77.1177 40.2901 77.4955 39.9303C77.8732 39.5705 78.359 39.3906 78.9526 39.3906C79.5463 39.3906 80.023 39.5705 80.3828 39.9303C80.7606 40.2901 80.9494 40.7578 80.9494 41.3335C80.9674 41.8912 80.7875 42.3499 80.4098 42.7097C80.032 43.0695 79.5463 43.2494 78.9526 43.2494Z" fill="#447F98"/>
<path d="M89.46 56.3636C88.2907 56.3636 87.2563 56.1208 86.3568 55.6351C85.4573 55.1494 84.7467 54.4748 84.2251 53.6113C83.7214 52.7478 83.4695 51.7494 83.4695 50.616C83.4695 49.5007 83.7034 48.5292 84.1711 47.7017C84.6568 46.8742 85.3044 46.2356 86.1139 45.7859C86.9415 45.3181 87.8679 45.0843 88.8933 45.0843C89.9007 45.0843 90.7192 45.3001 91.3489 45.7319C91.9965 46.1457 92.4372 46.6853 92.6711 47.3509H92.0505V45.3271H94.3441V49.5636H92.2393C92.1314 48.8621 91.8526 48.3134 91.4028 47.9176C90.9531 47.5218 90.3505 47.324 89.5949 47.324C88.9833 47.324 88.4526 47.4589 88.0028 47.7287C87.5711 47.9806 87.2293 48.3494 86.9774 48.8351C86.7256 49.3028 86.5997 49.8515 86.5997 50.4811C86.5997 51.1647 86.7436 51.7673 87.0314 52.289C87.3192 52.7927 87.706 53.1885 88.1917 53.4763C88.6954 53.7642 89.2801 53.9081 89.9457 53.9081C90.7192 53.9081 91.3848 53.7732 91.9425 53.5033C92.5182 53.2155 93.0309 52.8557 93.4806 52.424L94.506 54.3668C93.9124 54.9785 93.2018 55.4642 92.3743 55.824C91.5468 56.1837 90.5753 56.3636 89.46 56.3636Z" fill="#447F98"/>
<path d="M56.5625 21.25C56.5625 15.9683 52.2817 11.6875 47 11.6875C41.7183 11.6875 37.4375 15.9683 37.4375 21.25L56.5625 21.25Z" fill="#F2B035"/>
<path d="M61.875 24.4375L50.1875 24.4375L50.1875 26.5625L61.875 26.5625L61.875 24.4375Z" fill="#447F98"/>
<path d="M43.8125 24.4375L32.125 24.4375L32.125 26.5625L43.8125 26.5625L43.8125 24.4375Z" fill="#447F98"/>
<path d="M57.5708 20.1875C57.0353 14.8261 52.4995 10.625 47 10.625C41.4994 10.625 36.9636 14.8261 36.4292 20.1875L30 20.1875L30 22.3125L43.8125 22.3125L43.8125 20.1875L38.5733 20.1875C39.0993 16.0012 42.6735 12.75 47 12.75C51.3265 12.75 54.9007 16.0012 55.4267 20.1875L50.1875 20.1875L50.1875 22.3125L64 22.3125L64 20.1875L57.5708 20.1875Z" fill="#447F98"/>
<path d="M41.6875 28.6875L34.25 28.6875L34.25 30.8125L41.6875 30.8125L41.6875 28.6875Z" fill="#447F98"/>
<path d="M59.75 28.6875L52.3125 28.6875L52.3125 30.8125L59.75 30.8125L59.75 28.6875Z" fill="#447F98"/>
<path d="M48.0621 30.3726L48.0621 20.1875L45.9371 20.1875L45.9371 30.3726L44.5633 28.9988L43.0609 30.5012L46.2484 33.6887C46.4556 33.8959 46.7276 34 46.9996 34C47.2716 34 47.5436 33.8959 47.7508 33.6887L50.9383 30.5012L49.4359 28.9988L48.0621 30.3726Z" fill="#447F98"/>
<path d="M48.0625 -6.7131e-07L45.9375 -7.89537e-07L45.9375 2.125L48.0625 2.125L48.0625 -6.7131e-07Z" fill="#447F98"/>
<path d="M35.7317 8.47818L34.2289 9.98056L37.2336 12.9862L38.7364 11.4838L35.7317 8.47818Z" fill="#447F98"/>
<path d="M31.7692 13.629L30.9387 15.5851L34.8509 17.246L35.6813 15.2899L31.7692 13.629Z" fill="#447F98"/>
<path d="M32.7253 5.47179L31.2225 6.97416L32.7249 8.47696L34.2277 6.97459L32.7253 5.47179Z" fill="#447F98"/>
<path d="M58.2705 8.47707L55.2646 11.483L56.7671 12.9856L59.7731 9.97966L58.2705 8.47707Z" fill="#447F98"/>
<path d="M61.2737 5.47233L59.7711 6.97492L61.2737 8.47751L62.7763 6.97492L61.2737 5.47233Z" fill="#447F98"/>
<path d="M48.0625 4.25L45.9375 4.25L45.9375 8.5L48.0625 8.5L48.0625 4.25Z" fill="#447F98"/>
<path d="M41.6173 5.08902L39.647 5.88525L41.2395 9.82585L43.2098 9.02962L41.6173 5.08902Z" fill="#447F98"/>
<path d="M62.2323 13.6276L58.3192 15.2885L59.1495 17.2446L63.0626 15.5837L62.2323 13.6276Z" fill="#447F98"/>
<path d="M52.3837 5.08914L50.7912 9.02974L52.7605 9.82558L54.353 5.88498L52.3837 5.08914Z" fill="#447F98"/>
</svg>
