<svg width="90" height="60" viewBox="0 0 90 60" fill="none" xmlns="http://www.w3.org/2000/svg">
<path d="M8.92604 43.0167C7.93993 42.9232 7.07708 42.8637 6.33749 42.8382C5.5979 42.8042 4.96458 42.7872 4.43752 42.7872C4.19949 42.7872 3.99547 42.7872 3.82545 42.7872C3.66393 42.7872 3.51091 42.7957 3.36639 42.8127V47.824C3.95296 47.807 4.48002 47.7858 4.94758 47.7603C5.41513 47.7263 5.81043 47.688 6.13347 47.6455C6.51601 47.603 6.85605 47.5562 7.15358 47.5052C7.14508 47.5647 7.14083 47.6328 7.14083 47.7093C7.13233 47.7773 7.12808 47.858 7.12808 47.9515C7.12808 48.0451 7.12808 48.1513 7.12808 48.2703C7.12808 48.5424 7.13658 48.8697 7.15358 49.2522C7.17059 49.6262 7.20459 50.03 7.2556 50.4636C6.35449 50.3446 5.57665 50.2723 4.92207 50.2468C4.2675 50.2128 3.75744 50.1958 3.3919 50.1958C3.4089 51.8195 3.43865 53.1967 3.48116 54.3273C3.53216 55.4494 3.58317 56.359 3.63417 57.0561C3.68518 57.8807 3.74469 58.548 3.81269 59.0581C3.65118 59.0326 3.46415 59.0113 3.25163 58.9943C3.0391 58.9858 2.81383 58.9816 2.5758 58.9816C2.27827 58.9816 1.97648 58.9858 1.67044 58.9943C1.36441 59.0113 1.08813 59.0283 0.841598 59.0453C0.552565 59.0708 0.272032 59.0921 0 59.1091C0.0595069 58.5395 0.110513 57.9657 0.153018 57.3876C0.204024 56.8096 0.246529 56.24 0.280533 55.6789C0.314537 55.1179 0.34429 54.5781 0.369793 54.0595C0.395296 53.5409 0.416549 53.0521 0.433551 52.5931C0.467555 51.522 0.488807 50.4976 0.497308 49.52C0.488807 48.4999 0.467555 47.4542 0.433551 46.3831C0.416549 45.9241 0.395296 45.4438 0.369793 44.9422C0.34429 44.4321 0.314537 43.9136 0.280533 43.3865C0.246529 42.8595 0.204024 42.3324 0.153018 41.8053C0.110513 41.2698 0.0595069 40.7512 0 40.2496C1.06262 40.2922 2.01048 40.3262 2.84358 40.3517C3.68518 40.3687 4.43327 40.3772 5.08784 40.3772C5.73392 40.3772 6.29073 40.3729 6.75829 40.3644C7.22584 40.3474 7.60839 40.3304 7.90592 40.3134C8.25446 40.2964 8.5435 40.2751 8.77302 40.2496C8.77302 40.2411 8.77302 40.3177 8.77302 40.4792C8.77302 40.6407 8.77727 40.8532 8.78578 41.1167C8.79428 41.3803 8.80703 41.6778 8.82403 42.0094C8.84953 42.3409 8.88354 42.6767 8.92604 43.0167Z" fill="#29575D"/>
<path d="M13.2105 39.0765C13.1595 40.1136 13.1128 41.0742 13.0703 41.9583C13.0278 42.8424 12.9895 43.6755 12.9555 44.4576C12.93 45.2397 12.9088 45.9836 12.8918 46.6891C12.8748 47.3947 12.8577 48.0918 12.8407 48.7804C12.8322 49.469 12.8237 50.1618 12.8152 50.8589C12.8152 51.556 12.8152 52.2871 12.8152 53.0521C12.8152 53.9022 12.8152 54.8118 12.8152 55.781C12.8152 56.7501 12.8237 57.8254 12.8407 59.0071L9.94616 58.9433C9.99717 57.6597 10.0312 56.3973 10.0482 55.1561C10.0652 53.9065 10.0737 52.6271 10.0737 51.3179C10.0737 50.4423 10.0694 49.5455 10.0609 48.6274C10.0524 47.7008 10.0397 46.7359 10.0227 45.7328C10.0057 44.7212 9.98442 43.6585 9.95891 42.5449C9.94191 41.4313 9.92066 40.2496 9.89515 39L13.2105 39.0765Z" fill="#29575D"/>
<path d="M19.3058 59.4151C18.4642 59.4151 17.7373 59.2324 17.1252 58.8668C16.5217 58.5013 16.0201 57.9912 15.6206 57.3366C15.2295 56.6821 14.9405 55.9042 14.7535 55.0031C14.5665 54.102 14.4729 53.1201 14.4729 52.0575C14.4729 50.8249 14.5835 49.6942 14.8045 48.6656C15.0255 47.637 15.3485 46.7529 15.7736 46.0133C16.2071 45.2737 16.7385 44.6999 17.3675 44.2919C18.0051 43.8753 18.7362 43.667 19.5608 43.667C20.3939 43.667 21.1122 43.8413 21.7158 44.1899C22.3194 44.5384 22.8167 45.0272 23.2077 45.6563C23.6073 46.2854 23.9005 47.0377 24.0876 47.9133C24.2746 48.7889 24.3681 49.7538 24.3681 50.8079C24.3681 51.3519 24.3341 51.9428 24.2661 52.5803C24.2066 53.2179 24.1003 53.8555 23.9473 54.4931C23.8028 55.1306 23.6073 55.747 23.3607 56.342C23.1142 56.9286 22.8039 57.4514 22.4299 57.9105C22.0558 58.3695 21.6095 58.7351 21.091 59.0071C20.5809 59.2791 19.9858 59.4151 19.3058 59.4151ZM21.295 49.8643C21.295 49.2182 21.2652 48.6401 21.2057 48.1301C21.1462 47.6115 21.0485 47.1737 20.9124 46.8167C20.7849 46.4596 20.6192 46.1876 20.4151 46.0006C20.2196 45.805 19.9816 45.7073 19.701 45.7073C19.395 45.7073 19.1102 45.8688 18.8467 46.1918C18.5832 46.5149 18.3494 46.9824 18.1454 47.5945C17.9498 48.2066 17.7926 48.9547 17.6736 49.8388C17.563 50.7144 17.5078 51.7047 17.5078 52.8099C17.5078 53.5239 17.5418 54.1658 17.6098 54.7353C17.6778 55.2964 17.7798 55.7767 17.9158 56.1763C18.0519 56.5673 18.2176 56.8691 18.4131 57.0816C18.6172 57.2856 18.8552 57.3876 19.1272 57.3876C19.3993 57.3876 19.6415 57.2771 19.8541 57.0561C20.0666 56.8266 20.2494 56.5205 20.4024 56.138C20.5639 55.7555 20.6999 55.3134 20.8104 54.8118C20.9294 54.3018 21.023 53.7705 21.091 53.2179C21.159 52.6568 21.21 52.0873 21.244 51.5092C21.278 50.9311 21.295 50.3828 21.295 49.8643Z" fill="#29575D"/>
<path d="M30.323 59.4151C29.4814 59.4151 28.7546 59.2324 28.1425 58.8668C27.539 58.5013 27.0374 57.9912 26.6379 57.3366C26.2468 56.6821 25.9578 55.9042 25.7708 55.0031C25.5837 54.102 25.4902 53.1201 25.4902 52.0575C25.4902 50.8249 25.6007 49.6942 25.8218 48.6656C26.0428 47.637 26.3658 46.7529 26.7909 46.0133C27.2244 45.2737 27.7557 44.6999 28.3848 44.2919C29.0224 43.8753 29.7535 43.667 30.5781 43.667C31.4112 43.667 32.1295 43.8413 32.7331 44.1899C33.3366 44.5384 33.8339 45.0272 34.225 45.6563C34.6245 46.2854 34.9178 47.0377 35.1048 47.9133C35.2919 48.7889 35.3854 49.7538 35.3854 50.8079C35.3854 51.3519 35.3514 51.9428 35.2834 52.5803C35.2239 53.2179 35.1176 53.8555 34.9646 54.4931C34.8201 55.1306 34.6245 55.747 34.378 56.342C34.1315 56.9286 33.8212 57.4514 33.4472 57.9105C33.0731 58.3695 32.6268 58.7351 32.1082 59.0071C31.5982 59.2791 31.0031 59.4151 30.323 59.4151ZM32.3123 49.8643C32.3123 49.2182 32.2825 48.6401 32.223 48.1301C32.1635 47.6115 32.0657 47.1737 31.9297 46.8167C31.8022 46.4596 31.6364 46.1876 31.4324 46.0006C31.2369 45.805 30.9989 45.7073 30.7183 45.7073C30.4123 45.7073 30.1275 45.8688 29.864 46.1918C29.6005 46.5149 29.3667 46.9824 29.1627 47.5945C28.9671 48.2066 28.8099 48.9547 28.6908 49.8388C28.5803 50.7144 28.5251 51.7047 28.5251 52.8099C28.5251 53.5239 28.5591 54.1658 28.6271 54.7353C28.6951 55.2964 28.7971 55.7767 28.9331 56.1763C29.0691 56.5673 29.2349 56.8691 29.4304 57.0816C29.6345 57.2856 29.8725 57.3876 30.1445 57.3876C30.4165 57.3876 30.6588 57.2771 30.8714 57.0561C31.0839 56.8266 31.2666 56.5205 31.4197 56.138C31.5812 55.7555 31.7172 55.3134 31.8277 54.8118C31.9467 54.3018 32.0402 53.7705 32.1082 53.2179C32.1763 52.6568 32.2273 52.0873 32.2613 51.5092C32.2953 50.9311 32.3123 50.3828 32.3123 49.8643Z" fill="#29575D"/>
<path d="M46.6959 39.5483C46.5004 42.0306 46.3517 44.4959 46.2496 46.9442C46.1476 49.384 46.0966 51.845 46.0966 54.3273C46.0966 55.985 46.1221 57.6469 46.1731 59.3131L43.2658 59.3641L43.3551 56.8393C43.015 57.4769 42.6665 57.9657 42.3094 58.3058C41.9524 58.6458 41.6251 58.9008 41.3276 59.0708C40.979 59.2664 40.6347 59.3811 40.2947 59.4151C39.8612 59.4151 39.4234 59.2919 38.9813 59.0453C38.5392 58.7988 38.1397 58.3738 37.7827 57.7702C37.4256 57.1666 37.1323 56.3633 36.9028 55.3602C36.6733 54.3485 36.5585 53.0819 36.5585 51.5602C36.5585 50.5571 36.618 49.673 36.737 48.9079C36.8561 48.1343 37.0176 47.4627 37.2216 46.8932C37.4256 46.3236 37.6636 45.8475 37.9357 45.465C38.2162 45.074 38.5137 44.7594 38.8283 44.5214C39.1513 44.2834 39.4871 44.1133 39.8356 44.0113C40.1842 43.9093 40.5285 43.8583 40.8685 43.8583C41.098 43.8753 41.3446 43.9306 41.6081 44.0241C41.8291 44.1091 42.0799 44.2366 42.3604 44.4066C42.6495 44.5681 42.9428 44.8104 43.2403 45.1335C43.1893 43.2462 43.1128 41.3675 43.0108 39.4973L46.6959 39.5483ZM43.4061 52.5803C43.4061 50.9396 43.3806 49.2947 43.3296 47.6455C43.236 47.5095 43.134 47.3692 43.0235 47.2247C42.9215 47.0802 42.8067 46.9484 42.6792 46.8294C42.5517 46.7019 42.4157 46.5999 42.2712 46.5234C42.1267 46.4469 41.9736 46.4086 41.8121 46.4086C41.5741 46.4086 41.3318 46.4936 41.0853 46.6636C40.8473 46.8252 40.6305 47.1099 40.435 47.518C40.2394 47.9175 40.0779 48.4531 39.9504 49.1247C39.8314 49.7963 39.7719 50.6421 39.7719 51.6622C39.7719 52.6058 39.8144 53.3879 39.8994 54.0085C39.9844 54.6291 40.0992 55.1264 40.2437 55.5004C40.3882 55.866 40.554 56.1252 40.741 56.2783C40.928 56.4228 41.1278 56.495 41.3403 56.495C41.6634 56.495 41.9396 56.3888 42.1692 56.1763C42.4072 55.9552 42.6027 55.6917 42.7557 55.3857C42.9173 55.0796 43.049 54.7651 43.151 54.4421C43.253 54.1105 43.3381 53.83 43.4061 53.6005V52.5803Z" fill="#29575D"/>
<path d="M59.0649 54.8501C59.0649 55.6492 58.9204 56.3463 58.6313 56.9413C58.3423 57.5279 57.9725 58.0167 57.522 58.4078C57.0714 58.7903 56.5741 59.0751 56.03 59.2621C55.486 59.4576 54.9632 59.5554 54.4616 59.5554C53.6285 59.5554 52.8167 59.3641 52.0261 58.9816C51.2355 58.6075 50.5256 58.021 49.8966 57.2219C49.276 56.4143 48.7744 55.3814 48.3919 54.1233C48.0179 52.8566 47.8308 51.3392 47.8308 49.571C47.8308 48.3893 47.9201 47.3352 48.0986 46.4086C48.2856 45.482 48.5322 44.6659 48.8382 43.9603C49.1527 43.2547 49.5183 42.6554 49.9348 42.1624C50.3599 41.6608 50.8147 41.257 51.2992 40.951C51.7838 40.6364 52.2854 40.4069 52.8039 40.2624C53.3225 40.1179 53.8325 40.0456 54.3341 40.0456C55.0907 40.0456 55.741 40.1519 56.2851 40.3644C56.8376 40.5769 57.2924 40.849 57.6495 41.1805C58.0065 41.512 58.2701 41.8818 58.4401 42.2899C58.6101 42.6979 58.6951 43.0975 58.6951 43.4885C58.6951 43.8796 58.6398 44.2324 58.5293 44.5469C58.4273 44.8529 58.2871 45.1122 58.1085 45.3247C57.93 45.5373 57.7175 45.6988 57.471 45.8093C57.2244 45.9198 56.9609 45.9751 56.6804 45.9751C56.4423 45.9751 56.2043 45.9326 55.9663 45.8475C55.7283 45.7625 55.5157 45.6393 55.3287 45.4778C55.1417 45.3162 54.9887 45.1207 54.8697 44.8912C54.7591 44.6532 54.7039 44.3854 54.7039 44.0878C54.7124 43.9178 54.7336 43.7393 54.7676 43.5523C54.8016 43.3908 54.8526 43.2165 54.9207 43.0295C54.9972 42.8339 55.1077 42.6384 55.2522 42.4429C55.1247 42.3239 54.9887 42.2304 54.8442 42.1624C54.6996 42.0859 54.5679 42.0306 54.4489 41.9966C54.3043 41.9626 54.1598 41.9371 54.0153 41.9201C53.6838 41.9201 53.3905 42.0221 53.1354 42.2261C52.8804 42.4302 52.6594 42.7149 52.4724 43.0805C52.2854 43.4375 52.1281 43.8626 52.0006 44.3556C51.8731 44.8487 51.771 45.3842 51.6945 45.9623C51.6265 46.5404 51.5755 47.1482 51.5415 47.7858C51.5075 48.4148 51.4905 49.0524 51.4905 49.6985C51.4905 50.6676 51.5415 51.624 51.6435 52.5676C51.754 53.5027 51.9283 54.3443 52.1663 55.0924C52.4129 55.832 52.7359 56.4313 53.1354 56.8903C53.5435 57.3409 54.0408 57.5662 54.6274 57.5662C54.9844 57.5407 55.3075 57.4387 55.5965 57.2601C55.724 57.1836 55.8473 57.0901 55.9663 56.9796C56.0853 56.8606 56.1916 56.7161 56.2851 56.546C56.3871 56.3675 56.4678 56.1635 56.5273 55.934C56.5954 55.7044 56.6379 55.4367 56.6549 55.1306C56.5103 55.1901 56.3446 55.2199 56.1576 55.2199C55.9535 55.2199 55.7538 55.1774 55.5582 55.0924C55.3712 54.9989 55.2012 54.8756 55.0482 54.7226C54.8952 54.5611 54.7719 54.374 54.6784 54.1615C54.5849 53.9405 54.5381 53.6982 54.5381 53.4347C54.5381 53.0351 54.6274 52.7078 54.8059 52.4528C54.9929 52.1893 55.2054 51.981 55.4435 51.828C55.6815 51.675 55.9153 51.5687 56.1448 51.5092C56.3743 51.4412 56.5358 51.4072 56.6294 51.4072C56.6974 51.4072 56.8036 51.4199 56.9481 51.4455C57.0927 51.4625 57.2542 51.5092 57.4327 51.5857C57.6197 51.6622 57.8067 51.777 57.9938 51.93C58.1893 52.0745 58.3636 52.2743 58.5166 52.5293C58.6781 52.7844 58.8099 53.1031 58.9119 53.4857C59.0139 53.8597 59.0649 54.3145 59.0649 54.8501Z" fill="#29575D"/>
<path d="M66.295 59.2111C66.244 58.9476 66.1972 58.6798 66.1547 58.4078C66.1122 58.1357 66.0782 57.8552 66.0527 57.5662C65.6617 58.1442 65.1941 58.5863 64.65 58.8923C64.106 59.2069 63.5109 59.3641 62.8648 59.3641C62.5333 59.3641 62.1933 59.3089 61.8447 59.1984C61.4962 59.0963 61.1774 58.9136 60.8884 58.65C60.6078 58.3865 60.374 58.0295 60.187 57.5789C60.0085 57.1199 59.9192 56.5418 59.9192 55.8447C59.9192 55.2666 60.0043 54.7651 60.1743 54.34C60.3443 53.9065 60.5653 53.5282 60.8373 53.2052C61.1094 52.8821 61.4154 52.6016 61.7555 52.3636C62.0955 52.1255 62.4313 51.913 62.7628 51.726C63.1029 51.539 63.4259 51.3647 63.7319 51.2032C64.038 51.0417 64.2887 50.8801 64.4843 50.7186C64.8583 50.4211 65.1814 50.1065 65.4534 49.775C65.7339 49.435 65.9592 49.0822 66.1292 48.7166C66.0952 48.1301 66.0315 47.6498 65.9379 47.2757C65.8529 46.8932 65.7382 46.5914 65.5937 46.3704C65.4491 46.1408 65.2706 45.9836 65.0581 45.8986C64.8541 45.805 64.6203 45.7583 64.3568 45.7583C63.9657 45.7583 63.6342 45.8433 63.3621 46.0133C63.0986 46.1833 62.8818 46.3874 62.7118 46.6254C62.9243 46.7614 63.0859 46.9059 63.1964 47.0589C63.3154 47.212 63.4046 47.3607 63.4642 47.5052C63.5322 47.6668 63.5704 47.8325 63.5789 48.0026C63.5789 48.5806 63.4132 49.0227 63.0816 49.3287C62.7586 49.6347 62.342 49.7878 61.832 49.7878C61.5684 49.7878 61.3262 49.7283 61.1051 49.6092C60.8841 49.4817 60.6886 49.3075 60.5186 49.0864C60.357 48.8654 60.2295 48.6019 60.136 48.2958C60.0425 47.9898 59.9958 47.6583 59.9958 47.3012C59.9958 46.9442 60.0765 46.5659 60.238 46.1663C60.3995 45.7668 60.6588 45.397 61.0159 45.057C61.3729 44.7084 61.832 44.4236 62.393 44.2026C62.9541 43.9731 63.6342 43.8583 64.4333 43.8583C65.2324 43.8583 65.9167 44.0156 66.4863 44.3301C67.0558 44.6362 67.5234 45.0485 67.8889 45.567C68.2545 46.0771 68.518 46.6679 68.6795 47.3395C68.8495 48.0111 68.9345 48.7039 68.9345 49.418C68.9345 49.9535 68.9303 50.5358 68.9218 51.1649C68.9133 51.794 68.909 52.4401 68.909 53.1031C68.909 53.6557 68.9133 54.2083 68.9218 54.7608C68.9303 55.3134 68.9473 55.849 68.9728 56.3675C68.9983 56.8776 69.0323 57.3621 69.0748 57.8212C69.1173 58.2717 69.1726 58.6755 69.2406 59.0326L66.295 59.2111ZM66.1037 51.7387C65.8062 52.0958 65.4874 52.4018 65.1474 52.6568C64.8923 52.8354 64.616 53.0351 64.3185 53.2562C64.0295 53.4772 63.7574 53.711 63.5024 53.9575C63.2559 54.204 63.0476 54.4633 62.8776 54.7353C62.7161 54.9989 62.6353 55.2709 62.6353 55.5514C62.6353 55.934 62.7288 56.2613 62.9158 56.5333C63.1029 56.8053 63.3664 56.9413 63.7064 56.9413C64.021 56.9413 64.3015 56.8563 64.548 56.6863C64.7946 56.5163 65.0113 56.308 65.1984 56.0615C65.3939 55.8065 65.5554 55.5344 65.6829 55.2454C65.8189 54.9564 65.9252 54.6928 66.0017 54.4548L66.1037 51.7387Z" fill="#29575D"/>
<path d="M79.5948 47.1992C79.5948 47.5903 79.5225 47.9218 79.378 48.1938C79.2335 48.4659 79.0592 48.6869 78.8552 48.8569C78.6512 49.0269 78.4387 49.1502 78.2176 49.2267C77.9966 49.3032 77.8096 49.3415 77.6566 49.3415C77.5035 49.3415 77.3208 49.316 77.1082 49.2649C76.8957 49.2054 76.6917 49.1034 76.4962 48.9589C76.3092 48.8144 76.1476 48.6231 76.0116 48.3851C75.8756 48.1386 75.8076 47.8283 75.8076 47.4542C75.8161 47.2502 75.8544 47.0504 75.9224 46.8549C75.9819 46.6849 76.0711 46.5106 76.1901 46.3321C76.3177 46.1451 76.4962 45.9793 76.7257 45.8348C76.5727 45.6138 76.4197 45.4438 76.2666 45.3247C76.1136 45.2057 75.9776 45.1165 75.8586 45.057C75.7141 44.9889 75.5823 44.9464 75.4633 44.9294C75.1998 44.9294 74.9617 44.9847 74.7492 45.0952C74.5367 45.1972 74.3539 45.3375 74.2009 45.516C74.0564 45.686 73.9416 45.8858 73.8566 46.1153C73.7801 46.3449 73.7419 46.5829 73.7419 46.8294C73.7419 47.144 73.7631 47.4287 73.8056 47.6838C73.8481 47.9388 73.9459 48.1981 74.0989 48.4616C74.2519 48.7251 74.4814 49.0099 74.7875 49.316C75.0935 49.622 75.5101 49.979 76.0371 50.3871C76.5642 50.7951 77.0232 51.1947 77.4143 51.5857C77.8053 51.9683 78.1284 52.3466 78.3834 52.7206C78.6384 53.0946 78.8297 53.4729 78.9572 53.8555C79.0847 54.2295 79.1485 54.6206 79.1485 55.0286C79.1485 55.3007 79.1187 55.5982 79.0592 55.9212C79.0082 56.2358 78.9147 56.5588 78.7787 56.8903C78.6512 57.2134 78.4769 57.5279 78.2559 57.8339C78.0434 58.1315 77.7756 58.3993 77.4525 58.6373C77.138 58.8753 76.764 59.0623 76.3304 59.1984C75.9054 59.3429 75.4165 59.4151 74.864 59.4151C74.0309 59.4151 73.3211 59.2919 72.7345 59.0453C72.1479 58.7988 71.6634 58.5013 71.2808 58.1527C70.9068 57.7957 70.6305 57.4216 70.452 57.0306C70.282 56.6396 70.1969 56.2953 70.1969 55.9977C70.1969 55.6832 70.2352 55.3899 70.3117 55.1179C70.3882 54.8458 70.5072 54.6078 70.6687 54.4038C70.8388 54.1998 71.0513 54.0425 71.3063 53.932C71.5699 53.813 71.8844 53.7535 72.2499 53.7535C72.556 53.7535 72.8323 53.8002 73.0788 53.8937C73.3338 53.9872 73.5506 54.1275 73.7291 54.3145C73.9161 54.4931 74.0606 54.7141 74.1627 54.9776C74.2647 55.2411 74.3157 55.5387 74.3157 55.8702C74.3072 56.0147 74.2774 56.1635 74.2264 56.3165C74.1839 56.444 74.1116 56.5843 74.0096 56.7373C73.9076 56.8903 73.7674 57.0349 73.5888 57.1709C73.7078 57.2644 73.8226 57.3366 73.9331 57.3876C74.0521 57.4302 74.1584 57.4599 74.2519 57.4769C74.3539 57.5024 74.4559 57.5152 74.558 57.5152C74.6685 57.5152 74.796 57.4854 74.9405 57.4259C75.0935 57.3579 75.238 57.2559 75.374 57.1199C75.5101 56.9838 75.6248 56.8181 75.7183 56.6226C75.8118 56.427 75.8586 56.1933 75.8586 55.9212C75.8586 55.6492 75.8331 55.4027 75.7821 55.1816C75.7396 54.9521 75.6418 54.7183 75.4888 54.4803C75.3443 54.2338 75.1318 53.966 74.8512 53.677C74.5707 53.3879 74.2009 53.0394 73.7419 52.6313C73.2828 52.2233 72.8748 51.828 72.5177 51.4455C72.1607 51.0544 71.8589 50.6506 71.6124 50.2341C71.3743 49.8175 71.1916 49.3797 71.064 48.9207C70.9365 48.4616 70.8728 47.9558 70.8728 47.4032C70.8728 46.8592 70.979 46.3321 71.1916 45.822C71.4126 45.312 71.7229 44.8614 72.1224 44.4704C72.522 44.0708 73.0065 43.7563 73.5761 43.5268C74.1457 43.2888 74.7832 43.1697 75.4888 43.1697C76.2029 43.1697 76.8192 43.2802 77.3378 43.5013C77.8563 43.7223 78.2814 44.0198 78.6129 44.3939C78.9445 44.7594 79.191 45.1845 79.3525 45.669C79.514 46.1536 79.5948 46.6636 79.5948 47.1992Z" fill="#29575D"/>
<path d="M90 55.9467C90 56.4483 89.8852 56.9201 89.6557 57.3621C89.4262 57.8042 89.1159 58.1867 88.7249 58.5098C88.3338 58.8328 87.8748 59.0878 87.3477 59.2749C86.8206 59.4619 86.2596 59.5554 85.6645 59.5554C85.2649 59.5554 84.8612 59.5001 84.4531 59.3896C84.0451 59.2791 83.654 59.0963 83.28 58.8413C82.9059 58.5863 82.5531 58.2505 82.2216 57.8339C81.8901 57.4174 81.601 56.9073 81.3545 56.3038C81.1165 55.7002 80.9252 54.9946 80.7807 54.187C80.6447 53.3709 80.5767 52.4358 80.5767 51.3817C80.5767 50.3871 80.6447 49.5072 80.7807 48.7421C80.9252 47.977 81.1165 47.3097 81.3545 46.7402C81.601 46.1706 81.8858 45.6945 82.2088 45.312C82.5319 44.9209 82.8762 44.6064 83.2417 44.3684C83.6158 44.1218 83.9983 43.9476 84.3894 43.8456C84.7889 43.7436 85.1799 43.6925 85.5625 43.6925C86.132 43.6925 86.6719 43.7861 87.1819 43.9731C87.692 44.1516 88.1383 44.4194 88.5208 44.7764C88.9034 45.1335 89.2052 45.5755 89.4262 46.1026C89.6557 46.6211 89.7705 47.2205 89.7705 47.9005C89.7705 48.5126 89.643 49.1332 89.3879 49.7623C89.1414 50.3828 88.7716 50.9736 88.2785 51.5347C87.7855 52.0873 87.1734 52.5931 86.4423 53.0521C85.7197 53.5027 84.8867 53.8597 83.943 54.1233C83.994 54.6503 84.0663 55.1306 84.1598 55.5642C84.2618 55.9977 84.3851 56.3675 84.5296 56.6736C84.6826 56.9796 84.8569 57.2176 85.0524 57.3876C85.2564 57.5577 85.4902 57.6427 85.7538 57.6427C85.9238 57.6342 86.0853 57.6044 86.2383 57.5534C86.3743 57.5109 86.5103 57.4429 86.6464 57.3494C86.7909 57.2559 86.9099 57.1199 87.0034 56.9413C86.7824 56.8393 86.6124 56.7076 86.4933 56.546C86.3743 56.3845 86.2851 56.2315 86.2256 56.087C86.1576 55.917 86.1193 55.7385 86.1108 55.5514C86.1108 55.1434 86.1916 54.8118 86.3531 54.5568C86.5146 54.3018 86.7059 54.102 86.9269 53.9575C87.1479 53.813 87.3732 53.7152 87.6027 53.6642C87.8323 53.6047 88.015 53.575 88.151 53.575C88.2956 53.575 88.4698 53.6047 88.6739 53.6642C88.8864 53.7237 89.0904 53.8385 89.2859 54.0085C89.4814 54.1785 89.6472 54.4208 89.7832 54.7353C89.9277 55.0414 90 55.4452 90 55.9467ZM86.8504 47.926C86.8504 47.62 86.8206 47.331 86.7611 47.0589C86.7101 46.7784 86.6294 46.5361 86.5188 46.3321C86.4168 46.1281 86.2851 45.9666 86.1236 45.8475C85.9705 45.72 85.792 45.6563 85.588 45.6563C85.2394 45.6563 84.9547 45.8178 84.7336 46.1408C84.5126 46.4554 84.3341 46.8762 84.1981 47.4032C84.0621 47.9303 83.9686 48.5381 83.9175 49.2267C83.8665 49.9153 83.841 50.6336 83.841 51.3817V52.3126C84.2746 52.083 84.6741 51.811 85.0397 51.4965C85.4137 51.1819 85.7325 50.8376 85.996 50.4636C86.2681 50.081 86.4763 49.6772 86.6209 49.2522C86.7739 48.8271 86.8504 48.3851 86.8504 47.926Z" fill="#29575D"/>
<path d="M50.666 24.7545C52.2228 26.151 54.2413 26.9221 56.3327 26.9192H59.166V29.7525H56.3327C54.3432 29.7558 52.3882 29.2328 50.666 28.2367C48.9439 29.233 46.9889 29.756 44.9993 29.7525C43.0098 29.7558 41.0549 29.2328 39.3327 28.2367C37.6106 29.233 35.6556 29.756 33.666 29.7525H30.8327V26.9192H33.666C35.8434 26.9192 37.831 26.1003 39.3327 24.7545C40.8895 26.151 42.908 26.9221 44.9993 26.9192C47.1768 26.9192 49.1643 26.1003 50.666 24.7545ZM45.8111 2.17285L45.9528 2.28618L60.5827 15.5858H56.3327V24.0858C55.2329 24.0867 54.148 23.8311 53.1643 23.3392C52.1806 22.8474 51.3252 22.1329 50.666 21.2525C50.007 22.1331 49.1516 22.8477 48.1679 23.3395C47.1841 23.8314 46.0992 24.0869 44.9993 24.0858C43.8995 24.0867 42.8147 23.8311 41.831 23.3392C40.8473 22.8474 39.9919 22.1329 39.3327 21.2525C38.6737 22.1331 37.8183 22.8477 36.8345 23.3395C35.8508 23.8314 34.7659 24.0869 33.666 24.0858L33.6646 15.5858H29.416L44.0459 2.28618C44.2613 2.09004 44.532 1.96507 44.821 1.92832C45.11 1.89156 45.4033 1.94479 45.6609 2.08076L45.8111 2.17285Z" fill="#29575D"/>
</svg>
