<svg width="117" height="59" viewBox="0 0 117 59" fill="none" xmlns="http://www.w3.org/2000/svg">
<path d="M63.3437 1.56898C63.3437 0.702457 62.6413 0 61.7748 0C60.9082 0 60.2058 0.702457 60.2058 1.56898V4.56063C60.2058 5.42716 60.9082 6.12961 61.7748 6.12961C62.6413 6.12961 63.3437 5.42716 63.3437 4.56063V1.56898Z" fill="#2C5D86"/>
<path d="M70.0485 16.9219C70.185 16.3178 70.2571 15.6893 70.2571 15.044C70.2571 10.3589 66.4591 6.56092 61.774 6.56092C58.3918 6.56092 55.472 8.5402 54.1095 11.4036C53.0364 11.0912 51.9194 10.9316 50.7914 10.9339C47.6641 10.9339 44.6649 12.1762 42.4536 14.3875C40.2423 16.5988 39 19.598 39 22.7253C39 25.8526 40.2423 28.8517 42.4536 31.0631C44.6649 33.2744 47.6641 34.5167 50.7914 34.5167L65.7795 34.4766C65.9071 34.478 66.0345 34.4768 66.1614 34.4729C67.4948 34.4369 68.8057 34.1134 70.0041 33.5233C71.2815 32.8943 72.3967 31.9794 73.2631 30.8496C74.1296 29.7198 74.724 28.4054 75.0001 27.0087C75.2763 25.6119 75.2269 24.1703 74.8556 22.7958C74.4843 21.4212 73.8013 20.1507 72.8594 19.083C72.0689 18.1868 71.1139 17.4536 70.0485 16.9219Z" fill="#2C5D86"/>
<path d="M70.6892 15.0432C70.6892 14.1767 71.3916 13.4743 72.2581 13.4743H75.2498C76.1163 13.4743 76.8188 14.1767 76.8188 15.0432C76.8188 15.9098 76.1163 16.6122 75.2498 16.6122H72.2581C71.3916 16.6122 70.6892 15.9098 70.6892 15.0432Z" fill="#2C5D86"/>
<path d="M53.3569 4.40652C52.7442 3.79379 51.7508 3.79379 51.138 4.40652C50.5253 5.01924 50.5253 6.01267 51.138 6.62539L53.2538 8.74111C53.8665 9.35383 54.8599 9.35383 55.4726 8.74111C56.0854 8.12838 56.0854 7.13496 55.4726 6.52223L53.3569 4.40652Z" fill="#2C5D86"/>
<path d="M72.4112 4.40652C73.0239 5.01924 73.0239 6.01267 72.4112 6.62539L70.2955 8.74111C69.6828 9.35383 68.6893 9.35383 68.0766 8.74111C67.4639 8.12838 67.4639 7.13496 68.0766 6.52223L70.1923 4.40652C70.8051 3.79379 71.7985 3.79379 72.4112 4.40652Z" fill="#2C5D86"/>
<path d="M0 45.9744C0 45.4278 0.102098 44.915 0.306293 44.436C0.510488 43.957 0.786752 43.5394 1.13508 43.1832C1.48942 42.8209 1.90082 42.5353 2.36926 42.3265C2.83771 42.1177 3.33919 42.0133 3.8737 42.0133H9.80136V44.6571H3.8737C3.69353 44.6571 3.52537 44.6909 3.36922 44.7584C3.21307 44.826 3.07494 44.9212 2.95482 45.044C2.84071 45.1607 2.75063 45.2989 2.68456 45.4585C2.6185 45.6182 2.58547 45.7902 2.58547 45.9744C2.58547 46.1586 2.6185 46.3337 2.68456 46.4995C2.75063 46.6592 2.84071 46.8004 2.95482 46.9232C3.07494 47.0399 3.21307 47.132 3.36922 47.1996C3.52537 47.2671 3.69353 47.3009 3.8737 47.3009H6.45917C6.99368 47.3009 7.49516 47.4053 7.96361 47.6141C8.43806 47.8168 8.84945 48.0993 9.19779 48.4616C9.55212 48.8178 9.82839 49.2385 10.0266 49.7236C10.2308 50.2027 10.3329 50.7155 10.3329 51.262C10.3329 51.8086 10.2308 52.3214 10.0266 52.8004C9.82839 53.2794 9.55212 53.7001 9.19779 54.0624C8.84945 54.4186 8.43806 54.7011 7.96361 54.9099C7.49516 55.1187 6.99368 55.2231 6.45917 55.2231H0.720688V52.5793H6.45917C6.63934 52.5793 6.8075 52.5455 6.96365 52.478C7.1198 52.4104 7.25493 52.3183 7.36904 52.2016C7.48915 52.0788 7.58224 51.9376 7.64831 51.7779C7.71437 51.6182 7.7474 51.4463 7.7474 51.262C7.7474 51.0778 7.71437 50.9058 7.64831 50.7462C7.58224 50.5865 7.48915 50.4483 7.36904 50.3316C7.25493 50.2088 7.1198 50.1136 6.96365 50.0461C6.8075 49.9785 6.63934 49.9447 6.45917 49.9447H3.8737C3.33919 49.9447 2.83771 49.8403 2.36926 49.6315C1.90082 49.4227 1.48942 49.1402 1.13508 48.784C0.786752 48.4217 0.510488 48.001 0.306293 47.522C0.102098 47.0368 0 46.521 0 45.9744Z" fill="#2C5D86"/>
<path d="M14.2516 55.2231H11.7742V41.433H14.2516V50.129L17.9181 45.3756H20.7468L17.5488 49.4841L20.7468 55.2231H17.9181L15.9632 51.6397L14.2516 53.9611V55.2231Z" fill="#2C5D86"/>
<path d="M24.044 58.9816V56.4483L25.4133 56.4667C25.6535 56.4667 25.8847 56.4268 26.1069 56.347C26.3292 56.2671 26.5333 56.1566 26.7195 56.0154C26.9117 55.8741 27.0799 55.7052 27.224 55.5087C27.3681 55.3183 27.4853 55.1095 27.5753 54.8823C27.3051 54.999 27.0288 55.1157 26.7466 55.2323C26.4703 55.349 26.191 55.4074 25.9088 55.4074C25.3142 55.4074 24.7556 55.2999 24.2332 55.085C23.7107 54.87 23.2512 54.566 22.8548 54.173C22.4645 53.7738 22.1552 53.2917 21.9269 52.7267C21.7047 52.1556 21.5936 51.5169 21.5936 50.8106V45.3572H24.044V50.8106C24.044 51.1607 24.092 51.4678 24.1881 51.7318C24.2902 51.9898 24.4253 52.2078 24.5935 52.3859C24.7617 52.5578 24.9568 52.6868 25.1791 52.7728C25.4073 52.8588 25.6505 52.9017 25.9088 52.9017C26.161 52.9017 26.3982 52.8434 26.6204 52.7267C26.8486 52.6039 27.0468 52.4442 27.215 52.2477C27.3832 52.0512 27.5153 51.8301 27.6114 51.5844C27.7075 51.3327 27.7555 51.0747 27.7555 50.8106V45.3572H30.2329V53.9795C30.2269 54.6735 30.0947 55.3245 29.8365 55.9324C29.5783 56.5404 29.2239 57.0716 28.7735 57.5261C28.3291 57.9806 27.8096 58.3398 27.215 58.6039C26.6204 58.868 25.9838 59 25.3052 59L24.044 58.9816Z" fill="#2C5D86"/>
<path d="M45.1511 49.9447V47.3009C45.1511 46.9386 45.0821 46.5977 44.9439 46.2784C44.8118 45.9529 44.6286 45.6704 44.3944 45.4309C44.1602 45.1914 43.8839 45.0041 43.5656 44.869C43.2533 44.7277 42.92 44.6571 42.5657 44.6571C42.2113 44.6571 41.875 44.7277 41.5567 44.869C41.2444 45.0041 40.9711 45.1914 40.7369 45.4309C40.5027 45.6704 40.3165 45.9529 40.1784 46.2784C40.0463 46.5977 39.9802 46.9386 39.9802 47.3009V49.9447H45.1511ZM47.7366 55.2231H45.1511V52.5793H39.9802V55.2231H37.4037V47.3009C37.4037 46.5701 37.5389 45.8854 37.8091 45.2467C38.0794 44.6018 38.4457 44.0399 38.9082 43.5609C39.3766 43.0819 39.9231 42.7042 40.5477 42.4278C41.1783 42.1515 41.851 42.0133 42.5657 42.0133C43.2803 42.0133 43.95 42.1515 44.5746 42.4278C45.2052 42.7042 45.7547 43.0819 46.2232 43.5609C46.6916 44.0399 47.061 44.6018 47.3312 45.2467C47.6015 45.8854 47.7366 46.5701 47.7366 47.3009V55.2231Z" fill="#2C5D86"/>
<path d="M52.1778 55.2231H49.7185V45.3572H50.3131L51.1238 46.3153C51.5202 45.9468 51.9676 45.6643 52.4661 45.4678C52.9706 45.2651 53.4961 45.1638 54.0426 45.1638C54.6312 45.1638 55.1867 45.2805 55.7092 45.5138C56.2317 45.741 56.6882 46.0573 57.0785 46.4626C57.4689 46.8618 57.7752 47.3316 57.9974 47.8721C58.2256 48.4063 58.3397 48.9775 58.3397 49.5855V55.2231H55.8804V49.5855C55.8804 49.3275 55.8323 49.085 55.7362 48.8577C55.6402 48.6244 55.508 48.4217 55.3399 48.2497C55.1717 48.0778 54.9765 47.9427 54.7543 47.8444C54.5321 47.7462 54.2949 47.697 54.0426 47.697C53.7844 47.697 53.5411 47.7462 53.3129 47.8444C53.0847 47.9427 52.8865 48.0778 52.7184 48.2497C52.5502 48.4217 52.4181 48.6244 52.322 48.8577C52.2259 49.085 52.1778 49.3275 52.1778 49.5855V55.2231Z" fill="#2C5D86"/>
<path d="M69.4383 55.2231H68.8438L67.8889 53.869C67.6546 54.0839 67.4054 54.2866 67.1411 54.477C66.8829 54.6612 66.6096 54.824 66.3214 54.9652C66.0331 55.1003 65.7358 55.2078 65.4295 55.2876C65.1292 55.3675 64.8229 55.4074 64.5106 55.4074C63.832 55.4074 63.1924 55.2907 62.5918 55.0573C61.9972 54.824 61.4747 54.4862 61.0243 54.044C60.5799 53.5957 60.2285 53.0491 59.9703 52.4043C59.712 51.7595 59.5829 51.0256 59.5829 50.2027C59.5829 49.435 59.712 48.7318 59.9703 48.0931C60.2285 47.4483 60.5799 46.8956 61.0243 46.435C61.4747 45.9744 61.9972 45.6182 62.5918 45.3664C63.1924 45.1085 63.832 44.9795 64.5106 44.9795C64.8229 44.9795 65.1322 45.0194 65.4385 45.0993C65.7448 45.1791 66.0421 45.2897 66.3304 45.4309C66.6186 45.5722 66.8919 45.738 67.1501 45.9284C67.4144 46.1187 67.6606 46.3245 67.8889 46.5455L68.8438 45.3756H69.4383V55.2231ZM66.961 50.2027C66.961 49.8588 66.8949 49.5271 66.7628 49.2078C66.6367 48.8823 66.4625 48.5967 66.2403 48.3511C66.0181 48.0993 65.7568 47.8997 65.4565 47.7523C65.1622 47.5988 64.8469 47.522 64.5106 47.522C64.1743 47.522 63.856 47.5803 63.5557 47.697C63.2614 47.8137 63.0032 47.9857 62.781 48.2129C62.5648 48.4401 62.3936 48.7226 62.2675 49.0604C62.1414 49.392 62.0783 49.7728 62.0783 50.2027C62.0783 50.6325 62.1414 51.0164 62.2675 51.3541C62.3936 51.6858 62.5648 51.9652 62.781 52.1924C63.0032 52.4197 63.2614 52.5916 63.5557 52.7083C63.856 52.825 64.1743 52.8833 64.5106 52.8833C64.8469 52.8833 65.1622 52.8096 65.4565 52.6622C65.7568 52.5087 66.0181 52.3091 66.2403 52.0635C66.4625 51.8117 66.6367 51.5261 66.7628 51.2068C66.8949 50.8813 66.961 50.5466 66.961 50.2027Z" fill="#2C5D86"/>
<path d="M73.7985 55.2231H71.3211V41.433H73.7985V55.2231Z" fill="#2C5D86"/>
<path d="M78.0055 58.9816V56.4483L79.3748 56.4667C79.6151 56.4667 79.8463 56.4268 80.0685 56.347C80.2907 56.2671 80.4949 56.1566 80.6811 56.0154C80.8733 55.8741 81.0414 55.7052 81.1856 55.5087C81.3297 55.3183 81.4468 55.1095 81.5369 54.8823C81.2666 54.999 80.9904 55.1157 80.7081 55.2323C80.4318 55.349 80.1526 55.4074 79.8703 55.4074C79.2757 55.4074 78.7172 55.2999 78.1947 55.085C77.6722 54.87 77.2128 54.566 76.8164 54.173C76.426 53.7738 76.1167 53.2917 75.8885 52.7267C75.6663 52.1556 75.5552 51.5169 75.5552 50.8106V45.3572H78.0055V50.8106C78.0055 51.1607 78.0536 51.4678 78.1497 51.7318C78.2518 51.9898 78.3869 52.2078 78.555 52.3859C78.7232 52.5578 78.9184 52.6868 79.1406 52.7728C79.3688 52.8588 79.6121 52.9017 79.8703 52.9017C80.1225 52.9017 80.3598 52.8434 80.582 52.7267C80.8102 52.6039 81.0084 52.4442 81.1765 52.2477C81.3447 52.0512 81.4768 51.8301 81.5729 51.5844C81.669 51.3327 81.7171 51.0747 81.7171 50.8106V45.3572H84.1944V53.9795C84.1884 54.6735 84.0563 55.3245 83.798 55.9324C83.5398 56.5404 83.1855 57.0716 82.735 57.5261C82.2906 57.9806 81.7711 58.3398 81.1765 58.6039C80.582 58.868 79.9454 59 79.2667 59L78.0055 58.9816Z" fill="#2C5D86"/>
<path d="M90.9148 55.2231C90.3203 55.2231 89.7617 55.1095 89.2393 54.8823C88.7168 54.6489 88.2573 54.3327 87.8609 53.9335C87.4706 53.5281 87.1613 53.0583 86.933 52.5241C86.7108 51.9898 86.5997 51.4186 86.5997 50.8106V47.8813H85.4016V45.3756H86.5997V41.433H89.0501V45.3756H92.7796V47.8813H89.0501V50.8106C89.0501 51.0747 89.0981 51.3234 89.1942 51.5568C89.2903 51.784 89.4224 51.9836 89.5906 52.1556C89.7587 52.3275 89.9569 52.4657 90.1852 52.5701C90.4134 52.6684 90.6566 52.7175 90.9148 52.7175H92.7796V55.2231H90.9148Z" fill="#2C5D86"/>
<path d="M97.0677 42.6766C97.0677 42.9099 97.0227 43.1279 96.9326 43.3306C96.8485 43.5333 96.7314 43.7114 96.5813 43.8649C96.4311 44.0123 96.254 44.132 96.0498 44.2242C95.8516 44.3101 95.6384 44.3531 95.4101 44.3531C95.1819 44.3531 94.9657 44.3101 94.7615 44.2242C94.5633 44.132 94.3892 44.0123 94.239 43.8649C94.0949 43.7114 93.9778 43.5333 93.8877 43.3306C93.8036 43.1279 93.7616 42.9099 93.7616 42.6766C93.7616 42.4493 93.8036 42.2344 93.8877 42.0317C93.9778 41.8229 94.0949 41.6448 94.239 41.4974C94.3892 41.3439 94.5633 41.2242 94.7615 41.1382C94.9657 41.0461 95.1819 41 95.4101 41C95.6384 41 95.8516 41.0461 96.0498 41.1382C96.254 41.2242 96.4311 41.3439 96.5813 41.4974C96.7314 41.6448 96.8485 41.8229 96.9326 42.0317C97.0227 42.2344 97.0677 42.4493 97.0677 42.6766ZM96.6443 55.2231H94.167V45.3572H96.6443V55.2231Z" fill="#2C5D86"/>
<path d="M106.959 47.3193L105.157 49.1709C105.067 48.913 104.944 48.6827 104.788 48.48C104.632 48.2712 104.455 48.0962 104.257 47.955C104.064 47.8137 103.854 47.7062 103.626 47.6325C103.398 47.5589 103.164 47.522 102.923 47.522C102.587 47.522 102.269 47.5926 101.968 47.7339C101.674 47.8751 101.416 48.0747 101.194 48.3327C100.977 48.5844 100.806 48.8854 100.68 49.2354C100.554 49.5855 100.491 49.9724 100.491 50.3961C100.491 50.74 100.554 51.0624 100.68 51.3634C100.806 51.6643 100.977 51.9284 101.194 52.1556C101.416 52.3828 101.674 52.5609 101.968 52.6899C102.269 52.8188 102.587 52.8833 102.923 52.8833C103.164 52.8833 103.395 52.8495 103.617 52.782C103.839 52.7144 104.046 52.6192 104.239 52.4964C104.437 52.3675 104.611 52.2139 104.761 52.0358C104.917 51.8516 105.043 51.6489 105.139 51.4278L106.941 53.2794C106.713 53.6111 106.449 53.9089 106.148 54.173C105.854 54.4371 105.533 54.6612 105.184 54.8454C104.842 55.0297 104.479 55.1679 104.094 55.26C103.716 55.3582 103.326 55.4074 102.923 55.4074C102.245 55.4074 101.605 55.2784 101.004 55.0205C100.41 54.7564 99.8874 54.3971 99.437 53.9427C98.9926 53.4882 98.6412 52.957 98.383 52.349C98.1247 51.741 97.9956 51.0901 97.9956 50.3961C97.9956 49.6407 98.1247 48.9345 98.383 48.2774C98.6412 47.6203 98.9926 47.0491 99.437 46.564C99.8874 46.0727 100.41 45.6858 101.004 45.4033C101.605 45.1208 102.245 44.9795 102.923 44.9795C103.326 44.9795 103.719 45.0317 104.103 45.1361C104.494 45.2405 104.863 45.3941 105.212 45.5967C105.566 45.7932 105.89 46.0358 106.184 46.3245C106.485 46.6131 106.743 46.9447 106.959 47.3193Z" fill="#2C5D86"/>
<path d="M113.463 55.2231H107.842V52.7175H113.463C113.632 52.7175 113.776 52.6561 113.896 52.5333C114.016 52.4104 114.076 52.2631 114.076 52.0911C114.076 51.913 114.016 51.7963 113.896 51.741C113.776 51.6858 113.632 51.6581 113.463 51.6581H110.905C110.479 51.6581 110.079 51.5752 109.707 51.4094C109.334 51.2436 109.01 51.0194 108.734 50.7369C108.458 50.4483 108.238 50.1136 108.076 49.7329C107.92 49.3521 107.842 48.9437 107.842 48.5077C107.842 48.0716 107.92 47.6633 108.076 47.2825C108.238 46.9017 108.458 46.5701 108.734 46.2876C109.01 46.0051 109.334 45.784 109.707 45.6244C110.079 45.4585 110.479 45.3756 110.905 45.3756H115.887V47.8813H110.905C110.737 47.8813 110.593 47.9427 110.473 48.0655C110.352 48.1883 110.292 48.3357 110.292 48.5077C110.292 48.6858 110.352 48.8393 110.473 48.9683C110.593 49.0911 110.737 49.1525 110.905 49.1525H113.463C113.884 49.1525 114.28 49.2262 114.653 49.3736C115.025 49.5148 115.349 49.7144 115.625 49.9724C115.902 50.2303 116.121 50.5404 116.283 50.9028C116.445 51.2651 116.526 51.6612 116.526 52.0911C116.526 52.5271 116.445 52.9355 116.283 53.3163C116.121 53.6909 115.902 54.0225 115.625 54.3112C115.349 54.5937 115.025 54.8178 114.653 54.9836C114.28 55.1433 113.884 55.2231 113.463 55.2231Z" fill="#2C5D86"/>
</svg>
