<svg width="15" height="15" viewBox="0 0 15 15" fill="none" xmlns="http://www.w3.org/2000/svg">
<g clip-path="url(#clip0_3533_278)">
<path fill-rule="evenodd" clip-rule="evenodd" d="M1.98159 4.62524C5.09633 1.7436 9.90974 1.74822 13.0198 4.62587C13.1864 4.78001 13.1965 5.04002 13.0424 5.20661C12.8882 5.37321 12.6282 5.3833 12.4616 5.22916C9.66625 2.6427 5.33912 2.6387 2.53976 5.22856C2.37316 5.38269 2.11315 5.37258 1.95902 5.20598C1.80488 5.03938 1.81499 4.77937 1.98159 4.62524Z" fill="black"/>
<path fill-rule="evenodd" clip-rule="evenodd" d="M7.50045 0.821916C5.01499 0.821916 2.74133 1.72186 0.985045 3.21337C0.812046 3.36029 0.552702 3.33915 0.405784 3.16615C0.258866 2.99315 0.280009 2.73381 0.453008 2.58689C2.3522 0.974021 4.81278 0 7.50045 0C10.1747 0 12.6244 0.964411 14.5198 2.56387C14.6933 2.71024 14.7152 2.96952 14.5688 3.14298C14.4225 3.31643 14.1632 3.33839 13.9897 3.19201C12.237 1.71298 9.97348 0.821916 7.50045 0.821916Z" fill="black"/>
<path fill-rule="evenodd" clip-rule="evenodd" d="M7.50041 5.75356C6.29606 5.75356 5.20268 6.22386 4.39197 6.9916C4.22717 7.14767 3.96706 7.14059 3.811 6.97579C3.65494 6.81099 3.66202 6.55088 3.82682 6.39482C4.78404 5.48832 6.07751 4.93164 7.50041 4.93164C8.92341 4.93164 10.2175 5.48901 11.1747 6.39616C11.3395 6.55228 11.3465 6.81239 11.1903 6.97713C11.0342 7.14187 10.7741 7.14886 10.6094 6.99273C9.79864 6.2244 8.70467 5.75356 7.50041 5.75356Z" fill="black"/>
<path d="M10.2479 9.65738L6.24108 14.5889L6.85752 11.5067H4.08355L8.09039 6.5752L7.47395 9.65738H10.2479Z" fill="#4461F2"/>
<path fill-rule="evenodd" clip-rule="evenodd" d="M8.26534 6.20321C8.43632 6.28367 8.53039 6.47035 8.49333 6.65564L7.9752 9.24627H10.2479C10.4064 9.24627 10.5508 9.33747 10.619 9.48061C10.6871 9.62376 10.6668 9.79334 10.5668 9.91638L6.55999 14.8479C6.44083 14.9945 6.23702 15.041 6.06605 14.9606C5.89508 14.8801 5.801 14.6934 5.83806 14.5081L6.35619 11.9175H4.08351C3.92497 11.9175 3.78057 11.8263 3.71244 11.6832C3.6443 11.54 3.66459 11.3704 3.76456 11.2474L7.7714 6.3159C7.89056 6.16924 8.09437 6.12274 8.26534 6.20321ZM4.94692 11.0956H6.85748C6.9806 11.0956 7.09723 11.1508 7.17529 11.246C7.25335 11.3412 7.2846 11.4664 7.26045 11.5871L6.96988 13.04L9.38447 10.0682H7.47391C7.35079 10.0682 7.23416 10.013 7.1561 9.91778C7.07805 9.82256 7.04679 9.69737 7.07094 9.57664L7.36151 8.12379L4.94692 11.0956Z" fill="black"/>
</g>
<defs>
<clipPath id="clip0_3533_278">
<rect width="15" height="15" fill="white"/>
</clipPath>
</defs>
</svg>
