<svg width="269" height="58" viewBox="0 0 269 58" fill="none" xmlns="http://www.w3.org/2000/svg">
<path d="M49.1839 19.5654C37.8404 9.54524 20.2829 9.52942 8.92285 19.5632" stroke="black" stroke-width="6" stroke-miterlimit="10" stroke-linecap="round" stroke-linejoin="round"/>
<path d="M3 12.1294C10.0216 6.43652 19.1153 3 29.0521 3C38.9392 3 47.9926 6.40261 55 12.048" stroke="black" stroke-width="6" stroke-miterlimit="10" stroke-linecap="round" stroke-linejoin="round"/>
<path d="M16.0249 26.0405C19.4208 22.9703 24.0056 21.087 29.0521 21.087C34.0987 21.087 38.6858 22.9725 42.0817 26.0451" stroke="black" stroke-width="6" stroke-miterlimit="10" stroke-linecap="round" stroke-linejoin="round"/>
<path d="M39.607 36.9131L24.214 55L26.5821 43.6957H15.9254L31.3184 25.6087L28.9503 36.9131H39.607Z" fill="#4461F2" stroke="black" stroke-width="6" stroke-miterlimit="10" stroke-linejoin="round"/>
<path d="M63.3313 24.44V27.848H68.8273V31.016H63.3313V34.712H69.5473V38H59.2273V21.152H69.5473V24.44H63.3313ZM88.0276 21.152L82.0516 38H76.9156L70.9396 21.152H75.3076L79.4836 33.872L83.6836 21.152H88.0276ZM94.1328 29.552C94.1328 27.888 94.4928 26.408 95.2128 25.112C95.9328 23.8 96.9328 22.784 98.2128 22.064C99.5088 21.328 100.973 20.96 102.605 20.96C104.605 20.96 106.317 21.488 107.741 22.544C109.165 23.6 110.117 25.04 110.597 26.864H106.085C105.749 26.16 105.269 25.624 104.645 25.256C104.037 24.888 103.341 24.704 102.557 24.704C101.293 24.704 100.269 25.144 99.4848 26.024C98.7008 26.904 98.3088 28.08 98.3088 29.552C98.3088 31.024 98.7008 32.2 99.4848 33.08C100.269 33.96 101.293 34.4 102.557 34.4C103.341 34.4 104.037 34.216 104.645 33.848C105.269 33.48 105.749 32.944 106.085 32.24H110.597C110.117 34.064 109.165 35.504 107.741 36.56C106.317 37.6 104.605 38.12 102.605 38.12C100.973 38.12 99.5088 37.76 98.2128 37.04C96.9328 36.304 95.9328 35.288 95.2128 33.992C94.4928 32.696 94.1328 31.216 94.1328 29.552ZM121.342 24.464C122.878 24.464 124.11 24.976 125.038 26C125.966 27.008 126.43 28.4 126.43 30.176V38H122.35V30.728C122.35 29.832 122.118 29.136 121.654 28.64C121.19 28.144 120.566 27.896 119.782 27.896C118.998 27.896 118.374 28.144 117.91 28.64C117.446 29.136 117.214 29.832 117.214 30.728V38H113.11V20.24H117.214V26.408C117.63 25.816 118.198 25.344 118.918 24.992C119.638 24.64 120.446 24.464 121.342 24.464ZM128.466 31.28C128.466 29.904 128.722 28.696 129.234 27.656C129.762 26.616 130.474 25.816 131.37 25.256C132.266 24.696 133.266 24.416 134.37 24.416C135.314 24.416 136.138 24.608 136.842 24.992C137.562 25.376 138.114 25.88 138.498 26.504V24.608H142.602V38H138.498V36.104C138.098 36.728 137.538 37.232 136.818 37.616C136.114 38 135.29 38.192 134.346 38.192C133.258 38.192 132.266 37.912 131.37 37.352C130.474 36.776 129.762 35.968 129.234 34.928C128.722 33.872 128.466 32.656 128.466 31.28ZM138.498 31.304C138.498 30.28 138.21 29.472 137.634 28.88C137.074 28.288 136.386 27.992 135.57 27.992C134.754 27.992 134.058 28.288 133.482 28.88C132.922 29.456 132.642 30.256 132.642 31.28C132.642 32.304 132.922 33.12 133.482 33.728C134.058 34.32 134.754 34.616 135.57 34.616C136.386 34.616 137.074 34.32 137.634 33.728C138.21 33.136 138.498 32.328 138.498 31.304ZM149.675 26.84C150.155 26.104 150.755 25.528 151.475 25.112C152.195 24.68 152.995 24.464 153.875 24.464V28.808H152.747C151.723 28.808 150.955 29.032 150.443 29.48C149.931 29.912 149.675 30.68 149.675 31.784V38H145.571V24.608H149.675V26.84ZM160.925 24.416C161.869 24.416 162.693 24.608 163.397 24.992C164.117 25.376 164.669 25.88 165.053 26.504V24.608H169.157V37.976C169.157 39.208 168.909 40.32 168.413 41.312C167.933 42.32 167.189 43.12 166.181 43.712C165.189 44.304 163.949 44.6 162.461 44.6C160.477 44.6 158.869 44.128 157.637 43.184C156.405 42.256 155.701 40.992 155.525 39.392H159.581C159.709 39.904 160.013 40.304 160.493 40.592C160.973 40.896 161.565 41.048 162.269 41.048C163.117 41.048 163.789 40.8 164.285 40.304C164.797 39.824 165.053 39.048 165.053 37.976V36.08C164.653 36.704 164.101 37.216 163.397 37.616C162.693 38 161.869 38.192 160.925 38.192C159.821 38.192 158.821 37.912 157.925 37.352C157.029 36.776 156.317 35.968 155.789 34.928C155.277 33.872 155.021 32.656 155.021 31.28C155.021 29.904 155.277 28.696 155.789 27.656C156.317 26.616 157.029 25.816 157.925 25.256C158.821 24.696 159.821 24.416 160.925 24.416ZM165.053 31.304C165.053 30.28 164.765 29.472 164.189 28.88C163.629 28.288 162.941 27.992 162.125 27.992C161.309 27.992 160.613 28.288 160.037 28.88C159.477 29.456 159.197 30.256 159.197 31.28C159.197 32.304 159.477 33.12 160.037 33.728C160.613 34.32 161.309 34.616 162.125 34.616C162.941 34.616 163.629 34.32 164.189 33.728C164.765 33.136 165.053 32.328 165.053 31.304ZM174.19 23.216C173.47 23.216 172.878 23.008 172.414 22.592C171.966 22.16 171.742 21.632 171.742 21.008C171.742 20.368 171.966 19.84 172.414 19.424C172.878 18.992 173.47 18.776 174.19 18.776C174.894 18.776 175.47 18.992 175.918 19.424C176.382 19.84 176.614 20.368 176.614 21.008C176.614 21.632 176.382 22.16 175.918 22.592C175.47 23.008 174.894 23.216 174.19 23.216ZM176.23 24.608V38H172.126V24.608H176.23ZM187.364 24.464C188.932 24.464 190.18 24.976 191.108 26C192.052 27.008 192.524 28.4 192.524 30.176V38H188.444V30.728C188.444 29.832 188.212 29.136 187.748 28.64C187.284 28.144 186.66 27.896 185.876 27.896C185.092 27.896 184.468 28.144 184.004 28.64C183.54 29.136 183.308 29.832 183.308 30.728V38H179.204V24.608H183.308V26.384C183.724 25.792 184.284 25.328 184.988 24.992C185.692 24.64 186.484 24.464 187.364 24.464ZM200.464 24.416C201.408 24.416 202.232 24.608 202.936 24.992C203.656 25.376 204.208 25.88 204.592 26.504V24.608H208.696V37.976C208.696 39.208 208.448 40.32 207.952 41.312C207.472 42.32 206.728 43.12 205.72 43.712C204.728 44.304 203.488 44.6 202 44.6C200.016 44.6 198.408 44.128 197.176 43.184C195.944 42.256 195.24 40.992 195.064 39.392H199.12C199.248 39.904 199.552 40.304 200.032 40.592C200.512 40.896 201.104 41.048 201.808 41.048C202.656 41.048 203.328 40.8 203.824 40.304C204.336 39.824 204.592 39.048 204.592 37.976V36.08C204.192 36.704 203.64 37.216 202.936 37.616C202.232 38 201.408 38.192 200.464 38.192C199.36 38.192 198.36 37.912 197.464 37.352C196.568 36.776 195.856 35.968 195.328 34.928C194.816 33.872 194.56 32.656 194.56 31.28C194.56 29.904 194.816 28.696 195.328 27.656C195.856 26.616 196.568 25.816 197.464 25.256C198.36 24.696 199.36 24.416 200.464 24.416ZM204.592 31.304C204.592 30.28 204.304 29.472 203.728 28.88C203.168 28.288 202.48 27.992 201.664 27.992C200.848 27.992 200.152 28.288 199.576 28.88C199.016 29.456 198.736 30.256 198.736 31.28C198.736 32.304 199.016 33.12 199.576 33.728C200.152 34.32 200.848 34.616 201.664 34.616C202.48 34.616 203.168 34.32 203.728 33.728C204.304 33.136 204.592 32.328 204.592 31.304ZM227.239 35.024H220.951L219.943 38H215.647L221.743 21.152H226.495L232.591 38H228.247L227.239 35.024ZM226.183 31.856L224.095 25.688L222.031 31.856H226.183ZM238.55 26.504C238.95 25.88 239.502 25.376 240.206 24.992C240.91 24.608 241.734 24.416 242.678 24.416C243.782 24.416 244.782 24.696 245.678 25.256C246.574 25.816 247.278 26.616 247.79 27.656C248.318 28.696 248.582 29.904 248.582 31.28C248.582 32.656 248.318 33.872 247.79 34.928C247.278 35.968 246.574 36.776 245.678 37.352C244.782 37.912 243.782 38.192 242.678 38.192C241.75 38.192 240.926 38 240.206 37.616C239.502 37.232 238.95 36.736 238.55 36.128V44.384H234.446V24.608H238.55V26.504ZM244.406 31.28C244.406 30.256 244.118 29.456 243.542 28.88C242.982 28.288 242.286 27.992 241.454 27.992C240.638 27.992 239.942 28.288 239.366 28.88C238.806 29.472 238.526 30.28 238.526 31.304C238.526 32.328 238.806 33.136 239.366 33.728C239.942 34.32 240.638 34.616 241.454 34.616C242.27 34.616 242.966 34.32 243.542 33.728C244.118 33.12 244.406 32.304 244.406 31.28ZM254.839 26.504C255.239 25.88 255.791 25.376 256.495 24.992C257.199 24.608 258.023 24.416 258.967 24.416C260.071 24.416 261.071 24.696 261.967 25.256C262.863 25.816 263.567 26.616 264.079 27.656C264.607 28.696 264.871 29.904 264.871 31.28C264.871 32.656 264.607 33.872 264.079 34.928C263.567 35.968 262.863 36.776 261.967 37.352C261.071 37.912 260.071 38.192 258.967 38.192C258.039 38.192 257.215 38 256.495 37.616C255.791 37.232 255.239 36.736 254.839 36.128V44.384H250.735V24.608H254.839V26.504ZM260.695 31.28C260.695 30.256 260.407 29.456 259.831 28.88C259.271 28.288 258.575 27.992 257.743 27.992C256.927 27.992 256.231 28.288 255.655 28.88C255.095 29.472 254.815 30.28 254.815 31.304C254.815 32.328 255.095 33.136 255.655 33.728C256.231 34.32 256.927 34.616 257.743 34.616C258.559 34.616 259.255 34.32 259.831 33.728C260.407 33.12 260.695 32.304 260.695 31.28Z" fill="black"/>
</svg>
