<svg width="107" height="15" viewBox="0 0 107 15" fill="none" xmlns="http://www.w3.org/2000/svg">
<g clip-path="url(#clip0_3533_277)">
<path fill-rule="evenodd" clip-rule="evenodd" d="M1.98159 4.62524C5.09633 1.7436 9.90974 1.74822 13.0198 4.62587C13.1864 4.78001 13.1965 5.04002 13.0424 5.20661C12.8882 5.37321 12.6282 5.3833 12.4616 5.22916C9.66625 2.6427 5.33912 2.6387 2.53976 5.22856C2.37316 5.38269 2.11315 5.37258 1.95902 5.20598C1.80488 5.03938 1.81499 4.77937 1.98159 4.62524Z" fill="black"/>
<path fill-rule="evenodd" clip-rule="evenodd" d="M7.50045 0.821916C5.01499 0.821916 2.74133 1.72186 0.985045 3.21337C0.812046 3.36029 0.552702 3.33915 0.405784 3.16615C0.258866 2.99315 0.280009 2.73381 0.453008 2.58689C2.3522 0.974021 4.81278 0 7.50045 0C10.1747 0 12.6244 0.964411 14.5198 2.56387C14.6933 2.71024 14.7152 2.96952 14.5688 3.14298C14.4225 3.31643 14.1632 3.33839 13.9897 3.19201C12.237 1.71298 9.97348 0.821916 7.50045 0.821916Z" fill="black"/>
<path fill-rule="evenodd" clip-rule="evenodd" d="M7.50041 5.75356C6.29606 5.75356 5.20268 6.22386 4.39197 6.9916C4.22717 7.14767 3.96706 7.14059 3.811 6.97579C3.65494 6.81099 3.66202 6.55088 3.82682 6.39482C4.78404 5.48832 6.07751 4.93164 7.50041 4.93164C8.92341 4.93164 10.2175 5.48901 11.1747 6.39616C11.3395 6.55228 11.3465 6.81239 11.1903 6.97713C11.0342 7.14187 10.7741 7.14886 10.6094 6.99273C9.79864 6.2244 8.70467 5.75356 7.50041 5.75356Z" fill="black"/>
<path d="M10.2479 9.65738L6.24108 14.5889L6.85752 11.5067H4.08355L8.09039 6.5752L7.47395 9.65738H10.2479Z" fill="#4461F2"/>
<path fill-rule="evenodd" clip-rule="evenodd" d="M8.26534 6.20321C8.43632 6.28367 8.53039 6.47035 8.49333 6.65564L7.9752 9.24627H10.2479C10.4064 9.24627 10.5508 9.33747 10.619 9.48061C10.6871 9.62376 10.6668 9.79334 10.5668 9.91638L6.55999 14.8479C6.44083 14.9945 6.23702 15.041 6.06605 14.9606C5.89508 14.8801 5.801 14.6934 5.83806 14.5081L6.35619 11.9175H4.08351C3.92497 11.9175 3.78057 11.8263 3.71244 11.6832C3.6443 11.54 3.66459 11.3704 3.76456 11.2474L7.7714 6.3159C7.89056 6.16924 8.09437 6.12274 8.26534 6.20321ZM4.94692 11.0956H6.85748C6.9806 11.0956 7.09723 11.1508 7.17529 11.246C7.25335 11.3412 7.2846 11.4664 7.26045 11.5871L6.96988 13.04L9.38447 10.0682H7.47391C7.35079 10.0682 7.23416 10.013 7.1561 9.91778C7.07805 9.82256 7.04679 9.69737 7.07094 9.57664L7.36151 8.12379L4.94692 11.0956Z" fill="black"/>
</g>
<path d="M22.539 5.35V6.77H24.829V8.09H22.539V9.63H25.129V11H20.829V3.98H25.129V5.35H22.539ZM32.8291 3.98L30.3391 11H28.1991L25.7091 3.98H27.5291L29.2691 9.28L31.0191 3.98H32.8291ZM35.373 7.48C35.373 6.78667 35.523 6.17 35.823 5.63C36.123 5.08333 36.5396 4.66 37.073 4.36C37.613 4.05333 38.223 3.9 38.903 3.9C39.7363 3.9 40.4496 4.12 41.043 4.56C41.6363 5 42.033 5.6 42.233 6.36H40.353C40.213 6.06667 40.013 5.84333 39.753 5.69C39.4996 5.53667 39.2096 5.46 38.883 5.46C38.3563 5.46 37.9296 5.64333 37.603 6.01C37.2763 6.37667 37.113 6.86667 37.113 7.48C37.113 8.09333 37.2763 8.58333 37.603 8.95C37.9296 9.31667 38.3563 9.5 38.883 9.5C39.2096 9.5 39.4996 9.42333 39.753 9.27C40.013 9.11667 40.213 8.89333 40.353 8.6H42.233C42.033 9.36 41.6363 9.96 41.043 10.4C40.4496 10.8333 39.7363 11.05 38.903 11.05C38.223 11.05 37.613 10.9 37.073 10.6C36.5396 10.2933 36.123 9.87 35.823 9.33C35.523 8.79 35.373 8.17333 35.373 7.48ZM46.7102 5.36C47.3502 5.36 47.8635 5.57333 48.2502 6C48.6368 6.42 48.8302 7 48.8302 7.74V11H47.1302V7.97C47.1302 7.59667 47.0335 7.30667 46.8402 7.1C46.6468 6.89333 46.3868 6.79 46.0602 6.79C45.7335 6.79 45.4735 6.89333 45.2802 7.1C45.0868 7.30667 44.9902 7.59667 44.9902 7.97V11H43.2802V3.6H44.9902V6.17C45.1635 5.92333 45.4002 5.72667 45.7002 5.58C46.0002 5.43333 46.3368 5.36 46.7102 5.36ZM49.6784 8.2C49.6784 7.62667 49.7851 7.12333 49.9984 6.69C50.2184 6.25667 50.5151 5.92333 50.8884 5.69C51.2618 5.45667 51.6784 5.34 52.1384 5.34C52.5318 5.34 52.8751 5.42 53.1684 5.58C53.4684 5.74 53.6984 5.95 53.8584 6.21V5.42H55.5684V11H53.8584V10.21C53.6918 10.47 53.4584 10.68 53.1584 10.84C52.8651 11 52.5218 11.08 52.1284 11.08C51.6751 11.08 51.2618 10.9633 50.8884 10.73C50.5151 10.49 50.2184 10.1533 49.9984 9.72C49.7851 9.28 49.6784 8.77333 49.6784 8.2ZM53.8584 8.21C53.8584 7.78333 53.7384 7.44667 53.4984 7.2C53.2651 6.95333 52.9784 6.83 52.6384 6.83C52.2984 6.83 52.0084 6.95333 51.7684 7.2C51.5351 7.44 51.4184 7.77333 51.4184 8.2C51.4184 8.62667 51.5351 8.96667 51.7684 9.22C52.0084 9.46667 52.2984 9.59 52.6384 9.59C52.9784 9.59 53.2651 9.46667 53.4984 9.22C53.7384 8.97333 53.8584 8.63667 53.8584 8.21ZM58.5155 6.35C58.7155 6.04333 58.9655 5.80333 59.2655 5.63C59.5655 5.45 59.8989 5.36 60.2655 5.36V7.17H59.7955C59.3689 7.17 59.0489 7.26333 58.8355 7.45C58.6222 7.63 58.5155 7.95 58.5155 8.41V11H56.8055V5.42H58.5155V6.35ZM63.2029 5.34C63.5962 5.34 63.9396 5.42 64.2329 5.58C64.5329 5.74 64.7629 5.95 64.9229 6.21V5.42H66.6329V10.99C66.6329 11.5033 66.5296 11.9667 66.3229 12.38C66.1229 12.8 65.8129 13.1333 65.3929 13.38C64.9796 13.6267 64.4629 13.75 63.8429 13.75C63.0162 13.75 62.3462 13.5533 61.8329 13.16C61.3196 12.7733 61.0262 12.2467 60.9529 11.58H62.6429C62.6962 11.7933 62.8229 11.96 63.0229 12.08C63.2229 12.2067 63.4696 12.27 63.7629 12.27C64.1162 12.27 64.3962 12.1667 64.6029 11.96C64.8162 11.76 64.9229 11.4367 64.9229 10.99V10.2C64.7562 10.46 64.5262 10.6733 64.2329 10.84C63.9396 11 63.5962 11.08 63.2029 11.08C62.7429 11.08 62.3262 10.9633 61.9529 10.73C61.5796 10.49 61.2829 10.1533 61.0629 9.72C60.8496 9.28 60.7429 8.77333 60.7429 8.2C60.7429 7.62667 60.8496 7.12333 61.0629 6.69C61.2829 6.25667 61.5796 5.92333 61.9529 5.69C62.3262 5.45667 62.7429 5.34 63.2029 5.34ZM64.9229 8.21C64.9229 7.78333 64.8029 7.44667 64.5629 7.2C64.3296 6.95333 64.0429 6.83 63.7029 6.83C63.3629 6.83 63.0729 6.95333 62.8329 7.2C62.5996 7.44 62.4829 7.77333 62.4829 8.2C62.4829 8.62667 62.5996 8.96667 62.8329 9.22C63.0729 9.46667 63.3629 9.59 63.7029 9.59C64.0429 9.59 64.3296 9.46667 64.5629 9.22C64.8029 8.97333 64.9229 8.63667 64.9229 8.21ZM68.73 4.84C68.43 4.84 68.1833 4.75333 67.99 4.58C67.8033 4.4 67.71 4.18 67.71 3.92C67.71 3.65333 67.8033 3.43333 67.99 3.26C68.1833 3.08 68.43 2.99 68.73 2.99C69.0233 2.99 69.2633 3.08 69.45 3.26C69.6433 3.43333 69.74 3.65333 69.74 3.92C69.74 4.18 69.6433 4.4 69.45 4.58C69.2633 4.75333 69.0233 4.84 68.73 4.84ZM69.58 5.42V11H67.87V5.42H69.58ZM74.2192 5.36C74.8726 5.36 75.3926 5.57333 75.7792 6C76.1726 6.42 76.3692 7 76.3692 7.74V11H74.6692V7.97C74.6692 7.59667 74.5726 7.30667 74.3792 7.1C74.1859 6.89333 73.9259 6.79 73.5992 6.79C73.2726 6.79 73.0126 6.89333 72.8192 7.1C72.6259 7.30667 72.5292 7.59667 72.5292 7.97V11H70.8192V5.42H72.5292V6.16C72.7026 5.91333 72.9359 5.72 73.2292 5.58C73.5226 5.43333 73.8526 5.36 74.2192 5.36ZM79.6775 5.34C80.0708 5.34 80.4142 5.42 80.7075 5.58C81.0075 5.74 81.2375 5.95 81.3975 6.21V5.42H83.1075V10.99C83.1075 11.5033 83.0042 11.9667 82.7975 12.38C82.5975 12.8 82.2875 13.1333 81.8675 13.38C81.4542 13.6267 80.9375 13.75 80.3175 13.75C79.4908 13.75 78.8208 13.5533 78.3075 13.16C77.7942 12.7733 77.5008 12.2467 77.4275 11.58H79.1175C79.1708 11.7933 79.2975 11.96 79.4975 12.08C79.6975 12.2067 79.9442 12.27 80.2375 12.27C80.5908 12.27 80.8708 12.1667 81.0775 11.96C81.2908 11.76 81.3975 11.4367 81.3975 10.99V10.2C81.2308 10.46 81.0008 10.6733 80.7075 10.84C80.4142 11 80.0708 11.08 79.6775 11.08C79.2175 11.08 78.8008 10.9633 78.4275 10.73C78.0542 10.49 77.7575 10.1533 77.5375 9.72C77.3242 9.28 77.2175 8.77333 77.2175 8.2C77.2175 7.62667 77.3242 7.12333 77.5375 6.69C77.7575 6.25667 78.0542 5.92333 78.4275 5.69C78.8008 5.45667 79.2175 5.34 79.6775 5.34ZM81.3975 8.21C81.3975 7.78333 81.2775 7.44667 81.0375 7.2C80.8042 6.95333 80.5175 6.83 80.1775 6.83C79.8375 6.83 79.5475 6.95333 79.3075 7.2C79.0742 7.44 78.9575 7.77333 78.9575 8.2C78.9575 8.62667 79.0742 8.96667 79.3075 9.22C79.5475 9.46667 79.8375 9.59 80.1775 9.59C80.5175 9.59 80.8042 9.46667 81.0375 9.22C81.2775 8.97333 81.3975 8.63667 81.3975 8.21ZM90.8338 9.76H88.2138L87.7938 11H86.0038L88.5438 3.98H90.5238L93.0638 11H91.2538L90.8338 9.76ZM90.3938 8.44L89.5238 5.87L88.6638 8.44H90.3938ZM95.5468 6.21C95.7135 5.95 95.9435 5.74 96.2368 5.58C96.5301 5.42 96.8735 5.34 97.2668 5.34C97.7268 5.34 98.1435 5.45667 98.5168 5.69C98.8901 5.92333 99.1835 6.25667 99.3968 6.69C99.6168 7.12333 99.7268 7.62667 99.7268 8.2C99.7268 8.77333 99.6168 9.28 99.3968 9.72C99.1835 10.1533 98.8901 10.49 98.5168 10.73C98.1435 10.9633 97.7268 11.08 97.2668 11.08C96.8801 11.08 96.5368 11 96.2368 10.84C95.9435 10.68 95.7135 10.4733 95.5468 10.22V13.66H93.8368V5.42H95.5468V6.21ZM97.9868 8.2C97.9868 7.77333 97.8668 7.44 97.6268 7.2C97.3935 6.95333 97.1035 6.83 96.7568 6.83C96.4168 6.83 96.1268 6.95333 95.8868 7.2C95.6535 7.44667 95.5368 7.78333 95.5368 8.21C95.5368 8.63667 95.6535 8.97333 95.8868 9.22C96.1268 9.46667 96.4168 9.59 96.7568 9.59C97.0968 9.59 97.3868 9.46667 97.6268 9.22C97.8668 8.96667 97.9868 8.62667 97.9868 8.2ZM102.334 6.21C102.501 5.95 102.731 5.74 103.024 5.58C103.317 5.42 103.661 5.34 104.054 5.34C104.514 5.34 104.931 5.45667 105.304 5.69C105.677 5.92333 105.971 6.25667 106.184 6.69C106.404 7.12333 106.514 7.62667 106.514 8.2C106.514 8.77333 106.404 9.28 106.184 9.72C105.971 10.1533 105.677 10.49 105.304 10.73C104.931 10.9633 104.514 11.08 104.054 11.08C103.667 11.08 103.324 11 103.024 10.84C102.731 10.68 102.501 10.4733 102.334 10.22V13.66H100.624V5.42H102.334V6.21ZM104.774 8.2C104.774 7.77333 104.654 7.44 104.414 7.2C104.181 6.95333 103.891 6.83 103.544 6.83C103.204 6.83 102.914 6.95333 102.674 7.2C102.441 7.44667 102.324 7.78333 102.324 8.21C102.324 8.63667 102.441 8.97333 102.674 9.22C102.914 9.46667 103.204 9.59 103.544 9.59C103.884 9.59 104.174 9.46667 104.414 9.22C104.654 8.96667 104.774 8.62667 104.774 8.2Z" fill="black"/>
<defs>
<clipPath id="clip0_3533_277">
<rect width="15" height="15" fill="white"/>
</clipPath>
</defs>
</svg>
