<svg width="26" height="23" viewBox="0 0 26 23" fill="none" xmlns="http://www.w3.org/2000/svg">
<path d="M15.9475 9.5957H20.9023" stroke="black" stroke-width="1.5" stroke-linecap="round" stroke-linejoin="round"/>
<path d="M15.9475 13.506H20.9023" stroke="black" stroke-width="1.5" stroke-linecap="round" stroke-linejoin="round"/>
<path d="M8.52782 13.5059C10.1697 13.5059 11.5007 12.1929 11.5007 10.5733C11.5007 8.95362 10.1697 7.64062 8.52782 7.64062C6.88597 7.64062 5.55499 8.95362 5.55499 10.5733C5.55499 12.1929 6.88597 13.5059 8.52782 13.5059Z" stroke="black" stroke-width="1.5" stroke-linecap="round" stroke-linejoin="round"/>
<path d="M4.6879 16.4387C4.90621 15.5976 5.40208 14.8521 6.09734 14.3198C6.79259 13.7874 7.64769 13.4984 8.52782 13.4984C9.40795 13.4984 10.263 13.7874 10.9583 14.3198C11.6536 14.8521 12.1494 15.5976 12.3677 16.4387" stroke="black" stroke-width="1.5" stroke-linecap="round" stroke-linejoin="round"/>
<path d="M23.8751 1.77539H2.07428C1.527 1.77539 1.08334 2.21305 1.08334 2.75294V20.3488C1.08334 20.8887 1.527 21.3264 2.07428 21.3264H23.8751C24.4224 21.3264 24.866 20.8887 24.866 20.3488V2.75294C24.866 2.21305 24.4224 1.77539 23.8751 1.77539Z" stroke="black" stroke-width="1.5" stroke-linecap="round" stroke-linejoin="round"/>
</svg>
