<svg width="40" height="40" viewBox="0 0 40 40" fill="none" xmlns="http://www.w3.org/2000/svg">
<path d="M13.4124 7.78749H14.4124V6.78749V5C14.4124 3.1398 15.9272 1.625 17.7874 1.625H22.2125C24.0727 1.625 25.5875 3.1398 25.5875 5V6.78749V7.78749H26.5875H26.9125C28.7727 7.78749 30.2875 9.30229 30.2875 11.1625V35C30.2875 36.8602 28.7727 38.375 26.9125 38.375H13.0874C11.2272 38.375 9.7124 36.8602 9.7124 35V11.1625C9.7124 9.30228 11.2272 7.78749 13.0874 7.78749H13.4124ZM22.8375 7.78749H23.8375V6.78749V5C23.8375 4.08463 23.0891 3.375 22.2125 3.375H17.7874C16.9108 3.375 16.1624 4.08463 16.1624 5V6.78749V7.78749H17.1624H22.8375ZM25.0188 24.0303L25.0195 24.0284C25.3228 23.1563 25.1951 22.1798 24.6532 21.4216C24.1099 20.649 23.2265 20.2124 22.3124 20.2124H21.8988L22.8067 17.8755C22.8068 17.8754 22.8068 17.8754 22.8068 17.8753C23.3853 16.3901 22.6318 14.728 21.163 14.1557C19.6882 13.5811 18.0198 14.3075 17.4433 15.7866C17.4433 15.7867 17.4432 15.7869 17.4432 15.787L15.0062 22.0356C14.6599 22.9207 14.7766 23.9178 15.3116 24.7014L15.3117 24.7015C15.8453 25.4827 16.7396 25.9625 17.6875 25.9625H18.253L17.4061 28.3821L17.405 28.3853C16.8899 29.8733 17.667 31.522 19.17 32.044C19.4752 32.1514 19.7868 32.2125 20.1249 32.2125C21.3119 32.2125 22.4265 31.4679 22.8328 30.2761L25.0188 24.0303Z" stroke="#228B22" stroke-width="2"/>
</svg>
