<svg width="132" height="40" viewBox="0 0 132 40" fill="none" xmlns="http://www.w3.org/2000/svg">
<path d="M13.4124 7.78749H14.4124V6.78749V5C14.4124 3.1398 15.9272 1.625 17.7874 1.625H22.2125C24.0727 1.625 25.5875 3.1398 25.5875 5V6.78749V7.78749H26.5875H26.9125C28.7727 7.78749 30.2875 9.30228 30.2875 11.1625V35C30.2875 36.8602 28.7727 38.375 26.9125 38.375H13.0874C11.2272 38.375 9.7124 36.8602 9.7124 35V11.1625C9.7124 9.30228 11.2272 7.78749 13.0874 7.78749H13.4124ZM22.8375 7.78749H23.8375V6.78749V5C23.8375 4.08463 23.0891 3.375 22.2125 3.375H17.7874C16.9108 3.375 16.1624 4.08463 16.1624 5V6.78749V7.78749H17.1624H22.8375ZM25.0188 24.0303L25.0195 24.0284C25.3228 23.1563 25.1951 22.1797 24.6532 21.4215C24.1099 20.649 23.2265 20.2124 22.3124 20.2124H21.8988L22.8067 17.8755C22.8068 17.8754 22.8068 17.8754 22.8068 17.8753C23.3853 16.3901 22.6318 14.728 21.163 14.1557C19.6882 13.5811 18.0198 14.3075 17.4433 15.7866C17.4433 15.7867 17.4432 15.7869 17.4432 15.787L15.0062 22.0356C15.0061 22.0357 15.0061 22.0358 15.0061 22.0359C14.6599 22.9209 14.7766 23.9179 15.3116 24.7014L15.3117 24.7015C15.8453 25.4827 16.7396 25.9625 17.6875 25.9625H18.253L17.4061 28.3821L17.405 28.3853C16.8899 29.8733 17.667 31.522 19.17 32.044C19.4752 32.1514 19.7868 32.2125 20.1249 32.2125C21.3119 32.2125 22.4265 31.4679 22.8328 30.2761L25.0188 24.0303Z" stroke="#228B22" stroke-width="2"/>
<path d="M55.92 29.5L52.124 22.61H51.058V29.5H46.612V11.248H54.074C55.5127 11.248 56.7347 11.4993 57.74 12.002C58.7627 12.5047 59.5253 13.198 60.028 14.082C60.5307 14.9487 60.782 15.9193 60.782 16.994C60.782 18.2073 60.4353 19.2907 59.742 20.244C59.066 21.1973 58.0607 21.8733 56.726 22.272L60.938 29.5H55.92ZM51.058 19.464H53.814C54.6287 19.464 55.2353 19.2647 55.634 18.866C56.05 18.4673 56.258 17.904 56.258 17.176C56.258 16.4827 56.05 15.9367 55.634 15.538C55.2353 15.1393 54.6287 14.94 53.814 14.94H51.058V19.464ZM77.2489 22.012C77.2489 22.428 77.2229 22.8613 77.1709 23.312H67.1089C67.1783 24.2133 67.4643 24.9067 67.9669 25.392C68.4869 25.86 69.1196 26.094 69.8649 26.094C70.9743 26.094 71.7456 25.626 72.1789 24.69H76.9109C76.6683 25.6433 76.2263 26.5013 75.5849 27.264C74.9609 28.0267 74.1723 28.6247 73.2189 29.058C72.2656 29.4913 71.1996 29.708 70.0209 29.708C68.5996 29.708 67.3343 29.4047 66.2249 28.798C65.1156 28.1913 64.2489 27.3247 63.6249 26.198C63.0009 25.0713 62.6889 23.754 62.6889 22.246C62.6889 20.738 62.9923 19.4207 63.5989 18.294C64.2229 17.1673 65.0896 16.3007 66.1989 15.694C67.3083 15.0873 68.5823 14.784 70.0209 14.784C71.4249 14.784 72.6729 15.0787 73.7649 15.668C74.8569 16.2573 75.7063 17.098 76.3129 18.19C76.9369 19.282 77.2489 20.556 77.2489 22.012ZM72.6989 20.842C72.6989 20.0793 72.4389 19.4727 71.9189 19.022C71.3989 18.5713 70.7489 18.346 69.9689 18.346C69.2236 18.346 68.5909 18.5627 68.0709 18.996C67.5683 19.4293 67.2563 20.0447 67.1349 20.842H72.6989ZM88.4344 14.836C90.1331 14.836 91.4851 15.3907 92.4904 16.5C93.5131 17.592 94.0244 19.1 94.0244 21.024V29.5H89.6044V21.622C89.6044 20.6513 89.3531 19.8973 88.8504 19.36C88.3478 18.8227 87.6718 18.554 86.8224 18.554C85.9731 18.554 85.2971 18.8227 84.7944 19.36C84.2918 19.8973 84.0404 20.6513 84.0404 21.622V29.5H79.5944V14.992H84.0404V16.916C84.4911 16.2747 85.0978 15.772 85.8604 15.408C86.6231 15.0267 87.4811 14.836 88.4344 14.836ZM105.2 25.73V29.5H102.938C101.326 29.5 100.069 29.11 99.168 28.33C98.2666 27.5327 97.816 26.2413 97.816 24.456V18.684H96.048V14.992H97.816V11.456H102.262V14.992H105.174V18.684H102.262V24.508C102.262 24.9413 102.366 25.2533 102.574 25.444C102.782 25.6347 103.129 25.73 103.614 25.73H105.2ZM106.792 22.22C106.792 20.7293 107.07 19.4207 107.624 18.294C108.196 17.1673 108.968 16.3007 109.938 15.694C110.909 15.0873 111.992 14.784 113.188 14.784C114.211 14.784 115.104 14.992 115.866 15.408C116.646 15.824 117.244 16.37 117.66 17.046V14.992H122.106V29.5H117.66V27.446C117.227 28.122 116.62 28.668 115.84 29.084C115.078 29.5 114.185 29.708 113.162 29.708C111.984 29.708 110.909 29.4047 109.938 28.798C108.968 28.174 108.196 27.2987 107.624 26.172C107.07 25.028 106.792 23.7107 106.792 22.22ZM117.66 22.246C117.66 21.1367 117.348 20.2613 116.724 19.62C116.118 18.9787 115.372 18.658 114.488 18.658C113.604 18.658 112.85 18.9787 112.226 19.62C111.62 20.244 111.316 21.1107 111.316 22.22C111.316 23.3293 111.62 24.2133 112.226 24.872C112.85 25.5133 113.604 25.834 114.488 25.834C115.372 25.834 116.118 25.5133 116.724 24.872C117.348 24.2307 117.66 23.3553 117.66 22.246ZM129.769 10.26V29.5H125.323V10.26H129.769Z" fill="#228B22"/>
</svg>
