<svg width="30" height="30" viewBox="0 0 30 30" fill="none" xmlns="http://www.w3.org/2000/svg">
<circle opacity="0.1" cx="15" cy="15" r="15" fill="#09BD71"/>
<path fill-rule="evenodd" clip-rule="evenodd" d="M14.9987 8.33325C12.4187 8.33325 10.332 10.4199 10.332 12.9999C10.332 15.7799 13.2787 19.6133 14.492 21.0733C14.7587 21.3933 15.2454 21.3933 15.512 21.0733C16.7187 19.6133 19.6654 15.7799 19.6654 12.9999C19.6654 10.4199 17.5787 8.33325 14.9987 8.33325ZM11.666 12.9998C11.666 11.1598 13.1593 9.6665 14.9993 9.6665C16.8393 9.6665 18.3327 11.1598 18.3327 12.9998C18.3327 14.9198 16.4127 17.7932 14.9993 19.5865C13.6127 17.8065 11.666 14.8998 11.666 12.9998ZM13.332 12.9999C13.332 13.9199 14.0787 14.6666 14.9987 14.6666C15.9187 14.6666 16.6654 13.9199 16.6654 12.9999C16.6654 12.0799 15.9187 11.3333 14.9987 11.3333C14.0787 11.3333 13.332 12.0799 13.332 12.9999Z" fill="#09BD71"/>
</svg>
