<svg width="15" height="23" viewBox="0 0 15 23" fill="none" xmlns="http://www.w3.org/2000/svg">
<path d="M6.99091 0.721666C6.87684 0.733436 6.76724 0.772325 6.67126 0.835087C6.57529 0.897849 6.49572 0.982663 6.43921 1.08245L0.687805 11.1421C0.624939 11.2516 0.592023 11.3758 0.592372 11.502C0.59272 11.6283 0.626319 11.7522 0.689788 11.8614C0.753258 11.9705 0.844358 12.061 0.95392 12.1238C1.06348 12.1865 1.18764 12.2193 1.3139 12.2189H4.53424L0.649902 21.2804C0.581248 21.4348 0.569153 21.6084 0.615743 21.7708C0.662332 21.9332 0.764628 22.074 0.904676 22.1685C1.04472 22.2629 1.21357 22.3051 1.38159 22.2875C1.54961 22.2699 1.70606 22.1936 1.82349 22.0722L14.7582 9.13048C14.8582 9.02979 14.9263 8.90173 14.9536 8.76244C14.981 8.62315 14.9666 8.47887 14.912 8.34779C14.8575 8.21672 14.7655 8.10471 14.6474 8.0259C14.5293 7.94709 14.3906 7.90501 14.2486 7.90495H11.2093L14.8649 1.80962C14.9301 1.70056 14.9653 1.57616 14.9668 1.44908C14.9684 1.322 14.9361 1.19678 14.8735 1.0862C14.8109 0.97562 14.72 0.883623 14.6103 0.819585C14.5005 0.755548 14.3757 0.721761 14.2486 0.721666H7.06531C7.04052 0.720382 7.01569 0.720382 6.99091 0.721666ZM7.47943 2.15355H12.981L9.31982 8.25591C9.25462 8.36486 9.21944 8.48914 9.21786 8.6161C9.21628 8.74306 9.24836 8.86817 9.31083 8.97871C9.3733 9.08925 9.46394 9.18127 9.57352 9.24541C9.68311 9.30955 9.80772 9.34352 9.93469 9.34386H12.5135L3.44067 18.4167L6.28479 11.7837C6.3316 11.6746 6.35068 11.5557 6.34032 11.4374C6.32996 11.3192 6.29048 11.2054 6.22542 11.1061C6.16036 11.0069 6.07174 10.9252 5.96746 10.8686C5.86318 10.8119 5.74649 10.7819 5.62781 10.7814H2.54926L7.47943 2.15355Z" fill="black"/>
</svg>
