<svg width="21" height="21" viewBox="0 0 21 21" fill="none" xmlns="http://www.w3.org/2000/svg">
<path d="M10.5 0.916626C8.0432 0.923633 5.68293 1.87392 3.90666 3.57121V1.87496C3.90666 1.62079 3.8057 1.37704 3.62597 1.19732C3.44625 1.01759 3.2025 0.916626 2.94833 0.916626C2.69416 0.916626 2.45041 1.01759 2.27069 1.19732C2.09096 1.37704 1.99 1.62079 1.99 1.87496V6.18746C1.99 6.44163 2.09096 6.68538 2.27069 6.8651C2.45041 7.04483 2.69416 7.14579 2.94833 7.14579H7.26083C7.515 7.14579 7.75875 7.04483 7.93847 6.8651C8.1182 6.68538 8.21916 6.44163 8.21916 6.18746C8.21916 5.93329 8.1182 5.68954 7.93847 5.50982C7.75875 5.33009 7.515 5.22913 7.26083 5.22913H4.96083C6.19303 3.94147 7.83536 3.12334 9.60543 2.91539C11.3755 2.70745 13.1627 3.12269 14.6598 4.08971C16.1569 5.05674 17.2703 6.51513 17.8086 8.21413C18.3469 9.91314 18.2764 11.7466 17.6093 13.3993C16.9422 15.052 15.7202 16.4206 14.1533 17.2699C12.5864 18.1192 10.7726 18.3961 9.02374 18.0529C7.27485 17.7097 5.70015 16.768 4.5704 15.3896C3.44064 14.0111 2.82642 12.2822 2.83333 10.5C2.83333 10.2458 2.73236 10.002 2.55264 9.82232C2.37292 9.64259 2.12916 9.54163 1.875 9.54163C1.62083 9.54163 1.37708 9.64259 1.19735 9.82232C1.01763 10.002 0.916664 10.2458 0.916664 10.5C0.916664 12.3954 1.47872 14.2482 2.53175 15.8242C3.58478 17.4001 5.08149 18.6285 6.83261 19.3538C8.58374 20.0791 10.5106 20.2689 12.3696 19.8992C14.2286 19.5294 15.9362 18.6167 17.2764 17.2764C18.6167 15.9361 19.5294 14.2286 19.8992 12.3696C20.269 10.5106 20.0792 8.5837 19.3538 6.83258C18.6285 5.08145 17.4002 3.58474 15.8242 2.53171C14.2482 1.47868 12.3954 0.916626 10.5 0.916626ZM10.5 6.66663C10.2458 6.66663 10.0021 6.76759 9.82235 6.94732C9.64263 7.12704 9.54166 7.37079 9.54166 7.62496V10.5C9.54166 10.7541 9.64263 10.9979 9.82235 11.1776C10.0021 11.3573 10.2458 11.4583 10.5 11.4583H12.4167C12.6708 11.4583 12.9146 11.3573 13.0943 11.1776C13.274 10.9979 13.375 10.7541 13.375 10.5C13.375 10.2458 13.274 10.002 13.0943 9.82232C12.9146 9.64259 12.6708 9.54163 12.4167 9.54163H11.4583V7.62496C11.4583 7.37079 11.3574 7.12704 11.1776 6.94732C10.9979 6.76759 10.7542 6.66663 10.5 6.66663Z" fill="black"/>
</svg>
