<svg width="12" height="13" viewBox="0 0 12 13" fill="none" xmlns="http://www.w3.org/2000/svg">
<path d="M5.4 9.5H6.6V5.9H5.4V9.5ZM6 4.7C6.17 4.7 6.3125 4.6425 6.4275 4.5275C6.5425 4.4125 6.6 4.27 6.6 4.1C6.6 3.93 6.5425 3.7875 6.4275 3.6725C6.3125 3.5575 6.17 3.5 6 3.5C5.83 3.5 5.6875 3.5575 5.5725 3.6725C5.4575 3.7875 5.4 3.93 5.4 4.1C5.4 4.27 5.4575 4.4125 5.5725 4.5275C5.6875 4.6425 5.83 4.7 6 4.7ZM6 12.5C5.17 12.5 4.39 12.3425 3.66 12.0275C2.93 11.7125 2.295 11.285 1.755 10.745C1.215 10.205 0.7875 9.57 0.4725 8.84C0.1575 8.11 0 7.33 0 6.5C0 5.67 0.1575 4.89 0.4725 4.16C0.7875 3.43 1.215 2.795 1.755 2.255C2.295 1.715 2.93 1.2875 3.66 0.9725C4.39 0.6575 5.17 0.5 6 0.5C6.83 0.5 7.61 0.6575 8.34 0.9725C9.07 1.2875 9.705 1.715 10.245 2.255C10.785 2.795 11.2125 3.43 11.5275 4.16C11.8425 4.89 12 5.67 12 6.5C12 7.33 11.8425 8.11 11.5275 8.84C11.2125 9.57 10.785 10.205 10.245 10.745C9.705 11.285 9.07 11.7125 8.34 12.0275C7.61 12.3425 6.83 12.5 6 12.5ZM6 11.3C7.34 11.3 8.475 10.835 9.405 9.905C10.335 8.975 10.8 7.84 10.8 6.5C10.8 5.16 10.335 4.025 9.405 3.095C8.475 2.165 7.34 1.7 6 1.7C4.66 1.7 3.525 2.165 2.595 3.095C1.665 4.025 1.2 5.16 1.2 6.5C1.2 7.84 1.665 8.975 2.595 9.905C3.525 10.835 4.66 11.3 6 11.3Z" fill="#4398E8"/>
</svg>
