<svg width="23" height="24" viewBox="0 0 23 24" fill="none" xmlns="http://www.w3.org/2000/svg">
<path d="M11.2859 20.5477H3.17948C4.12259 19.3506 4.63337 17.8698 4.62891 16.3458V3.29773H17.1349V10.1785C17.1349 10.2738 17.1728 10.3652 17.2402 10.4326C17.3076 10.5 17.399 10.5379 17.4943 10.5379C17.5896 10.5379 17.681 10.5 17.7484 10.4326C17.8158 10.3652 17.8537 10.2738 17.8537 10.1785V2.93835C17.8537 2.89116 17.8444 2.84442 17.8263 2.80081C17.8083 2.75721 17.7818 2.71758 17.7484 2.68421C17.7151 2.65084 17.6754 2.62437 17.6318 2.60631C17.5882 2.58825 17.5415 2.57897 17.4943 2.57898H4.26954C4.22234 2.57897 4.1756 2.58825 4.132 2.60631C4.08839 2.62437 4.04877 2.65084 4.01539 2.68421C3.98202 2.71758 3.95555 2.75721 3.93749 2.80081C3.91944 2.84442 3.91015 2.89116 3.91016 2.93835V16.3458C3.91237 17.146 3.75585 17.9387 3.44964 18.6781C3.14344 19.4174 2.69363 20.0887 2.12627 20.653C2.07601 20.7033 2.04178 20.7673 2.0279 20.837C2.01403 20.9067 2.02115 20.979 2.04835 21.0446C2.07555 21.1103 2.12161 21.1664 2.18071 21.2059C2.2398 21.2454 2.30929 21.2665 2.38036 21.2665H11.2859C11.3813 21.2665 11.4727 21.2286 11.5401 21.1612C11.6075 21.0938 11.6453 21.0024 11.6453 20.9071C11.6453 20.8118 11.6075 20.7204 11.5401 20.653C11.4727 20.5856 11.3813 20.5477 11.2859 20.5477Z" fill="black" stroke="black" stroke-width="0.5"/>
<path d="M15.0038 7.10553H6.75977C6.66445 7.10553 6.57304 7.14339 6.50565 7.21079C6.43825 7.27818 6.40039 7.36959 6.40039 7.4649C6.40039 7.56022 6.43825 7.65163 6.50565 7.71902C6.57304 7.78642 6.66445 7.82428 6.75977 7.82428H15.0038C15.0991 7.82428 15.1905 7.78642 15.2579 7.71902C15.3253 7.65163 15.3632 7.56022 15.3632 7.4649C15.3632 7.36959 15.3253 7.27818 15.2579 7.21079C15.1905 7.14339 15.0991 7.10553 15.0038 7.10553Z" fill="black" stroke="black" stroke-width="0.5"/>
<path d="M15.3632 9.89984C15.3632 9.85264 15.3539 9.80591 15.3359 9.7623C15.3178 9.71869 15.2913 9.67907 15.258 9.6457C15.2246 9.61232 15.185 9.58585 15.1414 9.5678C15.0978 9.54974 15.051 9.54045 15.0038 9.54047H6.75977C6.66445 9.54047 6.57304 9.57833 6.50565 9.64573C6.43825 9.71312 6.40039 9.80453 6.40039 9.89984C6.40039 9.99515 6.43825 10.0866 6.50565 10.154C6.57304 10.2214 6.66445 10.2592 6.75977 10.2592H15.0038C15.051 10.2592 15.0978 10.2499 15.1414 10.2319C15.185 10.2138 15.2246 10.1874 15.258 10.154C15.2913 10.1206 15.3178 10.081 15.3359 10.0374C15.3539 9.99378 15.3632 9.94704 15.3632 9.89984Z" fill="black" stroke="black" stroke-width="0.5"/>
<path d="M11.78 12.3348C11.78 12.2876 11.7707 12.2408 11.7526 12.1972C11.7346 12.1536 11.7081 12.114 11.6747 12.0806C11.6414 12.0473 11.6017 12.0208 11.5581 12.0027C11.5145 11.9847 11.4678 11.9754 11.4206 11.9754H6.75977C6.66445 11.9754 6.57305 12.0133 6.50565 12.0807C6.43825 12.1481 6.40039 12.2395 6.40039 12.3348C6.40039 12.4301 6.43825 12.5215 6.50565 12.5889C6.57305 12.6563 6.66445 12.6942 6.75977 12.6942H11.4206C11.4678 12.6942 11.5145 12.6849 11.5581 12.6668C11.6017 12.6488 11.6414 12.6223 11.6747 12.5889C11.7081 12.5555 11.7346 12.5159 11.7526 12.4723C11.7707 12.4287 11.78 12.382 11.78 12.3348Z" fill="black" stroke="black" stroke-width="0.5"/>
<path d="M6.75977 14.4103C6.66445 14.4103 6.57305 14.4481 6.50565 14.5155C6.43825 14.5829 6.40039 14.6743 6.40039 14.7697C6.40039 14.865 6.43825 14.9564 6.50565 15.0238C6.57305 15.0912 6.66445 15.129 6.75977 15.129H9.69109C9.78641 15.129 9.87781 15.0912 9.94521 15.0238C10.0126 14.9564 10.0505 14.865 10.0505 14.7697C10.0505 14.6743 10.0126 14.5829 9.94521 14.5155C9.87781 14.4481 9.78641 14.4103 9.69109 14.4103H6.75977Z" fill="black" stroke="black" stroke-width="0.5"/>
<path d="M19.6188 13.336C19.0177 12.7339 18.2626 12.3085 17.4361 12.1065C16.6097 11.9044 15.7435 11.9334 14.9324 12.1904C14.1213 12.4473 13.3964 12.9222 12.837 13.5633C12.2776 14.2043 11.9051 14.9868 11.7603 15.8252L11.4748 15.5396C11.4074 15.4723 11.316 15.4344 11.2207 15.4344C11.1254 15.4344 11.034 15.4723 10.9666 15.5396C10.8992 15.607 10.8613 15.6984 10.8613 15.7937C10.8613 15.889 10.8992 15.9804 10.9666 16.0478L11.7935 16.8748C11.8611 16.942 11.9525 16.9797 12.0479 16.9797C12.1432 16.9797 12.2346 16.942 12.3022 16.8748L13.1293 16.0478C13.1967 15.9804 13.2346 15.889 13.2346 15.7937C13.2346 15.6984 13.1967 15.607 13.1293 15.5396C13.0619 15.4723 12.9705 15.4344 12.8752 15.4344C12.7799 15.4344 12.6885 15.4723 12.6211 15.5396L12.5395 15.6212C12.7605 14.7857 13.2512 14.0465 13.9354 13.5184C14.6196 12.9904 15.459 12.703 16.3233 12.701C17.1875 12.699 18.0283 12.9824 18.715 13.5072C19.4016 14.032 19.8958 14.7689 20.1207 15.6034C20.3456 16.4379 20.2887 17.3233 19.9587 18.1221C19.6288 18.9209 19.0443 19.5885 18.2961 20.021C17.5478 20.4536 16.6777 20.6269 15.8208 20.5142C14.9639 20.4015 14.1682 20.009 13.5573 19.3977C13.4899 19.3303 13.3985 19.2924 13.3032 19.2924C13.2079 19.2924 13.1165 19.3303 13.0491 19.3977C12.9817 19.4651 12.9439 19.5564 12.9439 19.6518C12.9439 19.7471 12.9817 19.8385 13.0491 19.9058C13.9205 20.7763 15.1019 21.2652 16.3336 21.2648C17.5652 21.2645 18.7464 20.7751 19.6173 19.9042C20.4882 19.0332 20.9776 17.8521 20.9779 16.6204C20.9782 15.3887 20.4893 14.2074 19.6188 13.336Z" fill="black" stroke="black" stroke-width="0.5"/>
<path d="M16.334 13.5094C16.2868 13.5094 16.24 13.5187 16.1964 13.5367C16.1528 13.5548 16.1132 13.5813 16.0798 13.6146C16.0465 13.648 16.02 13.6876 16.0019 13.7312C15.9839 13.7748 15.9746 13.8216 15.9746 13.8688V16.6209C15.9752 16.7163 16.0131 16.8076 16.0802 16.8754L17.3826 18.1778C17.4502 18.2444 17.5413 18.2817 17.6362 18.2814C17.7311 18.2811 17.8221 18.2432 17.8892 18.1761C17.9563 18.109 17.9941 18.0181 17.9944 17.9232C17.9947 17.8283 17.9575 17.7372 17.8908 17.6696L16.6934 16.4722V13.8688C16.6934 13.8216 16.6841 13.7748 16.666 13.7312C16.648 13.6876 16.6215 13.648 16.5881 13.6146C16.5548 13.5813 16.5151 13.5548 16.4715 13.5367C16.4279 13.5187 16.3812 13.5094 16.334 13.5094Z" fill="black" stroke="black" stroke-width="0.5"/>
</svg>
