<svg width="137" height="15" viewBox="0 0 137 15" fill="none" xmlns="http://www.w3.org/2000/svg">
<path d="M5.369 11L3.549 7.62H3.276V11H0.728V1.835H4.745C5.48167 1.835 6.10567 1.965 6.617 2.225C7.12833 2.47633 7.514 2.82733 7.774 3.278C8.034 3.72 8.164 4.21833 8.164 4.773C8.164 5.397 7.99067 5.94733 7.644 6.424C7.306 6.892 6.80767 7.22567 6.149 7.425L8.216 11H5.369ZM3.276 5.878H4.537C4.88367 5.878 5.14367 5.79567 5.317 5.631C5.49033 5.46633 5.577 5.228 5.577 4.916C5.577 4.62133 5.486 4.39167 5.304 4.227C5.13067 4.05367 4.875 3.967 4.537 3.967H3.276V5.878ZM16.2907 7.269C16.2907 7.46833 16.2777 7.66767 16.2517 7.867H11.4287C11.4547 8.26567 11.5631 8.56467 11.7537 8.764C11.9531 8.95467 12.2044 9.05 12.5077 9.05C12.9324 9.05 13.2357 8.85933 13.4177 8.478H16.1347C16.0221 8.98067 15.8011 9.43133 15.4717 9.83C15.1511 10.22 14.7437 10.5277 14.2497 10.753C13.7557 10.9783 13.2097 11.091 12.6117 11.091C11.8924 11.091 11.2511 10.9393 10.6877 10.636C10.1331 10.3327 9.69539 9.89933 9.37473 9.336C9.06273 8.77267 8.90673 8.10967 8.90673 7.347C8.90673 6.58433 9.06273 5.92567 9.37473 5.371C9.68673 4.80767 10.1201 4.37433 10.6747 4.071C11.2381 3.76767 11.8837 3.616 12.6117 3.616C13.3311 3.616 13.9681 3.76333 14.5227 4.058C15.0774 4.35267 15.5107 4.77733 15.8227 5.332C16.1347 5.878 16.2907 6.52367 16.2907 7.269ZM13.6907 6.632C13.6907 6.32 13.5867 6.07733 13.3787 5.904C13.1707 5.722 12.9107 5.631 12.5987 5.631C12.2867 5.631 12.0311 5.71767 11.8317 5.891C11.6324 6.05567 11.5024 6.30267 11.4417 6.632H13.6907ZM21.6365 8.829V11H20.5315C18.6681 11 17.7365 10.077 17.7365 8.231V5.826H16.8395V3.707H17.7365V1.939H20.2975V3.707H21.6235V5.826H20.2975V8.27C20.2975 8.46933 20.3408 8.61233 20.4275 8.699C20.5228 8.78567 20.6788 8.829 20.8955 8.829H21.6365ZM22.3891 7.347C22.3891 6.593 22.5235 5.93433 22.7921 5.371C23.0695 4.80767 23.4421 4.37433 23.9101 4.071C24.3868 3.76767 24.9155 3.616 25.4961 3.616C25.9988 3.616 26.4321 3.71567 26.7961 3.915C27.1601 4.11433 27.4418 4.383 27.6411 4.721V3.707H30.1891V11H27.6411V9.986C27.4418 10.324 27.1558 10.5927 26.7831 10.792C26.4191 10.9913 25.9901 11.091 25.4961 11.091C24.9155 11.091 24.3868 10.9393 23.9101 10.636C23.4421 10.3327 23.0695 9.89933 22.7921 9.336C22.5235 8.764 22.3891 8.101 22.3891 7.347ZM27.6411 7.347C27.6411 6.879 27.5111 6.51067 27.2511 6.242C26.9998 5.97333 26.6878 5.839 26.3151 5.839C25.9338 5.839 25.6175 5.97333 25.3661 6.242C25.1148 6.502 24.9891 6.87033 24.9891 7.347C24.9891 7.815 25.1148 8.18767 25.3661 8.465C25.6175 8.73367 25.9338 8.868 26.3151 8.868C26.6878 8.868 26.9998 8.73367 27.2511 8.465C27.5111 8.19633 27.6411 7.82367 27.6411 7.347ZM32.9281 3.031C32.4774 3.031 32.1134 2.90967 31.8361 2.667C31.5674 2.41567 31.4331 2.10367 31.4331 1.731C31.4331 1.34967 31.5674 1.03333 31.8361 0.782C32.1134 0.530666 32.4774 0.404999 32.9281 0.404999C33.3701 0.404999 33.7254 0.530666 33.9941 0.782C34.2714 1.03333 34.4101 1.34967 34.4101 1.731C34.4101 2.10367 34.2714 2.41567 33.9941 2.667C33.7254 2.90967 33.3701 3.031 32.9281 3.031ZM34.1891 3.707V11H31.6411V3.707H34.1891ZM38.1881 1.38V11H35.6401V1.38H38.1881ZM49.1084 11L48.3674 10.298C47.5441 10.8613 46.5604 11.143 45.4164 11.143C44.6971 11.143 44.0687 11.026 43.5314 10.792C43.0027 10.558 42.5911 10.2287 42.2964 9.804C42.0104 9.37933 41.8674 8.88967 41.8674 8.335C41.8674 7.78033 42.0104 7.27767 42.2964 6.827C42.5911 6.36767 43.0287 5.995 43.6094 5.709C43.3927 5.43167 43.2367 5.16733 43.1414 4.916C43.0461 4.66467 42.9984 4.396 42.9984 4.11C42.9984 3.65933 43.1154 3.24767 43.3494 2.875C43.5834 2.50233 43.9257 2.20767 44.3764 1.991C44.8357 1.76567 45.3774 1.653 46.0014 1.653C46.6341 1.653 47.1714 1.77 47.6134 2.004C48.0554 2.22933 48.3847 2.53267 48.6014 2.914C48.8267 3.28667 48.9351 3.694 48.9264 4.136H46.5734C46.5734 3.93667 46.5171 3.785 46.4044 3.681C46.2917 3.577 46.1531 3.525 45.9884 3.525C45.8151 3.525 45.6677 3.577 45.5464 3.681C45.4337 3.77633 45.3774 3.91067 45.3774 4.084C45.3774 4.38733 45.5941 4.75567 46.0274 5.189L48.1724 7.282C48.2504 7.126 48.3327 6.93967 48.4194 6.723L48.6794 6.255H51.2014L50.8244 6.983C50.5124 7.72833 50.1701 8.35667 49.7974 8.868L51.9814 11H49.1084ZM45.5854 9.102C46.0447 9.102 46.4521 9.00233 46.8074 8.803L45.0004 7.074C44.7751 7.21267 44.6061 7.373 44.4934 7.555C44.3807 7.737 44.3244 7.92333 44.3244 8.114C44.3244 8.39133 44.4371 8.62533 44.6624 8.816C44.8877 9.00667 45.1954 9.102 45.5854 9.102ZM57.7516 9.05H60.5986V11H55.2036V1.835H57.7516V9.05ZM68.5573 7.269C68.5573 7.46833 68.5443 7.66767 68.5183 7.867H63.6953C63.7213 8.26567 63.8297 8.56467 64.0203 8.764C64.2197 8.95467 64.471 9.05 64.7743 9.05C65.199 9.05 65.5023 8.85933 65.6843 8.478H68.4013C68.2887 8.98067 68.0677 9.43133 67.7383 9.83C67.4177 10.22 67.0103 10.5277 66.5163 10.753C66.0223 10.9783 65.4763 11.091 64.8783 11.091C64.159 11.091 63.5177 10.9393 62.9543 10.636C62.3997 10.3327 61.962 9.89933 61.6413 9.336C61.3293 8.77267 61.1733 8.10967 61.1733 7.347C61.1733 6.58433 61.3293 5.92567 61.6413 5.371C61.9533 4.80767 62.3867 4.37433 62.9413 4.071C63.5047 3.76767 64.1503 3.616 64.8783 3.616C65.5977 3.616 66.2347 3.76333 66.7893 4.058C67.344 4.35267 67.7773 4.77733 68.0893 5.332C68.4013 5.878 68.5573 6.52367 68.5573 7.269ZM65.9573 6.632C65.9573 6.32 65.8533 6.07733 65.6453 5.904C65.4373 5.722 65.1773 5.631 64.8653 5.631C64.5533 5.631 64.2977 5.71767 64.0983 5.891C63.899 6.05567 63.769 6.30267 63.7083 6.632H65.9573ZM69.1841 7.347C69.1841 6.593 69.3184 5.93433 69.5871 5.371C69.8644 4.80767 70.2371 4.37433 70.7051 4.071C71.1817 3.76767 71.7104 3.616 72.2911 3.616C72.7937 3.616 73.2271 3.71567 73.5911 3.915C73.9551 4.11433 74.2367 4.383 74.4361 4.721V3.707H76.9841V11H74.4361V9.986C74.2367 10.324 73.9507 10.5927 73.5781 10.792C73.2141 10.9913 72.7851 11.091 72.2911 11.091C71.7104 11.091 71.1817 10.9393 70.7051 10.636C70.2371 10.3327 69.8644 9.89933 69.5871 9.336C69.3184 8.764 69.1841 8.101 69.1841 7.347ZM74.4361 7.347C74.4361 6.879 74.3061 6.51067 74.0461 6.242C73.7947 5.97333 73.4827 5.839 73.1101 5.839C72.7287 5.839 72.4124 5.97333 72.1611 6.242C71.9097 6.502 71.7841 6.87033 71.7841 7.347C71.7841 7.815 71.9097 8.18767 72.1611 8.465C72.4124 8.73367 72.7287 8.868 73.1101 8.868C73.4827 8.868 73.7947 8.73367 74.0461 8.465C74.3061 8.19633 74.4361 7.82367 74.4361 7.347ZM81.543 11.091C80.8843 11.091 80.295 10.9827 79.775 10.766C79.2637 10.5407 78.8563 10.2373 78.553 9.856C78.2583 9.466 78.0937 9.02833 78.059 8.543H80.529C80.5637 8.777 80.672 8.959 80.854 9.089C81.036 9.219 81.2613 9.284 81.53 9.284C81.738 9.284 81.9027 9.24067 82.024 9.154C82.1453 9.06733 82.206 8.95467 82.206 8.816C82.206 8.634 82.1063 8.49967 81.907 8.413C81.7077 8.32633 81.3783 8.231 80.919 8.127C80.399 8.023 79.9657 7.906 79.619 7.776C79.2723 7.646 78.969 7.43367 78.709 7.139C78.4577 6.84433 78.332 6.44567 78.332 5.943C78.332 5.50967 78.449 5.11967 78.683 4.773C78.917 4.41767 79.2593 4.136 79.71 3.928C80.1693 3.72 80.7197 3.616 81.361 3.616C82.3143 3.616 83.064 3.85 83.61 4.318C84.156 4.786 84.4723 5.40133 84.559 6.164H82.258C82.2147 5.93 82.1107 5.75233 81.946 5.631C81.79 5.501 81.5777 5.436 81.309 5.436C81.101 5.436 80.9407 5.475 80.828 5.553C80.724 5.631 80.672 5.73933 80.672 5.878C80.672 6.05133 80.7717 6.18567 80.971 6.281C81.1703 6.36767 81.491 6.45867 81.933 6.554C82.4617 6.66667 82.8993 6.79233 83.246 6.931C83.6013 7.06967 83.909 7.295 84.169 7.607C84.4377 7.91033 84.572 8.32633 84.572 8.855C84.572 9.27967 84.4463 9.661 84.195 9.999C83.9523 10.337 83.6013 10.6057 83.142 10.805C82.6913 10.9957 82.1583 11.091 81.543 11.091ZM87.1117 3.031C86.661 3.031 86.297 2.90967 86.0197 2.667C85.751 2.41567 85.6167 2.10367 85.6167 1.731C85.6167 1.34967 85.751 1.03333 86.0197 0.782C86.297 0.530666 86.661 0.404999 87.1117 0.404999C87.5537 0.404999 87.909 0.530666 88.1777 0.782C88.455 1.03333 88.5937 1.34967 88.5937 1.731C88.5937 2.10367 88.455 2.41567 88.1777 2.667C87.909 2.90967 87.5537 3.031 87.1117 3.031ZM88.3727 3.707V11H85.8247V3.707H88.3727ZM94.5947 3.642C95.4354 3.642 96.1027 3.92367 96.5967 4.487C97.0907 5.04167 97.3377 5.79567 97.3377 6.749V11H94.7897V7.087C94.7897 6.671 94.6814 6.346 94.4647 6.112C94.248 5.86933 93.9577 5.748 93.5937 5.748C93.2124 5.748 92.9134 5.86933 92.6967 6.112C92.48 6.346 92.3717 6.671 92.3717 7.087V11H89.8237V3.707H92.3717V4.747C92.597 4.41767 92.9004 4.15333 93.2817 3.954C93.663 3.746 94.1007 3.642 94.5947 3.642ZM101.427 3.616C101.921 3.616 102.35 3.71567 102.714 3.915C103.086 4.11433 103.372 4.383 103.572 4.721V3.707H106.12V10.922C106.12 11.6067 105.99 12.222 105.73 12.768C105.47 13.3227 105.062 13.7647 104.508 14.094C103.962 14.4233 103.268 14.588 102.428 14.588C101.301 14.588 100.4 14.3237 99.7238 13.795C99.0478 13.2663 98.6621 12.547 98.5668 11.637H101.076C101.128 11.871 101.258 12.053 101.466 12.183C101.674 12.313 101.942 12.378 102.272 12.378C103.138 12.378 103.572 11.8927 103.572 10.922V9.986C103.372 10.324 103.086 10.5927 102.714 10.792C102.35 10.9913 101.921 11.091 101.427 11.091C100.846 11.091 100.317 10.9393 99.8408 10.636C99.3728 10.3327 99.0001 9.89933 98.7228 9.336C98.4541 8.764 98.3198 8.101 98.3198 7.347C98.3198 6.593 98.4541 5.93433 98.7228 5.371C99.0001 4.80767 99.3728 4.37433 99.8408 4.071C100.317 3.76767 100.846 3.616 101.427 3.616ZM103.572 7.347C103.572 6.879 103.442 6.51067 103.182 6.242C102.93 5.97333 102.618 5.839 102.246 5.839C101.864 5.839 101.548 5.97333 101.297 6.242C101.045 6.502 100.92 6.87033 100.92 7.347C100.92 7.815 101.045 8.18767 101.297 8.465C101.548 8.73367 101.864 8.868 102.246 8.868C102.618 8.868 102.93 8.73367 103.182 8.465C103.442 8.19633 103.572 7.82367 103.572 7.347ZM115.858 9.505H112.608L112.114 11H109.436L112.777 1.835H115.715L119.043 11H116.352L115.858 9.505ZM115.221 7.555L114.233 4.591L113.258 7.555H115.221ZM122.422 4.721C122.621 4.383 122.903 4.11433 123.267 3.915C123.631 3.71567 124.06 3.616 124.554 3.616C125.134 3.616 125.659 3.76767 126.127 4.071C126.603 4.37433 126.976 4.80767 127.245 5.371C127.522 5.93433 127.661 6.593 127.661 7.347C127.661 8.101 127.522 8.764 127.245 9.336C126.976 9.89933 126.603 10.3327 126.127 10.636C125.659 10.9393 125.134 11.091 124.554 11.091C124.06 11.091 123.631 10.9913 123.267 10.792C122.911 10.5927 122.63 10.324 122.422 9.986V14.484H119.874V3.707H122.422V4.721ZM125.074 7.347C125.074 6.87033 124.944 6.502 124.684 6.242C124.432 5.97333 124.12 5.839 123.748 5.839C123.375 5.839 123.059 5.97333 122.799 6.242C122.547 6.51067 122.422 6.879 122.422 7.347C122.422 7.82367 122.547 8.19633 122.799 8.465C123.059 8.73367 123.375 8.868 123.748 8.868C124.12 8.868 124.432 8.73367 124.684 8.465C124.944 8.18767 125.074 7.815 125.074 7.347ZM131.257 4.721C131.457 4.383 131.738 4.11433 132.102 3.915C132.466 3.71567 132.895 3.616 133.389 3.616C133.97 3.616 134.494 3.76767 134.962 4.071C135.439 4.37433 135.812 4.80767 136.08 5.371C136.358 5.93433 136.496 6.593 136.496 7.347C136.496 8.101 136.358 8.764 136.08 9.336C135.812 9.89933 135.439 10.3327 134.962 10.636C134.494 10.9393 133.97 11.091 133.389 11.091C132.895 11.091 132.466 10.9913 132.102 10.792C131.747 10.5927 131.465 10.324 131.257 9.986V14.484H128.709V3.707H131.257V4.721ZM133.909 7.347C133.909 6.87033 133.779 6.502 133.519 6.242C133.268 5.97333 132.956 5.839 132.583 5.839C132.211 5.839 131.894 5.97333 131.634 6.242C131.383 6.51067 131.257 6.879 131.257 7.347C131.257 7.82367 131.383 8.19633 131.634 8.465C131.894 8.73367 132.211 8.868 132.583 8.868C132.956 8.868 133.268 8.73367 133.519 8.465C133.779 8.18767 133.909 7.815 133.909 7.347Z" fill="#4398E8"/>
</svg>
