<svg width="197" height="208" viewBox="0 0 197 208" fill="none" xmlns="http://www.w3.org/2000/svg">
<path d="M98.3271 207.993C132.197 207.993 159.654 206.288 159.654 204.183C159.654 202.079 132.197 200.374 98.3271 200.374C64.4571 200.374 37 202.079 37 204.183C37 206.288 64.4571 207.993 98.3271 207.993Z" fill="#F2F2F2"/>
<path d="M132.726 97.1215C118.722 97.2051 104.502 96.5534 91.2003 92.8604C77.8989 89.1674 66.1348 82.1992 55.4402 74.0612C48.4385 68.764 42.0719 64.553 32.9814 65.188C24.0932 65.6552 15.5916 68.9714 8.73467 74.6461C-2.82891 84.7726 -1.07432 103.488 3.53774 116.656C10.4893 136.491 31.6446 150.261 49.6082 159.234C70.3792 169.611 93.1889 175.644 116.065 179.103C136.118 182.144 161.868 184.366 179.231 171.265C195.189 159.251 199.567 131.779 195.657 113.23C194.705 107.752 191.788 102.809 187.452 99.3273C176.239 91.1392 159.529 96.6035 146.929 96.8876C142.334 96.9879 137.505 97.1048 132.726 97.1215Z" fill="#F2F2F2"/>
<path d="M101.103 18.3664L94.0073 20.1962L22.4116 38.6593L15.3162 40.489C13.2455 41.0255 11.4722 42.3614 10.3853 44.2038C9.29835 46.0461 8.9866 48.2443 9.51841 50.3162L35.4949 151.047C36.0314 153.118 37.3674 154.891 39.2097 155.978C41.052 157.065 43.2502 157.377 45.3221 156.845L45.3376 156.841L131.093 134.726L131.109 134.722C133.179 134.186 134.953 132.85 136.04 131.008C137.126 129.165 137.438 126.967 136.906 124.895L110.93 24.1642C110.393 22.0936 109.057 20.3202 107.215 19.2333C105.373 18.1464 103.175 17.8346 101.103 18.3664Z" fill="white" stroke="#BABABA"/>
<path d="M95.7451 50.9861L52.3635 62.1734C51.879 62.2983 51.3646 62.2257 50.9337 61.9714C50.5027 61.7172 50.1904 61.3021 50.0655 60.8176C49.9405 60.3331 50.0131 59.8188 50.2674 59.3878C50.5217 58.9568 50.9367 58.6445 51.4212 58.5196L94.8029 47.3323C95.2872 47.2079 95.8012 47.2808 96.2318 47.5351C96.6624 47.7894 96.9744 48.2043 97.0993 48.6885C97.2242 49.1728 97.1517 49.6868 96.8978 50.1176C96.6438 50.5484 96.2293 50.8608 95.7451 50.9861Z" fill="#F2F2F2"/>
<path d="M104.871 55.2082L53.9535 68.3389C53.469 68.4638 52.9547 68.3912 52.5237 68.1369C52.0927 67.8827 51.7804 67.4676 51.6555 66.9831C51.5305 66.4986 51.6032 65.9842 51.8574 65.5533C52.1117 65.1223 52.5267 64.81 53.0113 64.685L103.929 51.5544C104.413 51.4295 104.928 51.5021 105.359 51.7564C105.79 52.0106 106.102 52.4257 106.227 52.9102C106.352 53.3947 106.279 53.909 106.025 54.34C105.771 54.771 105.356 55.0833 104.871 55.2082Z" fill="#F2F2F2"/>
<path d="M102.871 78.6179L59.4893 89.8052C59.2494 89.867 58.9996 89.881 58.7543 89.8464C58.509 89.8117 58.2729 89.7291 58.0595 89.6032C57.8461 89.4773 57.6596 89.3106 57.5106 89.1126C57.3616 88.9147 57.2531 88.6893 57.1912 88.4494C57.1294 88.2094 57.1154 87.9597 57.15 87.7144C57.1847 87.469 57.2673 87.2329 57.3932 87.0195C57.5191 86.8062 57.6858 86.6196 57.8838 86.4707C58.0817 86.3217 58.3071 86.2132 58.547 86.1513L101.929 74.9641C102.169 74.9022 102.418 74.8882 102.664 74.9228C102.909 74.9575 103.145 75.0401 103.358 75.166C103.572 75.2919 103.758 75.4586 103.907 75.6566C104.056 75.8546 104.165 76.0799 104.227 76.3199C104.289 76.5598 104.303 76.8095 104.268 77.0549C104.233 77.3002 104.151 77.5363 104.025 77.7497C103.899 77.9631 103.732 78.1496 103.534 78.2985C103.336 78.4475 103.111 78.556 102.871 78.6179Z" fill="#F2F2F2"/>
<path d="M111.997 82.8406L61.0793 95.9712C60.8394 96.0331 60.5896 96.0471 60.3443 96.0124C60.099 95.9778 59.8629 95.8951 59.6495 95.7693C59.4361 95.6434 59.2496 95.4767 59.1006 95.2787C58.9517 95.0807 58.8431 94.8553 58.7813 94.6154C58.7194 94.3755 58.7054 94.1257 58.74 93.8804C58.7747 93.6351 58.8573 93.399 58.9832 93.1856C59.1091 92.9722 59.2758 92.7857 59.4738 92.6367C59.6718 92.4878 59.8971 92.3792 60.1371 92.3174L111.055 79.1867C111.539 79.0618 112.054 79.1344 112.485 79.3887C112.916 79.6429 113.228 80.058 113.353 80.5425C113.478 81.027 113.405 81.5414 113.151 81.9723C112.897 82.4033 112.481 82.7156 111.997 82.8406Z" fill="#F2F2F2"/>
<path d="M109.997 106.25L66.615 117.437C66.1306 117.562 65.6166 117.489 65.1859 117.235C64.7552 116.981 64.4432 116.566 64.3183 116.081C64.1934 115.597 64.2659 115.083 64.5199 114.652C64.7739 114.221 65.1886 113.909 65.6728 113.784L109.054 102.596C109.539 102.471 110.053 102.544 110.484 102.798C110.915 103.053 111.228 103.468 111.352 103.952C111.477 104.437 111.405 104.951 111.15 105.382C110.896 105.813 110.481 106.125 109.997 106.25Z" fill="#F2F2F2"/>
<path d="M119.123 110.472L68.2051 123.603C67.9651 123.665 67.7152 123.679 67.4697 123.645C67.2242 123.61 66.9879 123.528 66.7744 123.402C66.5608 123.276 66.3741 123.109 66.225 122.911C66.0759 122.713 65.9673 122.488 65.9054 122.248C65.8435 122.008 65.8295 121.758 65.8642 121.512C65.899 121.267 65.9817 121.031 66.1078 120.817C66.2339 120.604 66.4008 120.417 66.5989 120.268C66.7971 120.119 67.0227 120.011 67.2628 119.949L118.18 106.819C118.665 106.694 119.179 106.766 119.61 107.021C120.041 107.275 120.354 107.69 120.479 108.174C120.603 108.659 120.531 109.173 120.277 109.604C120.022 110.035 119.607 110.347 119.123 110.472Z" fill="#F2F2F2"/>
<path d="M44.9576 73.6439L29.6053 77.603C29.373 77.6626 29.1265 77.6277 28.9199 77.5058C28.7133 77.3839 28.5635 77.1851 28.5034 76.9529L24.9793 63.2872C24.9196 63.0549 24.9546 62.8084 25.0764 62.6018C25.1983 62.3952 25.3972 62.2454 25.6294 62.1853L40.9817 58.2262C41.214 58.1666 41.4605 58.2015 41.6671 58.3234C41.8737 58.4453 42.0235 58.6441 42.0836 58.8763L45.6077 72.542C45.6674 72.7743 45.6324 73.0208 45.5105 73.2274C45.3887 73.434 45.1898 73.5838 44.9576 73.6439Z" fill="#E6E6E6"/>
<path d="M52.0834 101.276L36.731 105.235C36.4987 105.295 36.2522 105.26 36.0456 105.138C35.839 105.016 35.6892 104.817 35.6291 104.585L32.105 90.9195C32.0453 90.6872 32.0803 90.4407 32.2022 90.2341C32.3241 90.0275 32.5229 89.8777 32.7551 89.8176L48.1074 85.8585C48.3397 85.7989 48.5862 85.8338 48.7928 85.9557C48.9994 86.0776 49.1492 86.2764 49.2093 86.5086L52.7335 100.174C52.7931 100.407 52.7581 100.653 52.6363 100.86C52.5144 101.066 52.3155 101.216 52.0834 101.276Z" fill="#E6E6E6"/>
<path d="M59.2092 128.908L43.8568 132.867C43.6245 132.927 43.378 132.892 43.1714 132.77C42.9648 132.648 42.815 132.449 42.7549 132.217L39.2308 118.551C39.1711 118.319 39.2061 118.073 39.328 117.866C39.4498 117.659 39.6487 117.51 39.8809 117.449L55.2332 113.49C55.4655 113.431 55.712 113.466 55.9186 113.588C56.1252 113.709 56.275 113.908 56.3351 114.14L59.8593 127.806C59.9189 128.039 59.8839 128.285 59.7621 128.492C59.6402 128.698 59.4413 128.848 59.2092 128.908Z" fill="#E6E6E6"/>
<path d="M160.12 44.0039H71.527C69.388 44.0063 67.3372 44.8571 65.8247 46.3696C64.3121 47.8822 63.4613 49.9329 63.4589 52.072V156.099C63.4613 158.238 64.3121 160.288 65.8247 161.801C67.3372 163.313 69.388 164.164 71.527 164.167H160.12C162.259 164.164 164.31 163.313 165.822 161.801C167.335 160.288 168.186 158.238 168.188 156.099V52.072C168.186 49.933 167.335 47.8822 165.822 46.3697C164.31 44.8571 162.259 44.0063 160.12 44.0039Z" fill="white" stroke="#BABABA"/>
<path d="M146.787 101.166H101.986C101.738 101.167 101.492 101.118 101.263 101.023C101.034 100.929 100.826 100.79 100.65 100.615C100.475 100.439 100.336 100.231 100.241 100.002C100.146 99.7732 100.097 99.5277 100.097 99.2798C100.097 99.0318 100.146 98.7863 100.241 98.5573C100.336 98.3282 100.475 98.1201 100.65 97.9449C100.826 97.7697 101.034 97.6308 101.263 97.5361C101.492 97.4414 101.738 97.3928 101.986 97.3931H146.787C147.287 97.3936 147.766 97.5926 148.12 97.9464C148.473 98.3002 148.671 98.7797 148.671 99.2798C148.671 99.7798 148.473 100.259 148.12 100.613C147.766 100.967 147.287 101.166 146.787 101.166Z" fill="#E6E6E6"/>
<path d="M154.569 107.534H101.986C101.738 107.534 101.492 107.486 101.263 107.391C101.034 107.296 100.826 107.157 100.65 106.982C100.475 106.807 100.336 106.599 100.241 106.37C100.146 106.141 100.097 105.895 100.097 105.647C100.097 105.399 100.146 105.154 100.241 104.925C100.336 104.696 100.475 104.488 100.65 104.313C100.826 104.137 101.034 103.998 101.263 103.904C101.492 103.809 101.738 103.76 101.986 103.761H154.569C155.07 103.761 155.55 103.96 155.903 104.313C156.257 104.667 156.456 105.147 156.456 105.647C156.456 106.148 156.257 106.628 155.903 106.982C155.55 107.335 155.07 107.534 154.569 107.534Z" fill="#E6E6E6"/>
<path d="M146.787 129.703H101.986C101.738 129.703 101.492 129.654 101.263 129.56C101.034 129.465 100.826 129.326 100.65 129.151C100.475 128.976 100.336 128.767 100.241 128.538C100.146 128.309 100.097 128.064 100.097 127.816C100.097 127.568 100.146 127.322 100.241 127.093C100.336 126.864 100.475 126.656 100.65 126.481C100.826 126.306 101.034 126.167 101.263 126.072C101.492 125.978 101.738 125.929 101.986 125.929H146.787C147.287 125.929 147.767 126.128 148.121 126.482C148.475 126.836 148.673 127.316 148.673 127.816C148.673 128.316 148.475 128.796 148.121 129.15C147.767 129.504 147.287 129.703 146.787 129.703Z" fill="#E6E6E6"/>
<path d="M154.569 136.07H101.986C101.738 136.071 101.492 136.022 101.263 135.927C101.034 135.833 100.826 135.694 100.65 135.518C100.475 135.343 100.336 135.135 100.241 134.906C100.146 134.677 100.097 134.432 100.097 134.184C100.097 133.936 100.146 133.69 100.241 133.461C100.336 133.232 100.475 133.024 100.65 132.849C100.826 132.674 101.034 132.535 101.263 132.44C101.492 132.345 101.738 132.297 101.986 132.297H154.569C154.817 132.297 155.063 132.345 155.292 132.44C155.521 132.535 155.729 132.674 155.905 132.849C156.08 133.024 156.219 133.232 156.314 133.461C156.409 133.69 156.458 133.936 156.458 134.184C156.458 134.432 156.409 134.677 156.314 134.906C156.219 135.135 156.08 135.343 155.905 135.518C155.729 135.694 155.521 135.833 155.292 135.927C155.063 136.022 154.817 136.071 154.569 136.07Z" fill="#E6E6E6"/>
<path d="M91.9502 110.425H76.0956C75.8557 110.424 75.6258 110.329 75.4562 110.159C75.2866 109.99 75.1912 109.76 75.1909 109.52V95.4071C75.1912 95.1673 75.2866 94.9373 75.4562 94.7677C75.6258 94.5981 75.8557 94.5027 76.0956 94.5024H91.9502C92.19 94.5027 92.42 94.5981 92.5896 94.7677C92.7592 94.9373 92.8546 95.1673 92.8549 95.4071V109.52C92.8546 109.76 92.7592 109.99 92.5896 110.159C92.42 110.329 92.19 110.424 91.9502 110.425Z" fill="#E6E6E6"/>
<path d="M91.9502 138.961H76.0956C75.8557 138.96 75.6258 138.865 75.4562 138.695C75.2866 138.526 75.1912 138.296 75.1909 138.056V123.943C75.1912 123.703 75.2866 123.473 75.4562 123.304C75.6258 123.134 75.8557 123.039 76.0956 123.039H91.9502C92.19 123.039 92.42 123.134 92.5896 123.304C92.7592 123.473 92.8546 123.703 92.8549 123.943V138.056C92.8546 138.296 92.7592 138.526 92.5896 138.695C92.42 138.865 92.19 138.96 91.9502 138.961Z" fill="#E6E6E6"/>
<path d="M146.836 69.3998H113.807C113.306 69.3998 112.826 69.2011 112.473 68.8472C112.119 68.4934 111.92 68.0135 111.92 67.5131C111.92 67.0128 112.119 66.5329 112.473 66.1791C112.826 65.8252 113.306 65.6265 113.807 65.6265H146.836C147.337 65.6265 147.817 65.8252 148.171 66.1791C148.524 66.5329 148.723 67.0128 148.723 67.5131C148.723 68.0135 148.524 68.4934 148.171 68.8472C147.817 69.2011 147.337 69.3998 146.836 69.3998Z" fill="#CCCCCC"/>
<path d="M154.619 75.7675H113.807C113.559 75.7675 113.314 75.7187 113.085 75.6239C112.856 75.5291 112.648 75.3901 112.473 75.2149C112.297 75.0397 112.158 74.8317 112.064 74.6028C111.969 74.3739 111.92 74.1286 111.92 73.8808C111.92 73.6331 111.969 73.3877 112.064 73.1588C112.158 72.9299 112.297 72.7219 112.473 72.5467C112.648 72.3715 112.856 72.2326 113.085 72.1378C113.314 72.0429 113.559 71.9941 113.807 71.9941H154.619C155.119 71.9941 155.599 72.1929 155.953 72.5467C156.307 72.9006 156.506 73.3804 156.506 73.8808C156.506 74.3812 156.307 74.8611 155.953 75.2149C155.599 75.5687 155.119 75.7675 154.619 75.7675Z" fill="#CCCCCC"/>
<path d="M106.497 83.484H76.0459C75.8061 83.4838 75.5761 83.3884 75.4065 83.2188C75.2369 83.0492 75.1415 82.8192 75.1412 82.5794V58.8143C75.1415 58.5745 75.2369 58.3445 75.4065 58.1749C75.5761 58.0053 75.8061 57.9099 76.0459 57.9097H106.497C106.736 57.9099 106.966 58.0053 107.136 58.1749C107.306 58.3445 107.401 58.5745 107.401 58.8143V82.5794C107.401 82.8192 107.306 83.0492 107.136 83.2188C106.966 83.3884 106.736 83.4838 106.497 83.484Z" fill="#CCCCCC"/>
<path d="M125.435 29.9287V36.3016" stroke="#BABABA" stroke-linecap="round" stroke-linejoin="round"/>
<path d="M122.246 33.1152H128.623" stroke="#BABABA" stroke-linecap="round" stroke-linejoin="round"/>
<path d="M99 146.002V153.184" stroke="#BABABA" stroke-linecap="round" stroke-linejoin="round"/>
<path d="M95 149.594H102.185" stroke="#BABABA" stroke-linecap="round" stroke-linejoin="round"/>
<path d="M98.6376 3.95957C99.5421 3.95957 100.275 3.22676 100.275 2.3228C100.275 1.41884 99.5421 0.686035 98.6376 0.686035C97.7332 0.686035 97 1.41884 97 2.3228C97 3.22676 97.7332 3.95957 98.6376 3.95957Z" fill="#CFCFCF"/>
<path d="M98.6376 176.739C99.5421 176.739 100.275 176.006 100.275 175.102C100.275 174.198 99.5421 173.465 98.6376 173.465C97.7332 173.465 97 174.198 97 175.102C97 176.006 97.7332 176.739 98.6376 176.739Z" fill="#CFCFCF"/>
</svg>
