<svg width="23" height="23" viewBox="0 0 23 23" fill="none" xmlns="http://www.w3.org/2000/svg">
<path d="M16.1 21.5865H6.9C6.5282 21.5857 6.16314 21.4873 5.8412 21.3014C5.51927 21.1154 5.25173 20.8482 5.06526 20.5266L0.465256 12.5594C0.279878 12.2372 0.182312 11.8721 0.182312 11.5004C0.182312 11.1287 0.279878 10.7635 0.465256 10.4414L5.06526 2.47355C5.25163 2.1518 5.51915 1.88459 5.8411 1.69859C6.16306 1.51259 6.52818 1.41431 6.9 1.41357H16.1C16.4719 1.41413 16.8371 1.51225 17.1592 1.69814C17.4812 1.88403 17.7489 2.15117 17.9354 2.47289L22.5354 10.4407C22.7208 10.7629 22.8183 11.1281 22.8183 11.4997C22.8183 11.8714 22.7208 12.2366 22.5354 12.5587L17.9354 20.5266C17.7489 20.8484 17.4813 21.1156 17.1592 21.3016C16.8371 21.4876 16.4719 21.5859 16.1 21.5865ZM6.9 3.05512C6.81646 3.05538 6.73445 3.07755 6.66215 3.11941C6.58986 3.16126 6.5298 3.22135 6.48797 3.29366L1.88797 11.2609C1.84615 11.3333 1.82414 11.4154 1.82414 11.4991C1.82414 11.5827 1.84615 11.6649 1.88797 11.7373L6.48797 19.7038C6.5298 19.7761 6.58986 19.8362 6.66215 19.8781C6.73445 19.9199 6.81646 19.9421 6.9 19.9424H16.1C16.1838 19.9423 16.2662 19.9202 16.3388 19.8782C16.4113 19.8362 16.4715 19.7758 16.5133 19.7032L21.1133 11.7366C21.1552 11.6642 21.1772 11.582 21.1772 11.4984C21.1772 11.4148 21.1552 11.3326 21.1133 11.2602L16.5133 3.29366C16.4716 3.22116 16.4114 3.16094 16.339 3.11907C16.2665 3.07719 16.1843 3.05514 16.1007 3.05512H6.9Z" fill="black"/>
<path d="M11.5 15.6808C10.6731 15.6808 9.86482 15.4356 9.1773 14.9762C8.48978 14.5169 7.95393 13.8639 7.6375 13.1C7.32107 12.3361 7.23827 11.4954 7.39959 10.6845C7.5609 9.87347 7.95908 9.12854 8.54377 8.54385C9.12846 7.95916 9.87339 7.56098 10.6844 7.39967C11.4954 7.23835 12.336 7.32115 13.0999 7.63758C13.8638 7.95401 14.5168 8.48986 14.9762 9.17738C15.4355 9.8649 15.6807 10.6732 15.6807 11.5001C15.6795 12.6085 15.2387 13.6712 14.4549 14.455C13.6711 15.2387 12.6084 15.6796 11.5 15.6808ZM11.5 8.96219C10.9981 8.96219 10.5074 9.11104 10.09 9.38991C9.67267 9.66877 9.34739 10.0651 9.1553 10.5289C8.96321 10.9926 8.91295 11.5029 9.01088 11.9952C9.1088 12.4875 9.35051 12.9397 9.70544 13.2946C10.0604 13.6496 10.5126 13.8913 11.0049 13.9892C11.4972 14.0871 12.0075 14.0369 12.4712 13.8448C12.9349 13.6527 13.3313 13.3274 13.6102 12.9101C13.889 12.4927 14.0379 12.002 14.0379 11.5001C14.0372 10.8272 13.7696 10.1821 13.2938 9.70629C12.818 9.2305 12.1729 8.96289 11.5 8.96219Z" fill="black"/>
</svg>
