<svg width="33" height="33" viewBox="0 0 33 33" fill="none" xmlns="http://www.w3.org/2000/svg">
<path d="M4.11523 13.8656H28.1152M9.44857 4.53223V7.19889M22.7819 4.53223V7.19889M8.3819 28.5322H23.8486C25.342 28.5322 26.0888 28.5322 26.6592 28.2416C27.161 27.9859 27.5689 27.578 27.8246 27.0762C28.1152 26.5058 28.1152 25.759 28.1152 24.2656V11.4656C28.1152 9.97209 28.1152 9.22535 27.8246 8.65492C27.5689 8.15315 27.161 7.74521 26.6592 7.48954C26.0888 7.19889 25.342 7.19889 23.8486 7.19889H8.3819C6.88843 7.19889 6.14169 7.19889 5.57126 7.48954C5.06949 7.74521 4.66155 8.15315 4.40588 8.65492C4.11523 9.22535 4.11523 9.97209 4.11523 11.4656V24.2656C4.11523 25.759 4.11523 26.5058 4.40588 27.0762C4.66155 27.578 5.06949 27.9859 5.57126 28.2416C6.14169 28.5322 6.88843 28.5322 8.3819 28.5322Z" stroke="black" stroke-width="2" stroke-linecap="round" stroke-linejoin="round"/>
</svg>
