<svg width="23" height="23" viewBox="0 0 23 23" fill="none" xmlns="http://www.w3.org/2000/svg">
<mask id="mask0_1331_8623" style="mask-type:alpha" maskUnits="userSpaceOnUse" x="0" y="0" width="23" height="23">
<rect width="23" height="23" fill="#D9D9D9"/>
</mask>
<g mask="url(#mask0_1331_8623)">
<path d="M5.75 18.2083V19.1666C5.75 19.4382 5.65816 19.6658 5.47448 19.8494C5.2908 20.0331 5.06319 20.125 4.79167 20.125H3.83333C3.56181 20.125 3.3342 20.0331 3.15052 19.8494C2.96684 19.6658 2.875 19.4382 2.875 19.1666V11.5L4.8875 5.74996C4.98333 5.46246 5.15503 5.23086 5.4026 5.05517C5.65017 4.87947 5.92569 4.79163 6.22917 4.79163H16.7708C17.0743 4.79163 17.3498 4.87947 17.5974 5.05517C17.845 5.23086 18.0167 5.46246 18.1125 5.74996L20.125 11.5V19.1666C20.125 19.4382 20.0332 19.6658 19.8495 19.8494C19.6658 20.0331 19.4382 20.125 19.1667 20.125H18.2083C17.9368 20.125 17.7092 20.0331 17.5255 19.8494C17.3418 19.6658 17.25 19.4382 17.25 19.1666V18.2083H5.75ZM5.55833 9.58329H17.4417L16.4354 6.70829H6.56458L5.55833 9.58329ZM7.1875 15.3333C7.58681 15.3333 7.92622 15.1935 8.20573 14.914C8.48524 14.6345 8.625 14.2951 8.625 13.8958C8.625 13.4965 8.48524 13.1571 8.20573 12.8776C7.92622 12.598 7.58681 12.4583 7.1875 12.4583C6.78819 12.4583 6.44878 12.598 6.16927 12.8776C5.88976 13.1571 5.75 13.4965 5.75 13.8958C5.75 14.2951 5.88976 14.6345 6.16927 14.914C6.44878 15.1935 6.78819 15.3333 7.1875 15.3333ZM15.8125 15.3333C16.2118 15.3333 16.5512 15.1935 16.8307 14.914C17.1102 14.6345 17.25 14.2951 17.25 13.8958C17.25 13.4965 17.1102 13.1571 16.8307 12.8776C16.5512 12.598 16.2118 12.4583 15.8125 12.4583C15.4132 12.4583 15.0738 12.598 14.7943 12.8776C14.5148 13.1571 14.375 13.4965 14.375 13.8958C14.375 14.2951 14.5148 14.6345 14.7943 14.914C15.0738 15.1935 15.4132 15.3333 15.8125 15.3333ZM4.79167 16.2916H18.2083V11.5H4.79167V16.2916Z" fill="#1C1B1F"/>
</g>
</svg>
