<svg width="28" height="28" viewBox="0 0 28 28" fill="none" xmlns="http://www.w3.org/2000/svg">
<path d="M25.2846 24.0108C25.2846 25.3182 24.2221 26.4209 22.9147 26.4209H3.95045C2.64303 26.4209 1.58047 25.3182 1.58047 24.0108V5.04661C1.58047 3.73919 2.64303 2.71522 3.95045 2.71522H15.0123V1.13623H3.95045C1.77191 1.13623 0 2.86956 0 5.04809V24.0108C0 26.1894 1.77191 27.9999 3.95045 27.9999H22.9132C25.0917 27.9999 26.8636 26.1879 26.8636 24.0108V12.9876H25.2831L25.2846 24.0108Z" fill="#4498E8"/>
<path d="M27.0654 0.895973C25.8723 -0.298658 23.7902 -0.298658 22.5956 0.895973L11.9953 11.4963C11.8944 11.5972 11.8217 11.7248 11.7875 11.8628L10.6715 16.3312C10.6048 16.5998 10.6834 16.8847 10.8793 17.0821C11.0292 17.232 11.231 17.3136 11.4373 17.3136C11.5011 17.3136 11.5649 17.3062 11.6287 17.2899L16.0986 16.1724C16.2381 16.1383 16.3642 16.0656 16.4651 15.9647L27.0654 5.36434C27.662 4.76777 27.9915 3.97382 27.9915 3.12941C27.9915 2.28501 27.6635 1.49255 27.0654 0.895973ZM15.5035 14.6929L12.5236 15.4378L13.2686 12.4579L22.0376 3.68889L24.2725 5.92381L15.5035 14.6929ZM25.948 4.24688L25.39 4.80487L23.1551 2.56994L23.7131 2.01195C24.3096 1.41538 25.3514 1.41538 25.948 2.01195C26.2463 2.31024 26.411 2.70647 26.411 3.12941C26.411 3.55236 26.2463 3.94859 25.948 4.24688Z" fill="#4498E8"/>
</svg>
