<svg width="118" height="118" viewBox="0 0 118 118" fill="none" xmlns="http://www.w3.org/2000/svg">
<path d="M114.224 66.788C112.1 51.684 109.032 36.698 105.02 21.948C104.784 20.886 104.43 19.824 103.958 18.88C103.486 17.7 102.66 16.756 101.716 15.93C100.536 14.986 99.002 14.514 97.468 14.514C95.226 14.632 92.984 15.222 90.978 16.284C77.998 22.184 65.136 27.966 52.392 34.22C47.2 26.786 42.48 19.116 38.232 11.092C37.288 9.322 36.344 7.67 35.164 6.018C34.692 5.31 33.984 4.72 33.394 4.13C32.686 3.54 31.86 3.186 30.916 3.068C30.444 2.95 29.972 2.95 29.382 2.95C27.73 2.95 25.96 3.422 24.544 4.366C23.01 5.192 21.712 6.608 21.004 8.142C20.65 8.968 20.414 9.794 20.414 10.62C20.414 11.446 20.532 12.272 20.886 12.98C21.476 14.396 22.184 15.812 23.128 16.992C24.662 19.116 26.786 21.712 29.264 25.016C32.332 29.146 35.282 33.394 37.878 37.76C38.468 38.822 39.058 39.766 39.648 40.828C29.028 46.492 18.762 52.864 8.968 59.826C7.316 60.888 5.9 62.422 4.838 64.074C4.012 65.372 3.54 66.906 3.54 68.558C3.54 70.21 4.012 71.862 4.838 73.278C6.136 75.52 7.67 77.526 9.558 79.414C11.328 81.302 13.334 83.19 14.868 84.96C22.892 93.81 31.152 102.542 39.53 111.156C40.238 111.864 40.946 112.572 41.772 113.28C42.716 113.988 43.778 114.578 44.84 114.814C45.43 114.932 46.02 115.05 46.61 115.05C48.026 115.05 49.324 114.696 50.622 114.106C51.802 113.634 52.864 112.926 53.926 112.336L109.74 77.644C111.038 76.936 112.218 75.992 113.044 74.812C113.988 73.396 114.46 71.744 114.342 70.092C114.46 68.912 114.342 67.85 114.224 66.788ZM92.276 19.47C93.928 18.644 95.58 18.172 97.35 18.054C98.176 18.054 98.884 18.29 99.592 18.762C100.182 19.234 100.536 19.824 100.772 20.414C101.126 21.24 101.362 22.066 101.598 23.01C101.598 23.128 101.598 23.246 101.716 23.364C89.562 28.32 77.644 33.748 65.844 39.648C65.372 37.288 64.546 35.046 63.366 33.04C63.366 32.922 63.248 32.922 63.248 32.804C72.924 28.202 82.6 23.836 92.276 19.47ZM28.438 18.29C27.14 16.756 25.96 15.104 24.898 13.452C24.544 12.98 24.308 12.39 24.072 11.8C23.954 11.446 23.836 10.974 23.836 10.62C23.836 10.266 23.954 9.794 24.072 9.558C24.544 8.614 25.252 7.788 26.196 7.316C27.14 6.726 28.202 6.372 29.264 6.372C29.5 6.372 29.736 6.372 30.09 6.49C30.444 6.608 30.916 6.726 31.27 6.962C31.978 7.552 32.568 8.26 33.04 8.968C33.63 10.03 34.338 11.328 35.282 12.862C38.94 19.352 44.84 29.854 51.094 38.114C51.802 39.058 52.628 40.12 53.218 41.182C53.69 41.89 54.044 42.716 54.044 43.542C54.044 43.778 54.044 44.014 53.926 44.132C53.69 44.958 53.1 45.666 52.392 46.138C51.684 46.728 50.74 46.964 49.796 47.082C49.088 47.082 48.498 46.846 48.026 46.492C46.728 45.43 45.666 44.132 44.84 42.716C43.66 40.946 42.362 38.586 40.828 36.108C37.052 29.854 32.922 23.954 28.438 18.29ZM41.418 43.778C41.536 43.896 41.654 44.132 41.772 44.25C42.244 44.958 42.716 45.784 43.188 46.374C44.014 47.436 44.958 48.498 46.02 49.206C47.082 50.032 48.38 50.386 49.796 50.386C51.448 50.386 52.982 49.796 54.28 48.852C55.696 47.908 56.64 46.492 57.112 44.958C57.23 44.486 57.348 44.014 57.348 43.424C57.348 42.008 56.876 40.474 56.05 39.294C55.696 38.586 55.224 37.996 54.752 37.406C54.634 37.288 54.516 37.052 54.398 36.934C56.404 35.99 58.292 35.046 60.298 34.102C60.298 34.22 60.416 34.338 60.416 34.456C61.714 36.934 62.54 39.648 62.894 42.48C63.012 43.66 63.13 44.958 63.13 46.138C63.13 47.318 63.012 48.498 62.658 49.678C62.304 50.858 61.832 51.92 61.006 52.982C59.944 54.28 58.528 55.342 56.876 55.932C55.696 56.404 54.398 56.64 53.1 56.758C52.51 56.876 51.802 56.876 51.212 56.876C48.38 56.876 45.548 56.05 43.188 54.516C40.356 52.628 38.35 49.914 37.17 46.728C37.17 46.61 37.052 46.61 37.052 46.492C36.934 46.374 36.816 46.256 36.698 46.02C38.468 45.312 40.002 44.604 41.418 43.778ZM8.968 73.514C8.496 72.924 8.142 72.334 7.906 71.744C7.316 70.8 7.08 69.738 7.08 68.558C7.08 67.614 7.434 66.67 7.906 65.844C8.732 64.546 9.912 63.484 11.21 62.658C18.644 57.348 26.432 52.392 34.338 47.908V48.026C35.164 50.504 36.58 52.864 38.468 54.752C28.32 60.652 18.526 66.906 8.968 73.514ZM110.33 72.806C109.622 73.632 108.914 74.222 107.97 74.694L52.038 109.386C51.094 109.976 50.15 110.566 49.206 110.92C48.38 111.274 47.554 111.51 46.61 111.51C46.256 111.51 46.02 111.51 45.666 111.392C44.958 111.156 44.368 110.802 43.778 110.448C43.07 109.858 42.48 109.268 41.89 108.678C33.512 100.064 25.37 91.45 17.346 82.6C15.34 80.476 13.098 78.234 11.092 76.11C20.886 69.384 30.798 63.012 41.064 56.994C41.182 57.112 41.418 57.23 41.536 57.348C44.486 59.236 47.908 60.298 51.448 60.298C52.274 60.298 52.982 60.298 53.808 60.18C55.342 59.944 56.876 59.59 58.292 59.118C60.534 58.292 62.422 56.994 63.838 55.106C64.9 53.808 65.608 52.274 66.08 50.622C66.434 49.206 66.67 47.672 66.67 46.256C66.67 45.076 66.552 44.132 66.552 43.188C78.352 37.17 90.506 31.624 102.778 26.668C106.318 40.12 109.032 53.69 110.92 67.378C111.038 68.322 111.156 69.148 111.156 70.092C111.156 71.036 110.92 71.98 110.33 72.806Z" fill="black"/>
<path d="M102.66 56.168L96.052 55.224C96.406 51.212 96.76 47.082 97.232 43.07C97.35 42.126 96.642 41.3 95.698 41.182C94.754 41.064 93.928 41.772 93.81 42.716L92.63 54.752L81.42 52.982C81.774 50.386 82.128 47.79 82.6 45.194C82.718 44.25 82.128 43.424 81.184 43.306C80.24 43.188 79.414 43.778 79.296 44.604C78.824 47.2 78.47 49.914 78.116 52.51L73.042 51.802C72.098 51.684 71.272 52.274 71.154 53.218C71.036 54.162 71.626 54.988 72.57 55.106L77.762 55.932C77.29 60.062 76.936 64.192 76.582 68.204L67.496 66.552C67.85 64.192 68.204 61.832 68.558 59.472C68.676 58.528 68.086 57.702 67.142 57.584C66.198 57.466 65.372 58.056 65.254 59L64.192 65.962L54.516 64.192C53.572 63.956 52.746 64.546 52.51 65.49C52.274 66.434 52.864 67.26 53.808 67.496L63.602 69.266L61.832 81.302L48.852 78.942C49.206 74.93 49.442 70.8 49.796 66.788C49.914 65.844 49.206 65.018 48.262 64.9C47.318 64.782 46.492 65.49 46.374 66.434V66.552C46.02 70.446 45.784 74.458 45.43 78.352L34.928 76.464C35.164 74.458 35.4 72.334 35.754 70.328C35.872 69.384 35.282 68.558 34.338 68.44C33.394 68.322 32.568 68.912 32.45 69.856C32.096 71.862 31.86 73.868 31.624 75.992L27.022 75.166C26.078 75.048 25.252 75.638 25.016 76.582C24.898 77.526 25.488 78.352 26.432 78.588L31.27 79.414C31.152 81.42 30.916 83.544 30.916 85.55C30.916 86.494 31.624 87.32 32.568 87.32C33.512 87.32 34.338 86.612 34.338 85.668C34.456 83.78 34.574 81.892 34.692 80.004L45.194 81.892C44.958 85.314 44.604 88.854 44.368 92.276C42.598 92.04 40.828 91.686 39.058 91.45C38.114 91.332 37.288 91.922 37.052 92.866C36.934 93.81 37.524 94.636 38.468 94.872C40.356 95.226 42.126 95.462 44.014 95.816L43.896 97.114C43.778 98.058 44.486 98.884 45.43 99.002C46.374 99.12 47.2 98.412 47.318 97.468C47.318 97.114 47.318 96.878 47.436 96.524C50.74 97.114 54.162 97.704 57.466 98.176C58.41 98.294 59.236 97.704 59.354 96.76C59.472 95.816 58.882 94.99 57.938 94.872C54.516 94.282 51.094 93.692 47.554 93.22C47.79 89.798 48.144 86.258 48.38 82.836L61.124 85.196L60.18 93.692C60.062 94.636 60.652 95.462 61.596 95.58C62.54 95.698 63.366 95.108 63.484 94.164L64.782 85.314L75.638 87.32C76.582 87.438 77.408 86.848 77.644 85.904C77.762 85.314 77.526 84.606 76.936 84.252C77.762 84.724 78.824 84.37 79.178 83.662C79.296 83.426 79.414 83.072 79.414 82.836C79.414 79.296 79.532 75.874 79.65 72.334L90.86 74.34C90.978 75.284 91.922 75.874 92.866 75.638C93.338 75.52 93.692 75.284 94.046 74.812C94.99 74.93 95.816 74.34 96.052 73.396C96.17 72.452 95.58 71.626 94.636 71.39H94.518C94.872 67.024 95.344 62.776 95.698 58.528L102.07 59.472C103.014 59.59 103.84 59 104.076 58.056C104.194 57.23 103.604 56.404 102.66 56.168ZM76.346 83.898L65.372 81.892C65.962 77.88 66.552 73.868 67.142 69.856L76.464 71.626C76.228 75.284 76.228 79.06 76.228 82.718C76.228 83.308 76.464 83.78 76.936 84.134C76.582 84.016 76.464 84.016 76.346 83.898ZM91.214 70.918L79.886 68.794C80.122 64.664 80.476 60.534 81.066 56.404L92.394 58.056C91.922 62.422 91.568 66.67 91.214 70.918Z" fill="black"/>
</svg>
