<svg width="54" height="12" viewBox="0 0 54 12" fill="none" xmlns="http://www.w3.org/2000/svg">
<path d="M6.942 1.835V3.863H3.276V5.475H5.98V7.412H3.276V11H0.728V1.835H6.942ZM9.30211 3.031C8.85144 3.031 8.48744 2.90967 8.21011 2.667C7.94144 2.41567 7.80711 2.10367 7.80711 1.731C7.80711 1.34967 7.94144 1.03333 8.21011 0.782C8.48744 0.530666 8.85144 0.404999 9.30211 0.404999C9.74411 0.404999 10.0994 0.530666 10.3681 0.782C10.6454 1.03333 10.7841 1.34967 10.7841 1.731C10.7841 2.10367 10.6454 2.41567 10.3681 2.667C10.0994 2.90967 9.74411 3.031 9.30211 3.031ZM10.5631 3.707V11H8.01511V3.707H10.5631ZM16.7851 3.642C17.6258 3.642 18.2931 3.92367 18.7871 4.487C19.2811 5.04167 19.5281 5.79567 19.5281 6.749V11H16.9801V7.087C16.9801 6.671 16.8718 6.346 16.6551 6.112C16.4385 5.86933 16.1481 5.748 15.7841 5.748C15.4028 5.748 15.1038 5.86933 14.8871 6.112C14.6705 6.346 14.5621 6.671 14.5621 7.087V11H12.0141V3.707H14.5621V4.747C14.7875 4.41767 15.0908 4.15333 15.4721 3.954C15.8535 3.746 16.2911 3.642 16.7851 3.642ZM20.5102 7.347C20.5102 6.593 20.6446 5.93433 20.9132 5.371C21.1906 4.80767 21.5632 4.37433 22.0312 4.071C22.5079 3.76767 23.0366 3.616 23.6172 3.616C24.1199 3.616 24.5532 3.71567 24.9172 3.915C25.2812 4.11433 25.5629 4.383 25.7622 4.721V3.707H28.3102V11H25.7622V9.986C25.5629 10.324 25.2769 10.5927 24.9042 10.792C24.5402 10.9913 24.1112 11.091 23.6172 11.091C23.0366 11.091 22.5079 10.9393 22.0312 10.636C21.5632 10.3327 21.1906 9.89933 20.9132 9.336C20.6446 8.764 20.5102 8.101 20.5102 7.347ZM25.7622 7.347C25.7622 6.879 25.6322 6.51067 25.3722 6.242C25.1209 5.97333 24.8089 5.839 24.4362 5.839C24.0549 5.839 23.7386 5.97333 23.4872 6.242C23.2359 6.502 23.1102 6.87033 23.1102 7.347C23.1102 7.815 23.2359 8.18767 23.4872 8.465C23.7386 8.73367 24.0549 8.868 24.4362 8.868C24.8089 8.868 25.1209 8.73367 25.3722 8.465C25.6322 8.19633 25.7622 7.82367 25.7622 7.347ZM34.5332 3.642C35.3738 3.642 36.0412 3.92367 36.5352 4.487C37.0292 5.04167 37.2762 5.79567 37.2762 6.749V11H34.7282V7.087C34.7282 6.671 34.6198 6.346 34.4032 6.112C34.1865 5.86933 33.8962 5.748 33.5322 5.748C33.1508 5.748 32.8518 5.86933 32.6352 6.112C32.4185 6.346 32.3102 6.671 32.3102 7.087V11H29.7622V3.707H32.3102V4.747C32.5355 4.41767 32.8388 4.15333 33.2202 3.954C33.6015 3.746 34.0392 3.642 34.5332 3.642ZM38.2583 7.347C38.2583 6.593 38.4143 5.93433 38.7263 5.371C39.0383 4.80767 39.4716 4.37433 40.0263 4.071C40.5896 3.76767 41.231 3.616 41.9503 3.616C42.8776 3.616 43.6576 3.87167 44.2903 4.383C44.923 4.88567 45.3303 5.592 45.5123 6.502H42.8083C42.6523 6.02533 42.349 5.787 41.8983 5.787C41.5776 5.787 41.322 5.92133 41.1313 6.19C40.9493 6.45 40.8583 6.83567 40.8583 7.347C40.8583 7.85833 40.9493 8.24833 41.1313 8.517C41.322 8.78567 41.5776 8.92 41.8983 8.92C42.3576 8.92 42.661 8.68167 42.8083 8.205H45.5123C45.3303 9.10633 44.923 9.81267 44.2903 10.324C43.6576 10.8353 42.8776 11.091 41.9503 11.091C41.231 11.091 40.5896 10.9393 40.0263 10.636C39.4716 10.3327 39.0383 9.89933 38.7263 9.336C38.4143 8.77267 38.2583 8.10967 38.2583 7.347ZM53.5388 7.269C53.5388 7.46833 53.5258 7.66767 53.4998 7.867H48.6768C48.7028 8.26567 48.8111 8.56467 49.0018 8.764C49.2011 8.95467 49.4524 9.05 49.7558 9.05C50.1804 9.05 50.4838 8.85933 50.6658 8.478H53.3828C53.2701 8.98067 53.0491 9.43133 52.7198 9.83C52.3991 10.22 51.9918 10.5277 51.4978 10.753C51.0038 10.9783 50.4578 11.091 49.8598 11.091C49.1404 11.091 48.4991 10.9393 47.9358 10.636C47.3811 10.3327 46.9434 9.89933 46.6228 9.336C46.3108 8.77267 46.1548 8.10967 46.1548 7.347C46.1548 6.58433 46.3108 5.92567 46.6228 5.371C46.9348 4.80767 47.3681 4.37433 47.9228 4.071C48.4861 3.76767 49.1318 3.616 49.8598 3.616C50.5791 3.616 51.2161 3.76333 51.7708 4.058C52.3254 4.35267 52.7588 4.77733 53.0708 5.332C53.3828 5.878 53.5388 6.52367 53.5388 7.269ZM50.9388 6.632C50.9388 6.32 50.8348 6.07733 50.6268 5.904C50.4188 5.722 50.1588 5.631 49.8468 5.631C49.5348 5.631 49.2791 5.71767 49.0798 5.891C48.8804 6.05567 48.7504 6.30267 48.6898 6.632H50.9388Z" fill="#1E3A5F"/>
</svg>
