<svg width="164" height="162" viewBox="0 0 164 162" fill="none" xmlns="http://www.w3.org/2000/svg">
<path d="M20.76 117.92V123.4H9.32V129.32H17.88V134.64H9.32V146H2.48V117.92H20.76ZM27.795 121.36C26.595 121.36 25.6083 121.013 24.835 120.32C24.0883 119.6 23.715 118.72 23.715 117.68C23.715 116.613 24.0883 115.733 24.835 115.04C25.6083 114.32 26.595 113.96 27.795 113.96C28.9683 113.96 29.9283 114.32 30.675 115.04C31.4483 115.733 31.835 116.613 31.835 117.68C31.835 118.72 31.4483 119.6 30.675 120.32C29.9283 121.013 28.9683 121.36 27.795 121.36ZM31.195 123.68V146H24.355V123.68H31.195ZM49.7519 123.44C52.3652 123.44 54.4452 124.293 55.9919 126C57.5652 127.68 58.3519 130 58.3519 132.96V146H51.5519V133.88C51.5519 132.387 51.1652 131.227 50.3919 130.4C49.6185 129.573 48.5785 129.16 47.2719 129.16C45.9652 129.16 44.9252 129.573 44.1519 130.4C43.3785 131.227 42.9919 132.387 42.9919 133.88V146H36.1519V123.68H42.9919V126.64C43.6852 125.653 44.6185 124.88 45.7919 124.32C46.9652 123.733 48.2852 123.44 49.7519 123.44ZM61.745 134.8C61.745 132.507 62.1717 130.493 63.025 128.76C63.905 127.027 65.0917 125.693 66.585 124.76C68.0783 123.827 69.745 123.36 71.585 123.36C73.1583 123.36 74.5317 123.68 75.705 124.32C76.905 124.96 77.825 125.8 78.465 126.84V123.68H85.305V146H78.465V142.84C77.7983 143.88 76.865 144.72 75.665 145.36C74.4917 146 73.1183 146.32 71.545 146.32C69.7317 146.32 68.0783 145.853 66.585 144.92C65.0917 143.96 63.905 142.613 63.025 140.88C62.1717 139.12 61.745 137.093 61.745 134.8ZM78.465 134.84C78.465 133.133 77.985 131.787 77.025 130.8C76.0917 129.813 74.945 129.32 73.585 129.32C72.225 129.32 71.065 129.813 70.105 130.8C69.1717 131.76 68.705 133.093 68.705 134.8C68.705 136.507 69.1717 137.867 70.105 138.88C71.065 139.867 72.225 140.36 73.585 140.36C74.945 140.36 76.0917 139.867 77.025 138.88C77.985 137.893 78.465 136.547 78.465 134.84ZM103.853 123.44C106.467 123.44 108.547 124.293 110.093 126C111.667 127.68 112.453 130 112.453 132.96V146H105.653V133.88C105.653 132.387 105.267 131.227 104.493 130.4C103.72 129.573 102.68 129.16 101.373 129.16C100.067 129.16 99.0268 129.573 98.2534 130.4C97.4801 131.227 97.0934 132.387 97.0934 133.88V146H90.2534V123.68H97.0934V126.64C97.7868 125.653 98.7201 124.88 99.8934 124.32C101.067 123.733 102.387 123.44 103.853 123.44ZM115.847 134.84C115.847 132.52 116.313 130.493 117.247 128.76C118.207 127.027 119.527 125.693 121.207 124.76C122.913 123.827 124.86 123.36 127.047 123.36C129.847 123.36 132.18 124.093 134.047 125.56C135.94 127.027 137.18 129.093 137.767 131.76H130.487C129.873 130.053 128.687 129.2 126.927 129.2C125.673 129.2 124.673 129.693 123.927 130.68C123.18 131.64 122.807 133.027 122.807 134.84C122.807 136.653 123.18 138.053 123.927 139.04C124.673 140 125.673 140.48 126.927 140.48C128.687 140.48 129.873 139.627 130.487 137.92H137.767C137.18 140.533 135.94 142.587 134.047 144.08C132.153 145.573 129.82 146.32 127.047 146.32C124.86 146.32 122.913 145.853 121.207 144.92C119.527 143.987 118.207 142.653 117.247 140.92C116.313 139.187 115.847 137.16 115.847 134.84ZM162.465 134.48C162.465 135.12 162.425 135.787 162.345 136.48H146.865C146.972 137.867 147.412 138.933 148.185 139.68C148.985 140.4 149.959 140.76 151.105 140.76C152.812 140.76 153.999 140.04 154.665 138.6H161.945C161.572 140.067 160.892 141.387 159.905 142.56C158.945 143.733 157.732 144.653 156.265 145.32C154.799 145.987 153.159 146.32 151.345 146.32C149.159 146.32 147.212 145.853 145.505 144.92C143.799 143.987 142.465 142.653 141.505 140.92C140.545 139.187 140.065 137.16 140.065 134.84C140.065 132.52 140.532 130.493 141.465 128.76C142.425 127.027 143.759 125.693 145.465 124.76C147.172 123.827 149.132 123.36 151.345 123.36C153.505 123.36 155.425 123.813 157.105 124.72C158.785 125.627 160.092 126.92 161.025 128.6C161.985 130.28 162.465 132.24 162.465 134.48ZM155.465 132.68C155.465 131.507 155.065 130.573 154.265 129.88C153.465 129.187 152.465 128.84 151.265 128.84C150.119 128.84 149.145 129.173 148.345 129.84C147.572 130.507 147.092 131.453 146.905 132.68H155.465Z" fill="#1E3A5F"/>
<path d="M79.2 15.05C80.25 16.45 81.65 17.15 83.05 17.85C82.35 19.6 82 21 81.65 22.4C81.3 22.4 80.6 22.4 80.25 22.4H79.9C78.85 22.4 77.45 22.05 76.4 22.05C76.05 21.35 75.35 20.3 75 19.6C75 19.25 74.65 18.9 74.65 18.9C76.05 18.2 77.8 16.8 79.2 15.05ZM79.2 7C77.45 7 75.7 7.35 73.95 10.15C72.55 12.6 70.45 12.6 67.3 12.6C64.5 12.6 63.8 14.7 65.2 16.8C65.9 17.85 70.45 25.55 71.5 27.3C72.55 28.7 76.75 29.75 79.9 29.75C80.25 29.75 80.25 29.75 80.6 29.75C83.75 29.75 88.65 28.35 88.3 25.9C87.95 21.35 92.5 15.4 93.2 14.7C94.25 13.3 93.9 10.15 91.1 10.15C90.4 10.15 89.7 10.15 89 10.5C88.3 10.85 87.25 11.2 86.2 11.2C85.5 11.2 84.8 10.85 84.45 10.15C82.35 7.35 80.6 7 79.2 7Z" fill="#1E3A5F"/>
<path d="M71.4992 27.3C72.5492 29.05 77.4492 29.75 80.5992 29.75C83.7492 29.75 88.6492 28.35 88.2992 25.9C87.9492 21.35 92.4992 15.4 93.1992 14.7C91.7992 15.4 90.7492 16.45 89.3492 16.1C88.6492 16.8 86.8992 21 83.3992 21C80.9492 21 80.5992 17.5 78.8492 17.5C77.0992 17.5 76.7492 19.95 75.3492 20.3C72.1992 21 69.7492 17.85 67.9992 15.75C67.2992 15.75 65.8992 14.7 65.1992 17.15C65.8992 17.85 70.4492 25.55 71.4992 27.3Z" fill="#1E3A5F"/>
<path d="M87.6 30.8C85.15 31.85 82.35 32.55 80.6 32.55H79.9C79.2 32.55 76.05 32.55 73.25 31.5C58.2 36.05 47 51.45 47 62.3C47 75.25 62.75 77 82 77C101.25 77 117 75.25 117 62.3C117 50.75 104.4 34.3 87.6 30.8ZM80.6 50.75C80.95 51.1 81.65 51.8 82.7 52.5C84.8 53.2 86.55 54.25 87.6 55.3C88.65 56.35 89.35 58.1 89.35 60.2C89.35 61.95 88.65 63.7 87.6 64.75C86.55 65.8 85.15 66.5 83.4 66.85V70H80.95V66.85C79.2 66.5 77.45 65.8 76.4 64.75C75.35 63.7 74.65 61.6 74.65 59.5H79.2C79.2 60.9 79.55 61.95 79.9 62.65C80.25 63.35 81.3 63.7 82 63.7C82.7 63.7 83.4 63.35 83.75 63C84.1 62.3 84.45 61.6 84.45 60.9C84.45 59.85 84.1 59.15 83.75 58.8C83.4 58.1 82.7 57.75 81.65 57.05C79.55 56.35 77.8 55.3 76.75 54.25C75.7 53.2 75 51.45 75 49.7C75 47.95 75.7 46.2 76.75 45.15C77.8 44.1 79.2 43.4 80.95 43.05V39.55H83.4V43.05C85.15 43.4 86.55 44.1 87.6 45.5C88.65 46.9 89 48.3 89 50.4H84.45C84.45 49.35 84.1 48.3 83.75 47.6C83.4 46.9 82.7 46.55 82 46.55C81.3 46.55 80.6 46.9 80.25 47.25C79.9 47.95 79.9 48.65 79.9 49.35C80.25 49.7 80.25 50.4 80.6 50.75Z" fill="#1E3A5F"/>
</svg>
