<svg width="21" height="17" viewBox="0 0 21 17" fill="none" xmlns="http://www.w3.org/2000/svg">
<path d="M2.46045 16.9395C1.91045 16.9395 1.43962 16.7436 1.04795 16.352C0.656283 15.9603 0.460449 15.4895 0.460449 14.9395V2.93945C0.460449 2.38945 0.656283 1.91862 1.04795 1.52695C1.43962 1.13529 1.91045 0.939453 2.46045 0.939453H18.4604C19.0104 0.939453 19.4813 1.13529 19.8729 1.52695C20.2646 1.91862 20.4604 2.38945 20.4604 2.93945V14.9395C20.4604 15.4895 20.2646 15.9603 19.8729 16.352C19.4813 16.7436 19.0104 16.9395 18.4604 16.9395H2.46045ZM10.4604 9.93945L2.46045 4.93945V14.9395H18.4604V4.93945L10.4604 9.93945ZM10.4604 7.93945L18.4604 2.93945H2.46045L10.4604 7.93945ZM2.46045 4.93945V2.93945V14.9395V4.93945Z" fill="#1C1B1F"/>
</svg>
