<svg width="22" height="21" viewBox="0 0 22 21" fill="none" xmlns="http://www.w3.org/2000/svg">
<circle cx="11.1817" cy="10.459" r="10.2412" fill="#ABD4FA"/>
<path d="M9.1446 10.32C9.80004 11.6081 10.8538 12.6618 12.1441 13.3173L13.1455 12.3136C13.2707 12.1884 13.4505 12.152 13.6075 12.2021C14.1173 12.3705 14.6658 12.4615 15.2324 12.4615C15.4851 12.4615 15.6876 12.6641 15.6876 12.9167V14.5098C15.6876 14.7624 15.4851 14.965 15.2324 14.965C10.9584 14.965 7.49463 11.5011 7.49463 7.22714C7.49463 6.97452 7.69945 6.77197 7.94979 6.77197H9.54287C9.79549 6.77197 9.99804 6.97452 9.99804 7.22714C9.99804 7.79382 10.0891 8.34229 10.2575 8.85208C10.3076 9.00911 10.2711 9.1889 10.146 9.31407L9.1446 10.32Z" fill="#1F2122"/>
</svg>
