<svg width="32" height="32" viewBox="0 0 32 32" fill="none" xmlns="http://www.w3.org/2000/svg">
<path d="M1.94743 17.1704V17.8319V29.6653H8.6792V27.996L8.70783 28.0064C10.4674 28.5915 12.9839 29.1118 15.4709 30.0012L15.6558 30.0637L15.838 30.022C16.6196 29.8401 18.7255 29.1906 21.2365 28.384C23.7474 27.5774 26.6119 26.6244 28.7417 25.8892C29.7609 25.5362 30.309 24.3962 29.9344 23.3839C29.5408 22.3483 28.399 21.8825 27.4266 22.181C26.6167 22.4292 22.8156 23.6033 20.3198 24.3398C20.3433 23.628 20.5305 22.8581 19.9526 22.4048L19.9214 22.3737L19.8823 22.3579C17.0771 20.6843 16.8393 20.4674 12.8953 18.3712L12.7104 18.28L12.5073 18.3008C11.151 18.4463 8.84678 18.8278 8.67919 18.8556V17.1706L1.94743 17.1704ZM3.28077 18.5039H7.35368V28.332H3.28077V18.5039ZM12.4474 19.6548C16.05 21.5736 16.4637 21.8665 19.1271 23.4544C19.5591 23.7934 19.6741 24.2097 19.4136 24.5846C19.2737 24.7858 19.1272 24.8656 18.924 24.8995C18.7208 24.936 18.4403 24.8891 18.1193 24.7483C16.9199 24.1939 16.2673 23.8404 14.9422 23.0972L14.3615 22.7718L13.7105 23.9333L14.2912 24.2587C15.6248 25.0066 16.3292 25.3966 17.5698 25.9696H17.5802C18.0871 26.1954 18.622 26.3033 19.1479 26.2142C19.3662 26.1777 19.5088 25.955 19.7078 25.8471L19.7287 25.907L20.3693 25.7245C22.8683 24.9927 26.9812 23.7196 27.8146 23.4641V23.4536C28.1296 23.3572 28.5552 23.5162 28.6818 23.8494C28.7997 24.1836 28.646 24.5071 28.3042 24.6254C26.1888 25.3557 23.33 26.306 20.8276 27.1099C18.388 27.8936 16.3235 28.5188 15.674 28.6776C13.1711 27.8084 10.6838 27.2603 9.12711 26.7426L8.6792 26.5992V20.2035L8.79117 20.1878C8.79117 20.1878 11.0925 19.8138 12.4474 19.6548Z" fill="black"/>
<path d="M21.5197 1.93616C16.9687 1.93616 13.2601 5.64454 13.2601 10.1954C13.2601 14.7463 16.9687 18.4445 21.5197 18.4445C26.0707 18.4445 29.7691 14.7463 29.7691 10.1954C29.7691 5.64454 26.0707 1.93616 21.5197 1.93616ZM21.5197 3.27027C25.3501 3.27027 28.4349 6.3651 28.4349 10.1954C28.4349 14.0257 25.3501 17.1104 21.5197 17.1104C17.6893 17.1104 14.5943 14.0257 14.5943 10.1954C14.5943 6.3651 17.6893 3.27027 21.5197 3.27027Z" fill="black"/>
<path d="M20.8433 5.73547V6.41001V6.89184H19.0282V10.8579H22.6688V12.1575H19.7H19.0282V13.4908H19.7H20.8433V13.9699V14.6417H22.1766V13.9699V13.4908H24.0021V9.52457H20.3615V8.22515H23.3302H24.0021V6.89184H23.3302H22.1766V6.41001V5.73547H20.8433Z" fill="black"/>
</svg>
