<svg width="46" height="12" viewBox="0 0 46 12" fill="none" xmlns="http://www.w3.org/2000/svg">
<path d="M4.186 11.091C3.12 11.091 2.24467 10.8397 1.56 10.337C0.875333 9.82567 0.507 9.09767 0.455 8.153H3.172C3.198 8.47367 3.29333 8.70767 3.458 8.855C3.62267 9.00233 3.835 9.076 4.095 9.076C4.329 9.076 4.51967 9.01967 4.667 8.907C4.823 8.78567 4.901 8.621 4.901 8.413C4.901 8.14433 4.77533 7.93633 4.524 7.789C4.27267 7.64167 3.86533 7.477 3.302 7.295C2.704 7.09567 2.21867 6.905 1.846 6.723C1.482 6.53233 1.16133 6.25933 0.884 5.904C0.615333 5.54 0.481 5.06767 0.481 4.487C0.481 3.89767 0.628333 3.395 0.923 2.979C1.21767 2.55433 1.625 2.23367 2.145 2.017C2.665 1.80033 3.25433 1.692 3.913 1.692C4.979 1.692 5.82833 1.94333 6.461 2.446C7.10233 2.94 7.44467 3.63767 7.488 4.539H4.719C4.71033 4.26167 4.62367 4.05367 4.459 3.915C4.303 3.77633 4.09933 3.707 3.848 3.707C3.65733 3.707 3.50133 3.76333 3.38 3.876C3.25867 3.98867 3.198 4.149 3.198 4.357C3.198 4.53033 3.263 4.682 3.393 4.812C3.53167 4.93333 3.70067 5.04167 3.9 5.137C4.09933 5.22367 4.394 5.33633 4.784 5.475C5.36467 5.67433 5.84133 5.87367 6.214 6.073C6.59533 6.26367 6.92033 6.53667 7.189 6.892C7.46633 7.23867 7.605 7.68067 7.605 8.218C7.605 8.764 7.46633 9.25367 7.189 9.687C6.92033 10.1203 6.526 10.4627 6.006 10.714C5.49467 10.9653 4.888 11.091 4.186 11.091ZM12.1825 11.091C11.4545 11.091 10.8002 10.9393 10.2195 10.636C9.64752 10.3327 9.19686 9.89933 8.86752 9.336C8.53819 8.77267 8.37352 8.10967 8.37352 7.347C8.37352 6.593 8.53819 5.93433 8.86752 5.371C9.20552 4.80767 9.66052 4.37433 10.2325 4.071C10.8132 3.76767 11.4675 3.616 12.1955 3.616C12.9235 3.616 13.5735 3.76767 14.1455 4.071C14.7262 4.37433 15.1812 4.80767 15.5105 5.371C15.8485 5.93433 16.0175 6.593 16.0175 7.347C16.0175 8.101 15.8485 8.764 15.5105 9.336C15.1812 9.89933 14.7262 10.3327 14.1455 10.636C13.5649 10.9393 12.9105 11.091 12.1825 11.091ZM12.1825 8.881C12.5379 8.881 12.8325 8.751 13.0665 8.491C13.3092 8.22233 13.4305 7.841 13.4305 7.347C13.4305 6.853 13.3092 6.476 13.0665 6.216C12.8325 5.956 12.5422 5.826 12.1955 5.826C11.8489 5.826 11.5585 5.956 11.3245 6.216C11.0905 6.476 10.9735 6.853 10.9735 7.347C10.9735 7.84967 11.0862 8.231 11.3115 8.491C11.5369 8.751 11.8272 8.881 12.1825 8.881ZM19.6022 1.38V11H17.0542V1.38H19.6022ZM20.6372 7.347C20.6372 6.593 20.7715 5.93433 21.0402 5.371C21.3175 4.80767 21.6902 4.37433 22.1582 4.071C22.6349 3.76767 23.1635 3.616 23.7442 3.616C24.2469 3.616 24.6802 3.71567 25.0442 3.915C25.4082 4.11433 25.6899 4.383 25.8892 4.721V3.707H28.4372V11H25.8892V9.986C25.6899 10.324 25.4039 10.5927 25.0312 10.792C24.6672 10.9913 24.2382 11.091 23.7442 11.091C23.1635 11.091 22.6349 10.9393 22.1582 10.636C21.6902 10.3327 21.3175 9.89933 21.0402 9.336C20.7715 8.764 20.6372 8.101 20.6372 7.347ZM25.8892 7.347C25.8892 6.879 25.7592 6.51067 25.4992 6.242C25.2479 5.97333 24.9359 5.839 24.5632 5.839C24.1819 5.839 23.8655 5.97333 23.6142 6.242C23.3629 6.502 23.2372 6.87033 23.2372 7.347C23.2372 7.815 23.3629 8.18767 23.6142 8.465C23.8655 8.73367 24.1819 8.868 24.5632 8.868C24.9359 8.868 25.2479 8.73367 25.4992 8.465C25.7592 8.19633 25.8892 7.82367 25.8892 7.347ZM32.4371 4.994C32.7231 4.578 33.0698 4.24867 33.4771 4.006C33.8845 3.76333 34.3221 3.642 34.7901 3.642V6.359H34.0751C33.5205 6.359 33.1088 6.46733 32.8401 6.684C32.5715 6.90067 32.4371 7.27767 32.4371 7.815V11H29.8891V3.707H32.4371V4.994ZM36.9906 3.031C36.5399 3.031 36.1759 2.90967 35.8986 2.667C35.6299 2.41567 35.4956 2.10367 35.4956 1.731C35.4956 1.34967 35.6299 1.03333 35.8986 0.782C36.1759 0.530666 36.5399 0.404999 36.9906 0.404999C37.4326 0.404999 37.7879 0.530666 38.0566 0.782C38.3339 1.03333 38.4726 1.34967 38.4726 1.731C38.4726 2.10367 38.3339 2.41567 38.0566 2.667C37.7879 2.90967 37.4326 3.031 36.9906 3.031ZM38.2516 3.707V11H35.7036V3.707H38.2516ZM42.8096 11.091C42.1509 11.091 41.5616 10.9827 41.0416 10.766C40.5303 10.5407 40.1229 10.2373 39.8196 9.856C39.5249 9.466 39.3603 9.02833 39.3256 8.543H41.7956C41.8303 8.777 41.9386 8.959 42.1206 9.089C42.3026 9.219 42.5279 9.284 42.7966 9.284C43.0046 9.284 43.1693 9.24067 43.2906 9.154C43.4119 9.06733 43.4726 8.95467 43.4726 8.816C43.4726 8.634 43.3729 8.49967 43.1736 8.413C42.9743 8.32633 42.6449 8.231 42.1856 8.127C41.6656 8.023 41.2323 7.906 40.8856 7.776C40.5389 7.646 40.2356 7.43367 39.9756 7.139C39.7243 6.84433 39.5986 6.44567 39.5986 5.943C39.5986 5.50967 39.7156 5.11967 39.9496 4.773C40.1836 4.41767 40.5259 4.136 40.9766 3.928C41.4359 3.72 41.9863 3.616 42.6276 3.616C43.5809 3.616 44.3306 3.85 44.8766 4.318C45.4226 4.786 45.7389 5.40133 45.8256 6.164H43.5246C43.4813 5.93 43.3773 5.75233 43.2126 5.631C43.0566 5.501 42.8443 5.436 42.5756 5.436C42.3676 5.436 42.2073 5.475 42.0946 5.553C41.9906 5.631 41.9386 5.73933 41.9386 5.878C41.9386 6.05133 42.0383 6.18567 42.2376 6.281C42.4369 6.36767 42.7576 6.45867 43.1996 6.554C43.7283 6.66667 44.1659 6.79233 44.5126 6.931C44.8679 7.06967 45.1756 7.295 45.4356 7.607C45.7043 7.91033 45.8386 8.32633 45.8386 8.855C45.8386 9.27967 45.7129 9.661 45.4616 9.999C45.2189 10.337 44.8679 10.6057 44.4086 10.805C43.9579 10.9957 43.4249 11.091 42.8096 11.091Z" fill="#53A052"/>
</svg>
