<svg width="24" height="23" viewBox="0 0 24 23" fill="none" xmlns="http://www.w3.org/2000/svg">
<path d="M14.4372 5C15.4073 5.19057 16.2989 5.66826 16.9978 6.37194C17.6967 7.07561 18.1712 7.97326 18.3605 8.95L14.4372 5ZM14.4372 1C16.4528 1.22544 18.3323 2.13417 19.7671 3.57701C21.202 5.01984 22.107 6.91101 22.3334 8.94L14.4372 1ZM21.3402 16.92V19.92C21.3413 20.1985 21.2846 20.4742 21.1738 20.7293C21.063 20.9845 20.9005 21.2136 20.6966 21.4019C20.4928 21.5901 20.2522 21.7335 19.9901 21.8227C19.7281 21.9119 19.4504 21.9451 19.1749 21.92C16.1186 21.5856 13.1828 20.5341 10.6033 18.85C8.20352 17.3147 6.1689 15.2662 4.64395 12.85C2.96537 10.2412 1.92075 7.27099 1.59473 4.18C1.56991 3.90347 1.60255 3.62476 1.69058 3.36162C1.7786 3.09849 1.92009 2.85669 2.10601 2.65162C2.29194 2.44655 2.51824 2.28271 2.77051 2.17052C3.02278 2.05833 3.29548 2.00026 3.57126 2H6.55096C7.03298 1.99522 7.50028 2.16708 7.86576 2.48353C8.23124 2.79999 8.46996 3.23945 8.53742 3.72C8.66319 4.68007 8.89642 5.62273 9.23268 6.53C9.36632 6.88792 9.39524 7.27691 9.31602 7.65088C9.23681 8.02485 9.05277 8.36811 8.78573 8.64L7.52432 9.91C8.93824 12.4135 10.9971 14.4864 13.4837 15.91L14.7451 14.64C15.0152 14.3711 15.3561 14.1858 15.7275 14.1061C16.099 14.0263 16.4853 14.0555 16.8408 14.19C17.742 14.5286 18.6782 14.7634 19.6318 14.89C20.1143 14.9585 20.5549 15.2032 20.8699 15.5775C21.1849 15.9518 21.3523 16.4296 21.3402 16.92Z" stroke="black" stroke-width="2" stroke-linecap="round" stroke-linejoin="round"/>
</svg>
