<svg width="20" height="20" viewBox="0 0 20 20" fill="none" xmlns="http://www.w3.org/2000/svg">
<path d="M16.6667 9.95094V5.66663C16.6667 4.26649 16.6667 3.56643 16.3942 3.03165C16.1545 2.56124 15.7721 2.17879 15.3017 1.93911C14.7669 1.66663 14.0668 1.66663 12.6667 1.66663H7.33337C5.93324 1.66663 5.23318 1.66663 4.6984 1.93911C4.22799 2.17879 3.84554 2.56124 3.60586 3.03165C3.33337 3.56643 3.33337 4.26649 3.33337 5.66663V14.3333C3.33337 15.7334 3.33337 16.4335 3.60586 16.9683C3.84554 17.4387 4.22799 17.8211 4.6984 18.0608C5.23318 18.3333 5.93324 18.3333 7.33337 18.3333H11.6667M11.6667 9.16663H6.66671M8.33337 12.5H6.66671M13.3334 5.83329H6.66671M12.5 14.1666H17.5" stroke="black" stroke-width="1.66667" stroke-linecap="round" stroke-linejoin="round"/>
</svg>
