<svg width="16" height="17" viewBox="0 0 16 17" fill="none" xmlns="http://www.w3.org/2000/svg">
<path d="M12 3.33565H16V4.98859H14.4V15.7327C14.4 16.1891 14.0418 16.5591 13.6 16.5591H2.4C1.95818 16.5591 1.6 16.1891 1.6 15.7327V4.98859H0V3.33565H4V0.856253C4 0.399811 4.35818 0.0297852 4.8 0.0297852H11.2C11.6418 0.0297852 12 0.399811 12 0.856253V3.33565ZM12.8 4.98859H3.2V14.9062H12.8V4.98859ZM5.6 7.46799H7.2V12.4268H5.6V7.46799ZM8.8 7.46799H10.4V12.4268H8.8V7.46799ZM5.6 1.68272V3.33565H10.4V1.68272H5.6Z" fill="black"/>
</svg>
