<svg width="100" height="100" viewBox="0 0 100 100" fill="none" xmlns="http://www.w3.org/2000/svg">
<g id="empty_illustration">
<rect id="Rectangle" opacity="0.01" width="100" height="100" fill="white"/>
<g id="Illustration">
<ellipse id="oval" cx="50" cy="89.7259" rx="41.0959" ry="3.42466" fill="#F2F2F2"/>
<g id="List">
<path id="Path" d="M39.9164 11.8666C40.0385 10.569 39.6106 9.27994 38.74 8.3223C37.8693 7.36466 36.6383 6.82909 35.3552 6.84969H78.2074C79.4905 6.82909 80.7215 7.36466 81.5922 8.3223C82.4628 9.27994 82.8907 10.569 82.7686 11.8666H39.9164Z" fill="#E7E7E7" stroke="#E7E7E7" stroke-linejoin="round"/>
<path id="Path_2" d="M35.3661 6.84961C32.5903 6.89301 30.2945 9.05788 30.0459 11.8665L25.6553 70.3247C25.4084 73.1328 23.1138 75.298 20.3387 75.3416H63.191C65.9668 75.2982 68.2625 73.1333 68.5112 70.3247L72.9017 11.8665C73.1486 9.05846 75.4432 6.89319 78.2183 6.84961L35.3661 6.84961Z" fill="white" stroke="#E7E7E7"/>
<path id="Path_3" d="M58.6261 70.3247C58.504 71.6223 58.9319 72.9114 59.8025 73.869C60.6732 74.8267 61.9042 75.3622 63.1873 75.3416H20.3351C19.052 75.3622 17.821 74.8267 16.9503 73.869C16.0797 72.9114 15.6518 71.6223 15.7739 70.3247H58.6261Z" fill="#E7E7E7"/>
<path id="Path_4" d="M33.543 69.1699C33.7064 67.034 33.0455 65.3076 30.9465 65.3076H63.9427C66.0417 65.3076 67.6214 67.2591 66.5429 69.1699H33.543Z" fill="#E0E0E0"/>
<path id="Path_5" d="M58.6261 70.3249C58.8678 67.5124 61.1638 65.341 63.9427 65.2969H21.0905C18.3154 65.3405 16.0208 67.5057 15.7739 70.3138L58.6261 70.3249Z" fill="#E7E7E7"/>
<rect id="Rectangle_2" x="30.7165" y="57.0581" width="33.8944" height="2.95113" rx="1.47556" fill="#E7E7E7"/>
<rect id="Rectangle_3" x="31.2007" y="50.6641" width="33.8944" height="2.95113" rx="1.47556" fill="#E7E7E7"/>
<rect id="Rectangle_4" x="31.6849" y="44.27" width="33.8944" height="2.95113" rx="1.47556" fill="#E7E7E7"/>
<rect id="Rectangle_5" x="32.1691" y="37.876" width="33.8944" height="2.95113" rx="1.47556" fill="#E7E7E7"/>
<rect id="Rectangle_6" x="32.6533" y="31.4819" width="33.8944" height="2.95113" rx="1.47556" fill="#E7E7E7"/>
<rect id="Rectangle_7" x="33.1375" y="25.0879" width="33.8944" height="2.95113" rx="1.47556" fill="#E7E7E7"/>
<rect id="Rectangle_8" x="33.6217" y="18.6934" width="33.8944" height="2.95113" rx="1.47556" fill="#E7E7E7"/>
</g>
</g>
</g>
</svg>
