<svg width="23" height="20" viewBox="0 0 23 20" fill="none" xmlns="http://www.w3.org/2000/svg">
<path fill-rule="evenodd" clip-rule="evenodd" d="M22.4423 17.5606C22.4423 18.9081 21.3504 20 20.0029 20H2.43938C1.09187 20 0 18.9081 0 17.5606V3.4122C0 2.33448 0.873787 1.4607 1.95151 1.4607H11.7925L15.7438 0.0292676C15.9941 -0.0619653 16.2712 0.0673221 16.3624 0.316627L16.7786 1.4607H18.5393C19.617 1.4607 20.4908 2.33448 20.4908 3.4122V4.38796C21.5685 4.38796 22.4423 5.26174 22.4423 6.33946V17.5606ZM1.95151 2.43645C1.41289 2.43645 0.975753 2.87359 0.975753 3.4122C0.975753 3.95082 1.41289 4.38796 1.95151 4.38796H3.63224H3.72445C3.73079 4.38552 3.73469 4.38015 3.74104 4.37771L9.0989 2.43645H1.95151ZM16.138 2.52476L15.6199 1.0982L14.6187 1.4607H14.6202L11.93 2.43645H11.9252L6.5395 4.38796H16.8151L16.138 2.52476ZM19.5151 3.4122C19.5151 2.87359 19.0779 2.43645 18.5393 2.43645H17.1328L17.8421 4.38796H19.5151V3.4122ZM20.4908 5.36371H1.95151C1.59438 5.36371 1.2636 5.26077 0.975753 5.09294V17.5606C0.975753 18.369 1.63146 19.0242 2.43938 19.0242H20.0029C20.8113 19.0242 21.4666 18.369 21.4666 17.5606V14.1455H19.5151C18.4373 14.1455 17.5636 13.2717 17.5636 12.194C17.5636 11.1163 18.4373 10.2425 19.5151 10.2425H21.4666V6.33946C21.4666 5.80085 21.0294 5.36371 20.4908 5.36371ZM21.4666 13.1697V11.2182H19.5151C18.9764 11.2182 18.5393 11.6554 18.5393 12.194C18.5393 12.7326 18.9764 13.1697 19.5151 13.1697H21.4666ZM19.5151 11.7061H20.4908V12.6819H19.5151V11.7061Z" fill="black"/>
</svg>
