<svg width="16" height="16" viewBox="0 0 16 16" fill="none" xmlns="http://www.w3.org/2000/svg">
<path d="M7.9987 14.6668C4.3168 14.6668 1.33203 11.682 1.33203 8.00016C1.33203 4.31826 4.3168 1.3335 7.9987 1.3335C11.6806 1.3335 14.6654 4.31826 14.6654 8.00016C14.6654 11.682 11.6806 14.6668 7.9987 14.6668ZM7.9987 13.3335C10.9442 13.3335 13.332 10.9457 13.332 8.00016C13.332 5.05464 10.9442 2.66683 7.9987 2.66683C5.05318 2.66683 2.66536 5.05464 2.66536 8.00016C2.66536 10.9457 5.05318 13.3335 7.9987 13.3335ZM7.33376 10.6668L4.50536 7.83843L5.44817 6.89556L7.33376 8.78123L11.105 5.00998L12.0478 5.95278L7.33376 10.6668Z" fill="#5EC401"/>
</svg>
