<svg width="24" height="24" viewBox="0 0 24 24" fill="none" xmlns="http://www.w3.org/2000/svg">
<path fill-rule="evenodd" clip-rule="evenodd" d="M11.0287 15.0006C11.5806 14.9797 12.0449 15.4103 12.0657 15.9621C12.1127 17.2063 12.1786 18.1144 12.2435 18.7655C12.3074 19.4067 12.6945 19.7925 13.2341 19.8584C13.8703 19.9362 14.7678 19.9999 15.9995 19.9999C17.2312 19.9999 18.1287 19.9362 18.765 19.8584C19.3043 19.7925 19.6916 19.4065 19.7555 18.7652C19.8758 17.5567 19.9995 15.4687 19.9995 11.9999C19.9995 8.53106 19.8758 6.44309 19.7555 5.23455C19.6916 4.5932 19.3043 4.20724 18.765 4.14131C18.1287 4.06353 17.2312 3.99988 15.9995 3.99988C14.7678 3.99988 13.8703 4.06353 13.234 4.1413C12.6945 4.20726 12.3074 4.59305 12.2435 5.23425C12.1786 5.88533 12.1127 6.79341 12.0657 8.0376C12.0449 8.58949 11.5806 9.02 11.0287 8.99916C10.4768 8.97833 10.0463 8.51404 10.0671 7.96215C10.1153 6.68512 10.1837 5.7353 10.2534 5.03599C10.3998 3.56582 11.4248 2.34758 12.9914 2.15608C13.7206 2.06694 14.7003 1.99988 15.9995 1.99988C17.2987 1.99988 18.2785 2.06695 19.0077 2.15609C20.5743 2.34761 21.5992 3.56642 21.7456 5.0363C21.8745 6.33056 21.9995 8.48835 21.9995 11.9999C21.9995 15.5114 21.8745 17.6692 21.7456 18.9635C21.5992 20.4333 20.5743 21.6521 19.0077 21.8437C18.2785 21.9328 17.2987 21.9999 15.9995 21.9999C14.7003 21.9999 13.7206 21.9328 12.9914 21.8437C11.4248 21.6522 10.3998 20.4339 10.2534 18.9638C10.1837 18.2644 10.1153 17.3146 10.0671 16.0376C10.0463 15.4857 10.4768 15.0214 11.0287 15.0006Z" fill="#E93324"/>
<path fill-rule="evenodd" clip-rule="evenodd" d="M7.20613 14.7929C7.59665 15.1834 7.59665 15.8166 7.20613 16.2071C6.81561 16.5976 6.18244 16.5976 5.79192 16.2071L2.29192 12.7071C1.90139 12.3166 1.90139 11.6834 2.29192 11.2929L5.79192 7.79289C6.18244 7.40237 6.81561 7.40237 7.20613 7.79289C7.59665 8.18342 7.59665 8.81658 7.20613 9.20711L5.41324 11H14.999C15.5513 11 15.999 11.4477 15.999 12C15.999 12.5523 15.5513 13 14.999 13L5.41324 13L7.20613 14.7929Z" fill="#E93324"/>
</svg>
