<svg width="62" height="40" viewBox="0 0 62 40" fill="none" xmlns="http://www.w3.org/2000/svg">
<rect x="0.5" y="0.5" width="61" height="39" rx="9.5" fill="#F4F6FA" stroke="#D6D9E0"/>
<mask id="mask0_2885_17061" style="mask-type:luminance" maskUnits="userSpaceOnUse" x="0" y="0" width="62" height="40">
<rect x="0.5" y="0.5" width="61" height="39" rx="9.5" fill="white" stroke="white"/>
</mask>
<g mask="url(#mask0_2885_17061)">
</g>
<g clip-path="url(#clip0_2885_17061)">
<path d="M22.0545 13.7611L19.4159 14.3182L19.4037 22.94C19.4037 24.5324 20.6102 25.5617 22.2129 25.5617C23.1026 25.5617 23.7546 25.3982 24.1141 25.2045V23.158C23.7668 23.2973 22.0605 23.7938 22.0605 22.2074V18.3809H24.1141V16.0922H22.0605L22.0545 13.7611ZM27.484 16.8854L27.3195 16.0922H24.9795V25.368H27.679V19.1256C28.3188 18.29 29.3974 18.4535 29.7448 18.5625V16.0922C29.3791 15.965 28.1177 15.7289 27.484 16.8854ZM33.1085 12.5078L30.3907 13.083V15.2748L33.1085 14.6996V12.5078ZM14.7359 18.8229C14.7359 18.4051 15.0893 18.2416 15.656 18.2355C16.4787 18.2355 17.5268 18.4838 18.3495 18.9258V16.3949C17.4537 16.0437 16.5579 15.9045 15.6621 15.9045C13.4684 15.9045 12.0059 17.0428 12.0059 18.9439C12.0059 21.9229 16.1191 21.4385 16.1191 22.7221C16.1191 23.2186 15.6865 23.382 15.0832 23.382C14.1874 23.382 13.0296 23.0127 12.1216 22.5223V24.9441C13.1271 25.374 14.1448 25.5557 15.0771 25.5557C17.3257 25.5557 18.8735 24.599 18.8735 22.6615C18.8735 19.4586 14.7359 20.0338 14.7359 18.8229ZM50.9998 20.8391C50.9998 18.0842 49.6591 15.9105 47.0876 15.9105C44.516 15.9105 42.9499 18.0842 42.9499 20.8209C42.9499 24.0602 44.7963 25.5557 47.4288 25.5557C48.7207 25.5557 49.6896 25.265 50.427 24.8594V22.8371C49.6896 23.2064 48.8426 23.4305 47.7701 23.4305C46.7159 23.4305 45.7896 23.0611 45.6677 21.8018H50.9632C50.9754 21.6625 50.9998 21.0994 50.9998 20.8391ZM45.6434 19.8219C45.6434 18.6109 46.3929 18.1023 47.0693 18.1023C47.7335 18.1023 48.4404 18.6109 48.4404 19.8219H45.6434ZM38.7635 15.9105C37.7032 15.9105 37.0207 16.407 36.6429 16.7521L36.5027 16.0861H34.1201V28.4861L36.8257 27.917L36.8318 24.8775C37.2218 25.1621 37.8007 25.5557 38.7452 25.5557C40.683 25.5557 42.4502 24.151 42.4502 20.7361C42.4563 17.6119 40.6648 15.9105 38.7635 15.9105ZM38.1176 23.3275C37.4838 23.3275 37.106 23.0975 36.844 22.8189L36.8257 18.8229C37.106 18.5141 37.496 18.29 38.1176 18.29C39.1048 18.29 39.7873 19.392 39.7873 20.7967C39.7934 22.2437 39.123 23.3275 38.1176 23.3275ZM30.3968 25.368H33.1146V16.0922H30.3968V25.368Z" fill="black"/>
</g>
<defs>
<clipPath id="clip0_2885_17061">
<rect width="39" height="31" fill="white" transform="translate(12 5)"/>
</clipPath>
</defs>
</svg>
