<svg width="24" height="23" viewBox="0 0 24 23" fill="none" xmlns="http://www.w3.org/2000/svg">
<g clip-path="url(#clip0_195_331)">
<path d="M22.6 0.871582L13.5938 7.53556L15.2685 3.60826L22.6 0.871582Z" fill="#E17726" stroke="#E17726" stroke-width="0.25" stroke-linecap="round" stroke-linejoin="round"/>
<path d="M1.82596 0.871582L10.752 7.59775L9.15745 3.60825L1.82596 0.871582Z" fill="#E27625" stroke="#E27625" stroke-width="0.25" stroke-linecap="round" stroke-linejoin="round"/>
<path d="M19.3572 16.323L16.9609 19.9838L22.092 21.3965L23.5619 16.403L19.3572 16.323Z" fill="#E27625" stroke="#E27625" stroke-width="0.25" stroke-linecap="round" stroke-linejoin="round"/>
<path d="M0.872711 16.403L2.33365 21.3965L7.4559 19.9838L5.06848 16.323L0.872711 16.403Z" fill="#E27625" stroke="#E27625" stroke-width="0.25" stroke-linecap="round" stroke-linejoin="round"/>
<path d="M7.17972 10.1388L5.75443 12.2891L10.8321 12.5201L10.6629 7.05566L7.17972 10.1388Z" fill="#E27625" stroke="#E27625" stroke-width="0.25" stroke-linecap="round" stroke-linejoin="round"/>
<path d="M17.2459 10.139L13.7094 6.99365L13.5936 12.5203L18.6712 12.2893L17.2459 10.139Z" fill="#E27625" stroke="#E27625" stroke-width="0.25" stroke-linecap="round" stroke-linejoin="round"/>
<path d="M7.45596 19.9837L10.5293 18.4999L7.88357 16.4385L7.45596 19.9837Z" fill="#E27625" stroke="#E27625" stroke-width="0.25" stroke-linecap="round" stroke-linejoin="round"/>
<path d="M13.8966 18.4999L16.961 19.9837L16.5423 16.4385L13.8966 18.4999Z" fill="#E27625" stroke="#E27625" stroke-width="0.25" stroke-linecap="round" stroke-linejoin="round"/>
<path d="M16.961 19.9838L13.8966 18.5L14.146 20.4903L14.1193 21.3344L16.961 19.9838Z" fill="#D5BFB2" stroke="#D5BFB2" stroke-width="0.25" stroke-linecap="round" stroke-linejoin="round"/>
<path d="M7.45596 19.9838L10.3066 21.3344L10.2888 20.4903L10.5293 18.5L7.45596 19.9838Z" fill="#D5BFB2" stroke="#D5BFB2" stroke-width="0.25" stroke-linecap="round" stroke-linejoin="round"/>
<path d="M10.36 15.1235L7.81219 14.3771L9.61165 13.5508L10.36 15.1235Z" fill="#233447" stroke="#233447" stroke-width="0.25" stroke-linecap="round" stroke-linejoin="round"/>
<path d="M14.0659 15.1235L14.8142 13.5508L16.6225 14.3771L14.0659 15.1235Z" fill="#233447" stroke="#233447" stroke-width="0.25" stroke-linecap="round" stroke-linejoin="round"/>
<path d="M7.4559 19.9838L7.90134 16.323L5.06851 16.403L7.4559 19.9838Z" fill="#CC6228" stroke="#CC6228" stroke-width="0.25" stroke-linecap="round" stroke-linejoin="round"/>
<path d="M16.5244 16.323L16.9609 19.9838L19.3572 16.403L16.5244 16.323Z" fill="#CC6228" stroke="#CC6228" stroke-width="0.25" stroke-linecap="round" stroke-linejoin="round"/>
<path d="M18.6712 12.2891L13.5936 12.5201L14.0657 15.1235L14.814 13.5508L16.6224 14.3771L18.6712 12.2891Z" fill="#CC6228" stroke="#CC6228" stroke-width="0.25" stroke-linecap="round" stroke-linejoin="round"/>
<path d="M7.81222 14.3771L9.61167 13.5508L10.36 15.1235L10.8321 12.5201L5.75443 12.2891L7.81222 14.3771Z" fill="#CC6228" stroke="#CC6228" stroke-width="0.25" stroke-linecap="round" stroke-linejoin="round"/>
<path d="M5.75458 12.2891L7.88366 16.4385L7.81234 14.3771L5.75458 12.2891Z" fill="#E27525" stroke="#E27525" stroke-width="0.25" stroke-linecap="round" stroke-linejoin="round"/>
<path d="M16.6225 14.3771L16.5424 16.4385L18.6715 12.2891L16.6225 14.3771Z" fill="#E27525" stroke="#E27525" stroke-width="0.25" stroke-linecap="round" stroke-linejoin="round"/>
<path d="M10.8324 12.52L10.3602 15.1235L10.957 18.1977L11.0907 14.1461L10.8324 12.52Z" fill="#E27525" stroke="#E27525" stroke-width="0.25" stroke-linecap="round" stroke-linejoin="round"/>
<path d="M13.5937 12.52L13.3443 14.1372L13.469 18.1977L14.0658 15.1235L13.5937 12.52Z" fill="#E27525" stroke="#E27525" stroke-width="0.25" stroke-linecap="round" stroke-linejoin="round"/>
<path d="M14.0658 15.1236L13.469 18.1979L13.8966 18.5L16.5424 16.4386L16.6225 14.3772L14.0658 15.1236Z" fill="#F5841F" stroke="#F5841F" stroke-width="0.25" stroke-linecap="round" stroke-linejoin="round"/>
<path d="M7.81219 14.3772L7.88351 16.4386L10.5292 18.5L10.9568 18.1979L10.36 15.1236L7.81219 14.3772Z" fill="#F5841F" stroke="#F5841F" stroke-width="0.25" stroke-linecap="round" stroke-linejoin="round"/>
<path d="M14.1193 21.3345L14.146 20.4904L13.9144 20.2949H10.5115L10.2888 20.4904L10.3066 21.3345L7.45596 19.9839L8.45368 20.8013L10.4758 22.1963H13.9411L15.9722 20.8013L16.961 19.9839L14.1193 21.3345Z" fill="#C0AC9D" stroke="#C0AC9D" stroke-width="0.25" stroke-linecap="round" stroke-linejoin="round"/>
<path d="M13.8965 18.4998L13.4689 18.1978H10.9568L10.5293 18.4998L10.2887 20.4902L10.5114 20.2947H13.9144L14.146 20.4902L13.8965 18.4998Z" fill="#161616" stroke="#161616" stroke-width="0.25" stroke-linecap="round" stroke-linejoin="round"/>
<path d="M22.9829 7.97092L23.7402 4.29243L22.5999 0.871582L13.8966 7.31346L17.246 10.1389L21.9763 11.5162L23.0186 10.2989L22.5643 9.97012L23.2858 9.31266L22.7335 8.88614L23.4551 8.33524L22.9829 7.97092Z" fill="#763E1A" stroke="#763E1A" stroke-width="0.25" stroke-linecap="round" stroke-linejoin="round"/>
<path d="M0.685699 4.29243L1.45181 7.97092L0.961857 8.33524L1.69233 8.88614L1.14002 9.31266L1.86158 9.97012L1.40726 10.2989L2.44953 11.5162L7.17983 10.1389L10.5293 7.31346L1.82595 0.871582L0.685699 4.29243Z" fill="#763E1A" stroke="#763E1A" stroke-width="0.25" stroke-linecap="round" stroke-linejoin="round"/>
<path d="M21.9764 11.5161L17.2461 10.1389L18.6715 12.2892L16.5424 16.4386L19.3574 16.4031H23.562L21.9764 11.5161Z" fill="#F5841F" stroke="#F5841F" stroke-width="0.25" stroke-linecap="round" stroke-linejoin="round"/>
<path d="M7.1797 10.1389L2.44946 11.5161L0.872711 16.4031H5.06848L7.88345 16.4386L5.75441 12.2892L7.1797 10.1389Z" fill="#F5841F" stroke="#F5841F" stroke-width="0.25" stroke-linecap="round" stroke-linejoin="round"/>
<path d="M13.5937 12.5201L13.8966 7.3133L15.2684 3.60815H9.15738L10.5292 7.3133L10.8321 12.5201L10.9479 14.155L10.9568 18.1978H13.4689L13.4779 14.155L13.5937 12.5201Z" fill="#F5841F" stroke="#F5841F" stroke-width="0.25" stroke-linecap="round" stroke-linejoin="round"/>
</g>
<defs>
<clipPath id="clip0_195_331">
<rect width="24" height="22.6286" fill="white" transform="translate(0 0.185791)"/>
</clipPath>
</defs>
</svg>
