<svg width="79" height="14" viewBox="0 0 79 14" fill="none" xmlns="http://www.w3.org/2000/svg">
<path d="M5.122 10.091C4.264 10.091 3.47533 9.89167 2.756 9.493C2.03667 9.08567 1.46467 8.52667 1.04 7.816C0.624 7.09667 0.416 6.28633 0.416 5.385C0.416 4.48367 0.624 3.67767 1.04 2.967C1.46467 2.24767 2.03667 1.68867 2.756 1.29C3.47533 0.891333 4.264 0.692 5.122 0.692C5.98867 0.692 6.77733 0.891333 7.488 1.29C8.20733 1.68867 8.775 2.24767 9.191 2.967C9.607 3.67767 9.815 4.48367 9.815 5.385C9.815 6.28633 9.607 7.09667 9.191 7.816C8.775 8.52667 8.20733 9.08567 7.488 9.493C6.76867 9.89167 5.98 10.091 5.122 10.091ZM5.122 7.725C5.772 7.725 6.28333 7.51267 6.656 7.088C7.03733 6.66333 7.228 6.09567 7.228 5.385C7.228 4.657 7.03733 4.085 6.656 3.669C6.28333 3.24433 5.772 3.032 5.122 3.032C4.46333 3.032 3.94767 3.24433 3.575 3.669C3.20233 4.085 3.016 4.657 3.016 5.385C3.016 6.10433 3.20233 6.67633 3.575 7.101C3.94767 7.517 4.46333 7.725 5.122 7.725ZM13.5084 3.721C13.7078 3.383 13.9894 3.11433 14.3534 2.915C14.7174 2.71567 15.1464 2.616 15.6404 2.616C16.2211 2.616 16.7454 2.76767 17.2134 3.071C17.6901 3.37433 18.0628 3.80767 18.3314 4.371C18.6088 4.93433 18.7474 5.593 18.7474 6.347C18.7474 7.101 18.6088 7.764 18.3314 8.336C18.0628 8.89933 17.6901 9.33267 17.2134 9.636C16.7454 9.93933 16.2211 10.091 15.6404 10.091C15.1464 10.091 14.7174 9.99133 14.3534 9.792C13.9981 9.59267 13.7164 9.324 13.5084 8.986V13.484H10.9604V2.707H13.5084V3.721ZM16.1604 6.347C16.1604 5.87033 16.0304 5.502 15.7704 5.242C15.5191 4.97333 15.2071 4.839 14.8344 4.839C14.4618 4.839 14.1454 4.97333 13.8854 5.242C13.6341 5.51067 13.5084 5.879 13.5084 6.347C13.5084 6.82367 13.6341 7.19633 13.8854 7.465C14.1454 7.73367 14.4618 7.868 14.8344 7.868C15.2071 7.868 15.5191 7.73367 15.7704 7.465C16.0304 7.18767 16.1604 6.815 16.1604 6.347ZM26.7644 6.269C26.7644 6.46833 26.7514 6.66767 26.7254 6.867H21.9024C21.9284 7.26567 22.0367 7.56467 22.2274 7.764C22.4267 7.95467 22.678 8.05 22.9814 8.05C23.406 8.05 23.7094 7.85933 23.8914 7.478H26.6084C26.4957 7.98067 26.2747 8.43133 25.9454 8.83C25.6247 9.22 25.2174 9.52767 24.7234 9.753C24.2294 9.97833 23.6834 10.091 23.0854 10.091C22.366 10.091 21.7247 9.93933 21.1614 9.636C20.6067 9.33267 20.169 8.89933 19.8484 8.336C19.5364 7.77267 19.3804 7.10967 19.3804 6.347C19.3804 5.58433 19.5364 4.92567 19.8484 4.371C20.1604 3.80767 20.5937 3.37433 21.1484 3.071C21.7117 2.76767 22.3574 2.616 23.0854 2.616C23.8047 2.616 24.4417 2.76333 24.9964 3.058C25.551 3.35267 25.9844 3.77733 26.2964 4.332C26.6084 4.878 26.7644 5.52367 26.7644 6.269ZM24.1644 5.632C24.1644 5.32 24.0604 5.07733 23.8524 4.904C23.6444 4.722 23.3844 4.631 23.0724 4.631C22.7604 4.631 22.5047 4.71767 22.3054 4.891C22.106 5.05567 21.976 5.30267 21.9154 5.632H24.1644ZM32.5781 2.642C33.4188 2.642 34.0861 2.92367 34.5801 3.487C35.0741 4.04167 35.3211 4.79567 35.3211 5.749V10H32.7731V6.087C32.7731 5.671 32.6648 5.346 32.4481 5.112C32.2314 4.86933 31.9411 4.748 31.5771 4.748C31.1958 4.748 30.8968 4.86933 30.6801 5.112C30.4634 5.346 30.3551 5.671 30.3551 6.087V10H27.8071V2.707H30.3551V3.747C30.5804 3.41767 30.8838 3.15333 31.2651 2.954C31.6464 2.746 32.0841 2.642 32.5781 2.642ZM42.6655 10.091C41.5995 10.091 40.7242 9.83967 40.0395 9.337C39.3548 8.82567 38.9865 8.09767 38.9345 7.153H41.6515C41.6775 7.47367 41.7728 7.70767 41.9375 7.855C42.1022 8.00233 42.3145 8.076 42.5745 8.076C42.8085 8.076 42.9992 8.01967 43.1465 7.907C43.3025 7.78567 43.3805 7.621 43.3805 7.413C43.3805 7.14433 43.2548 6.93633 43.0035 6.789C42.7522 6.64167 42.3448 6.477 41.7815 6.295C41.1835 6.09567 40.6982 5.905 40.3255 5.723C39.9615 5.53233 39.6408 5.25933 39.3635 4.904C39.0948 4.54 38.9605 4.06767 38.9605 3.487C38.9605 2.89767 39.1078 2.395 39.4025 1.979C39.6972 1.55433 40.1045 1.23367 40.6245 1.017C41.1445 0.800333 41.7338 0.692 42.3925 0.692C43.4585 0.692 44.3078 0.943333 44.9405 1.446C45.5818 1.94 45.9242 2.63767 45.9675 3.539H43.1985C43.1898 3.26167 43.1032 3.05367 42.9385 2.915C42.7825 2.77633 42.5788 2.707 42.3275 2.707C42.1368 2.707 41.9808 2.76333 41.8595 2.876C41.7382 2.98867 41.6775 3.149 41.6775 3.357C41.6775 3.53033 41.7425 3.682 41.8725 3.812C42.0112 3.93333 42.1802 4.04167 42.3795 4.137C42.5788 4.22367 42.8735 4.33633 43.2635 4.475C43.8442 4.67433 44.3208 4.87367 44.6935 5.073C45.0748 5.26367 45.3998 5.53667 45.6685 5.892C45.9458 6.23867 46.0845 6.68067 46.0845 7.218C46.0845 7.764 45.9458 8.25367 45.6685 8.687C45.3998 9.12033 45.0055 9.46267 44.4855 9.714C43.9742 9.96533 43.3675 10.091 42.6655 10.091ZM49.817 3.721C50.0163 3.383 50.298 3.11433 50.662 2.915C51.026 2.71567 51.455 2.616 51.949 2.616C52.5297 2.616 53.054 2.76767 53.522 3.071C53.9987 3.37433 54.3713 3.80767 54.64 4.371C54.9173 4.93433 55.056 5.593 55.056 6.347C55.056 7.101 54.9173 7.764 54.64 8.336C54.3713 8.89933 53.9987 9.33267 53.522 9.636C53.054 9.93933 52.5297 10.091 51.949 10.091C51.455 10.091 51.026 9.99133 50.662 9.792C50.3067 9.59267 50.025 9.324 49.817 8.986V13.484H47.269V2.707H49.817V3.721ZM52.469 6.347C52.469 5.87033 52.339 5.502 52.079 5.242C51.8277 4.97333 51.5157 4.839 51.143 4.839C50.7703 4.839 50.454 4.97333 50.194 5.242C49.9427 5.51067 49.817 5.879 49.817 6.347C49.817 6.82367 49.9427 7.19633 50.194 7.465C50.454 7.73367 50.7703 7.868 51.143 7.868C51.5157 7.868 51.8277 7.73367 52.079 7.465C52.339 7.18767 52.469 6.815 52.469 6.347ZM55.689 6.347C55.689 5.593 55.8233 4.93433 56.092 4.371C56.3693 3.80767 56.742 3.37433 57.21 3.071C57.6866 2.76767 58.2153 2.616 58.796 2.616C59.2986 2.616 59.732 2.71567 60.096 2.915C60.46 3.11433 60.7416 3.383 60.941 3.721V2.707H63.489V10H60.941V8.986C60.7416 9.324 60.4556 9.59267 60.083 9.792C59.719 9.99133 59.29 10.091 58.796 10.091C58.2153 10.091 57.6866 9.93933 57.21 9.636C56.742 9.33267 56.3693 8.89933 56.092 8.336C55.8233 7.764 55.689 7.101 55.689 6.347ZM60.941 6.347C60.941 5.879 60.811 5.51067 60.551 5.242C60.2996 4.97333 59.9876 4.839 59.615 4.839C59.2336 4.839 58.9173 4.97333 58.666 5.242C58.4146 5.502 58.289 5.87033 58.289 6.347C58.289 6.815 58.4146 7.18767 58.666 7.465C58.9173 7.73367 59.2336 7.868 59.615 7.868C59.9876 7.868 60.2996 7.73367 60.551 7.465C60.811 7.19633 60.941 6.82367 60.941 6.347ZM67.4889 3.994C67.7749 3.578 68.1216 3.24867 68.5289 3.006C68.9362 2.76333 69.3739 2.642 69.8419 2.642V5.359H69.1269C68.5722 5.359 68.1606 5.46733 67.8919 5.684C67.6232 5.90067 67.4889 6.27767 67.4889 6.815V10H64.9409V2.707H67.4889V3.994ZM75.3183 10L73.3033 7.01V10H70.7553V0.38H73.3033V5.567L75.3183 2.707H78.3733L75.5003 6.373L78.4253 10H75.3183Z" fill="#4498E8"/>
</svg>
