<svg width="23" height="23" viewBox="0 0 23 23" fill="none" xmlns="http://www.w3.org/2000/svg">
<g clip-path="url(#clip0_195_366)">
<path d="M11.592 0.11505C5.24399 0.0690504 0.0689894 5.24405 0.114989 11.5921C0.160989 17.7791 5.22099 22.816 11.408 22.885C17.779 22.931 22.954 17.7561 22.885 11.4081C22.839 5.22105 17.779 0.16105 11.592 0.11505Z" fill="#2081E2"/>
<path d="M8.188 5.95703C8.901 6.85403 9.315 7.98103 9.315 9.22303C9.315 10.281 8.993 11.27 8.464 12.098H4.646L8.188 5.95703Z" fill="white"/>
<path d="M19.849 13.455C19.849 13.501 19.826 13.547 19.78 13.57C19.527 13.685 18.676 14.076 18.308 14.582C17.388 15.847 16.698 17.871 15.134 17.871H8.579C6.256 17.871 4.32401 16.031 4.34701 13.593C4.34701 13.524 4.39301 13.478 4.46201 13.478H7.54401C7.65901 13.478 7.728 13.57 7.728 13.662V14.26C7.728 14.582 7.981 14.835 8.303 14.835H10.649V13.478H9.039C9.959 12.305 10.511 10.833 10.511 9.22301C10.511 7.42901 9.821 5.79601 8.69401 4.57701C9.38401 4.64601 10.028 4.78401 10.626 4.96801V4.57701C10.626 4.18601 10.948 3.86401 11.339 3.86401C11.73 3.86401 12.052 4.18601 12.052 4.57701V5.49701C14.237 6.50901 15.686 8.21101 15.686 10.143C15.686 11.27 15.203 12.328 14.352 13.202C14.191 13.363 13.961 13.455 13.731 13.455H12.075V14.812H14.145C14.582 14.812 15.387 13.961 15.778 13.455C15.778 13.455 15.801 13.432 15.847 13.409C15.893 13.386 19.665 12.535 19.665 12.535C19.734 12.512 19.826 12.581 19.826 12.65L19.849 13.455Z" fill="white"/>
</g>
<defs>
<clipPath id="clip0_195_366">
<rect width="23" height="23" fill="white"/>
</clipPath>
</defs>
</svg>
