<svg width="21" height="21" viewBox="0 0 21 21" fill="none" xmlns="http://www.w3.org/2000/svg">
<path d="M10.2857 19.125H2.17928C3.12239 17.9278 3.63317 16.4471 3.62871 14.923V1.875H16.1347V8.75577C16.1347 8.85108 16.1726 8.94249 16.24 9.00989C16.3074 9.07728 16.3988 9.11514 16.4941 9.11514C16.5894 9.11514 16.6808 9.07728 16.7482 9.00989C16.8156 8.94249 16.8535 8.85108 16.8535 8.75577V1.51562C16.8535 1.46843 16.8442 1.42169 16.8261 1.37808C16.8081 1.33448 16.7816 1.29485 16.7482 1.26148C16.7149 1.22811 16.6752 1.20164 16.6316 1.18358C16.588 1.16552 16.5413 1.15624 16.4941 1.15625H3.26934C3.22214 1.15624 3.1754 1.16552 3.13179 1.18358C3.08819 1.20164 3.04856 1.22811 3.01519 1.26148C2.98182 1.29485 2.95535 1.33448 2.93729 1.37808C2.91923 1.42169 2.90995 1.46843 2.90996 1.51562V14.923C2.91217 15.7233 2.75565 16.516 2.44944 17.2553C2.14324 17.9947 1.69343 18.666 1.12607 19.2303C1.0758 19.2805 1.04157 19.3446 1.0277 19.4143C1.01383 19.484 1.02095 19.5562 1.04815 19.6219C1.07534 19.6876 1.1214 19.7437 1.1805 19.7832C1.2396 19.8227 1.30908 19.8438 1.38016 19.8438H10.2857C10.3811 19.8438 10.4725 19.8059 10.5399 19.7385C10.6073 19.6711 10.6451 19.5797 10.6451 19.4844C10.6451 19.3891 10.6073 19.2977 10.5399 19.2303C10.4725 19.1629 10.3811 19.125 10.2857 19.125Z" fill="black" stroke="black" stroke-width="0.5"/>
<path d="M14.0037 5.68262H5.75967C5.66436 5.68262 5.57295 5.72048 5.50555 5.78788C5.43816 5.85527 5.4003 5.94668 5.4003 6.04199C5.4003 6.1373 5.43816 6.22871 5.50555 6.29611C5.57295 6.3635 5.66436 6.40137 5.75967 6.40137H14.0037C14.099 6.40137 14.1905 6.3635 14.2578 6.29611C14.3252 6.22871 14.3631 6.1373 14.3631 6.04199C14.3631 5.94668 14.3252 5.85527 14.2578 5.78788C14.1905 5.72048 14.099 5.68262 14.0037 5.68262Z" fill="black" stroke="black" stroke-width="0.5"/>
<path d="M14.3631 8.47705C14.3631 8.42985 14.3538 8.38312 14.3358 8.33951C14.3177 8.2959 14.2913 8.25628 14.2579 8.22291C14.2245 8.18953 14.1849 8.16306 14.1413 8.14501C14.0977 8.12695 14.0509 8.11766 14.0037 8.11768H5.75967C5.66436 8.11768 5.57295 8.15554 5.50555 8.22293C5.43816 8.29033 5.4003 8.38174 5.4003 8.47705C5.4003 8.57236 5.43816 8.66377 5.50555 8.73117C5.57295 8.79856 5.66436 8.83643 5.75967 8.83643H14.0037C14.0509 8.83644 14.0977 8.82715 14.1413 8.8091C14.1849 8.79104 14.2245 8.76457 14.2579 8.73119C14.2913 8.69782 14.3177 8.6582 14.3358 8.61459C14.3538 8.57099 14.3631 8.52425 14.3631 8.47705Z" fill="black" stroke="black" stroke-width="0.5"/>
<path d="M10.7799 10.9121C10.7799 10.8649 10.7706 10.8182 10.7526 10.7746C10.7345 10.731 10.708 10.6913 10.6747 10.658C10.6413 10.6246 10.6017 10.5981 10.5581 10.5801C10.5144 10.562 10.4677 10.5527 10.4205 10.5527H5.75969C5.66438 10.5527 5.57297 10.5906 5.50557 10.658C5.43818 10.7254 5.40031 10.8168 5.40031 10.9121C5.40031 11.0074 5.43818 11.0988 5.50557 11.1662C5.57297 11.2336 5.66438 11.2715 5.75969 11.2715H10.4205C10.4677 11.2715 10.5144 11.2622 10.5581 11.2442C10.6017 11.2261 10.6413 11.1996 10.6747 11.1663C10.708 11.1329 10.7345 11.0933 10.7526 11.0497C10.7706 11.006 10.7799 10.9593 10.7799 10.9121Z" fill="black" stroke="black" stroke-width="0.5"/>
<path d="M5.75969 12.9873C5.66438 12.9873 5.57297 13.0252 5.50557 13.0926C5.43818 13.16 5.40031 13.2514 5.40031 13.3467C5.40031 13.442 5.43818 13.5334 5.50557 13.6008C5.57297 13.6682 5.66438 13.7061 5.75969 13.7061H8.69102C8.78633 13.7061 8.87774 13.6682 8.94513 13.6008C9.01253 13.5334 9.05039 13.442 9.05039 13.3467C9.05039 13.2514 9.01253 13.16 8.94513 13.0926C8.87774 13.0252 8.78633 12.9873 8.69102 12.9873H5.75969Z" fill="black" stroke="black" stroke-width="0.5"/>
<path d="M18.6186 11.9131C18.0175 11.3109 17.2624 10.8856 16.4359 10.6836C15.6095 10.4815 14.7433 10.5105 13.9322 10.7674C13.1211 11.0244 12.3962 11.4993 11.8368 12.1404C11.2774 12.7814 10.9049 13.5639 10.7601 14.4023L10.4746 14.1167C10.4072 14.0493 10.3158 14.0115 10.2205 14.0115C10.1252 14.0115 10.0338 14.0493 9.96638 14.1167C9.89899 14.1841 9.86113 14.2755 9.86113 14.3708C9.86113 14.4661 9.89899 14.5575 9.96638 14.6249L10.7933 15.4518C10.8609 15.5191 10.9523 15.5568 11.0477 15.5568C11.143 15.5568 11.2344 15.5191 11.302 15.4518L12.1291 14.6249C12.1965 14.5575 12.2344 14.4661 12.2344 14.3708C12.2344 14.2755 12.1965 14.1841 12.1291 14.1167C12.0617 14.0493 11.9703 14.0115 11.875 14.0115C11.7797 14.0115 11.6883 14.0493 11.6209 14.1167L11.5393 14.1983C11.7603 13.3628 12.251 12.6236 12.9352 12.0955C13.6194 11.5675 14.4588 11.2801 15.3231 11.2781C16.1873 11.276 17.0281 11.5594 17.7148 12.0843C18.4014 12.6091 18.8956 13.346 19.1205 14.1805C19.3454 15.015 19.2885 15.9004 18.9585 16.6992C18.6286 17.498 18.0441 18.1655 17.2959 18.5981C16.5476 19.0306 15.6775 19.204 14.8206 19.0913C13.9637 18.9786 13.168 18.5861 12.5571 17.9747C12.4897 17.9074 12.3983 17.8695 12.303 17.8695C12.2077 17.8695 12.1163 17.9074 12.0489 17.9747C11.9815 18.0421 11.9437 18.1335 11.9437 18.2288C11.9437 18.3241 11.9815 18.4155 12.0489 18.4829C12.9203 19.3534 14.1017 19.8422 15.3334 19.8419C16.565 19.8416 17.7462 19.3522 18.6171 18.4813C19.488 17.6103 19.9774 16.4292 19.9777 15.1975C19.978 13.9658 19.4891 12.7844 18.6186 11.9131Z" fill="black" stroke="black" stroke-width="0.5"/>
<path d="M15.3338 12.0864C15.2866 12.0864 15.2399 12.0957 15.1963 12.1138C15.1527 12.1318 15.1131 12.1583 15.0797 12.1917C15.0463 12.225 15.0199 12.2647 15.0018 12.3083C14.9837 12.3519 14.9745 12.3986 14.9745 12.4458V15.198C14.975 15.2933 15.0129 15.3847 15.0801 15.4524L16.3825 16.7548C16.45 16.8215 16.5412 16.8587 16.6361 16.8584C16.731 16.8581 16.8219 16.8203 16.889 16.7532C16.9561 16.6861 16.994 16.5951 16.9943 16.5002C16.9946 16.4053 16.9573 16.3142 16.8907 16.2466L15.6932 15.0492V12.4458C15.6932 12.3986 15.6839 12.3519 15.6659 12.3083C15.6478 12.2647 15.6214 12.225 15.588 12.1917C15.5546 12.1583 15.515 12.1318 15.4714 12.1138C15.4278 12.0957 15.381 12.0864 15.3338 12.0864Z" fill="black" stroke="black" stroke-width="0.5"/>
</svg>
