<svg width="16" height="16" viewBox="0 0 16 16" fill="none" xmlns="http://www.w3.org/2000/svg">
<g clip-path="url(#clip0_893_4911)">
<path d="M9 1C7.61553 1 6.26216 1.41054 5.11101 2.17971C3.95987 2.94888 3.06266 4.04213 2.53285 5.32122C2.00303 6.6003 1.86441 8.00776 2.13451 9.36563C2.4046 10.7235 3.07129 11.9708 4.05026 12.9497C5.02922 13.9287 6.2765 14.5954 7.63437 14.8655C8.99224 15.1356 10.3997 14.997 11.6788 14.4672C12.9579 13.9373 14.0511 13.0401 14.8203 11.889C15.5895 10.7378 16 9.38447 16 8C15.9979 6.14413 15.2597 4.36486 13.9474 3.05256C12.6351 1.74026 10.8559 1.00209 9 1ZM9 14C7.4087 14 5.88258 13.3679 4.75736 12.2426C3.63214 11.1174 3 9.5913 3 8C3 6.4087 3.63214 4.88258 4.75736 3.75736C5.88258 2.63214 7.4087 2 9 2V8L13.2406 12.2407C12.6845 12.7988 12.0236 13.2415 11.2958 13.5434C10.5681 13.8453 9.78788 14.0005 9 14Z" fill="#FDC025"/>
</g>
<defs>
<clipPath id="clip0_893_4911">
<rect width="16" height="16" fill="white"/>
</clipPath>
</defs>
</svg>
