<svg width="15" height="14" viewBox="0 0 15 14" fill="none" xmlns="http://www.w3.org/2000/svg">
<path d="M7.42188 0C5.97251 0 4.55569 0.410543 3.35059 1.17971C2.14549 1.94888 1.20622 3.04213 0.651574 4.32122C0.0969252 5.6003 -0.0481962 7.00776 0.234561 8.36563C0.517318 9.7235 1.21525 10.9708 2.24011 11.9497C3.26497 12.9287 4.57072 13.5954 5.99223 13.8655C7.41375 14.1356 8.88719 13.997 10.2262 13.4672C11.5653 12.9373 12.7098 12.0401 13.515 10.889C14.3202 9.73785 14.75 8.38447 14.75 7C14.7478 5.14413 13.975 3.36486 12.6012 2.05256C11.2274 0.74026 9.36475 0.00209095 7.42188 0ZM7.42188 13C5.75599 13 4.15833 12.3679 2.98036 11.2426C1.8024 10.1174 1.14063 8.5913 1.14063 7C1.14063 5.4087 1.8024 3.88258 2.98036 2.75736C4.15833 1.63214 5.75599 1 7.42188 1V7L11.8613 11.2407C11.2791 11.7988 10.5872 12.2415 9.82531 12.5434C9.06347 12.8453 8.24669 13.0005 7.42188 13Z" fill="#FDC025"/>
</svg>
