<svg width="19" height="18" viewBox="0 0 19 18" fill="none" xmlns="http://www.w3.org/2000/svg">
<path d="M18.3587 16.2977L15.0085 13.0912C17.6244 9.86211 17.3492 5.26331 14.3425 2.36596C12.7593 0.840459 10.6471 0 8.39893 0C6.14967 0 4.03847 0.840503 2.4554 2.36596C0.872229 3.89146 0 5.92673 0 8.093C0 10.2603 0.872275 12.2946 2.4554 13.82C4.03856 15.3455 6.15077 16.186 8.39893 16.186C10.2582 16.186 12.0943 15.5891 13.5626 14.4609L16.8904 17.7123C17.0965 17.911 17.3493 18 17.6246 18C17.8998 18 18.1526 17.8894 18.3588 17.7123C18.772 17.3366 18.772 16.6956 18.3588 16.2974L18.3587 16.2977ZM14.7334 8.093C14.7334 9.72907 14.0682 11.2555 12.8741 12.4052C11.6809 13.5549 10.0744 14.1968 8.39886 14.1968C6.7233 14.1968 5.11681 13.5558 3.92366 12.4052C2.73045 11.2555 2.06436 9.70753 2.06436 8.093C2.06436 6.45693 2.72953 4.9305 3.92366 3.7808C5.11686 2.63106 6.7233 1.98923 8.39886 1.98923C10.0968 1.98923 11.6809 2.63018 12.8741 3.7808C14.0673 4.93141 14.7334 6.45702 14.7334 8.093Z" fill="#8D8D8D"/>
</svg>
