<svg width="141" height="162" viewBox="0 0 141 162" fill="none" xmlns="http://www.w3.org/2000/svg">
<path d="M12.64 146.28C10.5867 146.28 8.74667 145.947 7.12 145.28C5.49333 144.613 4.18667 143.627 3.2 142.32C2.24 141.013 1.73333 139.44 1.68 137.6H8.96C9.06667 138.64 9.42667 139.44 10.04 140C10.6533 140.533 11.4533 140.8 12.44 140.8C13.4533 140.8 14.2533 140.573 14.84 140.12C15.4267 139.64 15.72 138.987 15.72 138.16C15.72 137.467 15.48 136.893 15 136.44C14.5467 135.987 13.9733 135.613 13.28 135.32C12.6133 135.027 11.6533 134.693 10.4 134.32C8.58667 133.76 7.10667 133.2 5.96 132.64C4.81333 132.08 3.82667 131.253 3 130.16C2.17333 129.067 1.76 127.64 1.76 125.88C1.76 123.267 2.70667 121.227 4.6 119.76C6.49333 118.267 8.96 117.52 12 117.52C15.0933 117.52 17.5867 118.267 19.48 119.76C21.3733 121.227 22.3867 123.28 22.52 125.92H15.12C15.0667 125.013 14.7333 124.307 14.12 123.8C13.5067 123.267 12.72 123 11.76 123C10.9333 123 10.2667 123.227 9.76 123.68C9.25333 124.107 9 124.733 9 125.56C9 126.467 9.42667 127.173 10.28 127.68C11.1333 128.187 12.4667 128.733 14.28 129.32C16.0933 129.933 17.56 130.52 18.68 131.08C19.8267 131.64 20.8133 132.453 21.64 133.52C22.4667 134.587 22.88 135.96 22.88 137.64C22.88 139.24 22.4667 140.693 21.64 142C20.84 143.307 19.6667 144.347 18.12 145.12C16.5733 145.893 14.7467 146.28 12.64 146.28ZM37.2494 146.32C35.0627 146.32 33.0894 145.853 31.3294 144.92C29.596 143.987 28.2227 142.653 27.2094 140.92C26.2227 139.187 25.7294 137.16 25.7294 134.84C25.7294 132.547 26.236 130.533 27.2494 128.8C28.2627 127.04 29.6494 125.693 31.4094 124.76C33.1694 123.827 35.1427 123.36 37.3294 123.36C39.516 123.36 41.4894 123.827 43.2494 124.76C45.0094 125.693 46.396 127.04 47.4094 128.8C48.4227 130.533 48.9294 132.547 48.9294 134.84C48.9294 137.133 48.4094 139.16 47.3694 140.92C46.356 142.653 44.956 143.987 43.1694 144.92C41.4094 145.853 39.436 146.32 37.2494 146.32ZM37.2494 140.4C38.556 140.4 39.6627 139.92 40.5694 138.96C41.5027 138 41.9694 136.627 41.9694 134.84C41.9694 133.053 41.516 131.68 40.6094 130.72C39.7294 129.76 38.636 129.28 37.3294 129.28C35.996 129.28 34.8894 129.76 34.0094 130.72C33.1294 131.653 32.6894 133.027 32.6894 134.84C32.6894 136.627 33.116 138 33.9694 138.96C34.8494 139.92 35.9427 140.4 37.2494 140.4ZM59.3981 116.4V146H52.5581V116.4H59.3981ZM62.995 134.8C62.995 132.507 63.4217 130.493 64.275 128.76C65.155 127.027 66.3417 125.693 67.835 124.76C69.3283 123.827 70.995 123.36 72.835 123.36C74.4083 123.36 75.7817 123.68 76.955 124.32C78.155 124.96 79.075 125.8 79.715 126.84V123.68H86.555V146H79.715V142.84C79.0483 143.88 78.115 144.72 76.915 145.36C75.7417 146 74.3683 146.32 72.795 146.32C70.9817 146.32 69.3283 145.853 67.835 144.92C66.3417 143.96 65.155 142.613 64.275 140.88C63.4217 139.12 62.995 137.093 62.995 134.8ZM79.715 134.84C79.715 133.133 79.235 131.787 78.275 130.8C77.3417 129.813 76.195 129.32 74.835 129.32C73.475 129.32 72.315 129.813 71.355 130.8C70.4217 131.76 69.955 133.093 69.955 134.8C69.955 136.507 70.4217 137.867 71.355 138.88C72.315 139.867 73.475 140.36 74.835 140.36C76.195 140.36 77.3417 139.867 78.275 138.88C79.235 137.893 79.715 136.547 79.715 134.84ZM98.3434 127.4C99.1434 126.173 100.143 125.213 101.343 124.52C102.543 123.8 103.877 123.44 105.343 123.44V130.68H103.463C101.757 130.68 100.477 131.053 99.6234 131.8C98.7701 132.52 98.3434 133.8 98.3434 135.64V146H91.5034V123.68H98.3434V127.4ZM112.053 121.36C110.853 121.36 109.866 121.013 109.093 120.32C108.346 119.6 107.973 118.72 107.973 117.68C107.973 116.613 108.346 115.733 109.093 115.04C109.866 114.32 110.853 113.96 112.053 113.96C113.226 113.96 114.186 114.32 114.933 115.04C115.706 115.733 116.093 116.613 116.093 117.68C116.093 118.72 115.706 119.6 114.933 120.32C114.186 121.013 113.226 121.36 112.053 121.36ZM115.453 123.68V146H108.613V123.68H115.453ZM129.49 146.32C127.543 146.32 125.81 145.987 124.29 145.32C122.77 144.653 121.57 143.747 120.69 142.6C119.81 141.427 119.316 140.12 119.21 138.68H125.97C126.05 139.453 126.41 140.08 127.05 140.56C127.69 141.04 128.476 141.28 129.41 141.28C130.263 141.28 130.916 141.12 131.37 140.8C131.85 140.453 132.09 140.013 132.09 139.48C132.09 138.84 131.756 138.373 131.09 138.08C130.423 137.76 129.343 137.413 127.85 137.04C126.25 136.667 124.916 136.28 123.85 135.88C122.783 135.453 121.863 134.8 121.09 133.92C120.316 133.013 119.93 131.8 119.93 130.28C119.93 129 120.276 127.84 120.97 126.8C121.69 125.733 122.73 124.893 124.09 124.28C125.476 123.667 127.116 123.36 129.01 123.36C131.81 123.36 134.01 124.053 135.61 125.44C137.236 126.827 138.17 128.667 138.41 130.96H132.09C131.983 130.187 131.636 129.573 131.05 129.12C130.49 128.667 129.743 128.44 128.81 128.44C128.01 128.44 127.396 128.6 126.97 128.92C126.543 129.213 126.33 129.627 126.33 130.16C126.33 130.8 126.663 131.28 127.33 131.6C128.023 131.92 129.09 132.24 130.53 132.56C132.183 132.987 133.53 133.413 134.57 133.84C135.61 134.24 136.516 134.907 137.29 135.84C138.09 136.747 138.503 137.973 138.53 139.52C138.53 140.827 138.156 142 137.41 143.04C136.69 144.053 135.636 144.853 134.25 145.44C132.89 146.027 131.303 146.32 129.49 146.32Z" fill="#228B22"/>
<path d="M81.9188 50.5911L81.9172 50.5958L77.3271 63.7103C76.4164 66.3798 73.9199 68.0462 71.2624 68.0462C70.5017 68.0462 69.8023 67.9083 69.1239 67.6696C65.7572 66.499 64.02 62.8079 65.1725 59.4784L65.1753 59.4703L66.7675 54.9212H66.1438C64.0193 54.9212 62.0183 53.8468 60.8243 52.0988L60.8241 52.0985C59.6268 50.345 59.365 48.1126 60.1402 46.1301C60.1403 46.1298 60.1405 46.1294 60.1406 46.129L65.2581 33.0074C66.549 29.6939 70.2854 28.0676 73.5876 29.3543L81.9188 50.5911ZM81.9188 50.5911C82.5971 48.6407 82.3128 46.4543 81.0981 44.7538C79.8799 43.0224 77.9013 42.0461 75.8562 42.0461H75.5721M81.9188 50.5911L75.5721 42.0461M75.5721 42.0461L77.267 37.6838L75.5721 42.0461ZM57.1662 16.7537H59.6662V14.2537V10.5C59.6662 6.81449 62.6682 3.8125 66.3537 3.8125H75.6463C79.3318 3.8125 82.3338 6.81449 82.3338 10.5V14.2537V16.7537H84.8338H85.5163C89.2018 16.7537 92.2038 19.7557 92.2038 23.4412V73.5C92.2038 77.1855 89.2018 80.1875 85.5163 80.1875H56.4837C52.7982 80.1875 49.7962 77.1855 49.7962 73.5V23.4412C49.7962 19.7557 52.7982 16.7537 56.4837 16.7537H57.1662ZM76.9588 16.7537H79.4588V14.2537V10.5C79.4588 8.35159 77.7028 6.6875 75.6463 6.6875H66.3537C64.2972 6.6875 62.5412 8.35159 62.5412 10.5V14.2537V16.7537H65.0412H76.9588ZM77.2678 37.6816C78.5628 34.354 76.874 30.6348 73.5877 29.3543L77.2678 37.6816Z" stroke="#228B22" stroke-width="5"/>
</svg>
