<svg width="20" height="20" viewBox="0 0 20 20" fill="none" xmlns="http://www.w3.org/2000/svg">
<g clip-path="url(#clip0_350_221)">
<path d="M9.58329 4.16663H9.94529C12.4847 4.16663 13.7543 4.16663 14.2363 4.6227C14.6529 5.01693 14.8376 5.59769 14.7251 6.16014C14.595 6.81081 13.5584 7.54401 11.4852 9.0104L8.09806 11.4062C6.02488 12.8726 4.98828 13.6058 4.85816 14.2565C4.74567 14.8189 4.93031 15.3997 5.34693 15.7939C5.82891 16.25 7.09859 16.25 9.63796 16.25H10.4166M6.66663 4.16663C6.66663 5.54734 5.54734 6.66663 4.16663 6.66663C2.78591 6.66663 1.66663 5.54734 1.66663 4.16663C1.66663 2.78591 2.78591 1.66663 4.16663 1.66663C5.54734 1.66663 6.66663 2.78591 6.66663 4.16663ZM18.3333 15.8333C18.3333 17.214 17.214 18.3333 15.8333 18.3333C14.4526 18.3333 13.3333 17.214 13.3333 15.8333C13.3333 14.4526 14.4526 13.3333 15.8333 13.3333C17.214 13.3333 18.3333 14.4526 18.3333 15.8333Z" stroke="black" stroke-width="1.66667" stroke-linecap="round" stroke-linejoin="round"/>
</g>
<defs>
<clipPath id="clip0_350_221">
<rect width="20" height="20" fill="white"/>
</clipPath>
</defs>
</svg>
