<svg width="86" height="20" viewBox="0 0 86 20" fill="none" xmlns="http://www.w3.org/2000/svg">
<rect width="86" height="20" rx="4" fill="#D43F3F"/>
<path d="M11.7332 6.53V10.94C11.7332 11.56 11.8832 12.02 12.1832 12.32C12.4899 12.62 12.9132 12.77 13.4532 12.77C13.9866 12.77 14.4032 12.62 14.7032 12.32C15.0099 12.02 15.1632 11.56 15.1632 10.94V6.53H16.0732V10.93C16.0732 11.51 15.9566 12 15.7232 12.4C15.4899 12.7933 15.1732 13.0867 14.7732 13.28C14.3799 13.4733 13.9366 13.57 13.4432 13.57C12.9499 13.57 12.5032 13.4733 12.1032 13.28C11.7099 13.0867 11.3966 12.7933 11.1632 12.4C10.9366 12 10.8232 11.51 10.8232 10.93V6.53H11.7332ZM20.2613 7.92C20.928 7.92 21.468 8.12333 21.8813 8.53C22.2946 8.93 22.5013 9.51 22.5013 10.27V13.5H21.6013V10.4C21.6013 9.85333 21.4646 9.43667 21.1913 9.15C20.918 8.85667 20.5446 8.71 20.0713 8.71C19.5913 8.71 19.208 8.86 18.9213 9.16C18.6413 9.46 18.5013 9.89667 18.5013 10.47V13.5H17.5913V8.02H18.5013V8.8C18.6813 8.52 18.9246 8.30333 19.2313 8.15C19.5446 7.99667 19.888 7.92 20.2613 7.92ZM26.0278 12.66L27.7278 8.02H28.6978L26.5478 13.5H25.4878L23.3378 8.02H24.3178L26.0278 12.66ZM34.5932 10.55C34.5932 10.7233 34.5832 10.9067 34.5632 11.1H30.1832C30.2166 11.64 30.3999 12.0633 30.7332 12.37C31.0732 12.67 31.4832 12.82 31.9632 12.82C32.3566 12.82 32.6832 12.73 32.9432 12.55C33.2099 12.3633 33.3966 12.1167 33.5032 11.81H34.4832C34.3366 12.3367 34.0432 12.7667 33.6032 13.1C33.1632 13.4267 32.6166 13.59 31.9632 13.59C31.4432 13.59 30.9766 13.4733 30.5632 13.24C30.1566 13.0067 29.8366 12.6767 29.6032 12.25C29.3699 11.8167 29.2532 11.3167 29.2532 10.75C29.2532 10.1833 29.3666 9.68667 29.5932 9.26C29.8199 8.83333 30.1366 8.50667 30.5432 8.28C30.9566 8.04667 31.4299 7.93 31.9632 7.93C32.4832 7.93 32.9432 8.04333 33.3432 8.27C33.7432 8.49667 34.0499 8.81 34.2632 9.21C34.4832 9.60333 34.5932 10.05 34.5932 10.55ZM33.6532 10.36C33.6532 10.0133 33.5766 9.71667 33.4232 9.47C33.2699 9.21667 33.0599 9.02667 32.7932 8.9C32.5332 8.76667 32.2432 8.7 31.9232 8.7C31.4632 8.7 31.0699 8.84667 30.7432 9.14C30.4232 9.43333 30.2399 9.84 30.1932 10.36H33.6532ZM36.7044 8.91C36.8644 8.59667 37.0911 8.35333 37.3844 8.18C37.6844 8.00667 38.0477 7.92 38.4744 7.92V8.86H38.2344C37.2144 8.86 36.7044 9.41333 36.7044 10.52V13.5H35.7944V8.02H36.7044V8.91ZM39.9949 7.13C39.8215 7.13 39.6749 7.07 39.5549 6.95C39.4349 6.83 39.3749 6.68333 39.3749 6.51C39.3749 6.33667 39.4349 6.19 39.5549 6.07C39.6749 5.95 39.8215 5.89 39.9949 5.89C40.1615 5.89 40.3015 5.95 40.4149 6.07C40.5349 6.19 40.5949 6.33667 40.5949 6.51C40.5949 6.68333 40.5349 6.83 40.4149 6.95C40.3015 7.07 40.1615 7.13 39.9949 7.13ZM40.4349 8.02V13.5H39.5249V8.02H40.4349ZM44.2158 8.77H43.0658V13.5H42.1558V8.77H41.4458V8.02H42.1558V7.63C42.1558 7.01667 42.3125 6.57 42.6258 6.29C42.9458 6.00333 43.4558 5.86 44.1558 5.86V6.62C43.7558 6.62 43.4725 6.7 43.3058 6.86C43.1458 7.01333 43.0658 7.27 43.0658 7.63V8.02H44.2158V8.77ZM45.7468 7.13C45.5735 7.13 45.4268 7.07 45.3068 6.95C45.1868 6.83 45.1268 6.68333 45.1268 6.51C45.1268 6.33667 45.1868 6.19 45.3068 6.07C45.4268 5.95 45.5735 5.89 45.7468 5.89C45.9135 5.89 46.0535 5.95 46.1668 6.07C46.2868 6.19 46.3468 6.33667 46.3468 6.51C46.3468 6.68333 46.2868 6.83 46.1668 6.95C46.0535 7.07 45.9135 7.13 45.7468 7.13ZM46.1868 8.02V13.5H45.2768V8.02H46.1868ZM52.7378 10.55C52.7378 10.7233 52.7278 10.9067 52.7078 11.1H48.3278C48.3611 11.64 48.5444 12.0633 48.8778 12.37C49.2178 12.67 49.6278 12.82 50.1078 12.82C50.5011 12.82 50.8278 12.73 51.0878 12.55C51.3544 12.3633 51.5411 12.1167 51.6478 11.81H52.6278C52.4811 12.3367 52.1878 12.7667 51.7478 13.1C51.3078 13.4267 50.7611 13.59 50.1078 13.59C49.5878 13.59 49.1211 13.4733 48.7078 13.24C48.3011 13.0067 47.9811 12.6767 47.7478 12.25C47.5144 11.8167 47.3978 11.3167 47.3978 10.75C47.3978 10.1833 47.5111 9.68667 47.7378 9.26C47.9644 8.83333 48.2811 8.50667 48.6878 8.28C49.1011 8.04667 49.5744 7.93 50.1078 7.93C50.6278 7.93 51.0878 8.04333 51.4878 8.27C51.8878 8.49667 52.1944 8.81 52.4078 9.21C52.6278 9.60333 52.7378 10.05 52.7378 10.55ZM51.7978 10.36C51.7978 10.0133 51.7211 9.71667 51.5678 9.47C51.4144 9.21667 51.2044 9.02667 50.9378 8.9C50.6778 8.76667 50.3878 8.7 50.0678 8.7C49.6078 8.7 49.2144 8.84667 48.8878 9.14C48.5678 9.43333 48.3844 9.84 48.3378 10.36H51.7978ZM53.5989 10.74C53.5989 10.18 53.7123 9.69 53.9389 9.27C54.1656 8.84333 54.4756 8.51333 54.8689 8.28C55.2689 8.04667 55.7156 7.93 56.2089 7.93C56.6356 7.93 57.0323 8.03 57.3989 8.23C57.7656 8.42333 58.0456 8.68 58.2389 9V6.1H59.1589V13.5H58.2389V12.47C58.0589 12.7967 57.7923 13.0667 57.4389 13.28C57.0856 13.4867 56.6723 13.59 56.1989 13.59C55.7123 13.59 55.2689 13.47 54.8689 13.23C54.4756 12.99 54.1656 12.6533 53.9389 12.22C53.7123 11.7867 53.5989 11.2933 53.5989 10.74ZM58.2389 10.75C58.2389 10.3367 58.1556 9.97667 57.9889 9.67C57.8223 9.36333 57.5956 9.13 57.3089 8.97C57.0289 8.80333 56.7189 8.72 56.3789 8.72C56.0389 8.72 55.7289 8.8 55.4489 8.96C55.1689 9.12 54.9456 9.35333 54.7789 9.66C54.6123 9.96667 54.5289 10.3267 54.5289 10.74C54.5289 11.16 54.6123 11.5267 54.7789 11.84C54.9456 12.1467 55.1689 12.3833 55.4489 12.55C55.7289 12.71 56.0389 12.79 56.3789 12.79C56.7189 12.79 57.0289 12.71 57.3089 12.55C57.5956 12.3833 57.8223 12.1467 57.9889 11.84C58.1556 11.5267 58.2389 11.1633 58.2389 10.75Z" fill="white"/>
<mask id="mask0_1179_1504" style="mask-type:alpha" maskUnits="userSpaceOnUse" x="64" y="4" width="12" height="12">
<rect x="64" y="4" width="12" height="12" fill="#D9D9D9"/>
</mask>
<g mask="url(#mask0_1179_1504)">
<path d="M69.5 12.5H70.5V9.5H69.5V12.5ZM70 8.5C70.1417 8.5 70.2604 8.45208 70.3563 8.35625C70.4521 8.26042 70.5 8.14167 70.5 8C70.5 7.85833 70.4521 7.73958 70.3563 7.64375C70.2604 7.54792 70.1417 7.5 70 7.5C69.8583 7.5 69.7396 7.54792 69.6438 7.64375C69.5479 7.73958 69.5 7.85833 69.5 8C69.5 8.14167 69.5479 8.26042 69.6438 8.35625C69.7396 8.45208 69.8583 8.5 70 8.5ZM70 15C69.3083 15 68.6583 14.8687 68.05 14.6062C67.4417 14.3438 66.9125 13.9875 66.4625 13.5375C66.0125 13.0875 65.6562 12.5583 65.3938 11.95C65.1312 11.3417 65 10.6917 65 10C65 9.30833 65.1312 8.65833 65.3938 8.05C65.6562 7.44167 66.0125 6.9125 66.4625 6.4625C66.9125 6.0125 67.4417 5.65625 68.05 5.39375C68.6583 5.13125 69.3083 5 70 5C70.6917 5 71.3417 5.13125 71.95 5.39375C72.5583 5.65625 73.0875 6.0125 73.5375 6.4625C73.9875 6.9125 74.3438 7.44167 74.6062 8.05C74.8687 8.65833 75 9.30833 75 10C75 10.6917 74.8687 11.3417 74.6062 11.95C74.3438 12.5583 73.9875 13.0875 73.5375 13.5375C73.0875 13.9875 72.5583 14.3438 71.95 14.6062C71.3417 14.8687 70.6917 15 70 15ZM70 14C71.1167 14 72.0625 13.6125 72.8375 12.8375C73.6125 12.0625 74 11.1167 74 10C74 8.88333 73.6125 7.9375 72.8375 7.1625C72.0625 6.3875 71.1167 6 70 6C68.8833 6 67.9375 6.3875 67.1625 7.1625C66.3875 7.9375 66 8.88333 66 10C66 11.1167 66.3875 12.0625 67.1625 12.8375C67.9375 13.6125 68.8833 14 70 14Z" fill="white"/>
</g>
</svg>
