<svg width="213" height="74" viewBox="0 0 213 74" fill="none" xmlns="http://www.w3.org/2000/svg">
<path d="M13.8984 29.7617C22.375 29.7617 27.7852 24.0781 27.7852 14.918V14.8789C27.7852 5.73828 22.3555 0.0546875 13.8984 0.0546875C5.42188 0.0546875 -0.0078125 5.73828 -0.0078125 14.8789V14.918C-0.0078125 24.0781 5.38281 29.7617 13.8984 29.7617ZM13.8984 23.8242C9.89453 23.8242 7.27734 20.3477 7.27734 14.918V14.8789C7.27734 9.46875 9.93359 5.99219 13.8984 5.99219C17.8438 5.99219 20.4805 9.46875 20.4805 14.8789V14.918C20.4805 20.3477 17.8438 23.8242 13.8984 23.8242ZM31.2922 36.1875H38.2062V25.5039H38.5773C39.632 27.8867 41.9562 29.332 44.9445 29.332C50.4523 29.332 53.6164 25.2305 53.6164 18.1406V18.1016C53.6164 11.0898 50.3352 6.92969 44.9445 6.92969C41.8586 6.92969 39.593 8.27734 38.5773 10.582H38.2062V7.26172H31.2922V36.1875ZM42.3859 23.6875C39.8273 23.6875 38.1477 21.5977 38.1477 18.1406V18.1016C38.1477 14.625 39.7883 12.5742 42.3859 12.5742C44.9641 12.5742 46.6047 14.6641 46.6047 18.1016V18.1406C46.6047 21.5781 44.9445 23.6875 42.3859 23.6875ZM66.6742 29.5078C73.6469 29.5078 76.3031 25.4258 76.9281 22.8281L76.9867 22.5938L70.6586 22.6133L70.6195 22.6914C70.307 23.2578 69.1156 24.5859 66.8109 24.5859C64.1547 24.5859 62.5531 22.7891 62.4945 19.6836H77.1234V17.6914C77.1234 11.0508 72.9633 6.75391 66.4203 6.75391C59.8578 6.75391 55.6977 11.1094 55.6977 18.1211V18.1406C55.6977 25.1914 59.8578 29.5078 66.6742 29.5078ZM66.5766 11.6758C68.725 11.6758 70.2484 13.0625 70.5805 15.6602H62.5727C62.9047 13.1016 64.4477 11.6758 66.5766 11.6758ZM80.2203 29H87.1344V16.5781C87.1344 14.0781 88.4625 12.3789 90.7086 12.3789C93.0523 12.3789 94.1266 13.8633 94.1266 16.5V29H101.041V14.957C101.041 9.74219 98.5211 6.75391 93.6969 6.75391C90.6305 6.75391 88.443 8.27734 87.5055 10.6602H87.1344V7.26172H80.2203V29ZM13.625 73.7617C20.8516 73.7617 25.8516 69.3672 26.3203 63.0781V62.7656H19.4258L19.3867 62.9805C18.8984 65.8906 16.7305 67.8242 13.6445 67.8242C9.69922 67.8242 7.29688 64.4453 7.29688 58.8984V58.8594C7.29688 53.3516 9.69922 49.9922 13.625 49.9922C16.7109 49.9922 18.9766 52.0625 19.3867 55.0117L19.4062 55.1875H26.3008V54.8359C25.8906 48.6055 20.7148 44.0547 13.625 44.0547C5.16797 44.0547 -0.0078125 49.6992 -0.0078125 58.8789V58.918C-0.0078125 68.0977 5.1875 73.7617 13.625 73.7617ZM39.6906 73.5078C46.6633 73.5078 50.7648 69.2891 50.7648 62.1406V62.1016C50.7648 55.0508 46.5656 50.7539 39.6906 50.7539C32.8547 50.7539 28.6164 55.0898 28.6164 62.1016V62.1406C28.6164 69.2695 32.7375 73.5078 39.6906 73.5078ZM39.6906 68.2539C37.1516 68.2539 35.7062 66.0078 35.7062 62.1406V62.1016C35.7062 58.332 37.1906 56.0078 39.6906 56.0078C42.1906 56.0078 43.675 58.332 43.675 62.1016V62.1406C43.675 65.9883 42.2297 68.2539 39.6906 68.2539ZM53.8812 73H60.7953V60.0703C60.7953 57.8828 62.0844 56.3789 64.018 56.3789C66.0102 56.3789 67.1234 57.5898 67.1234 59.7773V73H74.0375V59.9531C74.0375 57.8242 75.268 56.3789 77.2406 56.3789C79.3305 56.3789 80.3656 57.5508 80.3656 59.8945V73H87.2992V58.1367C87.2992 53.6836 84.4672 50.7539 80.1898 50.7539C77.1234 50.7539 74.5844 52.375 73.6859 54.8555H73.3148C72.475 52.2188 70.2289 50.7539 67.2602 50.7539C64.4086 50.7539 62.0648 52.1992 61.1664 54.7188H60.7953V51.2617H53.8812V73ZM91.275 73H98.1891V60.0703C98.1891 57.8828 99.4781 56.3789 101.412 56.3789C103.404 56.3789 104.517 57.5898 104.517 59.7773V73H111.431V59.9531C111.431 57.8242 112.662 56.3789 114.634 56.3789C116.724 56.3789 117.759 57.5508 117.759 59.8945V73H124.693V58.1367C124.693 53.6836 121.861 50.7539 117.584 50.7539C114.517 50.7539 111.978 52.375 111.08 54.8555H110.709C109.869 52.2188 107.623 50.7539 104.654 50.7539C101.802 50.7539 99.4586 52.1992 98.5602 54.7188H98.1891V51.2617H91.275V73ZM138.571 73.5078C145.544 73.5078 148.2 69.4258 148.825 66.8281L148.884 66.5938L142.555 66.6133L142.516 66.6914C142.204 67.2578 141.012 68.5859 138.708 68.5859C136.052 68.5859 134.45 66.7891 134.391 63.6836H149.02V61.6914C149.02 55.0508 144.86 50.7539 138.317 50.7539C131.755 50.7539 127.595 55.1094 127.595 62.1211V62.1406C127.595 69.1914 131.755 73.5078 138.571 73.5078ZM138.473 55.6758C140.622 55.6758 142.145 57.0625 142.477 59.6602H134.47C134.802 57.1016 136.345 55.6758 138.473 55.6758ZM152.117 73H159.031V61.4961C159.031 58.4883 160.926 56.75 164.168 56.75C165.145 56.75 166.141 56.8867 167.059 57.1211V51.2812C166.395 51.0469 165.555 50.9297 164.715 50.9297C161.941 50.9297 160.027 52.3164 159.402 54.7188H159.031V51.2617H152.117V73ZM178.964 73.5078C184.863 73.5078 188.476 70.3242 188.945 65.168V65.1094H182.636L182.597 65.1484C182.265 67.2188 181.073 68.2539 179.003 68.2539C176.327 68.2539 174.999 66.2227 174.999 62.1211V62.082C174.999 58.0195 176.308 56.0078 179.003 56.0078C181.113 56.0078 182.323 57.1992 182.616 59.2891L182.636 59.3281L188.945 59.3086L188.964 59.2891C188.534 53.9375 184.96 50.7539 178.964 50.7539C171.796 50.7539 167.968 54.7188 167.968 62.082V62.1211C167.968 69.5234 171.796 73.5078 178.964 73.5078ZM201.846 73.5078C208.819 73.5078 211.475 69.4258 212.1 66.8281L212.159 66.5938L205.83 66.6133L205.791 66.6914C205.479 67.2578 204.288 68.5859 201.983 68.5859C199.327 68.5859 197.725 66.7891 197.666 63.6836H212.295V61.6914C212.295 55.0508 208.135 50.7539 201.592 50.7539C195.03 50.7539 190.87 55.1094 190.87 62.1211V62.1406C190.87 69.1914 195.03 73.5078 201.846 73.5078ZM201.748 55.6758C203.897 55.6758 205.42 57.0625 205.752 59.6602H197.745C198.077 57.1016 199.62 55.6758 201.748 55.6758Z" fill="#F37A20"/>
</svg>
