<svg width="64" height="11" viewBox="0 0 64 11" fill="none" xmlns="http://www.w3.org/2000/svg">
<path d="M6.149 10L3.276 5.983V10H0.728V0.834999H3.276V4.787L6.123 0.834999H9.061L5.694 5.281L9.23 10H6.149ZM17.6226 2.707V10H15.0616V8.96C14.845 9.28933 14.546 9.558 14.1646 9.766C13.7833 9.96533 13.3456 10.065 12.8516 10.065C12.0023 10.065 11.3306 9.78767 10.8366 9.233C10.3513 8.66967 10.1086 7.907 10.1086 6.945V2.707H12.6436V6.62C12.6436 7.036 12.752 7.36533 12.9686 7.608C13.194 7.842 13.4886 7.959 13.8526 7.959C14.2253 7.959 14.52 7.842 14.7366 7.608C14.9533 7.36533 15.0616 7.036 15.0616 6.62V2.707H17.6226ZM21.4907 7.881H24.5977V10H18.6827V7.985L21.5817 4.826H18.7087V2.707H24.4937V4.722L21.4907 7.881ZM25.2456 6.347C25.2456 5.593 25.3799 4.93433 25.6486 4.371C25.9259 3.80767 26.2986 3.37433 26.7666 3.071C27.2433 2.76767 27.7719 2.616 28.3526 2.616C28.8553 2.616 29.2886 2.71567 29.6526 2.915C30.0166 3.11433 30.2983 3.383 30.4976 3.721V2.707H33.0456V10H30.4976V8.986C30.2983 9.324 30.0123 9.59267 29.6396 9.792C29.2756 9.99133 28.8466 10.091 28.3526 10.091C27.7719 10.091 27.2433 9.93933 26.7666 9.636C26.2986 9.33267 25.9259 8.89933 25.6486 8.336C25.3799 7.764 25.2456 7.101 25.2456 6.347ZM30.4976 6.347C30.4976 5.879 30.3676 5.51067 30.1076 5.242C29.8563 4.97333 29.5443 4.839 29.1716 4.839C28.7903 4.839 28.4739 4.97333 28.2226 5.242C27.9713 5.502 27.8456 5.87033 27.8456 6.347C27.8456 6.815 27.9713 7.18767 28.2226 7.465C28.4739 7.73367 28.7903 7.868 29.1716 7.868C29.5443 7.868 29.8563 7.73367 30.1076 7.465C30.3676 7.19633 30.4976 6.82367 30.4976 6.347ZM41.3798 10.091C40.5218 10.091 39.7331 9.89167 39.0138 9.493C38.2945 9.08567 37.7225 8.52667 37.2978 7.816C36.8818 7.09667 36.6738 6.28633 36.6738 5.385C36.6738 4.48367 36.8818 3.67767 37.2978 2.967C37.7225 2.24767 38.2945 1.68867 39.0138 1.29C39.7331 0.891333 40.5218 0.692 41.3798 0.692C42.2465 0.692 43.0351 0.891333 43.7458 1.29C44.4651 1.68867 45.0328 2.24767 45.4488 2.967C45.8648 3.67767 46.0728 4.48367 46.0728 5.385C46.0728 6.28633 45.8648 7.09667 45.4488 7.816C45.0328 8.52667 44.4651 9.08567 43.7458 9.493C43.0265 9.89167 42.2378 10.091 41.3798 10.091ZM41.3798 7.725C42.0298 7.725 42.5411 7.51267 42.9138 7.088C43.2951 6.66333 43.4858 6.09567 43.4858 5.385C43.4858 4.657 43.2951 4.085 42.9138 3.669C42.5411 3.24433 42.0298 3.032 41.3798 3.032C40.7211 3.032 40.2055 3.24433 39.8328 3.669C39.4601 4.085 39.2738 4.657 39.2738 5.385C39.2738 6.10433 39.4601 6.67633 39.8328 7.101C40.2055 7.517 40.7211 7.725 41.3798 7.725ZM51.9892 2.642C52.8299 2.642 53.4972 2.92367 53.9912 3.487C54.4852 4.04167 54.7322 4.79567 54.7322 5.749V10H52.1842V6.087C52.1842 5.671 52.0759 5.346 51.8592 5.112C51.6426 4.86933 51.3522 4.748 50.9882 4.748C50.6069 4.748 50.3079 4.86933 50.0912 5.112C49.8746 5.346 49.7662 5.671 49.7662 6.087V10H47.2182V2.707H49.7662V3.747C49.9916 3.41767 50.2949 3.15333 50.6762 2.954C51.0576 2.746 51.4952 2.642 51.9892 2.642ZM63.0983 6.269C63.0983 6.46833 63.0853 6.66767 63.0593 6.867H58.2363C58.2623 7.26567 58.3707 7.56467 58.5613 7.764C58.7607 7.95467 59.012 8.05 59.3153 8.05C59.74 8.05 60.0433 7.85933 60.2253 7.478H62.9423C62.8297 7.98067 62.6087 8.43133 62.2793 8.83C61.9587 9.22 61.5513 9.52767 61.0573 9.753C60.5633 9.97833 60.0173 10.091 59.4193 10.091C58.7 10.091 58.0587 9.93933 57.4953 9.636C56.9407 9.33267 56.503 8.89933 56.1823 8.336C55.8703 7.77267 55.7143 7.10967 55.7143 6.347C55.7143 5.58433 55.8703 4.92567 56.1823 4.371C56.4943 3.80767 56.9277 3.37433 57.4823 3.071C58.0457 2.76767 58.6913 2.616 59.4193 2.616C60.1387 2.616 60.7757 2.76333 61.3303 3.058C61.885 3.35267 62.3183 3.77733 62.6303 4.332C62.9423 4.878 63.0983 5.52367 63.0983 6.269ZM60.4983 5.632C60.4983 5.32 60.3943 5.07733 60.1863 4.904C59.9783 4.722 59.7183 4.631 59.4063 4.631C59.0943 4.631 58.8387 4.71767 58.6393 4.891C58.44 5.05567 58.31 5.30267 58.2493 5.632H60.4983Z" fill="#53A052"/>
</svg>
