<svg width="2" height="41" viewBox="0 0 2 41" fill="none" xmlns="http://www.w3.org/2000/svg">
<path d="M1.25 1C1.25 0.861929 1.13807 0.75 1 0.75C0.861929 0.75 0.75 0.861929 0.75 1L1.25 1ZM0.75 1L0.75 2L1.25 2L1.25 1L0.75 1ZM0.75 4L0.75 6L1.25 6L1.25 4L0.75 4ZM0.75 8L0.75 10L1.25 10L1.25 8L0.75 8ZM0.75 12L0.749999 14L1.25 14L1.25 12L0.75 12ZM0.749999 16L0.749999 18L1.25 18L1.25 16L0.749999 16ZM0.749999 20L0.749999 22L1.25 22L1.25 20L0.749999 20ZM0.749999 24L0.749999 26L1.25 26L1.25 24L0.749999 24ZM0.749999 28L0.749999 30L1.25 30L1.25 28L0.749999 28ZM0.749999 32L0.749999 34L1.25 34L1.25 32L0.749999 32ZM0.749998 36L0.749998 38L1.25 38L1.25 36L0.749998 36ZM0.749998 40L0.749998 41L1.25 41L1.25 40L0.749998 40Z" fill="black"/>
</svg>
