<svg width="24" height="24" viewBox="0 0 24 24" fill="none" xmlns="http://www.w3.org/2000/svg">
<path d="M11.8359 21H11.4185L11.337 20.9656C11.0983 20.8565 10.8955 20.6759 10.7559 20.4481L9.18682 18.1591C8.23856 16.7791 7.2922 15.3991 6.34856 14.0192C5.74465 13.1243 5.37813 12.082 5.28617 10.9951C5.14335 9.62524 5.42574 8.24464 6.09355 7.05199C6.76137 5.85935 7.77881 4.91734 8.99892 4.36276C11.3917 3.29139 13.7239 3.62964 15.7424 5.34047C16.9933 6.38758 17.789 7.90706 17.9513 9.562C18.1508 11.2041 17.7328 12.8638 16.7826 14.1965C15.3621 16.2665 13.9423 18.3364 12.5232 20.4064C12.3797 20.6557 12.1645 20.8518 11.9075 20.967L11.8359 21ZM11.6305 20.0614C11.6879 20.0021 11.7388 19.9367 11.7825 19.8666C13.2016 17.7967 14.6214 15.7267 16.0418 13.6567C16.8564 12.5119 17.2151 11.0874 17.0436 9.67722C16.9086 8.26422 16.2336 6.96435 15.1687 6.06685C13.4039 4.57164 11.4505 4.28857 9.36176 5.22323C8.31763 5.69962 7.44694 6.50685 6.87629 7.52831C6.30628 8.54983 6.06563 9.733 6.18955 10.9055C6.2665 11.8273 6.57563 12.712 7.08628 13.4721C8.02541 14.852 8.97172 16.232 9.92454 17.612C10.4495 18.3754 10.9739 19.1402 11.4969 19.9064C11.5354 19.9637 11.5803 20.0156 11.6305 20.0614ZM11.6135 12.8529H11.5907C10.9529 12.8354 10.3477 12.5625 9.90229 12.0908C9.45685 11.6198 9.20642 10.9877 9.20446 10.3294C9.21229 9.66368 9.47577 9.02894 9.9362 8.56338C10.396 8.09778 11.0162 7.83971 11.6605 7.84509C12.2977 7.86059 12.9036 8.13214 13.3503 8.60178C13.7964 9.07144 14.0481 9.70213 14.0514 10.3604C14.0455 11.0241 13.7859 11.6588 13.3294 12.125C12.8729 12.592 12.2559 12.8542 11.6135 12.8529ZM11.6305 8.78228C11.2301 8.78161 10.8453 8.94467 10.5603 9.23576C10.2733 9.52483 10.1096 9.92037 10.1064 10.3348C10.107 11.1898 10.7664 11.8893 11.594 11.9128C11.9996 11.9182 12.3909 11.7565 12.6811 11.4634C12.9714 11.1696 13.1364 10.7694 13.1396 10.3503C13.1357 9.49585 12.4737 8.79979 11.6474 8.78025H11.6305L11.6305 8.78228Z" fill="#43464E"/>
</svg>
