<svg width="24" height="24" viewBox="0 0 24 24" fill="none" xmlns="http://www.w3.org/2000/svg">
<path fill-rule="evenodd" clip-rule="evenodd" d="M16 7C16 9.20914 14.2091 11 12 11C9.79086 11 8 9.20914 8 7C8 4.79086 9.79086 3 12 3C14.2091 3 16 4.79086 16 7ZM15.643 11.7678C17.0759 10.6713 18 8.94359 18 7C18 3.68629 15.3137 1 12 1C8.68629 1 6 3.68629 6 7C6 8.94359 6.92413 10.6713 8.35697 11.7678C5.20134 13.1664 3 16.3261 3 20V22C3 22.5523 3.44772 23 4 23C4.55228 23 5 22.5523 5 22V20C5 16.134 8.13401 13 12 13C15.866 13 19 16.134 19 20V22C19 22.5523 19.4477 23 20 23C20.5523 23 21 22.5523 21 22V20C21 16.3261 18.7987 13.1664 15.643 11.7678Z" fill="#F37A20"/>
<path d="M15.643 11.7678L15.3999 11.4502L14.8642 11.8602L15.481 12.1335L15.643 11.7678ZM8.35697 11.7678L8.51904 12.1335L9.13583 11.8602L8.60006 11.4502L8.35697 11.7678ZM12 11.4C14.4301 11.4 16.4 9.43005 16.4 7H15.6C15.6 8.98822 13.9882 10.6 12 10.6V11.4ZM7.6 7C7.6 9.43005 9.56995 11.4 12 11.4V10.6C10.0118 10.6 8.4 8.98822 8.4 7H7.6ZM12 2.6C9.56995 2.6 7.6 4.56995 7.6 7H8.4C8.4 5.01178 10.0118 3.4 12 3.4V2.6ZM16.4 7C16.4 4.56995 14.4301 2.6 12 2.6V3.4C13.9882 3.4 15.6 5.01178 15.6 7H16.4ZM15.8861 12.0855C17.4136 10.9166 18.4 9.0734 18.4 7H17.6C17.6 8.81378 16.7381 10.4261 15.3999 11.4502L15.8861 12.0855ZM18.4 7C18.4 3.46538 15.5346 0.6 12 0.6V1.4C15.0928 1.4 17.6 3.90721 17.6 7H18.4ZM12 0.6C8.46538 0.6 5.6 3.46538 5.6 7H6.4C6.4 3.90721 8.90721 1.4 12 1.4V0.6ZM5.6 7C5.6 9.0734 6.5864 10.9166 8.11388 12.0855L8.60006 11.4502C7.26187 10.4261 6.4 8.81378 6.4 7H5.6ZM3.4 20C3.4 16.49 5.50281 13.4703 8.51904 12.1335L8.1949 11.4021C4.89987 12.8624 2.6 16.1622 2.6 20H3.4ZM3.4 22V20H2.6V22H3.4ZM4 22.6C3.66863 22.6 3.4 22.3314 3.4 22H2.6C2.6 22.7732 3.2268 23.4 4 23.4V22.6ZM4.6 22C4.6 22.3314 4.33137 22.6 4 22.6V23.4C4.7732 23.4 5.4 22.7732 5.4 22H4.6ZM4.6 20V22H5.4V20H4.6ZM12 12.6C7.91309 12.6 4.6 15.9131 4.6 20H5.4C5.4 16.3549 8.35492 13.4 12 13.4V12.6ZM19.4 20C19.4 15.9131 16.0869 12.6 12 12.6V13.4C15.6451 13.4 18.6 16.3549 18.6 20H19.4ZM19.4 22V20H18.6V22H19.4ZM20 22.6C19.6686 22.6 19.4 22.3314 19.4 22H18.6C18.6 22.7732 19.2268 23.4 20 23.4V22.6ZM20.6 22C20.6 22.3314 20.3314 22.6 20 22.6V23.4C20.7732 23.4 21.4 22.7732 21.4 22H20.6ZM20.6 20V22H21.4V20H20.6ZM15.481 12.1335C18.4972 13.4703 20.6 16.49 20.6 20H21.4C21.4 16.1622 19.1001 12.8624 15.8051 11.4021L15.481 12.1335Z" fill="white"/>
</svg>
