<svg width="35" height="37" viewBox="0 0 35 37" fill="none" xmlns="http://www.w3.org/2000/svg">
<g id="Stethoscope">
<g id="Group 7103">
<path id="Vector" d="M24.6738 13.2932L27.3254 10.608L23.9104 9.00391L24.1346 10.263L19.606 11.1428L16.5021 16.3716L11.3462 12.8649L11.2993 12.8332L8.07895 15.3313C7.6852 15.6367 7.6133 16.2036 7.91892 16.5973C8.22429 16.9911 8.79097 17.0627 9.18474 16.7573L11.3674 15.0638L17.007 18.8988L17.0755 18.9449L20.7481 12.7598L24.4514 12.0421L24.6738 13.2932Z" fill="black"/>
<path id="Vector_2" d="M18.8496 2.36462V1.85052C18.8488 1.36787 18.5909 0.922075 18.1726 0.680892C17.7544 0.439709 17.2393 0.439696 16.8213 0.680892C16.4031 0.922088 16.1449 1.36789 16.1443 1.85052V2.36462H1.83301V5.07015H3.69974V21.2563L3.86852 21.1424C4.4205 20.7716 5.04178 20.517 5.69527 20.3935L5.78314 20.3765L5.78289 5.07038H29.2112V20.3772L29.2988 20.3942V20.3939C29.952 20.5171 30.5733 20.772 31.1251 21.1428L31.2938 21.2567V5.07055H33.1606V2.36502L18.8496 2.36462Z" fill="black"/>
<path id="Vector_3" d="M10.2572 25.3506C10.2572 27.3408 8.64401 28.9542 6.65386 28.9542C4.66344 28.9542 3.05029 27.3408 3.05029 25.3506C3.05029 23.3605 4.66344 21.7471 6.65386 21.7471C8.64401 21.7471 10.2572 23.3605 10.2572 25.3506Z" fill="black"/>
<path id="Vector_4" d="M21.1021 25.3506C21.1021 27.3408 19.4887 28.9542 17.4986 28.9542C15.5084 28.9542 13.895 27.3408 13.895 25.3506C13.895 23.3605 15.5084 21.7471 17.4986 21.7471C19.4887 21.7471 21.1021 23.3605 21.1021 25.3506Z" fill="black"/>
<path id="Vector_5" d="M31.9469 25.3506C31.9469 27.3408 30.3335 28.9542 28.3433 28.9542C26.3532 28.9542 24.7397 27.3408 24.7397 25.3506C24.7397 23.3605 26.3532 21.7471 28.3433 21.7471C30.3335 21.7471 31.9469 23.3605 31.9469 25.3506Z" fill="black"/>
<path id="Vector_6" d="M34.2816 32.5145C33.5995 31.3949 32.4282 30.7043 30.9826 30.3525H25.7061C24.6524 30.5708 23.685 31.0908 22.922 31.8492C22.159 31.0909 21.1917 30.5708 20.1379 30.3525H14.8615C13.8077 30.5708 12.8406 31.0908 12.0774 31.8492C11.3144 31.0909 10.347 30.5708 9.29354 30.3525H4.0168C2.57116 30.7043 1.39994 31.3949 0.71782 32.5145C0.49904 33.9903 0.220215 36.4997 0.220215 36.4997H34.7794C34.7794 36.4997 34.5006 33.9903 34.2818 32.5145H34.2816Z" fill="black"/>
</g>
</g>
</svg>
