<svg width="16" height="16" viewBox="0 0 16 16" fill="none" xmlns="http://www.w3.org/2000/svg">
<path d="M9.28253 12.9274V14.4624C12.0075 13.9474 14.1325 11.8249 14.65 9.09741H13.1125C12.645 10.9724 11.1575 12.4599 9.28253 12.9274Z" fill="white"/>
<path d="M6.71754 2.7001V1.1626C3.99004 1.6776 1.86504 3.8026 1.35004 6.5301H2.88754C3.35504 4.6526 4.84004 3.1676 6.71754 2.7001Z" fill="white"/>
<path d="M2.88754 9.09741H1.35004C1.86754 11.8249 3.99254 13.9474 6.71754 14.4624V12.9249C4.84254 12.4574 3.35504 10.9724 2.88754 9.09741Z" fill="white"/>
<path d="M13.1125 6.5301H14.65C14.135 3.8026 12.01 1.6776 9.28253 1.1626V2.6976C11.16 3.1651 12.645 4.6526 13.1125 6.5301Z" fill="white"/>
<path d="M3.7625 7.81253C3.7625 7.38003 3.4125 7.03003 2.98 7.03003H0.97C0.5375 7.03003 0.1875 7.38003 0.1875 7.81253C0.1875 8.24503 0.5375 8.59753 0.97 8.59753H2.98C3.4125 8.59753 3.7625 8.24503 3.7625 7.81253Z" fill="white"/>
<path d="M15.0299 7.03003H13.0199C12.5874 7.03003 12.2374 7.38003 12.2374 7.81253C12.2374 8.24503 12.5874 8.59753 13.0199 8.59753H15.0299C15.4624 8.59753 15.8124 8.24503 15.8124 7.81253C15.8124 7.38003 15.4624 7.03003 15.0299 7.03003Z" fill="white"/>
<path d="M7.99997 3.5775C8.43247 3.5775 8.78247 3.225 8.78247 2.7925V0.785C8.78247 0.35 8.43247 0 7.99997 0C7.56747 0 7.21747 0.35 7.21747 0.785V2.7925C7.21747 3.225 7.56747 3.5775 7.99997 3.5775Z" fill="white"/>
<path d="M7.99997 12.05C7.56747 12.05 7.21747 12.4 7.21747 12.8325V14.8425C7.21747 15.275 7.56747 15.625 7.99997 15.625C8.43247 15.625 8.78247 15.275 8.78247 14.8425V12.8325C8.78247 12.4 8.43247 12.05 7.99997 12.05Z" fill="white"/>
<path d="M8.00067 10.1433C9.28753 10.1433 10.3307 9.10009 10.3307 7.81323C10.3307 6.52636 9.28753 5.48315 8.00067 5.48315C6.7138 5.48315 5.67059 6.52636 5.67059 7.81323C5.67059 9.10009 6.7138 10.1433 8.00067 10.1433Z" fill="white"/>
</svg>
