<svg width="24" height="24" viewBox="0 0 24 24" fill="none" xmlns="http://www.w3.org/2000/svg">
<path d="M11.7297 23.0769H1.46668C2.66068 21.5394 3.30735 19.6377 3.3017 17.6804V0.923077H19.1347V9.75992C19.1347 9.88233 19.1826 9.99972 19.2679 10.0863C19.3533 10.1728 19.469 10.2215 19.5897 10.2215C19.7103 10.2215 19.8261 10.1728 19.9114 10.0863C19.9967 9.99972 20.0446 9.88233 20.0446 9.75992V0.461538C20.0447 0.400924 20.0329 0.3409 20.01 0.284897C19.9872 0.228893 19.9537 0.178007 19.9114 0.135146C19.8692 0.092285 19.819 0.058289 19.7638 0.0351001C19.7086 0.0119113 19.6494 -1.59017e-05 19.5897 1.59112e-08H2.84672C2.78697 -1.59017e-05 2.7278 0.0119113 2.67259 0.0351001C2.61738 0.058289 2.56722 0.092285 2.52497 0.135146C2.48272 0.178007 2.4492 0.228893 2.42634 0.284897C2.40348 0.3409 2.39173 0.400924 2.39174 0.461538V17.6804C2.39454 18.7082 2.19637 19.7262 1.80871 20.6758C1.42105 21.6253 0.851582 22.4874 0.13328 23.2121C0.0696448 23.2767 0.0263069 23.3589 0.00874679 23.4484C-0.00881335 23.538 0.000193168 23.6308 0.0346273 23.7151C0.0690615 23.7994 0.127376 23.8715 0.202197 23.9222C0.277018 23.9729 0.364983 24 0.454968 24H11.7297C11.8504 24 11.9661 23.9514 12.0514 23.8648C12.1368 23.7783 12.1847 23.6609 12.1847 23.5385C12.1847 23.4161 12.1368 23.2987 12.0514 23.2121C11.9661 23.1255 11.8504 23.0769 11.7297 23.0769Z" fill="#0560FA"/>
<path d="M16.4371 5.81335H5.9999C5.87923 5.81335 5.76351 5.86198 5.67818 5.94854C5.59286 6.03509 5.54492 6.15249 5.54492 6.27489C5.54492 6.3973 5.59286 6.5147 5.67818 6.60125C5.76351 6.68781 5.87923 6.73643 5.9999 6.73643H16.4371C16.5578 6.73643 16.6735 6.68781 16.7589 6.60125C16.8442 6.5147 16.8921 6.3973 16.8921 6.27489C16.8921 6.15249 16.8442 6.03509 16.7589 5.94854C16.6735 5.86198 16.5578 5.81335 16.4371 5.81335Z" fill="#0560FA"/>
<path d="M16.8921 9.40209C16.8921 9.34148 16.8804 9.28145 16.8575 9.22545C16.8347 9.16945 16.8011 9.11856 16.7589 9.0757C16.7166 9.03284 16.6665 8.99884 16.6113 8.97565C16.5561 8.95246 16.4969 8.94054 16.4371 8.94055H5.9999C5.87923 8.94055 5.76351 8.98918 5.67818 9.07573C5.59286 9.16229 5.54492 9.27968 5.54492 9.40209C5.54492 9.5245 5.59286 9.64189 5.67818 9.72845C5.76351 9.815 5.87923 9.86363 5.9999 9.86363H16.4371C16.4969 9.86364 16.5561 9.85172 16.6113 9.82853C16.6665 9.80534 16.7166 9.77134 16.7589 9.72848C16.8011 9.68562 16.8347 9.63474 16.8575 9.57873C16.8804 9.52273 16.8921 9.4627 16.8921 9.40209Z" fill="#0560FA"/>
<path d="M12.3556 12.5293C12.3556 12.4687 12.3439 12.4086 12.321 12.3526C12.2982 12.2966 12.2646 12.2458 12.2224 12.2029C12.1801 12.16 12.13 12.126 12.0748 12.1028C12.0196 12.0797 11.9604 12.0677 11.9006 12.0677H5.9999C5.87923 12.0677 5.76351 12.1164 5.67818 12.2029C5.59286 12.2895 5.54492 12.4069 5.54492 12.5293C5.54492 12.6517 5.59286 12.7691 5.67818 12.8556C5.76351 12.9422 5.87923 12.9908 5.9999 12.9908H11.9006C11.9604 12.9908 12.0196 12.9789 12.0748 12.9557C12.13 12.9325 12.1801 12.8985 12.2224 12.8557C12.2646 12.8128 12.2982 12.7619 12.321 12.7059C12.3439 12.6499 12.3556 12.5899 12.3556 12.5293Z" fill="#0560FA"/>
<path d="M5.9999 15.1947C5.87923 15.1947 5.76351 15.2433 5.67818 15.3299C5.59286 15.4164 5.54492 15.5338 5.54492 15.6562C5.54492 15.7786 5.59286 15.896 5.67818 15.9826C5.76351 16.0692 5.87923 16.1178 5.9999 16.1178H9.71105C9.83172 16.1178 9.94745 16.0692 10.0328 15.9826C10.1181 15.896 10.166 15.7786 10.166 15.6562C10.166 15.5338 10.1181 15.4164 10.0328 15.3299C9.94745 15.2433 9.83172 15.1947 9.71105 15.1947H5.9999Z" fill="#0560FA"/>
<path d="M22.2786 13.8152C21.5176 13.0418 20.5617 12.4956 19.5153 12.2361C18.469 11.9766 17.3724 12.0139 16.3455 12.3438C15.3186 12.6738 14.4009 13.2837 13.6927 14.107C12.9844 14.9303 12.5129 15.9352 12.3296 17.012L11.968 16.6452C11.8827 16.5587 11.767 16.5101 11.6463 16.5101C11.5257 16.5101 11.41 16.5587 11.3247 16.6452C11.2393 16.7318 11.1914 16.8492 11.1914 16.9716C11.1914 17.094 11.2393 17.2113 11.3247 17.2979L12.3716 18.3599C12.4572 18.4462 12.5729 18.4947 12.6936 18.4947C12.8143 18.4947 12.9301 18.4462 13.0156 18.3599L14.0628 17.2979C14.1481 17.2113 14.196 17.094 14.196 16.9716C14.196 16.8492 14.1481 16.7318 14.0628 16.6452C13.9774 16.5587 13.8617 16.5101 13.7411 16.5101C13.6204 16.5101 13.5047 16.5587 13.4194 16.6452L13.3161 16.75C13.5958 15.677 14.217 14.7276 15.0833 14.0494C15.9495 13.3713 17.0122 13.0022 18.1064 12.9996C19.2006 12.997 20.265 13.361 21.1344 14.035C22.0037 14.709 22.6293 15.6554 22.9141 16.7271C23.1988 17.7988 23.1267 18.9359 22.709 19.9619C22.2913 20.9878 21.5513 21.845 20.604 22.4006C19.6567 22.9561 18.5551 23.1788 17.4703 23.034C16.3854 22.8892 15.3781 22.3851 14.6046 21.6C14.5193 21.5135 14.4036 21.4648 14.2829 21.4648C14.1623 21.4648 14.0466 21.5135 13.9612 21.6C13.8759 21.6866 13.828 21.8039 13.828 21.9263C13.828 22.0487 13.8759 22.1661 13.9612 22.2527C15.0644 23.3706 16.5601 23.9984 18.1194 23.998C19.6788 23.9976 21.1741 23.369 22.2767 22.2505C23.3793 21.132 23.9989 19.615 23.9993 18.0332C23.9996 16.4514 23.3807 14.9342 22.2786 13.8152Z" fill="#0560FA"/>
<path d="M18.121 14.0376C18.0612 14.0376 18.0021 14.0495 17.9469 14.0727C17.8917 14.0959 17.8415 14.1299 17.7992 14.1727C17.757 14.2156 17.7235 14.2665 17.7006 14.3225C17.6778 14.3785 17.666 14.4385 17.666 14.4991V18.0337C17.6667 18.1562 17.7147 18.2735 17.7997 18.3605L19.4486 20.0331C19.5341 20.1187 19.6495 20.1666 19.7697 20.1662C19.8898 20.1658 20.0049 20.1172 20.0899 20.031C20.1749 19.9448 20.2228 19.8281 20.2231 19.7062C20.2235 19.5843 20.1764 19.4672 20.092 19.3805L18.576 17.8426V14.4991C18.576 14.4385 18.5642 14.3785 18.5414 14.3225C18.5185 14.2665 18.485 14.2156 18.4427 14.1727C18.4005 14.1299 18.3503 14.0959 18.2951 14.0727C18.2399 14.0495 18.1807 14.0376 18.121 14.0376Z" fill="#0560FA"/>
</svg>
