<svg width="17" height="12" viewBox="0 0 17 12" fill="none" xmlns="http://www.w3.org/2000/svg">
<rect width="17" height="12" fill="#9F9F9F"/>
<g id="Manufacturer flow">
<path d="M-1095 -203C-1095 -204.105 -1094.1 -205 -1093 -205H5000C5001.1 -205 5002 -204.105 5002 -203V973C5002 974.105 5001.1 975 5000 975H-1093C-1094.1 975 -1095 974.105 -1095 973V-203Z" fill="#6A6A6A"/>
<path d="M-1093 -204H5000V-206H-1093V-204ZM5001 -203V973H5003V-203H5001ZM5000 974H-1093V976H5000V974ZM-1094 973V-203H-1096V973H-1094ZM-1093 974C-1093.55 974 -1094 973.552 -1094 973H-1096C-1096 974.657 -1094.66 976 -1093 976V974ZM5001 973C5001 973.552 5000.55 974 5000 974V976C5001.66 976 5003 974.657 5003 973H5001ZM5000 -204C5000.55 -204 5001 -203.552 5001 -203H5003C5003 -204.657 5001.66 -206 5000 -206V-204ZM-1093 -206C-1094.66 -206 -1096 -204.657 -1096 -203H-1094C-1094 -203.552 -1093.55 -204 -1093 -204V-206Z" fill="white" fill-opacity="0.1"/>
<g id="Select Location-1" clip-path="url(#clip0_879_28)">
<rect width="375" height="812" transform="translate(-150 -106)" fill="white"/>
<g id="Rectangle 17" filter="url(#filter0_d_879_28)">
<path d="M-150 -107H229V710H-150V-107Z" fill="white" fill-opacity="0.4"/>
</g>
<g id="Group 1000003254">
<g id="Rectangle 2187" filter="url(#filter1_d_879_28)">
<rect x="-150" y="-49" width="375" height="60" fill="white"/>
</g>
</g>
<rect id="Rectangle 2188" opacity="0.8" x="-150" y="11" width="375" height="695" fill="black"/>
<path id="Rectangle 2187_2" d="M-149 12H224V225C224 235.493 215.493 244 205 244H-130C-140.493 244 -149 235.493 -149 225V12Z" fill="white" stroke="#0560FA" stroke-width="2"/>
<path id="Polygon 1" d="M7.40247 1.20299C7.79969 0.623607 8.65479 0.623608 9.05201 1.20299L16.4545 12H0L7.40247 1.20299Z" fill="#0560FA"/>
</g>
</g>
<rect id="Rectangle 2306" x="-1684" y="-2432" width="6997" height="5951" stroke="black" stroke-width="10" stroke-linecap="round" stroke-dasharray="100 100"/>
<defs>
<filter id="filter0_d_879_28" x="-210" y="-163" width="499" height="937" filterUnits="userSpaceOnUse" color-interpolation-filters="sRGB">
<feFlood flood-opacity="0" result="BackgroundImageFix"/>
<feColorMatrix in="SourceAlpha" type="matrix" values="0 0 0 0 0 0 0 0 0 0 0 0 0 0 0 0 0 0 127 0" result="hardAlpha"/>
<feOffset dy="4"/>
<feGaussianBlur stdDeviation="30"/>
<feColorMatrix type="matrix" values="0 0 0 0 0 0 0 0 0 0 0 0 0 0 0 0 0 0 0.07 0"/>
<feBlend mode="normal" in2="BackgroundImageFix" result="effect1_dropShadow_879_28"/>
<feBlend mode="normal" in="SourceGraphic" in2="effect1_dropShadow_879_28" result="shape"/>
</filter>
<filter id="filter1_d_879_28" x="-170" y="-65" width="415" height="100" filterUnits="userSpaceOnUse" color-interpolation-filters="sRGB">
<feFlood flood-opacity="0" result="BackgroundImageFix"/>
<feColorMatrix in="SourceAlpha" type="matrix" values="0 0 0 0 0 0 0 0 0 0 0 0 0 0 0 0 0 0 127 0" result="hardAlpha"/>
<feOffset dy="4"/>
<feGaussianBlur stdDeviation="10"/>
<feColorMatrix type="matrix" values="0 0 0 0 0 0 0 0 0 0 0 0 0 0 0 0 0 0 0.08 0"/>
<feBlend mode="normal" in2="BackgroundImageFix" result="effect1_dropShadow_879_28"/>
<feBlend mode="normal" in="SourceGraphic" in2="effect1_dropShadow_879_28" result="shape"/>
</filter>
<clipPath id="clip0_879_28">
<rect width="375" height="812" fill="white" transform="translate(-150 -106)"/>
</clipPath>
</defs>
</svg>
