<svg xmlns="http://www.w3.org/2000/svg" viewBox="0 0 32 32" id="bill">
  <path d="M22 5H10a1 1 0 000 2H22a1 1 0 000-2zM22 9H10a1 1 0 000 2H22a1 1 0 000-2z"></path>
  <path d="M6,31a1,1,0,0,0,.66-.25l3.26-1.6,2.52,1.68a1,1,0,0,0,1.1,0L16,29.23l2.45,1.6a1,1,0,0,0,1.1,0l2.52-1.68,3.26,1.6A1,1,0,0,0,27,30V9a1,1,0,0,0-2,0V28.36L22.44,27.1a1,1,0,0,0-1,.07L19,28.8l-2.44-1.6a1,1,0,0,0-1.09,0L13,28.8l-2.45-1.63a1,1,0,0,0-1-.07L7,28.36V3H25V5a1,1,0,0,0,2,0V2a1,1,0,0,0-1-1H6A1,1,0,0,0,5,2V30A1,1,0,0,0,6,31Z"></path>
</svg>
