<svg width="261" height="22" viewBox="0 0 261 22" fill="none" xmlns="http://www.w3.org/2000/svg">
<path d="M5.552 17.408C4.656 17.408 3.792 17.288 2.96 17.048C2.128 16.824 1.448 16.496 0.92 16.064C0.392 15.616 0.128 15.104 0.128 14.528V11.72H0.8C1.04 13.352 1.544 14.528 2.312 15.248C3.08 15.968 4.152 16.328 5.528 16.328C6.456 16.328 7.192 16.128 7.736 15.728C8.28 15.328 8.552 14.752 8.552 14C8.552 13.36 8.352 12.816 7.952 12.368C7.552 11.92 6.928 11.432 6.08 10.904L3.128 9.128C2.056 8.504 1.288 7.856 0.824 7.184C0.376 6.512 0.152 5.728 0.152 4.832C0.152 3.568 0.632 2.568 1.592 1.832C2.568 1.096 3.88 0.727999 5.528 0.727999C6.424 0.727999 7.288 0.847999 8.12 1.088C8.952 1.312 9.632 1.648 10.16 2.096C10.688 2.528 10.952 3.032 10.952 3.608V6.416H10.28C10.008 4.784 9.504 3.608 8.768 2.888C8.032 2.168 7.04 1.808 5.792 1.808C4.928 1.808 4.24 2.016 3.728 2.432C3.232 2.848 2.984 3.416 2.984 4.136C2.984 4.76 3.176 5.28 3.56 5.696C3.96 6.096 4.6 6.552 5.48 7.064L8.432 8.816C9.552 9.472 10.352 10.112 10.832 10.736C11.328 11.344 11.576 12.08 11.576 12.944C11.576 14.336 11.048 15.432 9.992 16.232C8.952 17.016 7.472 17.408 5.552 17.408ZM17.8771 17.24C16.7731 17.24 15.9171 16.944 15.3091 16.352C14.7011 15.744 14.3971 14.872 14.3971 13.736V6.8H12.9571V5.72H14.3971V3.56L15.5971 2.12H17.5171V5.72H20.1571V6.8H17.5171V13.88C17.5171 14.744 17.6211 15.344 17.8291 15.68C18.0371 16 18.3491 16.16 18.7651 16.16C19.2131 16.16 19.6611 16.056 20.1091 15.848C20.2851 15.752 20.4691 15.64 20.6611 15.512L20.9971 16.184C20.7891 16.36 20.5411 16.536 20.2531 16.712C19.5811 17.064 18.7891 17.24 17.8771 17.24ZM25.7135 17.24C24.4175 17.24 23.4095 16.952 22.6895 16.376C21.9855 15.784 21.6335 14.992 21.6335 14C21.6335 13.2 21.8175 12.536 22.1855 12.008C22.5695 11.48 23.2335 11.08 24.1775 10.808C25.1215 10.536 26.4335 10.4 28.1135 10.4H28.4735C28.4735 9.008 28.2815 8.024 27.8975 7.448C27.5135 6.856 26.9455 6.56 26.1935 6.56C25.5695 6.56 25.0575 6.712 24.6575 7.016C24.2575 7.32 23.9695 7.888 23.7935 8.72H22.4735C22.4735 8.176 22.5055 7.712 22.5695 7.328C22.6495 6.944 22.8175 6.608 23.0735 6.32C23.5695 5.76 24.7695 5.48 26.6735 5.48C28.2735 5.48 29.4895 5.904 30.3215 6.752C31.1695 7.584 31.5935 8.84 31.5935 10.52V17H29.5535L28.7135 15.92H28.5935C28.4495 16.144 28.2255 16.368 27.9215 16.592C27.3775 17.024 26.6415 17.24 25.7135 17.24ZM26.4335 16.04C26.7695 16.04 27.0575 15.976 27.2975 15.848C27.5375 15.704 27.7695 15.512 27.9935 15.272C28.2015 15.048 28.3615 14.784 28.4735 14.48V11.48H28.1135C26.9775 11.48 26.1535 11.688 25.6415 12.104C25.1295 12.504 24.8735 13.136 24.8735 14C24.8735 14.656 25.0095 15.16 25.2815 15.512C25.5535 15.864 25.9375 16.04 26.4335 16.04ZM38.2678 17.24C37.1638 17.24 36.3078 16.944 35.6998 16.352C35.0918 15.744 34.7878 14.872 34.7878 13.736V6.8H33.3478V5.72H34.7878V3.56L35.9878 2.12H37.9078V5.72H40.5478V6.8H37.9078V13.88C37.9078 14.744 38.0118 15.344 38.2198 15.68C38.4278 16 38.7398 16.16 39.1558 16.16C39.6038 16.16 40.0518 16.056 40.4998 15.848C40.6758 15.752 40.8598 15.64 41.0518 15.512L41.3878 16.184C41.1798 16.36 40.9318 16.536 40.6438 16.712C39.9718 17.064 39.1798 17.24 38.2678 17.24ZM47.7361 17.24C46.6321 17.24 45.6641 16.984 44.8321 16.472C44.0001 15.96 43.3521 15.264 42.8881 14.384C42.4401 13.488 42.2161 12.48 42.2161 11.36C42.2161 10.112 42.4401 9.048 42.8881 8.168C43.3521 7.288 43.9841 6.624 44.7841 6.176C45.5841 5.712 46.4881 5.48 47.4961 5.48C48.4881 5.48 49.3841 5.68 50.1841 6.08C50.9841 6.48 51.6161 7.048 52.0801 7.784C52.5441 8.504 52.7761 9.336 52.7761 10.28C52.7761 10.584 52.7601 10.928 52.7281 11.312L52.6801 11.792H45.4561C45.4561 13.312 45.6881 14.424 46.1521 15.128C46.6161 15.816 47.2641 16.16 48.0961 16.16C48.8641 16.16 49.5041 15.992 50.0161 15.656C50.5441 15.304 51.0481 14.808 51.5281 14.168L52.2721 14.72C51.8081 15.44 51.2241 16.04 50.5201 16.52C49.8321 17 48.9041 17.24 47.7361 17.24ZM49.5361 10.712C49.5361 9.208 49.3601 8.144 49.0081 7.52C48.6561 6.88 48.1521 6.56 47.4961 6.56C46.8881 6.56 46.3921 6.888 46.0081 7.544C45.6401 8.184 45.4561 9.24 45.4561 10.712H49.5361ZM61.8191 4.28C61.8191 3.464 61.7071 2.864 61.4831 2.48C61.2591 2.08 60.8111 1.88 60.1391 1.88H59.8991V1.16H69.9551C71.3151 1.16 71.9951 1.8 71.9951 3.08V5.12H71.2751C71.2751 4.112 71.0191 3.384 70.5071 2.936C70.0111 2.472 69.2671 2.24 68.2751 2.24H64.9391V8.36H70.2191V9.44H64.9391V17H61.8191V4.28ZM78.0693 17.24C76.9013 17.24 75.8773 16.984 74.9973 16.472C74.1333 15.944 73.4693 15.24 73.0053 14.36C72.5413 13.464 72.3093 12.464 72.3093 11.36C72.3093 10.256 72.5413 9.264 73.0053 8.384C73.4693 7.488 74.1333 6.784 74.9973 6.272C75.8773 5.744 76.9013 5.48 78.0693 5.48C79.2373 5.48 80.2533 5.744 81.1173 6.272C81.9973 6.784 82.6693 7.488 83.1333 8.384C83.5973 9.264 83.8293 10.256 83.8293 11.36C83.8293 12.464 83.5973 13.464 83.1333 14.36C82.6693 15.24 81.9973 15.944 81.1173 16.472C80.2533 16.984 79.2373 17.24 78.0693 17.24ZM78.0693 16.16C78.8853 16.16 79.5093 15.72 79.9413 14.84C80.3733 13.96 80.5893 12.8 80.5893 11.36C80.5893 9.92 80.3733 8.76 79.9413 7.88C79.5093 7 78.8853 6.56 78.0693 6.56C77.2533 6.56 76.6293 7 76.1973 7.88C75.7653 8.76 75.5493 9.92 75.5493 11.36C75.5493 12.8 75.7653 13.96 76.1973 14.84C76.6293 15.72 77.2533 16.16 78.0693 16.16ZM93.8315 5.96C94.1195 6.168 94.3275 6.4 94.4555 6.656C94.5835 6.896 94.6475 7.024 94.6475 7.04L93.4235 7.976C93.3115 7.832 93.1675 7.68 92.9915 7.52C92.6395 7.2 92.2315 7.04 91.7675 7.04C90.8395 7.04 90.1275 7.288 89.6315 7.784L89.6795 8.144C89.7115 8.432 89.7275 8.696 89.7275 8.936V17H86.6075V8.84C86.6075 8.024 86.4955 7.424 86.2715 7.04C86.0635 6.64 85.6235 6.44 84.9515 6.44H84.7115V5.72H87.0875C87.6315 5.72 88.0555 5.792 88.3595 5.936C88.6795 6.064 88.9275 6.288 89.1035 6.608C89.9675 5.856 90.9755 5.48 92.1275 5.48C92.8155 5.48 93.3835 5.64 93.8315 5.96ZM100.916 17.24C99.8118 17.24 98.8438 16.984 98.0118 16.472C97.1798 15.96 96.5318 15.264 96.0678 14.384C95.6198 13.488 95.3958 12.48 95.3958 11.36C95.3958 10.112 95.6198 9.048 96.0678 8.168C96.5318 7.288 97.1638 6.624 97.9638 6.176C98.7638 5.712 99.6678 5.48 100.676 5.48C101.668 5.48 102.564 5.68 103.364 6.08C104.164 6.48 104.796 7.048 105.26 7.784C105.724 8.504 105.956 9.336 105.956 10.28C105.956 10.584 105.94 10.928 105.908 11.312L105.86 11.792H98.6358C98.6358 13.312 98.8678 14.424 99.3318 15.128C99.7958 15.816 100.444 16.16 101.276 16.16C102.044 16.16 102.684 15.992 103.196 15.656C103.724 15.304 104.228 14.808 104.708 14.168L105.452 14.72C104.988 15.44 104.404 16.04 103.7 16.52C103.012 17 102.084 17.24 100.916 17.24ZM102.716 10.712C102.716 9.208 102.54 8.144 102.188 7.52C101.836 6.88 101.332 6.56 100.676 6.56C100.068 6.56 99.5718 6.888 99.1878 7.544C98.8198 8.184 98.6358 9.24 98.6358 10.712H102.716ZM112.215 17.24C110.343 17.24 109.055 16.912 108.351 16.256C108.095 16.016 107.935 15.68 107.871 15.248C107.807 14.8 107.775 14.184 107.775 13.4H108.615C108.759 14.232 109.087 14.904 109.599 15.416C110.111 15.912 110.823 16.16 111.735 16.16C113.335 16.16 114.135 15.616 114.135 14.528C114.135 14.112 113.959 13.768 113.607 13.496C113.271 13.224 112.727 12.92 111.975 12.584L110.727 12.056C109.703 11.608 108.935 11.12 108.423 10.592C107.911 10.064 107.655 9.424 107.655 8.672C107.655 7.664 108.071 6.88 108.903 6.32C109.751 5.76 110.855 5.48 112.215 5.48C114.087 5.48 115.375 5.808 116.079 6.464C116.335 6.704 116.495 7.04 116.559 7.472C116.623 7.904 116.655 8.52 116.655 9.32H115.815C115.671 8.488 115.343 7.824 114.831 7.328C114.319 6.816 113.607 6.56 112.695 6.56C112.007 6.56 111.495 6.712 111.159 7.016C110.823 7.304 110.655 7.696 110.655 8.192C110.655 8.592 110.791 8.928 111.063 9.2C111.351 9.456 111.783 9.712 112.359 9.968L113.799 10.568C114.983 11.064 115.831 11.568 116.343 12.08C116.871 12.576 117.135 13.232 117.135 14.048C117.135 15.072 116.679 15.864 115.767 16.424C114.871 16.968 113.687 17.24 112.215 17.24ZM123.369 17.24C122.265 17.24 121.409 16.944 120.801 16.352C120.193 15.744 119.889 14.872 119.889 13.736V6.8H118.449V5.72H119.889V3.56L121.089 2.12H123.009V5.72H125.649V6.8H123.009V13.88C123.009 14.744 123.113 15.344 123.321 15.68C123.529 16 123.841 16.16 124.257 16.16C124.705 16.16 125.153 16.056 125.601 15.848C125.777 15.752 125.961 15.64 126.153 15.512L126.489 16.184C126.281 16.36 126.033 16.536 125.745 16.712C125.073 17.064 124.281 17.24 123.369 17.24ZM134.71 4.28C134.71 3.464 134.598 2.864 134.374 2.48C134.15 2.08 133.702 1.88 133.03 1.88H132.79V1.16H139.318C142.55 1.16 145.006 1.848 146.686 3.224C148.382 4.584 149.23 6.504 149.23 8.984C149.23 10.568 148.87 11.968 148.15 13.184C147.446 14.384 146.39 15.32 144.982 15.992C143.59 16.664 141.91 17 139.942 17H134.71V4.28ZM139.87 16.04C140.99 16.04 141.982 15.76 142.846 15.2C143.726 14.64 144.406 13.832 144.886 12.776C145.382 11.72 145.63 10.488 145.63 9.08C145.63 7.688 145.382 6.472 144.886 5.432C144.406 4.376 143.726 3.56 142.846 2.984C141.966 2.408 140.958 2.12 139.822 2.12H139.63C139.102 2.12 138.678 2.152 138.358 2.216L137.83 2.288V15.872L138.358 15.968C138.694 16.016 139.118 16.04 139.63 16.04H139.87ZM156.51 17.24C155.406 17.24 154.438 16.984 153.606 16.472C152.774 15.96 152.126 15.264 151.662 14.384C151.214 13.488 150.99 12.48 150.99 11.36C150.99 10.112 151.214 9.048 151.662 8.168C152.126 7.288 152.758 6.624 153.558 6.176C154.358 5.712 155.262 5.48 156.27 5.48C157.262 5.48 158.158 5.68 158.958 6.08C159.758 6.48 160.39 7.048 160.854 7.784C161.318 8.504 161.55 9.336 161.55 10.28C161.55 10.584 161.534 10.928 161.502 11.312L161.454 11.792H154.23C154.23 13.312 154.462 14.424 154.926 15.128C155.39 15.816 156.038 16.16 156.87 16.16C157.638 16.16 158.278 15.992 158.79 15.656C159.318 15.304 159.822 14.808 160.302 14.168L161.046 14.72C160.582 15.44 159.998 16.04 159.294 16.52C158.606 17 157.678 17.24 156.51 17.24ZM158.31 10.712C158.31 9.208 158.134 8.144 157.782 7.52C157.43 6.88 156.926 6.56 156.27 6.56C155.662 6.56 155.166 6.888 154.782 7.544C154.414 8.184 154.23 9.24 154.23 10.712H158.31ZM164.233 8.84C164.233 8.024 164.121 7.424 163.896 7.04C163.689 6.64 163.249 6.44 162.577 6.44H162.337V5.72H164.713C165.273 5.72 165.705 5.8 166.009 5.96C166.313 6.104 166.553 6.36 166.729 6.728C167.673 5.896 168.761 5.48 169.993 5.48C171.609 5.48 172.849 6.032 173.713 7.136C174.593 8.224 175.033 9.632 175.033 11.36C175.033 13.088 174.585 14.504 173.689 15.608C172.809 16.696 171.537 17.24 169.873 17.24C169.217 17.24 168.601 17.12 168.025 16.88C167.769 16.784 167.545 16.664 167.353 16.52V21.56H164.233V8.84ZM169.393 16.16C170.993 16.16 171.793 14.56 171.793 11.36C171.793 9.888 171.609 8.72 171.241 7.856C170.873 6.992 170.297 6.56 169.513 6.56C168.617 6.56 167.841 6.888 167.185 7.544L167.257 7.88C167.321 8.072 167.353 8.344 167.353 8.696V15.44C167.529 15.584 167.721 15.704 167.929 15.8C168.377 16.04 168.865 16.16 169.393 16.16ZM180.706 17.24C179.41 17.24 178.402 16.952 177.682 16.376C176.978 15.784 176.626 14.992 176.626 14C176.626 13.2 176.81 12.536 177.178 12.008C177.562 11.48 178.226 11.08 179.17 10.808C180.114 10.536 181.426 10.4 183.106 10.4H183.466C183.466 9.008 183.274 8.024 182.89 7.448C182.506 6.856 181.938 6.56 181.186 6.56C180.562 6.56 180.05 6.712 179.65 7.016C179.25 7.32 178.962 7.888 178.786 8.72H177.466C177.466 8.176 177.498 7.712 177.562 7.328C177.642 6.944 177.81 6.608 178.066 6.32C178.562 5.76 179.762 5.48 181.666 5.48C183.266 5.48 184.482 5.904 185.314 6.752C186.162 7.584 186.586 8.84 186.586 10.52V17H184.546L183.706 15.92H183.586C183.442 16.144 183.218 16.368 182.914 16.592C182.37 17.024 181.634 17.24 180.706 17.24ZM181.426 16.04C181.762 16.04 182.05 15.976 182.29 15.848C182.53 15.704 182.762 15.512 182.986 15.272C183.194 15.048 183.354 14.784 183.466 14.48V11.48H183.106C181.97 11.48 181.146 11.688 180.634 12.104C180.122 12.504 179.866 13.136 179.866 14C179.866 14.656 180.002 15.16 180.274 15.512C180.546 15.864 180.93 16.04 181.426 16.04ZM196.98 5.96C197.268 6.168 197.476 6.4 197.604 6.656C197.732 6.896 197.796 7.024 197.796 7.04L196.572 7.976C196.46 7.832 196.316 7.68 196.14 7.52C195.788 7.2 195.38 7.04 194.916 7.04C193.988 7.04 193.276 7.288 192.78 7.784L192.828 8.144C192.86 8.432 192.876 8.696 192.876 8.936V17H189.756V8.84C189.756 8.024 189.644 7.424 189.42 7.04C189.212 6.64 188.772 6.44 188.1 6.44H187.86V5.72H190.236C190.78 5.72 191.204 5.792 191.508 5.936C191.828 6.064 192.076 6.288 192.252 6.608C193.116 5.856 194.124 5.48 195.276 5.48C195.964 5.48 196.532 5.64 196.98 5.96ZM203.291 17.24C202.187 17.24 201.331 16.944 200.723 16.352C200.115 15.744 199.811 14.872 199.811 13.736V6.8H198.371V5.72H199.811V3.56L201.011 2.12H202.931V5.72H205.571V6.8H202.931V13.88C202.931 14.744 203.035 15.344 203.243 15.68C203.451 16 203.763 16.16 204.179 16.16C204.627 16.16 205.075 16.056 205.523 15.848C205.699 15.752 205.883 15.64 206.075 15.512L206.411 16.184C206.203 16.36 205.955 16.536 205.667 16.712C204.995 17.064 204.203 17.24 203.291 17.24ZM208.272 8.84C208.272 8.024 208.16 7.424 207.936 7.04C207.728 6.64 207.288 6.44 206.616 6.44H206.376V5.72H208.752C209.792 5.72 210.472 6.024 210.792 6.632H210.888C211.768 5.864 212.776 5.48 213.912 5.48C214.696 5.48 215.376 5.632 215.952 5.936C216.544 6.224 216.968 6.528 217.224 6.848C217.608 6.432 218.064 6.104 218.592 5.864C219.12 5.608 219.8 5.48 220.632 5.48C223.432 5.48 224.832 6.952 224.832 9.896V17H221.712V9.872C221.712 8.768 221.536 7.96 221.184 7.448C220.832 6.936 220.368 6.68 219.792 6.68C219.36 6.68 218.96 6.768 218.592 6.944C218.224 7.104 217.936 7.32 217.728 7.592C217.76 7.656 217.824 7.832 217.92 8.12C218.048 8.6 218.112 9.192 218.112 9.896V17H214.992V9.872C214.992 8.768 214.816 7.96 214.464 7.448C214.112 6.936 213.648 6.68 213.072 6.68C212.736 6.68 212.384 6.784 212.016 6.992C211.664 7.184 211.4 7.4 211.224 7.64L211.296 7.976C211.36 8.168 211.392 8.48 211.392 8.912V17H208.272V8.84ZM232.588 17.24C231.484 17.24 230.516 16.984 229.684 16.472C228.852 15.96 228.204 15.264 227.74 14.384C227.292 13.488 227.068 12.48 227.068 11.36C227.068 10.112 227.292 9.048 227.74 8.168C228.204 7.288 228.836 6.624 229.636 6.176C230.436 5.712 231.34 5.48 232.348 5.48C233.34 5.48 234.236 5.68 235.036 6.08C235.836 6.48 236.468 7.048 236.932 7.784C237.396 8.504 237.628 9.336 237.628 10.28C237.628 10.584 237.612 10.928 237.58 11.312L237.532 11.792H230.308C230.308 13.312 230.54 14.424 231.004 15.128C231.468 15.816 232.116 16.16 232.948 16.16C233.716 16.16 234.356 15.992 234.868 15.656C235.396 15.304 235.9 14.808 236.38 14.168L237.124 14.72C236.66 15.44 236.076 16.04 235.372 16.52C234.684 17 233.756 17.24 232.588 17.24ZM234.388 10.712C234.388 9.208 234.212 8.144 233.86 7.52C233.508 6.88 233.004 6.56 232.348 6.56C231.74 6.56 231.244 6.888 230.86 7.544C230.492 8.184 230.308 9.24 230.308 10.712H234.388ZM240.311 8.84C240.311 8.024 240.199 7.424 239.975 7.04C239.767 6.64 239.327 6.44 238.655 6.44H238.415V5.72H240.791C241.335 5.72 241.759 5.792 242.063 5.936C242.383 6.064 242.631 6.288 242.807 6.608C243.623 5.856 244.791 5.48 246.311 5.48C247.831 5.48 248.967 5.84 249.719 6.56C250.487 7.264 250.871 8.376 250.871 9.896V17H247.751V9.872C247.751 8.768 247.543 7.96 247.127 7.448C246.727 6.936 246.175 6.68 245.471 6.68C244.975 6.68 244.535 6.752 244.151 6.896C243.783 7.024 243.487 7.2 243.263 7.424L243.335 7.76C243.399 7.952 243.431 8.264 243.431 8.696V17H240.311V8.84ZM257.619 17.24C256.515 17.24 255.659 16.944 255.051 16.352C254.443 15.744 254.139 14.872 254.139 13.736V6.8H252.699V5.72H254.139V3.56L255.339 2.12H257.259V5.72H259.899V6.8H257.259V13.88C257.259 14.744 257.363 15.344 257.571 15.68C257.779 16 258.091 16.16 258.507 16.16C258.955 16.16 259.403 16.056 259.851 15.848C260.027 15.752 260.211 15.64 260.403 15.512L260.739 16.184C260.531 16.36 260.283 16.536 259.995 16.712C259.323 17.064 258.531 17.24 257.619 17.24Z" fill="#1C796F"/>
</svg>
