<svg width="491" height="192" viewBox="0 0 491 192" fill="none" xmlns="http://www.w3.org/2000/svg">
<path d="M192 127L244.917 0L297.833 127H192Z" fill="#00AA8F"/>
<path opacity="0.2" d="M297.833 127L244.917 0L192 127L244.917 1.32292L297.833 127Z" fill="white"/>
<path d="M267.546 90.2373L255.5 96.2602V88.7284L262.26 84.2222L259.324 79.8194L255.5 82.3686V68.7916H234.334V91.5086L228.267 85.4418L224.525 89.1831L234.334 98.9913V127H255.5V102.177L269.913 94.9709L267.546 90.2373Z" fill="#007367"/>
<path opacity="0.1" d="M192.551 125.677L192 127H297.833L297.282 125.677H192.551Z" fill="#010101"/>
<path d="M286.494 99.7855L255.5 68.7916V82.3686L259.324 79.8194L262.259 84.2222L255.5 88.7284V96.2602L267.546 90.2373L269.913 94.9709L255.5 102.177V127H297.833L286.494 99.7855Z" fill="url(#paint0_linear_2183_2)"/>
<path opacity="0.1" d="M255.5 96.2602V88.7284L262.26 84.2222L259.324 79.8194L255.5 82.3686V68.7916H244.917V127H255.5V102.177L269.913 94.9709L267.546 90.2373L255.5 96.2602Z" fill="#010101"/>
<path d="M192 127L244.917 0L297.833 127H192Z" fill="url(#paint1_linear_2183_2)"/>
<path d="M10.219 184.227C8.5309 184.227 6.90309 184.002 5.33558 183.553C3.76806 183.134 2.48692 182.52 1.49215 181.711C0.497384 180.872 0 179.914 0 178.835V173.578H1.26607C1.71824 176.634 2.66779 178.835 4.11473 180.183C5.56166 181.531 7.58134 182.205 10.1738 182.205C11.9222 182.205 13.3088 181.831 14.3337 181.082C15.3586 180.333 15.8711 179.255 15.8711 177.847C15.8711 176.649 15.4943 175.63 14.7407 174.791C13.9871 173.953 12.8114 173.039 11.2138 172.051L5.6521 168.726C3.63241 167.558 2.18548 166.344 1.31129 165.086C0.46724 163.828 0.0452167 162.361 0.0452167 160.683C0.0452167 158.317 0.949552 156.445 2.75822 155.067C4.59704 153.689 7.06889 153 10.1738 153C11.8619 153 13.4897 153.225 15.0572 153.674C16.6247 154.093 17.9058 154.722 18.9006 155.561C19.8954 156.37 20.3928 157.313 20.3928 158.392V163.649H19.1267C18.6142 160.593 17.6647 158.392 16.278 157.044C14.8914 155.696 13.0224 155.022 10.6712 155.022C9.04335 155.022 7.74714 155.411 6.78252 156.19C5.84804 156.969 5.3808 158.032 5.3808 159.38C5.3808 160.548 5.74253 161.522 6.466 162.301C7.21961 163.05 8.42539 163.903 10.0833 164.862L15.645 168.142C17.7551 169.37 19.2623 170.568 20.1667 171.736C21.1012 172.874 21.5684 174.252 21.5684 175.87C21.5684 178.476 20.5736 180.528 18.5841 182.025C16.6247 183.493 13.8363 184.227 10.219 184.227Z" fill="#1C796F"/>
<path d="M33.4399 183.912C31.3599 183.912 29.7472 183.358 28.6017 182.25C27.4562 181.112 26.8835 179.479 26.8835 177.353V164.368H24.1705V162.346H26.8835V158.302L29.1443 155.606H32.7617V162.346H37.7355V164.368H32.7617V177.622C32.7617 179.24 32.9576 180.363 33.3495 180.992C33.7414 181.591 34.3292 181.891 35.1129 181.891C35.957 181.891 36.801 181.696 37.6451 181.306C37.9767 181.127 38.3233 180.917 38.6851 180.677L39.3181 181.935C38.9262 182.265 38.459 182.594 37.9164 182.924C36.6503 183.583 35.1582 183.912 33.4399 183.912Z" fill="#1C796F"/>
<path d="M48.2039 183.912C45.7622 183.912 43.8631 183.373 42.5066 182.295C41.1802 181.187 40.517 179.704 40.517 177.847C40.517 176.349 40.8637 175.106 41.557 174.118C42.2805 173.129 43.5315 172.38 45.31 171.871C47.0886 171.362 49.5604 171.107 52.7256 171.107H53.4038C53.4038 168.501 53.0421 166.659 52.3186 165.581C51.5952 164.472 50.525 163.918 49.1082 163.918C47.9326 163.918 46.968 164.203 46.2144 164.772C45.4607 165.341 44.9181 166.404 44.5866 167.962H42.0996C42.0996 166.944 42.1599 166.075 42.2805 165.356C42.4312 164.637 42.7477 164.008 43.2301 163.469C44.1645 162.421 46.4254 161.896 50.0126 161.896C53.027 161.896 55.318 162.69 56.8855 164.278C58.4832 165.835 59.282 168.187 59.282 171.332V183.463H55.4386L53.856 181.441H53.6299C53.3586 181.861 52.9366 182.28 52.3638 182.699C51.3389 183.508 49.9523 183.912 48.2039 183.912ZM49.5604 181.666C50.1934 181.666 50.736 181.546 51.1882 181.306C51.6404 181.037 52.0775 180.677 52.4995 180.228C52.8914 179.809 53.1928 179.315 53.4038 178.745V173.129H52.7256C50.5853 173.129 49.0329 173.518 48.0682 174.297C47.1036 175.046 46.6213 176.229 46.6213 177.847C46.6213 179.075 46.8775 180.018 47.39 180.677C47.9025 181.336 48.6259 181.666 49.5604 181.666Z" fill="#1C796F"/>
<path d="M71.8565 183.912C69.7765 183.912 68.1638 183.358 67.0183 182.25C65.8728 181.112 65.3001 179.479 65.3001 177.353V164.368H62.5871V162.346H65.3001V158.302L67.5609 155.606H71.1783V162.346H76.1521V164.368H71.1783V177.622C71.1783 179.24 71.3742 180.363 71.7661 180.992C72.158 181.591 72.7458 181.891 73.5295 181.891C74.3736 181.891 75.2176 181.696 76.0617 181.306C76.3933 181.127 76.7399 180.917 77.1017 180.677L77.7347 181.935C77.3428 182.265 76.8756 182.594 76.333 182.924C75.0669 183.583 73.5747 183.912 71.8565 183.912Z" fill="#1C796F"/>
<path d="M89.6952 183.912C87.6152 183.912 85.7915 183.433 84.224 182.475C82.6565 181.516 81.4356 180.213 80.5614 178.566C79.7174 176.888 79.2954 175.001 79.2954 172.904C79.2954 170.568 79.7174 168.576 80.5614 166.929C81.4356 165.281 82.6263 164.038 84.1336 163.199C85.6408 162.331 87.344 161.896 89.2431 161.896C91.112 161.896 92.8001 162.271 94.3073 163.02C95.8146 163.768 97.0053 164.832 97.8795 166.21C98.7537 167.558 99.1907 169.115 99.1907 170.882C99.1907 171.452 99.1606 172.096 99.1003 172.815L99.0099 173.713H85.3996C85.3996 176.559 85.8367 178.641 86.7109 179.959C87.5851 181.247 88.806 181.891 90.3735 181.891C91.8204 181.891 93.0262 181.576 93.9908 180.947C94.9856 180.288 95.9351 179.359 96.8395 178.161L98.2412 179.195C97.367 180.543 96.2667 181.666 94.9404 182.565C93.6442 183.463 91.8958 183.912 89.6952 183.912ZM93.0865 171.691C93.0865 168.876 92.7549 166.884 92.0917 165.715C91.4285 164.517 90.479 163.918 89.2431 163.918C88.0976 163.918 87.1631 164.532 86.4396 165.76C85.7463 166.959 85.3996 168.935 85.3996 171.691H93.0865Z" fill="#1C796F"/>
<path d="M116.228 159.65C116.228 158.122 116.017 156.999 115.595 156.28C115.173 155.531 114.329 155.157 113.063 155.157H112.611V153.809H131.556C134.119 153.809 135.4 155.007 135.4 157.403V161.222H134.043C134.043 159.335 133.561 157.972 132.596 157.134C131.662 156.265 130.26 155.831 128.391 155.831H122.106V167.288H132.054V169.31H122.106V183.463H116.228V159.65Z" fill="#1C796F"/>
<path d="M146.844 183.912C144.643 183.912 142.714 183.433 141.056 182.475C139.428 181.486 138.177 180.168 137.303 178.521C136.429 176.843 135.992 174.971 135.992 172.904C135.992 170.838 136.429 168.98 137.303 167.333C138.177 165.656 139.428 164.338 141.056 163.379C142.714 162.391 144.643 161.896 146.844 161.896C149.044 161.896 150.959 162.391 152.586 163.379C154.244 164.338 155.51 165.656 156.385 167.333C157.259 168.98 157.696 170.838 157.696 172.904C157.696 174.971 157.259 176.843 156.385 178.521C155.51 180.168 154.244 181.486 152.586 182.475C150.959 183.433 149.044 183.912 146.844 183.912ZM146.844 181.891C148.381 181.891 149.557 181.067 150.371 179.419C151.185 177.772 151.592 175.6 151.592 172.904C151.592 170.209 151.185 168.037 150.371 166.389C149.557 164.742 148.381 163.918 146.844 163.918C145.307 163.918 144.131 164.742 143.317 166.389C142.503 168.037 142.096 170.209 142.096 172.904C142.096 175.6 142.503 177.772 143.317 179.419C144.131 181.067 145.307 181.891 146.844 181.891Z" fill="#1C796F"/>
<path d="M176.54 162.795C177.083 163.184 177.475 163.619 177.716 164.098C177.957 164.547 178.078 164.787 178.078 164.817L175.772 166.569C175.561 166.3 175.289 166.015 174.958 165.715C174.295 165.116 173.526 164.817 172.652 164.817C170.903 164.817 169.562 165.281 168.627 166.21L168.718 166.884C168.778 167.423 168.808 167.917 168.808 168.366V183.463H162.93V168.187C162.93 166.659 162.719 165.536 162.297 164.817C161.905 164.068 161.076 163.694 159.81 163.694H159.358V162.346H163.834C164.859 162.346 165.658 162.48 166.231 162.75C166.834 162.99 167.301 163.409 167.633 164.008C169.26 162.6 171.16 161.896 173.33 161.896C174.626 161.896 175.696 162.196 176.54 162.795Z" fill="#1C796F"/>
<path d="M189.887 183.912C187.807 183.912 185.984 183.433 184.416 182.475C182.849 181.516 181.628 180.213 180.754 178.566C179.91 176.888 179.488 175.001 179.488 172.904C179.488 170.568 179.91 168.576 180.754 166.929C181.628 165.281 182.819 164.038 184.326 163.199C185.833 162.331 187.536 161.896 189.435 161.896C191.304 161.896 192.992 162.271 194.5 163.02C196.007 163.768 197.197 164.832 198.072 166.21C198.946 167.558 199.383 169.115 199.383 170.882C199.383 171.452 199.353 172.096 199.293 172.815L199.202 173.713H185.592C185.592 176.559 186.029 178.641 186.903 179.959C187.777 181.247 188.998 181.891 190.566 181.891C192.013 181.891 193.218 181.576 194.183 180.947C195.178 180.288 196.127 179.359 197.032 178.161L198.433 179.195C197.559 180.543 196.459 181.666 195.133 182.565C193.836 183.463 192.088 183.912 189.887 183.912ZM193.279 171.691C193.279 168.876 192.947 166.884 192.284 165.715C191.621 164.517 190.671 163.918 189.435 163.918C188.29 163.918 187.355 164.532 186.632 165.76C185.939 166.959 185.592 168.935 185.592 171.691H193.279Z" fill="#1C796F"/>
<path d="M211.175 183.912C207.648 183.912 205.221 183.298 203.895 182.07C203.413 181.621 203.111 180.992 202.991 180.183C202.87 179.344 202.81 178.191 202.81 176.724H204.392C204.664 178.281 205.282 179.539 206.246 180.498C207.211 181.426 208.552 181.891 210.271 181.891C213.285 181.891 214.792 180.872 214.792 178.835C214.792 178.056 214.461 177.412 213.798 176.903C213.165 176.394 212.14 175.825 210.723 175.196L208.372 174.207C206.442 173.369 204.995 172.455 204.031 171.467C203.066 170.478 202.584 169.28 202.584 167.872C202.584 165.985 203.368 164.517 204.935 163.469C206.533 162.421 208.613 161.896 211.175 161.896C214.702 161.896 217.129 162.51 218.455 163.738C218.937 164.188 219.239 164.817 219.359 165.626C219.48 166.434 219.54 167.588 219.54 169.085H217.958C217.686 167.528 217.068 166.285 216.104 165.356C215.139 164.397 213.798 163.918 212.079 163.918C210.783 163.918 209.818 164.203 209.185 164.772C208.552 165.311 208.236 166.045 208.236 166.974C208.236 167.722 208.492 168.351 209.005 168.861C209.547 169.34 210.361 169.819 211.446 170.298L214.159 171.422C216.39 172.35 217.988 173.294 218.952 174.252C219.947 175.181 220.444 176.409 220.444 177.937C220.444 179.854 219.585 181.336 217.867 182.385C216.179 183.403 213.948 183.912 211.175 183.912Z" fill="#1C796F"/>
<path d="M232.191 183.912C230.111 183.912 228.498 183.358 227.352 182.25C226.207 181.112 225.634 179.479 225.634 177.353V164.368H222.921V162.346H225.634V158.302L227.895 155.606H231.512V162.346H236.486V164.368H231.512V177.622C231.512 179.24 231.708 180.363 232.1 180.992C232.492 181.591 233.08 181.891 233.864 181.891C234.708 181.891 235.552 181.696 236.396 181.306C236.727 181.127 237.074 180.917 237.436 180.677L238.069 181.935C237.677 182.265 237.21 182.594 236.667 182.924C235.401 183.583 233.909 183.912 232.191 183.912Z" fill="#1C796F"/>
<path d="M253.556 159.65C253.556 158.122 253.345 156.999 252.923 156.28C252.501 155.531 251.657 155.157 250.391 155.157H249.939V153.809H262.238C268.327 153.809 272.954 155.097 276.119 157.673C279.315 160.219 280.912 163.813 280.912 168.456C280.912 171.422 280.234 174.043 278.878 176.319C277.551 178.566 275.562 180.318 272.909 181.576C270.286 182.834 267.121 183.463 263.413 183.463H253.556V159.65ZM263.278 181.666C265.388 181.666 267.257 181.142 268.885 180.093C270.543 179.045 271.824 177.532 272.728 175.555C273.663 173.578 274.13 171.272 274.13 168.636C274.13 166.03 273.663 163.753 272.728 161.806C271.824 159.829 270.543 158.302 268.885 157.224C267.227 156.145 265.328 155.606 263.187 155.606H262.826C261.831 155.606 261.032 155.666 260.429 155.786L259.434 155.921V181.351L260.429 181.531C261.062 181.621 261.861 181.666 262.826 181.666H263.278Z" fill="#1C796F"/>
<path d="M294.628 183.912C292.548 183.912 290.724 183.433 289.157 182.475C287.589 181.516 286.368 180.213 285.494 178.566C284.65 176.888 284.228 175.001 284.228 172.904C284.228 170.568 284.65 168.576 285.494 166.929C286.368 165.281 287.559 164.038 289.066 163.199C290.573 162.331 292.277 161.896 294.176 161.896C296.045 161.896 297.733 162.271 299.24 163.02C300.747 163.768 301.938 164.832 302.812 166.21C303.686 167.558 304.123 169.115 304.123 170.882C304.123 171.452 304.093 172.096 304.033 172.815L303.943 173.713H290.332C290.332 176.559 290.769 178.641 291.644 179.959C292.518 181.247 293.739 181.891 295.306 181.891C296.753 181.891 297.959 181.576 298.923 180.947C299.918 180.288 300.868 179.359 301.772 178.161L303.174 179.195C302.3 180.543 301.199 181.666 299.873 182.565C298.577 183.463 296.828 183.912 294.628 183.912ZM298.019 171.691C298.019 168.876 297.688 166.884 297.024 165.715C296.361 164.517 295.412 163.918 294.176 163.918C293.03 163.918 292.096 164.532 291.372 165.76C290.679 166.959 290.332 168.935 290.332 171.691H298.019Z" fill="#1C796F"/>
<path d="M309.178 168.187C309.178 166.659 308.967 165.536 308.545 164.817C308.153 164.068 307.324 163.694 306.058 163.694H305.606V162.346H310.082C311.138 162.346 311.951 162.495 312.524 162.795C313.097 163.065 313.549 163.544 313.881 164.233C315.659 162.675 317.709 161.896 320.03 161.896C323.075 161.896 325.411 162.93 327.039 164.997C328.697 167.033 329.526 169.669 329.526 172.904C329.526 176.139 328.682 178.79 326.994 180.857C325.336 182.894 322.939 183.912 319.804 183.912C318.568 183.912 317.408 183.688 316.322 183.238C315.84 183.059 315.418 182.834 315.056 182.565V192H309.178V168.187ZM318.9 181.891C321.914 181.891 323.421 178.895 323.421 172.904C323.421 170.149 323.075 167.962 322.381 166.344C321.688 164.727 320.603 163.918 319.126 163.918C317.438 163.918 315.976 164.532 314.74 165.76L314.875 166.389C314.996 166.749 315.056 167.258 315.056 167.917V180.543C315.388 180.812 315.75 181.037 316.142 181.217C316.986 181.666 317.905 181.891 318.9 181.891Z" fill="#1C796F"/>
<path d="M340.214 183.912C337.772 183.912 335.873 183.373 334.517 182.295C333.19 181.187 332.527 179.704 332.527 177.847C332.527 176.349 332.874 175.106 333.567 174.118C334.291 173.129 335.542 172.38 337.32 171.871C339.099 171.362 341.571 171.107 344.736 171.107H345.414C345.414 168.501 345.052 166.659 344.329 165.581C343.605 164.472 342.535 163.918 341.118 163.918C339.943 163.918 338.978 164.203 338.225 164.772C337.471 165.341 336.928 166.404 336.597 167.962H334.11C334.11 166.944 334.17 166.075 334.291 165.356C334.441 164.637 334.758 164.008 335.24 163.469C336.175 162.421 338.436 161.896 342.023 161.896C345.037 161.896 347.328 162.69 348.896 164.278C350.493 165.835 351.292 168.187 351.292 171.332V183.463H347.449L345.866 181.441H345.64C345.369 181.861 344.947 182.28 344.374 182.699C343.349 183.508 341.962 183.912 340.214 183.912ZM341.571 181.666C342.204 181.666 342.746 181.546 343.198 181.306C343.651 181.037 344.088 180.677 344.51 180.228C344.902 179.809 345.203 179.315 345.414 178.745V173.129H344.736C342.596 173.129 341.043 173.518 340.078 174.297C339.114 175.046 338.632 176.229 338.632 177.847C338.632 179.075 338.888 180.018 339.4 180.677C339.913 181.336 340.636 181.666 341.571 181.666Z" fill="#1C796F"/>
<path d="M370.875 162.795C371.418 163.184 371.81 163.619 372.051 164.098C372.292 164.547 372.413 164.787 372.413 164.817L370.107 166.569C369.896 166.3 369.624 166.015 369.293 165.715C368.63 165.116 367.861 164.817 366.987 164.817C365.238 164.817 363.897 165.281 362.962 166.21L363.053 166.884C363.113 167.423 363.143 167.917 363.143 168.366V183.463H357.265V168.187C357.265 166.659 357.054 165.536 356.632 164.817C356.24 164.068 355.411 163.694 354.145 163.694H353.693V162.346H358.169C359.194 162.346 359.993 162.48 360.566 162.75C361.169 162.99 361.636 163.409 361.968 164.008C363.595 162.6 365.495 161.896 367.665 161.896C368.961 161.896 370.031 162.196 370.875 162.795Z" fill="#1C796F"/>
<path d="M382.766 183.912C380.686 183.912 379.073 183.358 377.928 182.25C376.782 181.112 376.209 179.479 376.209 177.353V164.368H373.496V162.346H376.209V158.302L378.47 155.606H382.088V162.346H387.062V164.368H382.088V177.622C382.088 179.24 382.284 180.363 382.676 180.992C383.067 181.591 383.655 181.891 384.439 181.891C385.283 181.891 386.127 181.696 386.971 181.306C387.303 181.127 387.649 180.917 388.011 180.677L388.644 181.935C388.252 182.265 387.785 182.594 387.242 182.924C385.976 183.583 384.484 183.912 382.766 183.912Z" fill="#1C796F"/>
<path d="M392.149 168.187C392.149 166.659 391.938 165.536 391.516 164.817C391.124 164.068 390.295 163.694 389.029 163.694H388.577V162.346H393.053C395.013 162.346 396.294 162.915 396.897 164.053H397.078C398.736 162.615 400.635 161.896 402.775 161.896C404.252 161.896 405.533 162.181 406.618 162.75C407.734 163.289 408.533 163.858 409.015 164.457C409.738 163.679 410.598 163.065 411.592 162.615C412.587 162.136 413.868 161.896 415.436 161.896C420.711 161.896 423.349 164.652 423.349 170.164V183.463H417.47V170.119C417.47 168.052 417.139 166.539 416.476 165.581C415.813 164.622 414.938 164.143 413.853 164.143C413.039 164.143 412.286 164.308 411.592 164.637C410.899 164.937 410.356 165.341 409.965 165.85C410.025 165.97 410.145 166.3 410.326 166.839C410.567 167.737 410.688 168.846 410.688 170.164V183.463H404.81V170.119C404.81 168.052 404.478 166.539 403.815 165.581C403.152 164.622 402.278 164.143 401.192 164.143C400.559 164.143 399.896 164.338 399.203 164.727C398.54 165.086 398.042 165.491 397.711 165.94L397.846 166.569C397.967 166.929 398.027 167.513 398.027 168.321V183.463H392.149V168.187Z" fill="#1C796F"/>
<path d="M437.961 183.912C435.882 183.912 434.058 183.433 432.49 182.475C430.923 181.516 429.702 180.213 428.828 178.566C427.984 176.888 427.562 175.001 427.562 172.904C427.562 170.568 427.984 168.576 428.828 166.929C429.702 165.281 430.893 164.038 432.4 163.199C433.907 162.331 435.61 161.896 437.509 161.896C439.378 161.896 441.066 162.271 442.574 163.02C444.081 163.768 445.271 164.832 446.146 166.21C447.02 167.558 447.457 169.115 447.457 170.882C447.457 171.452 447.427 172.096 447.367 172.815L447.276 173.713H433.666C433.666 176.559 434.103 178.641 434.977 179.959C435.851 181.247 437.072 181.891 438.64 181.891C440.087 181.891 441.292 181.576 442.257 180.947C443.252 180.288 444.201 179.359 445.106 178.161L446.507 179.195C445.633 180.543 444.533 181.666 443.207 182.565C441.91 183.463 440.162 183.912 437.961 183.912ZM441.353 171.691C441.353 168.876 441.021 166.884 440.358 165.715C439.695 164.517 438.745 163.918 437.509 163.918C436.364 163.918 435.429 164.532 434.706 165.76C434.013 166.959 433.666 168.935 433.666 171.691H441.353Z" fill="#1C796F"/>
<path d="M452.512 168.187C452.512 166.659 452.301 165.536 451.879 164.817C451.487 164.068 450.658 163.694 449.392 163.694H448.94V162.346H453.416C454.441 162.346 455.24 162.48 455.813 162.75C456.415 162.99 456.883 163.409 457.214 164.008C458.752 162.6 460.952 161.896 463.816 161.896C466.68 161.896 468.82 162.57 470.237 163.918C471.684 165.236 472.407 167.318 472.407 170.164V183.463H466.529V170.119C466.529 168.052 466.137 166.539 465.353 165.581C464.6 164.622 463.56 164.143 462.233 164.143C461.299 164.143 460.47 164.278 459.746 164.547C459.053 164.787 458.495 165.116 458.073 165.536L458.209 166.165C458.33 166.524 458.39 167.108 458.39 167.917V183.463H452.512V168.187Z" fill="#1C796F"/>
<path d="M485.122 183.912C483.042 183.912 481.429 183.358 480.284 182.25C479.138 181.112 478.565 179.479 478.565 177.353V164.368H475.852V162.346H478.565V158.302L480.826 155.606H484.444V162.346H489.417V164.368H484.444V177.622C484.444 179.24 484.639 180.363 485.031 180.992C485.423 181.591 486.011 181.891 486.795 181.891C487.639 181.891 488.483 181.696 489.327 181.306C489.659 181.127 490.005 180.917 490.367 180.677L491 181.935C490.608 182.265 490.141 182.594 489.598 182.924C488.332 183.583 486.84 183.912 485.122 183.912Z" fill="#1C796F"/>
<defs>
<linearGradient id="paint0_linear_2183_2" x1="240.948" y1="83.3437" x2="291.219" y2="133.615" gradientUnits="userSpaceOnUse">
<stop stop-color="#010101" stop-opacity="0.1"/>
<stop offset="1" stop-color="#010101" stop-opacity="0"/>
</linearGradient>
<linearGradient id="paint1_linear_2183_2" x1="215.869" y1="62.2926" x2="307.978" y2="105.244" gradientUnits="userSpaceOnUse">
<stop stop-color="white" stop-opacity="0.2"/>
<stop offset="1" stop-color="white" stop-opacity="0"/>
</linearGradient>
</defs>
</svg>
