<svg width="50" height="50" viewBox="0 0 50 50" fill="none" xmlns="http://www.w3.org/2000/svg">
<circle cx="25" cy="25" r="25" fill="#F37A20" fill-opacity="0.14"/>
<path fill-rule="evenodd" clip-rule="evenodd" d="M31.6158 29.234L29.5674 29.0001C29.0755 28.9437 28.5916 29.113 28.2449 29.4598L26.761 30.9437C24.4787 29.7824 22.6078 27.9195 21.4465 25.6292L22.9384 24.1372C23.2852 23.7905 23.4545 23.3066 23.3981 22.8147L23.1642 20.7824C23.0674 19.9679 22.3819 19.355 21.5594 19.355H20.1642C19.2529 19.355 18.4949 20.113 18.5513 21.0243C18.9787 27.9114 24.4868 33.4114 31.3658 33.8388C32.2771 33.8953 33.0352 33.1372 33.0352 32.2259V30.8308C33.0432 30.0163 32.4303 29.3308 31.6158 29.234ZM21.4032 20.9679C21.4516 21.6856 21.5725 22.3872 21.7661 23.0566L20.7983 24.0243C20.4677 23.0566 20.258 22.0324 20.1854 20.9679H21.4032ZM31.4516 31.0243C30.7419 30.9759 30.0403 30.855 29.3548 30.6614L28.387 31.6211C29.3629 31.9437 30.387 32.1534 31.4516 32.2259V31.0243Z" fill="#F37A20"/>
</svg>
