<svg width="62" height="40" viewBox="0 0 62 40" fill="none" xmlns="http://www.w3.org/2000/svg">
<rect x="0.5" y="0.5" width="61" height="39" rx="9.5" stroke="#D6D9E0"/>
<mask id="mask0_838_5516" style="mask-type:luminance" maskUnits="userSpaceOnUse" x="0" y="0" width="62" height="40">
<rect x="0.5" y="0.5" width="61" height="39" rx="9.5" stroke="white"/>
</mask>
<g mask="url(#mask0_838_5516)">
</g>
<path d="M44.0002 10V13.8669C41.8657 13.8663 40.134 12.1345 40.1333 10H44.0002Z" fill="#77D379"/>
<path d="M44.0002 21.0796V24.9465H40.1333C40.134 22.8114 41.8657 21.0796 44.0002 21.0796Z" fill="#77D379"/>
<path d="M20.8669 24.9465H17V21.0796C19.1345 21.0796 20.8669 22.8114 20.8669 24.9465Z" fill="#77D379"/>
<path d="M20.8663 10C20.8669 12.1345 19.1345 13.8669 17 13.8669V10H20.8663Z" fill="#77D379"/>
<path d="M22.2745 16.0723C23.0486 16.0723 23.6762 16.6992 23.6762 17.4733C23.6762 18.2473 23.0486 18.8749 22.2745 18.8749C21.5011 18.8749 20.8735 18.2473 20.8735 17.4733C20.8735 16.6992 21.5011 16.0723 22.2745 16.0723Z" fill="#77D379"/>
<path d="M30.5001 21.3395C32.6354 21.3395 34.3664 19.6085 34.3664 17.4732C34.3664 15.3379 32.6354 13.6069 30.5001 13.6069C28.3648 13.6069 26.6338 15.3379 26.6338 17.4732C26.6338 19.6085 28.3648 21.3395 30.5001 21.3395Z" fill="#77D379"/>
<path d="M38.7254 16.0723C39.4988 16.0723 40.1264 16.6992 40.1264 17.4733C40.1264 18.2473 39.4988 18.8749 38.7254 18.8749C37.9513 18.8749 37.3237 18.2473 37.3237 17.4733C37.3237 16.6992 37.9513 16.0723 38.7254 16.0723Z" fill="#77D379"/>
<path d="M44 13.8669V21.0798C41.8655 21.0798 40.1337 22.8116 40.1331 24.9468H20.8669C20.8669 22.8116 19.1345 21.0798 17 21.0798V13.8669C19.1345 13.8669 20.8669 12.1345 20.8663 10H40.1331C40.1337 12.1345 41.8655 13.8663 44 13.8669ZM40.1265 17.4731C40.1265 16.699 39.4989 16.0721 38.7255 16.0721C37.9515 16.0721 37.3239 16.699 37.3239 17.4731C37.3239 18.2471 37.9515 18.8747 38.7255 18.8747C39.4989 18.8747 40.1265 18.2471 40.1265 17.4731ZM34.3663 17.4731C34.3663 15.3379 32.6352 13.6068 30.5 13.6068C28.3648 13.6068 26.6337 15.3379 26.6337 17.4731C26.6337 19.6082 28.3648 21.3393 30.5 21.3393C32.6352 21.3393 34.3663 19.6082 34.3663 17.4731ZM23.6761 17.4731C23.6761 16.699 23.0485 16.0721 22.2745 16.0721C21.5011 16.0721 20.8735 16.699 20.8735 17.4731C20.8735 18.2471 21.5011 18.8747 22.2745 18.8747C23.0485 18.8747 23.6761 18.2471 23.6761 17.4731Z" fill="#2D9637"/>
<path d="M17.2563 26.623H27.1985V27.146H17.2563C17.1151 27.146 17 27.029 17 26.8845C17 26.7401 17.1151 26.623 17.2563 26.623Z" fill="#2D9637"/>
<path d="M43.9998 26.8845C43.9998 27.029 43.8848 27.146 43.7435 27.146H33.8013V26.623H43.7435C43.8848 26.623 43.9998 26.7401 43.9998 26.8845Z" fill="#2D9637"/>
<path d="M17.2563 28.4609H27.1985V28.9839H17.2563C17.1151 28.9839 17 28.8669 17 28.7224C17 28.578 17.1151 28.4609 17.2563 28.4609Z" fill="#2D9637"/>
<path d="M43.9998 28.7224C43.9998 28.8669 43.8848 28.9839 43.7435 28.9839H33.8013V28.4609H43.7435C43.8848 28.4609 43.9998 28.578 43.9998 28.7224Z" fill="#2D9637"/>
<path d="M17.2563 30.2979H27.1985V30.8209H17.2563C17.1151 30.8209 17 30.7038 17 30.5594C17 30.4149 17.1151 30.2979 17.2563 30.2979Z" fill="#2D9637"/>
<path d="M43.9998 30.5594C43.9998 30.7038 43.8848 30.8209 43.7435 30.8209H33.8013V30.2979H43.7435C43.8848 30.2979 43.9998 30.4149 43.9998 30.5594Z" fill="#2D9637"/>
<path opacity="0.2" d="M44 17.4731H17V24.9468H44V17.4731Z" fill="url(#paint0_linear_838_5516)"/>
<defs>
<linearGradient id="paint0_linear_838_5516" x1="30.5" y1="17.4731" x2="30.5" y2="24.9468" gradientUnits="userSpaceOnUse">
<stop/>
<stop offset="1" stop-color="white" stop-opacity="0"/>
</linearGradient>
</defs>
</svg>
