<svg width="21" height="22" viewBox="0 0 21 22" fill="none" xmlns="http://www.w3.org/2000/svg">
<path d="M8.10487 20.1881C9.4048 21.1663 11.002 21.667 12.6278 21.6058C14.2536 21.5446 15.8086 20.9252 17.0313 19.852C17.065 19.8229 17.0923 19.7873 17.1115 19.7472C17.1307 19.7071 17.1413 19.6634 17.1429 19.619C17.1444 19.5746 17.1367 19.5303 17.1202 19.489C17.1038 19.4477 17.079 19.4102 17.0474 19.379L14.1332 16.4648C14.0313 16.363 13.9098 16.2829 13.776 16.2295C13.6422 16.1762 13.4989 16.1506 13.3549 16.1544C13.2108 16.1582 13.0691 16.1913 12.9383 16.2516C12.8075 16.312 12.6903 16.3983 12.594 16.5055L11.4706 17.7542C9.857 17.1889 8.39137 16.2676 7.1824 15.0586C5.97342 13.8497 5.05211 12.384 4.4868 10.7705L5.73556 9.64703C5.84267 9.55068 5.92903 9.43353 5.98939 9.30272C6.04975 9.17191 6.08283 9.03018 6.08664 8.88616C6.09044 8.74215 6.06488 8.59887 6.01151 8.46505C5.95814 8.33124 5.87808 8.20969 5.77622 8.10782L2.87075 5.20238C2.83838 5.16965 2.79959 5.14397 2.75681 5.12696C2.71404 5.10996 2.6682 5.10199 2.6222 5.10356C2.57619 5.10513 2.53101 5.11621 2.48949 5.13609C2.44798 5.15598 2.41103 5.18424 2.38097 5.21911C1.30738 6.43961 0.687251 7.99284 0.625053 9.61715C0.562855 11.2414 1.06239 12.8376 2.0395 14.1366C3.78336 16.4143 5.82312 18.4494 8.10487 20.1881Z" fill="white"/>
<path d="M10.1227 11.0005H12.5987L14.4524 13.1631C14.4856 13.2019 14.5268 13.233 14.5732 13.2543C14.6195 13.2756 14.6699 13.2867 14.721 13.2867C14.772 13.2867 14.8224 13.2756 14.8688 13.2543C14.9151 13.233 14.9563 13.2019 14.9895 13.1631L16.8432 11.0005H19.3192C19.6006 11.0005 19.8705 10.8887 20.0695 10.6897C20.2685 10.4907 20.3803 10.2208 20.3803 9.93935V1.45029C20.3803 1.16886 20.2685 0.89896 20.0695 0.699959C19.8705 0.500958 19.6006 0.38916 19.3192 0.38916H10.1227C9.84128 0.38916 9.57137 0.500958 9.37237 0.699959C9.17337 0.89896 9.06157 1.16886 9.06157 1.45029V9.93935C9.06157 10.2208 9.17337 10.4907 9.37237 10.6897C9.57137 10.8887 9.84128 11.0005 10.1227 11.0005ZM14.7209 9.40879C14.5815 9.40681 14.4485 9.35004 14.3506 9.25075C14.2527 9.15147 14.1978 9.01764 14.1978 8.87821C14.1978 8.73878 14.2527 8.60495 14.3506 8.50567C14.4485 8.40639 14.5816 8.34962 14.721 8.34765C14.8604 8.34963 14.9934 8.4064 15.0913 8.50569C15.1892 8.60498 15.2441 8.7388 15.2441 8.87823C15.2441 9.01766 15.1892 9.15149 15.0913 9.25077C14.9934 9.35006 14.8604 9.40682 14.7209 9.40879ZM13.6598 2.68828H15.4284C15.8504 2.68874 16.255 2.85658 16.5534 3.15499C16.8518 3.45339 17.0196 3.85798 17.0201 4.27998V4.9874C17.0182 5.21118 16.9697 5.43211 16.8778 5.63614C16.7859 5.84018 16.6525 6.02285 16.4862 6.17256C16.3198 6.32226 16.1242 6.43572 15.9116 6.5057C15.699 6.5757 15.4743 6.60069 15.2515 6.5791C15.3717 7.40395 14.2647 7.56566 14.1904 6.75596L14.1904 6.04853C14.1904 5.90782 14.2463 5.77287 14.3458 5.67337C14.4453 5.57387 14.5802 5.51797 14.7209 5.51797H15.4284C15.569 5.51781 15.7039 5.46187 15.8034 5.3624C15.9028 5.26293 15.9588 5.12807 15.9589 4.9874V4.27998C15.9588 4.13931 15.9028 4.00445 15.8034 3.90498C15.7039 3.80552 15.569 3.74957 15.4284 3.74941H13.6598C13.5204 3.74738 13.3875 3.69058 13.2896 3.5913C13.1918 3.49202 13.1369 3.35823 13.1369 3.21885C13.1369 3.07946 13.1918 2.94567 13.2896 2.84639C13.3875 2.74711 13.5204 2.69032 13.6598 2.68828Z" fill="white"/>
</svg>
