<svg width="19" height="18" viewBox="0 0 19 18" fill="none" xmlns="http://www.w3.org/2000/svg">
<path d="M9.5 16C13.366 16 16.5 12.866 16.5 9C16.5 5.13401 13.366 2 9.5 2C5.63401 2 2.5 5.13401 2.5 9C2.5 12.866 5.63401 16 9.5 16Z" fill="#F37A20" fill-opacity="0.4"/>
<path d="M9.5 18C7.71997 18 5.97992 17.4722 4.49987 16.4832C3.01983 15.4943 1.86628 14.0887 1.18509 12.4442C0.5039 10.7996 0.32567 8.99002 0.672937 7.24419C1.0202 5.49836 1.87737 3.89472 3.13604 2.63604C4.39472 1.37737 5.99836 0.520203 7.74419 0.172937C9.49002 -0.17433 11.2996 0.00389951 12.9442 0.685088C14.5887 1.36628 15.9943 2.51983 16.9832 3.99987C17.9722 5.47992 18.5 7.21997 18.5 9C18.5 11.387 17.5518 13.6761 15.864 15.364C14.1761 17.0518 11.887 18 9.5 18ZM9.5 4C8.5111 4 7.5444 4.29325 6.72215 4.84266C5.89991 5.39206 5.25904 6.17296 4.88061 7.08659C4.50217 8.00022 4.40315 9.00555 4.59608 9.97546C4.789 10.9454 5.26521 11.8363 5.96447 12.5355C6.66373 13.2348 7.55465 13.711 8.52455 13.9039C9.49446 14.0969 10.4998 13.9978 11.4134 13.6194C12.3271 13.241 13.1079 12.6001 13.6574 11.7779C14.2068 10.9556 14.5 9.98891 14.5 9C14.5 7.67392 13.9732 6.40215 13.0355 5.46447C12.0979 4.52679 10.8261 4 9.5 4Z" fill="#F37A20"/>
</svg>
