<svg width="25" height="34" viewBox="0 0 25 34" fill="none" xmlns="http://www.w3.org/2000/svg">
<g filter="url(#filter0_d_679_4898)">
<path d="M4.24372 10.4222C3.13235 5.90136 5.92688 1.34363 10.4873 0.241794C15.0463 -0.86054 19.6435 1.91051 20.7564 6.43132C21.8677 10.9516 19.0717 15.5094 14.5127 16.6112L12.4993 23L10.4873 16.6112C7.40377 15.866 4.99537 13.4793 4.24372 10.4222ZM14.3653 8.4265C14.3653 7.40497 13.5312 6.57647 12.4993 6.57647C11.4689 6.57647 10.6332 7.40497 10.6332 8.4265C10.6332 9.44803 11.4689 10.2765 12.4993 10.2765C13.5312 10.2765 14.3653 9.44803 14.3653 8.4265ZM15.0463 8.4265C15.0463 7.03187 13.9055 5.90185 12.4993 5.90185C11.0931 5.90185 9.95379 7.03187 9.95379 8.4265C9.95379 9.82063 11.0931 10.9511 12.4993 10.9511C13.9055 10.9511 15.0463 9.82063 15.0463 8.4265Z" fill="#37474F"/>
</g>
<defs>
<filter id="filter0_d_679_4898" x="0" y="0" width="25" height="34" filterUnits="userSpaceOnUse" color-interpolation-filters="sRGB">
<feFlood flood-opacity="0" result="BackgroundImageFix"/>
<feColorMatrix in="SourceAlpha" type="matrix" values="0 0 0 0 0 0 0 0 0 0 0 0 0 0 0 0 0 0 127 0" result="hardAlpha"/>
<feOffset dy="7"/>
<feGaussianBlur stdDeviation="2"/>
<feColorMatrix type="matrix" values="0 0 0 0 0 0 0 0 0 0 0 0 0 0 0 0 0 0 0.15 0"/>
<feBlend mode="normal" in2="BackgroundImageFix" result="effect1_dropShadow_679_4898"/>
<feBlend mode="normal" in="SourceGraphic" in2="effect1_dropShadow_679_4898" result="shape"/>
</filter>
</defs>
</svg>
