<svg width="100px" height="100px" viewBox="0 0 120 40" version="1.1" xmlns="http://www.w3.org/2000/svg" xmlns:xlink="http://www.w3.org/1999/xlink">
  	<svg width="98px" height="50px" xmlns="http://www.w3.org/2000/svg" xmlns:xlink="http://www.w3.org/1999/xlink" viewBox="0 0 512 512" xml:space="preserve" fill="#000000">
      <g id="SVGRepo_bgCarrier" stroke-width="0"></g>
      <g id="SVGRepo_tracerCarrier" stroke-linecap="round" stroke-linejoin="round"></g>
      <g id="SVGRepo_iconCarrier"> <style type="text/css">  .st0{fill:#f37a20;}  </style> <g> <path class="st0" d="M256,0C159.969,0,82.109,77.859,82.109,173.906c0,100.719,80.016,163.688,123.297,238.719 C246.813,484.406,246.781,512,256,512s9.188-27.594,50.594-99.375c43.297-75.031,123.297-138,123.297-238.719 C429.891,77.859,352.031,0,256,0z M256,240.406c-36.734,0-66.516-29.781-66.516-66.5c0-36.75,29.781-66.531,66.516-66.531 s66.516,29.781,66.516,66.531C322.516,210.625,292.734,240.406,256,240.406z"></path> </g> </g></svg>

        <g  width="40px" height="40px" fill="none" fill-rule="evenodd" stroke-width="6" stroke="#f37a20" stroke-opacity="0.4">
        <circle cx="50" cy="30" r="480">
        <animate attributeName="r" begin="0s" dur="3s" values="0;50" keyTimes="0;1" keySplines="0.1,0.2,0.3,1" calcMode="spline" repeatCount="indefinite"></animate>
        <animate attributeName="stroke-opacity" begin="0s" dur="3s" values="0;.3;.3;0" repeatCount="indefinite"></animate>
        </circle>
        <circle cx="50" cy="30" r="460">
        <animate attributeName="r" begin="-1s" dur="3s" values="0;50" keyTimes="0;1" keySplines="0.1,0.2,0.3,1" calcMode="spline" repeatCount="indefinite"></animate>
        <animate attributeName="stroke-opacity" begin="-1s" dur="3s" values="0;.3;.3;0" repeatCount="indefinite"></animate>
        </circle>
        </g>
        </svg>