<svg xmlns="http://www.w3.org/2000/svg" width="100" height="28" viewBox="0 0 100 28"><path fill="none" d="M0 0h100v28H0z"/><path d="M96.1 20.3h-2.9c-.6 0-1.1-.4-1.1-.9 0-.6.5-.9 1.1-.9h5.3l1.2-2.7h-6.5c-2.7 0-4.2 1.6-4.2 3.7 0 2.2 1.5 3.5 3.8 3.5h2.9c.6 0 1.1.4 1.1.9s-.4.9-1.1.9h-6.4v2.7h6.4c2.7 0 4.2-1.6 4.2-3.8s-1.4-3.4-3.8-3.4m-11.7 0h-2.9c-.6 0-1.1-.4-1.1-.9 0-.6.5-.9 1.1-.9h5.3l1.2-2.7h-6.5c-2.7 0-4.2 1.6-4.2 3.7 0 2.2 1.5 3.5 3.8 3.5H84c.6 0 1.1.4 1.1.9s-.4.9-1.1.9h-6.4v2.7H84c2.7 0 4.2-1.6 4.2-3.8.1-2.2-1.3-3.4-3.8-3.4m-18.5 7.3h10v-2.7h-6.8V23h6.7v-2.7h-6.7v-1.9h6.8v-2.7h-10zm-6.2-6.8h-3.3v-2.4h3.3c.9 0 1.4.6 1.4 1.2 0 .7-.5 1.2-1.4 1.2m4.6-1.3c0-2.3-1.6-3.8-4.2-3.8h-6.9v11.9h3.2v-4.1h1.2l3.6 4.1H65l-3.9-4.3c2-.5 3.2-1.9 3.2-3.8M47.2 21h-3.4v-2.6h3.4c.9 0 1.4.6 1.4 1.3 0 .7-.4 1.3-1.4 1.3m.4-5.3h-6.9v11.9h3.2v-3.9h3.7c2.7 0 4.3-1.7 4.3-4-.1-2.4-1.7-4-4.3-4m-7.5 0H36l-3 3.6-3.1-3.6h-4.2l5.3 5.9-5.4 6h4.1l3.2-3.8 3.2 3.8h4.2l-5.4-6.1zM15.2 27.6h10v-2.7h-6.9V23H25v-2.7h-6.7v-1.9h6.9v-2.7h-10zM94.9 7.7L90 .5h-4v11.8h3.2V4.8l5 7.5H98V.5h-3.1zm-18.4-.4l1.7-4 1.7 4h-3.4zM76.1.5l-5.2 11.9h3.5l1-2.4h5.5l1 2.4h3.6L80.2.5h-4.1zm-10.4 6v-.2c0-1.8 1-3 3-3h3.5V.4h-3.8c-3.9 0-5.9 2.5-5.9 5.8v.2c0 3.7 2.3 5.8 5.8 5.8h1.1l1.3-2.7h-1.9c-1.9.1-3.1-1-3.1-3m-8-6v11.8h3.2V.5zm-6.2 5h-3.3V3.1h3.3c.9 0 1.4.6 1.4 1.2 0 .7-.5 1.2-1.4 1.2m4.6-1.2C56.1 2 54.5.5 51.9.5H45v11.9h3.2V8.2h1.2l3.6 4.1h3.9l-4-4.3c2-.4 3.2-1.9 3.2-3.7m-23.2 8h10V9.6h-6.8V7.7h6.6V5h-6.6V3.1h6.8V.5h-10zM22.8 7.9L20.1.5h-4.9v11.8h3.1V3.8l3.1 8.5h2.8l3.1-8.5v8.5h3.2V.5h-5zM5.6 7.3l1.7-4 1.7 4H5.6zM5.2.5L0 12.3h3.5l1-2.4H10l1 2.4h3.6L9.3.5H5.2z" fill="#006fcf"/></svg>