<svg width="133" height="162" viewBox="0 0 133 162" fill="none" xmlns="http://www.w3.org/2000/svg">
<path d="M16.8 146L10.96 135.4H9.32V146H2.48V117.92H13.96C16.1733 117.92 18.0533 118.307 19.6 119.08C21.1733 119.853 22.3467 120.92 23.12 122.28C23.8933 123.613 24.28 125.107 24.28 126.76C24.28 128.627 23.7467 130.293 22.68 131.76C21.64 133.227 20.0933 134.267 18.04 134.88L24.52 146H16.8ZM9.32 130.56H13.56C14.8133 130.56 15.7467 130.253 16.36 129.64C17 129.027 17.32 128.16 17.32 127.04C17.32 125.973 17 125.133 16.36 124.52C15.7467 123.907 14.8133 123.6 13.56 123.6H9.32V130.56ZM49.6137 134.48C49.6137 135.12 49.5738 135.787 49.4938 136.48H34.0138C34.1204 137.867 34.5604 138.933 35.3338 139.68C36.1338 140.4 37.1071 140.76 38.2538 140.76C39.9604 140.76 41.1471 140.04 41.8138 138.6H49.0938C48.7204 140.067 48.0404 141.387 47.0538 142.56C46.0938 143.733 44.8804 144.653 43.4138 145.32C41.9471 145.987 40.3071 146.32 38.4938 146.32C36.3071 146.32 34.3604 145.853 32.6538 144.92C30.9471 143.987 29.6138 142.653 28.6538 140.92C27.6938 139.187 27.2138 137.16 27.2138 134.84C27.2138 132.52 27.6804 130.493 28.6138 128.76C29.5738 127.027 30.9071 125.693 32.6138 124.76C34.3204 123.827 36.2804 123.36 38.4938 123.36C40.6538 123.36 42.5738 123.813 44.2538 124.72C45.9338 125.627 47.2404 126.92 48.1738 128.6C49.1338 130.28 49.6137 132.24 49.6137 134.48ZM42.6138 132.68C42.6138 131.507 42.2138 130.573 41.4138 129.88C40.6138 129.187 39.6138 128.84 38.4138 128.84C37.2671 128.84 36.2938 129.173 35.4938 129.84C34.7204 130.507 34.2404 131.453 34.0538 132.68H42.6138ZM66.8222 123.44C69.4355 123.44 71.5155 124.293 73.0622 126C74.6355 127.68 75.4222 130 75.4222 132.96V146H68.6222V133.88C68.6222 132.387 68.2355 131.227 67.4622 130.4C66.6889 129.573 65.6489 129.16 64.3422 129.16C63.0355 129.16 61.9955 129.573 61.2222 130.4C60.4489 131.227 60.0622 132.387 60.0622 133.88V146H53.2222V123.68H60.0622V126.64C60.7555 125.653 61.6889 124.88 62.8622 124.32C64.0355 123.733 65.3555 123.44 66.8222 123.44ZM92.6153 140.2V146H89.1353C86.6553 146 84.722 145.4 83.3353 144.2C81.9486 142.973 81.2553 140.987 81.2553 138.24V129.36H78.5353V123.68H81.2553V118.24H88.0953V123.68H92.5753V129.36H88.0953V138.32C88.0953 138.987 88.2553 139.467 88.5753 139.76C88.8953 140.053 89.4286 140.2 90.1753 140.2H92.6153ZM95.0653 134.8C95.0653 132.507 95.492 130.493 96.3453 128.76C97.2253 127.027 98.412 125.693 99.9053 124.76C101.399 123.827 103.065 123.36 104.905 123.36C106.479 123.36 107.852 123.68 109.025 124.32C110.225 124.96 111.145 125.8 111.785 126.84V123.68H118.625V146H111.785V142.84C111.119 143.88 110.185 144.72 108.985 145.36C107.812 146 106.439 146.32 104.865 146.32C103.052 146.32 101.399 145.853 99.9053 144.92C98.412 143.96 97.2253 142.613 96.3453 140.88C95.492 139.12 95.0653 137.093 95.0653 134.8ZM111.785 134.84C111.785 133.133 111.305 131.787 110.345 130.8C109.412 129.813 108.265 129.32 106.905 129.32C105.545 129.32 104.385 129.813 103.425 130.8C102.492 131.76 102.025 133.093 102.025 134.8C102.025 136.507 102.492 137.867 103.425 138.88C104.385 139.867 105.545 140.36 106.905 140.36C108.265 140.36 109.412 139.867 110.345 138.88C111.305 137.893 111.785 136.547 111.785 134.84ZM130.414 116.4V146H123.574V116.4H130.414Z" fill="#228B22"/>
<path d="M77.9195 50.5911L77.9179 50.5958L73.3278 63.7103C72.4171 66.3798 69.9206 68.0462 67.2631 68.0462C66.5024 68.0462 65.803 67.9083 65.1246 67.6696C61.7579 66.499 60.0207 62.8079 61.1732 59.4784L61.176 59.4703L62.7682 54.9212H62.1445C60.02 54.9212 58.019 53.8468 56.825 52.0988L56.8248 52.0985C55.6275 50.345 55.3657 48.1126 56.1409 46.1301C56.141 46.1298 56.1412 46.1294 56.1413 46.129L61.2588 33.0074C62.5497 29.6939 66.2861 28.0676 69.5883 29.3543L77.9195 50.5911ZM77.9195 50.5911C78.5978 48.6407 78.3135 46.4543 77.0988 44.7538C75.8806 43.0224 73.902 42.0461 71.8569 42.0461H71.5728M77.9195 50.5911L71.5728 42.0461M71.5728 42.0461L73.2677 37.6838L71.5728 42.0461ZM53.1669 16.7537H55.6669V14.2537V10.5C55.6669 6.81449 58.6689 3.8125 62.3544 3.8125H71.647C75.3325 3.8125 78.3345 6.81449 78.3345 10.5V14.2537V16.7537H80.8345H81.517C85.2025 16.7537 88.2045 19.7557 88.2045 23.4412V73.5C88.2045 77.1855 85.2025 80.1875 81.517 80.1875H52.4844C48.7989 80.1875 45.7969 77.1855 45.7969 73.5V23.4412C45.7969 19.7557 48.7989 16.7537 52.4844 16.7537H53.1669ZM72.9595 16.7537H75.4595V14.2537V10.5C75.4595 8.35159 73.7035 6.6875 71.647 6.6875H62.3544C60.2979 6.6875 58.5419 8.35159 58.5419 10.5V14.2537V16.7537H61.0419H72.9595ZM73.2685 37.6816C74.5635 34.354 72.8747 30.6348 69.5884 29.3543L73.2685 37.6816Z" stroke="#228B22" stroke-width="5"/>
</svg>
