<svg width="44" height="11" viewBox="0 0 44 11" fill="none" xmlns="http://www.w3.org/2000/svg">
<path d="M5.369 10L3.549 6.62H3.276V10H0.728V0.834999H4.745C5.48167 0.834999 6.10567 0.965 6.617 1.225C7.12833 1.47633 7.514 1.82733 7.774 2.278C8.034 2.72 8.164 3.21833 8.164 3.773C8.164 4.397 7.99067 4.94733 7.644 5.424C7.306 5.892 6.80767 6.22567 6.149 6.425L8.216 10H5.369ZM3.276 4.878H4.537C4.88367 4.878 5.14367 4.79567 5.317 4.631C5.49033 4.46633 5.577 4.228 5.577 3.916C5.577 3.62133 5.486 3.39167 5.304 3.227C5.13067 3.05367 4.875 2.967 4.537 2.967H3.276V4.878ZM16.2907 6.269C16.2907 6.46833 16.2777 6.66767 16.2517 6.867H11.4287C11.4547 7.26567 11.5631 7.56467 11.7537 7.764C11.9531 7.95467 12.2044 8.05 12.5077 8.05C12.9324 8.05 13.2357 7.85933 13.4177 7.478H16.1347C16.0221 7.98067 15.8011 8.43133 15.4717 8.83C15.1511 9.22 14.7437 9.52767 14.2497 9.753C13.7557 9.97833 13.2097 10.091 12.6117 10.091C11.8924 10.091 11.2511 9.93933 10.6877 9.636C10.1331 9.33267 9.69539 8.89933 9.37473 8.336C9.06273 7.77267 8.90673 7.10967 8.90673 6.347C8.90673 5.58433 9.06273 4.92567 9.37473 4.371C9.68673 3.80767 10.1201 3.37433 10.6747 3.071C11.2381 2.76767 11.8837 2.616 12.6117 2.616C13.3311 2.616 13.9681 2.76333 14.5227 3.058C15.0774 3.35267 15.5107 3.77733 15.8227 4.332C16.1347 4.878 16.2907 5.52367 16.2907 6.269ZM13.6907 5.632C13.6907 5.32 13.5867 5.07733 13.3787 4.904C13.1707 4.722 12.9107 4.631 12.5987 4.631C12.2867 4.631 12.0311 4.71767 11.8317 4.891C11.6324 5.05567 11.5024 5.30267 11.4417 5.632H13.6907ZM22.1045 2.642C22.9451 2.642 23.6125 2.92367 24.1065 3.487C24.6005 4.04167 24.8475 4.79567 24.8475 5.749V10H22.2995V6.087C22.2995 5.671 22.1911 5.346 21.9745 5.112C21.7578 4.86933 21.4675 4.748 21.1035 4.748C20.7221 4.748 20.4231 4.86933 20.2065 5.112C19.9898 5.346 19.8815 5.671 19.8815 6.087V10H17.3335V2.707H19.8815V3.747C20.1068 3.41767 20.4101 3.15333 20.7915 2.954C21.1728 2.746 21.6105 2.642 22.1045 2.642ZM30.5486 7.829V10H29.4436C27.5802 10 26.6486 9.077 26.6486 7.231V4.826H25.7516V2.707H26.6486V0.939H29.2096V2.707H30.5356V4.826H29.2096V7.27C29.2096 7.46933 29.2529 7.61233 29.3396 7.699C29.4349 7.78567 29.5909 7.829 29.8076 7.829H30.5486ZM31.3013 6.347C31.3013 5.593 31.4356 4.93433 31.7043 4.371C31.9816 3.80767 32.3543 3.37433 32.8223 3.071C33.2989 2.76767 33.8276 2.616 34.4083 2.616C34.9109 2.616 35.3443 2.71567 35.7083 2.915C36.0723 3.11433 36.3539 3.383 36.5533 3.721V2.707H39.1013V10H36.5533V8.986C36.3539 9.324 36.0679 9.59267 35.6953 9.792C35.3313 9.99133 34.9023 10.091 34.4083 10.091C33.8276 10.091 33.2989 9.93933 32.8223 9.636C32.3543 9.33267 31.9816 8.89933 31.7043 8.336C31.4356 7.764 31.3013 7.101 31.3013 6.347ZM36.5533 6.347C36.5533 5.879 36.4233 5.51067 36.1633 5.242C35.9119 4.97333 35.5999 4.839 35.2273 4.839C34.8459 4.839 34.5296 4.97333 34.2783 5.242C34.0269 5.502 33.9013 5.87033 33.9013 6.347C33.9013 6.815 34.0269 7.18767 34.2783 7.465C34.5296 7.73367 34.8459 7.868 35.2273 7.868C35.5999 7.868 35.9119 7.73367 36.1633 7.465C36.4233 7.19633 36.5533 6.82367 36.5533 6.347ZM43.1012 0.38V10H40.5532V0.38H43.1012Z" fill="#53A052"/>
</svg>
