<svg width="40" height="14" viewBox="0 0 40 14" fill="none" xmlns="http://www.w3.org/2000/svg">
<path d="M4.186 10.091C3.12 10.091 2.24467 9.83967 1.56 9.337C0.875333 8.82567 0.507 8.09767 0.455 7.153H3.172C3.198 7.47367 3.29333 7.70767 3.458 7.855C3.62267 8.00233 3.835 8.076 4.095 8.076C4.329 8.076 4.51967 8.01967 4.667 7.907C4.823 7.78567 4.901 7.621 4.901 7.413C4.901 7.14433 4.77533 6.93633 4.524 6.789C4.27267 6.64167 3.86533 6.477 3.302 6.295C2.704 6.09567 2.21867 5.905 1.846 5.723C1.482 5.53233 1.16133 5.25933 0.884 4.904C0.615333 4.54 0.481 4.06767 0.481 3.487C0.481 2.89767 0.628333 2.395 0.923 1.979C1.21767 1.55433 1.625 1.23367 2.145 1.017C2.665 0.800333 3.25433 0.692 3.913 0.692C4.979 0.692 5.82833 0.943333 6.461 1.446C7.10233 1.94 7.44467 2.63767 7.488 3.539H4.719C4.71033 3.26167 4.62367 3.05367 4.459 2.915C4.303 2.77633 4.09933 2.707 3.848 2.707C3.65733 2.707 3.50133 2.76333 3.38 2.876C3.25867 2.98867 3.198 3.149 3.198 3.357C3.198 3.53033 3.263 3.682 3.393 3.812C3.53167 3.93333 3.70067 4.04167 3.9 4.137C4.09933 4.22367 4.394 4.33633 4.784 4.475C5.36467 4.67433 5.84133 4.87367 6.214 5.073C6.59533 5.26367 6.92033 5.53667 7.189 5.892C7.46633 6.23867 7.605 6.68067 7.605 7.218C7.605 7.764 7.46633 8.25367 7.189 8.687C6.92033 9.12033 6.526 9.46267 6.006 9.714C5.49467 9.96533 4.888 10.091 4.186 10.091ZM11.3375 3.721C11.5369 3.383 11.8185 3.11433 12.1825 2.915C12.5465 2.71567 12.9755 2.616 13.4695 2.616C14.0502 2.616 14.5745 2.76767 15.0425 3.071C15.5192 3.37433 15.8919 3.80767 16.1605 4.371C16.4379 4.93433 16.5765 5.593 16.5765 6.347C16.5765 7.101 16.4379 7.764 16.1605 8.336C15.8919 8.89933 15.5192 9.33267 15.0425 9.636C14.5745 9.93933 14.0502 10.091 13.4695 10.091C12.9755 10.091 12.5465 9.99133 12.1825 9.792C11.8272 9.59267 11.5455 9.324 11.3375 8.986V13.484H8.78952V2.707H11.3375V3.721ZM13.9895 6.347C13.9895 5.87033 13.8595 5.502 13.5995 5.242C13.3482 4.97333 13.0362 4.839 12.6635 4.839C12.2909 4.839 11.9745 4.97333 11.7145 5.242C11.4632 5.51067 11.3375 5.879 11.3375 6.347C11.3375 6.82367 11.4632 7.19633 11.7145 7.465C11.9745 7.73367 12.2909 7.868 12.6635 7.868C13.0362 7.868 13.3482 7.73367 13.5995 7.465C13.8595 7.18767 13.9895 6.815 13.9895 6.347ZM17.2095 6.347C17.2095 5.593 17.3438 4.93433 17.6125 4.371C17.8898 3.80767 18.2625 3.37433 18.7305 3.071C19.2071 2.76767 19.7358 2.616 20.3165 2.616C20.8191 2.616 21.2525 2.71567 21.6165 2.915C21.9805 3.11433 22.2621 3.383 22.4615 3.721V2.707H25.0095V10H22.4615V8.986C22.2621 9.324 21.9761 9.59267 21.6035 9.792C21.2395 9.99133 20.8105 10.091 20.3165 10.091C19.7358 10.091 19.2071 9.93933 18.7305 9.636C18.2625 9.33267 17.8898 8.89933 17.6125 8.336C17.3438 7.764 17.2095 7.101 17.2095 6.347ZM22.4615 6.347C22.4615 5.879 22.3315 5.51067 22.0715 5.242C21.8201 4.97333 21.5081 4.839 21.1355 4.839C20.7541 4.839 20.4378 4.97333 20.1865 5.242C19.9351 5.502 19.8095 5.87033 19.8095 6.347C19.8095 6.815 19.9351 7.18767 20.1865 7.465C20.4378 7.73367 20.7541 7.868 21.1355 7.868C21.5081 7.868 21.8201 7.73367 22.0715 7.465C22.3315 7.19633 22.4615 6.82367 22.4615 6.347ZM29.0094 3.994C29.2954 3.578 29.6421 3.24867 30.0494 3.006C30.4567 2.76333 30.8944 2.642 31.3624 2.642V5.359H30.6474C30.0927 5.359 29.6811 5.46733 29.4124 5.684C29.1437 5.90067 29.0094 6.27767 29.0094 6.815V10H26.4614V2.707H29.0094V3.994ZM36.8389 10L34.8239 7.01V10H32.2759V0.38H34.8239V5.567L36.8389 2.707H39.8939L37.0209 6.373L39.9459 10H36.8389Z" fill="#228B22"/>
</svg>
