<svg width="28" height="28" viewBox="0 0 28 28" fill="none" xmlns="http://www.w3.org/2000/svg">
<circle cx="14" cy="14" r="14" fill="#6EB96D"/>
<path d="M14.0005 14.4417C9.42394 14.4417 7.00104 16.7684 7.00104 21.2104C6.98181 21.518 7.23179 21.768 7.53946 21.7873C7.55869 21.7873 7.55869 21.7873 7.57792 21.7873H20.4231C20.7308 21.8065 20.9808 21.5565 21 21.2488C21 21.2296 21 21.2296 21 21.2104C21 16.7684 18.5771 14.4417 14.0005 14.4417Z" fill="white"/>
<path d="M14.0012 13.6917C16.0203 13.6917 17.6548 11.9226 17.6548 9.73049C17.6548 7.53835 16.078 6 14.0012 6C11.9245 6 10.3477 7.59604 10.3477 9.73049C10.3477 11.9226 11.9822 13.6917 14.0012 13.6917Z" fill="white"/>
</svg>
