<svg width="24" height="24" viewBox="0 0 24 24" fill="none" xmlns="http://www.w3.org/2000/svg">
<mask id="mask0_1278_3026" style="mask-type:alpha" maskUnits="userSpaceOnUse" x="0" y="0" width="24" height="24">
<rect width="23.8292" height="24" fill="#D9D9D9"/>
</mask>
<g mask="url(#mask0_1278_3026)">
<path d="M3.9716 20C3.42552 20 2.95804 19.8042 2.56916 19.4125C2.18028 19.0208 1.98584 18.55 1.98584 18V6C1.98584 5.45 2.18028 4.97917 2.56916 4.5875C2.95804 4.19583 3.42552 4 3.9716 4H19.8577C20.4038 4 20.8713 4.19583 21.2602 4.5875C21.649 4.97917 21.8435 5.45 21.8435 6V18C21.8435 18.55 21.649 19.0208 21.2602 19.4125C20.8713 19.8042 20.4038 20 19.8577 20H3.9716ZM11.9147 13L3.9716 8V18H19.8577V8L11.9147 13ZM11.9147 11L19.8577 6H3.9716L11.9147 11ZM3.9716 8V6V18V8Z" fill="#1C1B1F"/>
</g>
</svg>
