<svg id="SvgjsSvg1050" width="360" height="360" xmlns="http://www.w3.org/2000/svg" version="1.1" xmlns:xlink="http://www.w3.org/1999/xlink" xmlns:svgjs="http://svgjs.com/svgjs"><defs id="SvgjsDefs1051"></defs><g id="SvgjsG1052"><svg xmlns="http://www.w3.org/2000/svg" fill="none" viewBox="0 0 3000 3000" width="360" height="360"><path fill="#e7e8ff" d="M1642.94 2802.56H1335.46H797.402C590.692 2802.56 398.693 2695.7 289.858 2520.07L153.674 2300.31C42.2892 2120.57 109.111 1884.05 298.113 1789.07C469.052 1703.16 542.983 1498.7 466.483 1323.44L412.027 1198.68C331.535 1014.26 368.546 799.672 506.172 652.831L745.051 397.956C997.705 128.385 1423.52 121.433 1684.85 382.614L1983 680.598C2021.73 719.303 2081.94 726.459 2128.67 697.909C2203.7 652.075 2300.79 700.941 2308.6 788.468L2345.6 1202.81C2353.74 1293.97 2395.03 1378.9 2468.22 1433.9C2612.6 1542.4 2811.77 1676.06 2848.2 1765.01C3104.99 2391.84 2320.71 2802.56 1642.94 2802.56Z" class="colorE7E8FF svgShape"></path><path fill="#032068" d="M292.029 2325.2C525.646 2441.1 622.787 2688.39 639.094 2799.28H551.513C355.336 2662.7 283.301 2449.84 270.565 2339.95C269.184 2328.03 281.285 2319.87 292.029 2325.2Z" class="color032068 svgShape"></path><path fill="#ffffff" d="M354.871 1974.32C617.201 2101.61 694.22 2572.34 699.727 2795.91H581.83C309.649 2403.04 301.303 2101.32 334.149 1983.4C336.643 1974.45 346.508 1970.26 354.871 1974.32Z" class="colorfff svgShape"></path><path fill="#032068" fill-rule="evenodd" d="M341.986 1985.59C343.053 1981.75 347.305 1979.69 351.32 1981.64C479.378 2043.77 563.307 2190.51 615.874 2351.53C667.02 2508.21 687.823 2676.42 691.358 2787.77H586.096C317.244 2398 310.062 2100.19 341.986 1985.59ZM358.422 1967C345.711 1960.83 330.233 1967.14 326.312 1981.22C292.641 2102.1 302.01 2406.3 575.143 2800.54L577.569 2804.04H708.064L707.859 2795.71C705.091 2683.31 684.37 2508.93 631.341 2346.48C578.439 2184.43 492.693 2032.15 358.422 1967Z" clip-rule="evenodd" class="color032068 svgShape"></path><path fill="#032068" fill-rule="evenodd" d="M368.723 2071.14L476.7 2362.68L413.418 2333.76L406.656 2348.56L484.675 2384.21L582.574 2648.54L527.572 2626.66L521.558 2641.78L590.179 2669.07L638.201 2798.73L653.459 2793.08L556.056 2530.09L606.094 2418.6L591.25 2411.94L547.992 2508.32L442.325 2223.02L468.343 2138.07L452.785 2133.3L433.011 2197.87L383.981 2065.49L368.723 2071.14Z" clip-rule="evenodd" class="color032068 svgShape"></path><path fill="#004e92" d="M2332.46 480.016L2363.33 448.083C2368.83 442.396 2378.39 447.105 2377.23 454.93L2370.87 497.834C2370.48 500.43 2371.37 503.052 2373.26 504.876L2407.39 537.864C2412.88 543.177 2408.68 552.45 2401.06 551.821L2353.25 547.872C2350.93 547.68 2348.63 548.495 2346.95 550.11L2308.92 586.607C2303.27 592.028 2293.98 587.125 2295.26 579.403L2303.37 530.656C2303.77 528.281 2303.09 525.853 2301.52 524.026L2266.53 483.213C2261.38 477.21 2266.96 468.136 2274.64 470.016L2324.68 482.264C2327.49 482.952 2330.45 482.096 2332.46 480.016zM2525.14 993.137L2538.58 988.108C2545.98 985.334 2552.59 993.694 2548.18 1000.26L2540.42 1011.82C2538.96 1014 2538.64 1016.75 2539.56 1019.21L2545.66 1035.49C2548.34 1042.65 2540.56 1049.22 2533.95 1045.38L2518.47 1036.38C2516.46 1035.21 2514.03 1034.96 2511.82 1035.7L2492.81 1042.01C2485.38 1044.48 2479.1 1036.06 2483.57 1029.64L2493.88 1014.86C2495.26 1012.89 2495.69 1010.4 2495.06 1008.08L2489.75 988.509C2487.68 980.877 2496.62 975.079 2502.75 980.076L2517.15 991.823C2519.39 993.651 2522.44 994.152 2525.14 993.137zM356.431 1345.72L333.619 1375.52C332.231 1377.33 329.967 1378.2 327.75 1377.78L299.555 1372.39C293.489 1371.23 289.829 1379.01 294.511 1383.11L316.67 1402.52C318.288 1403.94 319.052 1406.12 318.68 1408.26L313.121 1440.27C312.076 1446.29 319.34 1450.02 323.453 1445.57L346.215 1420.97C347.552 1419.53 349.489 1418.83 351.419 1419.1L377.762 1422.76C383.697 1423.58 387.057 1416.04 382.545 1412.02L362.954 1394.58C361.38 1393.18 360.629 1391.05 360.966 1388.95L367.144 1350.5C368.154 1344.21 360.276 1340.69 356.431 1345.72z" class="colorF4AD5E svgShape"></path><path fill="#ffffff" d="M628.396 524.853C628.396 470.937 672.103 427.23 726.019 427.23H1836.64C1890.55 427.23 1934.26 470.937 1934.26 524.853V2696.48C1934.26 2750.4 1890.55 2794.11 1836.64 2794.11H726.019C672.104 2794.11 628.396 2750.4 628.396 2696.48V524.853Z" class="colorfff svgShape"></path><path fill="#032068" fill-rule="evenodd" d="M620.262 524.853C620.262 466.445 667.611 419.096 726.019 419.096H1836.64C1895.05 419.096 1942.39 466.445 1942.39 524.853V2696.48C1942.39 2754.89 1895.05 2802.24 1836.64 2802.24H726.019C667.611 2802.24 620.262 2754.89 620.262 2696.48V524.853ZM726.019 435.366C676.597 435.366 636.532 475.431 636.532 524.853V2696.48C636.532 2745.91 676.597 2785.97 726.019 2785.97H1836.64C1886.06 2785.97 1926.12 2745.91 1926.12 2696.48V524.853C1926.12 475.431 1886.06 435.366 1836.64 435.366H726.019Z" clip-rule="evenodd" class="color032068 svgShape"></path><path fill="#032068" d="M1021.67 506.583L979.346 427.227H1583.31L1533.55 510.154C1518.85 534.658 1492.37 549.651 1463.79 549.651H1093.45C1063.41 549.651 1035.81 533.092 1021.67 506.583Z" class="color032068 svgShape"></path><path fill="#032068" d="M1918.25 476.197H636.088C678.528 433.756 719.065 425.867 734.028 427.227H1820.31C1872.54 427.227 1907.36 459.874 1918.25 476.197zM1917.63 2747.7H645.033C689.138 2790.82 714.629 2798.84 730.179 2797.46H1832.48C1886.76 2797.46 1906.32 2764.28 1917.63 2747.7z" class="color032068 svgShape"></path><path fill="#004e92" d="M778.104 703.682C778.104 690.203 789.03 679.276 802.509 679.276H1219.48C1232.96 679.276 1243.89 690.203 1243.89 703.682V704.776C1243.89 718.255 1232.96 729.182 1219.48 729.182H802.509C789.03 729.182 778.104 718.255 778.104 704.776V703.682Z" class="colorF4AD5E svgShape"></path><path fill="#e7e8ff" fill-rule="evenodd" d="M766.695 867.954C766.695 849.982 781.264 835.413 799.236 835.413H1767.32C1785.3 835.413 1799.86 849.982 1799.86 867.954V1754.69C1799.86 1772.66 1785.3 1787.23 1767.32 1787.23H799.236C781.264 1787.23 766.695 1772.66 766.695 1754.69V867.954ZM799.236 851.683C790.25 851.683 782.966 858.968 782.966 867.954V1754.69C782.966 1763.68 790.25 1770.96 799.236 1770.96H1767.32C1776.31 1770.96 1783.59 1763.68 1783.59 1754.69V867.954C1783.59 858.968 1776.31 851.683 1767.32 851.683H799.236Z" clip-rule="evenodd" class="colorE7E8FF svgShape"></path><path fill="#004e92" d="M1027.02 2412.07C1027.02 2398.59 1037.95 2387.67 1051.43 2387.67H1515.13C1528.61 2387.67 1539.54 2398.59 1539.54 2412.07V2542.24C1539.54 2555.71 1528.61 2566.64 1515.13 2566.64H1051.43C1037.95 2566.64 1027.02 2555.71 1027.02 2542.24V2412.07Z" class="colorF4AD5E svgShape"></path><path fill="#032068" fill-rule="evenodd" d="M1842.58 543.531V610.072H1826.31V543.531H1842.58zM1801 551.849V610.072H1784.73V551.849H1801zM1759.41 568.484V610.072H1743.14V568.484H1759.41zM1717.82 585.119V610.072H1701.55V585.119H1717.82z" clip-rule="evenodd" class="color032068 svgShape"></path><path fill="#e7e8ff" d="M774.83 1323.52H1799.86V1413.01H774.83V1323.52Z" class="colorE7E8FF svgShape"></path><path fill="#e7e8ff" d="M1002.62 843.549H1092.1V1339.8H1002.62V843.549zM1450.05 1372.34H1539.54V1779.1H1450.05V1372.34z" class="colorE7E8FF svgShape"></path><path fill="#004e92" fill-rule="evenodd" d="M1295.5 1393.77C1324.3 1393.77 1450.33 1171.43 1450.33 1086.61C1450.33 1001.79 1381.01 933.036 1295.5 933.036C1209.98 933.036 1140.66 1001.79 1140.66 1086.61C1140.66 1171.43 1255.89 1393.77 1295.5 1393.77ZM1295.5 1167.18C1339.3 1167.18 1374.8 1131.67 1374.8 1087.87C1374.8 1044.07 1339.3 1008.57 1295.5 1008.57C1251.7 1008.57 1216.19 1044.07 1216.19 1087.87C1216.19 1131.67 1251.7 1167.18 1295.5 1167.18Z" clip-rule="evenodd" class="colorF4AD5E svgShape"></path><path fill="#ffffff" d="M1102.39 2244.31C1102.39 2278.55 1074.63 2306.32 1040.39 2306.32C1006.14 2306.32 978.377 2278.55 978.377 2244.31C978.377 2210.06 1006.14 2182.3 1040.39 2182.3C1074.63 2182.3 1102.39 2210.06 1102.39 2244.31Z" class="colorfff svgShape"></path><path fill="#032068" fill-rule="evenodd" d="M1040.39 2190.43C1010.63 2190.43 986.513 2214.55 986.513 2244.31C986.513 2274.06 1010.63 2298.18 1040.39 2298.18C1070.14 2298.18 1094.26 2274.06 1094.26 2244.31C1094.26 2214.55 1070.14 2190.43 1040.39 2190.43ZM970.242 2244.31C970.242 2205.57 1001.65 2174.16 1040.39 2174.16C1079.12 2174.16 1110.53 2205.57 1110.53 2244.31C1110.53 2283.05 1079.12 2314.45 1040.39 2314.45C1001.65 2314.45 970.242 2283.05 970.242 2244.31Z" clip-rule="evenodd" class="color032068 svgShape"></path><path fill="#ffffff" d="M1580.74 2244.31C1580.74 2278.55 1554.96 2306.32 1523.16 2306.32C1491.36 2306.32 1465.58 2278.55 1465.58 2244.31C1465.58 2210.06 1491.36 2182.3 1523.16 2182.3C1554.96 2182.3 1580.74 2210.06 1580.74 2244.31Z" class="colorfff svgShape"></path><path fill="#032068" fill-rule="evenodd" d="M1523.16 2190.43C1496.41 2190.43 1473.72 2213.98 1473.72 2244.31C1473.72 2274.64 1496.41 2298.18 1523.16 2298.18C1549.91 2298.18 1572.61 2274.64 1572.61 2244.31C1572.61 2213.98 1549.91 2190.43 1523.16 2190.43ZM1457.45 2244.31C1457.45 2206.15 1486.31 2174.16 1523.16 2174.16C1560.01 2174.16 1588.88 2206.15 1588.88 2244.31C1588.88 2282.47 1560.01 2314.45 1523.16 2314.45C1486.31 2314.45 1457.45 2282.47 1457.45 2244.31Z" clip-rule="evenodd" class="color032068 svgShape"></path><path fill="#ffffff" d="M1589.02 2235.14C1582.13 2201.8 1553.25 2176.78 1518.67 2176.78C1484.09 2176.78 1455.21 2201.8 1448.32 2235.14H1115.58C1108.68 2201.8 1079.8 2176.78 1045.22 2176.78C1010.64 2176.78 981.763 2201.8 974.87 2235.14C963.86 2235.14 940.94 2233.3 937.344 2225.93C932.849 2216.71 919.104 2113.82 928.365 2100C944.832 2075.42 1082.68 2057 1094.67 2053.93C1112.46 2019.32 1147.76 1951.31 1158.3 1933.25C1159.49 1931.2 1158.83 1928.52 1156.78 1927.33C1149.62 1923.21 1152.54 1912.15 1160.81 1912.07C1191.83 1911.74 1227.59 1911.1 1253.48 1911.1C1313.41 1911.1 1494.71 1903.43 1506.69 1911.1C1518.67 1918.78 1526.17 1914.18 1536.65 1960.25C1547.14 2006.32 1553.13 2044.71 1565.12 2058.53C1577.11 2072.35 1592.09 2073.89 1598.08 2100C1604.07 2126.1 1617.56 2221.32 1616.06 2230.53C1608.57 2232.07 1597.54 2236.68 1589.02 2235.14Z" class="colorfff svgShape"></path><path fill="#032068" fill-rule="evenodd" d="M1331.84 1917.8C1300.11 1918.56 1271.37 1919.24 1253.48 1919.24C1236.06 1919.24 1214.2 1919.53 1192.26 1919.81C1181.66 1919.95 1171.04 1920.09 1160.9 1920.2C1160.89 1920.2 1160.9 1920.2 1160.9 1920.2C1160.89 1920.22 1160.88 1920.24 1160.87 1920.26C1160.87 1920.27 1160.87 1920.29 1160.87 1920.3C1166.95 1923.82 1168.7 1931.56 1165.33 1937.35C1154.93 1955.17 1119.76 2022.92 1101.9 2057.65L1100.23 2060.9L1096.69 2061.81C1094.17 2062.45 1087.29 2063.61 1078.09 2065.16C1074.77 2065.72 1071.14 2066.33 1067.32 2066.98C1052.49 2069.52 1033.74 2072.86 1014.89 2076.86C995.986 2080.86 977.2 2085.49 962.225 2090.57C954.727 2093.11 948.402 2095.69 943.574 2098.27C938.525 2100.96 936.038 2103.16 935.124 2104.52C935.125 2104.52 935.123 2104.53 935.118 2104.54C935.048 2104.71 934.445 2106.16 933.985 2109.97C933.54 2113.65 933.337 2118.47 933.365 2124.17C933.419 2135.54 934.384 2149.71 935.792 2163.88C937.197 2178.04 939.028 2192.04 940.777 2203.03C941.653 2208.53 942.498 2213.21 943.247 2216.75C943.623 2218.53 943.96 2219.94 944.248 2221C944.377 2221.47 944.479 2221.8 944.551 2222.03C944.795 2222.2 945.336 2222.55 946.377 2223C948.416 2223.87 951.3 2224.66 954.791 2225.29C959.299 2226.12 964.243 2226.59 968.574 2226.83C978.478 2193.27 1008.94 2168.65 1045.22 2168.65C1081.57 2168.65 1112.08 2193.36 1121.93 2227H1441.97C1451.82 2193.36 1482.32 2168.65 1518.67 2168.65C1555.07 2168.65 1585.61 2193.43 1595.41 2227.14C1597.06 2226.94 1598.92 2226.59 1601.01 2226.08C1602.98 2225.6 1604.94 2225.05 1606.97 2224.48L1607.67 2224.28C1607.74 2224.27 1607.8 2224.25 1607.87 2224.23C1607.86 2224.12 1607.85 2224.01 1607.85 2223.89C1607.62 2220.51 1607.21 2216.06 1606.64 2210.79C1605.5 2200.28 1603.78 2186.78 1601.82 2172.72C1597.89 2144.47 1593.06 2114.48 1590.15 2101.82C1587.56 2090.51 1583.25 2085.05 1578.42 2080.71C1576.47 2078.96 1574.52 2077.47 1572.29 2075.76C1571.4 2075.08 1570.47 2074.36 1569.47 2073.57C1566.13 2070.96 1562.47 2067.9 1558.97 2063.86C1555.08 2059.37 1552.05 2053.36 1549.5 2046.75C1546.92 2040.04 1544.62 2032.14 1542.44 2023.47C1539.84 2013.17 1537.27 2001.24 1534.52 1988.46C1532.69 1979.96 1530.78 1971.08 1528.72 1962.05C1523.48 1939.04 1519.3 1930.44 1516.01 1926.51C1514.55 1924.78 1513.11 1923.79 1511.11 1922.71C1510.64 1922.46 1510.03 1922.16 1509.32 1921.81C1507.5 1920.89 1505.01 1919.65 1502.71 1918.21C1502.54 1918.16 1502.04 1918.02 1501.07 1917.84C1499.43 1917.54 1497.13 1917.26 1494.14 1917.01C1488.19 1916.5 1480.1 1916.18 1470.35 1916C1450.89 1915.64 1425.35 1915.88 1398.21 1916.36C1376.34 1916.74 1353.4 1917.29 1331.84 1917.8ZM930.033 2229.49C928.951 2227.27 928.072 2223.63 927.329 2220.12C926.503 2216.22 925.609 2211.24 924.709 2205.58C922.906 2194.26 921.036 2179.94 919.601 2165.49C918.169 2151.07 917.153 2136.34 917.094 2124.25C917.065 2118.22 917.273 2112.65 917.832 2108.02C918.339 2103.82 919.273 2098.95 921.607 2095.47C924.81 2090.69 930.233 2086.94 935.921 2083.91C941.831 2080.76 949.07 2077.85 957 2075.16C972.877 2069.77 992.39 2064.99 1011.51 2060.94C1030.68 2056.87 1049.67 2053.49 1064.57 2050.94C1069.11 2050.17 1073.2 2049.48 1076.78 2048.88C1082.17 2047.97 1086.39 2047.26 1089.22 2046.74C1106.55 2013.08 1137.68 1953.13 1149.59 1932.09C1139.35 1922.63 1145.61 1904.09 1160.72 1903.93C1170.76 1903.82 1181.32 1903.69 1191.89 1903.55C1213.9 1903.26 1235.96 1902.97 1253.48 1902.97C1271.22 1902.97 1299.57 1902.29 1331.08 1901.54C1352.67 1901.03 1375.75 1900.48 1397.92 1900.09C1425.09 1899.61 1450.87 1899.37 1470.65 1899.73C1480.52 1899.91 1489.02 1900.25 1495.51 1900.79C1498.74 1901.07 1501.62 1901.4 1503.99 1901.84C1505.96 1902.2 1508.84 1902.82 1511.08 1904.25C1512.77 1905.34 1514.04 1905.97 1515.6 1906.74C1516.52 1907.19 1517.54 1907.7 1518.79 1908.37C1521.9 1910.04 1525.23 1912.21 1528.46 1916.04C1534.52 1923.25 1539.34 1935.38 1544.59 1958.44C1546.75 1967.95 1548.7 1977 1550.53 1985.52C1553.22 1998.01 1555.66 2009.38 1558.21 2019.49C1560.33 2027.91 1562.44 2035.08 1564.68 2040.9C1566.96 2046.81 1569.17 2050.79 1571.27 2053.2C1573.76 2056.08 1576.47 2058.39 1579.5 2060.77C1580.22 2061.33 1580.98 2061.91 1581.77 2062.52C1584.16 2064.36 1586.83 2066.4 1589.28 2068.6C1596.43 2075.01 1602.61 2083.37 1606.01 2098.18C1609.1 2111.62 1614.01 2142.29 1617.94 2170.48C1619.91 2184.63 1621.65 2198.3 1622.81 2209.05C1623.39 2214.41 1623.83 2219.11 1624.08 2222.8C1624.3 2226.1 1624.46 2229.59 1624.09 2231.84L1623.19 2237.38L1617.69 2238.5C1616.15 2238.82 1614.33 2239.31 1612.07 2239.95C1611.84 2240.01 1611.61 2240.08 1611.37 2240.15C1609.38 2240.71 1607.12 2241.34 1604.84 2241.89C1599.89 2243.09 1593.6 2244.23 1587.58 2243.15L1582.17 2242.17L1581.06 2236.79C1574.9 2207.01 1549.18 2184.92 1518.67 2184.92C1488.16 2184.92 1462.44 2207.01 1456.28 2236.79L1454.94 2243.27H1108.95L1107.61 2236.79C1101.45 2207.01 1075.73 2184.92 1045.22 2184.92C1014.71 2184.92 988.993 2207.01 982.837 2236.79L981.496 2243.27H974.871C969.037 2243.27 960.039 2242.79 951.863 2241.3C947.798 2240.56 943.589 2239.5 939.976 2237.95C936.691 2236.55 932.261 2234.06 930.033 2229.49Z" clip-rule="evenodd" class="color032068 svgShape"></path><path fill="#032068" d="M1595.1 2226.59C1588.12 2196.42 1558.86 2173.79 1523.83 2173.79 1488.79 2173.79 1459.53 2196.42 1452.55 2226.59L1440.34 2226.07C1442.87 2202.62 1463.1 2155.72 1523.83 2155.72 1584.55 2155.72 1604.79 2202.97 1607.32 2226.59H1595.1zM1115.42 2226.59C1108.44 2196.42 1079.18 2173.79 1044.15 2173.79 1009.11 2173.79 979.85 2196.42 972.866 2226.59 969.576 2226.59 965.237 2226.45 960.66 2226.07 963.188 2202.62 983.423 2155.72 1044.15 2155.72 1104.87 2155.72 1125.11 2202.97 1127.64 2226.59H1115.42z" class="color032068 svgShape"></path><path fill="#032068" d="M1075.82 2244.31C1075.82 2263.88 1061.94 2279.74 1044.81 2279.74 1027.69 2279.74 1013.81 2263.88 1013.81 2244.31 1013.81 2224.74 1027.69 2208.87 1044.81 2208.87 1061.94 2208.87 1075.82 2224.74 1075.82 2244.31zM1554.17 2244.31C1554.17 2263.88 1538.3 2279.74 1518.73 2279.74 1499.16 2279.74 1483.3 2263.88 1483.3 2244.31 1483.3 2224.74 1499.16 2208.87 1518.73 2208.87 1538.3 2208.87 1554.17 2224.74 1554.17 2244.31zM940.661 2226.59H961.96C964.149 2208.26 973.816 2189.43 978.377 2182.3H940.661C927.624 2182.3 917.407 2193.51 918.61 2206.49 919.665 2217.88 929.222 2226.59 940.661 2226.59zM1609.47 2226.59H1598.11C1595.79 2208.26 1585.57 2189.43 1580.74 2182.3H1609.47C1622.55 2182.3 1632.79 2193.58 1631.51 2206.61 1630.4 2217.94 1620.86 2226.59 1609.47 2226.59z" class="color032068 svgShape"></path><path fill="#004e92" d="M942.943 2146.87C942.943 2161.54 938.977 2173.44 934.085 2173.44 929.193 2173.44 925.227 2161.54 925.227 2146.87 925.227 2132.19 929.193 2120.29 934.085 2120.29 938.977 2120.29 942.943 2132.19 942.943 2146.87zM1616.18 2155.72C1616.18 2165.51 1612.21 2173.44 1607.32 2173.44 1602.42 2173.44 1598.46 2165.51 1598.46 2155.72 1598.46 2145.94 1602.42 2138.01 1607.32 2138.01 1612.21 2138.01 1616.18 2145.94 1616.18 2155.72z" class="colorF4AD5E svgShape"></path><path fill="#ffffff" d="M1150.25 2067.14H1307.97C1321.45 2067.14 1332.37 2056.21 1332.37 2042.73V1968.77C1332.37 1955.58 1321.92 1944.77 1308.74 1944.44 1256.64 1943.13 1181.09 1942.03 1175.93 1945.1 1171.42 1947.78 1147.96 1993.13 1128.49 2032.16 1120.44 2048.29 1132.23 2067.14 1150.25 2067.14zM1356.44 2042.73V1968.67C1356.44 1955.52 1366.86 1944.73 1380 1944.36 1425.31 1943.09 1487.29 1942.1 1490.32 1945.1 1493.21 1947.95 1500.77 1999.2 1506.25 2039.66 1508.23 2054.24 1496.86 2067.14 1482.15 2067.14H1380.85C1367.37 2067.14 1356.44 2056.21 1356.44 2042.73z" class="colorfff svgShape"></path><path fill="#032068" fill-rule="evenodd" d="M1178.82 1952.65C1178.82 1952.65 1178.85 1952.64 1178.93 1952.62C1178.86 1952.64 1178.82 1952.65 1178.82 1952.65ZM1180.25 1952.4C1180.68 1952.35 1181.18 1952.29 1181.78 1952.23C1184.19 1952 1187.58 1951.8 1191.82 1951.65C1200.29 1951.35 1211.73 1951.24 1224.72 1951.26C1250.67 1951.32 1282.51 1951.92 1308.53 1952.57C1317.27 1952.79 1324.24 1959.96 1324.24 1968.77V2042.74C1324.24 2051.72 1316.96 2059.01 1307.97 2059.01H1150.25C1138.21 2059.01 1130.45 2046.45 1135.77 2035.79C1145.5 2016.3 1156.19 1995.29 1164.99 1978.84C1169.4 1970.6 1173.3 1963.59 1176.33 1958.52C1177.86 1955.98 1179.1 1954.03 1180.04 1952.7C1180.12 1952.6 1180.19 1952.5 1180.25 1952.4ZM1181.06 1951.37C1181.11 1951.32 1181.13 1951.29 1181.13 1951.3C1181.13 1951.3 1181.11 1951.32 1181.06 1951.37ZM1224.75 1934.99C1250.88 1935.05 1282.86 1935.65 1308.94 1936.31C1326.58 1936.75 1340.51 1951.2 1340.51 1968.77V2042.74C1340.51 2060.71 1325.94 2075.28 1307.97 2075.28H1150.25C1126.25 2075.28 1110.44 2050.12 1121.21 2028.53C1130.96 2008.99 1141.73 1987.81 1150.65 1971.16C1155.1 1962.84 1159.14 1955.57 1162.38 1950.16C1163.99 1947.47 1165.47 1945.13 1166.75 1943.31C1167.39 1942.41 1168.06 1941.53 1168.73 1940.75C1169.26 1940.15 1170.32 1938.97 1171.78 1938.1L1175.87 1944.99L1171.78 1938.1C1173.47 1937.1 1175.36 1936.73 1176.2 1936.58C1177.38 1936.35 1178.75 1936.18 1180.19 1936.04C1183.1 1935.75 1186.87 1935.54 1191.24 1935.39C1200.02 1935.07 1211.7 1934.97 1224.75 1934.99ZM1492.98 1937.31C1493.56 1937.55 1494.85 1938.13 1496.04 1939.31C1497.52 1940.78 1498.24 1942.58 1498.46 1943.15L1498.48 1943.18C1498.84 1944.09 1499.16 1945.11 1499.44 1946.12C1500.01 1948.15 1500.61 1950.76 1501.23 1953.75C1502.46 1959.76 1503.87 1967.83 1505.35 1976.98C1508.3 1995.31 1511.57 2018.32 1514.32 2038.57C1516.96 2058.07 1501.74 2075.28 1482.15 2075.28H1380.85C1362.88 2075.28 1348.31 2060.71 1348.31 2042.74V1968.67C1348.31 1951.15 1362.19 1936.73 1379.77 1936.23C1402.46 1935.59 1429.36 1935.02 1451.01 1934.99C1461.81 1934.97 1471.41 1935.09 1478.54 1935.41C1482.08 1935.57 1485.18 1935.78 1487.57 1936.08C1488.75 1936.22 1489.96 1936.41 1491.05 1936.69C1491.59 1936.82 1492.27 1937.02 1492.98 1937.31ZM1451.03 1951.26C1429.6 1951.29 1402.86 1951.86 1380.23 1952.49C1371.52 1952.74 1364.58 1959.89 1364.58 1968.67V2042.74C1364.58 2051.72 1371.86 2059.01 1380.85 2059.01H1482.15C1491.98 2059.01 1499.5 2050.4 1498.19 2040.76C1495.46 2020.55 1492.2 1997.7 1489.28 1979.57C1487.82 1970.49 1486.45 1962.69 1485.29 1957.03C1484.88 1955.05 1484.51 1953.39 1484.19 1952.08C1482.54 1951.92 1480.41 1951.78 1477.82 1951.66C1471.06 1951.36 1461.76 1951.25 1451.03 1951.26ZM1483.36 1949.19C1483.36 1949.2 1483.36 1949.2 1483.37 1949.21C1483.26 1949.01 1483.27 1948.96 1483.36 1949.19Z" clip-rule="evenodd" class="color032068 svgShape"></path><path fill="#efcb96" d="M2281.3 1554.44L2320.84 1650.83C2320.84 1680.04 2304.15 1738.45 2237.37 1738.45C2170.59 1738.45 2130.46 1700.48 2118.75 1681.5V1607.02C2096.78 1607.02 2070.42 1576.35 2057.24 1554.44C2044.06 1532.54 1982.55 1401.1 2052.85 1317.86C2123.14 1234.62 2219.79 1291.58 2281.3 1370.44C2330.51 1433.52 2301.8 1519.39 2281.3 1554.44Z" class="colorEFCB96 svgShape"></path><path fill="#004e92" d="M2826.08 2794.3H2404.32H1894.69C1815.61 2689.15 1762.89 1909.31 1811.21 1826.07C1887.52 1694.64 2039.67 1663.97 2109.96 1646.45C2121.67 1668.35 2155.65 1694.64 2215.4 1694.64C2275.15 1694.64 2313.52 1650.83 2325.23 1628.92C2410.17 1644.99 2601.13 1695.52 2685.49 1769.12C2790.93 1861.12 2870.01 2277.33 2900.77 2540.2C2925.37 2750.49 2861.23 2797.22 2826.08 2794.3Z" class="colorF4AD5E svgShape"></path><path fill="#032068" d="M2479 2715.44C2566.87 2680.39 2673.77 2493.46 2716.24 2404.38C2682.56 2531.43 2549.29 2773.43 2448.25 2754.87C2314.69 2730.33 2111.42 2449.65 2026.49 2312.38C2140.71 2461.33 2391.13 2750.49 2479 2715.44Z" class="color032068 svgShape"></path><path fill="#032068" d="M2316.45 2654.1C2411.34 2605.03 2534.65 2619.05 2584.44 2632.2 2565.4 2668.71 2514.15 2739.97 2461.43 2732.96 2408.71 2725.95 2342.81 2677.47 2316.45 2654.1zM2399.92 2237.9L2448.24 2088.94 2373.56 2215.99C2313.81 2198.47 2224.19 2154.66 2118.75 2132.75 2215.4 2167.8 2396.99 2270.02 2500.96 2329.9L2399.92 2237.9z" class="color032068 svgShape"></path><path fill="#efcb96" d="M2061.63 2102.08C2065.15 2109.09 2083.6 2134.21 2092.39 2145.89L2030.88 2251.04C2025.67 2243.74 2010.87 2226.51 1993.29 2215.99C1971.33 2202.85 1903.47 2189.71 1903.47 2137.13C1903.47 2095.07 1932.76 2061.19 1947.41 2049.51C1923.98 2024.68 1872.72 1983.79 1872.72 1970.65C1872.72 1960.85 1877.11 1944.36 1894.69 1948.74C1912.26 1953.13 1973.77 2023.22 1986.95 2027.6C2000.13 2031.99 2035.27 2027.6 2048.45 2036.37C2061.63 2045.13 2057.24 2093.32 2061.63 2102.08Z" class="colorEFCB96 svgShape"></path><path fill="#032068" d="M2219.79 1585.11C2188.16 1609.65 2139.25 1609.94 2118.75 1607.02V1637.68C2160.92 1637.68 2203.68 1602.64 2219.79 1585.11zM2254.94 1519.39C2258.45 1533.41 2282.76 1574.89 2294.48 1593.87 2329.63 1580.73 2338.42 1392.34 2316.45 1335.39 2298.88 1289.82 2232.97 1278.43 2206.61 1282.81 2189.04 1269.67 2167.09 1243.38 2035.29 1265.29 1903.49 1287.19 1903.49 1436.15 1991.35 1440.53 2079.22 1444.92 2114.35 1401.1 2127.53 1405.48 2140.71 1409.87 2149.5 1418.63 2180.25 1458.06 2211.01 1497.49 2202.22 1497.49 2206.61 1458.06 2211.01 1418.63 2228.58 1418.63 2259.33 1440.53 2290.09 1462.44 2250.55 1501.87 2254.94 1519.39z" class="color032068 svgShape"></path><path fill="#ffffff" d="M1629.8 1782.75L1690.83 2050.52C1691.43 2053.19 1693.5 2055.29 1696.16 2055.95L1799.84 2081.73C1805.08 2083.03 1809.86 2078.4 1808.71 2073.14L1754.14 1824.78C1753.63 1822.46 1752.01 1820.53 1749.8 1819.63L1639.66 1774.44C1634.21 1772.2 1628.49 1777.02 1629.8 1782.75Z" class="colorfff svgShape"></path><path fill="#032068" fill-rule="evenodd" d="M1642.42 1767.73C1631.53 1763.26 1620.1 1772.9 1622.71 1784.36L1683.74 2052.13C1684.95 2057.46 1689.08 2061.66 1694.4 2062.99L1696.16 2055.95L1694.4 2062.99L1798.08 2088.77C1808.55 2091.37 1818.12 2082.1 1815.81 2071.59L1761.24 1823.23C1760.22 1818.58 1756.98 1814.73 1752.57 1812.92L1642.42 1767.73ZM1636.89 1781.14L1747.04 1826.33L1801.6 2074.7L1697.92 2048.91L1636.89 1781.14Z" clip-rule="evenodd" class="color032068 svgShape"></path><path fill="#efcb96" d="M1777.85 2094.71V2132.6C1734.53 2154.07 1649.43 2185.64 1655.54 2140.18C1663.19 2083.35 1640.25 2075.77 1628.79 2011.37C1619.61 1959.85 1642.8 1939.39 1655.54 1935.6C1658.09 1945.7 1663.95 1968.18 1667.01 1977.27C1670.83 1988.64 1709.05 1969.7 1739.63 1965.91C1770.2 1962.12 1789.31 2018.95 1793.14 2049.25C1796.96 2079.56 1777.85 2083.35 1777.85 2094.71Z" class="colorEFCB96 svgShape"></path><path fill="#032068" d="M1899.08 2513.91C1899.08 2569.99 1861 2605.91 1841.97 2619.05L1846.36 2645.34C1866.86 2649.72 1912.6 2597.15 1916.65 2544.57C1923.65 2453.89 1847.11 2225.55 1807.4 2121.14C1807.2 2120.61 1807.01 2120.1 1806.82 2119.61C1807.01 2120.12 1807.21 2120.63 1807.4 2121.14C1830 2181.2 1899.08 2444.42 1899.08 2513.91Z" class="color032068 svgShape"></path><path fill="#004e92" d="M1709.14 2132.75C1638.84 2132.75 1648.66 2119.61 1631.09 2088.94C1631.09 2195.55 1591.55 2421.9 1609.12 2509.53C1631.08 2619.05 1709.14 2658.48 1757.46 2649.72C1805.78 2640.96 1884.88 2619.05 1898.06 2522.67C1908.6 2445.56 1835.09 2201.39 1797.01 2088.94C1792.62 2099.16 1769.82 2132.75 1709.14 2132.75Z" class="colorF4AD5E svgShape"></path><path fill="#032068" d="M1625.66 2566.48C1734.62 2506.9 1846.79 2538.73 1889.26 2562.1C1877.55 2591.31 1834.79 2650.6 1757.46 2654.1C1680.14 2657.61 1637.38 2597.15 1625.66 2566.48Z" class="color032068 svgShape"></path></svg></g></svg>