<svg width="12" height="18" viewBox="0 0 12 18" fill="none" xmlns="http://www.w3.org/2000/svg">
<path d="M6.0135 9.69474C4.52252 9.70081 3.3076 8.48803 3.30148 6.98578C3.29536 5.48213 4.50037 4.26019 5.99135 4.25412C7.48232 4.24805 8.69725 5.46083 8.70337 6.96378C8.70949 8.46532 7.50448 9.68867 6.0135 9.69474ZM5.978 0.975657C2.67629 0.989102 0.0109758 3.69531 0.0245184 7.02096C0.0373097 10.1621 2.76109 14.2028 4.57703 16.1682C5.25544 16.9014 6.04617 17.8905 6.04617 17.8905C6.04617 17.8905 6.88725 16.8891 7.60888 16.1284C9.40768 14.2307 11.9939 10.4247 11.9798 6.97227C11.9663 3.64663 9.27899 0.962214 5.978 0.975657Z" fill="#80BC48"/>
</svg>
