<svg width="14" height="14" viewBox="0 0 14 14" fill="none" xmlns="http://www.w3.org/2000/svg">
<path d="M7.00065 13.6668C3.31875 13.6668 0.333984 10.682 0.333984 7.00016C0.333984 3.31826 3.31875 0.333496 7.00065 0.333496C10.6825 0.333496 13.6673 3.31826 13.6673 7.00016C13.6673 10.682 10.6825 13.6668 7.00065 13.6668ZM7.00065 12.3335C9.94618 12.3335 12.334 9.9457 12.334 7.00016C12.334 4.05464 9.94618 1.66683 7.00065 1.66683C4.05513 1.66683 1.66732 4.05464 1.66732 7.00016C1.66732 9.9457 4.05513 12.3335 7.00065 12.3335ZM7.00065 6.05736L8.88625 4.17174L9.82905 5.11454L7.94345 7.00016L9.82905 8.88576L8.88625 9.82856L7.00065 7.94296L5.11503 9.82856L4.17222 8.88576L6.05785 7.00016L4.17222 5.11454L5.11503 4.17174L7.00065 6.05736Z" fill="#E93324"/>
</svg>
