<svg width="306" height="246" viewBox="0 0 306 246" fill="none" xmlns="http://www.w3.org/2000/svg">
<rect width="304.963" height="244.671" transform="translate(0.371094 0.473145)" fill="transparent"/>
<path fill-rule="evenodd" clip-rule="evenodd" d="M77.2226 164.403H188.229C188.857 164.403 189.469 164.335 190.059 164.206C190.648 164.335 191.261 164.403 191.889 164.403H255.321C260.037 164.403 263.86 160.569 263.86 155.84C263.86 151.11 260.037 147.276 255.321 147.276H248.002C243.286 147.276 239.463 143.442 239.463 138.713C239.463 133.983 243.286 130.149 248.002 130.149H271.179C275.895 130.149 279.718 126.315 279.718 121.586C279.718 116.856 275.895 113.022 271.179 113.022H244.342C249.058 113.022 252.881 109.188 252.881 104.459C252.881 99.7291 249.058 95.8951 244.342 95.8951H166.272C170.988 95.8951 174.811 92.0611 174.811 87.3316C174.811 82.6021 170.988 78.7681 166.272 78.7681H96.7402C92.0243 78.7681 88.2012 82.6021 88.2012 87.3316C88.2012 92.0611 92.0243 95.8951 96.7402 95.8951H47.9461C43.2302 95.8951 39.4072 99.7291 39.4072 104.459C39.4072 109.188 43.2302 113.022 47.9461 113.022H78.4424C83.1584 113.022 86.9814 116.856 86.9814 121.586C86.9814 126.315 83.1584 130.149 78.4424 130.149H29.6483C24.9324 130.149 21.1094 133.983 21.1094 138.713C21.1094 143.442 24.9324 147.276 29.6483 147.276H77.2226C72.5066 147.276 68.6836 151.11 68.6836 155.84C68.6836 160.569 72.5066 164.403 77.2226 164.403ZM276.058 164.403C280.774 164.403 284.597 160.569 284.597 155.84C284.597 151.11 280.774 147.276 276.058 147.276C271.342 147.276 267.519 151.11 267.519 155.84C267.519 160.569 271.342 164.403 276.058 164.403Z" fill="#1F64E7" fill-opacity="0.1"/>
<path fill-rule="evenodd" clip-rule="evenodd" d="M138.358 137.864C138.263 138.541 138.214 139.233 138.214 139.936C138.214 148.044 144.767 154.616 152.852 154.616C160.936 154.616 167.49 148.044 167.49 139.936C167.49 139.233 167.441 138.541 167.345 137.864H202.866V170.52C202.866 172.547 201.227 174.19 199.206 174.19H106.497C104.476 174.19 102.838 172.547 102.838 170.52V137.864H138.358Z" fill="#F5F5F5"/>
<path fill-rule="evenodd" clip-rule="evenodd" d="M168.71 137.489C168.71 146.272 161.61 153.393 152.852 153.393C144.094 153.393 136.994 146.272 136.994 137.489C136.994 137.204 137.001 136.922 137.016 136.641H102.838L114.5 102.059C115.003 100.568 116.398 99.5649 117.967 99.5649H187.737C189.306 99.5649 190.701 100.568 191.203 102.059L202.866 136.641H168.688C168.702 136.922 168.71 137.204 168.71 137.489Z" fill="#F6F6F6"/>
<path fill-rule="evenodd" clip-rule="evenodd" d="M166.389 138.657C166.389 145.444 160.328 152.169 152.852 152.169C145.375 152.169 139.314 145.444 139.314 138.657C139.314 138.437 139.321 136.995 139.333 136.778H113.816L123.772 112.503C124.201 111.351 125.392 110.575 126.731 110.575H178.972C180.312 110.575 181.502 111.351 181.931 112.503L191.887 136.778H166.37C166.383 136.995 166.389 138.437 166.389 138.657Z" fill="#DFE6F3"/>
<path fill-rule="evenodd" clip-rule="evenodd" d="M104.363 136.892V169.296C104.363 170.479 105.319 171.437 106.498 171.437H199.207C200.386 171.437 201.342 170.479 201.342 169.296V136.892L189.76 102.549C189.466 101.68 188.653 101.094 187.737 101.094H117.967C117.052 101.094 116.239 101.68 115.945 102.549L104.363 136.892Z" stroke="#0560FA" stroke-opacity="0.6" stroke-width="2.5"/>
<path d="M110.857 136.266H113.817M119.916 136.266C124.718 136.266 129.901 136.266 135.463 136.266C137.752 136.266 137.752 137.879 137.752 138.712C137.752 146.82 144.457 153.393 152.727 153.393C160.998 153.393 167.702 146.82 167.702 138.712C167.702 137.879 167.702 136.266 169.991 136.266H200.427" stroke="#1F64E7" stroke-opacity="0.6" stroke-width="2.5" stroke-linecap="round" stroke-linejoin="round"/>
<path d="M151.754 66.5342V87.0326M119.916 71.798L133.456 87.0326M183.47 71.798L169.93 87.0326" stroke="#0560FA" stroke-opacity="0.6" stroke-width="2.5" stroke-linecap="round" stroke-linejoin="round"/>
</svg>
