<svg width="20" height="20" viewBox="0 0 20 20" fill="none" xmlns="http://www.w3.org/2000/svg">
<path d="M4.16602 7.50016V5.8335H11.666V12.5002" stroke="black" stroke-linecap="round" stroke-linejoin="round"/>
<path d="M5.83268 12.5002H4.16602V10.8335" stroke="black" stroke-linecap="round" stroke-linejoin="round"/>
<path d="M11.666 6.6665H14.166V9.1665L15.8327 9.99984V12.4998H14.166" stroke="black" stroke-linecap="round" stroke-linejoin="round"/>
<path d="M7.08398 13.75C7.77434 13.75 8.33398 13.1904 8.33398 12.5C8.33398 11.8096 7.77434 11.25 7.08398 11.25C6.39363 11.25 5.83398 11.8096 5.83398 12.5C5.83398 13.1904 6.39363 13.75 7.08398 13.75Z" stroke="black" stroke-linecap="round" stroke-linejoin="round"/>
<path d="M12.916 13.75C13.6064 13.75 14.166 13.1904 14.166 12.5C14.166 11.8096 13.6064 11.25 12.916 11.25C12.2257 11.25 11.666 11.8096 11.666 12.5C11.666 13.1904 12.2257 13.75 12.916 13.75Z" stroke="black" stroke-linecap="round" stroke-linejoin="round"/>
<path d="M8.33398 12.5H11.6673" stroke="black" stroke-linecap="round" stroke-linejoin="round"/>
<path d="M3.33398 7.5H8.33398" stroke="black" stroke-linecap="round" stroke-linejoin="round"/>
<path d="M3.33398 9.1665H6.66732" stroke="black" stroke-linecap="round" stroke-linejoin="round"/>
<path d="M3.33398 10.8335H5.00065" stroke="black" stroke-linecap="round" stroke-linejoin="round"/>
</svg>
