<svg width="213" height="144" viewBox="0 0 213 144" fill="none" xmlns="http://www.w3.org/2000/svg">
<path d="M109.619 43.4805V83.9773L143.249 66.57V26.0715L109.619 43.4805Z" fill="#0560FA"/>
<path d="M68.752 63.1364L102.277 83.9771V43.2424L68.752 22.8706V63.1364Z" fill="#0560FA"/>
<path d="M105.121 0.0227051L72.5586 16.7492C72.6286 16.6547 105.949 37.7947 105.949 37.7947L139.58 19.915L105.121 0.0227051Z" fill="#0560FA"/>
<path d="M10.36 133.64C8.41333 133.64 6.65333 133.307 5.08 132.64C3.53333 131.973 2.30667 131.013 1.4 129.76C0.493333 128.507 0.0266666 127.027 0 125.32H6C6.08 126.467 6.48 127.373 7.2 128.04C7.94667 128.707 8.96 129.04 10.24 129.04C11.5467 129.04 12.5733 128.733 13.32 128.12C14.0667 127.48 14.44 126.653 14.44 125.64C14.44 124.813 14.1867 124.133 13.68 123.6C13.1733 123.067 12.5333 122.653 11.76 122.36C11.0133 122.04 9.97333 121.693 8.64 121.32C6.82667 120.787 5.34667 120.267 4.2 119.76C3.08 119.227 2.10667 118.44 1.28 117.4C0.48 116.333 0.08 114.92 0.08 113.16C0.08 111.507 0.493333 110.067 1.32 108.84C2.14667 107.613 3.30667 106.68 4.8 106.04C6.29333 105.373 8 105.04 9.92 105.04C12.8 105.04 15.1333 105.747 16.92 107.16C18.7333 108.547 19.7333 110.493 19.92 113H13.76C13.7067 112.04 13.2933 111.253 12.52 110.64C11.7733 110 10.7733 109.68 9.52 109.68C8.42667 109.68 7.54667 109.96 6.88 110.52C6.24 111.08 5.92 111.893 5.92 112.96C5.92 113.707 6.16 114.333 6.64 114.84C7.14667 115.32 7.76 115.72 8.48 116.04C9.22667 116.333 10.2667 116.68 11.6 117.08C13.4133 117.613 14.8933 118.147 16.04 118.68C17.1867 119.213 18.1733 120.013 19 121.08C19.8267 122.147 20.24 123.547 20.24 125.28C20.24 126.773 19.8533 128.16 19.08 129.44C18.3067 130.72 17.1733 131.747 15.68 132.52C14.1867 133.267 12.4133 133.64 10.36 133.64Z" fill="#0560FA"/>
<path d="M46.415 111.2V133.36H40.775V130.56C40.055 131.52 39.1083 132.28 37.935 132.84C36.7883 133.373 35.535 133.64 34.175 133.64C32.4417 133.64 30.9083 133.28 29.575 132.56C28.2417 131.813 27.1883 130.733 26.415 129.32C25.6683 127.88 25.295 126.173 25.295 124.2V111.2H30.895V123.4C30.895 125.16 31.335 126.52 32.215 127.48C33.095 128.413 34.295 128.88 35.815 128.88C37.3617 128.88 38.575 128.413 39.455 127.48C40.335 126.52 40.775 125.16 40.775 123.4V111.2H46.415Z" fill="#0560FA"/>
<path d="M57.9403 114.4C58.6603 113.387 59.647 112.547 60.9003 111.88C62.1803 111.187 63.6336 110.84 65.2603 110.84C67.1536 110.84 68.8603 111.307 70.3803 112.24C71.927 113.173 73.1403 114.507 74.0203 116.24C74.927 117.947 75.3803 119.933 75.3803 122.2C75.3803 124.467 74.927 126.48 74.0203 128.24C73.1403 129.973 71.927 131.32 70.3803 132.28C68.8603 133.24 67.1536 133.72 65.2603 133.72C63.6336 133.72 62.1936 133.387 60.9403 132.72C59.7136 132.053 58.7136 131.213 57.9403 130.2V143.92H52.3403V111.2H57.9403V114.4ZM69.6603 122.2C69.6603 120.867 69.3803 119.72 68.8203 118.76C68.287 117.773 67.567 117.027 66.6603 116.52C65.7803 116.013 64.8203 115.76 63.7803 115.76C62.767 115.76 61.807 116.027 60.9003 116.56C60.0203 117.067 59.3003 117.813 58.7403 118.8C58.207 119.787 57.9403 120.947 57.9403 122.28C57.9403 123.613 58.207 124.773 58.7403 125.76C59.3003 126.747 60.0203 127.507 60.9003 128.04C61.807 128.547 62.767 128.8 63.7803 128.8C64.8203 128.8 65.7803 128.533 66.6603 128C67.567 127.467 68.287 126.707 68.8203 125.72C69.3803 124.733 69.6603 123.56 69.6603 122.2Z" fill="#0560FA"/>
<path d="M85.4497 114.4C86.1697 113.387 87.1563 112.547 88.4097 111.88C89.6897 111.187 91.143 110.84 92.7697 110.84C94.663 110.84 96.3697 111.307 97.8897 112.24C99.4364 113.173 100.65 114.507 101.53 116.24C102.436 117.947 102.89 119.933 102.89 122.2C102.89 124.467 102.436 126.48 101.53 128.24C100.65 129.973 99.4364 131.32 97.8897 132.28C96.3697 133.24 94.663 133.72 92.7697 133.72C91.143 133.72 89.703 133.387 88.4497 132.72C87.223 132.053 86.223 131.213 85.4497 130.2V143.92H79.8497V111.2H85.4497V114.4ZM97.1697 122.2C97.1697 120.867 96.8897 119.72 96.3297 118.76C95.7964 117.773 95.0764 117.027 94.1697 116.52C93.2897 116.013 92.3297 115.76 91.2897 115.76C90.2764 115.76 89.3164 116.027 88.4097 116.56C87.5297 117.067 86.8097 117.813 86.2497 118.8C85.7164 119.787 85.4497 120.947 85.4497 122.28C85.4497 123.613 85.7164 124.773 86.2497 125.76C86.8097 126.747 87.5297 127.507 88.4097 128.04C89.3164 128.547 90.2764 128.8 91.2897 128.8C92.3297 128.8 93.2897 128.533 94.1697 128C95.0764 127.467 95.7964 126.707 96.3297 125.72C96.8897 124.733 97.1697 123.56 97.1697 122.2Z" fill="#0560FA"/>
<path d="M112.959 103.76V133.36H107.359V103.76H112.959Z" fill="#0560FA"/>
<path d="M121.732 108.56C120.745 108.56 119.919 108.253 119.252 107.64C118.612 107 118.292 106.213 118.292 105.28C118.292 104.347 118.612 103.573 119.252 102.96C119.919 102.32 120.745 102 121.732 102C122.719 102 123.532 102.32 124.172 102.96C124.839 103.573 125.172 104.347 125.172 105.28C125.172 106.213 124.839 107 124.172 107.64C123.532 108.253 122.719 108.56 121.732 108.56ZM124.492 111.2V133.36H118.892V111.2H124.492Z" fill="#0560FA"/>
<path d="M140.585 115.8H136.705V133.36H131.025V115.8H128.505V111.2H131.025V110.08C131.025 107.36 131.798 105.36 133.345 104.08C134.891 102.8 137.225 102.2 140.345 102.28V107C138.985 106.973 138.038 107.2 137.505 107.68C136.971 108.16 136.705 109.027 136.705 110.28V111.2H140.585V115.8Z" fill="#0560FA"/>
<path d="M150.214 103.76V133.36H144.614V103.76H150.214Z" fill="#0560FA"/>
<path d="M165.987 133.72C163.853 133.72 161.933 133.253 160.227 132.32C158.52 131.36 157.173 130.013 156.187 128.28C155.227 126.547 154.747 124.547 154.747 122.28C154.747 120.013 155.24 118.013 156.227 116.28C157.24 114.547 158.613 113.213 160.347 112.28C162.08 111.32 164.013 110.84 166.147 110.84C168.28 110.84 170.213 111.32 171.947 112.28C173.68 113.213 175.04 114.547 176.027 116.28C177.04 118.013 177.547 120.013 177.547 122.28C177.547 124.547 177.027 126.547 175.987 128.28C174.973 130.013 173.587 131.36 171.827 132.32C170.093 133.253 168.147 133.72 165.987 133.72ZM165.987 128.84C167 128.84 167.947 128.6 168.827 128.12C169.733 127.613 170.453 126.867 170.987 125.88C171.52 124.893 171.787 123.693 171.787 122.28C171.787 120.173 171.227 118.56 170.107 117.44C169.013 116.293 167.667 115.72 166.067 115.72C164.467 115.72 163.12 116.293 162.027 117.44C160.96 118.56 160.427 120.173 160.427 122.28C160.427 124.387 160.947 126.013 161.987 127.16C163.053 128.28 164.387 128.84 165.987 128.84Z" fill="#0560FA"/>
<path d="M212.774 111.2L206.294 133.36H200.254L196.214 117.88L192.174 133.36H186.094L179.574 111.2H185.254L189.174 128.08L193.414 111.2H199.334L203.494 128.04L207.414 111.2H212.774Z" fill="#0560FA"/>
</svg>
