<svg width="274" height="213" viewBox="0 0 274 213" fill="none" xmlns="http://www.w3.org/2000/svg">
<path d="M15.4388 212.396C15.3406 212.396 15.2617 197.125 15.2617 178.292C15.2617 159.453 15.3406 144.185 15.4388 144.185C15.5364 144.185 15.6153 159.453 15.6153 178.292C15.6153 197.125 15.5364 212.396 15.4388 212.396Z" fill="#E3E3E2"/>
<path d="M30.2348 204.983H23.3906V197.285H30.2348V204.983Z" fill="#FCFDFD"/>
<path d="M1.72792 205.204C1.73622 205.208 1.77724 205.135 1.84785 204.993C1.92885 204.825 2.0275 204.619 2.14691 204.369C2.40444 203.827 2.75646 203.031 3.17806 202.043C4.02281 200.066 5.10329 197.3 6.25385 194.231C7.40545 191.161 8.45893 188.388 9.26059 186.397C9.65363 185.429 9.9771 184.633 10.2175 184.041C10.3203 183.785 10.4049 183.573 10.4745 183.399C10.5306 183.251 10.5565 183.171 10.5487 183.167C10.5404 183.165 10.4994 183.237 10.4288 183.379C10.3478 183.547 10.2492 183.753 10.1292 184.002C9.87221 184.544 9.52071 185.34 9.0986 186.329C8.25384 188.305 7.17337 191.072 6.02229 194.142C4.8712 197.211 3.81773 199.983 3.01607 201.975C2.62251 202.942 2.29905 203.739 2.05917 204.33C1.95637 204.587 1.87173 204.799 1.80216 204.973C1.74608 205.121 1.72013 205.201 1.72792 205.204Z" fill="#1D2A30"/>
<path d="M88.332 212.879H16.0727C7.34226 212.839 -0.0367263 205.432 0.000137529 196.745L0.769601 15.6676C0.806465 6.97571 7.91962 -0.0398102 16.6553 -3.05176e-05L89.2474 0.333694C97.9784 0.373993 105.023 7.44685 104.987 16.1336L104.218 197.212C104.181 205.904 97.0677 212.919 88.332 212.879Z" fill="#1D2A30"/>
<path d="M89.1435 7.21472L75.0693 7.15015C73.182 7.14189 71.6446 8.72684 71.6368 10.6894L71.6254 13.2296C71.6176 15.1927 70.0802 16.7776 68.1934 16.7683L40.7595 16.6423C38.8722 16.634 37.3483 15.0351 37.3566 13.072L37.3675 10.5318C37.3758 8.56876 35.8524 6.96933 33.9651 6.96107L29.015 6.93834L16.6963 6.88152C10.579 6.85414 5.59715 11.7671 5.57119 17.8542L4.82041 194.599C4.79445 200.684 9.72849 205.637 15.8432 205.665L88.2904 205.998C94.4077 206.026 99.3895 201.113 99.416 195.026L100.167 18.2804C100.192 12.1964 95.2582 7.24315 89.1435 7.21472Z" fill="#F8F8F9"/>
<path d="M58.3968 172.598C58.3137 174.732 58.2353 176.733 58.1699 178.397H68.5764L67.3028 172.038L58.3968 172.598Z" fill="#F8F8F9"/>
<path d="M16.1016 175.26L16.1924 178.397H57.1299C57.1995 176.635 57.2758 174.68 57.3537 172.663L16.1016 175.26Z" fill="#F8F8F9"/>
<path d="M67.8262 172.004L69.1065 178.397H88.2918L88.0608 170.731L67.8262 172.004Z" fill="#F8F8F9"/>
<path d="M59.4363 82.6353L63.065 61.7076L53.5625 61.007V82.6353H59.4363Z" fill="#F8F8F9"/>
<path d="M15.2474 163.642L4.93545 167.661L4.9043 174.929L15.5548 174.259L15.2474 163.642Z" fill="#F8F8F9"/>
<path d="M15.1989 162.007L14.6355 142.515L14.6272 142.516V135.641L5.06602 136.649L4.94141 165.993L15.1952 161.997L15.1989 162.007Z" fill="#F8F8F9"/>
<path d="M14.6287 120.295L5.14224 119.049L5.07422 135.09L14.6287 134.083V120.295Z" fill="#F8F8F9"/>
<path d="M85.3362 135.931L84.9369 141.517L73.7324 142.72L74.5995 147.139L87.3191 146.186L87.128 139.847L88.1425 135.649L85.3362 135.931Z" fill="#F8F8F9"/>
<path d="M65.1434 147.849L74.079 147.179L72.133 137.257L64.334 138.04L65.1434 147.849Z" fill="#F8F8F9"/>
<path d="M65.2285 148.878L65.9107 157.152L67.1231 168.498L67.6205 170.982L88.029 169.698L87.3509 147.22L65.2285 148.878Z" fill="#F8F8F9"/>
<path d="M16.7595 139.894C16.7595 139.894 16.8784 122.028 16.7595 121.361L29.6026 114.563L31.2672 138.981L16.7595 139.894ZM30.1026 109.821L30.8871 111.16L15.1473 120.294V141.962L31.7594 140.792L63.7748 137.577L62.6025 123.374L32.0175 119.399L32.2189 117.862L62.4721 121.795L60.4888 97.7575L30.5445 100.622L30.4453 99.5935L60.4036 96.7274L59.3683 84.1852H30.5652L5.27045 88.7655L5.14844 117.487L14.7258 118.745L30.1026 109.821Z" fill="#F8F8F9"/>
<path d="M84.2888 136.037L72.6523 137.206L73.5345 141.702L83.9643 140.583L84.2888 136.037Z" fill="#F8F8F9"/>
<path d="M58.5435 168.77C58.5072 169.708 58.4714 170.643 58.4355 171.56L67.0965 171.015L66.6515 168.792L58.5435 168.77Z" fill="#F8F8F9"/>
<path d="M39.8893 82.6356L41.4168 75.7534H53.043V60.9691L16.6859 58.2895V72.1712L5.32978 74.7269L5.27734 87.1895L30.4247 82.6356H39.8893Z" fill="#F8F8F9"/>
<path d="M64.1495 41.4992L63.8396 40.2325L77.7232 34.7657L68.6926 16.729C68.5291 16.7533 68.3639 16.7693 68.1936 16.7682L52.8516 16.698L53.269 41.9414L64.1495 41.4992Z" fill="#F8F8F9"/>
<path d="M85.1899 31.8252L85.1743 7.19606L75.07 7.15009C73.1827 7.14182 71.6453 8.72677 71.6375 10.6894L71.6261 13.2295C71.6214 14.4409 71.0331 15.5072 70.1406 16.1447L79.1769 34.1934L85.1899 31.8252Z" fill="#F8F8F9"/>
<path d="M30.4945 9.57929L30.8689 30.6971L16.2729 28.5718L19.4697 9.57929H30.4945ZM32.9971 32.8823L31.8263 6.95131L29.0148 6.93839L18.0335 6.88777L13.3555 30.0766L32.9971 32.8823Z" fill="#F8F8F9"/>
<path d="M33.5283 32.9578L33.5314 33.1784C33.5564 35.2019 33.5984 38.844 33.6285 42.7397L52.7499 41.9623L52.3325 16.6951L40.7604 16.6419C38.8731 16.6336 37.3492 15.0347 37.3575 13.0716L37.3684 10.5309C37.3767 8.56835 35.8528 6.96893 33.966 6.96067L32.3477 6.95344L33.5216 32.9568L33.5283 32.9578Z" fill="#F8F8F9"/>
<path d="M11.8107 29.856L16.443 6.89335C10.4425 7.00081 5.59573 11.8517 5.57029 17.8542L5.52148 29.3016L5.57029 28.9648L11.8107 29.856Z" fill="#F8F8F9"/>
<path d="M15.1277 58.1748L5.40291 57.4583L5.33594 73.1362L15.1277 70.9329V58.1748Z" fill="#F8F8F9"/>
<path d="M11.7095 30.363L5.52206 29.4796L5.41406 54.8682L6.74635 54.9663L11.7095 30.363Z" fill="#F8F8F9"/>
<path d="M31.352 161.71L31.5151 141.327L15.1543 142.479L15.7317 162.448L31.352 161.71Z" fill="#F8F8F9"/>
<path d="M34.3612 157.007L57.5325 168.051C57.8087 160.834 58.0553 154.085 58.0319 153.655L58.534 153.628L58.7796 153.141C59.1088 153.305 59.1088 153.305 58.9364 158.225C58.8398 160.97 58.7028 164.623 58.5631 168.277H66.5766L65.3938 157.2L63.817 138.093L33.543 141.132L34.3612 157.007Z" fill="#F8F8F9"/>
<path d="M91.1582 123.177L90.897 120.49L63.123 123.365L64.2918 137.526L88.2719 135.118L91.1582 123.177Z" fill="#F8F8F9"/>
<path d="M53.0425 77.3029H42.6677L41.4844 82.6353H53.0425V77.3029Z" fill="#F8F8F9"/>
<path d="M61.8407 83.4103L63.2353 79.5564L85.8042 80.976L87.1106 92.0035L62.605 94.8949L61.8407 83.4103ZM86.8691 79.1028L60.8854 77.3143L59.8262 83.4221L60.9201 96.6777L88.3239 94.056L86.8691 79.1028Z" fill="#F8F8F9"/>
<path d="M89.5659 106.81L88.4247 95.0847L61.0059 97.708L62.0355 110.185L89.5659 106.81Z" fill="#F8F8F9"/>
<path d="M15.5833 175.292L4.94578 175.962L4.90217 175.273L4.88867 178.397H15.6731L15.5833 175.292Z" fill="#F8F8F9"/>
<path d="M99.9763 26.0035L100.133 26.3972L100.167 18.2803C100.193 12.1962 95.2587 7.24299 89.144 7.21458L85.6934 7.19908L85.7089 31.6211L99.9763 26.0035Z" fill="#F8F8F9"/>
<path d="M16.7585 164.294L39.3223 162.718L54.0014 169.495L16.7585 171.5V164.294ZM57.5102 168.614L33.8587 157.339L33.0248 141.184L32.0342 141.284L31.8665 162.203L15.7461 162.964L15.7596 163.43L15.7632 163.44L15.7601 163.441L16.0722 174.227L57.3944 171.626C57.4333 170.625 57.4723 169.617 57.5102 168.614Z" fill="#F8F8F9"/>
<path d="M93.2532 53.1279L94.2205 47.4169C85.7387 44.4056 85.1525 35.6052 85.1769 32.9416L79.6406 35.1211L87.9765 51.7708L93.2532 53.1279Z" fill="#F8F8F9"/>
<path d="M62.9949 121.819L74.526 120.626L72.2534 110.493L62.1621 111.73L62.9949 121.819Z" fill="#F8F8F9"/>
<path d="M86.9093 61.8813L65.371 61.8777L63.5834 61.7459L61.1504 75.7785L86.7162 77.5386L86.1222 71.4375L88.6388 62.4248L86.9093 61.8813Z" fill="#F8F8F9"/>
<path d="M77.6767 37.7502L85.4331 52.4332L84.3127 57.0082L71.0401 56.5113L67.7224 42.6239L77.6767 37.7502ZM86.3827 59.2983L86.6522 52.6006L78.1876 35.6941L65.0625 40.8622L69.5744 59.2983H86.3827Z" fill="#F8F8F9"/>
<path d="M89.7324 140.115L90.1296 153.271L99.4608 152.75L99.4904 153.265L90.1452 153.788L90.6203 169.535L99.4427 168.979L99.5081 170.01L90.6514 170.568L90.8877 178.397H99.4852L99.6721 134.492L90.8783 135.375L89.7324 140.115Z" fill="#F8F8F9"/>
<path d="M33.0149 33.4062L13.2543 30.5835L8.3125 55.0819L33.1021 56.9092C33.2013 53.1374 33.1146 41.5681 33.0149 33.4062Z" fill="#F8F8F9"/>
<path d="M65.5161 59.2983H68.5062L64.2752 42.0107L53.2773 42.458L53.5416 58.416L65.5161 59.2983Z" fill="#F8F8F9"/>
<path d="M4.83539 190.974L4.82033 194.599C4.81981 194.711 4.83279 194.819 4.83539 194.931V190.974Z" fill="#F8F8F9"/>
<path d="M33.6074 56.9465L53.0206 58.377L52.7579 42.4789L33.6313 43.2564C33.6718 48.6333 33.6879 54.3676 33.6074 56.9465Z" fill="#F8F8F9"/>
<path d="M89.7153 108.352L72.7715 110.43L75.0466 120.572L90.746 118.947L89.7153 108.352Z" fill="#F8F8F9"/>
<path d="M94.3094 46.8989L95.3951 40.4909L100.072 40.8531L100.13 27.0535L85.7036 32.7341C85.4097 42.4448 91.54 45.859 94.3094 46.8989Z" fill="#F8F8F9"/>
<path d="M88.7539 71.6663L89.3427 77.7194L99.9117 78.4468L99.9647 65.9831L91.1163 63.2028L88.7539 71.6663Z" fill="#F8F8F9"/>
<path d="M93.7835 123.36L91.0078 134.842L99.675 133.972L99.7264 121.931C97.0664 121.234 94.7456 120.666 93.4979 120.427L93.7835 123.36Z" fill="#F8F8F9"/>
<path d="M87.9336 59.4942L99.9756 63.2778L100.005 56.4643L88.1776 53.4236L87.9336 59.4942Z" fill="#F8F8F9"/>
<path d="M93.3448 118.85C94.3152 118.996 96.1547 119.385 99.7331 120.321L99.8447 93.992L91.0078 94.8377L93.3448 118.85Z" fill="#F8F8F9"/>
<path d="M90.9079 93.8091L99.8492 92.9536L99.9043 80.0002L89.4941 79.2837L90.9079 93.8091Z" fill="#F8F8F9"/>
<path d="M95.3066 47.2256C97.0013 47.7386 98.5782 48.1354 100.039 48.4268L100.067 41.8891L96.2604 41.5946L95.3066 47.2256Z" fill="#F8F8F9"/>
<path d="M94.2637 53.3872L100.012 54.8652L100.037 48.9579C98.5503 48.6613 96.9454 48.2589 95.22 47.7387L94.2637 53.3872Z" fill="#F8F8F9"/>
<path d="M15.7605 163.441L15.7637 163.44L15.76 163.43L15.7465 162.964L31.8669 162.203L32.0346 141.283L33.0253 141.184L33.8591 157.339L57.5106 168.613C57.4722 169.617 57.4338 170.625 57.3948 171.626L16.0726 174.226L15.7605 163.441ZM31.5149 141.327L31.3519 161.71L15.7315 162.448L15.1541 142.479L31.5149 141.327ZM65.3937 157.2L66.5765 168.277H58.563C58.7027 164.623 58.8398 160.97 58.9363 158.225C59.1087 153.305 59.1087 153.305 58.7796 153.141L58.5345 153.628L58.0319 153.655C58.0553 154.084 57.8086 160.833 57.5324 168.051L34.3612 157.006L33.5429 141.132L63.8169 138.092L65.3937 157.2ZM63.1222 123.364L90.8962 120.49L91.1574 123.177L88.2711 135.118L64.2909 137.526L63.1222 123.364ZM88.4238 95.0845L89.565 106.809L62.0345 110.185L61.0049 97.7078L88.4238 95.0845ZM59.8258 83.4221L60.8849 77.3143L86.8687 79.1028L88.3235 94.0559L60.9197 96.6777L59.8258 83.4221ZM42.6675 77.3029H53.0423V82.6353H41.4842L42.6675 77.3029ZM63.0641 61.7076L59.4353 82.6353H53.5615V61.0071L63.0641 61.7076ZM13.2533 30.5837L33.0138 33.4064C33.1135 41.5683 33.2002 53.1376 33.1011 56.9089L8.31147 55.0821L13.2533 30.5837ZM52.7578 42.479L53.0205 58.377L33.6073 56.9466C33.6878 54.3677 33.6717 48.6333 33.6312 43.2565L52.7578 42.479ZM64.2743 42.0105L68.5048 59.2982H65.5152L53.5407 58.4158L53.2765 42.4579L64.2743 42.0105ZM78.187 35.6939L86.6517 52.6004L86.3822 59.2982H69.5739L65.062 40.8615L78.187 35.6939ZM85.1771 32.9415C85.1522 35.6051 85.7389 44.4055 94.2207 47.4167L93.2534 53.1278L87.9767 51.7707L79.6408 35.121L85.1771 32.9415ZM86.7166 77.5385L61.1513 75.7784L63.5838 61.7458L65.3714 61.8776L86.9097 61.8812L88.6392 62.4247L86.1226 71.4374L86.7166 77.5385ZM75.0463 120.572L72.7712 110.43L89.715 108.352L90.7457 118.947L75.0463 120.572ZM72.2535 110.493L74.5261 120.626L62.995 121.82L62.1622 111.73L72.2535 110.493ZM87.3194 146.185L74.5998 147.139L73.7328 142.719L84.9367 141.517L85.3365 135.931L88.1429 135.649L87.1283 139.847L87.3194 146.185ZM72.1326 137.257L74.0785 147.178L65.143 147.848L64.3335 138.04L72.1326 137.257ZM72.6512 137.205L84.2877 136.037L83.9632 140.583L73.5334 141.702L72.6512 137.205ZM67.6201 170.982L67.1227 168.498L65.9104 157.152L65.2276 148.878L87.3505 147.219L88.0286 169.697L67.6201 170.982ZM58.4364 171.56C58.4722 170.643 58.508 169.708 58.5438 168.77L66.6523 168.792L67.0973 171.015L58.4364 171.56ZM15.5835 175.292L15.6733 178.397H16.1931L16.1022 175.26L57.3548 172.663C57.2764 174.68 57.2001 176.635 57.1306 178.397H58.1695C58.2349 176.733 58.3133 174.732 58.3964 172.598L67.3024 172.038L68.576 178.397H69.1056L67.8247 172.004L88.0598 170.731L88.2908 178.397H90.8884L90.6522 170.568L99.5089 170.01L99.4434 168.979L90.621 169.535L90.146 153.788L99.4912 153.265L99.4616 152.75L90.1304 153.271L89.7332 140.115L90.8791 135.375L99.6729 134.492L99.675 133.972L91.0079 134.842L93.7835 123.36L93.498 120.427C94.7456 120.666 97.0665 121.235 99.7264 121.931L99.7331 120.321C96.1548 119.385 94.3157 118.996 93.3448 118.85L91.0079 94.8375L99.8448 93.9919L99.8494 92.9535L90.9082 93.809L89.4944 79.2836L99.9045 80.0001L99.9112 78.4467L89.3422 77.7193L88.7534 71.6662L91.1158 63.2027L99.9642 65.983L99.9756 63.2776L87.9336 59.494L88.1777 53.4233L100.005 56.4641L100.011 54.8652L94.2628 53.3872L95.2191 47.7386C96.9445 48.2588 98.5493 48.6613 100.036 48.9578L100.038 48.4267C98.5779 48.1353 97.0011 47.7386 95.3064 47.2256L96.2602 41.5946L100.066 41.8891L100.071 40.8533L95.3941 40.4911L94.3084 46.8991C91.539 45.8592 85.4087 42.4449 85.7026 32.7343L100.129 27.0537L100.132 26.3971L99.9756 26.0034L85.7083 31.621L85.6927 7.19899L85.1735 7.19589L85.1891 31.8251L79.1761 34.1932L70.1393 16.1445C69.7161 16.4473 69.2234 16.6503 68.6918 16.7288L77.7223 34.7656L63.8387 40.2323L64.1492 41.499L53.2682 41.9412L52.8507 16.6978L52.3315 16.6952L52.7489 41.9624L33.6275 42.7399C33.5974 38.8442 33.5554 35.2021 33.5304 33.1786L33.5273 32.958L33.5206 32.957L32.3467 6.95361L31.8264 6.95102L32.9972 32.882L13.3556 30.0764L18.0336 6.88748L16.6962 6.88129C16.611 6.88129 16.529 6.89162 16.4438 6.89317L11.8115 29.8558L5.57108 28.9646L5.52228 29.3015L5.52176 29.4797L11.7092 30.3631L6.74605 54.9664L5.41377 54.8683L5.40286 57.458L15.1276 58.1745V70.9326L5.33641 73.136L5.32914 74.7266L16.6853 72.1709V58.2892L53.0423 60.9689V75.7531H41.4162L39.8887 82.6353H30.424L5.2767 87.1892L5.26995 88.7653L30.5647 84.1851H59.3678L60.4031 96.7273L30.4448 99.5934L30.544 100.622L60.4883 97.7574L62.4716 121.795L32.2184 117.862L32.017 119.399L62.602 123.374L63.7743 137.577L31.7589 140.792L15.1468 141.962V120.294L30.8866 111.16L30.1021 109.821L14.7252 118.744L5.14793 117.487L5.14118 119.049L14.6276 120.295V134.084L5.07317 135.09L5.06642 136.649L14.6276 135.641V142.516L14.6359 142.515L15.1993 162.007L15.1956 161.997L4.9418 165.993L4.93454 167.661L15.2465 163.642L15.5539 174.258L4.9039 174.929L4.90234 175.273L4.94596 175.962L15.5835 175.292Z" fill="white"/>
<path d="M39.3235 162.718L16.7598 164.293V171.5L54.0026 169.495L39.3235 162.718Z" fill="#EEEEEE"/>
<path d="M85.8034 80.9761L63.2344 79.5565L61.8398 83.4104L62.6041 94.895L87.1097 92.0036L85.8034 80.9761Z" fill="#EEEEEE"/>
<path d="M30.8694 30.6968L30.4951 9.57897H19.4702L16.2734 28.5715L30.8694 30.6968Z" fill="#EEEEEE"/>
<path d="M84.3129 57.0083L85.4334 52.4333L77.6769 37.7503L67.7227 42.6239L71.0404 56.5113L84.3129 57.0083Z" fill="#EEEEEE"/>
<path d="M16.7598 121.361C16.8787 122.028 16.7598 139.894 16.7598 139.894L31.2675 138.981L29.6029 114.563L16.7598 121.361Z" fill="#EEEEEE"/>
<path d="M65.1468 135.87L64.3789 124.797L89.262 121.615V123.524L86.2526 133.706L65.1468 135.87Z" fill="#EEEEEE"/>
<path d="M46.7409 44.051C46.7409 45.7165 45.3837 47.0664 43.7103 47.0664C42.0364 47.0664 40.6797 45.7165 40.6797 44.051C40.6797 42.386 42.0364 41.0361 43.7103 41.0361C45.3837 41.0361 46.7409 42.386 46.7409 44.051Z" fill="#A71B4A"/>
<path d="M43.7089 47.0664C43.4264 47.0664 43.1528 47.0282 42.8926 46.9553C43.1528 47.0277 43.4269 47.0664 43.7104 47.0664C43.7519 47.0664 43.793 47.0659 43.8335 47.0643C43.7919 47.0659 43.7499 47.0664 43.7089 47.0664ZM43.8376 47.0638C43.8397 47.0638 43.8423 47.0638 43.8444 47.0638C43.8428 47.0638 43.8418 47.0638 43.8402 47.0638C43.8397 47.0638 43.8387 47.0638 43.8376 47.0638ZM44.6787 46.9094C45.1611 46.7477 45.5894 46.4682 45.929 46.1055C45.5905 46.4671 45.1626 46.7471 44.6787 46.9094ZM41.5136 46.1288C41.2629 45.8658 41.0588 45.5584 40.915 45.218C41.0583 45.5579 41.2623 45.8658 41.5136 46.1288ZM46.6071 44.9395V44.939C46.6071 44.9395 46.6071 44.9395 46.6071 44.9395ZM46.6076 44.938C46.6943 44.6575 46.741 44.3599 46.741 44.051C46.741 44.0458 46.741 44.0401 46.741 44.0345C46.7426 44.3485 46.6958 44.6518 46.6076 44.938ZM40.6798 44.0763C40.6772 43.7514 40.7265 43.4367 40.82 43.1418C40.7291 43.4285 40.6798 43.7343 40.6798 44.051C40.6798 44.0598 40.6798 44.068 40.6798 44.0763Z" fill="#FDFEFE"/>
<path d="M46.1262 42.2314C45.9528 42.0031 45.7467 41.8006 45.5156 41.6296C45.7467 41.8001 45.9523 42.0031 46.1267 42.2314H46.1262Z" fill="#FDFEFE"/>
<path d="M46.5294 42.9448C46.5014 42.874 46.4707 42.8038 46.4375 42.7356C46.4707 42.8038 46.5014 42.8735 46.5294 42.9448Z" fill="#FDFEFE"/>
<path d="M46.4385 42.7358C46.3513 42.5571 46.2469 42.3887 46.127 42.2316H46.1275C46.2469 42.3882 46.3513 42.5571 46.4385 42.7358Z" fill="white"/>
<path d="M41.4377 42.0554C41.9637 41.4623 42.7223 41.0754 43.5795 41.0387C43.6231 41.0367 43.6672 41.0356 43.7108 41.0356C44.2311 41.0356 44.7233 41.1674 45.1537 41.3998C44.7243 41.1679 44.2321 41.0361 43.7093 41.0361C42.8048 41.0361 41.9928 41.4303 41.4377 42.0554Z" fill="#FDFEFE"/>
<path d="M43.7103 47.0664C43.4268 47.0664 43.1527 47.0277 42.8925 46.9553C42.891 46.9553 42.8884 46.9543 42.8884 46.9543H42.8874C42.3578 46.8055 41.8848 46.5167 41.5135 46.1288C41.2622 45.8658 41.0582 45.5579 40.9149 45.218C40.7799 44.8972 40.6984 44.548 40.6828 44.1801C40.6812 44.1455 40.6802 44.1104 40.6797 44.0763C40.6797 44.068 40.6797 44.0598 40.6797 44.051C40.6797 43.7343 40.729 43.4285 40.8199 43.1418C40.9481 42.7388 41.1594 42.3715 41.4346 42.06L41.4357 42.059L41.4388 42.0553C41.9938 41.4302 42.8058 41.0361 43.7103 41.0361C44.2331 41.0361 44.7254 41.1678 45.1547 41.3998L45.1579 41.4018C45.1594 41.4023 45.162 41.4039 45.162 41.4039C45.2736 41.4648 45.3811 41.5325 45.4839 41.6059L45.485 41.6069C45.4865 41.608 45.4886 41.6095 45.4901 41.6105L45.4927 41.6126C45.4927 41.6126 45.4953 41.6141 45.4969 41.6152C45.4969 41.6152 45.499 41.6173 45.5005 41.6178L45.5031 41.6204C45.5047 41.6214 45.5062 41.6224 45.5078 41.6234L45.5099 41.625C45.512 41.6265 45.514 41.6281 45.5161 41.6296C45.7472 41.8006 45.9533 42.0031 46.1267 42.2315C46.2466 42.3885 46.351 42.557 46.4382 42.7357C46.4715 42.8039 46.5021 42.8741 46.5301 42.9449C46.6506 43.2487 46.7233 43.5773 46.7378 43.9218C46.7394 43.9601 46.7404 43.9973 46.7409 44.0345C46.7409 44.0401 46.7409 44.0458 46.7409 44.051C46.7409 44.3599 46.6942 44.6575 46.6075 44.938L46.607 44.939C46.4735 45.3709 46.244 45.7635 45.9434 46.09C45.9419 46.0916 45.9398 46.0936 45.9382 46.0952L45.9362 46.0978L45.9336 46.1004C45.932 46.1019 45.9304 46.1034 45.9289 46.105C45.5893 46.4677 45.161 46.7477 44.6786 46.9094C44.4154 46.9977 44.1355 47.0509 43.8443 47.0638C43.8422 47.0638 43.8396 47.0638 43.8375 47.0638C43.8375 47.0638 43.8349 47.0643 43.8334 47.0643C43.7929 47.0659 43.7518 47.0664 43.7103 47.0664Z" fill="#A71B4A"/>
<path d="M45.7264 43.9477C45.7264 45.0553 44.8241 45.9531 43.7109 45.9531C42.5977 45.9531 41.6953 45.0553 41.6953 43.9477C41.6953 42.8401 42.5977 41.9417 43.7109 41.9417C44.8241 41.9417 45.7264 42.8401 45.7264 43.9477Z" fill="#A71B4A"/>
<path d="M90.5571 164.496C90.5571 165.208 89.9772 165.785 89.2622 165.785C88.5467 165.785 87.9668 165.208 87.9668 164.496C87.9668 163.785 88.5467 163.208 89.2622 163.208C89.9772 163.208 90.5571 163.785 90.5571 164.496Z" fill="#A71B4A"/>
<path d="M88.4833 164.077L88.1712 156.857L66.297 157.915C65.7269 157.943 65.1552 157.822 64.6449 157.565L33.6206 141.974C32.9025 141.613 32.4306 140.892 32.389 140.094L28.1658 58.6059C28.1461 58.2154 28.2951 57.8346 28.5765 57.5613C28.8569 57.2875 29.2458 57.1501 29.6352 57.1759L42.931 58.1565V43.6936H44.4887V58.3569C44.4887 58.7345 44.3293 59.0988 44.051 59.3555C43.7727 59.6128 43.3957 59.743 43.0172 59.7166L29.7323 58.7371L33.9451 140.014C33.9576 140.259 34.1024 140.48 34.3231 140.591L65.3463 156.181C65.6168 156.317 65.9148 156.383 66.2217 156.367L88.2766 155.3C88.6479 155.285 88.9983 155.408 89.2709 155.655C89.544 155.903 89.7034 156.241 89.719 156.609L90.0393 164.011L88.4833 164.077Z" fill="#A71B4A"/>
<path d="M34.6322 93.987C34.6322 96.1444 32.8747 97.8931 30.7065 97.8931C28.5388 97.8931 26.7812 96.1444 26.7812 93.987C26.7812 91.8302 28.5388 90.0815 30.7065 90.0815C32.8747 90.0815 34.6322 91.8302 34.6322 93.987Z" fill="#A71B4A"/>
<path d="M33.4323 93.9875C33.4323 95.4861 32.2116 96.7007 30.7054 96.7007C29.1992 96.7007 27.9785 95.4861 27.9785 93.9875C27.9785 92.4893 29.1992 91.2743 30.7054 91.2743C32.2116 91.2743 33.4323 92.4893 33.4323 93.9875Z" fill="#FCFDFD"/>
<path d="M30.7067 91.4676C29.3106 91.4676 28.1746 92.5979 28.1746 93.9871C28.1746 95.3763 29.3106 96.5066 30.7067 96.5066C32.1029 96.5066 33.2389 95.3763 33.2389 93.9871C33.2389 92.5979 32.1029 91.4676 30.7067 91.4676ZM30.7067 96.894C29.0956 96.894 27.7852 95.5901 27.7852 93.9871C27.7852 92.3841 29.0956 91.0802 30.7067 91.0802C32.3178 91.0802 33.6283 92.3841 33.6283 93.9871C33.6283 95.5901 32.3178 96.894 30.7067 96.894Z" fill="#A71B4A"/>
<path d="M43.7707 35.6032C42.8263 35.6032 42.0605 34.8417 42.0605 33.902C42.0605 32.9618 42.8263 32.2003 43.7707 32.2003C44.7152 32.2003 45.481 32.9618 45.481 33.902C45.481 34.8417 44.7152 35.6032 43.7707 35.6032ZM47.6565 33.9201C47.6565 31.5396 45.4945 29.6612 43.0174 30.1241C41.4597 30.4149 40.2178 31.6806 39.9452 33.2346C39.7744 34.2058 39.9758 35.1192 40.4213 35.8734H40.4187L40.4301 35.8879C40.5791 36.1379 40.7655 36.3166 40.9545 36.5791L43.2105 39.5527C43.4914 39.9226 44.0501 39.9226 44.331 39.5527L46.5495 36.6282C46.5495 36.6282 46.9633 36.1363 47.1139 35.8837L47.1217 35.8734H47.1201C47.4587 35.2994 47.6565 34.6335 47.6565 33.9201Z" fill="#A71B4A"/>
<path d="M206.239 104.36C206.239 104.36 214.617 105.767 215.291 105.947C215.965 106.125 218.618 107.378 218.753 108.183C218.888 108.989 218.753 111.36 218.753 111.36C218.753 111.36 218.274 111.749 217.974 110.973C217.674 110.196 217.719 108.662 217.719 108.662L216.235 108.094L217.044 109.526L217.179 112.881C217.179 112.881 216.143 112.786 215.942 111.983C215.741 111.181 215.744 110.286 215.744 110.286L214.661 109.374L215.471 110.465L215.744 112.881C215.744 112.881 214.953 113.135 214.705 112.598C214.457 112.063 214.436 110.465 214.436 110.465L211.384 109.404L209.362 110.524L205.586 108.399L206.239 104.36Z" fill="#F9AD95"/>
<path d="M176.919 83.7616C176.957 83.9264 187.011 97.6976 187.011 97.6976L207.208 103.947L206.289 111.496L181.535 106.537L172.75 96.5053L176.919 83.7616Z" fill="#A71B4A"/>
<path d="M206.289 111.496L201.064 110.449C201.098 110.135 201.132 109.819 201.165 109.504C201.218 109.007 201.271 108.511 201.32 108.053L201.331 107.94L201.222 107.909C193.283 105.676 185.765 103.561 179.101 101.686L177.202 84.8646C177.189 84.5448 177.112 84.2059 176.979 83.8567C177.806 85.0893 187.012 97.6976 187.012 97.6976L207.209 103.947L207.14 104.512L206.597 108.968L206.289 111.496Z" fill="#A71B4A"/>
<path d="M141.739 110.719H100.471C99.5969 110.719 98.8887 110.015 98.8887 109.145V104.292C98.8887 103.422 99.5969 102.716 100.471 102.716H141.739C142.613 102.716 143.323 103.422 143.323 104.292V109.145C143.323 110.015 142.613 110.719 141.739 110.719Z" fill="#F8F8F9"/>
<path d="M141.74 110.719C141.739 110.71 141.83 110.715 142 110.682C142.167 110.648 142.424 110.579 142.688 110.369C142.948 110.167 143.216 109.81 143.27 109.326C143.289 108.84 143.269 108.261 143.27 107.62C143.266 106.976 143.262 106.26 143.258 105.478C143.256 105.087 143.253 104.679 143.25 104.255C143.242 103.849 143.052 103.434 142.718 103.152C142.552 103.009 142.35 102.905 142.132 102.847C141.914 102.785 141.682 102.797 141.432 102.797C140.942 102.799 140.436 102.8 139.915 102.802C138.872 102.805 137.772 102.808 136.616 102.812C127.356 102.822 114.582 102.835 100.473 102.851C100.068 102.848 99.6707 103.027 99.4017 103.323C99.127 103.623 98.9988 104.013 99.0237 104.433C99.0232 105.301 99.0232 106.162 99.0232 107.017C99.0227 107.444 99.0227 107.871 99.0227 108.295L99.0222 108.93C99.0206 109.148 99.0211 109.335 99.0746 109.523C99.1738 109.895 99.4323 110.22 99.7688 110.406C99.9365 110.499 100.123 110.558 100.313 110.578C100.496 110.594 100.72 110.584 100.924 110.587C104.252 110.59 107.462 110.592 110.52 110.595C116.634 110.606 122.14 110.616 126.769 110.624C131.385 110.642 135.125 110.656 137.723 110.667C139.007 110.678 140.008 110.686 140.701 110.691C141.033 110.698 141.29 110.702 141.476 110.705C141.65 110.71 141.74 110.719 141.74 110.719C141.74 110.719 141.65 110.728 141.476 110.733C141.29 110.736 141.033 110.741 140.701 110.746C140.008 110.752 139.007 110.76 137.723 110.772C135.125 110.781 131.385 110.796 126.769 110.814C122.14 110.822 116.634 110.832 110.52 110.843C107.462 110.845 104.252 110.848 100.924 110.851C100.711 110.847 100.519 110.86 100.285 110.841C100.06 110.817 99.8384 110.747 99.6395 110.637C99.2408 110.418 98.9355 110.034 98.8166 109.593C98.7522 109.374 98.7522 109.133 98.7548 108.93L98.7543 108.295C98.7543 107.871 98.7543 107.444 98.7543 107.017C98.7537 106.162 98.7537 105.301 98.7537 104.433C98.7236 103.989 98.8757 103.485 99.2023 103.142C99.5201 102.791 99.9941 102.578 100.473 102.582C114.582 102.597 127.356 102.611 136.616 102.621C137.772 102.625 138.872 102.628 139.915 102.631C140.436 102.632 140.942 102.635 141.432 102.636C141.672 102.638 141.93 102.627 142.172 102.697C142.412 102.762 142.635 102.879 142.815 103.037C143.181 103.35 143.385 103.809 143.391 104.252C143.39 104.677 143.388 105.086 143.387 105.478C143.382 106.26 143.378 106.976 143.374 107.62C143.366 108.266 143.379 108.831 143.35 109.335C143.284 109.844 142.995 110.21 142.721 110.412C142.443 110.622 142.176 110.683 142.005 110.71C141.83 110.734 141.74 110.719 141.74 110.719Z" fill="#1D2A30"/>
<path d="M231.543 191.572C231.374 203.236 240.741 212.829 252.464 212.998C264.188 213.166 273.829 203.846 273.998 192.181C274.167 180.517 264.8 170.924 253.076 170.755C241.353 170.587 231.712 179.907 231.543 191.572Z" fill="#1D2A30"/>
<path d="M231.547 191.518L231.543 191.572C231.374 203.236 240.741 212.829 252.464 212.998C264.188 213.166 273.829 203.846 273.998 192.181L273.996 192.126L231.547 191.518Z" fill="#1D2A30"/>
<path d="M237.867 191.663C237.748 199.852 244.324 206.587 252.555 206.705C260.786 206.823 267.555 200.28 267.674 192.09C267.792 183.901 261.216 177.166 252.985 177.048C244.754 176.93 237.986 183.473 237.867 191.663Z" fill="#FCFDFD"/>
<path d="M252.986 177.048C244.754 176.93 237.986 183.473 237.867 191.663L267.674 192.09C267.792 183.901 261.217 177.166 252.986 177.048Z" fill="#E3E3E2"/>
<path d="M243.692 191.746C243.62 196.735 247.626 200.837 252.64 200.909C257.653 200.981 261.777 196.995 261.849 192.007C261.922 187.018 257.916 182.916 252.902 182.843C247.888 182.772 243.765 186.758 243.692 191.746Z" fill="#1D2A30"/>
<path d="M242.694 160.904C242.694 160.904 264.431 154.363 273.42 177.859L227.936 191.876L242.694 160.904Z" fill="#A71B4A"/>
<path d="M100.553 191.572C100.384 203.236 109.751 212.829 121.475 212.998C133.198 213.166 142.839 203.846 143.008 192.181C143.177 180.517 133.81 170.924 122.086 170.755C110.363 170.587 100.722 179.907 100.553 191.572Z" fill="#1D2A30"/>
<path d="M100.557 191.518L100.553 191.572C100.384 203.236 109.751 212.829 121.475 212.998C133.198 213.166 142.839 203.846 143.008 192.181L143.006 192.126L100.557 191.518Z" fill="#1D2A30"/>
<path d="M106.879 191.663C106.76 199.852 113.336 206.587 121.566 206.705C129.797 206.823 136.566 200.28 136.684 192.09C136.803 183.901 130.227 177.166 121.996 177.048C113.765 176.93 106.997 183.473 106.879 191.663Z" fill="#FCFDFD"/>
<path d="M121.997 177.048C113.766 176.93 106.997 183.473 106.879 191.663L136.685 192.09C136.803 183.901 130.228 177.166 121.997 177.048Z" fill="#E3E3E2"/>
<path d="M112.704 191.746C112.631 196.735 116.637 200.837 121.651 200.909C126.665 200.981 130.788 196.995 130.86 192.007C130.932 187.018 126.927 182.916 121.913 182.843C116.899 182.772 112.776 186.758 112.704 191.746Z" fill="#1D2A30"/>
<path d="M151.977 183.397C151.858 183.456 140.804 181.696 140.804 181.696C139.593 183.266 137.748 184.227 135.761 184.322C130.987 184.55 126.317 184.759 122.274 184.939C118.503 185.107 115.581 188.28 115.741 192.033V192.039C115.891 195.586 118.753 198.426 122.318 198.566L145.829 199.486C149.694 199.638 154.834 197.3 157.247 194.292L151.977 183.397Z" fill="#6B0A2B"/>
<path d="M94.2199 174.049C94.2199 174.049 93.2085 153.463 112.652 149.174V146.535H180.766V152.828C180.766 152.828 170.769 164.806 174.033 174.753C177.298 184.701 178.318 185.716 178.318 185.716H217.084C217.084 185.716 221.777 179.829 221.982 171.099C222.185 162.37 218.54 147.442 215.818 137.901C213.344 129.225 211.779 121.97 211.779 121.97L223.409 118.114C223.409 118.114 244.929 146.11 245.807 147.684C246.687 149.258 249.676 152.931 248.972 160.978C248.269 169.024 228.931 193.863 223.832 196.662C218.734 199.46 214.163 199.635 209.592 200.335C205.625 200.943 176.277 200.541 168.6 200.424C165.934 200.384 163.301 199.706 161.021 198.33C158.726 196.945 156.999 194.654 155.094 190.889L151.05 183.017L94.2199 174.049Z" fill="#A71B4A"/>
<path d="M99.4333 172.617L90.8528 185.987C89.7547 187.699 91.532 189.853 93.4047 189.045C94.3128 188.654 95.2905 188.041 96.2827 187.103C100.207 183.389 107.201 173.605 107.201 173.605L99.4333 172.617Z" fill="#6B0A2B"/>
<path d="M160.954 175.025C160.95 175.023 160.967 174.957 161.004 174.83C161.047 174.69 161.104 174.505 161.176 174.269C161.323 173.774 161.499 173.032 161.626 172.062C161.845 170.138 161.745 167.198 160.298 163.993C159.593 162.395 158.549 160.762 157.137 159.264C155.72 157.777 153.968 156.402 151.924 155.307C149.886 154.204 147.586 153.338 145.12 152.788C142.654 152.237 140.032 151.988 137.35 151.988C134.665 151.987 132.046 152.225 129.535 152.559C127.022 152.896 124.61 153.31 122.341 153.825C117.798 154.841 113.844 156.345 110.787 158.079C107.718 159.801 105.543 161.68 104.184 163.091C103.499 163.795 103.008 164.38 102.679 164.779C102.524 164.973 102.402 165.125 102.311 165.238C102.227 165.341 102.181 165.392 102.178 165.389C102.178 165.389 102.757 164.459 104.108 163.019C105.449 161.58 107.617 159.667 110.692 157.914C113.755 156.149 117.726 154.617 122.285 153.584C124.562 153.059 126.98 152.639 129.5 152.297C132.018 151.959 134.648 151.718 137.35 151.719C140.049 151.719 142.691 151.971 145.179 152.53C147.666 153.09 149.988 153.969 152.044 155.09C154.106 156.202 155.874 157.6 157.302 159.112C158.723 160.635 159.771 162.296 160.473 163.917C161.913 167.167 161.983 170.14 161.73 172.076C161.586 173.05 161.392 173.793 161.229 174.284C161.145 174.518 161.079 174.702 161.03 174.839C160.984 174.964 160.958 175.026 160.954 175.025Z" fill="#1D2A30"/>
<path d="M157.03 170.402C157 170.391 157.144 170.077 157.287 169.486C157.447 168.898 157.515 168.003 157.364 166.927C157.216 165.849 156.799 164.599 156.099 163.338C155.756 162.704 155.334 162.072 154.844 161.459C154.36 160.84 153.793 160.252 153.156 159.719C151.875 158.65 150.448 157.896 149.104 157.362C147.751 156.841 146.473 156.529 145.387 156.351C144.302 156.171 143.412 156.095 142.796 156.058C142.18 156.021 141.838 156.006 141.838 155.985C141.838 155.976 141.924 155.968 142.087 155.962C142.249 155.959 142.49 155.945 142.8 155.954C143.419 155.959 144.318 156.006 145.417 156.164C146.516 156.319 147.815 156.615 149.195 157.131C150.565 157.661 152.021 158.42 153.33 159.513C153.983 160.06 154.561 160.662 155.051 161.296C155.549 161.922 155.974 162.57 156.318 163.22C157.02 164.512 157.426 165.795 157.554 166.901C157.684 168.006 157.583 168.921 157.389 169.512C157.327 169.818 157.195 170.028 157.142 170.181C157.077 170.331 157.039 170.406 157.03 170.402Z" fill="#F8F8F9"/>
<path d="M165.356 176.386C164.834 176.191 164.28 176.055 163.701 175.987L160.705 175.644C160.794 175.444 160.876 175.237 160.954 175.023C160.961 175.016 160.986 174.954 161.029 174.838C161.078 174.702 161.144 174.518 161.228 174.284C161.391 173.792 161.585 173.05 161.729 172.075C161.982 170.14 161.912 167.167 160.472 163.916C159.77 162.296 158.722 160.635 157.301 159.111C155.873 157.599 154.105 156.201 152.043 155.089C149.987 153.969 147.665 153.089 145.178 152.53C144.944 152.478 144.71 152.428 144.475 152.381C150.951 152.596 156.927 155.457 161.318 160.204C165.211 164.413 166.975 171.011 165.356 176.386Z" fill="#920837"/>
<path d="M160.956 175.023C162 172.146 162.035 168.128 160.819 165.014C159.46 161.532 157.071 158.596 153.948 156.522C150.826 154.449 147.499 153.09 143.691 152.368C143.954 152.368 144.215 152.372 144.476 152.381C144.712 152.428 144.946 152.478 145.179 152.53C147.667 153.089 149.989 153.969 152.045 155.089C154.107 156.201 155.875 157.599 157.302 159.111C158.724 160.635 159.772 162.296 160.474 163.916C161.914 167.167 161.984 170.14 161.731 172.075C161.586 173.05 161.393 173.792 161.23 174.284C161.146 174.518 161.08 174.702 161.031 174.838C160.988 174.954 160.963 175.016 160.956 175.023Z" fill="#16191B"/>
<path d="M142.157 146.535H100.052C97.5919 146.535 95.5977 144.55 95.5977 142.103V114.746C95.5977 112.299 97.5919 110.314 100.052 110.314H142.157C144.617 110.314 146.611 112.299 146.611 114.746V142.103C146.611 144.55 144.617 146.535 142.157 146.535Z" fill="#A71B4A"/>
<path d="M146.612 118.397C146.612 118.472 135.142 118.532 120.998 118.532C106.848 118.532 95.3809 118.472 95.3809 118.397C95.3809 118.324 106.848 118.264 120.998 118.264C135.142 118.264 146.612 118.324 146.612 118.397Z" fill="#1D2A30"/>
<path d="M180.732 148.933C180.732 149.007 165.423 149.068 146.544 149.068C127.657 149.068 112.352 149.007 112.352 148.933C112.352 148.859 127.657 148.798 146.544 148.798C165.423 148.798 180.732 148.859 180.732 148.933Z" fill="#1D2A30"/>
<path d="M180.766 146.535C180.766 146.535 181.889 145.201 181.997 143.499C182.104 141.796 181.324 139.668 179.483 139.668H155.963C152.152 139.668 149.062 142.742 149.062 146.535H180.766Z" fill="#6B0A2B"/>
<path d="M211.779 121.97L207.69 113.482C206.571 111.069 207.463 108.205 209.757 106.844L221.988 99.5847C222.628 99.2055 223.358 99.005 224.103 99.005H226.746L227.805 116.16L223.727 117.712L226.308 121.889L211.779 121.97Z" fill="#A71B4A"/>
<path d="M226.785 99.6274C226.785 99.6274 230.969 100.582 231.496 107.001C232.023 113.421 227.805 115.418 227.805 115.418L226.785 99.6274Z" fill="#EEEEEE"/>
<path d="M213.205 110.158C213.205 110.158 204.745 114.147 203.713 114.802C202.997 115.255 202.381 116.051 202.944 117.45C203.901 119.835 207.858 117.591 207.858 117.591L215.731 113.675C215.731 113.675 218.758 112.253 217.64 110.474C216.389 108.482 213.205 110.158 213.205 110.158Z" fill="#1D2A30"/>
<path d="M201.233 108.703C201.233 108.703 209.179 110.058 209.854 110.237C210.528 110.416 213.181 111.668 213.316 112.474C213.451 113.279 213.316 115.65 213.316 115.65C213.316 115.65 212.836 116.039 212.536 115.263C212.237 114.487 212.281 112.952 212.281 112.952L210.798 112.384L211.607 113.816L211.742 117.171C211.742 117.171 210.706 117.077 210.504 116.274C210.303 115.471 210.306 114.576 210.306 114.576L209.224 113.664L210.033 114.756L210.306 117.171C210.306 117.171 209.517 117.425 209.268 116.889C209.02 116.353 208.999 114.756 208.999 114.756L205.947 113.694L203.925 114.814L200.746 113.081L201.233 108.703Z" fill="#F9AD95"/>
<path d="M213.611 97.6905C213.611 100.891 212.132 103.486 210.307 103.486C208.483 103.486 207.004 100.891 207.004 97.6905C207.004 94.4902 208.483 91.8958 210.307 91.8958C212.132 91.8958 213.611 94.4902 213.611 97.6905Z" fill="#1D2A30"/>
<path d="M210.85 101.675L212.664 107.933C213.474 107.523 213.643 106.72 213.508 106.085C213.053 103.942 212.796 102.416 212.296 100.539C212.235 100.349 210.85 101.675 210.85 101.675Z" fill="#1D2A30"/>
<path d="M178.319 185.716C178.307 185.703 177.463 184.827 174.9 177.339C174.91 177.368 174.92 177.397 174.931 177.427C177.47 184.832 178.307 185.703 178.319 185.716ZM174.393 175.838C174.277 175.489 174.157 175.127 174.034 174.753C173.735 173.842 173.547 172.913 173.453 171.979C173.516 172.517 173.659 173.427 173.904 174.312C174.042 174.812 174.232 175.335 174.393 175.838Z" fill="#969796"/>
<path d="M203.545 194.653C197.253 194.653 189.758 194.222 183.093 193.713C175.063 193.098 170.388 184.361 173.45 171.953C173.451 171.962 173.452 171.97 173.453 171.978C173.547 172.913 173.735 173.842 174.034 174.753C174.156 175.127 174.276 175.489 174.393 175.837C174.393 175.839 174.394 175.84 174.394 175.842C174.558 176.353 174.73 176.851 174.899 177.338C177.463 184.827 178.306 185.703 178.319 185.716H217.085C217.085 185.716 221.778 179.829 221.982 171.099C221.987 170.86 221.991 170.617 221.99 170.369C221.987 161.557 218.466 147.181 215.819 137.901C213.345 129.225 211.78 121.97 211.78 121.97L221.861 121.914C224.648 127.043 230.593 138.484 234.421 149.422C239.562 164.111 231.173 179.364 230.25 180.807C229.327 182.25 225.458 190.997 214.913 193.751C212.414 194.404 208.328 194.653 203.545 194.653Z" fill="#6B0A2B"/>
<path d="M211.779 121.97L220.321 119.138C220.321 119.138 220.905 120.154 221.861 121.914L211.779 121.97Z" fill="#920837"/>
<path d="M92.6702 170.82L92.9433 167.877L163.702 175.987C167.695 176.453 170.471 180.168 169.77 184.107L169.453 185.891L96.2195 175.303C94.0264 174.986 92.4667 173.016 92.6702 170.82Z" fill="#A71B4A"/>
<path d="M169.453 185.891L144.818 182.33L140.768 181.744L131.167 180.356L116.072 178.173L105.02 176.575L97.5822 175.5L96.2193 175.303C94.1544 175.004 92.6513 173.241 92.6523 171.203C92.6523 171.076 92.6581 170.948 92.67 170.82L92.9431 167.877L163.702 175.987C167.282 176.405 169.883 179.434 169.878 182.894C169.878 183.294 169.843 183.699 169.77 184.107L169.453 185.891Z" fill="#6B0A2B"/>
<path d="M253.822 160.415C253.336 160.336 252.857 160.272 252.388 160.222C252.932 160.272 253.435 160.337 253.822 160.415ZM249.037 160.07C249.037 160.07 249.037 160.069 249.037 160.069C249.038 160.068 249.038 160.068 249.038 160.068C249.087 160.067 249.139 160.067 249.194 160.067C249.246 160.067 249.3 160.067 249.356 160.067C249.249 160.068 249.143 160.069 249.037 160.07Z" fill="#B2B1B0"/>
<path d="M230.285 190.503C230.705 190.027 231.133 189.531 231.568 189.018C233.525 186.744 237.359 182.107 240.992 176.643C245.272 170.383 248.684 164.273 248.972 160.978C248.999 160.669 249.021 160.367 249.037 160.071C249.143 160.069 249.249 160.068 249.356 160.067C250.135 160.074 251.335 160.123 252.388 160.222C252.857 160.272 253.335 160.336 253.821 160.415C253.835 160.417 253.848 160.42 253.862 160.423C253.862 160.423 244.666 185.294 230.285 190.503Z" fill="#920837"/>
<path d="M230.25 190.516C230.25 190.516 230.742 189.978 231.568 189.018C231.133 189.531 230.705 190.027 230.286 190.503C230.274 190.507 230.262 190.511 230.25 190.516ZM240.992 176.643C244.462 171.424 247.748 165.451 249.038 160.068C249.038 160.069 249.038 160.07 249.038 160.071C249.021 160.367 249 160.669 248.973 160.978C248.684 164.273 245.272 170.383 240.992 176.643Z" fill="#0B4260"/>
<path d="M248.812 154.06C248.82 154.059 248.85 154.206 248.896 154.49C248.937 154.775 249.021 155.193 249.073 155.738C249.175 156.825 249.241 158.422 248.952 160.365C248.672 162.306 248.005 164.569 246.898 166.915C245.815 169.273 244.325 171.706 242.774 174.25C239.654 179.357 236.18 183.535 233.656 186.518C232.387 188.007 231.341 189.195 230.614 190.013C230.261 190.406 229.98 190.718 229.772 190.95C229.576 191.162 229.471 191.27 229.463 191.264C229.456 191.258 229.548 191.138 229.73 190.915C229.929 190.674 230.197 190.352 230.534 189.946C231.254 189.087 232.266 187.88 233.509 186.396C235.995 183.384 239.436 179.197 242.542 174.111C244.095 171.565 245.585 169.146 246.671 166.811C247.783 164.488 248.462 162.254 248.764 160.335C249.073 158.415 249.037 156.831 248.968 155.746C248.933 155.203 248.865 154.785 248.842 154.498C248.813 154.213 248.802 154.062 248.812 154.06Z" fill="#1D2A30"/>
<path d="M221.884 190.392C221.832 190.445 220.715 189.442 219.389 188.15C218.064 186.859 217.032 185.769 217.084 185.716C217.136 185.663 218.253 186.666 219.579 187.958C220.904 189.249 221.936 190.339 221.884 190.392Z" fill="#1D2A30"/>
<path d="M175.657 189.867C175.592 189.838 176.02 188.8 176.8 187.661C177.575 186.519 178.387 185.741 178.437 185.79C178.496 185.842 177.785 186.689 177.023 187.812C176.256 188.932 175.728 189.902 175.657 189.867Z" fill="#1D2A30"/>
<path d="M145.728 199.709C145.665 199.656 146.847 198.908 147.853 197.024C148.356 196.093 148.77 194.878 148.894 193.487C149.023 192.102 148.821 190.534 148.138 189.077C147.43 187.631 146.332 186.488 145.168 185.716C144.003 184.937 142.794 184.493 141.751 184.296C139.645 183.889 138.318 184.331 138.316 184.249C138.314 184.24 138.393 184.217 138.548 184.18C138.704 184.15 138.93 184.075 139.231 184.048C139.827 183.956 140.715 183.927 141.786 184.109C142.855 184.286 144.102 184.721 145.307 185.51C146.509 186.291 147.649 187.465 148.383 188.961C149.09 190.469 149.289 192.089 149.143 193.51C149 194.938 148.556 196.175 148.022 197.114C147.489 198.056 146.909 198.725 146.461 199.128C146.25 199.344 146.05 199.471 145.929 199.573C145.803 199.67 145.734 199.717 145.728 199.709Z" fill="#1D2A30"/>
<path d="M119.891 194.312C119.816 194.316 119.702 193.204 119.637 191.829C119.571 190.454 119.578 189.337 119.653 189.333C119.727 189.33 119.841 190.442 119.907 191.817C119.973 193.192 119.966 194.309 119.891 194.312Z" fill="#1D2A30"/>
<path d="M121.769 194.316C121.695 194.326 121.492 193.217 121.315 191.839C121.138 190.461 121.054 189.337 121.129 189.328C121.202 189.319 121.406 190.427 121.583 191.805C121.76 193.182 121.843 194.306 121.769 194.316Z" fill="#1D2A30"/>
<path d="M150.948 146.535C150.948 146.609 142.345 146.669 131.735 146.669C121.121 146.669 112.52 146.609 112.52 146.535C112.52 146.461 121.121 146.4 131.735 146.4C142.345 146.4 150.948 146.461 150.948 146.535Z" fill="#1D2A30"/>
<path d="M123.091 146.509C123.015 146.509 122.955 136.705 122.955 124.613C122.955 112.519 123.015 102.716 123.091 102.716C123.165 102.716 123.226 112.519 123.226 124.613C123.226 136.705 123.165 146.509 123.091 146.509Z" fill="#1D2A30"/>
<path d="M117.822 146.473C117.747 146.47 118.116 136.672 118.645 124.59C119.174 112.504 119.663 102.713 119.737 102.716C119.812 102.72 119.444 112.517 118.915 124.602C118.386 136.683 117.897 146.477 117.822 146.473Z" fill="#1D2A30"/>
<path d="M105.905 206.217C105.898 206.223 105.82 206.145 105.678 205.989C105.539 205.831 105.318 205.609 105.071 205.293C104.558 204.677 103.87 203.737 103.155 202.492C101.72 200.027 100.297 196.176 100.315 191.769C100.333 187.359 101.789 183.519 103.245 181.067C103.97 179.828 104.666 178.893 105.184 178.281C105.433 177.967 105.656 177.747 105.795 177.59C105.94 177.436 106.019 177.358 106.025 177.365C106.032 177.371 105.967 177.461 105.836 177.626C105.71 177.794 105.502 178.024 105.266 178.346C104.775 178.975 104.108 179.92 103.411 181.16C102.01 183.617 100.604 187.418 100.585 191.77C100.568 196.12 101.941 199.932 103.322 202.4C104.01 203.645 104.669 204.596 105.154 205.229C105.387 205.553 105.594 205.784 105.719 205.954C105.848 206.12 105.912 206.211 105.905 206.217Z" fill="#365462"/>
<path d="M180.288 166.857L180.126 167.16L177.002 173.015L172.619 177.213L181.377 188.813L188.675 187.609C188.675 187.609 187.855 185.951 184.193 185.632L182.793 178.698L187.939 170.763" fill="#365462"/>
<path d="M172.619 177.213L181.377 188.813L188.675 187.609L187.67 186.653L181.682 187.308L173.551 176.32L172.619 177.213Z" fill="#E3E3E2"/>
<path d="M183.611 182.444C183.57 182.528 183.109 182.359 182.548 182.468C181.983 182.562 181.611 182.88 181.542 182.816C181.465 182.773 181.803 182.27 182.489 182.15C183.175 182.023 183.669 182.376 183.611 182.444Z" fill="#1D2A30"/>
<path d="M183.205 180.734C183.14 180.798 182.744 180.423 182.143 180.407C181.543 180.384 181.122 180.732 181.062 180.664C181.032 180.636 181.096 180.5 181.281 180.355C181.464 180.211 181.782 180.071 182.154 180.083C182.525 180.096 182.833 180.256 183.006 180.411C183.182 180.569 183.237 180.708 183.205 180.734Z" fill="#1D2A30"/>
<path d="M182.881 178.506C182.808 178.559 182.489 178.181 181.951 178.09C181.415 177.992 180.985 178.239 180.934 178.164C180.909 178.131 180.985 178.014 181.174 177.906C181.36 177.797 181.669 177.712 182.008 177.771C182.346 177.83 182.608 178.016 182.745 178.181C182.886 178.348 182.916 178.483 182.881 178.506Z" fill="#1D2A30"/>
<path d="M184.548 176.46C184.466 176.505 184.192 176.126 183.69 175.909C183.195 175.678 182.727 175.724 182.707 175.634C182.668 175.553 183.213 175.337 183.824 175.614C184.437 175.886 184.633 176.436 184.548 176.46Z" fill="#1D2A30"/>
<path d="M185.249 174.813C185.215 174.842 184.926 174.59 184.485 174.158C184.234 173.905 183.981 173.649 183.722 173.387C183.588 173.234 183.416 173.111 183.285 172.856C183.224 172.727 183.2 172.566 183.256 172.408C183.305 172.241 183.494 172.11 183.658 172.106C183.984 172.1 184.189 172.233 184.398 172.345C184.603 172.469 184.778 172.618 184.926 172.776C185.221 173.095 185.394 173.451 185.484 173.76C185.662 174.39 185.512 174.792 185.484 174.779C185.426 174.776 185.483 174.385 185.266 173.833C185.157 173.561 184.981 173.253 184.709 172.982C184.573 172.847 184.415 172.722 184.236 172.618C184.062 172.52 183.839 172.417 183.687 172.428C183.615 172.438 183.584 172.462 183.561 172.517C183.539 172.576 183.543 172.656 183.576 172.726C183.641 172.874 183.811 173.03 183.942 173.185C184.184 173.462 184.419 173.734 184.654 174.003C185.052 174.475 185.281 174.782 185.249 174.813Z" fill="#1D2A30"/>
<path d="M185.547 174.985C185.513 174.988 185.476 174.602 185.798 174.1C186.114 173.624 186.883 173.043 187.896 173.353C187.973 173.4 188.043 173.494 188.053 173.594C188.066 173.696 188.035 173.777 188.004 173.839C187.936 173.966 187.85 174.038 187.78 174.11C187.631 174.257 187.473 174.383 187.314 174.49C186.996 174.703 186.675 174.837 186.399 174.915C185.841 175.07 185.481 175.017 185.482 174.98C185.478 174.928 185.824 174.897 186.324 174.698C186.573 174.6 186.859 174.455 187.141 174.246C187.282 174.142 187.422 174.022 187.554 173.887C187.621 173.816 187.69 173.75 187.716 173.693C187.741 173.623 187.735 173.642 187.719 173.625C187.692 173.602 187.589 173.588 187.495 173.582C187.401 173.576 187.309 173.577 187.218 173.586C187.035 173.601 186.861 173.646 186.705 173.708C186.389 173.832 186.15 174.036 185.984 174.235C185.652 174.644 185.599 174.997 185.547 174.985Z" fill="#1D2A30"/>
<path d="M178.404 176.029C178.483 176.505 178.16 176.955 177.683 177.034C177.205 177.114 176.752 176.792 176.672 176.316C176.593 175.841 176.916 175.391 177.394 175.311C177.872 175.232 178.324 175.554 178.404 176.029Z" fill="#E3E3E2"/>
<path d="M206.871 172.437L209.213 187.565L228.145 184.763C227.765 182.98 217.43 180.818 217.43 180.818L216.33 171.063L206.871 172.437Z" fill="#365462"/>
<path d="M211.455 180.868C211.104 181.022 210.912 181.469 211.052 181.825C211.192 182.181 211.647 182.379 212.002 182.231C212.356 182.084 212.603 181.553 212.424 181.215C212.244 180.877 211.697 180.674 211.388 180.902" fill="#E3E3E2"/>
<path d="M209.213 187.565L209.037 186.031L227.255 183.919C227.255 183.919 228.152 184.158 228.145 184.763L209.213 187.565Z" fill="#E3E3E2"/>
<path d="M217.724 180.676C217.735 180.769 217.279 180.879 216.868 181.242C216.448 181.595 216.273 182.027 216.183 182.004C216.095 181.999 216.15 181.428 216.655 180.997C217.156 180.562 217.731 180.589 217.724 180.676Z" fill="#1D2A30"/>
<path d="M219.832 181.199C219.866 181.285 219.489 181.501 219.234 181.937C218.965 182.365 218.948 182.797 218.856 182.807C218.771 182.834 218.627 182.305 218.955 181.769C219.279 181.231 219.817 181.112 219.832 181.199Z" fill="#1D2A30"/>
<path d="M221.313 183.397C221.232 183.429 221.035 182.989 221.197 182.45C221.355 181.91 221.761 181.646 221.812 181.717C221.876 181.786 221.635 182.097 221.509 182.542C221.372 182.983 221.403 183.375 221.313 183.397Z" fill="#1D2A30"/>
<path d="M217.226 178.48C217.199 178.57 216.756 178.506 216.239 178.619C215.719 178.721 215.339 178.956 215.279 178.884C215.215 178.826 215.561 178.426 216.172 178.302C216.782 178.173 217.26 178.402 217.226 178.48Z" fill="#1D2A30"/>
<path d="M216.439 176.313C216.446 176.351 216.089 176.461 215.49 176.448C215.192 176.441 214.835 176.397 214.453 176.292C214.262 176.239 214.064 176.171 213.865 176.085C213.769 176.042 213.657 176.001 213.546 175.905C213.429 175.825 213.334 175.59 213.43 175.422C213.505 175.264 213.668 175.175 213.804 175.152C213.942 175.127 214.06 175.138 214.167 175.148C214.385 175.168 214.593 175.208 214.786 175.263C215.172 175.373 215.497 175.536 215.746 175.704C216.246 176.043 216.447 176.364 216.418 176.387C216.381 176.424 216.124 176.168 215.627 175.899C215.379 175.766 215.069 175.637 214.71 175.551C214.531 175.509 214.34 175.478 214.141 175.464C213.933 175.441 213.762 175.465 213.724 175.562C213.71 175.598 213.71 175.612 213.761 175.665C213.812 175.712 213.901 175.753 213.995 175.795C214.179 175.879 214.361 175.949 214.539 176.006C214.893 176.12 215.226 176.185 215.507 176.22C216.072 176.29 216.433 176.262 216.439 176.313Z" fill="#1D2A30"/>
<path d="M216.34 176.462C216.308 176.481 216.076 176.178 215.953 175.588C215.893 175.295 215.87 174.932 215.928 174.536C215.957 174.338 216.008 174.133 216.084 173.928C216.167 173.725 216.265 173.456 216.617 173.362C216.804 173.327 216.981 173.45 217.053 173.566C217.135 173.684 217.163 173.792 217.202 173.898C217.269 174.112 217.298 174.328 217.297 174.533C217.298 174.943 217.183 175.301 217.038 175.567C216.741 176.11 216.372 176.278 216.359 176.247C216.321 176.206 216.617 175.98 216.83 175.469C216.935 175.218 217.014 174.894 216.997 174.538C216.99 174.362 216.96 174.177 216.899 173.996C216.839 173.8 216.739 173.65 216.667 173.681C216.573 173.694 216.435 173.868 216.382 174.04C216.31 174.223 216.258 174.407 216.223 174.586C216.156 174.944 216.153 175.277 216.181 175.554C216.237 176.111 216.387 176.441 216.34 176.462Z" fill="#1D2A30"/>
<path d="M191.974 136.905L175.736 172.105L186.46 178.511L208.91 136.155" fill="#920837"/>
<path d="M218.748 179.315L207.097 181.173L200.125 139.774L165.677 142.26C164.764 142.315 163.843 142.239 162.961 141.999C153.285 139.361 154.595 127.087 155.527 125.12L203.198 123.757C208.368 123.609 212.824 127.354 213.541 132.452L218.748 179.315Z" fill="#920837"/>
<path d="M155.056 127.067L155.228 109.563C155.228 109.563 152.958 98.1824 152.286 93.7086C151.243 86.7624 149.815 83.4654 161.248 78.5271L163.747 77.5678L167.616 77.6189C172.229 77.964 177.09 82.1134 177.201 84.8643L181.653 124.305L155.056 127.067Z" fill="#A71B4A"/>
<path d="M155.772 82.5975C155.772 82.5975 152.546 89.5081 153.191 95.8045L165.218 107.293C167.916 110.281 171.288 111.551 175.601 111.811L200.494 114.518L201.185 108.038L177.506 101.361C176.564 101.189 176.094 100.209 175.371 99.5835L155.772 82.5975Z" fill="#A71B4A"/>
<path d="M153.828 84.5872C153.828 84.5872 153.964 84.4394 154.305 84.27C154.646 84.1021 155.189 83.9316 155.914 83.8221C156.635 83.7203 157.549 83.6392 158.603 83.8293C158.862 83.8898 159.137 83.9512 159.394 84.099C159.644 84.2416 159.882 84.4146 160.125 84.597C160.606 84.9679 161.089 85.3931 161.58 85.8616C162.579 86.7864 163.52 87.9596 164.627 89.1462C165.729 90.3422 166.945 91.6115 168.26 92.9489C169.575 94.2859 170.992 95.6885 172.512 97.134C173.275 97.8536 174.062 98.5872 174.891 99.3053C175.313 99.6488 175.73 100.052 176.13 100.429C176.537 100.799 176.996 101.146 177.527 101.244L177.534 101.245L177.54 101.247C184.582 103.228 192.657 105.499 201.222 107.909L201.332 107.94L201.321 108.053C201.271 108.511 201.218 109.007 201.166 109.504C200.982 111.226 200.8 112.931 200.629 114.532L200.614 114.666L200.48 114.651C196.859 114.256 193.337 113.871 189.945 113.501C188.249 113.315 186.586 113.133 184.959 112.955C183.331 112.791 181.74 112.631 180.189 112.476C178.638 112.306 177.131 112.129 175.671 111.917C174.213 111.705 172.792 111.436 171.488 110.95C170.181 110.475 169.014 109.795 167.964 109.067C166.911 108.339 165.954 107.577 165.054 106.832C161.498 103.81 158.886 101.112 157.074 99.2717C156.173 98.3449 155.485 97.6175 155.024 97.121C154.8 96.8767 154.627 96.6881 154.503 96.5528C154.387 96.4236 154.334 96.3529 154.334 96.3529C154.334 96.3529 154.4 96.4118 154.522 96.5352C154.651 96.6664 154.83 96.8488 155.061 97.0859C155.545 97.5767 156.245 98.2875 157.145 99.2025C158.978 101.019 161.61 103.698 165.172 106.692C166.07 107.428 167.03 108.185 168.078 108.903C169.123 109.621 170.275 110.285 171.563 110.748C172.848 111.222 174.25 111.484 175.704 111.69C177.159 111.897 178.666 112.071 180.214 112.236C181.765 112.389 183.357 112.545 184.984 112.705C186.611 112.881 188.275 113.06 189.971 113.244C193.364 113.611 196.887 113.993 200.509 114.385L200.361 114.504C200.531 112.903 200.713 111.198 200.896 109.475C200.95 108.978 201.002 108.483 201.052 108.024L201.149 108.168C192.586 105.748 184.514 103.466 177.474 101.477L177.486 101.479C176.872 101.363 176.388 100.981 175.971 100.602C175.553 100.207 175.172 99.8332 174.74 99.4788C173.907 98.754 173.121 98.0168 172.359 97.2931C170.841 95.8399 169.428 94.4306 168.118 93.0869C166.807 91.7427 165.597 90.4656 164.5 89.2619C163.395 88.0624 162.466 86.8881 161.481 85.9634C160.997 85.4938 160.52 85.0671 160.048 84.6967C159.81 84.5148 159.574 84.3402 159.335 84.2013C159.099 84.0618 158.832 83.9977 158.58 83.9362C157.552 83.7389 156.641 83.8066 155.924 83.8959C155.205 83.9931 154.663 84.1501 154.321 84.3041C153.979 84.4606 153.837 84.5991 153.828 84.5872Z" fill="#1D2A30"/>
<path d="M160.041 62.3879L161.249 79.426C161.447 82.2075 163.772 84.3638 166.575 84.3638C169.66 84.3638 172.105 81.7678 171.903 78.7044C171.795 77.0822 171.698 75.7545 171.698 75.7545C171.698 75.7545 175.844 75.1129 175.895 70.9889C175.925 68.6073 175.512 63.2021 175.158 59.0609C174.918 56.2615 172.563 54.1129 169.74 54.1129H167.236C162.924 54.3629 159.669 58.1057 160.041 62.3879Z" fill="#F9AD95"/>
<path d="M171.705 75.6954C171.705 75.6954 169.085 75.9072 166.301 74.1673C166.301 74.1673 167.578 77.1352 171.714 76.7637L171.705 75.6954Z" fill="#F6865E"/>
<path d="M174.226 64.3606C174.237 64.6716 173.982 64.9376 173.655 64.9552C173.33 64.9722 173.056 64.7351 173.045 64.4236C173.034 64.1131 173.29 63.8471 173.615 63.8295C173.941 63.8119 174.215 64.0496 174.226 64.3606Z" fill="#1D2A30"/>
<path d="M174.443 63.1964C174.37 63.2733 173.921 62.9432 173.284 62.9448C172.648 62.9376 172.181 63.2635 172.112 63.186C172.077 63.1514 172.152 63.013 172.356 62.8652C172.556 62.7185 172.898 62.5759 173.294 62.5775C173.691 62.5801 174.025 62.7252 174.217 62.8735C174.413 63.0233 174.479 63.1623 174.443 63.1964Z" fill="#1D2A30"/>
<path d="M168.244 64.3606C168.254 64.6716 167.999 64.9376 167.673 64.9552C167.347 64.9722 167.074 64.7351 167.063 64.4236C167.052 64.1131 167.307 63.8471 167.633 63.8295C167.959 63.8119 168.233 64.0496 168.244 64.3606Z" fill="#1D2A30"/>
<path d="M168.182 63.315C168.108 63.392 167.659 63.0619 167.023 63.0634C166.387 63.0562 165.919 63.3822 165.85 63.3042C165.816 63.2706 165.89 63.1316 166.094 62.9844C166.295 62.8372 166.636 62.6946 167.033 62.6961C167.43 62.6982 167.763 62.8434 167.956 62.9921C168.151 63.142 168.218 63.2809 168.182 63.315Z" fill="#1D2A30"/>
<path d="M170.494 68.015C170.491 67.9788 170.887 67.9111 171.528 67.8295C171.691 67.813 171.845 67.7804 171.873 67.6699C171.91 67.5531 171.842 67.379 171.764 67.1905C171.611 66.7989 171.45 66.3882 171.283 65.9584C170.615 64.2035 170.131 62.7611 170.202 62.7348C170.274 62.7089 170.873 64.1094 171.541 65.8644C171.702 66.2968 171.855 66.709 172.002 67.1037C172.063 67.2876 172.169 67.4963 172.086 67.7386C172.042 67.86 171.923 67.9478 171.819 67.9752C171.714 68.0072 171.623 68.0088 171.542 68.0139C170.897 68.0486 170.497 68.0511 170.494 68.015Z" fill="#1D2A30"/>
<path d="M168.619 68.4536C168.722 68.4474 168.724 69.1355 169.315 69.6237C169.906 70.1135 170.644 70.0365 170.649 70.1326C170.658 70.1755 170.484 70.2664 170.174 70.2747C169.868 70.285 169.422 70.1874 169.06 69.8888C168.7 69.5891 168.544 69.1898 168.521 68.9077C168.495 68.62 168.572 68.4495 168.619 68.4536Z" fill="#1D2A30"/>
<path d="M168.346 60.8315C168.283 61.0036 167.647 60.9219 166.9 61.0118C166.151 61.0862 165.548 61.3037 165.449 61.1498C165.405 61.0754 165.51 60.9137 165.754 60.7468C165.995 60.5799 166.381 60.4219 166.829 60.3723C167.277 60.3232 167.688 60.394 167.961 60.5045C168.235 60.614 168.373 60.7499 168.346 60.8315Z" fill="#1D2A30"/>
<path d="M174.209 61.3626C174.097 61.5063 173.659 61.357 173.131 61.3502C172.604 61.3249 172.157 61.4468 172.054 61.2965C172.009 61.2232 172.079 61.079 172.274 60.9426C172.467 60.8068 172.788 60.6962 173.151 60.7071C173.513 60.7184 173.828 60.8491 174.011 60.9964C174.198 61.1441 174.259 61.2924 174.209 61.3626Z" fill="#1D2A30"/>
<path d="M161.437 65.4834C161.367 65.4529 158.589 64.6449 158.68 67.4646C158.77 70.2837 161.596 69.6121 161.599 69.531C161.601 69.4499 161.437 65.4834 161.437 65.4834Z" fill="#F9AD95"/>
<path d="M160.7 68.4909C160.687 68.4821 160.652 68.5265 160.569 68.5673C160.49 68.6071 160.351 68.6371 160.201 68.5864C159.898 68.4867 159.631 68.0218 159.601 67.514C159.585 67.2577 159.631 67.0118 159.716 66.8067C159.796 66.5975 159.926 66.4492 160.075 66.4177C160.224 66.3785 160.334 66.4647 160.371 66.5427C160.412 66.6208 160.396 66.6776 160.411 66.6817C160.418 66.6884 160.47 66.6326 160.443 66.5169C160.43 66.4611 160.395 66.396 160.327 66.3438C160.256 66.2912 160.156 66.2658 160.051 66.2808C159.833 66.3025 159.643 66.5092 159.55 66.7344C159.444 66.9612 159.386 67.2376 159.403 67.5253C159.44 68.0931 159.749 68.6154 160.162 68.7202C160.363 68.7657 160.528 68.7006 160.612 68.6314C160.697 68.5591 160.71 68.4955 160.7 68.4909Z" fill="#F6865E"/>
<path d="M159.861 65.3873C160.293 65.2834 161.041 65.6802 161.225 66.0831C161.41 66.4856 161.45 66.9417 161.634 67.3447C161.818 67.7476 162.233 68.1118 162.666 68.0101C162.964 67.9398 163.177 67.6619 163.256 67.3669C163.335 67.0719 163.303 66.7599 163.265 66.4572C163.098 65.1409 162.819 63.8349 162.766 62.5087C162.713 61.1826 162.903 59.8048 163.603 58.675C164.302 57.5452 165.588 56.7145 166.917 56.8214C167.798 56.8917 168.606 57.3489 169.48 57.4703C170.518 57.6149 171.615 57.2507 172.357 56.5151C172.452 56.4211 172.894 56.1307 172.894 56.1307C172.894 56.0625 172.829 55.4736 172.596 55.2592C170.861 53.6619 167.732 53.216 165.439 53.79C163.147 54.3644 160.998 55.9747 160.011 58.1129C159.025 60.2507 159.318 63.2242 159.861 65.3873Z" fill="#1D2A30"/>
<path d="M175.205 58.4247C175.205 58.4247 164.331 54.9438 159.627 64.3047C159.627 64.3047 158.924 61.9619 158.924 60.706C158.924 59.8676 159.428 54.873 164.593 53.302C164.593 53.302 172.374 50.3465 175.205 58.4247Z" fill="#A71B4A"/>
<path d="M165.861 58.658C166.245 59.2759 166.931 59.6979 167.658 59.7635C168.385 59.8291 169.136 59.5373 169.626 58.999C169.841 59.5321 170.417 59.8984 170.994 59.8684C171.57 59.8384 172.105 59.4138 172.262 58.861C172.578 59.1663 172.907 59.4794 173.32 59.6297C173.733 59.7806 174.257 59.7232 174.528 59.3787C174.804 59.0279 174.724 58.4927 174.453 58.1378C174.182 57.7829 173.765 57.5716 173.351 57.3995C172.059 56.8628 170.635 56.5936 169.247 56.7801C167.861 56.9671 166.517 57.6367 165.65 58.7298L165.861 58.658Z" fill="#1D2A30"/>
<path d="M159.626 64.3047C160.041 63.4766 160.506 62.7497 161.006 62.1117C160.497 62.7688 160.031 63.4977 159.626 64.3047Z" fill="#16191B"/>
<path d="M159.627 64.3047C159.627 64.3047 159.627 64.3037 159.626 64.3026C159.604 64.2287 158.924 61.9412 158.924 60.706C158.924 59.8676 159.428 54.873 164.593 53.302C164.593 53.302 165.982 52.7741 167.8 52.7741C170.285 52.7741 173.57 53.7597 175.205 58.4247C175.205 58.4247 173.967 56.9601 171.747 56.8625C171.682 56.8594 171.617 56.8573 171.55 56.8563C171.086 56.769 170.614 56.7214 170.143 56.7214C169.844 56.7214 169.545 56.7406 169.248 56.7803C168.221 56.9188 167.218 57.3217 166.414 57.9654C164.502 58.7899 162.552 60.1197 161.007 62.1117C160.507 62.7497 160.043 63.4766 159.627 64.3047Z" fill="#920837"/>
<path d="M166.414 57.9653C167.217 57.3216 168.221 56.9187 169.247 56.7802C169.545 56.7405 169.844 56.7213 170.143 56.7213C170.614 56.7213 171.085 56.7689 171.55 56.8562C171.498 56.8551 171.445 56.8546 171.393 56.8546C170.024 56.8546 168.236 57.1801 166.414 57.9653Z" fill="#16191B"/>
<path d="M160.08 63.2085C161.693 60.7541 163.915 58.7249 166.415 57.1709C168.915 55.6175 173.048 54.0806 175.896 53.3284C176.751 53.1027 177.643 52.9053 178.515 53.0551C179.387 53.2049 180.24 53.7825 180.456 54.6365C180.727 55.7048 178.821 57.3533 177.926 58.0016C177.031 58.65 175.204 59.601 175.204 59.601C175.204 59.601 175.228 57.6193 172.04 57.2107C167.704 56.6548 160.08 63.2085 160.08 63.2085Z" fill="#6B0A2B"/>
<path d="M172.43 113.673C170.446 113.673 168.447 113.256 166.628 112.498C163.925 111.373 161.754 109.225 160.129 106.8C158.624 104.554 157.542 101.539 156.5 98.9666L165.218 107.293C167.652 109.989 170.634 111.286 174.361 111.705C174.793 111.784 175.229 111.852 175.669 111.916C176.485 112.035 177.316 112.143 178.161 112.244C178.075 112.463 177.645 112.588 177.409 112.69C175.844 113.362 174.143 113.673 172.43 113.673Z" fill="#6B0A2B"/>
<path d="M174.362 111.705C170.635 111.286 167.652 109.989 165.218 107.293L156.501 98.9666C156.433 98.7982 156.365 98.6319 156.297 98.4671C156.535 98.7156 156.794 98.9837 157.073 99.2714C158.885 101.112 161.497 103.81 165.054 106.831C165.953 107.576 166.911 108.338 167.963 109.066C169.013 109.795 170.18 110.475 171.488 110.95C172.398 111.289 173.365 111.523 174.362 111.705ZM163.696 105.425C160.871 102.947 158.714 100.759 157.145 99.2022C156.976 99.0307 156.814 98.8664 156.66 98.7094C158.832 100.593 161.584 103.403 163.696 105.425Z" fill="#0B4260"/>
<path d="M178.163 112.245C177.318 112.143 176.487 112.035 175.671 111.917C175.231 111.853 174.794 111.784 174.363 111.705C173.366 111.523 172.399 111.289 171.489 110.95C170.181 110.475 169.014 109.795 167.964 109.066C166.911 108.339 165.954 107.577 165.054 106.832C161.498 103.81 158.886 101.112 157.074 99.2716C156.794 98.9839 156.535 98.7158 156.298 98.4673C156.283 98.4327 156.268 98.3975 156.254 98.3624C156.387 98.474 156.522 98.5902 156.66 98.7096C156.815 98.8666 156.977 99.0309 157.145 99.2024C158.715 100.759 160.871 102.947 163.696 105.425C164.562 106.254 165.32 106.95 165.887 107.395C169.152 109.962 169.891 110.8 176.712 111.945C177.056 112.003 178.175 112.128 178.175 112.128C178.182 112.169 178.177 112.208 178.163 112.245Z" fill="#161C1E"/>
<path d="M177.933 117.963C177.946 117.969 177.86 118.2 177.65 118.592C177.442 118.986 177.082 119.528 176.547 120.122C175.49 121.321 173.607 122.619 171.264 123.338C168.921 124.055 166.698 124.187 165.115 124.255C164.321 124.285 163.678 124.291 163.234 124.289C162.79 124.287 162.543 124.276 162.543 124.257C162.542 124.239 162.787 124.214 163.23 124.184C163.727 124.152 164.354 124.113 165.105 124.065C166.681 123.95 168.881 123.786 171.184 123.081C173.483 122.375 175.336 121.133 176.407 119.992C177.498 118.857 177.88 117.931 177.933 117.963Z" fill="#1D2A30"/>
<path d="M207.306 182.411C207.301 182.412 207.288 182.357 207.265 182.25C207.241 182.129 207.21 181.972 207.171 181.775C207.091 181.338 206.979 180.725 206.837 179.943C206.555 178.332 206.153 176.032 205.657 173.198C204.684 167.482 203.345 159.615 201.866 150.926C201.207 146.993 200.576 143.229 200.001 139.795L200.135 139.9C194.083 140.34 188.91 140.717 185.231 140.985C183.412 141.107 181.964 141.205 180.95 141.274C180.466 141.302 180.086 141.324 179.81 141.341C179.691 141.345 179.595 141.349 179.516 141.352C179.45 141.354 179.416 141.353 179.416 141.349C179.416 141.345 179.449 141.339 179.515 141.331C179.593 141.322 179.689 141.312 179.807 141.299C180.082 141.272 180.461 141.237 180.944 141.192C181.956 141.107 183.403 140.984 185.219 140.83C188.897 140.539 194.067 140.129 200.115 139.649L200.231 139.64L200.25 139.754C200.83 143.186 201.467 146.949 202.132 150.881C203.581 159.576 204.893 167.447 205.846 173.166C206.306 176.007 206.679 178.311 206.941 179.926C207.062 180.711 207.157 181.327 207.225 181.766C207.253 181.965 207.275 182.123 207.292 182.245C207.306 182.354 207.31 182.41 207.306 182.411Z" fill="#365462"/>
<path d="M203.624 136.084C203.673 136.145 202.766 136.921 201.737 137.965C200.703 139.006 199.939 139.921 199.876 139.874C199.819 139.832 200.496 138.832 201.544 137.776C202.587 136.718 203.582 136.028 203.624 136.084Z" fill="#365462"/>
<path d="M171.798 79.0694C171.808 79.0669 171.829 79.1247 171.862 79.2384C171.9 79.3505 171.931 79.5215 171.96 79.7446C172.013 80.1894 171.984 80.859 171.708 81.623C171.427 82.3773 170.882 83.2266 169.997 83.8579C169.118 84.4933 167.906 84.8218 166.666 84.7428C165.422 84.6586 164.279 84.1936 163.431 83.537C162.574 82.8872 161.986 82.1004 161.593 81.4029C161.205 80.6978 160.998 80.0789 160.89 79.646C160.836 79.429 160.802 79.2595 160.787 79.1428C160.769 79.0266 160.765 78.9651 160.775 78.963C160.833 78.9434 160.962 79.9477 161.759 81.3084C162.164 81.9764 162.749 82.7249 163.58 83.3387C164.402 83.9581 165.495 84.3936 166.683 84.4742C167.868 84.5496 169.017 84.2438 169.854 83.6548C170.698 83.0695 171.237 82.2703 171.529 81.5548C171.817 80.83 171.874 80.1879 171.855 79.7519C171.837 79.3143 171.771 79.0756 171.798 79.0694Z" fill="#1D2A30"/>
<path d="M179.122 101.628C179.104 101.629 179.065 101.437 179.011 101.089C178.953 100.681 178.883 100.188 178.801 99.6111C178.63 98.2948 178.408 96.6008 178.164 94.7276C177.929 92.8177 177.744 91.085 177.631 89.8292C177.573 89.2015 177.533 88.6926 177.512 88.3403C177.491 87.988 177.488 87.7927 177.506 87.7906C177.525 87.7886 177.564 87.9808 177.617 88.3295C177.673 88.7376 177.741 89.2304 177.821 89.8085C177.985 91.1253 178.198 92.8203 178.432 94.6951C178.667 96.6034 178.871 98.3335 178.991 99.5889C179.052 100.217 179.094 100.725 179.116 101.078C179.137 101.43 179.141 101.626 179.122 101.628Z" fill="#1D2A30"/>
</svg>
