<svg width="290" height="100" viewBox="0 0 290 100" fill="none" xmlns="http://www.w3.org/2000/svg">
<path fill-rule="evenodd" clip-rule="evenodd" d="M54.4756 97.1108C55.8089 97.2408 56.288 99.5732 58.0818 98.5073C57.5544 99.7811 56.8822 100.301 55.8497 98.9306C55.3929 98.3216 54.9324 97.7162 54.4756 97.1108Z" fill="black"/>
<path fill-rule="evenodd" clip-rule="evenodd" d="M9.22936 22.666C9.20707 23.1636 8.86911 23.2714 8.4643 23.2639C8.15976 23.2565 7.82922 23.2231 7.7698 22.848C7.69552 22.3874 8.00749 22.1386 8.39373 22.0681C8.82826 21.9863 9.07337 22.2909 9.22936 22.666Z" fill="black"/>
<path fill-rule="evenodd" clip-rule="evenodd" d="M6.40655 23.6127C6.05744 23.6276 5.83461 23.5013 5.91631 23.2451C5.96459 23.0928 6.23571 22.974 6.42512 22.9182C6.51053 22.8922 6.64795 23.0594 6.76308 23.1337C6.63309 23.3082 6.50311 23.4828 6.40655 23.6127Z" fill="black"/>
<path fill-rule="evenodd" clip-rule="evenodd" d="M57.0412 83.6069C58.174 84.9625 59.2287 86.125 60.1423 87.3914C60.3837 87.7256 57.2121 90.9307 56.785 90.8602C56.3764 90.797 53.6616 87.5325 53.8621 87.2874C54.8463 86.073 55.9011 84.9142 57.0412 83.6069Z" fill="#FEFEFE"/>
<mask id="mask0_2027_7796" style="mask-type:luminance" maskUnits="userSpaceOnUse" x="0" y="0" width="117" height="66">
<path d="M0 0H116.23V65.5948H0V0Z" fill="white"/>
</mask>
<g mask="url(#mask0_2027_7796)">
<path fill-rule="evenodd" clip-rule="evenodd" d="M3.98501 24.2107C4.04443 24.2775 4.10385 24.3444 4.16327 24.4075C4.16327 24.4075 4.16699 24.4075 4.1707 24.4075C4.12985 24.3184 4.063 24.259 3.98501 24.2107ZM0 22.792C0.0631359 22.7585 0.1337 22.7214 0.204264 22.6843C0.88762 22.0529 1.67868 21.6889 2.57373 21.5664C3.38707 21.2098 4.29326 20.8273 5.21059 20.4485C5.25516 20.4262 5.29973 20.4076 5.34801 20.3891C8.64594 19.0261 12.0813 17.7076 12.0813 17.7076L12.1556 17.7634C26.8774 11.9845 41.5993 6.22429 56.3138 0.434329C57.6656 -0.0967582 58.8615 -0.104185 60.2133 0.438043C66.267 2.86693 72.3541 5.21039 78.4226 7.60585C90.5558 12.3931 102.685 17.1988 114.819 21.9972C115.35 22.1977 115.989 22.2275 116.23 22.8885C115.599 23.2005 114.978 23.557 114.325 23.8244C106.422 27.0741 108.219 24.8569 107.941 33.1649C107.889 34.7507 108.234 35.6643 109.872 36.4182C113.887 38.264 114.588 42.951 111.539 46.0706V46.0744C111.413 46.2006 111.283 46.3269 111.157 46.4569C109.032 47.2554 109.738 48.9452 110.128 50.3008C111.406 54.7092 111.706 59.203 111.766 63.7525C111.784 65.212 111.183 65.5649 109.946 65.5611C107.796 65.5537 105.642 65.5166 103.491 65.576C101.983 65.6131 101.519 64.9409 101.686 63.5296C102.232 58.9578 102.232 54.3081 103.573 49.8477C104.037 48.3027 103.848 47.2628 102.433 46.0558C99.2241 43.3149 100.171 38.4015 104.011 36.6225C104.561 36.3662 105.229 36.318 105.619 35.7646C105.612 35.7646 105.608 35.7683 105.601 35.7683C105.634 33.618 105.556 31.4602 105.731 29.3247C105.902 27.2412 105.062 27.3972 103.592 27.9951C99.1758 29.7964 94.7228 31.4973 90.2884 33.2577C89.6497 33.5103 88.8512 33.5622 88.5689 34.383C90.3293 37.1944 91.1389 40.3401 91.8334 43.534C92.0748 44.6668 91.7443 45.4727 90.8381 46.2341C81.8765 53.7584 71.7338 58.2782 59.8977 58.3636C49.5285 58.4416 40.1063 55.114 31.5941 49.4429C23.3232 43.9352 23.3047 46.4495 27.3825 35.7015C27.9433 34.227 27.7725 33.7851 26.3129 33.2243C19.7059 30.6877 13.1583 28.0026 6.58845 25.3731C5.68597 25.3063 4.8652 25.0314 4.17813 24.4261C3.2608 24.3815 2.46603 24.0064 1.71582 23.5162C1.29986 23.4048 0.883906 23.2933 0.46795 23.1856C0.311967 23.0816 0.155984 22.9814 0.00371389 22.8774C0.0297114 22.8477 0.0594223 22.8217 0.0891334 22.7957L0.00371389 22.792H0Z" fill="black"/>
</g>
<path fill-rule="evenodd" clip-rule="evenodd" d="M86.8271 71.8859C83.934 60.0943 67.1992 60.0534 64.2949 71.8859H65.5354C65.5354 71.8933 65.5354 71.9007 65.5354 71.9082H69.0116C69.0116 71.9082 69.0116 71.9007 69.0116 71.8859H86.8271Z" fill="#3AA5E1"/>
<path fill-rule="evenodd" clip-rule="evenodd" d="M48.6154 71.8859C45.726 60.0943 28.9912 60.0534 26.0869 71.8859H27.3274C27.3274 71.8933 27.3274 71.9007 27.3274 71.9082H30.7998C30.7998 71.9082 30.7998 71.9007 30.8036 71.8859H48.6154Z" fill="#3AA5E1"/>
<path fill-rule="evenodd" clip-rule="evenodd" d="M42.1638 77.925C43.1183 76.8442 44.1099 77.2379 45.1126 77.1636C46.2565 77.0782 47.4153 77.145 48.5851 77.145C48.0021 81.6723 44.2919 85.2636 39.6087 85.9804C34.9069 87.4659 28.3481 84.2014 26.5432 78.5749C26.3798 78.0661 25.949 77.1413 27.0149 77.1896C28.8235 77.2787 30.6916 76.6177 32.4446 77.5461C35.7128 81.39 38.9513 81.5906 42.1638 77.925ZM26.0864 71.8862C28.9906 60.0537 45.7254 60.0946 48.6186 71.8862H30.8067C30.803 71.901 30.803 71.9084 30.803 71.9084H27.3305C27.3305 71.901 27.3268 71.8936 27.3268 71.8862H26.0864ZM49.6473 92.3831C51.1032 94.2661 52.7893 95.9708 54.3788 97.7497C55.0287 98.0914 55.3964 98.7302 55.8718 99.2427C56.6851 100.13 57.3648 99.8183 58.0816 99.1833C60.0759 97.0144 62.1557 94.9197 64.0238 92.6505C65.1974 91.2281 66.2224 90.9013 68.0719 91.4955C76.9333 94.3478 86.6823 90.8084 91.5549 83.1801C96.3829 75.6149 95.447 66.6124 88.9923 59.4261C88.0824 58.4159 87.9375 57.9591 89.23 57.1606C92.2865 55.2739 95.1648 53.1236 97.8833 50.7764C99.7589 49.1571 100.063 47.4636 98.8304 46.0263C97.6308 44.6299 95.7107 44.6039 93.9169 45.9706C91.8854 47.5156 89.9245 49.1609 87.8261 50.6056C76.8219 58.167 64.9708 62.9765 51.2888 61.2273C41.5436 59.9794 33.0054 55.9721 25.7224 49.3466L25.741 49.3651C24.2889 48.6149 23.3678 47.2705 22.1979 46.2046C20.5267 44.6745 18.6734 44.5259 17.3364 45.8444C15.9363 47.2296 16.0477 48.8526 17.7561 50.6687C19.6725 52.7002 21.7003 54.6463 24.0252 56.1838C25.9155 57.4317 26.3538 58.1336 24.4745 60.0648C19.8619 64.8001 18.484 70.7386 19.9622 77.1005C22.6473 88.6358 34.6803 95.1388 46.2268 91.4212C47.7681 90.9236 48.6557 91.0907 49.6473 92.3794V92.3831ZM80.3761 77.925C81.3268 76.8442 82.3184 77.2379 83.3212 77.1636C84.465 77.0782 85.6238 77.145 86.7937 77.145C86.2106 81.6723 82.5004 85.2636 77.8209 85.9804C73.1154 87.4659 66.5604 84.2014 64.7517 78.5749C64.5883 78.0661 64.1612 77.1413 65.2234 77.1896C67.032 77.2787 68.9001 76.6177 70.6531 77.5461C73.9213 81.39 77.1598 81.5906 80.3761 77.925ZM53.8663 87.2877C54.8505 86.0732 55.9015 84.9145 57.0454 83.6072C58.1744 84.9628 59.2329 86.1252 60.1428 87.3917C60.3842 87.7259 57.2162 90.931 56.7891 90.8604C56.3769 90.7973 53.6657 87.5328 53.8663 87.2877ZM64.2949 71.8862C67.1992 60.0537 83.934 60.0946 86.8271 71.8862H69.0153C69.0115 71.901 69.0115 71.9084 69.0115 71.9084H65.5391C65.5391 71.901 65.5391 71.8936 65.5353 71.8862H64.2949Z" fill="black"/>
<path d="M141.938 20.3257C140.917 20.3257 140.081 20.6006 139.428 21.1428C138.774 21.6887 138.447 22.4724 138.447 23.49C138.447 24.5113 138.748 25.3321 139.353 25.956C139.955 26.5799 140.742 27.0627 141.716 27.397C142.696 27.7238 143.78 28.0432 144.969 28.3477C146.165 28.656 147.353 29.0274 148.534 29.4619C149.723 29.889 150.8 30.4201 151.773 31.0515C152.742 31.6865 153.529 32.589 154.135 33.7552C154.748 34.925 155.056 36.3215 155.056 37.9444C155.056 40.7781 153.897 43.2107 151.58 45.2385C149.27 47.27 146.224 48.2839 142.443 48.2839C138.659 48.2839 135.61 47.374 133.292 45.5505C130.982 43.7307 129.831 41.1458 129.831 37.7959H138.536C138.763 40.481 140.133 41.8217 142.651 41.8217C143.84 41.8217 144.765 41.5098 145.429 40.8858C146.102 40.2619 146.44 39.4746 146.44 38.5238C146.44 37.5656 146.135 36.782 145.533 36.1766C144.928 35.5638 144.137 35.0847 143.157 34.7356C142.183 34.3902 141.099 34.0634 139.903 33.7552C138.704 33.4506 137.515 33.0718 136.338 32.6261C135.157 32.1805 134.083 31.6531 133.114 31.0366C132.141 30.4127 131.35 29.5176 130.737 28.3477C130.132 27.1816 129.831 25.8 129.831 24.203C129.831 21.0834 130.994 18.5839 133.322 16.701C135.658 14.8217 138.633 13.8784 142.25 13.8784C145.875 13.8784 148.802 14.7029 151.03 16.3444C153.266 17.9786 154.432 20.5709 154.521 24.1139H145.623C145.493 22.9069 145.103 21.9747 144.449 21.3211C143.795 20.66 142.956 20.3257 141.938 20.3257Z" fill="black"/>
<path d="M168.496 47.9416H160.325V12.5259H168.496V32.3878L176.785 21.2461H187.778L176.354 34.8835L187.778 47.9416H176.919L168.496 37.2753V47.9416Z" fill="black"/>
<path d="M197.835 18.23C196.914 19.151 195.777 19.6116 194.433 19.6116C193.096 19.6116 191.959 19.151 191.031 18.23C190.11 17.3015 189.649 16.1613 189.649 14.8132C189.649 13.4576 190.11 12.3175 191.031 11.3964C191.959 10.468 193.096 10 194.433 10C195.777 10 196.914 10.468 197.835 11.3964C198.756 12.3175 199.216 13.4576 199.216 14.8132C199.216 16.1613 198.756 17.3015 197.835 18.23ZM190.377 47.9411V21.2457H198.548V47.9411H190.377Z" fill="black"/>
<path d="M204.541 47.9425V12.5269H212.712V47.9425H204.541Z" fill="black"/>
<path d="M218.706 47.9416V12.5259H226.877V47.9416H218.706Z" fill="black"/>
<path d="M138.588 63.4468C137.566 63.4468 136.731 63.7217 136.077 64.2639C135.424 64.8098 135.097 65.5935 135.097 66.6111C135.097 67.6324 135.398 68.4532 136.003 69.0771C136.605 69.701 137.392 70.1838 138.365 70.5181C139.345 70.8449 140.43 71.1643 141.618 71.4688C142.814 71.7771 144.003 72.1485 145.184 72.583C146.372 73.0101 147.449 73.5412 148.422 74.1726C149.391 74.8076 150.179 75.7101 150.784 76.8763C151.397 78.0461 151.705 79.4426 151.705 81.0655C151.705 83.8992 150.546 86.3318 148.229 88.3596C145.919 90.3911 142.874 91.405 139.093 91.405C135.308 91.405 132.259 90.4951 129.942 88.6716C127.632 86.8518 126.48 84.2669 126.48 80.917H135.186C135.412 83.6021 136.783 84.9428 139.301 84.9428C140.489 84.9428 141.414 84.6309 142.079 84.0069C142.751 83.383 143.089 82.5957 143.089 81.6449C143.089 80.6867 142.784 79.9031 142.183 79.2977C141.577 78.6849 140.786 78.2058 139.806 77.8567C138.833 77.5113 137.748 77.1845 136.553 76.8763C135.353 76.5717 134.165 76.1929 132.987 75.7472C131.806 75.3016 130.733 74.7742 129.764 74.1577C128.791 73.5338 127.999 72.6387 127.387 71.4688C126.781 70.3027 126.48 68.9211 126.48 67.3241C126.48 64.2045 127.643 61.705 129.972 59.8221C132.308 57.9428 135.282 56.9995 138.9 56.9995C142.524 56.9995 145.451 57.824 147.679 59.4655C149.915 61.0996 151.081 63.6919 151.17 67.235H142.272C142.142 66.028 141.752 65.0958 141.098 64.4422C140.445 63.7811 139.605 63.4468 138.588 63.4468Z" fill="black"/>
<path d="M168.306 91.4051C164.414 91.4051 161.224 90.1535 158.739 87.6466C156.251 85.1434 155.011 81.8158 155.011 77.6636C155.011 73.5152 156.244 70.2136 158.71 67.755C161.183 65.3001 164.385 64.0708 168.306 64.0708C172.228 64.0708 175.482 65.2852 178.067 67.7104C180.651 70.1393 181.944 73.5041 181.944 77.8122C181.944 78.7332 181.877 79.5949 181.751 80.3971H163.374C163.53 81.5781 164.058 82.5437 164.949 83.2939C165.848 84.0367 166.813 84.4081 167.846 84.4081C168.886 84.4081 169.658 84.3041 170.163 84.0961C170.676 83.8881 171.055 83.6876 171.292 83.487C171.53 83.2791 171.842 82.9337 172.228 82.4471H181.082C180.317 85.1323 178.787 87.2975 176.492 88.939C174.193 90.5843 171.463 91.4051 168.306 91.4051ZM173.432 75.2719C173.302 74.024 172.756 73.0139 171.798 72.2414C170.836 71.4614 169.703 71.0678 168.396 71.0678C167.088 71.0678 165.989 71.4614 165.098 72.2414C164.206 73.0139 163.646 74.024 163.419 75.2719H173.432Z" fill="black"/>
<path d="M197.353 91.4051C193.461 91.4051 190.271 90.1535 187.786 87.6466C185.298 85.1434 184.058 81.8158 184.058 77.6636C184.058 73.5152 185.291 70.2136 187.757 67.755C190.23 65.3001 193.431 64.0708 197.353 64.0708C201.275 64.0708 204.529 65.2852 207.113 67.7104C209.698 70.1393 210.991 73.5041 210.991 77.8122C210.991 78.7332 210.924 79.5949 210.798 80.3971H192.421C192.577 81.5781 193.105 82.5437 193.996 83.2939C194.895 84.0367 195.86 84.4081 196.893 84.4081C197.933 84.4081 198.705 84.3041 199.21 84.0961C199.723 83.8881 200.102 83.6876 200.339 83.487C200.577 83.2791 200.889 82.9337 201.275 82.4471H210.129C209.364 85.1323 207.834 87.2975 205.539 88.939C203.24 90.5843 200.51 91.4051 197.353 91.4051ZM202.479 75.2719C202.349 74.024 201.803 73.0139 200.844 72.2414C199.883 71.4614 198.75 71.0678 197.442 71.0678C196.135 71.0678 195.036 71.4614 194.145 72.2414C193.253 73.0139 192.692 74.024 192.466 75.2719H202.479Z" fill="black"/>
<path d="M223.234 91.0636H215.063V55.6479H223.234V75.5098L231.523 64.3682H242.517L231.093 78.0056L242.517 91.0636H231.657L223.234 80.3973V91.0636Z" fill="black"/>
<path d="M256.454 91.4046C252.562 91.4046 249.372 90.153 246.887 87.6461C244.399 85.1429 243.158 81.8153 243.158 77.6632C243.158 73.5147 244.391 70.2131 246.857 67.7545C249.331 65.2996 252.532 64.0703 256.454 64.0703C260.376 64.0703 263.629 65.2848 266.214 67.7099C268.799 70.1388 270.091 73.5036 270.091 77.8117C270.091 78.7328 270.025 79.5944 269.898 80.3966H251.522C251.678 81.5776 252.205 82.5432 253.097 83.2934C253.995 84.0362 254.961 84.4076 255.993 84.4076C257.033 84.4076 257.806 84.3036 258.311 84.0956C258.823 83.8876 259.202 83.6871 259.44 83.4865C259.678 83.2786 259.99 82.9332 260.376 82.4467H269.23C268.465 85.1318 266.935 87.297 264.639 88.9385C262.34 90.5838 259.611 91.4046 256.454 91.4046ZM261.579 75.2714C261.449 74.0235 260.903 73.0134 259.945 72.2409C258.983 71.461 257.85 71.0673 256.543 71.0673C255.236 71.0673 254.136 71.461 253.245 72.2409C252.354 73.0134 251.793 74.0235 251.566 75.2714H261.579Z" fill="black"/>
<path d="M282.335 64.3679V69.3445C284.255 65.8312 286.81 64.0708 290 64.0708V72.4048H287.98C286.097 72.4048 284.686 72.8504 283.746 73.7418C282.803 74.6331 282.335 76.2004 282.335 78.4361V91.0634H274.164V64.3679H282.335Z" fill="black"/>
</svg>
