<svg width="15" height="16" viewBox="0 0 15 16" fill="none" xmlns="http://www.w3.org/2000/svg">
<path d="M13.053 8.9045H14.1251V14.3211C14.1247 14.7662 13.9484 15.193 13.6351 15.5077C13.3218 15.8225 12.897 15.9995 12.454 16H1.67117C1.22809 15.9995 0.803301 15.8225 0.489999 15.5077C0.176696 15.193 0.000474742 14.7662 0 14.3211V3.48829C0.000474742 3.04316 0.176696 2.6164 0.489999 2.30164C0.803301 1.98689 1.22809 1.80985 1.67117 1.80937H7.06275V2.88649H1.67117C1.51236 2.88668 1.3601 2.95014 1.24781 3.06296C1.13551 3.17578 1.07234 3.32874 1.07215 3.48829V14.3211C1.07234 14.4806 1.13551 14.6336 1.24781 14.7464C1.3601 14.8592 1.51236 14.9227 1.67117 14.9229H12.454C12.6128 14.9227 12.765 14.8592 12.8773 14.7464C12.9896 14.6336 13.0528 14.4806 13.053 14.3211V8.9045ZM5.87474 10.8411L6.9451 10.9023L7.0753 8.61261C7.16641 7.00757 7.87376 5.57297 9.01657 4.67676C9.95582 3.94258 11.1115 3.54311 12.3015 3.54126H12.9472L11.252 5.24541L12.0103 6.00721L15 3.0036L12.0103 0L11.252 0.761802L12.9475 2.46486H12.3019C10.8724 2.46694 9.48428 2.9468 8.35621 3.82883C6.9702 4.91604 6.11292 6.63748 6.00423 8.55243L5.87474 10.8411Z" fill="#387F9A"/>
</svg>
