<?xml version="1.0" encoding="UTF-8"?>
<svg version="1.1" xmlns="http://www.w3.org/2000/svg" width="520" height="128">
<path d="M0 0 C0.95519531 0.32871094 1.91039063 0.65742188 2.89453125 0.99609375 C18.54941973 6.80387651 31.01284643 18.40247553 38.5625 33.1875 C38.89733398 33.84049072 39.23216797 34.49348145 39.57714844 35.16625977 C41.78919611 39.79489377 42.58500133 43.88926291 43 49 C41.99582031 49.01417969 40.99164063 49.02835938 39.95703125 49.04296875 C30.21584297 49.32778482 19.73579548 50.16179083 11.953125 56.7265625 C10 58 10 58 7.5859375 57.83984375 C4.80585277 56.93694614 2.25728837 55.83338994 -0.375 54.5625 C-7.4640498 51.14055233 -13.87324163 49.6099404 -21.6875 49.625 C-22.47479492 49.62516113 -23.26208984 49.62532227 -24.07324219 49.62548828 C-30.93500809 49.75857684 -36.67107818 51.37253852 -43 54 C-44.99574364 54.67930241 -46.99478577 55.34918486 -49 56 C-49 56.66 -49 57.32 -49 58 C-54.15383098 57.59311861 -57.96391036 55.65559299 -62.4375 53.25390625 C-68.10493687 50.48066351 -73.16568632 49.64448197 -79.375 49.375 C-80.11105469 49.33632813 -80.84710938 49.29765625 -81.60546875 49.2578125 C-83.40327406 49.16442002 -85.20160108 49.0811629 -87 49 C-85.7654226 34.16861017 -77.09207959 21.55953487 -66 12 C-48.1904105 -2.27766452 -21.75138968 -8.65151892 0 0 Z " fill="#FF7900" transform="translate(115,12)"/>
<path d="M0 0 C11.59002737 -0.39288228 19.5655015 -0.17415608 29.5 6.25 C34.27010113 8.63505057 37.77050798 9.08536627 43 8 C46.79554325 6.39888218 50.38895625 4.60934537 53.99609375 2.62890625 C61.08537519 -1.2153465 70.20639297 -1.21892774 77.96484375 0.75390625 C81.74861393 2.24059561 85.09692938 4.04430608 88.5 6.25 C93.30958726 8.65479363 96.72616093 9.18886018 102 8 C105.31971018 6.48189053 108.47305378 4.64355156 111.65795898 2.86425781 C119.26556721 -1.11867032 125.52211821 -0.60556298 134 0 C134 5.61 134 11.22 134 17 C132.185 17 130.37 17 128.5 17 C122.38519305 17.41737036 118.38764965 19.11170255 113.1875 22.0625 C104.97363119 26.58687028 98.34034405 27.4875005 89 26 C83.7370448 24.43581443 79.06989662 22.31261737 74.4375 19.375 C70.22132211 16.99664324 66.70050603 17.01897249 62 18 C59.37700527 19.18699042 56.88755544 20.59702254 54.375 22 C46.07326203 26.53627518 39.42557064 27.5010733 30 26 C24.7899662 24.45154303 20.10214061 22.41962742 15.59375 19.375 C12.36828155 17.66511311 9.81845732 17.49588168 6.1875 17.3125 C4.145625 17.209375 2.10375 17.10625 0 17 C0 11.39 0 5.78 0 0 Z " fill="#407F94" transform="translate(26,71)"/>
<path d="M0 0 C11.2058805 -0.41122497 19.87428291 -0.04396934 29.5625 6.25 C34.29418973 8.65886022 37.79608218 9.08151598 43 8 C46.76417033 6.39666691 50.32101216 4.60418112 53.8984375 2.62890625 C61.33804373 -1.27829249 70.17855977 -1.03093884 78.1875 1.1875 C81.5974934 2.31872588 84.44769972 3.80587181 87.5 5.6875 C92.40848836 8.49357639 96.44432151 9.28450439 102 8 C105.48112785 6.39551283 108.73749911 4.60771978 112.01953125 2.62890625 C118.90135448 -1.13219504 126.3454061 -0.07153826 134 0 C134 5.61 134 11.22 134 17 C131.463125 17.0309375 131.463125 17.0309375 128.875 17.0625 C121.92310904 17.59916617 117.03184004 20.10862845 111.03125 23.40625 C103.6980113 27.26187035 94.03291202 27.29686518 86.07421875 25.24609375 C82.88396948 23.98090936 79.90039525 22.49446567 76.89453125 20.84375 C72.26779258 18.33797277 68.30078044 16.67909355 63 18 C59.29296535 19.64109174 55.73304605 21.43960273 52.171875 23.37109375 C44.72671908 27.19452973 35.13514287 27.32320771 27.07421875 25.24609375 C23.92399844 23.99678399 20.97723936 22.55758985 18.03515625 20.87890625 C12.08907901 17.55931712 6.79508709 17.3088676 0 17 C0 11.39 0 5.78 0 0 Z " fill="#407F94" transform="translate(26,99)"/>
<path d="M0 0 C4.91763405 4.78472502 7.14554614 10.17524859 7.42602539 17.02075195 C7.42078857 18.00003662 7.41555176 18.97932129 7.41015625 19.98828125 C7.40693359 21.05498047 7.40371094 22.12167969 7.40039062 23.22070312 C7.38782227 24.87489258 7.38782227 24.87489258 7.375 26.5625 C7.37048828 27.68462891 7.36597656 28.80675781 7.36132812 29.96289062 C7.34957313 32.7253151 7.33314077 35.48762998 7.3125 38.25 C4.3425 38.25 1.3725 38.25 -1.6875 38.25 C-2.0175 36.6 -2.3475 34.95 -2.6875 33.25 C-3.595 34.054375 -4.5025 34.85875 -5.4375 35.6875 C-9.71001077 39.20486933 -13.01122727 39.55825409 -18.60546875 39.46484375 C-24.46280984 38.86042769 -29.86481922 35.66756482 -33.6875 31.25 C-38.00482944 24.49999577 -38.73217509 17.86893205 -37.28515625 10.0859375 C-35.54011783 4.17789894 -31.65066944 0.69558494 -26.6875 -2.75 C-17.76387106 -7.3109659 -7.99388118 -5.20531798 0 0 Z M-26 9.375 C-28.35960053 13.39506017 -28.47465979 16.69571838 -27.6875 21.25 C-25.88485922 24.99394623 -24.32167235 26.80319676 -20.9375 29.1875 C-16.85023701 30.52372059 -13.77160576 30.64785888 -9.6875 29.25 C-5.51565277 25.80369142 -2.85220585 22.92450946 -2.3125 17.4375 C-2.43277296 13.07560083 -3.81683767 10.58617514 -6.6875 7.25 C-9.65856942 4.84102479 -11.3620346 4.28487129 -15.1875 3.875 C-20.11967625 4.40344746 -22.41074761 6.07676808 -26 9.375 Z " fill="#3C4144" transform="translate(295.6875,65.75)"/>
<path d="M0 0 C4.7100826 3.84496539 9.00727574 8.32453985 10.0625 14.5 C10.23252546 17.19540361 10.15127822 19.79226438 10.0625 22.5 C9.0625 23.5 9.0625 23.5 6.10327148 23.61352539 C4.80977783 23.60828857 3.51628418 23.60305176 2.18359375 23.59765625 C1.15360008 23.59553383 1.15360008 23.59553383 0.10279846 23.59336853 C-2.09817801 23.58775479 -4.29905409 23.57520007 -6.5 23.5625 C-7.98893083 23.55748676 -9.47786324 23.55292355 -10.96679688 23.54882812 C-14.62373075 23.53778093 -18.28060558 23.52050713 -21.9375 23.5 C-21.31359375 24.62535156 -20.6896875 25.75070313 -20.046875 26.91015625 C-19.69592773 27.5431665 -19.34498047 28.17617676 -18.98339844 28.82836914 C-17.53880274 31.13722692 -16.59221139 31.83632215 -13.9375 32.5 C-8.99238412 32.9785596 -6.89670068 33.02320037 -2.5 30.625 C0.10124519 28.75835959 0.10124519 28.75835959 1.0625 26.5 C6.8125 28.375 6.8125 28.375 9.0625 29.5 C8.47423456 33.4707917 6.92191679 35.71032509 4.0625 38.5 C-3.21494198 42.41764734 -9.48592874 43.63658066 -17.5 41.3125 C-23.43526836 39.12210334 -27.4028731 36.05232078 -30.3125 30.375 C-32.83523225 24.04178097 -33.20825657 17.03134267 -30.6875 10.625 C-24.53320213 -0.36481763 -12.28154633 -6.11348084 0 0 Z M-20.9375 12.5 C-21.2675 13.82 -21.5975 15.14 -21.9375 16.5 C-14.6775 16.5 -7.4175 16.5 0.0625 16.5 C-0.49032786 11.65836818 -0.49032786 11.65836818 -2.875 9.1875 C-9.59465885 5.48483084 -16.36510417 6.01014785 -20.9375 12.5 Z " fill="#3D4244" transform="translate(385.9375,62.5)"/>
<path d="M0 0 C4.4105708 3.00608736 7.35051474 7.27843743 8.58203125 12.47265625 C9.39417348 19.02951042 9.40114835 25.03662588 5.578125 30.66796875 C0.92420918 36.21413858 -3.65044069 39.92488351 -11.015625 40.6328125 C-16.36493275 40.74682972 -20.06144536 39.94323089 -24.90234375 37.4296875 C-25.76859375 37.0378125 -26.63484375 36.6459375 -27.52734375 36.2421875 C-31.7396943 33.02749892 -34.24248648 28.40925932 -35.90234375 23.4296875 C-36.8955125 15.69715936 -35.25846422 9.86668442 -30.90234375 3.4296875 C-22.77585512 -5.8732901 -10.12681818 -5.68128944 0 0 Z M-24.77734375 11.1171875 C-26.58962198 14.84242609 -26.52170953 18.37565693 -25.90234375 22.4296875 C-23.99820874 26.54261911 -22.50216695 28.07884752 -18.58984375 30.3671875 C-14.38961189 31.5774238 -12.08822287 31.66994798 -7.90234375 30.4296875 C-3.39795767 26.72608117 -1.1682244 23.82261337 -0.52734375 18.0546875 C-0.97718958 13.70617781 -2.10443951 11.75692497 -4.90234375 8.4296875 C-7.82907047 6.05666583 -9.58543579 5.47002124 -13.33984375 4.9921875 C-18.37199938 5.61017152 -21.08776881 7.79657005 -24.77734375 11.1171875 Z " fill="#3C4144" transform="translate(483.90234375,64.5703125)"/>
<path d="M0 0 C14.19 0 28.38 0 43 0 C43 2.97 43 5.94 43 9 C37.72 9 32.44 9 27 9 C27 24.84 27 40.68 27 57 C23.7 57 20.4 57 17 57 C17 41.16 17 25.32 17 9 C11.39 9 5.78 9 0 9 C0 6.03 0 3.06 0 0 Z " fill="#3C4144" transform="translate(184,47)"/>
<path d="M0 0 C3.3 0 6.6 0 10 0 C14.41135578 10.18474308 18.21437737 20.570446 22 31 C24.55821495 28.44178505 25.15868403 26.13358555 26.34765625 22.71484375 C26.56441513 22.09855606 26.78117401 21.48226837 27.00450134 20.8473053 C27.69593877 18.87922418 28.37969161 16.90858987 29.0625 14.9375 C29.74986636 12.96321107 30.43887149 10.98953389 31.13121033 9.01698303 C31.75792717 7.22998382 32.37921018 5.44108172 33.00024414 3.65209961 C34 1 34 1 35 0 C38.33327842 -0.1424478 41.66453893 -0.04222103 45 0 C42.69859999 8.29538072 39.73766247 16.29108469 36.625 24.3125 C36.15102639 25.57356197 35.67706798 26.83462965 35.203125 28.09570312 C34.73648438 29.29775391 34.26984375 30.49980469 33.7890625 31.73828125 C33.37350098 32.82149658 32.95793945 33.90471191 32.52978516 35.02075195 C30.78693911 38.41493489 28.91194824 40.54655369 26 43 C22.15641537 43.61771896 19.9963274 43.53967734 16.5625 41.6796875 C12.6673392 37.60639435 11.32544317 32.82621483 9.5 27.5625 C8.72048111 25.39437695 7.94053634 23.22640697 7.16015625 21.05859375 C6.79035645 20.01558105 6.42055664 18.97256836 6.03955078 17.89794922 C4.38651219 13.28978385 2.57975786 8.74686328 0.77734375 4.1953125 C0 2 0 2 0 0 Z " fill="#3D4245" transform="translate(307,62)"/>
<path d="M0 0 C2.97 0 5.94 0 9 0 C9 20.13 9 40.26 9 61 C6.03 61 3.06 61 0 61 C0 40.87 0 20.74 0 0 Z " fill="#3C4144" transform="translate(406,43)"/>
<path d="M0 0 C0.76183594 -0.00257812 1.52367187 -0.00515625 2.30859375 -0.0078125 C4.5625 0.125 4.5625 0.125 8.5625 1.125 C8.5625 4.425 8.5625 7.725 8.5625 11.125 C6.34895833 10.79947917 4.13541667 10.47395833 1.921875 10.1484375 C-0.85659296 10.12083682 -2.16312897 10.54071591 -4.4375 12.125 C-6.61867635 15.50391518 -6.73926311 18.45396323 -6.8515625 22.421875 C-6.90957031 24.22978516 -6.90957031 24.22978516 -6.96875 26.07421875 C-6.9996875 27.32847656 -7.030625 28.58273438 -7.0625 29.875 C-7.12050781 31.77958984 -7.12050781 31.77958984 -7.1796875 33.72265625 C-7.27394222 36.8566257 -7.35955166 39.99058949 -7.4375 43.125 C-10.4075 43.125 -13.3775 43.125 -16.4375 43.125 C-16.51215394 38.98074912 -16.56633721 34.83686376 -16.60229492 30.69213867 C-16.61729877 29.28484266 -16.63770863 27.87759276 -16.66381836 26.47045898 C-16.70057665 24.43722093 -16.71730984 22.40460568 -16.73046875 20.37109375 C-16.7461792 19.15091553 -16.76188965 17.9307373 -16.77807617 16.67358398 C-16.32971215 12.00192012 -15.06298989 8.01293878 -11.9375 4.3828125 C-7.87084882 1.31164364 -5.06636443 -0.01708723 0 0 Z " fill="#3C4144" transform="translate(247.4375,60.875)"/>
<path d="M0 0 C3.3 0 6.6 0 10 0 C10 13.86 10 27.72 10 42 C6.7 42 3.4 42 0 42 C0 28.14 0 14.28 0 0 Z " fill="#3C4144" transform="translate(429,62)"/>
<path d="M0 0 C2 3 2 3 1.75 6.0625 C1 9 1 9 -1 11 C-4.10347254 11.33015665 -6.15781176 11.50531294 -8.875 9.875 C-10.52854531 7.11909116 -10.39365568 5.14924548 -10 2 C-7.65569181 -2.27491494 -4.20074737 -1.06928115 0 0 Z " fill="#3C4145" transform="translate(438,44)"/>
</svg>
