<svg width="46" height="46" viewBox="0 0 46 46" fill="none" xmlns="http://www.w3.org/2000/svg">
<path d="M41.75 39.875H4.25V36.125H6.125V8C6.125 6.96447 6.96447 6.125 8 6.125H34.25C35.2856 6.125 36.125 6.96447 36.125 8V17.375H39.875V36.125H41.75V39.875ZM32.375 36.125H36.125V21.125H24.875V36.125H28.625V24.875H32.375V36.125ZM32.375 17.375V9.875H9.875V36.125H21.125V17.375H32.375ZM13.625 21.125H17.375V24.875H13.625V21.125ZM13.625 28.625H17.375V32.375H13.625V28.625ZM13.625 13.625H17.375V17.375H13.625V13.625Z" fill="white"/>
</svg>
