<svg width="46" height="46" viewBox="0 0 46 46" fill="none" xmlns="http://www.w3.org/2000/svg">
<path d="M26.5328 22.5229L24.9323 24.1234L38.1907 37.3815L35.539 40.0332L22.2807 26.775L9.02252 40.0332L6.37088 37.3815L23.881 19.8713C22.7793 17.1396 23.9182 13.2052 26.9212 10.2022C30.5823 6.54102 35.6279 5.65064 38.1907 8.21344C40.7534 10.7763 39.8632 15.8218 36.2018 19.483C33.1988 22.486 29.2645 23.6249 26.5328 22.5229ZM7.69669 6.88761L20.2921 19.483L14.9887 24.7862L7.69669 17.4942C4.76777 14.5653 4.76777 9.81655 7.69669 6.88761ZM33.5502 16.8313C35.9077 14.474 36.3937 11.7197 35.539 10.8651C34.6844 10.0105 31.93 10.4966 29.5728 12.8538C27.2155 15.2111 26.7295 17.9654 27.5842 18.82C28.4386 19.6746 31.193 19.1886 33.5502 16.8313Z" fill="black"/>
</svg>
