<svg width="46" height="46" viewBox="0 0 46 46" fill="none" xmlns="http://www.w3.org/2000/svg">
<path d="M39.875 25.3291V38H41.75V41.75H4.25V38H6.125V25.3291C3.86377 23.8156 2.375 21.2379 2.375 18.3125C2.375 16.7616 2.79581 15.2679 3.56229 13.9952L8.64744 5.1875C8.98237 4.60738 9.60136 4.25 10.2712 4.25H35.7288C36.3986 4.25 37.0177 4.60738 37.3526 5.1875L42.4203 13.9657C43.2043 15.2679 43.625 16.7616 43.625 18.3125C43.625 21.2379 42.1362 23.8156 39.875 25.3291ZM36.125 26.6984C35.8171 26.7326 35.5044 26.75 35.1875 26.75C32.8267 26.75 30.6479 25.7712 29.0938 24.1497C27.5396 25.7712 25.3608 26.75 23 26.75C20.6392 26.75 18.4604 25.7712 16.9062 24.1497C15.3521 25.7712 13.1733 26.75 10.8125 26.75C10.4956 26.75 10.1828 26.7326 9.875 26.6984V38H36.125V26.6984ZM11.3537 8L6.79246 15.8998C6.35767 16.6221 6.125 17.4479 6.125 18.3125C6.125 20.9013 8.22367 23 10.8125 23C12.7456 23 14.4588 21.8193 15.1659 20.0553C15.7951 18.4854 18.0174 18.4854 18.6466 20.0553C19.3537 21.8193 21.0669 23 23 23C24.9331 23 26.6463 21.8193 27.3534 20.0553C27.9826 18.4854 30.2049 18.4854 30.8341 20.0553C31.5412 21.8193 33.2544 23 35.1875 23C37.7763 23 39.875 20.9013 39.875 18.3125C39.875 17.4479 39.6423 16.6221 39.1901 15.8702L34.6462 8H11.3537Z" fill="white"/>
</svg>
