<svg width="93" height="63" viewBox="0 0 93 63" fill="none" xmlns="http://www.w3.org/2000/svg">
<g clip-path="url(#clip0_140_1018)">
<path d="M0 48.7876C0.817571 48.2893 1.5247 47.6138 2.07433 46.8063C2.79134 45.8272 3.60049 44.9265 4.48952 44.1178C5.74978 42.9945 7.27875 42.2547 8.91079 41.9785C8.54108 44.2273 8.35446 46.5051 8.35297 48.7871L0 48.7876ZM6.22864 24.3942C7.17368 24.3912 8.10733 24.1774 8.96774 23.767C10.0553 23.2952 11.1854 22.9394 12.3408 22.7051C13.9772 22.3909 15.6644 22.5561 17.2172 23.1826C14.4197 26.6915 12.2163 30.6783 10.7029 34.9696C9.42033 33.874 8.44805 32.4304 7.89167 30.7956C7.50719 29.6289 7.23582 28.4244 7.08167 27.2005C6.99066 26.212 6.69984 25.2553 6.22864 24.3942ZM23.2489 6.53648C24.0694 7.03078 24.9808 7.33596 25.9224 7.43172C27.0884 7.59338 28.2359 7.87802 29.3476 8.2813C30.9135 8.86709 32.2954 9.89477 33.3414 11.2514C29.2494 12.8323 25.446 15.1386 22.0968 18.07C21.4983 16.4405 21.3402 14.669 21.6398 12.9511C21.8628 11.7388 22.2019 10.5533 22.652 9.41257C23.0436 8.50939 23.2471 7.52885 23.2489 6.53648ZM46.4996 0C46.975 0.85882 47.6199 1.60097 48.3909 2.1767C49.3238 2.92912 50.1823 3.77811 50.9534 4.71085C52.0315 6.04201 52.7387 7.65986 52.9969 9.38609C48.6979 8.61221 44.3047 8.61221 40.0057 9.38609C40.2637 7.65965 40.9709 6.04159 42.0492 4.71039C42.8202 3.7777 43.6786 2.92872 44.6113 2.17624C45.3812 1.60029 46.0249 0.858326 46.4996 0ZM69.7494 6.53602C69.7517 7.52849 69.9556 8.50901 70.3476 9.41211C70.7971 10.553 71.1361 11.7384 71.3593 12.9506C71.6582 14.6685 71.4999 16.4396 70.902 18.0691C67.552 15.1379 63.748 12.8316 59.6555 11.2505C60.7022 9.89385 62.0849 8.86647 63.6516 8.2813C64.7637 7.87748 65.9119 7.59254 67.0785 7.4308C68.0191 7.3352 68.9295 7.03016 69.7489 6.53602H69.7494ZM86.7701 24.3933C86.2993 25.2541 86.0086 26.2102 85.9175 27.1982C85.7632 28.4219 85.4918 29.6262 85.1075 30.7928C84.5511 32.4278 83.5787 33.8714 82.2958 34.9668C80.7827 30.6762 78.5794 26.6901 75.7819 23.1822C77.3339 22.5561 79.0202 22.3907 80.6558 22.7042C81.811 22.9385 82.9409 23.2942 84.0284 23.7661C84.8894 24.1773 85.8241 24.3911 86.7701 24.3933ZM84.0888 41.9785C85.721 42.2549 87.2501 42.9949 88.5105 44.1183C89.3996 44.9268 90.2088 45.8275 90.9257 46.8067C91.4751 47.6145 92.1823 48.2899 93 48.788H84.6475C84.6454 46.5057 84.4583 44.2276 84.0883 41.9785H84.0888ZM57.586 13.7249C64.6173 16.1638 70.741 20.861 75.0916 27.1529C79.4423 33.4448 81.7999 41.0132 81.8314 48.7885H74.8845C75.3471 34.5108 69.4054 21.6236 57.586 13.7249Z" fill="#FAB401"/>
<path d="M58.9804 48.7876H62.5851C62.759 44.6496 62.4234 39.7484 61.156 35.4658C60.9115 34.634 60.624 33.8168 60.2947 33.0179C59.5211 31.1838 58.5005 29.4758 57.2643 27.9464C55.8829 26.198 54.2509 24.6857 52.4269 23.4638C51.8824 23.1024 51.3198 22.7718 50.7417 22.4732C50.1613 22.1732 49.565 21.9083 48.9557 21.6798H48.9531C41.9331 19.0443 34.8293 20.916 28.872 24.3399C27.7107 25.0069 26.5928 25.7328 25.5285 26.4951C24.4642 27.2575 23.4516 28.0565 22.4985 28.8727C21.1044 30.0683 19.7861 31.3583 18.552 32.7344C18.2764 33.0426 18.0038 33.3567 17.7394 33.6749C17.0303 34.5231 15.9386 35.7123 16.2612 36.9426C16.5182 37.9187 17.7094 37.6306 18.1251 37.2942C18.8148 36.8727 19.4632 36.3808 20.0607 35.8255C20.8716 35.1006 21.6372 34.319 22.4398 33.5854C25.4201 30.805 28.7788 28.5071 32.405 26.7677C33.1319 26.4299 33.8583 26.1255 34.5841 25.8546C35.3099 25.5838 36.0275 25.3528 36.7371 25.1616H36.7401C42.9436 23.4597 49.6844 24.5627 54.0009 29.9054C58.1578 35.0522 58.9169 41.9416 58.9804 48.7876ZM14.2403 42.9701C14.671 42.524 15.0699 42.0453 15.4338 41.538C15.6761 41.2682 15.8423 40.9331 15.914 40.57C15.9857 40.2069 15.96 39.8301 15.8399 39.4814C15.7574 39.2852 15.6336 39.1113 15.4777 38.9728C15.3271 38.8392 15.1482 38.7453 14.956 38.6989C14.6696 38.6479 14.3753 38.6845 14.1083 38.8044C13.8412 38.9243 13.6126 39.1224 13.4499 39.375C12.9112 40.0675 12.1669 41.2508 12.0152 42.2967C11.9861 42.4837 11.9805 42.6739 11.9986 42.8624C12.015 43.0334 12.0613 43.1997 12.1351 43.3531C12.1902 43.4702 12.2757 43.5686 12.3817 43.6369C12.4877 43.7052 12.6099 43.7407 12.7343 43.7393C12.7955 43.7414 12.8569 43.7386 12.9178 43.7311C12.9874 43.7228 13.0566 43.7098 13.1247 43.6923H13.1277C13.551 43.5547 13.9339 43.3062 14.2403 42.9701ZM51.6444 48.7876H55.2204C55.3904 44.3278 54.71 39.7215 52.7465 35.7356C50.9609 32.1099 48.0074 29.6451 44.1875 29.0494C38.6088 28.182 32.9793 30.6741 28.2211 34.2432C23.039 38.1269 18.762 43.4056 15.0243 48.7876L19.7481 48.7812C24.0011 42.4141 33.7841 32.7481 40.9797 32.6847C43.2727 32.6646 45.6044 33.2325 47.3274 34.8577C48.5766 36.0346 50.0909 38.3209 50.0165 40.1757C49.9731 41.276 49.0483 41.6129 48.1618 41.2714C47.4731 41.0066 46.9879 40.3415 46.5048 39.643C45.767 38.5389 44.7499 37.6734 43.5684 37.1442C42.3869 36.6151 41.088 36.4432 39.8184 36.6482C36.6232 37.1097 32.6628 39.7297 30.1085 42.1128C27.9164 44.1822 25.8674 46.4128 23.9768 48.7876H29.0554C30.8409 46.4128 32.9886 44.365 35.4115 42.7272C36.2971 42.1331 37.2429 41.644 38.2314 41.2691C40.8423 40.3204 43.4409 40.561 44.5944 43.995C45.0479 45.3449 45.1161 46.5291 44.9822 48.6972V48.7853H48.4366L48.4452 48.6739C48.4479 47.4869 48.4235 46.6853 48.5248 45.5075C48.6118 44.4921 48.9109 43.4403 49.8035 43.3161C51.6978 42.898 51.607 47.3555 51.6444 48.7876ZM27.2994 60.3138H24.4929L23.7972 62.8968H21.5611L24.5203 53.0067H27.355L30.3985 62.8973H28.0637L27.2994 60.3138ZM24.8124 58.6407H26.9659C26.4007 56.7087 26.0347 55.3831 25.8681 54.6639H25.8402L25.3959 56.5425L24.8124 58.6407ZM16.9912 60.3138H14.1851L13.4895 62.8968H11.2534L14.2125 53.0063H17.0464L20.0899 62.8968H17.7551L16.9912 60.3138ZM14.5043 58.6407H16.6573C16.0926 56.7087 15.727 55.3831 15.5603 54.6639H15.5325L15.0882 56.5425L14.5043 58.6407ZM32.5358 62.8525V53.1382C33.5204 52.9875 34.5143 52.9141 35.5093 52.9186C37.5055 52.9186 38.9382 53.3599 39.8075 54.2425C40.2418 54.6925 40.5819 55.2327 40.806 55.8285C41.0301 56.4244 41.1332 57.0628 41.1088 57.703C41.1088 59.3857 40.6147 60.6894 39.6266 61.614C38.6385 62.5386 37.1132 63.0008 35.0506 63.0005C34.2104 63.0072 33.3706 62.9579 32.5363 62.853L32.5358 62.8525ZM34.6897 54.7525V61.1949C34.9473 61.2344 35.2078 61.2497 35.468 61.2406C35.9177 61.2702 36.3685 61.2066 36.7948 61.0533C37.221 60.9 37.6144 60.6601 37.9523 60.3471C38.2587 60.0077 38.4948 59.6053 38.6458 59.1653C38.7968 58.7253 38.8594 58.2573 38.8297 57.7906C38.8578 57.3657 38.8011 56.9394 38.6631 56.5388C38.5252 56.1383 38.3092 55.7724 38.0288 55.4646C37.3871 54.8919 36.5578 54.6049 35.7175 54.6648C35.3731 54.6578 35.0289 54.6874 34.6902 54.7529L34.6897 54.7525ZM43.4136 53.0063H45.5679V56.8064H49.2496V53.0067H51.403V62.8973H49.2496V58.774H45.5679V62.8973H43.414L43.4136 53.0063ZM59.2104 60.3138H56.4039L55.7082 62.8968H53.4722L56.4313 53.0063H59.2656L62.309 62.8968H59.9751L59.2104 60.3138ZM56.7234 58.6407H58.8765C58.3118 56.7087 57.946 55.3831 57.7791 54.6639H57.7513L57.3065 56.5425L56.7234 58.6407ZM69.5181 60.3138H66.7116L66.016 62.8968H63.7808L66.7399 53.0063H69.5742L72.6176 62.8968H70.2807L69.5181 60.3138ZM67.0307 58.6407H69.1842C68.6196 56.7087 68.2538 55.3831 68.0868 54.6639H68.0594L67.6146 56.5425L67.0307 58.6407ZM74.7546 62.8968V53.1382C75.7146 52.9781 76.686 52.9047 77.658 52.9186C79.0754 52.9186 80.0944 53.1655 80.715 53.6591C81.0226 53.9064 81.2682 54.2288 81.4304 54.5984C81.5927 54.9679 81.6666 55.3734 81.6458 55.7796C81.65 56.3149 81.4857 56.8367 81.1784 57.2638C80.8752 57.6995 80.4515 58.0266 79.965 58.2006V58.2595C80.5484 58.4893 80.9699 59.0957 81.2293 60.0787C81.7061 61.8497 81.9655 62.7891 82.0075 62.8968H79.8123C79.5135 62.1556 79.2899 61.3833 79.1454 60.5928C79.0761 60.1402 78.894 59.7149 78.6176 59.3601C78.4701 59.2302 78.2996 59.1322 78.1159 59.0717C77.9322 59.0112 77.7389 58.9895 77.5472 59.0077H76.8806V62.8968H74.7546ZM76.8802 54.6644V57.3793H77.7693C78.2226 57.4055 78.671 57.269 79.0406 56.9922C79.1913 56.8709 79.3122 56.7135 79.3932 56.5331C79.4743 56.3528 79.513 56.1547 79.5063 55.9554C79.5165 55.7643 79.4838 55.5733 79.411 55.3979C79.3381 55.2224 79.227 55.0673 79.0867 54.9451C78.7396 54.6869 78.3186 54.5616 77.8941 54.5904C77.5549 54.5766 77.2152 54.6016 76.8811 54.6648L76.8802 54.6644ZM38.7501 48.7962L41.6162 48.7871C41.9927 46.2306 41.2562 44.2616 38.8075 44.7305C36.7432 45.1267 34.5262 47.292 33.1871 48.7871L36.9662 48.7698C37.3875 48.4771 38.2114 48.1439 38.5501 48.3922C38.6131 48.4368 38.6646 48.4971 38.7 48.5677C38.7354 48.6383 38.7537 48.7169 38.7532 48.7967L38.7501 48.7962ZM67.9968 48.7889H68.0229H68.0359C68.3204 48.7947 68.6012 48.7203 68.8491 48.5735C69.097 48.4268 69.3029 48.213 69.4455 47.9544C69.5262 47.8088 69.5896 47.6533 69.6342 47.4915C69.6884 47.2942 69.7217 47.0912 69.7333 46.8861L69.7355 46.8405C70.022 36.2629 66.9529 27.5063 61.7473 21.5565C60.7453 20.4112 59.6507 19.3592 58.4756 18.4124C57.314 17.4769 56.0754 16.6519 54.7743 15.9472L54.7539 15.9358C50.3629 13.6118 45.4385 12.6297 40.5418 13.1017C38.6411 13.2712 36.7619 13.6438 34.9332 14.2138L34.9206 14.2179C29.7989 15.8959 25.1645 18.9067 21.4485 22.9703C20.7083 23.7647 20.0028 24.5934 19.332 25.4566C18.9996 25.8845 18.6761 26.3201 18.3616 26.7636C20.9732 24.3583 23.8286 22.2615 26.8763 20.5111C27.5499 20.1297 28.2266 19.7727 28.9063 19.4401C29.586 19.1074 30.2744 18.7979 30.9715 18.5115H30.9741C33.4934 17.4595 36.1331 16.7584 38.8258 16.4261C41.4423 16.1194 44.0865 16.1898 46.6848 16.6352C48.5303 16.9332 50.3358 17.459 52.0639 18.2015C52.3852 18.3426 52.7017 18.4932 53.0113 18.6516C53.3209 18.8101 53.6174 18.9749 53.9122 19.1502L53.9165 19.1529C59.7512 22.5243 63.8025 29.4456 65.5877 37.2595C66.2887 40.3325 66.6333 43.4834 66.6138 46.6433V46.7346C66.596 47.0883 66.6567 47.4415 66.7912 47.7663C66.9256 48.0911 67.1301 48.3787 67.3886 48.6063C67.4763 48.6664 67.5719 48.7125 67.6725 48.7433C67.7789 48.7752 67.8892 48.7907 67.9999 48.7894L67.9968 48.7889Z" fill="#D32828"/>
</g>
<defs>
<clipPath id="clip0_140_1018">
<rect width="93" height="63" fill="white"/>
</clipPath>
</defs>
</svg>
