<svg width="37" height="11" viewBox="0 0 37 11" fill="none" xmlns="http://www.w3.org/2000/svg">
<path d="M9.646 0.834999L6.487 10H3.224L0.052 0.834999H2.782L4.862 7.452L6.929 0.834999H9.646ZM10.0239 6.347C10.0239 5.593 10.1582 4.93433 10.4269 4.371C10.7042 3.80767 11.0769 3.37433 11.5449 3.071C12.0216 2.76767 12.5502 2.616 13.1309 2.616C13.6336 2.616 14.0669 2.71567 14.4309 2.915C14.7949 3.11433 15.0766 3.383 15.2759 3.721V2.707H17.8239V10H15.2759V8.986C15.0766 9.324 14.7906 9.59267 14.4179 9.792C14.0539 9.99133 13.6249 10.091 13.1309 10.091C12.5502 10.091 12.0216 9.93933 11.5449 9.636C11.0769 9.33267 10.7042 8.89933 10.4269 8.336C10.1582 7.764 10.0239 7.101 10.0239 6.347ZM15.2759 6.347C15.2759 5.879 15.1459 5.51067 14.8859 5.242C14.6346 4.97333 14.3226 4.839 13.9499 4.839C13.5686 4.839 13.2522 4.97333 13.0009 5.242C12.7496 5.502 12.6239 5.87033 12.6239 6.347C12.6239 6.815 12.7496 7.18767 13.0009 7.465C13.2522 7.73367 13.5686 7.868 13.9499 7.868C14.3226 7.868 14.6346 7.73367 14.8859 7.465C15.1459 7.19633 15.2759 6.82367 15.2759 6.347ZM26.7379 2.707V10H24.1769V8.96C23.9602 9.28933 23.6612 9.558 23.2799 9.766C22.8985 9.96533 22.4609 10.065 21.9669 10.065C21.1175 10.065 20.4459 9.78767 19.9519 9.233C19.4665 8.66967 19.2239 7.907 19.2239 6.945V2.707H21.7589V6.62C21.7589 7.036 21.8672 7.36533 22.0839 7.608C22.3092 7.842 22.6039 7.959 22.9679 7.959C23.3405 7.959 23.6352 7.842 23.8519 7.608C24.0685 7.36533 24.1769 7.036 24.1769 6.62V2.707H26.7379ZM30.736 0.38V10H28.188V0.38H30.736ZM36.49 7.829V10H35.385C33.5217 10 32.59 9.077 32.59 7.231V4.826H31.693V2.707H32.59V0.939H35.151V2.707H36.477V4.826H35.151V7.27C35.151 7.46933 35.1943 7.61233 35.281 7.699C35.3763 7.78567 35.5323 7.829 35.749 7.829H36.49Z" fill="#09BD71"/>
</svg>
