<svg width="80" height="14" viewBox="0 0 80 14" fill="none" xmlns="http://www.w3.org/2000/svg">
<path d="M5.122 10.091C4.264 10.091 3.47533 9.89167 2.756 9.493C2.03667 9.08567 1.46467 8.52667 1.04 7.816C0.624 7.09667 0.416 6.28633 0.416 5.385C0.416 4.48367 0.624 3.67767 1.04 2.967C1.46467 2.24767 2.03667 1.68867 2.756 1.29C3.47533 0.891333 4.264 0.692 5.122 0.692C5.98867 0.692 6.77733 0.891333 7.488 1.29C8.20733 1.68867 8.775 2.24767 9.191 2.967C9.607 3.67767 9.815 4.48367 9.815 5.385C9.815 6.28633 9.607 7.09667 9.191 7.816C8.775 8.52667 8.20733 9.08567 7.488 9.493C6.76867 9.89167 5.98 10.091 5.122 10.091ZM5.122 7.725C5.772 7.725 6.28333 7.51267 6.656 7.088C7.03733 6.66333 7.228 6.09567 7.228 5.385C7.228 4.657 7.03733 4.085 6.656 3.669C6.28333 3.24433 5.772 3.032 5.122 3.032C4.46333 3.032 3.94767 3.24433 3.575 3.669C3.20233 4.085 3.016 4.657 3.016 5.385C3.016 6.10433 3.20233 6.67633 3.575 7.101C3.94767 7.517 4.46333 7.725 5.122 7.725ZM13.5084 3.721C13.7078 3.383 13.9894 3.11433 14.3534 2.915C14.7174 2.71567 15.1464 2.616 15.6404 2.616C16.2211 2.616 16.7454 2.76767 17.2134 3.071C17.6901 3.37433 18.0628 3.80767 18.3314 4.371C18.6088 4.93433 18.7474 5.593 18.7474 6.347C18.7474 7.101 18.6088 7.764 18.3314 8.336C18.0628 8.89933 17.6901 9.33267 17.2134 9.636C16.7454 9.93933 16.2211 10.091 15.6404 10.091C15.1464 10.091 14.7174 9.99133 14.3534 9.792C13.9981 9.59267 13.7164 9.324 13.5084 8.986V13.484H10.9604V2.707H13.5084V3.721ZM16.1604 6.347C16.1604 5.87033 16.0304 5.502 15.7704 5.242C15.5191 4.97333 15.2071 4.839 14.8344 4.839C14.4618 4.839 14.1454 4.97333 13.8854 5.242C13.6341 5.51067 13.5084 5.879 13.5084 6.347C13.5084 6.82367 13.6341 7.19633 13.8854 7.465C14.1454 7.73367 14.4618 7.868 14.8344 7.868C15.2071 7.868 15.5191 7.73367 15.7704 7.465C16.0304 7.18767 16.1604 6.815 16.1604 6.347ZM26.7644 6.269C26.7644 6.46833 26.7514 6.66767 26.7254 6.867H21.9024C21.9284 7.26567 22.0367 7.56467 22.2274 7.764C22.4267 7.95467 22.678 8.05 22.9814 8.05C23.406 8.05 23.7094 7.85933 23.8914 7.478H26.6084C26.4957 7.98067 26.2747 8.43133 25.9454 8.83C25.6247 9.22 25.2174 9.52767 24.7234 9.753C24.2294 9.97833 23.6834 10.091 23.0854 10.091C22.366 10.091 21.7247 9.93933 21.1614 9.636C20.6067 9.33267 20.169 8.89933 19.8484 8.336C19.5364 7.77267 19.3804 7.10967 19.3804 6.347C19.3804 5.58433 19.5364 4.92567 19.8484 4.371C20.1604 3.80767 20.5937 3.37433 21.1484 3.071C21.7117 2.76767 22.3574 2.616 23.0854 2.616C23.8047 2.616 24.4417 2.76333 24.9964 3.058C25.551 3.35267 25.9844 3.77733 26.2964 4.332C26.6084 4.878 26.7644 5.52367 26.7644 6.269ZM24.1644 5.632C24.1644 5.32 24.0604 5.07733 23.8524 4.904C23.6444 4.722 23.3844 4.631 23.0724 4.631C22.7604 4.631 22.5047 4.71767 22.3054 4.891C22.106 5.05567 21.976 5.30267 21.9154 5.632H24.1644ZM32.5781 2.642C33.4188 2.642 34.0861 2.92367 34.5801 3.487C35.0741 4.04167 35.3211 4.79567 35.3211 5.749V10H32.7731V6.087C32.7731 5.671 32.6648 5.346 32.4481 5.112C32.2314 4.86933 31.9411 4.748 31.5771 4.748C31.1958 4.748 30.8968 4.86933 30.6801 5.112C30.4634 5.346 30.3551 5.671 30.3551 6.087V10H27.8071V2.707H30.3551V3.747C30.5804 3.41767 30.8838 3.15333 31.2651 2.954C31.6464 2.746 32.0841 2.642 32.5781 2.642ZM49.6282 0.834999L47.3792 10H44.2462L42.9852 4.384L41.6982 10H38.5652L36.3422 0.834999H39.0982L40.1642 7.101L41.6072 0.834999H44.4022L45.8062 7.049L46.8722 0.834999H49.6282ZM50.2934 6.347C50.2934 5.593 50.4278 4.93433 50.6964 4.371C50.9738 3.80767 51.3464 3.37433 51.8144 3.071C52.2911 2.76767 52.8198 2.616 53.4004 2.616C53.9031 2.616 54.3364 2.71567 54.7004 2.915C55.0644 3.11433 55.3461 3.383 55.5454 3.721V2.707H58.0934V10H55.5454V8.986C55.3461 9.324 55.0601 9.59267 54.6874 9.792C54.3234 9.99133 53.8944 10.091 53.4004 10.091C52.8198 10.091 52.2911 9.93933 51.8144 9.636C51.3464 9.33267 50.9738 8.89933 50.6964 8.336C50.4278 7.764 50.2934 7.101 50.2934 6.347ZM55.5454 6.347C55.5454 5.879 55.4154 5.51067 55.1554 5.242C54.9041 4.97333 54.5921 4.839 54.2194 4.839C53.8381 4.839 53.5218 4.97333 53.2704 5.242C53.0191 5.502 52.8934 5.87033 52.8934 6.347C52.8934 6.815 53.0191 7.18767 53.2704 7.465C53.5218 7.73367 53.8381 7.868 54.2194 7.868C54.5921 7.868 54.9041 7.73367 55.1554 7.465C55.4154 7.19633 55.5454 6.82367 55.5454 6.347ZM62.0934 0.38V10H59.5454V0.38H62.0934ZM66.0924 0.38V10H63.5444V0.38H66.0924ZM74.5114 6.269C74.5114 6.46833 74.4984 6.66767 74.4724 6.867H69.6494C69.6754 7.26567 69.7838 7.56467 69.9744 7.764C70.1738 7.95467 70.4251 8.05 70.7284 8.05C71.1531 8.05 71.4564 7.85933 71.6384 7.478H74.3554C74.2428 7.98067 74.0218 8.43133 73.6924 8.83C73.3718 9.22 72.9644 9.52767 72.4704 9.753C71.9764 9.97833 71.4304 10.091 70.8324 10.091C70.1131 10.091 69.4718 9.93933 68.9084 9.636C68.3538 9.33267 67.9161 8.89933 67.5954 8.336C67.2834 7.77267 67.1274 7.10967 67.1274 6.347C67.1274 5.58433 67.2834 4.92567 67.5954 4.371C67.9074 3.80767 68.3408 3.37433 68.8954 3.071C69.4588 2.76767 70.1044 2.616 70.8324 2.616C71.5518 2.616 72.1888 2.76333 72.7434 3.058C73.2981 3.35267 73.7314 3.77733 74.0434 4.332C74.3554 4.878 74.5114 5.52367 74.5114 6.269ZM71.9114 5.632C71.9114 5.32 71.8074 5.07733 71.5994 4.904C71.3914 4.722 71.1314 4.631 70.8194 4.631C70.5074 4.631 70.2518 4.71767 70.0524 4.891C69.8531 5.05567 69.7231 5.30267 69.6624 5.632H71.9114ZM79.8572 7.829V10H78.7522C76.8888 10 75.9572 9.077 75.9572 7.231V4.826H75.0602V2.707H75.9572V0.939H78.5182V2.707H79.8442V4.826H78.5182V7.27C78.5182 7.46933 78.5615 7.61233 78.6482 7.699C78.7435 7.78567 78.8995 7.829 79.1162 7.829H79.8572Z" fill="#09BD71"/>
</svg>
