<svg width="74" height="74" viewBox="0 0 74 74" fill="none" xmlns="http://www.w3.org/2000/svg">
<path d="M9.25659 6C9.25659 2.68629 11.9429 0 15.2566 0H43.7273L64.7516 21.8636V68C64.7516 71.3137 62.0653 74 58.7516 74H15.2566C11.9429 74 9.25659 71.3137 9.25659 68V6Z" fill="black"/>
<path d="M43.7273 21.8636V0L64.75 21.8636H43.7273Z" fill="#A5A5A5"/>
<path d="M31.1115 49.7285C31.1115 51.0566 30.8641 52.1608 30.3693 53.041C29.8745 53.9212 29.1766 54.5827 28.2755 55.0254C27.3797 55.4629 26.325 55.6816 25.1115 55.6816H21.4161V44.2598H25.3693C26.5984 44.2598 27.6401 44.4707 28.4943 44.8926C29.3484 45.3145 29.9969 45.9316 30.4396 46.7441C30.8875 47.5566 31.1115 48.5514 31.1115 49.7285ZM27.9083 49.8379C27.9083 49.1452 27.8146 48.5723 27.6271 48.1191C27.4448 47.6608 27.1687 47.3197 26.799 47.0957C26.4292 46.8665 25.963 46.752 25.4005 46.752H24.5021V53.1504H25.1896C26.1271 53.1504 26.8146 52.8796 27.2521 52.3379C27.6896 51.791 27.9083 50.9577 27.9083 49.8379ZM43.5336 49.9551C43.5336 50.8353 43.4269 51.6374 43.2133 52.3613C43.005 53.0801 42.6769 53.6999 42.229 54.2207C41.781 54.7415 41.2055 55.1426 40.5024 55.4238C39.7993 55.6999 38.9581 55.8379 37.979 55.8379C37.0206 55.8379 36.1899 55.6999 35.4868 55.4238C34.7888 55.1426 34.2133 54.7441 33.7602 54.2285C33.3071 53.7077 32.9711 53.0853 32.7524 52.3613C32.5336 51.6374 32.4243 50.8301 32.4243 49.9395C32.4243 48.752 32.6196 47.7207 33.0102 46.8457C33.406 45.9655 34.0154 45.2858 34.8383 44.8066C35.6612 44.3223 36.7133 44.0801 37.9946 44.0801C39.2967 44.0801 40.354 44.3223 41.1665 44.8066C41.9842 45.291 42.5831 45.9733 42.9633 46.8535C43.3435 47.7337 43.5336 48.7676 43.5336 49.9551ZM35.6743 49.9551C35.6743 50.6426 35.7524 51.2337 35.9086 51.7285C36.0649 52.2233 36.3123 52.6035 36.6508 52.8691C36.9894 53.1348 37.4321 53.2676 37.979 53.2676C38.5467 53.2676 38.9972 53.1348 39.3305 52.8691C39.6691 52.6035 39.9112 52.2233 40.0571 51.7285C40.2081 51.2337 40.2836 50.6426 40.2836 49.9551C40.2836 48.9238 40.1118 48.1087 39.768 47.5098C39.4243 46.9108 38.8331 46.6113 37.9946 46.6113C37.4373 46.6113 36.9868 46.7467 36.643 47.0176C36.3045 47.2884 36.0571 47.6738 35.9008 48.1738C35.7498 48.6738 35.6743 49.2676 35.6743 49.9551ZM50.3621 46.627C49.9975 46.627 49.672 46.7051 49.3855 46.8613C49.0991 47.0124 48.8543 47.2337 48.6511 47.5254C48.448 47.8171 48.2918 48.1738 48.1824 48.5957C48.0782 49.0124 48.0261 49.4863 48.0261 50.0176C48.0261 50.7363 48.1173 51.3405 48.2996 51.8301C48.4819 52.3197 48.7579 52.6895 49.1277 52.9395C49.5027 53.1895 49.9715 53.3145 50.534 53.3145C51.0444 53.3145 51.534 53.2441 52.0027 53.1035C52.4767 52.9629 52.9532 52.7936 53.4324 52.5957V55.2051C52.9272 55.429 52.409 55.5905 51.8777 55.6895C51.3517 55.7884 50.7918 55.8379 50.198 55.8379C48.9584 55.8379 47.9428 55.5931 47.1511 55.1035C46.3647 54.6087 45.784 53.9238 45.409 53.0488C45.0392 52.1738 44.8543 51.1582 44.8543 50.002C44.8543 49.1374 44.9741 48.3457 45.2136 47.627C45.4584 46.9082 45.8152 46.2858 46.284 45.7598C46.7527 45.2285 47.3308 44.8197 48.0183 44.5332C48.711 44.2415 49.5027 44.0957 50.3933 44.0957C50.9454 44.0957 51.5261 44.1608 52.1355 44.291C52.7501 44.416 53.3491 44.6191 53.9324 44.9004L52.9871 47.3301C52.5704 47.1322 52.1485 46.9655 51.7215 46.8301C51.2944 46.6947 50.8412 46.627 50.3621 46.627Z" fill="white"/>
</svg>
