<svg width="23" height="21" viewBox="0 0 23 21" fill="none" xmlns="http://www.w3.org/2000/svg">
<path fill-rule="evenodd" clip-rule="evenodd" d="M22.5208 18.1666C22.5208 19.49 21.4485 20.5624 20.125 20.5624H2.875C1.55154 20.5624 0.479164 19.49 0.479164 18.1666V4.27072C0.479164 3.21224 1.33735 2.35405 2.39583 2.35405H12.0611L15.9419 0.948179C16.1877 0.858575 16.4599 0.985554 16.5495 1.23041L16.9582 2.35405H18.6875C19.746 2.35405 20.6042 3.21224 20.6042 4.27072V5.22905C21.6626 5.22905 22.5208 6.08724 22.5208 7.14572V18.1666ZM2.39583 3.31239C1.86683 3.31239 1.4375 3.74172 1.4375 4.27072C1.4375 4.79972 1.86683 5.22905 2.39583 5.22905H4.04656H4.13712C4.14335 5.22666 4.14719 5.22139 4.15341 5.21899L9.41562 3.31239H2.39583ZM16.329 3.39912L15.8202 1.99803L14.8369 2.35405H14.8384L12.1962 3.31239H12.1914L6.90191 5.22905H16.9941L16.329 3.39912ZM19.6458 4.27072C19.6458 3.74172 19.2165 3.31239 18.6875 3.31239H17.3061L18.0028 5.22905H19.6458V4.27072ZM20.6042 6.18739H2.39583C2.04508 6.18739 1.72021 6.08628 1.4375 5.92145V18.1666C1.4375 18.9605 2.0815 19.6041 2.875 19.6041H20.125C20.919 19.6041 21.5625 18.9605 21.5625 18.1666V14.8124H19.6458C18.5874 14.8124 17.7292 13.9542 17.7292 12.8957C17.7292 11.8372 18.5874 10.9791 19.6458 10.9791H21.5625V7.14572C21.5625 6.61672 21.1332 6.18739 20.6042 6.18739ZM21.5625 13.8541V11.9374H19.6458C19.1168 11.9374 18.6875 12.3667 18.6875 12.8957C18.6875 13.4247 19.1168 13.8541 19.6458 13.8541H21.5625ZM19.6458 12.4166H20.6042V13.3749H19.6458V12.4166Z" fill="black"/>
</svg>
