<svg width="143" height="36" viewBox="0 0 143 36" fill="none" xmlns="http://www.w3.org/2000/svg">
<path d="M8.59126 15.598C8.59126 16.41 8.31126 17.0867 7.75126 17.628C7.20059 18.16 6.35592 18.426 5.21726 18.426H3.34126V22.5H2.06726V12.742H5.21726C6.31859 12.742 7.15392 13.008 7.72326 13.54C8.30193 14.072 8.59126 14.758 8.59126 15.598ZM5.21726 17.376C5.92659 17.376 6.44926 17.222 6.78526 16.914C7.12126 16.606 7.28926 16.1673 7.28926 15.598C7.28926 14.394 6.59859 13.792 5.21726 13.792H3.34126V17.376H5.21726ZM13.5207 22.626C12.802 22.626 12.1487 22.4627 11.5607 22.136C10.982 21.8093 10.5247 21.3473 10.1887 20.75C9.86201 20.1433 9.69868 19.4433 9.69868 18.65C9.69868 17.866 9.86668 17.1753 10.2027 16.578C10.548 15.9713 11.0147 15.5093 11.6027 15.192C12.1907 14.8653 12.8487 14.702 13.5767 14.702C14.3047 14.702 14.9627 14.8653 15.5507 15.192C16.1387 15.5093 16.6007 15.9667 16.9367 16.564C17.282 17.1613 17.4547 17.8567 17.4547 18.65C17.4547 19.4433 17.2773 20.1433 16.9227 20.75C16.5773 21.3473 16.106 21.8093 15.5087 22.136C14.9113 22.4627 14.2487 22.626 13.5207 22.626ZM13.5207 21.506C13.978 21.506 14.4073 21.3987 14.8087 21.184C15.21 20.9693 15.532 20.6473 15.7747 20.218C16.0267 19.7887 16.1527 19.266 16.1527 18.65C16.1527 18.034 16.0313 17.5113 15.7887 17.082C15.546 16.6527 15.2287 16.3353 14.8367 16.13C14.4447 15.9153 14.02 15.808 13.5627 15.808C13.096 15.808 12.6667 15.9153 12.2747 16.13C11.892 16.3353 11.584 16.6527 11.3507 17.082C11.1173 17.5113 11.0007 18.034 11.0007 18.65C11.0007 19.2753 11.1127 19.8027 11.3367 20.232C11.57 20.6613 11.878 20.9833 12.2607 21.198C12.6433 21.4033 13.0633 21.506 13.5207 21.506ZM29.3498 14.828L26.9558 22.5H25.6398L23.7918 16.41L21.9438 22.5H20.6278L18.2198 14.828H19.5218L21.2858 21.268L23.1898 14.828H24.4918L26.3538 21.282L28.0898 14.828H29.3498ZM37.6141 18.37C37.6141 18.6127 37.6001 18.8693 37.5721 19.14H31.4401C31.4868 19.896 31.7435 20.4887 32.2101 20.918C32.6861 21.338 33.2601 21.548 33.9321 21.548C34.4828 21.548 34.9401 21.422 35.3041 21.17C35.6775 20.9087 35.9388 20.5633 36.0881 20.134H37.4601C37.2548 20.8713 36.8441 21.4733 36.2281 21.94C35.6121 22.3973 34.8468 22.626 33.9321 22.626C33.2041 22.626 32.5508 22.4627 31.9721 22.136C31.4028 21.8093 30.9548 21.3473 30.6281 20.75C30.3015 20.1433 30.1381 19.4433 30.1381 18.65C30.1381 17.8567 30.2968 17.1613 30.6141 16.564C30.9315 15.9667 31.3748 15.5093 31.9441 15.192C32.5228 14.8653 33.1855 14.702 33.9321 14.702C34.6601 14.702 35.3041 14.8607 35.8641 15.178C36.4241 15.4953 36.8535 15.934 37.1521 16.494C37.4601 17.0447 37.6141 17.67 37.6141 18.37ZM36.2981 18.104C36.2981 17.6187 36.1908 17.2033 35.9761 16.858C35.7615 16.5033 35.4675 16.2373 35.0941 16.06C34.7301 15.8733 34.3241 15.78 33.8761 15.78C33.2321 15.78 32.6815 15.9853 32.2241 16.396C31.7761 16.8067 31.5195 17.376 31.4541 18.104H36.2981ZM40.5698 16.074C40.7938 15.6353 41.1111 15.2947 41.5218 15.052C41.9418 14.8093 42.4504 14.688 43.0478 14.688V16.004H42.7118C41.2838 16.004 40.5698 16.7787 40.5698 18.328V22.5H39.2958V14.828H40.5698V16.074ZM51.5184 18.37C51.5184 18.6127 51.5044 18.8693 51.4764 19.14H45.3444C45.3911 19.896 45.6478 20.4887 46.1144 20.918C46.5904 21.338 47.1644 21.548 47.8364 21.548C48.3871 21.548 48.8444 21.422 49.2084 21.17C49.5818 20.9087 49.8431 20.5633 49.9924 20.134H51.3644C51.1591 20.8713 50.7484 21.4733 50.1324 21.94C49.5164 22.3973 48.7511 22.626 47.8364 22.626C47.1084 22.626 46.4551 22.4627 45.8764 22.136C45.3071 21.8093 44.8591 21.3473 44.5324 20.75C44.2058 20.1433 44.0424 19.4433 44.0424 18.65C44.0424 17.8567 44.2011 17.1613 44.5184 16.564C44.8358 15.9667 45.2791 15.5093 45.8484 15.192C46.4271 14.8653 47.0898 14.702 47.8364 14.702C48.5644 14.702 49.2084 14.8607 49.7684 15.178C50.3284 15.4953 50.7578 15.934 51.0564 16.494C51.3644 17.0447 51.5184 17.67 51.5184 18.37ZM50.2024 18.104C50.2024 17.6187 50.0951 17.2033 49.8804 16.858C49.6658 16.5033 49.3718 16.2373 48.9984 16.06C48.6344 15.8733 48.2284 15.78 47.7804 15.78C47.1364 15.78 46.5858 15.9853 46.1284 16.396C45.6804 16.8067 45.4238 17.376 45.3584 18.104H50.2024ZM52.7241 18.636C52.7241 17.852 52.8827 17.166 53.2001 16.578C53.5174 15.9807 53.9514 15.5187 54.5021 15.192C55.0621 14.8653 55.6874 14.702 56.3781 14.702C56.9754 14.702 57.5307 14.842 58.0441 15.122C58.5574 15.3927 58.9494 15.752 59.2201 16.2V12.14H60.5081V22.5H59.2201V21.058C58.9681 21.5153 58.5947 21.8933 58.1001 22.192C57.6054 22.4813 57.0267 22.626 56.3641 22.626C55.6827 22.626 55.0621 22.458 54.5021 22.122C53.9514 21.786 53.5174 21.3147 53.2001 20.708C52.8827 20.1013 52.7241 19.4107 52.7241 18.636ZM59.2201 18.65C59.2201 18.0713 59.1034 17.5673 58.8701 17.138C58.6367 16.7087 58.3194 16.382 57.9181 16.158C57.5261 15.9247 57.0921 15.808 56.6161 15.808C56.1401 15.808 55.7061 15.92 55.3141 16.144C54.9221 16.368 54.6094 16.6947 54.3761 17.124C54.1427 17.5533 54.0261 18.0573 54.0261 18.636C54.0261 19.224 54.1427 19.7373 54.3761 20.176C54.6094 20.6053 54.9221 20.9367 55.3141 21.17C55.7061 21.394 56.1401 21.506 56.6161 21.506C57.0921 21.506 57.5261 21.394 57.9181 21.17C58.3194 20.9367 58.6367 20.6053 58.8701 20.176C59.1034 19.7373 59.2201 19.2287 59.2201 18.65ZM67.6674 16.256C67.9288 15.7987 68.3114 15.4253 68.8154 15.136C69.3194 14.8467 69.8934 14.702 70.5374 14.702C71.2281 14.702 71.8488 14.8653 72.3994 15.192C72.9501 15.5187 73.3841 15.9807 73.7014 16.578C74.0188 17.166 74.1774 17.852 74.1774 18.636C74.1774 19.4107 74.0188 20.1013 73.7014 20.708C73.3841 21.3147 72.9454 21.786 72.3854 22.122C71.8348 22.458 71.2188 22.626 70.5374 22.626C69.8748 22.626 69.2914 22.4813 68.7874 22.192C68.2928 21.9027 67.9194 21.534 67.6674 21.086V22.5H66.3934V12.14H67.6674V16.256ZM72.8754 18.636C72.8754 18.0573 72.7588 17.5533 72.5254 17.124C72.2921 16.6947 71.9748 16.368 71.5734 16.144C71.1814 15.92 70.7474 15.808 70.2714 15.808C69.8048 15.808 69.3708 15.9247 68.9694 16.158C68.5774 16.382 68.2601 16.7133 68.0174 17.152C67.7841 17.5813 67.6674 18.0807 67.6674 18.65C67.6674 19.2287 67.7841 19.7373 68.0174 20.176C68.2601 20.6053 68.5774 20.9367 68.9694 21.17C69.3708 21.394 69.8048 21.506 70.2714 21.506C70.7474 21.506 71.1814 21.394 71.5734 21.17C71.9748 20.9367 72.2921 20.6053 72.5254 20.176C72.7588 19.7373 72.8754 19.224 72.8754 18.636ZM82.4624 14.828L77.8424 26.112H76.5264L78.0384 22.416L74.9444 14.828H76.3584L78.7664 21.044L81.1464 14.828H82.4624Z" fill="black"/>
<path d="M123.21 35.9859H102.277C100.425 35.9859 98.916 34.4755 98.916 32.6151V3.3708C98.916 1.51385 100.422 0 102.277 0H134.499C135.229 0 135.913 0.2865 136.424 0.802908C136.939 1.31932 137.221 2.00904 137.218 2.74121L137.186 9.86481C137.179 11.1417 138.212 12.1922 139.485 12.2063C140.967 12.224 142.173 13.4478 142.173 14.9334V25.7355C142.173 26.4641 141.887 27.1503 141.372 27.6667C140.857 28.1831 140.177 28.4661 139.443 28.4626L130.115 28.4272C129.16 28.4272 128.278 28.7915 127.608 29.46C126.938 30.1285 126.568 31.0234 126.568 31.9713V32.6186C126.568 34.4755 125.062 35.9894 123.207 35.9894L123.21 35.9859ZM102.273 0.396149C100.637 0.396149 99.3075 1.72961 99.3075 3.3708V32.6186C99.3075 34.2598 100.637 35.5932 102.273 35.5932H123.207C124.843 35.5932 126.173 34.2598 126.173 32.6186V31.9713C126.173 30.9173 126.582 29.9234 127.329 29.1806C128.074 28.4343 129.068 28.0346 130.115 28.0311L139.443 28.0664C140.074 28.0806 140.649 27.8259 141.094 27.3873C141.534 26.9452 141.778 26.3616 141.778 25.7355V14.9334C141.778 13.6636 140.748 12.6166 139.478 12.6025C137.99 12.5848 136.784 11.3574 136.791 9.86127L136.823 2.73767C136.823 2.11161 136.587 1.52446 136.146 1.08233C135.705 0.640204 135.123 0.396149 134.499 0.396149H102.273Z" fill="#241F20"/>
<path d="M102.273 0.396149C100.637 0.396149 99.3075 1.72961 99.3075 3.3708V32.6186C99.3075 34.2598 100.637 35.5932 102.273 35.5932H123.207C124.843 35.5932 126.173 34.2598 126.173 32.6186V31.9713C126.173 30.9173 126.582 29.9234 127.329 29.1806C128.074 28.4343 129.068 28.0346 130.115 28.0311L139.443 28.0664C140.074 28.0806 140.649 27.8259 141.094 27.3873C141.534 26.9452 141.778 26.3616 141.778 25.7355V14.9334C141.778 13.6636 140.748 12.6166 139.478 12.6025C137.99 12.5848 136.784 11.3574 136.791 9.86127L136.823 2.73767C136.823 2.11161 136.587 1.52446 136.146 1.08233C135.705 0.640204 135.123 0.396149 134.499 0.396149H102.273Z" fill="white"/>
<path d="M102.792 11.2196V3.99341H105.497C106.28 3.99341 106.957 4.13843 107.525 4.42493C108.092 4.71496 108.53 5.1288 108.836 5.66997C109.143 6.21113 109.295 6.85487 109.295 7.60473C109.295 8.35458 109.14 8.99125 108.833 9.53241C108.526 10.0736 108.085 10.491 107.518 10.781C106.95 11.071 106.276 11.2196 105.497 11.2196H102.792ZM104.03 10.1655H105.497C106.315 10.1655 106.946 9.93564 107.387 9.47936C107.828 9.02308 108.05 8.39702 108.05 7.60473C108.05 6.81243 107.831 6.18284 107.391 5.72656C106.953 5.27028 106.319 5.04391 105.497 5.04391H104.03V10.1655Z" fill="#241F20"/>
<path d="M110.998 5.2244C110.808 5.2244 110.646 5.1572 110.508 5.02279C110.371 4.88839 110.304 4.72568 110.304 4.52761C110.304 4.32953 110.371 4.1739 110.505 4.03596C110.639 3.89801 110.804 3.83081 110.998 3.83081C111.192 3.83081 111.351 3.89801 111.489 4.03242C111.626 4.16683 111.693 4.32953 111.693 4.52761C111.693 4.72568 111.626 4.88131 111.492 5.01926C111.358 5.1572 111.196 5.2244 110.998 5.2244ZM110.395 11.2197V5.86815H111.605V11.2197H110.395Z" fill="#241F20"/>
<path d="M115.276 13.4656C114.51 13.4656 113.89 13.3065 113.407 12.9917C112.927 12.6769 112.641 12.2383 112.553 11.6794H113.833C113.989 12.21 114.458 12.4717 115.248 12.4717C115.762 12.4717 116.157 12.3515 116.429 12.1109C116.7 11.8704 116.838 11.5273 116.838 11.0817V10.2788H116.792C116.644 10.5829 116.422 10.8129 116.126 10.9756C115.829 11.1347 115.477 11.2161 115.068 11.2161C114.563 11.2161 114.126 11.1029 113.756 10.8801C113.385 10.6572 113.096 10.3424 112.892 9.93567C112.687 9.52891 112.585 9.04433 112.585 8.48548C112.585 7.6472 112.811 6.98224 113.266 6.49059C113.721 5.99894 114.345 5.75488 115.138 5.75488C115.575 5.75488 115.953 5.83623 116.263 5.99894C116.573 6.16164 116.82 6.39862 117.007 6.70988H117.381V5.86099H118.637V7.08481H118.023V11.11C118.023 11.8598 117.783 12.4399 117.307 12.8502C116.831 13.2605 116.154 13.4656 115.276 13.4656ZM115.364 10.1656C115.808 10.1656 116.161 10.0382 116.422 9.78711C116.683 9.53598 116.813 9.19289 116.813 8.7649V8.20252C116.813 7.78161 116.683 7.44205 116.418 7.19092C116.154 6.93979 115.801 6.81246 115.364 6.81246C114.87 6.81246 114.489 6.96101 114.211 7.25459C113.936 7.54816 113.798 7.962 113.798 8.48902C113.798 9.01603 113.936 9.43694 114.211 9.73052C114.486 10.0206 114.87 10.1691 115.364 10.1691V10.1656Z" fill="#241F20"/>
<path d="M120.167 5.2244C119.977 5.2244 119.815 5.1572 119.677 5.02279C119.54 4.88839 119.473 4.72568 119.473 4.52761C119.473 4.32953 119.54 4.1739 119.674 4.03596C119.808 3.89801 119.973 3.83081 120.167 3.83081C120.361 3.83081 120.52 3.89801 120.658 4.03242C120.795 4.16683 120.862 4.32953 120.862 4.52761C120.862 4.72568 120.795 4.88131 120.661 5.01926C120.527 5.1572 120.365 5.2244 120.167 5.2244ZM119.561 11.2197V5.86815H120.77V11.2197H119.561Z" fill="#241F20"/>
<path d="M123.503 11.2197C123.175 11.2197 122.925 11.1348 122.742 10.9686C122.562 10.8023 122.47 10.5477 122.47 10.2116V6.81254H121.511V5.86815H122.481V4.26233H123.673V5.86815H124.998V6.81254H123.683V10.2647H125.133V11.2197H123.503Z" fill="#241F20"/>
<path d="M127.661 11.3151C127.051 11.3151 126.568 11.163 126.215 10.8588C125.862 10.5546 125.686 10.1585 125.686 9.66331C125.686 9.16812 125.862 8.74368 126.219 8.45718C126.575 8.17068 127.083 8.0292 127.749 8.0292H129.438V7.80636C129.438 7.09188 129.036 6.73464 128.229 6.73464C127.548 6.73464 127.139 6.98223 127.001 7.47388H125.792C125.894 6.9221 126.155 6.49412 126.578 6.19701C127.001 5.8999 127.555 5.75134 128.236 5.75134C129.001 5.75134 129.586 5.92819 129.988 6.2819C130.39 6.6356 130.591 7.14847 130.591 7.82051V9.98872H131.17V11.2125H129.914V10.3636H129.541C129.357 10.6608 129.107 10.8942 128.793 11.0604C128.479 11.2267 128.098 11.3116 127.654 11.3116L127.661 11.3151ZM127.837 10.3707C128.141 10.3707 128.412 10.3106 128.655 10.1939C128.899 10.0736 129.089 9.91444 129.23 9.71637C129.371 9.51829 129.438 9.29546 129.438 9.0514V8.88162H127.809C127.157 8.88162 126.832 9.12568 126.832 9.61379C126.832 9.85077 126.92 10.0382 127.1 10.1726C127.277 10.3071 127.523 10.3743 127.837 10.3743V10.3707Z" fill="#241F20"/>
<path d="M132.129 11.2196V3.72461H133.339V11.2196H132.129Z" fill="#241F20"/>
<path d="M107.916 21.9227H102.792V14.6965H107.916V15.7683H104.03V17.65H107.669V18.704H104.03V20.8545H107.916V21.9262V21.9227Z" fill="#241F20"/>
<path d="M109.15 21.9227V17.7915H108.537V16.5677H109.799V17.4166H110.173C110.363 17.1124 110.617 16.8789 110.935 16.7162C111.252 16.5535 111.636 16.4722 112.088 16.4722C112.8 16.4722 113.354 16.6738 113.756 17.0735C114.154 17.4767 114.355 18.0108 114.355 18.6828V21.9227H113.146V18.8986C113.146 18.46 113.029 18.124 112.793 17.8905C112.56 17.6571 112.215 17.5439 111.756 17.5439C111.298 17.5439 110.952 17.6606 110.716 17.8905C110.48 18.124 110.36 18.46 110.36 18.8986V21.9227H109.15Z" fill="#241F20"/>
<path d="M118.059 22.0324C117.494 22.0324 117.004 21.9192 116.588 21.6893C116.168 21.4594 115.847 21.134 115.622 20.7131C115.396 20.2922 115.283 19.797 115.283 19.2311C115.283 18.6651 115.396 18.177 115.618 17.7632C115.84 17.3493 116.158 17.031 116.567 16.8046C116.976 16.5783 117.459 16.4651 118.016 16.4651C118.573 16.4651 119.011 16.5712 119.395 16.7834C119.78 16.9956 120.079 17.2963 120.287 17.6854C120.499 18.0744 120.605 18.5378 120.605 19.0719V19.5176H116.443C116.489 20.0057 116.655 20.3806 116.934 20.6459C117.212 20.9111 117.586 21.042 118.055 21.042C118.401 21.042 118.679 20.9784 118.901 20.8475C119.12 20.7166 119.272 20.5221 119.356 20.2603H120.584C120.453 20.8192 120.167 21.2542 119.727 21.569C119.286 21.8803 118.732 22.0359 118.069 22.0359L118.059 22.0324ZM116.475 18.6687H119.445C119.399 18.2761 119.247 17.9754 119 17.7632C118.75 17.551 118.422 17.4448 118.013 17.4448C117.604 17.4448 117.265 17.551 116.997 17.7632C116.729 17.9754 116.556 18.2761 116.472 18.6687H116.475Z" fill="#241F20"/>
<path d="M121.846 21.9228V17.7915H121.232V16.5677H122.495V17.5934H122.869C123.01 17.2433 123.239 16.9745 123.549 16.7905C123.86 16.6066 124.219 16.5146 124.621 16.5146H125.066V17.5581H124.569C124.064 17.5581 123.683 17.7031 123.426 17.9967C123.168 18.2867 123.038 18.6793 123.038 19.1639V21.9192H121.846V21.9228Z" fill="#241F20"/>
<path d="M128.208 24.1723C127.443 24.1723 126.822 24.0131 126.339 23.6983C125.859 23.3835 125.574 22.9449 125.485 22.3861H126.765C126.921 22.9166 127.39 23.1784 128.18 23.1784C128.695 23.1784 129.089 23.0581 129.361 22.8176C129.633 22.5771 129.77 22.234 129.77 21.7883V20.9854H129.724C129.576 21.2896 129.354 21.5195 129.058 21.6822C128.762 21.8414 128.409 21.9227 128 21.9227C127.495 21.9227 127.058 21.8096 126.688 21.5867C126.318 21.3639 126.028 21.0491 125.824 20.6423C125.619 20.2356 125.517 19.751 125.517 19.1921C125.517 18.3539 125.743 17.6889 126.198 17.1973C126.653 16.7056 127.277 16.4615 128.07 16.4615C128.508 16.4615 128.885 16.5429 129.195 16.7056C129.506 16.8683 129.752 17.1053 129.939 17.4165H130.313V16.5677H131.569V17.7915H130.955V21.8166C130.955 22.5665 130.715 23.1466 130.239 23.5569C129.763 23.9671 129.086 24.1723 128.208 24.1723ZM128.3 20.8722C128.744 20.8722 129.097 20.7449 129.358 20.4938C129.618 20.2426 129.749 19.8996 129.749 19.4716V18.9092C129.749 18.4883 129.618 18.1487 129.354 17.8976C129.089 17.6465 128.737 17.5191 128.3 17.5191C127.806 17.5191 127.425 17.6677 127.146 17.9613C126.871 18.2548 126.734 18.6687 126.734 19.1957C126.734 19.7227 126.871 20.1436 127.146 20.4372C127.421 20.7272 127.806 20.8758 128.3 20.8758V20.8722Z" fill="#241F20"/>
<path d="M132.715 24.0662V23.0935H133.953L134.443 21.9156L132.094 16.5712H133.357L135.039 20.4973H135.085L136.703 16.5712H137.913L135.635 21.9227L135.145 23.0829C135.014 23.3906 134.873 23.6346 134.722 23.8044C134.57 23.9777 134.323 24.0626 133.977 24.0626H132.715V24.0662Z" fill="#241F20"/>
<path d="M105.924 32.7355C105.229 32.7355 104.619 32.5799 104.09 32.2722C103.561 31.9644 103.148 31.5294 102.852 30.9705C102.556 30.4117 102.408 29.7609 102.408 29.0181C102.408 28.2753 102.563 27.6245 102.87 27.0656C103.177 26.5068 103.607 26.0717 104.16 25.764C104.711 25.4563 105.356 25.3007 106.089 25.3007C106.664 25.3007 107.176 25.3962 107.62 25.5907C108.064 25.7852 108.428 26.0611 108.71 26.4219C108.992 26.7827 109.175 27.2177 109.256 27.7306H107.966C107.888 27.3026 107.687 26.9737 107.363 26.7402C107.038 26.5068 106.611 26.3936 106.089 26.3936C105.596 26.3936 105.169 26.4997 104.806 26.7155C104.443 26.9312 104.157 27.2354 103.956 27.6351C103.755 28.0348 103.653 28.5017 103.653 29.0358C103.653 29.5699 103.755 30.0474 103.959 30.4506C104.164 30.8538 104.446 31.1651 104.809 31.3879C105.173 31.6107 105.592 31.7239 106.072 31.7239C106.446 31.7239 106.781 31.6603 107.077 31.5329C107.373 31.4056 107.609 31.2323 107.786 31.0094C107.962 30.7901 108.047 30.539 108.047 30.2596V29.8847H105.948V28.9049H108.251C108.576 28.9049 108.826 28.9863 108.999 29.149C109.172 29.3117 109.256 29.5486 109.256 29.8599V32.6436H108.1V31.6886H108.054C107.895 32.021 107.627 32.2828 107.25 32.4702C106.872 32.6577 106.432 32.7497 105.92 32.7497L105.924 32.7355Z" fill="#241F20"/>
<path d="M110.811 32.6293V28.4981H110.198V27.2742H111.46V28.3H111.834C111.975 27.9498 112.204 27.681 112.515 27.4971C112.825 27.3132 113.185 27.2212 113.587 27.2212H114.031V28.2646H113.534C113.03 28.2646 112.649 28.4096 112.391 28.7032C112.134 28.9932 112.003 29.3859 112.003 29.8704V32.6258H110.811V32.6293Z" fill="#241F20"/>
<path d="M115.403 26.6341C115.212 26.6341 115.05 26.5669 114.913 26.4325C114.775 26.2981 114.708 26.1354 114.708 25.9373C114.708 25.7392 114.775 25.5836 114.909 25.4456C115.043 25.3077 115.209 25.2405 115.403 25.2405C115.597 25.2405 115.755 25.3077 115.893 25.4421C116.03 25.5765 116.097 25.7392 116.097 25.9373C116.097 26.1354 116.03 26.291 115.896 26.4289C115.762 26.5669 115.6 26.6341 115.403 26.6341ZM114.796 32.6294V27.2778H116.006V32.6294H114.796Z" fill="#241F20"/>
<path d="M119.536 32.7355C118.997 32.7355 118.538 32.6223 118.157 32.3924C117.776 32.1625 117.491 31.8406 117.293 31.4233C117.096 31.0059 117 30.5178 117 29.9518C117 29.3859 117.096 28.8943 117.29 28.4769C117.484 28.056 117.762 27.7341 118.125 27.5078C118.489 27.2814 118.926 27.1682 119.43 27.1682C119.846 27.1682 120.203 27.246 120.499 27.4052C120.795 27.5643 121.024 27.7872 121.183 28.0772H121.218V25.1344H122.428V31.4056H123.031V32.6294H121.775V31.7805H121.402C121.218 32.0882 120.971 32.3252 120.658 32.4914C120.344 32.6577 119.97 32.7355 119.533 32.7355H119.536ZM119.741 31.6921C120.192 31.6921 120.548 31.5647 120.816 31.3101C121.084 31.0554 121.218 30.7088 121.218 30.2737V29.63C121.218 29.1949 121.084 28.8518 120.816 28.5936C120.548 28.339 120.192 28.2116 119.741 28.2116C119.247 28.2116 118.87 28.3673 118.605 28.675C118.341 28.9827 118.21 29.4107 118.21 29.9518C118.21 30.493 118.341 30.9175 118.605 31.2287C118.87 31.5364 119.247 31.6921 119.741 31.6921Z" fill="#241F20"/>
<path d="M107.835 35.6285H96.6206V35.9822H107.835V35.6285Z" fill="#241F20"/>
<path d="M96.6203 35.9823H90.2196C89.3168 35.9823 88.4705 35.6286 87.8322 34.9919C87.1939 34.3553 86.8447 33.5028 86.8447 32.5974C86.8447 30.7298 88.3576 29.2124 90.2196 29.2124C92.0817 29.2124 93.5981 30.7298 93.5981 32.5974C93.5981 34.2704 94.9558 35.6286 96.6203 35.6286V35.9823ZM90.2196 29.5661C88.5516 29.5661 87.1974 30.9279 87.1974 32.5974C87.1974 33.4073 87.5112 34.1678 88.0825 34.7408C88.6538 35.3138 89.4121 35.6286 90.2196 35.6286H95.118C94.0071 35.0733 93.2454 33.9237 93.2454 32.5974C93.2454 30.9243 91.8877 29.5661 90.2196 29.5661Z" fill="#241F20"/>
<mask id="mask0_2934_40075" style="mask-type:luminance" maskUnits="userSpaceOnUse" x="87" y="29" width="7" height="7">
<path d="M90.202 35.8232C91.9685 35.8232 93.4006 34.3869 93.4006 32.6151C93.4006 30.8433 91.9685 29.407 90.202 29.407C88.4355 29.407 87.0034 30.8433 87.0034 32.6151C87.0034 34.3869 88.4355 35.8232 90.202 35.8232Z" fill="white"/>
</mask>
<g mask="url(#mask0_2934_40075)">
<path d="M92.7975 29.1169H92.4448V36.1592H92.7975V29.1169Z" fill="#241F20"/>
<path d="M91.9972 29.1169H91.6445V36.1592H91.9972V29.1169Z" fill="#241F20"/>
<path d="M91.1969 29.1169H90.8442V36.1592H91.1969V29.1169Z" fill="#241F20"/>
<path d="M90.3961 29.1169H90.0435V36.1592H90.3961V29.1169Z" fill="#241F20"/>
<path d="M88.795 29.1169H88.4424V36.1592H88.795V29.1169Z" fill="#241F20"/>
<path d="M87.9943 29.1169H87.6416V36.1592H87.9943V29.1169Z" fill="#241F20"/>
<path d="M89.5958 29.1169H89.2432V36.1592H89.5958V29.1169Z" fill="#241F20"/>
</g>
<path d="M90.2021 36C88.34 36 86.8271 34.4826 86.8271 32.6151C86.8271 30.7475 88.34 29.2301 90.2021 29.2301C92.0641 29.2301 93.577 30.7475 93.577 32.6151C93.577 34.4826 92.0641 36 90.2021 36ZM90.2021 29.5838C88.534 29.5838 87.1798 30.9456 87.1798 32.6151C87.1798 34.2845 88.5375 35.6463 90.2021 35.6463C91.8666 35.6463 93.2243 34.2845 93.2243 32.6151C93.2243 30.9456 91.8666 29.5838 90.2021 29.5838Z" fill="#241F20"/>
</svg>
