<svg width="30" height="30" viewBox="0 0 30 30" fill="none" xmlns="http://www.w3.org/2000/svg">
<circle cx="15" cy="15" r="15" fill="#09BD71"/>
<path d="M15.0006 15.4731C10.0971 15.4731 7.50111 17.9661 7.50111 22.7254C7.48051 23.055 7.74835 23.3228 8.07799 23.3434C8.0986 23.3434 8.0986 23.3434 8.1192 23.3434H21.8819C22.2116 23.364 22.4794 23.0962 22.5 22.7666C22.5 22.746 22.5 22.746 22.5 22.7254C22.5 17.9661 19.904 15.4731 15.0006 15.4731Z" fill="white"/>
<path d="M15.0013 14.6696C17.1646 14.6696 18.9159 12.7741 18.9159 10.4254C18.9159 8.0767 17.2264 6.42847 15.0013 6.42847C12.7762 6.42847 11.0868 8.1385 11.0868 10.4254C11.0868 12.7741 12.838 14.6696 15.0013 14.6696Z" fill="white"/>
</svg>
