<svg width="44" height="11" viewBox="0 0 44 11" fill="none" xmlns="http://www.w3.org/2000/svg">
<path d="M13.637 0.834999L11.388 10H8.255L6.994 4.384L5.707 10H2.574L0.351 0.834999H3.107L4.173 7.101L5.616 0.834999H8.411L9.815 7.049L10.881 0.834999H13.637ZM14.3022 6.347C14.3022 5.593 14.4366 4.93433 14.7052 4.371C14.9826 3.80767 15.3552 3.37433 15.8232 3.071C16.2999 2.76767 16.8286 2.616 17.4092 2.616C17.9119 2.616 18.3452 2.71567 18.7092 2.915C19.0732 3.11433 19.3549 3.383 19.5542 3.721V2.707H22.1022V10H19.5542V8.986C19.3549 9.324 19.0689 9.59267 18.6962 9.792C18.3322 9.99133 17.9032 10.091 17.4092 10.091C16.8286 10.091 16.2999 9.93933 15.8232 9.636C15.3552 9.33267 14.9826 8.89933 14.7052 8.336C14.4366 7.764 14.3022 7.101 14.3022 6.347ZM19.5542 6.347C19.5542 5.879 19.4242 5.51067 19.1642 5.242C18.9129 4.97333 18.6009 4.839 18.2282 4.839C17.8469 4.839 17.5306 4.97333 17.2792 5.242C17.0279 5.502 16.9022 5.87033 16.9022 6.347C16.9022 6.815 17.0279 7.18767 17.2792 7.465C17.5306 7.73367 17.8469 7.868 18.2282 7.868C18.6009 7.868 18.9129 7.73367 19.1642 7.465C19.4242 7.19633 19.5542 6.82367 19.5542 6.347ZM26.1022 0.38V10H23.5542V0.38H26.1022ZM30.1012 0.38V10H27.5532V0.38H30.1012ZM38.5202 6.269C38.5202 6.46833 38.5072 6.66767 38.4812 6.867H33.6582C33.6842 7.26567 33.7926 7.56467 33.9832 7.764C34.1826 7.95467 34.4339 8.05 34.7372 8.05C35.1619 8.05 35.4652 7.85933 35.6472 7.478H38.3642C38.2516 7.98067 38.0306 8.43133 37.7012 8.83C37.3806 9.22 36.9732 9.52767 36.4792 9.753C35.9852 9.97833 35.4392 10.091 34.8412 10.091C34.1219 10.091 33.4806 9.93933 32.9172 9.636C32.3626 9.33267 31.9249 8.89933 31.6042 8.336C31.2922 7.77267 31.1362 7.10967 31.1362 6.347C31.1362 5.58433 31.2922 4.92567 31.6042 4.371C31.9162 3.80767 32.3496 3.37433 32.9042 3.071C33.4676 2.76767 34.1132 2.616 34.8412 2.616C35.5606 2.616 36.1976 2.76333 36.7522 3.058C37.3069 3.35267 37.7402 3.77733 38.0522 4.332C38.3642 4.878 38.5202 5.52367 38.5202 6.269ZM35.9202 5.632C35.9202 5.32 35.8162 5.07733 35.6082 4.904C35.4002 4.722 35.1402 4.631 34.8282 4.631C34.5162 4.631 34.2606 4.71767 34.0612 4.891C33.8619 5.05567 33.7319 5.30267 33.6712 5.632H35.9202ZM43.866 7.829V10H42.761C40.8976 10 39.966 9.077 39.966 7.231V4.826H39.069V2.707H39.966V0.939H42.527V2.707H43.853V4.826H42.527V7.27C42.527 7.46933 42.5703 7.61233 42.657 7.699C42.7523 7.78567 42.9083 7.829 43.125 7.829H43.866Z" fill="#09BD71"/>
</svg>
