<svg width="324" height="44" viewBox="0 0 324 44" fill="none" xmlns="http://www.w3.org/2000/svg">
<path d="M18.92 36L10.08 23.64V36H2.24V7.8H10.08V19.96L18.84 7.8H27.88L17.52 21.48L28.4 36H18.92ZM53.0234 13.56V36H45.1434V32.8C44.4768 33.8133 43.5568 34.64 42.3834 35.28C41.2101 35.8933 39.8634 36.2 38.3434 36.2C35.7301 36.2 33.6634 35.3467 32.1434 33.64C30.6501 31.9067 29.9034 29.56 29.9034 26.6V13.56H37.7034V25.6C37.7034 26.88 38.0368 27.8933 38.7034 28.64C39.3968 29.36 40.3034 29.72 41.4234 29.72C42.5701 29.72 43.4768 29.36 44.1434 28.64C44.8101 27.8933 45.1434 26.88 45.1434 25.6V13.56H53.0234ZM63.7253 29.48H73.2853V36H55.0853V29.8L64.0053 20.08H55.1653V13.56H72.9653V19.76L63.7253 29.48ZM74.0788 24.76C74.0788 22.44 74.4921 20.4133 75.3188 18.68C76.1721 16.9467 77.3188 15.6133 78.7588 14.68C80.2254 13.7467 81.8521 13.28 83.6388 13.28C85.1854 13.28 86.5188 13.5867 87.6388 14.2C88.7588 14.8133 89.6254 15.64 90.2388 16.68V13.56H98.0788V36H90.2388V32.88C89.6254 33.92 88.7454 34.7467 87.5988 35.36C86.4788 35.9733 85.1588 36.28 83.6388 36.28C81.8521 36.28 80.2254 35.8133 78.7588 34.88C77.3188 33.9467 76.1721 32.6133 75.3188 30.88C74.4921 29.12 74.0788 27.08 74.0788 24.76ZM90.2388 24.76C90.2388 23.32 89.8388 22.1867 89.0388 21.36C88.2654 20.5333 87.3054 20.12 86.1588 20.12C84.9854 20.12 84.0121 20.5333 83.2388 21.36C82.4654 22.16 82.0788 23.2933 82.0788 24.76C82.0788 26.2 82.4654 27.3467 83.2388 28.2C84.0121 29.0267 84.9854 29.44 86.1588 29.44C87.3054 29.44 88.2654 29.0267 89.0388 28.2C89.8388 27.3733 90.2388 26.2267 90.2388 24.76ZM121.323 36.28C118.683 36.28 116.256 35.6667 114.043 34.44C111.829 33.1867 110.069 31.4667 108.763 29.28C107.483 27.0667 106.843 24.5733 106.843 21.8C106.843 19.0267 107.483 16.5467 108.763 14.36C110.069 12.1467 111.829 10.4267 114.043 9.2C116.256 7.97333 118.683 7.36 121.323 7.36C123.989 7.36 126.416 7.97333 128.603 9.2C130.816 10.4267 132.563 12.1467 133.843 14.36C135.123 16.5467 135.763 19.0267 135.763 21.8C135.763 24.5733 135.123 27.0667 133.843 29.28C132.563 31.4667 130.816 33.1867 128.603 34.44C126.389 35.6667 123.963 36.28 121.323 36.28ZM121.323 29C123.323 29 124.896 28.3467 126.043 27.04C127.216 25.7333 127.803 23.9867 127.803 21.8C127.803 19.56 127.216 17.8 126.043 16.52C124.896 15.2133 123.323 14.56 121.323 14.56C119.296 14.56 117.709 15.2133 116.563 16.52C115.416 17.8 114.843 19.56 114.843 21.8C114.843 24.0133 115.416 25.7733 116.563 27.08C117.709 28.36 119.296 29 121.323 29ZM152.767 13.36C155.354 13.36 157.407 14.2267 158.927 15.96C160.447 17.6667 161.207 19.9867 161.207 22.92V36H153.367V23.96C153.367 22.68 153.034 21.68 152.367 20.96C151.7 20.2133 150.807 19.84 149.687 19.84C148.514 19.84 147.594 20.2133 146.927 20.96C146.26 21.68 145.927 22.68 145.927 23.96V36H138.087V13.56H145.927V16.76C146.62 15.7467 147.554 14.9333 148.727 14.32C149.9 13.68 151.247 13.36 152.767 13.36ZM185.749 24.52C185.749 25.1333 185.709 25.7467 185.629 26.36H170.789C170.869 27.5867 171.202 28.5067 171.789 29.12C172.402 29.7067 173.175 30 174.109 30C175.415 30 176.349 29.4133 176.909 28.24H185.269C184.922 29.7867 184.242 31.1733 183.229 32.4C182.242 33.6 180.989 34.5467 179.469 35.24C177.949 35.9333 176.269 36.28 174.429 36.28C172.215 36.28 170.242 35.8133 168.509 34.88C166.802 33.9467 165.455 32.6133 164.469 30.88C163.509 29.1467 163.029 27.1067 163.029 24.76C163.029 22.4133 163.509 20.3867 164.469 18.68C165.429 16.9467 166.762 15.6133 168.469 14.68C170.202 13.7467 172.189 13.28 174.429 13.28C176.642 13.28 178.602 13.7333 180.309 14.64C182.015 15.5467 183.349 16.8533 184.309 18.56C185.269 20.24 185.749 22.2267 185.749 24.52ZM177.749 22.56C177.749 21.6 177.429 20.8533 176.789 20.32C176.149 19.76 175.349 19.48 174.389 19.48C173.429 19.48 172.642 19.7467 172.029 20.28C171.415 20.7867 171.015 21.5467 170.829 22.56H177.749Z" fill="#53A052"/>
</svg>
