<svg width="110" height="100" viewBox="0 0 100 100" fill="none" xmlns="http://www.w3.org/2000/svg">
<path fill-rule="evenodd" clip-rule="evenodd" d="M54.4756 97.1108C55.8089 97.2408 56.288 99.5732 58.0818 98.5073C57.5544 99.7811 56.8822 100.301 55.8497 98.9306C55.3929 98.3216 54.9324 97.7162 54.4756 97.1108Z" fill="black"/>
<path fill-rule="evenodd" clip-rule="evenodd" d="M9.22936 22.666C9.20707 23.1636 8.86911 23.2714 8.4643 23.2639C8.15976 23.2565 7.82922 23.2231 7.7698 22.848C7.69552 22.3874 8.00749 22.1386 8.39373 22.0681C8.82826 21.9863 9.07337 22.2909 9.22936 22.666Z" fill="black"/>
<path fill-rule="evenodd" clip-rule="evenodd" d="M6.40655 23.6127C6.05744 23.6276 5.83461 23.5013 5.91631 23.2451C5.96459 23.0928 6.23571 22.974 6.42512 22.9182C6.51053 22.8922 6.64795 23.0594 6.76308 23.1337C6.63309 23.3082 6.50311 23.4828 6.40655 23.6127Z" fill="black"/>
<path fill-rule="evenodd" clip-rule="evenodd" d="M57.0412 83.6069C58.174 84.9625 59.2287 86.125 60.1423 87.3914C60.3837 87.7256 57.2121 90.9307 56.785 90.8602C56.3764 90.797 53.6616 87.5325 53.8621 87.2874C54.8463 86.073 55.9011 84.9142 57.0412 83.6069Z" fill="#FEFEFE"/>
<mask id="mask0_2027_7796" style="mask-type:luminance" maskUnits="userSpaceOnUse" x="0" y="0" width="117" height="66">
<path d="M0 0H116.23V65.5948H0V0Z" fill="white"/>
</mask>
<g mask="url(#mask0_2027_7796)">
<path fill-rule="evenodd" clip-rule="evenodd" d="M3.98501 24.2107C4.04443 24.2775 4.10385 24.3444 4.16327 24.4075C4.16327 24.4075 4.16699 24.4075 4.1707 24.4075C4.12985 24.3184 4.063 24.259 3.98501 24.2107ZM0 22.792C0.0631359 22.7585 0.1337 22.7214 0.204264 22.6843C0.88762 22.0529 1.67868 21.6889 2.57373 21.5664C3.38707 21.2098 4.29326 20.8273 5.21059 20.4485C5.25516 20.4262 5.29973 20.4076 5.34801 20.3891C8.64594 19.0261 12.0813 17.7076 12.0813 17.7076L12.1556 17.7634C26.8774 11.9845 41.5993 6.22429 56.3138 0.434329C57.6656 -0.0967582 58.8615 -0.104185 60.2133 0.438043C66.267 2.86693 72.3541 5.21039 78.4226 7.60585C90.5558 12.3931 102.685 17.1988 114.819 21.9972C115.35 22.1977 115.989 22.2275 116.23 22.8885C115.599 23.2005 114.978 23.557 114.325 23.8244C106.422 27.0741 108.219 24.8569 107.941 33.1649C107.889 34.7507 108.234 35.6643 109.872 36.4182C113.887 38.264 114.588 42.951 111.539 46.0706V46.0744C111.413 46.2006 111.283 46.3269 111.157 46.4569C109.032 47.2554 109.738 48.9452 110.128 50.3008C111.406 54.7092 111.706 59.203 111.766 63.7525C111.784 65.212 111.183 65.5649 109.946 65.5611C107.796 65.5537 105.642 65.5166 103.491 65.576C101.983 65.6131 101.519 64.9409 101.686 63.5296C102.232 58.9578 102.232 54.3081 103.573 49.8477C104.037 48.3027 103.848 47.2628 102.433 46.0558C99.2241 43.3149 100.171 38.4015 104.011 36.6225C104.561 36.3662 105.229 36.318 105.619 35.7646C105.612 35.7646 105.608 35.7683 105.601 35.7683C105.634 33.618 105.556 31.4602 105.731 29.3247C105.902 27.2412 105.062 27.3972 103.592 27.9951C99.1758 29.7964 94.7228 31.4973 90.2884 33.2577C89.6497 33.5103 88.8512 33.5622 88.5689 34.383C90.3293 37.1944 91.1389 40.3401 91.8334 43.534C92.0748 44.6668 91.7443 45.4727 90.8381 46.2341C81.8765 53.7584 71.7338 58.2782 59.8977 58.3636C49.5285 58.4416 40.1063 55.114 31.5941 49.4429C23.3232 43.9352 23.3047 46.4495 27.3825 35.7015C27.9433 34.227 27.7725 33.7851 26.3129 33.2243C19.7059 30.6877 13.1583 28.0026 6.58845 25.3731C5.68597 25.3063 4.8652 25.0314 4.17813 24.4261C3.2608 24.3815 2.46603 24.0064 1.71582 23.5162C1.29986 23.4048 0.883906 23.2933 0.46795 23.1856C0.311967 23.0816 0.155984 22.9814 0.00371389 22.8774C0.0297114 22.8477 0.0594223 22.8217 0.0891334 22.7957L0.00371389 22.792H0Z" fill="black"/>
</g>
<path fill-rule="evenodd" clip-rule="evenodd" d="M86.8271 71.8859C83.934 60.0943 67.1992 60.0534 64.2949 71.8859H65.5354C65.5354 71.8933 65.5354 71.9007 65.5354 71.9082H69.0116C69.0116 71.9082 69.0116 71.9007 69.0116 71.8859H86.8271Z" fill="#3AA5E1"/>
<path fill-rule="evenodd" clip-rule="evenodd" d="M48.6154 71.8859C45.726 60.0943 28.9912 60.0534 26.0869 71.8859H27.3274C27.3274 71.8933 27.3274 71.9007 27.3274 71.9082H30.7998C30.7998 71.9082 30.7998 71.9007 30.8036 71.8859H48.6154Z" fill="#3AA5E1"/>
<path fill-rule="evenodd" clip-rule="evenodd" d="M42.1638 77.925C43.1183 76.8442 44.1099 77.2379 45.1126 77.1636C46.2565 77.0782 47.4153 77.145 48.5851 77.145C48.0021 81.6723 44.2919 85.2636 39.6087 85.9804C34.9069 87.4659 28.3481 84.2014 26.5432 78.5749C26.3798 78.0661 25.949 77.1413 27.0149 77.1896C28.8235 77.2787 30.6916 76.6177 32.4446 77.5461C35.7128 81.39 38.9513 81.5906 42.1638 77.925ZM26.0864 71.8862C28.9906 60.0537 45.7254 60.0946 48.6186 71.8862H30.8067C30.803 71.901 30.803 71.9084 30.803 71.9084H27.3305C27.3305 71.901 27.3268 71.8936 27.3268 71.8862H26.0864ZM49.6473 92.3831C51.1032 94.2661 52.7893 95.9708 54.3788 97.7497C55.0287 98.0914 55.3964 98.7302 55.8718 99.2427C56.6851 100.13 57.3648 99.8183 58.0816 99.1833C60.0759 97.0144 62.1557 94.9197 64.0238 92.6505C65.1974 91.2281 66.2224 90.9013 68.0719 91.4955C76.9333 94.3478 86.6823 90.8084 91.5549 83.1801C96.3829 75.6149 95.447 66.6124 88.9923 59.4261C88.0824 58.4159 87.9375 57.9591 89.23 57.1606C92.2865 55.2739 95.1648 53.1236 97.8833 50.7764C99.7589 49.1571 100.063 47.4636 98.8304 46.0263C97.6308 44.6299 95.7107 44.6039 93.9169 45.9706C91.8854 47.5156 89.9245 49.1609 87.8261 50.6056C76.8219 58.167 64.9708 62.9765 51.2888 61.2273C41.5436 59.9794 33.0054 55.9721 25.7224 49.3466L25.741 49.3651C24.2889 48.6149 23.3678 47.2705 22.1979 46.2046C20.5267 44.6745 18.6734 44.5259 17.3364 45.8444C15.9363 47.2296 16.0477 48.8526 17.7561 50.6687C19.6725 52.7002 21.7003 54.6463 24.0252 56.1838C25.9155 57.4317 26.3538 58.1336 24.4745 60.0648C19.8619 64.8001 18.484 70.7386 19.9622 77.1005C22.6473 88.6358 34.6803 95.1388 46.2268 91.4212C47.7681 90.9236 48.6557 91.0907 49.6473 92.3794V92.3831ZM80.3761 77.925C81.3268 76.8442 82.3184 77.2379 83.3212 77.1636C84.465 77.0782 85.6238 77.145 86.7937 77.145C86.2106 81.6723 82.5004 85.2636 77.8209 85.9804C73.1154 87.4659 66.5604 84.2014 64.7517 78.5749C64.5883 78.0661 64.1612 77.1413 65.2234 77.1896C67.032 77.2787 68.9001 76.6177 70.6531 77.5461C73.9213 81.39 77.1598 81.5906 80.3761 77.925ZM53.8663 87.2877C54.8505 86.0732 55.9015 84.9145 57.0454 83.6072C58.1744 84.9628 59.2329 86.1252 60.1428 87.3917C60.3842 87.7259 57.2162 90.931 56.7891 90.8604C56.3769 90.7973 53.6657 87.5328 53.8663 87.2877ZM64.2949 71.8862C67.1992 60.0537 83.934 60.0946 86.8271 71.8862H69.0153C69.0115 71.901 69.0115 71.9084 69.0115 71.9084H65.5391C65.5391 71.901 65.5391 71.8936 65.5353 71.8862H64.2949Z" fill="black"/>
</svg>
