<svg width="305" height="245" viewBox="0 0 305 245" fill="none" xmlns="http://www.w3.org/2000/svg">
<rect width="305" height="245" fill="#B5B5B5"/>
<path d="M-169 -236C-169 -237.105 -168.105 -238 -167 -238H473C474.105 -238 475 -237.105 475 -236V1101C475 1102.1 474.105 1103 473 1103H-167C-168.105 1103 -169 1102.1 -169 1101V-236Z" fill="#666666"/>
<g clip-path="url(#clip0_28_399)">
<rect width="375" height="760" transform="translate(-35 -144)" fill="#FBFCFF"/>
<g clip-path="url(#clip1_28_399)">
<circle cx="152.273" cy="142.892" r="95.8982" fill="#A71B4A" fill-opacity="0.1"/>
<circle cx="62.3857" cy="78.1396" r="6.01071" fill="#A71B4A" fill-opacity="0.1"/>
<circle cx="185.605" cy="35.7916" r="11.2018" fill="#A71B4A" fill-opacity="0.1"/>
<circle cx="71.4024" cy="219.392" r="10.6554" fill="#A71B4A" fill-opacity="0.1"/>
<circle cx="255.002" cy="194.256" r="10.6554" fill="#A71B4A" fill-opacity="0.1"/>
<circle cx="234.238" cy="206.277" r="5.19107" fill="#A71B4A" fill-opacity="0.1"/>
<path d="M157.752 51.6581C157.435 51.5907 157.435 51.1386 157.752 51.0712L162.542 50.0526C162.657 50.0281 162.748 49.9381 162.773 49.8228L163.804 45.0667C163.872 44.7515 164.322 44.7515 164.39 45.0667L165.422 49.8228C165.447 49.9381 165.537 50.0281 165.652 50.0526L170.442 51.0712C170.759 51.1386 170.759 51.5907 170.442 51.6581L165.652 52.6767C165.537 52.7012 165.447 52.7912 165.422 52.9065L164.39 57.6626C164.322 57.9778 163.872 57.9778 163.804 57.6626L162.773 52.9065C162.748 52.7912 162.657 52.7012 162.542 52.6767L157.752 51.6581Z" fill="#DEAABC"/>
<path d="M48.3005 149.515C48.4228 148.938 49.2474 148.938 49.3697 149.515L51.1963 158.145C51.2408 158.355 51.4045 158.52 51.6146 158.566L60.155 160.426C60.7285 160.551 60.7285 161.369 60.155 161.494L51.6146 163.354C51.4045 163.4 51.2408 163.565 51.1963 163.775L49.3697 172.405C49.2474 172.982 48.4228 172.982 48.3005 172.405L46.4739 163.775C46.4294 163.565 46.2657 163.4 46.0557 163.354L37.5153 161.494C36.9418 161.369 36.9418 160.551 37.5153 160.426L46.0557 158.566C46.2657 158.52 46.4294 158.355 46.4739 158.145L48.3005 149.515Z" fill="#DEAABC"/>
<path d="M237.978 80.6652C238.1 80.0875 238.925 80.0875 239.047 80.6652L240.113 85.6995C240.157 85.9098 240.321 86.0745 240.531 86.1202L245.528 87.2087C246.101 87.3337 246.101 88.1516 245.528 88.2765L240.531 89.365C240.321 89.4108 240.157 89.5755 240.113 89.7858L239.047 94.82C238.925 95.3977 238.1 95.3977 237.978 94.82L236.912 89.7858C236.868 89.5755 236.704 89.4108 236.494 89.365L231.498 88.2765C230.924 88.1516 230.924 87.3337 231.498 87.2087L236.494 86.1202C236.704 86.0745 236.868 85.9098 236.912 85.6995L237.978 80.6652Z" fill="#DEAABC"/>
<path d="M260.007 161.378L261.68 169.283L269.473 170.981L261.68 172.678L260.007 180.584L258.333 172.678L250.541 170.981L258.333 169.283L260.007 161.378Z" fill="white"/>
<path d="M206.643 99.4507L77.4131 148.902L105.008 225.676L121.674 233.052L142.438 237.424L163.476 236.604L175.77 234.419L186.699 231.14L204.731 221.851L220.031 209.829L221.212 208.302C227.88 199.683 233.792 190.504 238.883 180.869L206.643 99.4507Z" fill="#FFE7E7"/>
<path d="M87.2486 127.044L73.5879 119.394L192.163 74.5869L185.879 90.1601L190.524 104.64L92.4397 142.071L87.2486 127.044Z" fill="#A71B4A" fill-opacity="0.3"/>
<path d="M104.461 225.401V225.401C116.418 231.515 129.363 235.463 142.696 237.063L143.029 237.103L152.535 237.103C159.656 237.103 166.757 236.345 173.717 234.842L176.074 234.333C183.516 232.727 190.701 230.103 197.427 226.536V226.536C202.675 223.753 207.609 220.414 212.144 216.577L213.615 215.332C217.551 212.002 221.203 208.35 224.533 204.414V204.414C229.195 198.904 233.2 192.869 236.466 186.432L239.429 180.594" stroke="#DEAABC" stroke-width="2"/>
<path d="M76.3643 147.761L105.007 225.929" stroke="#DEAABC" stroke-width="2"/>
<path d="M207.78 99.4023L239.203 181.508" stroke="#DEAABC" stroke-width="2"/>
<path d="M71.4471 119.621L193.844 73.6287" stroke="#DEAABC" stroke-width="2"/>
<path d="M75.7317 149.17L206.059 98.9095L186.846 89.9868C186.295 89.7306 186.058 89.0733 186.321 88.5244L193.012 74.524" stroke="#DEAABC" stroke-width="2"/>
<path d="M72.5447 119.243L86.3214 126.629C86.8451 126.91 87.0485 127.558 86.7793 128.088L76.3644 148.581" stroke="#DEAABC" stroke-width="2"/>
<path d="M71.9932 118.254L80.8702 140.444" stroke="#DEAABC" stroke-width="2"/>
<path d="M86.9756 127.864L92.4399 143.164" stroke="#DEAABC" stroke-width="2"/>
<path d="M186.425 89.6138L191.889 105.46" stroke="#DEAABC" stroke-width="2"/>
<path d="M193.107 74.7793L200.95 96.3971" stroke="#DEAABC" stroke-width="2"/>
<circle cx="127.684" cy="141.798" r="5.7375" fill="#A71B4A" fill-opacity="0.3"/>
<circle cx="119.488" cy="112.291" r="4.09821" fill="#FFE7E7"/>
<circle cx="163.748" cy="128.137" r="5.7375" fill="#A71B4A" fill-opacity="0.3"/>
<circle cx="144.624" cy="103.001" r="4.09821" fill="#FFE7E7"/>
<g style="mix-blend-mode:hue">
<rect x="9" y="5" width="287" height="240" fill="#19998E"/>
</g>
</g>
</g>
<defs>
<clipPath id="clip0_28_399">
<rect width="375" height="760" fill="white" transform="translate(-35 -144)"/>
</clipPath>
<clipPath id="clip1_28_399">
<rect width="305" height="245" fill="white"/>
</clipPath>
</defs>
</svg>
