<svg width="16" height="18" viewBox="0 0 16 18" fill="none" xmlns="http://www.w3.org/2000/svg">
<path d="M12 3.96798H16V5.62091H14.4V16.365C14.4 16.8214 14.0418 17.1915 13.6 17.1915H2.4C1.95818 17.1915 1.6 16.8214 1.6 16.365V5.62091H0V3.96798H4V1.48858C4 1.03214 4.35818 0.662109 4.8 0.662109H11.2C11.6418 0.662109 12 1.03214 12 1.48858V3.96798ZM12.8 5.62091H3.2V15.5385H12.8V5.62091ZM5.6 8.10032H7.2V13.0591H5.6V8.10032ZM8.8 8.10032H10.4V13.0591H8.8V8.10032ZM5.6 2.31504V3.96798H10.4V2.31504H5.6Z" fill="black"/>
</svg>
