<svg width="234" height="48" viewBox="0 0 234 48" fill="none" xmlns="http://www.w3.org/2000/svg">
<rect width="234" height="48" rx="12" fill="#19998E"/>
<path d="M66.2825 28.9274V30.4624C69.0075 29.9474 71.1325 27.8249 71.65 25.0974H70.1125C69.645 26.9724 68.1575 28.4599 66.2825 28.9274Z" fill="white"/>
<path d="M63.7175 18.7001V17.1626C60.99 17.6776 58.865 19.8026 58.35 22.5301H59.8875C60.355 20.6526 61.84 19.1676 63.7175 18.7001Z" fill="white"/>
<path d="M59.8875 25.0974H58.35C58.8675 27.8249 60.9925 29.9474 63.7175 30.4624V28.9249C61.8425 28.4574 60.355 26.9724 59.8875 25.0974Z" fill="white"/>
<path d="M70.1125 22.5301H71.65C71.135 19.8026 69.01 17.6776 66.2825 17.1626V18.6976C68.16 19.1651 69.645 20.6526 70.1125 22.5301Z" fill="white"/>
<path d="M60.7625 23.8125C60.7625 23.38 60.4125 23.03 59.98 23.03H57.97C57.5375 23.03 57.1875 23.38 57.1875 23.8125C57.1875 24.245 57.5375 24.5975 57.97 24.5975H59.98C60.4125 24.5975 60.7625 24.245 60.7625 23.8125Z" fill="white"/>
<path d="M72.0299 23.03H70.0199C69.5874 23.03 69.2374 23.38 69.2374 23.8125C69.2374 24.245 69.5874 24.5975 70.0199 24.5975H72.0299C72.4624 24.5975 72.8124 24.245 72.8124 23.8125C72.8124 23.38 72.4624 23.03 72.0299 23.03Z" fill="white"/>
<path d="M65 19.5775C65.4325 19.5775 65.7825 19.225 65.7825 18.7925V16.785C65.7825 16.35 65.4325 16 65 16C64.5675 16 64.2175 16.35 64.2175 16.785V18.7925C64.2175 19.225 64.5675 19.5775 65 19.5775Z" fill="white"/>
<path d="M65 28.05C64.5675 28.05 64.2175 28.4 64.2175 28.8325V30.8425C64.2175 31.275 64.5675 31.625 65 31.625C65.4325 31.625 65.7825 31.275 65.7825 30.8425V28.8325C65.7825 28.4 65.4325 28.05 65 28.05Z" fill="white"/>
<path d="M65.0007 26.1433C66.2875 26.1433 67.3307 25.1001 67.3307 23.8132C67.3307 22.5264 66.2875 21.4832 65.0007 21.4832C63.7138 21.4832 62.6706 22.5264 62.6706 23.8132C62.6706 25.1001 63.7138 26.1433 65.0007 26.1433Z" fill="white"/>
<path d="M84.0433 20.524V23.32H87.0913V24.22H84.0433V27.1H87.4513V28H82.9513V19.624H87.4513V20.524H84.0433ZM92.3077 21.304C93.1077 21.304 93.7557 21.548 94.2517 22.036C94.7477 22.516 94.9957 23.212 94.9957 24.124V28H93.9157V24.28C93.9157 23.624 93.7517 23.124 93.4237 22.78C93.0957 22.428 92.6477 22.252 92.0797 22.252C91.5037 22.252 91.0437 22.432 90.6997 22.792C90.3637 23.152 90.1957 23.676 90.1957 24.364V28H89.1037V21.424H90.1957V22.36C90.4117 22.024 90.7037 21.764 91.0717 21.58C91.4477 21.396 91.8597 21.304 92.3077 21.304ZM96.3715 24.688C96.3715 24.016 96.5075 23.428 96.7795 22.924C97.0515 22.412 97.4235 22.016 97.8955 21.736C98.3755 21.456 98.9075 21.316 99.4915 21.316C100.067 21.316 100.567 21.44 100.991 21.688C101.415 21.936 101.731 22.248 101.939 22.624V21.424H103.043V28H101.939V26.776C101.723 27.16 101.399 27.48 100.967 27.736C100.543 27.984 100.047 28.108 99.4795 28.108C98.8955 28.108 98.3675 27.964 97.8955 27.676C97.4235 27.388 97.0515 26.984 96.7795 26.464C96.5075 25.944 96.3715 25.352 96.3715 24.688ZM101.939 24.7C101.939 24.204 101.839 23.772 101.639 23.404C101.439 23.036 101.167 22.756 100.823 22.564C100.487 22.364 100.115 22.264 99.7075 22.264C99.2995 22.264 98.9275 22.36 98.5915 22.552C98.2555 22.744 97.9875 23.024 97.7875 23.392C97.5875 23.76 97.4875 24.192 97.4875 24.688C97.4875 25.192 97.5875 25.632 97.7875 26.008C97.9875 26.376 98.2555 26.66 98.5915 26.86C98.9275 27.052 99.2995 27.148 99.7075 27.148C100.115 27.148 100.487 27.052 100.823 26.86C101.167 26.66 101.439 26.376 101.639 26.008C101.839 25.632 101.939 25.196 101.939 24.7ZM105.981 22.648C106.205 22.256 106.533 21.936 106.965 21.688C107.397 21.44 107.889 21.316 108.441 21.316C109.033 21.316 109.565 21.456 110.037 21.736C110.509 22.016 110.881 22.412 111.153 22.924C111.425 23.428 111.561 24.016 111.561 24.688C111.561 25.352 111.425 25.944 111.153 26.464C110.881 26.984 110.505 27.388 110.025 27.676C109.553 27.964 109.025 28.108 108.441 28.108C107.873 28.108 107.373 27.984 106.941 27.736C106.517 27.488 106.197 27.172 105.981 26.788V28H104.889V19.12H105.981V22.648ZM110.445 24.688C110.445 24.192 110.345 23.76 110.145 23.392C109.945 23.024 109.673 22.744 109.329 22.552C108.993 22.36 108.621 22.264 108.213 22.264C107.813 22.264 107.441 22.364 107.097 22.564C106.761 22.756 106.489 23.04 106.281 23.416C106.081 23.784 105.981 24.212 105.981 24.7C105.981 25.196 106.081 25.632 106.281 26.008C106.489 26.376 106.761 26.66 107.097 26.86C107.441 27.052 107.813 27.148 108.213 27.148C108.621 27.148 108.993 27.052 109.329 26.86C109.673 26.66 109.945 26.376 110.145 26.008C110.345 25.632 110.445 25.192 110.445 24.688ZM114.09 19.12V28H112.998V19.12H114.09ZM121.951 24.46C121.951 24.668 121.939 24.888 121.915 25.12H116.659C116.699 25.768 116.919 26.276 117.319 26.644C117.727 27.004 118.219 27.184 118.795 27.184C119.267 27.184 119.659 27.076 119.971 26.86C120.291 26.636 120.515 26.34 120.643 25.972H121.819C121.643 26.604 121.291 27.12 120.763 27.52C120.235 27.912 119.579 28.108 118.795 28.108C118.171 28.108 117.611 27.968 117.115 27.688C116.627 27.408 116.243 27.012 115.963 26.5C115.683 25.98 115.543 25.38 115.543 24.7C115.543 24.02 115.679 23.424 115.951 22.912C116.223 22.4 116.603 22.008 117.091 21.736C117.587 21.456 118.155 21.316 118.795 21.316C119.419 21.316 119.971 21.452 120.451 21.724C120.931 21.996 121.299 22.372 121.555 22.852C121.819 23.324 121.951 23.86 121.951 24.46ZM120.823 24.232C120.823 23.816 120.731 23.46 120.547 23.164C120.363 22.86 120.111 22.632 119.791 22.48C119.479 22.32 119.131 22.24 118.747 22.24C118.195 22.24 117.723 22.416 117.331 22.768C116.947 23.12 116.727 23.608 116.671 24.232H120.823ZM127.684 27.112H130.612V28H126.592V19.636H127.684V27.112ZM134.64 28.108C134.024 28.108 133.464 27.968 132.96 27.688C132.464 27.408 132.072 27.012 131.784 26.5C131.504 25.98 131.364 25.38 131.364 24.7C131.364 24.028 131.508 23.436 131.796 22.924C132.092 22.404 132.492 22.008 132.996 21.736C133.5 21.456 134.064 21.316 134.688 21.316C135.312 21.316 135.876 21.456 136.38 21.736C136.884 22.008 137.28 22.4 137.568 22.912C137.864 23.424 138.012 24.02 138.012 24.7C138.012 25.38 137.86 25.98 137.556 26.5C137.26 27.012 136.856 27.408 136.344 27.688C135.832 27.968 135.264 28.108 134.64 28.108ZM134.64 27.148C135.032 27.148 135.4 27.056 135.744 26.872C136.088 26.688 136.364 26.412 136.572 26.044C136.788 25.676 136.896 25.228 136.896 24.7C136.896 24.172 136.792 23.724 136.584 23.356C136.376 22.988 136.104 22.716 135.768 22.54C135.432 22.356 135.068 22.264 134.676 22.264C134.276 22.264 133.908 22.356 133.572 22.54C133.244 22.716 132.98 22.988 132.78 23.356C132.58 23.724 132.48 24.172 132.48 24.7C132.48 25.236 132.576 25.688 132.768 26.056C132.968 26.424 133.232 26.7 133.56 26.884C133.888 27.06 134.248 27.148 134.64 27.148ZM139.039 24.7C139.039 24.02 139.175 23.428 139.447 22.924C139.719 22.412 140.095 22.016 140.575 21.736C141.063 21.456 141.619 21.316 142.243 21.316C143.051 21.316 143.715 21.512 144.235 21.904C144.763 22.296 145.111 22.84 145.279 23.536H144.103C143.991 23.136 143.771 22.82 143.443 22.588C143.123 22.356 142.723 22.24 142.243 22.24C141.619 22.24 141.115 22.456 140.731 22.888C140.347 23.312 140.155 23.916 140.155 24.7C140.155 25.492 140.347 26.104 140.731 26.536C141.115 26.968 141.619 27.184 142.243 27.184C142.723 27.184 143.123 27.072 143.443 26.848C143.763 26.624 143.983 26.304 144.103 25.888H145.279C145.103 26.56 144.751 27.1 144.223 27.508C143.695 27.908 143.035 28.108 142.243 28.108C141.619 28.108 141.063 27.968 140.575 27.688C140.095 27.408 139.719 27.012 139.447 26.5C139.175 25.988 139.039 25.388 139.039 24.7ZM146.329 24.688C146.329 24.016 146.465 23.428 146.737 22.924C147.009 22.412 147.381 22.016 147.853 21.736C148.333 21.456 148.865 21.316 149.449 21.316C150.025 21.316 150.525 21.44 150.949 21.688C151.373 21.936 151.689 22.248 151.897 22.624V21.424H153.001V28H151.897V26.776C151.681 27.16 151.357 27.48 150.925 27.736C150.501 27.984 150.005 28.108 149.437 28.108C148.853 28.108 148.325 27.964 147.853 27.676C147.381 27.388 147.009 26.984 146.737 26.464C146.465 25.944 146.329 25.352 146.329 24.688ZM151.897 24.7C151.897 24.204 151.797 23.772 151.597 23.404C151.397 23.036 151.125 22.756 150.781 22.564C150.445 22.364 150.073 22.264 149.665 22.264C149.257 22.264 148.885 22.36 148.549 22.552C148.213 22.744 147.945 23.024 147.745 23.392C147.545 23.76 147.445 24.192 147.445 24.688C147.445 25.192 147.545 25.632 147.745 26.008C147.945 26.376 148.213 26.66 148.549 26.86C148.885 27.052 149.257 27.148 149.665 27.148C150.073 27.148 150.445 27.052 150.781 26.86C151.125 26.66 151.397 26.376 151.597 26.008C151.797 25.632 151.897 25.196 151.897 24.7ZM156.178 22.324V26.2C156.178 26.52 156.246 26.748 156.382 26.884C156.518 27.012 156.754 27.076 157.09 27.076H157.894V28H156.91C156.302 28 155.846 27.86 155.542 27.58C155.238 27.3 155.086 26.84 155.086 26.2V22.324H154.234V21.424H155.086V19.768H156.178V21.424H157.894V22.324H156.178ZM159.781 20.356C159.573 20.356 159.397 20.284 159.253 20.14C159.109 19.996 159.037 19.82 159.037 19.612C159.037 19.404 159.109 19.228 159.253 19.084C159.397 18.94 159.573 18.868 159.781 18.868C159.981 18.868 160.149 18.94 160.285 19.084C160.429 19.228 160.501 19.404 160.501 19.612C160.501 19.82 160.429 19.996 160.285 20.14C160.149 20.284 159.981 20.356 159.781 20.356ZM160.309 21.424V28H159.217V21.424H160.309ZM165.038 28.108C164.422 28.108 163.862 27.968 163.358 27.688C162.862 27.408 162.47 27.012 162.182 26.5C161.902 25.98 161.762 25.38 161.762 24.7C161.762 24.028 161.906 23.436 162.194 22.924C162.49 22.404 162.89 22.008 163.394 21.736C163.898 21.456 164.462 21.316 165.086 21.316C165.71 21.316 166.274 21.456 166.778 21.736C167.282 22.008 167.678 22.4 167.966 22.912C168.262 23.424 168.41 24.02 168.41 24.7C168.41 25.38 168.258 25.98 167.954 26.5C167.658 27.012 167.254 27.408 166.742 27.688C166.23 27.968 165.662 28.108 165.038 28.108ZM165.038 27.148C165.43 27.148 165.798 27.056 166.142 26.872C166.486 26.688 166.762 26.412 166.97 26.044C167.186 25.676 167.294 25.228 167.294 24.7C167.294 24.172 167.19 23.724 166.982 23.356C166.774 22.988 166.502 22.716 166.166 22.54C165.83 22.356 165.466 22.264 165.074 22.264C164.674 22.264 164.306 22.356 163.97 22.54C163.642 22.716 163.378 22.988 163.178 23.356C162.978 23.724 162.878 24.172 162.878 24.7C162.878 25.236 162.974 25.688 163.166 26.056C163.366 26.424 163.63 26.7 163.958 26.884C164.286 27.06 164.646 27.148 165.038 27.148ZM173.05 21.304C173.85 21.304 174.498 21.548 174.994 22.036C175.49 22.516 175.738 23.212 175.738 24.124V28H174.658V24.28C174.658 23.624 174.494 23.124 174.166 22.78C173.838 22.428 173.39 22.252 172.822 22.252C172.246 22.252 171.786 22.432 171.442 22.792C171.106 23.152 170.938 23.676 170.938 24.364V28H169.846V21.424H170.938V22.36C171.154 22.024 171.446 21.764 171.814 21.58C172.19 21.396 172.602 21.304 173.05 21.304Z" fill="white"/>
</svg>
