<svg width="196" height="30" viewBox="0 0 196 30" fill="none" xmlns="http://www.w3.org/2000/svg">
<g clip-path="url(#clip0_114_11596)">
<path d="M20.8 10.079C20.16 8.90897 19.28 8.00897 18.16 7.39897C17.04 6.78897 15.73 6.47897 14.24 6.47897C12.59 6.47897 11.12 6.84897 9.84 7.59897C8.56 8.34897 7.56 9.40897 6.84 10.799C6.12 12.189 5.76 13.789 5.76 15.599C5.76 17.409 6.13 19.089 6.86 20.479C7.59 21.869 8.61 22.929 9.92 23.679C11.23 24.429 12.75 24.799 14.48 24.799C16.61 24.799 18.36 24.229 19.72 23.099C21.08 21.969 21.97 20.389 22.4 18.359H12.8V14.079H27.92V18.959C27.55 20.909 26.75 22.709 25.52 24.359C24.29 26.009 22.71 27.339 20.78 28.339C18.85 29.339 16.68 29.839 14.28 29.839C11.59 29.839 9.15 29.229 6.98 28.019C4.81 26.809 3.1 25.119 1.86 22.959C0.62 20.799 0 18.349 0 15.599C0 12.849 0.62 10.389 1.86 8.21897C3.1 6.04897 4.81 4.34897 6.98 3.13897C9.15 1.92897 11.57 1.31897 14.24 1.31897C17.39 1.31897 20.12 2.08897 22.44 3.61897C24.76 5.14897 26.36 7.30897 27.24 10.079H20.8Z" fill="#19998E"/>
<path d="M52.52 20.199H36.32C36.45 21.799 37.01 23.049 38 23.959C38.99 24.869 40.2 25.319 41.64 25.319C43.72 25.319 45.2 24.429 46.08 22.639H52.12C51.48 24.769 50.25 26.529 48.44 27.899C46.63 29.269 44.4 29.959 41.76 29.959C39.63 29.959 37.71 29.489 36.02 28.539C34.33 27.589 33.01 26.249 32.06 24.519C31.11 22.789 30.64 20.789 30.64 18.519C30.64 16.249 31.11 14.209 32.04 12.479C32.97 10.749 34.28 9.40898 35.96 8.47898C37.64 7.54898 39.57 7.07898 41.76 7.07898C43.95 7.07898 45.75 7.52898 47.42 8.43898C49.09 9.34898 50.38 10.629 51.3 12.299C52.22 13.969 52.68 15.879 52.68 18.039C52.68 18.839 52.63 19.559 52.52 20.199ZM46.88 16.439C46.85 14.999 46.33 13.849 45.32 12.979C44.31 12.109 43.07 11.679 41.6 11.679C40.21 11.679 39.05 12.099 38.1 12.939C37.15 13.779 36.57 14.949 36.36 16.439H46.88Z" fill="#19998E"/>
<path d="M75.44 9.61902C77.07 11.289 77.88 13.609 77.88 16.599V29.599H72.28V17.359C72.28 15.599 71.84 14.249 70.96 13.299C70.08 12.349 68.88 11.879 67.36 11.879C65.84 11.879 64.59 12.349 63.7 13.299C62.81 14.249 62.36 15.599 62.36 17.359V29.599H56.76V7.43902H62.36V10.199C63.11 9.23902 64.06 8.48902 65.22 7.93902C66.38 7.38902 67.65 7.11902 69.04 7.11902C71.68 7.11902 73.81 7.94902 75.44 9.61902Z" fill="#19998E"/>
<path d="M103.64 20.199H87.44C87.57 21.799 88.13 23.049 89.12 23.959C90.11 24.869 91.32 25.319 92.76 25.319C94.84 25.319 96.32 24.429 97.2 22.639H103.24C102.6 24.769 101.37 26.529 99.56 27.899C97.75 29.269 95.52 29.959 92.88 29.959C90.75 29.959 88.83 29.489 87.14 28.539C85.45 27.589 84.13 26.249 83.18 24.519C82.23 22.789 81.76 20.789 81.76 18.519C81.76 16.249 82.23 14.209 83.16 12.479C84.09 10.749 85.4 9.40898 87.08 8.47898C88.76 7.54898 90.69 7.07898 92.88 7.07898C95.07 7.07898 96.87 7.52898 98.54 8.43898C100.21 9.34898 101.5 10.629 102.42 12.299C103.34 13.969 103.8 15.879 103.8 18.039C103.8 18.839 103.75 19.559 103.64 20.199ZM98 16.439C97.97 14.999 97.45 13.849 96.44 12.979C95.43 12.109 94.19 11.679 92.72 11.679C91.33 11.679 90.17 12.099 89.22 12.939C88.27 13.779 87.69 14.949 87.48 16.439H98Z" fill="#19998E"/>
<path d="M131.04 1.67908V29.5991H125.44V17.7191H113.48V29.5991H107.88V1.67908H113.48V13.1591H125.44V1.67908H131.04Z" fill="#19998E"/>
<path d="M136.46 12.479C137.35 10.749 138.57 9.40898 140.1 8.47898C141.63 7.54898 143.35 7.07898 145.24 7.07898C146.89 7.07898 148.34 7.40898 149.58 8.07898C150.82 8.74898 151.81 9.58898 152.56 10.599V7.43898H158.2V29.599H152.56V26.359C151.84 27.399 150.85 28.259 149.58 28.939C148.31 29.619 146.85 29.959 145.2 29.959C143.33 29.959 141.63 29.479 140.1 28.519C138.57 27.559 137.35 26.209 136.46 24.459C135.57 22.709 135.12 20.709 135.12 18.439C135.12 16.169 135.57 14.209 136.46 12.479ZM151.76 15.019C151.23 14.049 150.51 13.299 149.6 12.779C148.69 12.259 147.72 11.999 146.68 11.999C145.64 11.999 144.68 12.249 143.8 12.759C142.92 13.269 142.21 14.009 141.66 14.979C141.11 15.949 140.84 17.109 140.84 18.439C140.84 19.769 141.11 20.939 141.66 21.939C142.21 22.939 142.93 23.709 143.82 24.239C144.71 24.769 145.67 25.039 146.68 25.039C147.69 25.039 148.69 24.779 149.6 24.259C150.51 23.739 151.23 22.989 151.76 22.019C152.29 21.049 152.56 19.879 152.56 18.519C152.56 17.159 152.29 15.989 151.76 15.019Z" fill="#19998E"/>
<path d="M169.28 -0.000976562V29.599H163.68V-0.000976562H169.28Z" fill="#19998E"/>
<path d="M195.24 20.199H179.04C179.17 21.799 179.73 23.049 180.72 23.959C181.71 24.869 182.92 25.319 184.36 25.319C186.44 25.319 187.92 24.429 188.8 22.639H194.84C194.2 24.769 192.97 26.529 191.16 27.899C189.35 29.269 187.12 29.959 184.48 29.959C182.35 29.959 180.43 29.489 178.74 28.539C177.05 27.589 175.73 26.249 174.78 24.519C173.83 22.789 173.36 20.789 173.36 18.519C173.36 16.249 173.83 14.209 174.76 12.479C175.69 10.749 177 9.40898 178.68 8.47898C180.36 7.54898 182.29 7.07898 184.48 7.07898C186.67 7.07898 188.47 7.52898 190.14 8.43898C191.81 9.34898 193.1 10.629 194.02 12.299C194.94 13.969 195.4 15.879 195.4 18.039C195.4 18.839 195.35 19.559 195.24 20.199ZM189.6 16.439C189.57 14.999 189.05 13.849 188.04 12.979C187.03 12.109 185.79 11.679 184.32 11.679C182.93 11.679 181.77 12.099 180.82 12.939C179.87 13.779 179.29 14.949 179.08 16.439H189.6Z" fill="#19998E"/>
</g>
<defs>
<clipPath id="clip0_114_11596">
<rect width="195.4" height="29.96" fill="white" transform="translate(0 -0.000976562)"/>
</clipPath>
</defs>
</svg>
