<svg width="79" height="12" viewBox="0 0 79 12" fill="none" xmlns="http://www.w3.org/2000/svg">
<g clip-path="url(#clip0_131_12436)">
<path d="M8.40942 4.03749C8.15067 3.56886 7.79488 3.20838 7.34207 2.96406C6.88925 2.71973 6.35962 2.59556 5.75722 2.59556C5.09012 2.59556 4.4958 2.74376 3.9783 3.04416C3.4608 3.34456 3.0565 3.76913 2.7654 4.32587C2.47431 4.88261 2.32876 5.52347 2.32876 6.24844C2.32876 6.9734 2.47835 7.6463 2.77349 8.20304C3.06863 8.75978 3.48101 9.18435 4.01064 9.48475C4.54028 9.78515 5.15481 9.93335 5.85425 9.93335C6.7154 9.93335 7.42293 9.70504 7.97277 9.25244C8.52262 8.79984 8.88245 8.16699 9.05629 7.35391H5.17503V5.63962H11.288V7.59423C11.1384 8.37527 10.815 9.09623 10.3177 9.75711C9.82042 10.418 9.18163 10.9507 8.40133 11.3512C7.62103 11.7518 6.74371 11.952 5.77339 11.952C4.68582 11.952 3.69933 11.7077 2.82201 11.2231C1.94468 10.7384 1.25333 10.0615 0.751996 9.19637C0.250665 8.33121 0 7.3499 0 6.24844C0 5.14697 0.250665 4.16165 0.751996 3.29249C1.25333 2.42333 1.94468 1.74243 2.82201 1.25778C3.69933 0.773134 4.67774 0.528809 5.75722 0.528809C7.03076 0.528809 8.13449 0.83722 9.07247 1.45004C10.0104 2.06285 10.6573 2.92801 11.0131 4.03749H8.40942Z" fill="#19998E"/>
<path d="M21.2338 8.0907H14.6841C14.7367 8.73155 14.9631 9.23222 15.3634 9.59671C15.7636 9.96119 16.2528 10.1414 16.835 10.1414C17.676 10.1414 18.2743 9.78496 18.6301 9.068H21.0721C20.8133 9.92114 20.316 10.6261 19.5842 11.1748C18.8525 11.7235 17.9509 11.9999 16.8835 11.9999C16.0224 11.9999 15.2461 11.8117 14.5629 11.4312C13.8796 11.0506 13.3459 10.5139 12.9618 9.82101C12.5777 9.12808 12.3877 8.32702 12.3877 7.4178C12.3877 6.50859 12.5777 5.6915 12.9537 4.99858C13.3297 4.30565 13.8594 3.76894 14.5386 3.39644C15.2178 3.02394 15.9981 2.83569 16.8835 2.83569C17.7689 2.83569 18.4967 3.01593 19.1719 3.38042C19.847 3.74491 20.3686 4.25759 20.7405 4.92648C21.1125 5.59537 21.2985 6.36039 21.2985 7.22555C21.2985 7.54597 21.2783 7.83436 21.2338 8.0907ZM18.9535 6.58469C18.9414 6.00792 18.7312 5.54731 18.3228 5.19884C17.9145 4.85038 17.4132 4.67815 16.8188 4.67815C16.2569 4.67815 15.7879 4.84637 15.4038 5.18282C15.0197 5.51927 14.7852 5.9879 14.7003 6.58469H18.9535Z" fill="#19998E"/>
<path d="M30.5003 3.85314C31.1593 4.52203 31.4868 5.45127 31.4868 6.64887V11.8558H29.2227V6.95328C29.2227 6.24834 29.0448 5.70761 28.689 5.32711C28.3333 4.9466 27.8481 4.75835 27.2336 4.75835C26.619 4.75835 26.1137 4.9466 25.7538 5.32711C25.394 5.70761 25.2121 6.24834 25.2121 6.95328V11.8558H22.948V2.97998H25.2121V4.08545C25.5153 3.70094 25.8994 3.40054 26.3684 3.18024C26.8374 2.95995 27.3508 2.85181 27.9128 2.85181C28.9801 2.85181 29.8413 3.18425 30.5003 3.85314Z" fill="#19998E"/>
<path d="M41.9015 8.0907H35.3519C35.4045 8.73155 35.6309 9.23222 36.0311 9.59671C36.4314 9.96119 36.9206 10.1414 37.5028 10.1414C38.3437 10.1414 38.9421 9.78496 39.2979 9.068H41.7398C41.4811 9.92114 40.9838 10.6261 40.252 11.1748C39.5202 11.7235 38.6186 11.9999 37.5513 11.9999C36.6901 11.9999 35.9139 11.8117 35.2306 11.4312C34.5473 11.0506 34.0137 10.5139 33.6296 9.82101C33.2455 9.12808 33.0555 8.32702 33.0555 7.4178C33.0555 6.50859 33.2455 5.6915 33.6215 4.99858C33.9975 4.30565 34.5271 3.76894 35.2064 3.39644C35.8856 3.02394 36.6659 2.83569 37.5513 2.83569C38.4367 2.83569 39.1644 3.01593 39.8396 3.38042C40.5148 3.74491 41.0363 4.25759 41.4083 4.92648C41.7802 5.59537 41.9662 6.36039 41.9662 7.22555C41.9662 7.54597 41.946 7.83436 41.9015 8.0907ZM39.6213 6.58469C39.6092 6.00792 39.3989 5.54731 38.9906 5.19884C38.5822 4.85038 38.0809 4.67815 37.4866 4.67815C36.9246 4.67815 36.4556 4.84637 36.0716 5.18282C35.6875 5.51927 35.453 5.9879 35.3681 6.58469H39.6213Z" fill="#19998E"/>
<path d="M52.9793 0.672852V11.8558H50.7152V7.09742H45.8798V11.8558H43.6158V0.672852H45.8798V5.27098H50.7152V0.672852H52.9793Z" fill="#19998E"/>
<path d="M55.1706 4.99858C55.5305 4.30565 56.0237 3.76894 56.6423 3.39644C57.2609 3.02394 57.9563 2.83569 58.7204 2.83569C59.3875 2.83569 59.9737 2.96787 60.475 3.23623C60.9764 3.50459 61.3766 3.84103 61.6798 4.24557V2.97989H63.9601V11.8557H61.6798V10.558C61.3888 10.9745 60.9885 11.319 60.475 11.5914C59.9616 11.8637 59.3713 11.9999 58.7042 11.9999C57.9482 11.9999 57.2609 11.8077 56.6423 11.4231C56.0237 11.0386 55.5305 10.4979 55.1706 9.79698C54.8108 9.09604 54.6289 8.29497 54.6289 7.38576C54.6289 6.47655 54.8108 5.6915 55.1706 4.99858ZM61.3564 6.01593C61.1421 5.62742 60.851 5.32702 60.4831 5.11874C60.1152 4.91046 59.723 4.80632 59.3026 4.80632C58.8821 4.80632 58.494 4.90645 58.1382 5.11073C57.7824 5.315 57.4954 5.61139 57.273 5.99991C57.0506 6.38843 56.9415 6.85305 56.9415 7.38576C56.9415 7.91847 57.0506 8.3871 57.273 8.78763C57.4954 9.18816 57.7865 9.49657 58.1463 9.70886C58.5061 9.92114 58.8942 10.0293 59.3026 10.0293C59.7109 10.0293 60.1152 9.92515 60.4831 9.71687C60.851 9.50859 61.1421 9.20819 61.3564 8.81967C61.5707 8.43115 61.6798 7.96253 61.6798 7.4178C61.6798 6.87308 61.5707 6.40445 61.3564 6.01593Z" fill="#19998E"/>
<path d="M68.4397 0V11.8558H66.1756V0H68.4397Z" fill="#19998E"/>
<path d="M78.9353 8.0907H72.3857C72.4382 8.73155 72.6646 9.23222 73.0649 9.59671C73.4652 9.96119 73.9544 10.1414 74.5366 10.1414C75.3775 10.1414 75.9759 9.78496 76.3316 9.068H78.7736C78.5149 9.92114 78.0176 10.6261 77.2858 11.1748C76.554 11.7235 75.6524 11.9999 74.5851 11.9999C73.7239 11.9999 72.9477 11.8117 72.2644 11.4312C71.5811 11.0506 71.0475 10.5139 70.6634 9.82101C70.2793 9.12808 70.0893 8.32702 70.0893 7.4178C70.0893 6.50859 70.2793 5.6915 70.6553 4.99858C71.0313 4.30565 71.5609 3.76894 72.2401 3.39644C72.9194 3.02394 73.6997 2.83569 74.5851 2.83569C75.4705 2.83569 76.1982 3.01593 76.8734 3.38042C77.5486 3.74491 78.0701 4.25759 78.4421 4.92648C78.814 5.59537 79 6.36039 79 7.22555C79 7.54597 78.9798 7.83436 78.9353 8.0907ZM76.6551 6.58469C76.643 6.00792 76.4327 5.54731 76.0244 5.19884C75.616 4.85038 75.1147 4.67815 74.5204 4.67815C73.9584 4.67815 73.4894 4.84637 73.1053 5.18282C72.7213 5.51927 72.4868 5.9879 72.4019 6.58469H76.6551Z" fill="#19998E"/>
</g>
<defs>
<clipPath id="clip0_131_12436">
<rect width="79" height="12" fill="white"/>
</clipPath>
</defs>
</svg>
