<svg width="16" height="16" viewBox="0 0 16 16" fill="none" xmlns="http://www.w3.org/2000/svg">
<g id="Frame">
<path id="Vector" d="M2.04259 5.00626C3.13956 2.82744 5.39406 1.3335 8.00016 1.3335C9.7971 1.3335 11.3062 1.99413 12.4608 3.06986L10.5486 4.98199C9.85776 4.3214 8.9789 3.98501 8.00016 3.98501C6.26378 3.98501 4.79406 5.15774 4.26986 6.7335C4.1365 7.1335 4.06074 7.56076 4.06074 8.00016C4.06074 8.43956 4.1365 8.86683 4.26986 9.26683C4.79406 10.8426 6.26378 12.0153 8.00016 12.0153C8.8971 12.0153 9.66076 11.779 10.2578 11.379C10.9638 10.9062 11.4335 10.2002 11.588 9.36683H8.00016V6.78803H14.2789C14.3578 7.22436 14.4002 7.67896 14.4002 8.1517C14.4002 10.182 13.6729 11.891 12.4122 13.0517C11.3092 14.0699 9.80016 14.6668 8.00016 14.6668C5.39406 14.6668 3.13956 13.1729 2.04259 10.9941C1.59108 10.0941 1.3335 9.0759 1.3335 8.00016C1.3335 6.92443 1.59108 5.90624 2.04259 5.00626Z" fill="black"/>
</g>
</svg>
