<svg width="80" height="80" viewBox="0 0 80 80" fill="none" xmlns="http://www.w3.org/2000/svg">
<path d="M14.9161 65.083C21.3353 71.5014 30.2044 75.4719 39.9992 75.4719C49.7958 75.4719 58.6639 71.5014 65.0822 65.083C71.5016 58.6636 75.472 49.7956 75.472 39.9991C75.472 30.2041 71.5016 21.3353 65.0822 14.9159C58.6639 8.4975 49.7958 4.52703 39.9992 4.52703C30.2042 4.52703 21.3353 8.4975 14.9161 14.9159C8.49687 21.3353 4.52719 30.2042 4.52719 39.9991C4.52719 49.7956 8.49672 58.6636 14.9161 65.083ZM39.9992 0C62.0911 0 80 17.908 80 39.9991C80 62.0909 62.0911 79.9991 39.9992 79.9991C17.9081 79.9991 0 62.0909 0 39.9991C0 17.908 17.9081 0 39.9992 0Z" fill="#19998E"/>
<path fill-rule="evenodd" clip-rule="evenodd" d="M28.2555 24.9972C28.3717 31.2366 30.5941 37.3563 34.0363 40.6427C38.0147 44.9888 44.4111 43.6322 48.1058 38.6841C51.7077 33.8591 51.5444 29.9691 51.5444 24.2207C51.5444 18.6138 45.5802 14.5237 40.3158 16.0621C33.7882 14.6512 28.2555 17.9847 28.2555 24.9972ZM32.6 67.999C32.6 71.9607 26.8639 71.8918 26.8639 68.1727C26.8639 65.5197 28.2897 68.1919 26.8841 63.8074C25.5989 59.7966 25.1657 53.0646 26.3591 48.8966C26.5075 48.3787 26.815 47.5494 26.8639 46.9676C25.0922 47.1152 20.9724 48.7488 19.5624 49.7474C18.5017 50.4979 17.7838 51.1207 17.1861 52.4112C15.6049 55.8182 14.9305 60.9349 14.4919 64.8391C14.1642 67.7569 17.2158 67.9944 17.2158 71.2435C17.2158 72.0166 18.2938 72.981 19.1291 72.981L34.136 77.4705L50.7477 77.2416C51.2744 77.2416 57.2413 74.6722 57.4892 74.2626C58.0711 73.299 58.9132 74.2888 58.8292 73.2868C58.6842 71.5605 65.7675 69.2587 65.5264 67.576C65.4085 66.7599 65.3219 65.9755 65.2764 65.218C65.2222 64.3165 65.0414 63.5312 64.9594 62.7544C64.6336 59.688 64.0221 56.7082 63.0838 53.8541C62.0302 50.6541 60.5538 49.7604 57.6883 48.4718C56.8113 48.0769 54.4674 47.2251 53.4575 47.1413C53.9346 48.1354 53.4724 52.818 53.1097 53.5727C58.2316 56.2827 56.7544 59.3647 56.5858 62.9588C56.4783 65.2538 56.3264 71.9963 53.1097 71.9963C52.383 71.9963 50.6767 72.1841 50.6767 71.1279C50.6767 69.7476 51.3932 70.2438 52.5497 70.0463C53.3639 69.9082 53.4058 69.6104 53.5177 69.4505C54.3791 68.2127 54.5756 64.6354 54.6691 62.9535C54.7749 61.0377 55.3242 59.2129 54.6507 57.593C53.6975 55.2997 50.19 53.8593 47.6767 56.6566C46.9236 57.4943 46.6746 58.5679 46.2675 59.7657C45.3921 62.3419 44.0711 64.5435 44.0711 67.1302C44.0711 69.191 45.9835 67.6326 45.9835 69.7371C45.9835 71.2791 41.9858 70.2621 41.9858 67.3033C41.9858 65.2066 43.1424 62.4557 43.871 60.4987C44.1655 59.708 44.3847 59.1672 44.6581 58.3313C45.1447 56.8418 45.7055 55.6118 46.7732 54.7102C48.0783 53.6094 48.8802 53.2249 51.1971 53.2249C51.7544 50.8338 51.9292 48.8429 51.371 46.4466C50.0999 46.3401 48.7264 45.5013 47.5471 45.4035C47.3233 46.3644 46.8649 47.5508 46.5292 48.3833C45.4102 51.1623 44.638 52.8432 43.1283 55.4107L42.3333 56.7012C42.3333 55.6772 41.9419 54.2629 41.7619 53.0991C41.278 49.9568 41.6782 51.8115 42.1586 49.748C41.3522 49.2082 40.6105 48.3135 39.8994 47.8366C38.9769 48.3249 38.3899 49.1294 37.4655 49.748C38.5208 51.9468 38.1661 51.4454 37.7389 54.0191C37.5914 54.9083 37.3589 55.9069 37.2927 56.7012C37.2647 56.6696 37.2271 56.5769 37.2166 56.6032L36.5657 55.5165C35.1469 53.1551 32.4422 47.7004 32.2519 45.4035C31.7461 45.414 29.6414 45.9677 29.2921 46.4405C28.111 48.0315 27.44 54.1065 27.7064 56.5526C27.9728 58.9943 27.9502 61.1391 28.8717 63.5572C29.9166 66.2958 28.6874 64.7155 30.8714 65.5551C31.6321 65.8482 32.6 66.969 32.6 67.999Z" fill="#19998E"/>
</svg>
