<svg width="30" height="30" viewBox="0 0 30 30" fill="none" xmlns="http://www.w3.org/2000/svg">
<circle opacity="0.1" cx="15" cy="15" r="15" fill="#19998E"/>
<path fill-rule="evenodd" clip-rule="evenodd" d="M14.9999 8.33325C12.4199 8.33325 10.3333 10.4199 10.3333 12.9999C10.3333 15.7799 13.2799 19.6133 14.4933 21.0733C14.7599 21.3933 15.2466 21.3933 15.5133 21.0733C16.7199 19.6133 19.6666 15.7799 19.6666 12.9999C19.6666 10.4199 17.5799 8.33325 14.9999 8.33325ZM11.6666 12.9999C11.6666 11.1599 13.1599 9.66659 14.9999 9.66659C16.8399 9.66659 18.3333 11.1599 18.3333 12.9999C18.3333 14.9199 16.4133 17.7933 14.9999 19.5866C13.6133 17.8066 11.6666 14.8999 11.6666 12.9999ZM13.3333 12.9999C13.3333 13.9199 14.0799 14.6666 14.9999 14.6666C15.9199 14.6666 16.6666 13.9199 16.6666 12.9999C16.6666 12.0799 15.9199 11.3333 14.9999 11.3333C14.0799 11.3333 13.3333 12.0799 13.3333 12.9999Z" fill="#19998E"/>
</svg>
