<svg width="24" height="24" viewBox="0 0 24 24" fill="none" xmlns="http://www.w3.org/2000/svg">
<path d="M18.6 20.2499H5.4C4.5 20.2499 3.75 19.4999 3.75 18.5999V6.4874C3.75 5.5874 4.35 4.8374 5.1375 4.8374H5.9625V5.9249H5.1375C5.025 5.9249 4.875 6.1499 4.875 6.4874V18.5999C4.875 18.8999 5.1375 19.1624 5.4375 19.1624H18.6375C18.9375 19.1624 19.2 18.8999 19.2 18.5999V6.4874C19.2 6.1499 19.0125 5.9249 18.9375 5.9249H18.1125V4.8374H18.9375C19.6875 4.8374 20.325 5.5874 20.325 6.4874V18.5999C20.25 19.4999 19.5 20.2499 18.6 20.2499Z" fill="#19998E"/>
<path d="M7.6125 7.0499C7.3125 7.0499 7.05 6.7874 7.05 6.4874V4.2749C7.05 3.9749 7.3125 3.7124 7.6125 3.7124C7.9125 3.7124 8.175 3.9749 8.175 4.2749V6.4874C8.1375 6.7874 7.9125 7.0499 7.6125 7.0499Z" fill="#19998E"/>
<path d="M16.3875 7.0499C16.0875 7.0499 15.825 6.7874 15.825 6.4874V4.2749C15.825 3.9749 16.0875 3.7124 16.3875 3.7124C16.6875 3.7124 16.95 3.9749 16.95 4.2749V6.4874C16.95 6.7874 16.6875 7.0499 16.3875 7.0499Z" fill="#19998E"/>
<path d="M9.2625 4.8374H14.7375V5.9624H9.2625V4.8374Z" fill="#19998E"/>
<path d="M4.8375 8.13721H19.1625V9.26221H4.8375V8.13721Z" fill="#19998E"/>
<path d="M16.95 10.3501H18.0375V11.4376H16.95V10.3501Z" fill="#19998E"/>
<path d="M14.7375 10.3501H15.8625V11.4376H14.7375V10.3501Z" fill="#19998E"/>
<path d="M12.5625 10.3501H13.65V11.4376H12.5625V10.3501Z" fill="#19998E"/>
<path d="M10.35 10.3501H11.4375V11.4376H10.35V10.3501Z" fill="#19998E"/>
<path d="M8.1375 10.3501H9.2625V11.4376H8.1375V10.3501Z" fill="#19998E"/>
<path d="M16.95 12.5625H18.0375V13.65H16.95V12.5625Z" fill="#19998E"/>
<path d="M14.7375 12.5625H15.8625V13.65H14.7375V12.5625Z" fill="#19998E"/>
<path d="M12.5625 12.5625H13.65V13.65H12.5625V12.5625Z" fill="#19998E"/>
<path d="M10.35 12.5625H11.4375V13.65H10.35V12.5625Z" fill="#19998E"/>
<path d="M8.1375 12.5625H9.2625V13.65H8.1375V12.5625Z" fill="#19998E"/>
<path d="M5.9625 12.5625H7.05V13.65H5.9625V12.5625Z" fill="#19998E"/>
<path d="M16.95 14.7373H18.0375V15.8623H16.95V14.7373Z" fill="#19998E"/>
<path d="M14.7375 14.7373H15.8625V15.8623H14.7375V14.7373Z" fill="#19998E"/>
<path d="M12.5625 14.7373H13.65V15.8623H12.5625V14.7373Z" fill="#19998E"/>
<path d="M10.35 14.7373H11.4375V15.8623H10.35V14.7373Z" fill="#19998E"/>
<path d="M8.1375 14.7373H9.2625V15.8623H8.1375V14.7373Z" fill="#19998E"/>
<path d="M5.9625 14.7373H7.05V15.8623H5.9625V14.7373Z" fill="#19998E"/>
<path d="M14.7375 16.9497H15.8625V18.0372H14.7375V16.9497Z" fill="#19998E"/>
<path d="M12.5625 16.9497H13.65V18.0372H12.5625V16.9497Z" fill="#19998E"/>
<path d="M10.35 16.9497H11.4375V18.0372H10.35V16.9497Z" fill="#19998E"/>
<path d="M8.1375 16.9497H9.2625V18.0372H8.1375V16.9497Z" fill="#19998E"/>
<path d="M5.9625 16.9497H7.05V18.0372H5.9625V16.9497Z" fill="#19998E"/>
</svg>
