<svg width="24" height="24" viewBox="0 0 24 24" fill="none" xmlns="http://www.w3.org/2000/svg">
<path d="M11.7772 21H3.31823C4.30234 19.7508 4.83533 18.2056 4.83068 16.6154V3H17.8804V10.1799C17.8804 10.2794 17.9199 10.3748 17.9903 10.4451C18.0606 10.5154 18.156 10.5549 18.2554 10.5549C18.3549 10.5549 18.4503 10.5154 18.5206 10.4451C18.5909 10.3748 18.6304 10.2794 18.6304 10.1799V2.625C18.6304 2.57575 18.6207 2.52698 18.6019 2.48148C18.5831 2.43598 18.5554 2.39463 18.5206 2.35981C18.4858 2.32498 18.4444 2.29736 18.3989 2.27852C18.3534 2.25968 18.3047 2.24999 18.2554 2.25H4.45568C4.40643 2.24999 4.35766 2.25968 4.31216 2.27852C4.26665 2.29736 4.22531 2.32498 4.19049 2.35981C4.15566 2.39463 4.12804 2.43598 4.1092 2.48148C4.09036 2.52698 4.08067 2.57575 4.08068 2.625V16.6154C4.08299 17.4504 3.91965 18.2776 3.60014 19.0491C3.28062 19.8205 2.81126 20.521 2.21923 21.1099C2.16678 21.1623 2.13106 21.2291 2.11658 21.3019C2.10211 21.3746 2.10953 21.45 2.13792 21.5185C2.1663 21.587 2.21436 21.6456 2.27603 21.6868C2.3377 21.728 2.4102 21.75 2.48436 21.75H11.7772C11.8766 21.75 11.972 21.7105 12.0423 21.6402C12.1126 21.5698 12.1522 21.4745 12.1522 21.375C12.1522 21.2755 12.1126 21.1802 12.0423 21.1098C11.972 21.0395 11.8766 21 11.7772 21Z" fill="#19998E" stroke="#19998E" stroke-width="0.5"/>
<path d="M15.6572 6.97363H7.05469C6.95523 6.97363 6.85985 7.01314 6.78952 7.08347C6.7192 7.15379 6.67969 7.24918 6.67969 7.34863C6.67969 7.44809 6.7192 7.54347 6.78952 7.6138C6.85985 7.68412 6.95523 7.72363 7.05469 7.72363H15.6572C15.7566 7.72363 15.852 7.68412 15.9224 7.6138C15.9927 7.54347 16.0322 7.44809 16.0322 7.34863C16.0322 7.24918 15.9927 7.15379 15.9224 7.08347C15.852 7.01314 15.7566 6.97363 15.6572 6.97363Z" fill="#19998E" stroke="#19998E" stroke-width="0.5"/>
<path d="M16.0322 9.88916C16.0322 9.83991 16.0225 9.79114 16.0037 9.74564C15.9848 9.70014 15.9572 9.65879 15.9224 9.62397C15.8876 9.58914 15.8462 9.56152 15.8007 9.54268C15.7552 9.52384 15.7064 9.51415 15.6572 9.51416H7.05469C6.95523 9.51416 6.85985 9.55367 6.78952 9.624C6.7192 9.69432 6.67969 9.7897 6.67969 9.88916C6.67969 9.98862 6.7192 10.084 6.78952 10.1543C6.85985 10.2247 6.95523 10.2642 7.05469 10.2642H15.6572C15.7064 10.2642 15.7552 10.2545 15.8007 10.2356C15.8462 10.2168 15.8876 10.1892 15.9224 10.1544C15.9572 10.1195 15.9848 10.0782 16.0037 10.0327C16.0225 9.98718 16.0322 9.93841 16.0322 9.88916Z" fill="#19998E" stroke="#19998E" stroke-width="0.5"/>
<path d="M12.2932 12.4297C12.2932 12.3804 12.2835 12.3317 12.2646 12.2862C12.2458 12.2407 12.2182 12.1993 12.1833 12.1645C12.1485 12.1297 12.1072 12.102 12.0617 12.0832C12.0162 12.0644 11.9674 12.0547 11.9182 12.0547H7.05469C6.95523 12.0547 6.85985 12.0942 6.78952 12.1645C6.7192 12.2348 6.67969 12.3302 6.67969 12.4297C6.67969 12.5291 6.7192 12.6245 6.78952 12.6949C6.85985 12.7652 6.95523 12.8047 7.05469 12.8047H11.9182C11.9674 12.8047 12.0162 12.795 12.0617 12.7762C12.1072 12.7573 12.1485 12.7297 12.1833 12.6949C12.2182 12.6601 12.2458 12.6187 12.2646 12.5732C12.2835 12.5277 12.2932 12.4789 12.2932 12.4297Z" fill="#19998E" stroke="#19998E" stroke-width="0.5"/>
<path d="M7.05469 14.5957C6.95523 14.5957 6.85985 14.6352 6.78952 14.7055C6.7192 14.7759 6.67969 14.8712 6.67969 14.9707C6.67969 15.0702 6.7192 15.1655 6.78952 15.2359C6.85985 15.3062 6.95523 15.3457 7.05469 15.3457H10.1135C10.2129 15.3457 10.3083 15.3062 10.3786 15.2359C10.449 15.1655 10.4885 15.0702 10.4885 14.9707C10.4885 14.8712 10.449 14.7759 10.3786 14.7055C10.3083 14.6352 10.2129 14.5957 10.1135 14.5957H7.05469Z" fill="#19998E" stroke="#19998E" stroke-width="0.5"/>
<path d="M20.4723 13.4748C19.8451 12.8464 19.0572 12.4026 18.1948 12.1918C17.3323 11.9809 16.4285 12.0112 15.5822 12.2793C14.7358 12.5474 13.9794 13.043 13.3956 13.7119C12.8119 14.3808 12.4232 15.1973 12.2722 16.0722L11.9742 15.7742C11.9039 15.7039 11.8085 15.6644 11.709 15.6644C11.6096 15.6644 11.5142 15.7039 11.4439 15.7742C11.3736 15.8445 11.3341 15.9399 11.3341 16.0394C11.3341 16.1388 11.3736 16.2342 11.4439 16.3045L12.3068 17.1674C12.3773 17.2375 12.4727 17.2769 12.5722 17.2769C12.6717 17.2769 12.7671 17.2375 12.8376 17.1674L13.7007 16.3045C13.771 16.2342 13.8105 16.1388 13.8105 16.0394C13.8105 15.9399 13.771 15.8445 13.7007 15.7742C13.6304 15.7039 13.535 15.6644 13.4355 15.6644C13.3361 15.6644 13.2407 15.7039 13.1704 15.7742L13.0852 15.8594C13.3158 14.9875 13.8278 14.2161 14.5418 13.6651C15.2557 13.1141 16.1316 12.8143 17.0335 12.8121C17.9353 12.81 18.8126 13.1057 19.5292 13.6534C20.2457 14.201 20.7614 14.97 20.996 15.8407C21.2307 16.7115 21.1713 17.6354 20.827 18.469C20.4827 19.3025 19.8729 19.9991 19.0921 20.4504C18.3113 20.9018 17.4034 21.0827 16.5092 20.9651C15.6151 20.8475 14.7848 20.4379 14.1473 19.8C14.077 19.7297 13.9816 19.6901 13.8821 19.6901C13.7827 19.6901 13.6873 19.7297 13.617 19.8C13.5467 19.8703 13.5072 19.9657 13.5072 20.0651C13.5072 20.1646 13.5467 20.2599 13.617 20.3302C14.5263 21.2386 15.759 21.7487 17.0442 21.7483C18.3295 21.748 19.5619 21.2373 20.4707 20.3285C21.3795 19.4197 21.8902 18.1872 21.8905 16.902C21.8908 15.6167 21.3806 14.384 20.4723 13.4748Z" fill="#19998E" stroke="#19998E" stroke-width="0.5"/>
<path d="M17.0447 13.6558C16.9955 13.6557 16.9467 13.6654 16.9012 13.6843C16.8557 13.7031 16.8144 13.7307 16.7795 13.7656C16.7447 13.8004 16.7171 13.8417 16.6982 13.8872C16.6794 13.9327 16.6697 13.9815 16.6697 14.0308V16.9026C16.6703 17.0021 16.7099 17.0974 16.7799 17.1681L18.139 18.5271C18.2094 18.5967 18.3046 18.6355 18.4036 18.6352C18.5026 18.6349 18.5975 18.5954 18.6675 18.5254C18.7375 18.4554 18.777 18.3605 18.7773 18.2615C18.7777 18.1625 18.7388 18.0673 18.6692 17.9969L17.4197 16.7473V14.0308C17.4197 13.9815 17.4101 13.9327 17.3912 13.8872C17.3724 13.8417 17.3447 13.8004 17.3099 13.7656C17.2751 13.7307 17.2338 13.7031 17.1883 13.6843C17.1427 13.6654 17.094 13.6557 17.0447 13.6558Z" fill="#19998E" stroke="#19998E" stroke-width="0.5"/>
</svg>
