<svg width="166" height="26" viewBox="0 0 166 26" fill="none" xmlns="http://www.w3.org/2000/svg">
<path d="M0 7.0864C0 6.30777 0.145445 5.57726 0.436336 4.89487C0.727226 4.21247 1.12078 3.61756 1.61701 3.11014C2.12179 2.59397 2.70785 2.18716 3.37518 1.88971C4.04252 1.59225 4.75691 1.44353 5.51836 1.44353H13.9627V5.20982H5.51836C5.26169 5.20982 5.02214 5.25794 4.79969 5.35417C4.57725 5.45041 4.38047 5.58601 4.20935 5.76098C4.0468 5.92721 3.91846 6.12405 3.82435 6.35152C3.73024 6.57898 3.68319 6.82394 3.68319 7.0864C3.68319 7.34886 3.73024 7.5982 3.82435 7.83441C3.91846 8.06188 4.0468 8.26309 4.20935 8.43807C4.38047 8.60429 4.57725 8.73552 4.79969 8.83176C5.02214 8.92799 5.26169 8.97611 5.51836 8.97611H9.20155C9.96299 8.97611 10.6774 9.12484 11.3447 9.42229C12.0206 9.711 12.6067 10.1134 13.1029 10.6296C13.6077 11.137 14.0012 11.7363 14.2836 12.4274C14.5745 13.1098 14.7199 13.8404 14.7199 14.619C14.7199 15.3976 14.5745 16.1281 14.2836 16.8105C14.0012 17.4929 13.6077 18.0922 13.1029 18.6084C12.6067 19.1158 12.0206 19.5182 11.3447 19.8157C10.6774 20.1131 9.96299 20.2619 9.20155 20.2619H1.02667V16.4956H9.20155C9.45821 16.4956 9.69777 16.4475 9.92022 16.3512C10.1427 16.255 10.3352 16.1238 10.4977 15.9575C10.6688 15.7826 10.8014 15.5813 10.8956 15.3539C10.9897 15.1264 11.0367 14.8814 11.0367 14.619C11.0367 14.3565 10.9897 14.1116 10.8956 13.8841C10.8014 13.6566 10.6688 13.4598 10.4977 13.2936C10.3352 13.1186 10.1427 12.983 9.92022 12.8868C9.69777 12.7905 9.45821 12.7424 9.20155 12.7424H5.51836C4.75691 12.7424 4.04252 12.5937 3.37518 12.2962C2.70785 11.9988 2.12179 11.5963 1.61701 11.0889C1.12078 10.5727 0.727226 9.97345 0.436336 9.29106C0.145445 8.59992 0 7.86503 0 7.0864Z" fill="#2C5D86"/>
<path d="M20.3024 20.2619H16.7733V0.616779H20.3024V13.0049L25.5256 6.23341H29.5553L24.9995 12.0863L29.5553 20.2619H25.5256L22.7408 15.157L20.3024 18.464V20.2619Z" fill="#2C5D86"/>
<path d="M34.2523 25.616V22.0072L36.203 22.0335C36.5452 22.0335 36.8746 21.9766 37.1912 21.8629C37.5077 21.7491 37.7986 21.5917 38.0639 21.3904C38.3376 21.1892 38.5772 20.9486 38.7825 20.6687C38.9879 20.3975 39.1547 20.1 39.283 19.7763C38.898 19.9425 38.5045 20.1088 38.1024 20.275C37.7088 20.4412 37.311 20.5243 36.9089 20.5243C36.0618 20.5243 35.2662 20.3712 34.5218 20.065C33.7775 19.7588 33.123 19.3258 32.5583 18.7658C32.0022 18.1972 31.5616 17.5104 31.2365 16.7055C30.9199 15.8919 30.7617 14.9821 30.7617 13.976V6.20716H34.2523V13.976C34.2523 14.4746 34.3208 14.9121 34.4577 15.2883C34.6031 15.6557 34.7956 15.9663 35.0352 16.22C35.2747 16.4649 35.5528 16.6487 35.8693 16.7712C36.1945 16.8936 36.541 16.9549 36.9089 16.9549C37.2682 16.9549 37.6061 16.8718 37.9227 16.7055C38.2478 16.5306 38.5301 16.3031 38.7697 16.0231C39.0093 15.7432 39.1975 15.4282 39.3344 15.0783C39.4713 14.7196 39.5397 14.3522 39.5397 13.976V6.20716H43.0689V18.4903C43.0603 19.4789 42.8721 20.4062 42.5042 21.2723C42.1363 22.1384 41.6315 22.8952 40.9899 23.5426C40.3568 24.19 39.6167 24.7018 38.7697 25.078C37.9227 25.4542 37.0158 25.6423 36.049 25.6423L34.2523 25.616Z" fill="#2C5D86"/>
<path d="M64.321 12.7424V8.97611C64.321 8.45994 64.2226 7.97439 64.0258 7.51946C63.8376 7.05578 63.5767 6.65334 63.243 6.31215C62.9093 5.97095 62.5158 5.70412 62.0623 5.51165C61.6174 5.31043 61.1426 5.20982 60.6378 5.20982C60.133 5.20982 59.6539 5.31043 59.2005 5.51165C58.7556 5.70412 58.3663 5.97095 58.0326 6.31215C57.699 6.65334 57.4337 7.05578 57.237 7.51946C57.0487 7.97439 56.9546 8.45994 56.9546 8.97611V12.7424H64.321ZM68.0042 20.2619H64.321V16.4956H56.9546V20.2619H53.2843V8.97611C53.2843 7.93502 53.4768 6.95955 53.8618 6.04969C54.2468 5.13108 54.7687 4.33058 55.4274 3.64818C56.0948 2.96579 56.8733 2.42775 57.7631 2.03406C58.6615 1.64037 59.6197 1.44353 60.6378 1.44353C61.6559 1.44353 62.6099 1.64037 63.4997 2.03406C64.398 2.42775 65.1808 2.96579 65.8482 3.64818C66.5155 4.33058 67.0417 5.13108 67.4267 6.04969C67.8117 6.95955 68.0042 7.93502 68.0042 8.97611V20.2619Z" fill="#2C5D86"/>
<path d="M74.331 20.2619H70.8275V6.20716H71.6745L72.8295 7.57195C73.3942 7.04703 74.0316 6.6446 74.7417 6.36464C75.4604 6.07593 76.209 5.93158 76.9876 5.93158C77.826 5.93158 78.6174 6.09781 79.3617 6.43025C80.1061 6.75395 80.7563 7.20451 81.3124 7.78192C81.8685 8.35058 82.3049 9.01985 82.6214 9.78973C82.9465 10.5509 83.1091 11.3645 83.1091 12.2306V20.2619H79.6056V12.2306C79.6056 11.8632 79.5371 11.5176 79.4002 11.1939C79.2633 10.8614 79.0751 10.5727 78.8356 10.3278C78.596 10.0828 78.318 9.89034 78.0014 9.75037C77.6848 9.61039 77.3469 9.5404 76.9876 9.5404C76.6197 9.5404 76.2732 9.61039 75.9481 9.75037C75.6229 9.89034 75.3406 10.0828 75.1011 10.3278C74.8615 10.5727 74.6733 10.8614 74.5364 11.1939C74.3995 11.5176 74.331 11.8632 74.331 12.2306V20.2619Z" fill="#2C5D86"/>
<path d="M98.9198 20.2619H98.0728L96.7125 18.3328C96.3788 18.639 96.0238 18.9277 95.6473 19.1989C95.2794 19.4614 94.8901 19.6932 94.4795 19.8944C94.0688 20.0869 93.6453 20.24 93.209 20.3537C92.7812 20.4675 92.3449 20.5243 91.9 20.5243C90.9332 20.5243 90.022 20.3581 89.1665 20.0256C88.3194 19.6932 87.5751 19.212 86.9334 18.5821C86.3003 17.9435 85.7998 17.1648 85.4319 16.2462C85.064 15.3276 84.8801 14.2822 84.8801 13.1098C84.8801 12.0163 85.064 11.0145 85.4319 10.1047C85.7998 9.18608 86.3003 8.3987 86.9334 7.74255C87.5751 7.0864 88.3194 6.57898 89.1665 6.22029C90.022 5.85284 90.9332 5.66912 91.9 5.66912C92.3449 5.66912 92.7855 5.72599 93.2218 5.83972C93.6581 5.95345 94.0816 6.11093 94.4923 6.31215C94.903 6.51337 95.2923 6.74958 95.6602 7.02079C96.0366 7.292 96.3874 7.58508 96.7125 7.90003L98.0728 6.23341H98.9198V20.2619ZM95.3907 13.1098C95.3907 12.6199 95.2965 12.1475 95.1083 11.6926C94.9286 11.2289 94.6805 10.8221 94.364 10.4721C94.0474 10.1134 93.6753 9.8291 93.2475 9.61913C92.8282 9.40042 92.3791 9.29106 91.9 9.29106C91.4209 9.29106 90.9674 9.37417 90.5396 9.5404C90.1204 9.70662 89.7525 9.95158 89.436 10.2753C89.1279 10.599 88.8841 11.0014 88.7045 11.4826C88.5248 11.955 88.435 12.4974 88.435 13.1098C88.435 13.7222 88.5248 14.269 88.7045 14.7502C88.8841 15.2226 89.1279 15.6207 89.436 15.9444C89.7525 16.2681 90.1204 16.5131 90.5396 16.6793C90.9674 16.8455 91.4209 16.9286 91.9 16.9286C92.3791 16.9286 92.8282 16.8236 93.2475 16.6137C93.6753 16.395 94.0474 16.1106 94.364 15.7607C94.6805 15.402 94.9286 14.9952 95.1083 14.5402C95.2965 14.0766 95.3907 13.5998 95.3907 13.1098Z" fill="#2C5D86"/>
<path d="M105.131 20.2619H101.602V0.616779H105.131V20.2619Z" fill="#2C5D86"/>
<path d="M111.124 25.616V22.0072L113.075 22.0335C113.417 22.0335 113.747 21.9766 114.063 21.8629C114.38 21.7491 114.671 21.5917 114.936 21.3904C115.21 21.1892 115.449 20.9486 115.655 20.6687C115.86 20.3975 116.027 20.1 116.155 19.7763C115.77 19.9425 115.377 20.1088 114.974 20.275C114.581 20.4412 114.183 20.5243 113.781 20.5243C112.934 20.5243 112.138 20.3712 111.394 20.065C110.65 19.7588 109.995 19.3258 109.43 18.7658C108.874 18.1972 108.434 17.5104 108.109 16.7055C107.792 15.8919 107.634 14.9821 107.634 13.976V6.20716H111.124V13.976C111.124 14.4746 111.193 14.9121 111.33 15.2883C111.475 15.6557 111.668 15.9663 111.907 16.22C112.147 16.4649 112.425 16.6487 112.741 16.7712C113.067 16.8936 113.413 16.9549 113.781 16.9549C114.14 16.9549 114.478 16.8718 114.795 16.7055C115.12 16.5306 115.402 16.3031 115.642 16.0231C115.881 15.7432 116.07 15.4282 116.206 15.0783C116.343 14.7196 116.412 14.3522 116.412 13.976V6.20716H119.941V18.4903C119.932 19.4789 119.744 20.4062 119.376 21.2723C119.008 22.1384 118.504 22.8952 117.862 23.5426C117.229 24.19 116.489 24.7018 115.642 25.078C114.795 25.4542 113.888 25.6423 112.921 25.6423L111.124 25.616Z" fill="#2C5D86"/>
<path d="M129.515 20.2619C128.668 20.2619 127.872 20.1 127.128 19.7763C126.383 19.4439 125.729 18.9933 125.164 18.4246C124.608 17.8472 124.167 17.178 123.842 16.4168C123.526 15.6557 123.367 14.8421 123.367 13.976V9.80286H121.661V6.23341H123.367V0.616779H126.858V6.23341H132.171V9.80286H126.858V13.976C126.858 14.3522 126.927 14.7065 127.063 15.0389C127.2 15.3626 127.389 15.647 127.628 15.8919C127.868 16.1369 128.15 16.3337 128.475 16.4824C128.8 16.6224 129.147 16.6924 129.515 16.6924H132.171V20.2619H129.515Z" fill="#2C5D86"/>
<path d="M138.28 2.38838C138.28 2.72083 138.216 3.03141 138.087 3.32011C137.968 3.60882 137.801 3.86253 137.587 4.08124C137.373 4.29121 137.121 4.46181 136.83 4.59304C136.547 4.71552 136.244 4.77676 135.919 4.77676C135.593 4.77676 135.285 4.71552 134.995 4.59304C134.712 4.46181 134.464 4.29121 134.25 4.08124C134.045 3.86253 133.878 3.60882 133.75 3.32011C133.63 3.03141 133.57 2.72083 133.57 2.38838C133.57 2.06468 133.63 1.75848 133.75 1.46977C133.878 1.17232 134.045 0.918608 134.25 0.70864C134.464 0.489924 134.712 0.319326 134.995 0.196845C135.285 0.0656148 135.593 0 135.919 0C136.244 0 136.547 0.0656148 136.83 0.196845C137.121 0.319326 137.373 0.489924 137.587 0.70864C137.801 0.918608 137.968 1.17232 138.087 1.46977C138.216 1.75848 138.28 2.06468 138.28 2.38838ZM137.677 20.2619H134.148V6.20716H137.677V20.2619Z" fill="#2C5D86"/>
<path d="M152.371 9.00236L149.804 11.6401C149.676 11.2726 149.501 10.9446 149.278 10.6558C149.056 10.3584 148.803 10.1091 148.521 9.90784C148.247 9.70662 147.948 9.55352 147.623 9.44854C147.297 9.34355 146.964 9.29106 146.622 9.29106C146.142 9.29106 145.689 9.39167 145.261 9.59289C144.842 9.79411 144.474 10.0784 144.158 10.4459C143.85 10.8046 143.606 11.2333 143.426 11.7319C143.246 12.2306 143.157 12.7818 143.157 13.3854C143.157 13.8754 143.246 14.3347 143.426 14.7633C143.606 15.192 143.85 15.5682 144.158 15.8919C144.474 16.2156 144.842 16.4693 145.261 16.653C145.689 16.8368 146.142 16.9286 146.622 16.9286C146.964 16.9286 147.293 16.8805 147.61 16.7843C147.926 16.688 148.221 16.5524 148.495 16.3775C148.778 16.1937 149.026 15.975 149.24 15.7213C149.462 15.4589 149.642 15.1702 149.779 14.8552L152.345 17.4929C152.02 17.9653 151.644 18.3897 151.216 18.7658C150.797 19.142 150.339 19.4614 149.843 19.7238C149.355 19.9863 148.837 20.1831 148.29 20.3144C147.751 20.4543 147.195 20.5243 146.622 20.5243C145.655 20.5243 144.744 20.3406 143.888 19.9732C143.041 19.597 142.297 19.0852 141.655 18.4378C141.022 17.7904 140.521 17.0336 140.154 16.1675C139.786 15.3014 139.602 14.374 139.602 13.3854C139.602 12.3093 139.786 11.3032 140.154 10.3671C140.521 9.43104 141.022 8.61742 141.655 7.92627C142.297 7.22638 143.041 6.67522 143.888 6.27278C144.744 5.87034 145.655 5.66912 146.622 5.66912C147.195 5.66912 147.755 5.74348 148.303 5.89221C148.859 6.04094 149.385 6.25966 149.881 6.54836C150.386 6.82832 150.848 7.17389 151.267 7.58507C151.695 7.99626 152.063 8.46869 152.371 9.00236Z" fill="#2C5D86"/>
<path d="M161.637 20.2619H153.629V16.6924H161.637C161.876 16.6924 162.082 16.6049 162.253 16.43C162.424 16.255 162.509 16.045 162.509 15.8001C162.509 15.5463 162.424 15.3801 162.253 15.3014C162.082 15.2226 161.876 15.1833 161.637 15.1833H157.992C157.385 15.1833 156.816 15.0652 156.285 14.829C155.755 14.5927 155.293 14.2734 154.899 13.871C154.506 13.4598 154.193 12.983 153.962 12.4406C153.74 11.8982 153.629 11.3164 153.629 10.6952C153.629 10.0741 153.74 9.49228 153.962 8.94986C154.193 8.40745 154.506 7.93502 154.899 7.53258C155.293 7.13015 155.755 6.81519 156.285 6.58773C156.816 6.35152 157.385 6.23341 157.992 6.23341H165.089V9.80286H157.992C157.752 9.80286 157.547 9.89034 157.376 10.0653C157.205 10.2403 157.119 10.4503 157.119 10.6952C157.119 10.9489 157.205 11.1676 157.376 11.3514C157.547 11.5263 157.752 11.6138 157.992 11.6138H161.637C162.236 11.6138 162.8 11.7188 163.331 11.9288C163.861 12.13 164.323 12.4143 164.717 12.7818C165.11 13.1492 165.423 13.591 165.654 14.1072C165.885 14.6234 166 15.1876 166 15.8001C166 16.4212 165.885 17.003 165.654 17.5454C165.423 18.0791 165.11 18.5515 164.717 18.9627C164.323 19.3651 163.861 19.6845 163.331 19.9207C162.8 20.1481 162.236 20.2619 161.637 20.2619Z" fill="#2C5D86"/>
</svg>
