<svg width="30" height="30" viewBox="0 0 30 30" fill="none" xmlns="http://www.w3.org/2000/svg">
<circle opacity="0.1" cx="15" cy="15" r="15" fill="#2C5D86"/>
<path fill-rule="evenodd" clip-rule="evenodd" d="M14.9987 8.3335C12.4187 8.3335 10.332 10.4202 10.332 13.0002C10.332 15.7802 13.2787 19.6135 14.492 21.0735C14.7587 21.3935 15.2454 21.3935 15.512 21.0735C16.7187 19.6135 19.6654 15.7802 19.6654 13.0002C19.6654 10.4202 17.5787 8.3335 14.9987 8.3335ZM11.666 13.0001C11.666 11.1601 13.1593 9.66675 14.9993 9.66675C16.8393 9.66675 18.3327 11.1601 18.3327 13.0001C18.3327 14.9201 16.4127 17.7934 14.9993 19.5867C13.6127 17.8067 11.666 14.9001 11.666 13.0001ZM13.332 13.0002C13.332 13.9202 14.0787 14.6668 14.9987 14.6668C15.9187 14.6668 16.6654 13.9202 16.6654 13.0002C16.6654 12.0802 15.9187 11.3335 14.9987 11.3335C14.0787 11.3335 13.332 12.0802 13.332 13.0002Z" fill="#2C5D86"/>
</svg>
