<svg width="395" height="200" viewBox="0 0 395 200" fill="none" xmlns="http://www.w3.org/2000/svg">
<path d="M214.724 5.31858C214.724 2.38121 212.343 0 209.406 0C206.468 0 204.087 2.38121 204.087 5.31858V15.4598C204.087 18.3971 206.468 20.7783 209.406 20.7783C212.343 20.7783 214.724 18.3971 214.724 15.4598V5.31858Z" fill="#2C5D86"/>
<path d="M237.452 57.3624C237.915 55.3147 238.159 53.1842 238.159 50.9966C238.159 35.115 225.285 22.2404 209.403 22.2404C197.938 22.2404 188.04 28.9498 183.422 38.6564C179.784 37.5973 175.998 37.0562 172.174 37.064C161.573 37.064 151.406 41.2752 143.91 48.7712C136.414 56.2672 132.203 66.4339 132.203 77.0348C132.203 87.6358 136.414 97.8025 143.91 105.299C151.406 112.794 161.573 117.006 172.174 117.006L222.981 116.87C223.414 116.875 223.845 116.87 224.276 116.857C228.796 116.735 233.239 115.639 237.302 113.638C241.632 111.506 245.412 108.405 248.349 104.575C251.286 100.745 253.301 96.2896 254.238 91.5548C255.174 86.8201 255.006 81.9332 253.748 77.2738C252.489 72.6143 250.173 68.3076 246.981 64.688C244.301 61.6501 241.064 59.1648 237.452 57.3624Z" fill="#2C5D86"/>
<path d="M239.624 50.994C239.624 48.0566 242.005 45.6754 244.943 45.6754H255.084C258.021 45.6754 260.402 48.0566 260.402 50.994C260.402 53.9314 258.021 56.3126 255.084 56.3126H244.943C242.005 56.3126 239.624 53.9314 239.624 50.994Z" fill="#2C5D86"/>
<path d="M180.871 14.9373C178.794 12.8603 175.426 12.8603 173.349 14.9373C171.272 17.0144 171.272 20.3819 173.349 22.459L180.521 29.6309C182.598 31.7079 185.966 31.7079 188.043 29.6309C190.12 27.5538 190.12 24.1863 188.043 22.1093L180.871 14.9373Z" fill="#2C5D86"/>
<path d="M245.461 14.9373C247.539 17.0144 247.539 20.3819 245.461 22.459L238.29 29.6309C236.213 31.7079 232.845 31.7079 230.768 29.6309C228.691 27.5538 228.691 24.1863 230.768 22.1093L237.94 14.9373C240.017 12.8603 243.384 12.8603 245.461 14.9373Z" fill="#2C5D86"/>
<path d="M0 155.845C0 153.993 0.346093 152.254 1.03828 150.631C1.73047 149.007 2.66695 147.591 3.84774 146.384C5.04889 145.156 6.44344 144.187 8.0314 143.48C9.61936 142.772 11.3193 142.418 13.1312 142.418H33.225V151.38H13.1312C12.5204 151.38 11.9504 151.495 11.4211 151.724C10.8918 151.953 10.4235 152.275 10.0163 152.692C9.62954 153.087 9.32416 153.556 9.10022 154.097C8.87628 154.638 8.76431 155.221 8.76431 155.845C8.76431 156.47 8.87628 157.063 9.10022 157.625C9.32416 158.167 9.62954 158.645 10.0163 159.062C10.4235 159.457 10.8918 159.77 11.4211 159.999C11.9504 160.228 12.5204 160.342 13.1312 160.342H21.8955C23.7074 160.342 25.4073 160.696 26.9953 161.404C28.6036 162.091 29.9981 163.048 31.1789 164.277C32.3801 165.484 33.3166 166.91 33.9884 168.555C34.6806 170.179 35.0267 171.917 35.0267 173.77C35.0267 175.622 34.6806 177.361 33.9884 178.984C33.3166 180.608 32.3801 182.034 31.1789 183.262C29.9981 184.47 28.6036 185.428 26.9953 186.135C25.4073 186.843 23.7074 187.197 21.8955 187.197H2.44301V178.235H21.8955C22.5062 178.235 23.0763 178.12 23.6056 177.892C24.1349 177.663 24.593 177.35 24.9798 176.955C25.387 176.538 25.7025 176.06 25.9265 175.518C26.1504 174.977 26.2624 174.394 26.2624 173.77C26.2624 173.145 26.1504 172.562 25.9265 172.021C25.7025 171.48 25.387 171.011 24.9798 170.616C24.593 170.199 24.1349 169.877 23.6056 169.648C23.0763 169.419 22.5062 169.304 21.8955 169.304H13.1312C11.3193 169.304 9.61936 168.95 8.0314 168.242C6.44344 167.535 5.04889 166.577 3.84774 165.37C2.66695 164.141 1.73047 162.715 1.03828 161.092C0.346093 159.447 0 157.698 0 155.845Z" fill="#2C5D86"/>
<path d="M48.3106 187.197H39.9127V140.451H48.3106V169.929L60.7394 153.816H70.3282L59.4873 167.743L70.3282 187.197H60.7394L54.1127 175.05L48.3106 182.919V187.197Z" fill="#2C5D86"/>
<path d="M81.505 199.938V191.35L86.1467 191.413C86.961 191.413 87.7448 191.277 88.4981 191.007C89.2514 190.736 89.9436 190.361 90.5747 189.883C91.2261 189.404 91.7962 188.831 92.2848 188.165C92.7734 187.52 93.1704 186.812 93.4757 186.042C92.5596 186.437 91.6231 186.833 90.6663 187.228C89.7298 187.624 88.7831 187.822 87.8263 187.822C85.8108 187.822 83.9175 187.457 82.1463 186.729C80.3751 186 78.8177 184.97 77.474 183.637C76.1507 182.284 75.1023 180.65 74.3286 178.735C73.5754 176.799 73.1987 174.634 73.1987 172.239V153.753H81.505V172.239C81.505 173.426 81.6678 174.467 81.9936 175.362C82.3397 176.236 82.7977 176.976 83.3678 177.579C83.9378 178.162 84.5995 178.599 85.3527 178.891C86.1263 179.182 86.9509 179.328 87.8263 179.328C88.6813 179.328 89.4855 179.13 90.2387 178.735C91.0124 178.318 91.6842 177.777 92.2542 177.111C92.8243 176.445 93.2722 175.695 93.5979 174.863C93.9236 174.009 94.0865 173.135 94.0865 172.239V153.753H102.484V182.981C102.464 185.334 102.016 187.541 101.141 189.602C100.265 191.662 99.0641 193.463 97.5372 195.004C96.0307 196.544 94.2697 197.762 92.2542 198.657C90.2387 199.552 88.0808 200 85.7803 200L81.505 199.938Z" fill="#2C5D86"/>
<path d="M153.055 169.304V160.342C153.055 159.114 152.821 157.958 152.352 156.876C151.904 155.773 151.283 154.815 150.49 154.003C149.696 153.191 148.759 152.556 147.68 152.098C146.621 151.619 145.492 151.38 144.29 151.38C143.089 151.38 141.949 151.619 140.87 152.098C139.812 152.556 138.885 153.191 138.091 154.003C137.297 154.815 136.666 155.773 136.198 156.876C135.75 157.958 135.526 159.114 135.526 160.342V169.304H153.055ZM161.819 187.197H153.055V178.235H135.526V187.197H126.792V160.342C126.792 157.865 127.25 155.544 128.167 153.379C129.083 151.193 130.324 149.288 131.892 147.664C133.48 146.04 135.333 144.76 137.45 143.823C139.588 142.886 141.868 142.418 144.29 142.418C146.713 142.418 148.983 142.886 151.1 143.823C153.238 144.76 155.101 146.04 156.689 147.664C158.277 149.288 159.529 151.193 160.445 153.379C161.361 155.544 161.819 157.865 161.819 160.342V187.197Z" fill="#2C5D86"/>
<path d="M176.874 187.197H168.537V153.753H170.553L173.301 157.001C174.645 155.752 176.162 154.794 177.851 154.128C179.561 153.441 181.343 153.098 183.195 153.098C185.19 153.098 187.074 153.493 188.845 154.284C190.616 155.054 192.163 156.126 193.487 157.5C194.81 158.854 195.848 160.446 196.601 162.278C197.375 164.089 197.762 166.025 197.762 168.086V187.197H189.425V168.086C189.425 167.212 189.262 166.39 188.936 165.619C188.611 164.828 188.163 164.141 187.593 163.558C187.023 162.976 186.361 162.518 185.608 162.184C184.855 161.851 184.05 161.685 183.195 161.685C182.32 161.685 181.495 161.851 180.722 162.184C179.948 162.518 179.276 162.976 178.706 163.558C178.136 164.141 177.688 164.828 177.363 165.619C177.037 166.39 176.874 167.212 176.874 168.086V187.197Z" fill="#2C5D86"/>
<path d="M235.384 187.197H233.369L230.132 182.607C229.338 183.335 228.493 184.022 227.597 184.668C226.722 185.292 225.795 185.844 224.818 186.323C223.841 186.781 222.833 187.145 221.795 187.416C220.777 187.686 219.739 187.822 218.68 187.822C216.38 187.822 214.211 187.426 212.176 186.635C210.16 185.844 208.389 184.699 206.862 183.2C205.356 181.68 204.165 179.828 203.289 177.642C202.414 175.456 201.976 172.968 201.976 170.179C201.976 167.576 202.414 165.193 203.289 163.028C204.165 160.842 205.356 158.968 206.862 157.407C208.389 155.845 210.16 154.638 212.176 153.784C214.211 152.91 216.38 152.473 218.68 152.473C219.739 152.473 220.787 152.608 221.825 152.879C222.864 153.15 223.871 153.524 224.849 154.003C225.826 154.482 226.752 155.044 227.628 155.689C228.523 156.335 229.358 157.032 230.132 157.782L233.369 153.816H235.384V187.197ZM226.986 170.179C226.986 169.013 226.762 167.889 226.315 166.806C225.887 165.703 225.297 164.735 224.543 163.902C223.79 163.048 222.904 162.372 221.887 161.872C220.889 161.352 219.82 161.092 218.68 161.092C217.54 161.092 216.461 161.289 215.443 161.685C214.446 162.08 213.57 162.663 212.817 163.434C212.084 164.204 211.504 165.161 211.076 166.306C210.649 167.431 210.435 168.721 210.435 170.179C210.435 171.636 210.649 172.937 211.076 174.082C211.504 175.206 212.084 176.153 212.817 176.923C213.57 177.694 214.446 178.277 215.443 178.672C216.461 179.068 217.54 179.265 218.68 179.265C219.82 179.265 220.889 179.016 221.887 178.516C222.904 177.996 223.79 177.319 224.543 176.486C225.297 175.633 225.887 174.665 226.315 173.582C226.762 172.479 226.986 171.344 226.986 170.179Z" fill="#2C5D86"/>
<path d="M250.164 187.197H241.767V140.451H250.164V187.197Z" fill="#2C5D86"/>
<path d="M264.425 199.938V191.35L269.067 191.413C269.882 191.413 270.665 191.277 271.419 191.007C272.172 190.736 272.864 190.361 273.495 189.883C274.147 189.404 274.717 188.831 275.205 188.165C275.694 187.52 276.091 186.812 276.396 186.042C275.48 186.437 274.544 186.833 273.587 187.228C272.65 187.624 271.704 187.822 270.747 187.822C268.731 187.822 266.838 187.457 265.067 186.729C263.296 186 261.738 184.97 260.395 183.637C259.071 182.284 258.023 180.65 257.249 178.735C256.496 176.799 256.119 174.634 256.119 172.239V153.753H264.425V172.239C264.425 173.426 264.588 174.467 264.914 175.362C265.26 176.236 265.718 176.976 266.288 177.579C266.858 178.162 267.52 178.599 268.273 178.891C269.047 179.182 269.871 179.328 270.747 179.328C271.602 179.328 272.406 179.13 273.159 178.735C273.933 178.318 274.605 177.777 275.175 177.111C275.745 176.445 276.193 175.695 276.518 174.863C276.844 174.009 277.007 173.135 277.007 172.239V153.753H285.405V182.981C285.384 185.334 284.937 187.541 284.061 189.602C283.186 191.662 281.985 193.463 280.458 195.004C278.951 196.544 277.19 197.762 275.175 198.657C273.159 199.552 271.001 200 268.701 200L264.425 199.938Z" fill="#2C5D86"/>
<path d="M308.186 187.197C306.17 187.197 304.277 186.812 302.506 186.042C300.735 185.251 299.177 184.178 297.834 182.825C296.51 181.451 295.462 179.859 294.688 178.048C293.935 176.236 293.558 174.3 293.558 172.239V162.309H289.497V153.816H293.558V140.451H301.865V153.816H314.507V162.309H301.865V172.239C301.865 173.135 302.027 173.978 302.353 174.769C302.679 175.539 303.127 176.216 303.697 176.799C304.267 177.381 304.939 177.85 305.712 178.204C306.486 178.537 307.311 178.703 308.186 178.703H314.507V187.197H308.186Z" fill="#2C5D86"/>
<path d="M329.043 144.666C329.043 145.457 328.89 146.196 328.585 146.883C328.3 147.57 327.903 148.174 327.394 148.695C326.885 149.194 326.285 149.6 325.592 149.912C324.921 150.204 324.198 150.35 323.424 150.35C322.651 150.35 321.918 150.204 321.225 149.912C320.554 149.6 319.963 149.194 319.454 148.695C318.966 148.174 318.569 147.57 318.263 146.883C317.978 146.196 317.836 145.457 317.836 144.666C317.836 143.896 317.978 143.167 318.263 142.48C318.569 141.773 318.966 141.169 319.454 140.669C319.963 140.149 320.554 139.743 321.225 139.451C321.918 139.139 322.651 138.983 323.424 138.983C324.198 138.983 324.921 139.139 325.592 139.451C326.285 139.743 326.885 140.149 327.394 140.669C327.903 141.169 328.3 141.773 328.585 142.48C328.89 143.167 329.043 143.896 329.043 144.666ZM327.608 187.197H319.21V153.753H327.608V187.197Z" fill="#2C5D86"/>
<path d="M362.573 160.405L356.466 166.681C356.161 165.807 355.743 165.026 355.214 164.339C354.685 163.631 354.084 163.038 353.412 162.559C352.761 162.08 352.048 161.716 351.275 161.466C350.501 161.216 349.707 161.092 348.893 161.092C347.753 161.092 346.674 161.331 345.656 161.81C344.658 162.289 343.783 162.965 343.029 163.839C342.296 164.693 341.716 165.713 341.289 166.9C340.861 168.086 340.647 169.398 340.647 170.834C340.647 172 340.861 173.093 341.289 174.113C341.716 175.133 342.296 176.028 343.029 176.799C343.783 177.569 344.658 178.173 345.656 178.61C346.674 179.047 347.753 179.265 348.893 179.265C349.707 179.265 350.491 179.151 351.244 178.922C351.997 178.693 352.7 178.37 353.351 177.954C354.023 177.517 354.613 176.996 355.122 176.393C355.652 175.768 356.079 175.081 356.405 174.332L362.512 180.608C361.739 181.732 360.843 182.742 359.825 183.637C358.828 184.532 357.738 185.292 356.558 185.917C355.397 186.541 354.165 187.01 352.863 187.322C351.58 187.655 350.257 187.822 348.893 187.822C346.592 187.822 344.424 187.384 342.388 186.51C340.373 185.615 338.601 184.397 337.075 182.857C335.568 181.316 334.377 179.515 333.502 177.454C332.626 175.393 332.189 173.187 332.189 170.834C332.189 168.274 332.626 165.88 333.502 163.652C334.377 161.425 335.568 159.489 337.075 157.844C338.601 156.179 340.373 154.867 342.388 153.909C344.424 152.952 346.592 152.473 348.893 152.473C350.257 152.473 351.59 152.65 352.893 153.004C354.216 153.358 355.468 153.878 356.649 154.565C357.85 155.231 358.95 156.054 359.947 157.032C360.965 158.011 361.841 159.135 362.573 160.405Z" fill="#2C5D86"/>
<path d="M384.622 187.197H365.566V178.703H384.622C385.192 178.703 385.68 178.495 386.087 178.079C386.495 177.663 386.698 177.163 386.698 176.58C386.698 175.976 386.495 175.581 386.087 175.393C385.68 175.206 385.192 175.112 384.622 175.112H375.949C374.504 175.112 373.15 174.831 371.887 174.269C370.625 173.707 369.526 172.947 368.589 171.99C367.653 171.011 366.91 169.877 366.36 168.586C365.831 167.295 365.566 165.911 365.566 164.433C365.566 162.955 365.831 161.57 366.36 160.28C366.91 158.989 367.653 157.865 368.589 156.907C369.526 155.95 370.625 155.2 371.887 154.659C373.15 154.097 374.504 153.816 375.949 153.816H392.836V162.309H375.949C375.379 162.309 374.89 162.518 374.483 162.934C374.076 163.35 373.872 163.85 373.872 164.433C373.872 165.037 374.076 165.557 374.483 165.994C374.89 166.41 375.379 166.619 375.949 166.619H384.622C386.047 166.619 387.39 166.868 388.653 167.368C389.915 167.847 391.014 168.523 391.951 169.398C392.887 170.272 393.63 171.323 394.18 172.552C394.73 173.78 395.004 175.123 395.004 176.58C395.004 178.058 394.73 179.442 394.18 180.733C393.63 182.003 392.887 183.127 391.951 184.106C391.014 185.063 389.915 185.823 388.653 186.385C387.39 186.926 386.047 187.197 384.622 187.197Z" fill="#2C5D86"/>
</svg>
