<svg width="24" height="24" viewBox="0 0 24 24" fill="none" xmlns="http://www.w3.org/2000/svg">
<g clip-path="url(#clip0_40_16)">
<mask id="mask0_40_16" style="mask-type:luminance" maskUnits="userSpaceOnUse" x="0" y="0" width="24" height="24">
<path d="M24 0H0V24H24V0Z" fill="white"/>
</mask>
<g mask="url(#mask0_40_16)">
<path d="M7 6V13" stroke="black" stroke-width="1.5" stroke-linecap="round" stroke-linejoin="round"/>
<path d="M7.00002 16C7.82844 16 8.50002 15.3285 8.50002 14.5C8.50002 13.6716 7.82844 13 7.00002 13C6.17154 13 5.5 13.6716 5.5 14.5C5.5 15.3285 6.17154 16 7.00002 16Z" stroke="black" stroke-width="1.5" stroke-linecap="round" stroke-linejoin="round"/>
<path d="M7 16V18" stroke="black" stroke-width="1.5" stroke-linecap="round" stroke-linejoin="round"/>
<path d="M12 6V7.99998" stroke="black" stroke-width="1.5" stroke-linecap="round" stroke-linejoin="round"/>
<path d="M12 11C12.8284 11 13.5 10.3284 13.5 9.5C13.5 8.67152 12.8284 8 12 8C11.1716 8 10.5 8.67152 10.5 9.5C10.5 10.3284 11.1716 11 12 11Z" stroke="black" stroke-width="1.5" stroke-linecap="round" stroke-linejoin="round"/>
<path d="M12 11V18" stroke="black" stroke-width="1.5" stroke-linecap="round" stroke-linejoin="round"/>
<path d="M17 6V11" stroke="black" stroke-width="1.5" stroke-linecap="round" stroke-linejoin="round"/>
<path d="M17 14C17.8285 14 18.5 13.3284 18.5 12.5C18.5 11.6715 17.8285 11 17 11C16.1716 11 15.5 11.6715 15.5 12.5C15.5 13.3284 16.1716 14 17 14Z" stroke="black" stroke-width="1.5" stroke-linecap="round" stroke-linejoin="round"/>
<path d="M17 14V18" stroke="black" stroke-width="1.5" stroke-linecap="round" stroke-linejoin="round"/>
</g>
</g>
<defs>
<clipPath id="clip0_40_16">
<rect width="24" height="24" fill="white"/>
</clipPath>
</defs>
</svg>
