<svg width="74" height="20" viewBox="0 0 74 20" fill="none" xmlns="http://www.w3.org/2000/svg">
<rect width="74" height="20" rx="4" fill="#4498E8"/>
<path d="M16.5993 6.53L13.9693 13.5H12.9193L10.2893 6.53H11.2593L13.4493 12.54L15.6393 6.53H16.5993ZM22.5971 10.55C22.5971 10.7233 22.5871 10.9067 22.5671 11.1H18.1871C18.2205 11.64 18.4038 12.0633 18.7371 12.37C19.0771 12.67 19.4871 12.82 19.9671 12.82C20.3605 12.82 20.6871 12.73 20.9471 12.55C21.2138 12.3633 21.4005 12.1167 21.5071 11.81H22.4871C22.3405 12.3367 22.0471 12.7667 21.6071 13.1C21.1671 13.4267 20.6205 13.59 19.9671 13.59C19.4471 13.59 18.9805 13.4733 18.5671 13.24C18.1605 13.0067 17.8405 12.6767 17.6071 12.25C17.3738 11.8167 17.2571 11.3167 17.2571 10.75C17.2571 10.1833 17.3705 9.68667 17.5971 9.26C17.8238 8.83333 18.1405 8.50667 18.5471 8.28C18.9605 8.04667 19.4338 7.93 19.9671 7.93C20.4871 7.93 20.9471 8.04333 21.3471 8.27C21.7471 8.49667 22.0538 8.81 22.2671 9.21C22.4871 9.60333 22.5971 10.05 22.5971 10.55ZM21.6571 10.36C21.6571 10.0133 21.5805 9.71667 21.4271 9.47C21.2738 9.21667 21.0638 9.02667 20.7971 8.9C20.5371 8.76667 20.2471 8.7 19.9271 8.7C19.4671 8.7 19.0738 8.84667 18.7471 9.14C18.4271 9.43333 18.2438 9.84 18.1971 10.36H21.6571ZM24.7083 8.91C24.8683 8.59667 25.095 8.35333 25.3883 8.18C25.6883 8.00667 26.0517 7.92 26.4783 7.92V8.86H26.2383C25.2183 8.86 24.7083 9.41333 24.7083 10.52V13.5H23.7983V8.02H24.7083V8.91ZM27.9988 7.13C27.8255 7.13 27.6788 7.07 27.5588 6.95C27.4388 6.83 27.3788 6.68333 27.3788 6.51C27.3788 6.33667 27.4388 6.19 27.5588 6.07C27.6788 5.95 27.8255 5.89 27.9988 5.89C28.1655 5.89 28.3055 5.95 28.4188 6.07C28.5388 6.19 28.5988 6.33667 28.5988 6.51C28.5988 6.68333 28.5388 6.83 28.4188 6.95C28.3055 7.07 28.1655 7.13 27.9988 7.13ZM28.4388 8.02V13.5H27.5288V8.02H28.4388ZM32.2197 8.77H31.0697V13.5H30.1597V8.77H29.4497V8.02H30.1597V7.63C30.1597 7.01667 30.3164 6.57 30.6297 6.29C30.9497 6.00333 31.4597 5.86 32.1597 5.86V6.62C31.7597 6.62 31.4764 6.7 31.3097 6.86C31.1497 7.01333 31.0697 7.27 31.0697 7.63V8.02H32.2197V8.77ZM33.7507 7.13C33.5774 7.13 33.4307 7.07 33.3107 6.95C33.1907 6.83 33.1307 6.68333 33.1307 6.51C33.1307 6.33667 33.1907 6.19 33.3107 6.07C33.4307 5.95 33.5774 5.89 33.7507 5.89C33.9174 5.89 34.0574 5.95 34.1707 6.07C34.2907 6.19 34.3507 6.33667 34.3507 6.51C34.3507 6.68333 34.2907 6.83 34.1707 6.95C34.0574 7.07 33.9174 7.13 33.7507 7.13ZM34.1907 8.02V13.5H33.2807V8.02H34.1907ZM40.7417 10.55C40.7417 10.7233 40.7317 10.9067 40.7117 11.1H36.3317C36.365 11.64 36.5483 12.0633 36.8817 12.37C37.2217 12.67 37.6317 12.82 38.1117 12.82C38.505 12.82 38.8317 12.73 39.0917 12.55C39.3583 12.3633 39.545 12.1167 39.6517 11.81H40.6317C40.485 12.3367 40.1917 12.7667 39.7517 13.1C39.3117 13.4267 38.765 13.59 38.1117 13.59C37.5917 13.59 37.125 13.4733 36.7117 13.24C36.305 13.0067 35.985 12.6767 35.7517 12.25C35.5183 11.8167 35.4017 11.3167 35.4017 10.75C35.4017 10.1833 35.515 9.68667 35.7417 9.26C35.9683 8.83333 36.285 8.50667 36.6917 8.28C37.105 8.04667 37.5783 7.93 38.1117 7.93C38.6317 7.93 39.0917 8.04333 39.4917 8.27C39.8917 8.49667 40.1983 8.81 40.4117 9.21C40.6317 9.60333 40.7417 10.05 40.7417 10.55ZM39.8017 10.36C39.8017 10.0133 39.725 9.71667 39.5717 9.47C39.4183 9.21667 39.2083 9.02667 38.9417 8.9C38.6817 8.76667 38.3917 8.7 38.0717 8.7C37.6117 8.7 37.2183 8.84667 36.8917 9.14C36.5717 9.43333 36.3883 9.84 36.3417 10.36H39.8017ZM41.6029 10.74C41.6029 10.18 41.7162 9.69 41.9429 9.27C42.1695 8.84333 42.4795 8.51333 42.8729 8.28C43.2729 8.04667 43.7195 7.93 44.2129 7.93C44.6395 7.93 45.0362 8.03 45.4029 8.23C45.7695 8.42333 46.0495 8.68 46.2429 9V6.1H47.1629V13.5H46.2429V12.47C46.0629 12.7967 45.7962 13.0667 45.4429 13.28C45.0895 13.4867 44.6762 13.59 44.2029 13.59C43.7162 13.59 43.2729 13.47 42.8729 13.23C42.4795 12.99 42.1695 12.6533 41.9429 12.22C41.7162 11.7867 41.6029 11.2933 41.6029 10.74ZM46.2429 10.75C46.2429 10.3367 46.1595 9.97667 45.9929 9.67C45.8262 9.36333 45.5995 9.13 45.3129 8.97C45.0329 8.80333 44.7229 8.72 44.3829 8.72C44.0429 8.72 43.7329 8.8 43.4529 8.96C43.1729 9.12 42.9495 9.35333 42.7829 9.66C42.6162 9.96667 42.5329 10.3267 42.5329 10.74C42.5329 11.16 42.6162 11.5267 42.7829 11.84C42.9495 12.1467 43.1729 12.3833 43.4529 12.55C43.7329 12.71 44.0429 12.79 44.3829 12.79C44.7229 12.79 45.0329 12.71 45.3129 12.55C45.5995 12.3833 45.8262 12.1467 45.9929 11.84C46.1595 11.5267 46.2429 11.1633 46.2429 10.75Z" fill="white"/>
<path d="M57.9996 15C55.2382 15 52.9996 12.7614 52.9996 10C52.9996 7.23857 55.2382 5 57.9996 5C60.761 5 62.9996 7.23857 62.9996 10C62.9996 12.7614 60.761 15 57.9996 15ZM57.5009 12L61.0365 8.46447L60.3294 7.75736L57.5009 10.5858L56.0867 9.17155L55.3796 9.8787L57.5009 12Z" fill="white"/>
</svg>
