<svg width="430" height="932" viewBox="0 0 430 932" fill="none" xmlns="http://www.w3.org/2000/svg">
<g clip-path="url(#clip0_2_126)">
<rect width="430" height="932" fill="#EBEBED"/>
<path d="M-6 -12H436V944H-6V-12Z" fill="#212121"/>
<g opacity="0.5" clip-path="url(#clip1_2_126)">
<path d="M285.187 267.97L194.094 270.527L225.859 203.963" stroke="#6D6D6D" stroke-width="0.210134" stroke-miterlimit="10"/>
<path d="M225.859 203.963L310.753 216.347L335.857 178.439L376.462 184L399.752 129.639L409.594 174.404" stroke="#6D6D6D" stroke-width="0.210134" stroke-miterlimit="10"/>
<path d="M194.094 267.97L236.961 313.352L285.187 267.97L349.089 313.352L365.612 267.97H285.187L310.753 216.347L365.612 267.97L376.462 184L409.594 174.404V196.412L390.233 215.205L409.594 234.692L365.612 267.97L397.637 295.358" stroke="#6D6D6D" stroke-width="0.210134" stroke-miterlimit="10"/>
<path d="M376.462 184L390.233 215.205" stroke="#6D6D6D" stroke-width="0.210134" stroke-miterlimit="10"/>
<path d="M231.503 200.852L222.755 198.324L220.227 207.072L228.975 209.6L231.503 200.852Z" fill="#EE353A"/>
<path d="M411.972 173.085L408.291 172.021L407.227 175.702L410.908 176.766L411.972 173.085Z" fill="#2360AD"/>
<path d="M403.988 126.525L395.24 123.997L392.712 132.745L401.459 135.273L403.988 126.525Z" fill="#00AA4F"/>
<path d="M314.691 213.432L306.482 211.06L304.109 219.269L312.318 221.642L314.691 213.432Z" fill="#2360AD"/>
<path d="M244.358 307.421L232.077 303.872L228.528 316.152L240.808 319.701L244.358 307.421Z" fill="#00AA4F"/>
<path d="M283.849 262.443L279.521 267.536L283.023 273.23L289.523 271.654L290.034 264.986L283.849 262.443Z" fill="#00AA4F"/>
<path d="M375.461 179.875L372.225 183.678L374.844 187.93L379.699 186.753L380.084 181.773L375.461 179.875Z" fill="#EE353A"/>
<path d="M395.732 290.657L393.301 293.522L395.269 296.723L398.919 295.834L399.206 292.093L395.732 290.657Z" fill="#EE353A"/>
<path d="M194.094 274.064C197.46 274.064 200.188 271.336 200.188 267.97C200.188 264.604 197.46 261.876 194.094 261.876C190.728 261.876 188 264.604 188 267.97C188 271.336 190.728 274.064 194.094 274.064Z" fill="#2360AD"/>
<path d="M364.688 271.724C366.762 271.724 368.442 270.043 368.442 267.97C368.442 265.896 366.762 264.216 364.688 264.216C362.615 264.216 360.934 265.896 360.934 267.97C360.934 270.043 362.615 271.724 364.688 271.724Z" fill="#2360AD"/>
<path d="M390.233 218.764C392.198 218.764 393.792 217.17 393.792 215.205C393.792 213.24 392.198 211.647 390.233 211.647C388.268 211.647 386.675 213.24 386.675 215.205C386.675 217.17 388.268 218.764 390.233 218.764Z" fill="#00AA4F"/>
<path d="M349.089 317.492C351.375 317.492 353.229 315.638 353.229 313.352C353.229 311.066 351.375 309.212 349.089 309.212C346.803 309.212 344.949 311.066 344.949 313.352C344.949 315.638 346.803 317.492 349.089 317.492Z" fill="#EE353A"/>
<path d="M336.404 180.841C337.731 180.841 338.806 179.766 338.806 178.439C338.806 177.112 337.731 176.036 336.404 176.036C335.077 176.036 334.001 177.112 334.001 178.439C334.001 179.766 335.077 180.841 336.404 180.841Z" fill="#00AA4F"/>
</g>
</g>
<defs>
<clipPath id="clip0_2_126">
<rect width="430" height="932" fill="white"/>
</clipPath>
<clipPath id="clip1_2_126">
<rect width="223.968" height="195.698" fill="white" transform="translate(188 124)"/>
</clipPath>
</defs>
</svg>
