<svg width="251" height="59" viewBox="0 0 251 59" fill="none" xmlns="http://www.w3.org/2000/svg">
<g clip-path="url(#clip0_24_20225)">
<g clip-path="url(#clip1_24_20225)">
<circle cx="13.5067" cy="31.5928" r="1.56841" fill="#EBEBED"/>
<circle cx="17.8501" cy="31.5928" r="1.56841" fill="#EBEBED"/>
<circle cx="15.6782" cy="27.9729" r="1.56841" fill="#EBEBED"/>
<circle cx="9.16338" cy="24.3537" r="1.56841" fill="#EBEBED"/>
<circle cx="13.5067" cy="24.3538" r="1.56841" fill="#EBEBED"/>
<circle cx="17.8501" cy="24.3538" r="1.56841" fill="#EBEBED"/>
<circle cx="22.1932" cy="31.5928" r="1.56841" fill="#EBEBED"/>
<circle cx="6.99193" cy="27.9729" r="1.20647" fill="#EBEBED"/>
<circle cx="11.4559" cy="27.9729" r="1.20647" fill="#EBEBED"/>
<circle cx="11.4559" cy="20.4931" r="1.20647" fill="#EBEBED"/>
<circle cx="13.507" cy="16.753" r="0.965174" fill="#EBEBED"/>
<circle cx="15.6786" cy="12.8924" r="0.603234" fill="#EBEBED"/>
<circle cx="19.9013" cy="12.8924" r="0.603234" fill="#EBEBED"/>
<circle cx="24.1237" cy="12.8924" r="0.603234" fill="#EBEBED"/>
<circle cx="17.85" cy="16.753" r="0.965174" fill="#EBEBED"/>
<circle cx="22.1932" cy="16.753" r="0.965174" fill="#EBEBED"/>
<circle cx="15.6785" cy="20.4931" r="1.20647" fill="#EBEBED"/>
<circle cx="19.9011" cy="20.4931" r="1.20647" fill="#EBEBED"/>
<circle cx="20.2628" cy="35.4536" r="1.20647" transform="rotate(-180 20.2628 35.4536)" fill="#EBEBED"/>
<circle cx="18.212" cy="39.1934" r="0.965174" transform="rotate(-180 18.212 39.1934)" fill="#EBEBED"/>
<circle cx="16.0404" cy="43.0542" r="0.603234" transform="rotate(-180 16.0404 43.0542)" fill="#EBEBED"/>
<circle cx="11.8175" cy="43.0542" r="0.603234" transform="rotate(-180 11.8175 43.0542)" fill="#EBEBED"/>
<circle cx="7.59501" cy="43.0542" r="0.603234" transform="rotate(-180 7.59501 43.0542)" fill="#EBEBED"/>
<circle cx="13.8687" cy="39.1934" r="0.965174" transform="rotate(-180 13.8687 39.1934)" fill="#EBEBED"/>
<circle cx="9.52549" cy="39.1934" r="0.965174" transform="rotate(-180 9.52549 39.1934)" fill="#EBEBED"/>
<circle cx="16.0402" cy="35.4536" r="1.20647" transform="rotate(-180 16.0402 35.4536)" fill="#EBEBED"/>
<circle cx="11.8178" cy="35.4536" r="1.20647" transform="rotate(-180 11.8178 35.4536)" fill="#EBEBED"/>
<circle cx="20.0216" cy="27.9729" r="1.20647" fill="#EBEBED"/>
<circle cx="22.1932" cy="24.3538" r="1.20647" fill="#EBEBED"/>
<circle cx="4.57903" cy="31.5921" r="1.20647" fill="#EBEBED"/>
<circle cx="24.4856" cy="27.9729" r="1.20647" fill="#EBEBED"/>
<circle cx="26.6575" cy="24.3538" r="1.20647" fill="#EBEBED"/>
<circle cx="9.04277" cy="31.5921" r="1.20647" fill="#EBEBED"/>
</g>
</g>
<path d="M80.6772 2.84412C80.3098 2.84412 79.9311 2.9854 79.6032 3.316L24.8053 55.8393H43.3445C45.8258 55.8393 48.146 54.6158 49.5506 52.57L82.0167 5.19224C82.712 4.03089 81.7454 2.84412 80.6772 2.84412Z" fill="#EBEBED"/>
<path d="M100.174 15.1929C100.659 14.4041 101.357 13.767 102.267 13.2815C103.177 12.7961 104.219 12.5534 105.392 12.5534C106.787 12.5534 108.051 12.9074 109.184 13.6153C110.317 14.3232 111.207 15.3344 111.854 16.6491C112.521 17.9637 112.855 19.4908 112.855 21.2302C112.855 22.9695 112.521 24.5067 111.854 25.8416C111.207 27.1562 110.317 28.1776 109.184 28.9057C108.051 29.6136 106.787 29.9676 105.392 29.9676C104.198 29.9676 103.157 29.735 102.267 29.2698C101.377 28.7844 100.679 28.1473 100.174 27.3585V29.7249H94.9857V7.27459H100.174V15.1929ZM107.576 21.2302C107.576 19.9357 107.212 18.9245 106.484 18.1963C105.776 17.448 104.896 17.0738 103.844 17.0738C102.813 17.0738 101.933 17.448 101.205 18.1963C100.497 18.9447 100.143 19.9661 100.143 21.2605C100.143 22.5549 100.497 23.5763 101.205 24.3247C101.933 25.073 102.813 25.4472 103.844 25.4472C104.876 25.4472 105.756 25.073 106.484 24.3247C107.212 23.5561 107.576 22.5246 107.576 21.2302ZM131.534 20.9875C131.534 21.4729 131.504 21.9785 131.443 22.5044H119.703C119.783 23.5561 120.117 24.3651 120.704 24.9314C121.31 25.4775 122.049 25.7505 122.918 25.7505C124.213 25.7505 125.113 25.2045 125.619 24.1123H131.14C130.857 25.2247 130.341 26.2258 129.593 27.1158C128.865 28.0057 127.944 28.7035 126.832 29.2091C125.72 29.7147 124.476 29.9676 123.1 29.9676C121.442 29.9676 119.965 29.6136 118.671 28.9057C117.377 28.1978 116.365 27.1866 115.637 25.8719C114.909 24.5572 114.545 23.0201 114.545 21.2605C114.545 19.5009 114.899 17.9637 115.607 16.6491C116.335 15.3344 117.346 14.3232 118.641 13.6153C119.935 12.9074 121.422 12.5534 123.1 12.5534C124.739 12.5534 126.195 12.8973 127.469 13.5849C128.743 14.2726 129.734 15.2535 130.442 16.5277C131.17 17.8019 131.534 19.2885 131.534 20.9875ZM126.225 19.6222C126.225 18.7323 125.922 18.0244 125.315 17.4986C124.708 16.9727 123.95 16.7098 123.04 16.7098C122.17 16.7098 121.432 16.9626 120.825 17.4682C120.239 17.9739 119.874 18.6919 119.733 19.6222H126.225ZM133.24 21.2605C133.24 19.5009 133.594 17.9637 134.302 16.6491C135.03 15.3344 136.031 14.3232 137.305 13.6153C138.6 12.9074 140.076 12.5534 141.734 12.5534C143.858 12.5534 145.628 13.1096 147.044 14.222C148.48 15.3344 149.42 16.9019 149.865 18.9245H144.344C143.878 17.63 142.978 16.9828 141.643 16.9828C140.693 16.9828 139.934 17.357 139.368 18.1053C138.802 18.8334 138.519 19.8852 138.519 21.2605C138.519 22.6358 138.802 23.6977 139.368 24.446C139.934 25.1741 140.693 25.5382 141.643 25.5382C142.978 25.5382 143.878 24.891 144.344 23.5965H149.865C149.42 25.5786 148.48 27.136 147.044 28.2686C145.608 29.4012 143.838 29.9676 141.734 29.9676C140.076 29.9676 138.6 29.6136 137.305 28.9057C136.031 28.1978 135.03 27.1866 134.302 25.8719C133.594 24.5572 133.24 23.0201 133.24 21.2605ZM162.985 29.7249L157.828 22.6257V29.7249H152.64V7.27459H157.828V19.6829L162.955 12.7961H169.356L162.318 21.2908L169.417 29.7249H162.985ZM181.709 12.6141C183.691 12.6141 185.269 13.2613 186.442 14.5558C187.635 15.83 188.232 17.5896 188.232 19.8346V29.7249H183.074V20.5324C183.074 19.3998 182.781 18.5199 182.195 17.893C181.608 17.266 180.819 16.9525 179.828 16.9525C178.837 16.9525 178.048 17.266 177.462 17.893C176.875 18.5199 176.582 19.3998 176.582 20.5324V29.7249H171.394V12.7961H176.582V15.0412C177.108 14.2928 177.816 13.7063 178.706 13.2815C179.596 12.8366 180.597 12.6141 181.709 12.6141Z" fill="#EBEBED"/>
<path d="M104.846 42.8215C104.477 42.1116 103.965 41.5791 103.31 41.2241C102.655 40.8555 101.897 40.6712 101.037 40.6712C100.095 40.6712 99.255 40.8828 98.5178 41.306C97.7805 41.7293 97.2003 42.33 96.777 43.1082C96.3674 43.8865 96.1626 44.7875 96.1626 45.8115C96.1626 46.8355 96.3674 47.7434 96.777 48.5353C97.2003 49.3135 97.7805 49.9142 98.5178 50.3375C99.255 50.7607 100.095 50.9724 101.037 50.9724C102.306 50.9724 103.337 50.6174 104.129 49.9074C104.921 49.1975 105.406 48.2349 105.583 47.0198H100.238V45.1562H108.082V46.9789C107.932 48.0847 107.536 49.1019 106.894 50.0303C106.266 50.9587 105.44 51.7028 104.416 52.2626C103.406 52.8087 102.279 53.0817 101.037 53.0817C99.6988 53.0817 98.4768 52.7745 97.3709 52.1602C96.265 51.5321 95.3844 50.6652 94.7291 49.5593C94.0874 48.4534 93.7665 47.2041 93.7665 45.8115C93.7665 44.4189 94.0874 43.1697 94.7291 42.0638C95.3844 40.9579 96.265 40.0977 97.3709 39.4834C98.4905 38.8553 99.7124 38.5413 101.037 38.5413C102.552 38.5413 103.897 38.9168 105.071 39.6677C106.259 40.4049 107.119 41.4562 107.652 42.8215H104.846ZM118.17 52.9589L114.893 47.2656H113.111V52.9589H110.777V38.7256H115.692C116.784 38.7256 117.706 38.9168 118.457 39.299C119.221 39.6813 119.788 40.1933 120.156 40.835C120.539 41.4767 120.73 42.1935 120.73 42.9854C120.73 43.9138 120.457 44.7602 119.911 45.5248C119.378 46.2757 118.552 46.7877 117.433 47.0608L120.955 52.9589H118.17ZM113.111 45.4019H115.692C116.566 45.4019 117.221 45.1835 117.658 44.7466C118.108 44.3097 118.334 43.7226 118.334 42.9854C118.334 42.2481 118.115 41.6747 117.678 41.2651C117.241 40.8418 116.579 40.6302 115.692 40.6302H113.111V45.4019ZM126.443 38.7256V52.9589H124.109V38.7256H126.443ZM134.55 38.7256C136.065 38.7256 137.39 39.0192 138.523 39.6062C139.67 40.1797 140.55 41.0125 141.165 42.1047C141.793 43.1833 142.107 44.4462 142.107 45.8934C142.107 47.3407 141.793 48.5967 141.165 49.6617C140.55 50.7266 139.67 51.5458 138.523 52.1192C137.39 52.679 136.065 52.9589 134.55 52.9589H129.901V38.7256H134.55ZM134.55 51.0543C136.215 51.0543 137.492 50.6037 138.379 49.7026C139.267 48.8015 139.711 47.5318 139.711 45.8934C139.711 44.2414 139.267 42.9512 138.379 42.0228C137.492 41.0944 136.215 40.6302 134.55 40.6302H132.236V51.0543H134.55ZM149.747 45.8115C149.747 44.4189 150.068 43.1697 150.71 42.0638C151.365 40.9579 152.245 40.0977 153.351 39.4834C154.471 38.8553 155.693 38.5413 157.017 38.5413C158.533 38.5413 159.878 38.9168 161.052 39.6677C162.239 40.4049 163.1 41.4562 163.632 42.8215H160.826C160.458 42.0706 159.946 41.5108 159.29 41.1422C158.635 40.7736 157.877 40.5893 157.017 40.5893C156.075 40.5893 155.235 40.8009 154.498 41.2241C153.761 41.6474 153.181 42.2549 152.757 43.0468C152.348 43.8387 152.143 44.7602 152.143 45.8115C152.143 46.8628 152.348 47.7844 152.757 48.5763C153.181 49.3681 153.761 49.9825 154.498 50.4194C155.235 50.8426 156.075 51.0543 157.017 51.0543C157.877 51.0543 158.635 50.87 159.29 50.5013C159.946 50.1327 160.458 49.5729 160.826 48.822H163.632C163.1 50.1873 162.239 51.2386 161.052 51.9758C159.878 52.7131 158.533 53.0817 157.017 53.0817C155.679 53.0817 154.457 52.7745 153.351 52.1602C152.245 51.5321 151.365 50.6652 150.71 49.5593C150.068 48.4534 149.747 47.2041 149.747 45.8115ZM173.249 53.1022C171.925 53.1022 170.703 52.795 169.583 52.1806C168.477 51.5526 167.597 50.6856 166.941 49.5797C166.3 48.4602 165.979 47.2041 165.979 45.8115C165.979 44.4189 166.3 43.1697 166.941 42.0638C167.597 40.9579 168.477 40.0977 169.583 39.4834C170.703 38.8553 171.925 38.5413 173.249 38.5413C174.587 38.5413 175.809 38.8553 176.915 39.4834C178.035 40.0977 178.915 40.9579 179.557 42.0638C180.199 43.1697 180.519 44.4189 180.519 45.8115C180.519 47.2041 180.199 48.4602 179.557 49.5797C178.915 50.6856 178.035 51.5526 176.915 52.1806C175.809 52.795 174.587 53.1022 173.249 53.1022ZM173.249 51.0747C174.191 51.0747 175.031 50.8631 175.768 50.4399C176.505 50.003 177.079 49.3886 177.488 48.5967C177.912 47.7912 178.123 46.8628 178.123 45.8115C178.123 44.7602 177.912 43.8387 177.488 43.0468C177.079 42.2549 176.505 41.6474 175.768 41.2241C175.031 40.8009 174.191 40.5893 173.249 40.5893C172.307 40.5893 171.467 40.8009 170.73 41.2241C169.993 41.6474 169.413 42.2549 168.989 43.0468C168.58 43.8387 168.375 44.7602 168.375 45.8115C168.375 46.8628 168.58 47.7912 168.989 48.5967C169.413 49.3886 169.993 50.003 170.73 50.4399C171.467 50.8631 172.307 51.0747 173.249 51.0747ZM194.903 52.9589H192.568L185.544 42.33V52.9589H183.209V38.7051H185.544L192.568 49.3135V38.7051H194.903V52.9589ZM210.055 52.9589H207.72L200.696 42.33V52.9589H198.361V38.7051H200.696L207.72 49.3135V38.7051H210.055V52.9589ZM215.848 40.6097V44.7875H220.763V46.6921H215.848V51.0543H221.377V52.9589H213.513V38.7051H221.377V40.6097H215.848ZM223.867 45.8115C223.867 44.4189 224.188 43.1697 224.83 42.0638C225.485 40.9579 226.366 40.0977 227.471 39.4834C228.591 38.8553 229.813 38.5413 231.137 38.5413C232.653 38.5413 233.998 38.9168 235.172 39.6677C236.359 40.4049 237.22 41.4562 237.752 42.8215H234.946C234.578 42.0706 234.066 41.5108 233.41 41.1422C232.755 40.7736 231.997 40.5893 231.137 40.5893C230.195 40.5893 229.356 40.8009 228.618 41.2241C227.881 41.6474 227.301 42.2549 226.877 43.0468C226.468 43.8387 226.263 44.7602 226.263 45.8115C226.263 46.8628 226.468 47.7844 226.877 48.5763C227.301 49.3681 227.881 49.9825 228.618 50.4194C229.356 50.8426 230.195 51.0543 231.137 51.0543C231.997 51.0543 232.755 50.87 233.41 50.5013C234.066 50.1327 234.578 49.5729 234.946 48.822H237.752C237.22 50.1873 236.359 51.2386 235.172 51.9758C233.998 52.7131 232.653 53.0817 231.137 53.0817C229.799 53.0817 228.577 52.7745 227.471 52.1602C226.366 51.5321 225.485 50.6652 224.83 49.5593C224.188 48.4534 223.867 47.2041 223.867 45.8115ZM250.072 38.7256V40.6302H246.284V52.9589H243.949V40.6302H240.14V38.7256H250.072Z" fill="#EBEBED"/>
<defs>
<clipPath id="clip0_24_20225">
<rect width="31.484" height="31.484" fill="white" transform="matrix(-1 8.74228e-08 8.74228e-08 1 31.475 12.2893)"/>
</clipPath>
<clipPath id="clip1_24_20225">
<rect width="24.9576" height="31.368" fill="white" transform="matrix(-1 8.74228e-08 8.74228e-08 1 28.0972 12.2893)"/>
</clipPath>
</defs>
</svg>
