<svg width="46" height="15" viewBox="0 0 46 15" fill="none" xmlns="http://www.w3.org/2000/svg">
<g clip-path="url(#clip0_24_20211)">
<path d="M19.0167 9.64177L18.9894 10.2767H11.9752C12.0297 11.0315 12.2818 11.6092 12.7301 12.0071C13.1783 12.4063 13.7342 12.6052 14.3964 12.6052C14.8747 12.6052 15.2902 12.4962 15.6431 12.2782C15.996 12.0602 16.2617 11.7428 16.4402 11.3258L18.8709 11.6842C18.5575 12.6352 18.0057 13.375 17.2141 13.9023C16.4225 14.4296 15.4892 14.6939 14.4155 14.6939C12.8691 14.6939 11.6401 14.2593 10.7286 13.3914C9.81704 12.5235 9.3606 11.319 9.3606 9.77802C9.3606 8.23702 9.81704 7.04619 10.7326 6.16465C11.6469 5.28447 12.8459 4.84302 14.331 4.84302C15.8162 4.84302 16.8748 5.24496 17.7277 6.04884C18.5807 6.85272 19.0099 8.049 19.0167 9.63904V9.64177ZM14.3501 6.72328C13.0612 6.72328 12.2941 7.33095 12.0488 8.54631H16.3939C16.3271 7.95771 16.1091 7.50536 15.7399 7.19334C15.372 6.87996 14.9074 6.72328 14.3501 6.72328Z" fill="#262626"/>
<path d="M23.5987 14.6953C22.1027 14.6953 20.8805 14.2402 19.9336 13.3287C18.9853 12.4185 18.5111 11.2304 18.5111 9.76572C18.5111 8.30102 18.9839 7.10746 19.9281 6.20276C20.8737 5.29806 22.0959 4.8457 23.5973 4.8457C24.8154 4.8457 25.8414 5.1509 26.6712 5.75995C27.5023 6.36899 28.0309 7.22737 28.2585 8.33508L25.8032 8.60213C25.6615 8.04759 25.3972 7.63339 25.0089 7.35544C24.6206 7.07885 24.141 6.93988 23.5687 6.93988C22.8548 6.93988 22.2757 7.19875 21.8329 7.71514C21.3887 8.23153 21.168 8.91551 21.168 9.76435C21.168 10.6132 21.3901 11.289 21.8329 11.8095C22.2757 12.33 22.8534 12.5902 23.5687 12.5902C24.141 12.5902 24.6192 12.4512 25.0035 12.1746C25.3877 11.898 25.6547 11.4825 25.8019 10.9279L28.2571 11.1963C28.0296 12.2973 27.4955 13.157 26.6548 13.7715C25.8155 14.3873 24.795 14.6953 23.5946 14.6953H23.5987Z" fill="#262626"/>
<path d="M35.0478 14.4692C34.8026 14.4692 34.5737 14.3493 34.4347 14.1476C33.8134 13.2511 32.0925 10.8067 32.0026 10.6787C31.9713 10.6337 31.9072 10.6296 31.8691 10.6691L30.6755 11.9281V9.10769C30.7845 8.96871 37.454 2.59218 37.454 2.59218C37.5766 2.46819 37.7756 2.62216 37.6856 2.77203L33.7575 8.50546C33.4305 8.9837 33.4333 9.61318 33.7671 10.0873C34.5437 11.191 35.9117 13.1148 36.5507 14.0127C36.6869 14.2048 36.5507 14.4705 36.3136 14.4705H35.0465L35.0478 14.4692Z" fill="#262626"/>
<path d="M32.9917 4.93969C33.5689 4.93969 34.0367 4.47181 34.0367 3.89465C34.0367 3.31749 33.5689 2.84961 32.9917 2.84961C32.4145 2.84961 31.9467 3.31749 31.9467 3.89465C31.9467 4.47181 32.4145 4.93969 32.9917 4.93969Z" fill="#262626"/>
<path d="M30.869 14.4692H28.2803V0.807373H30.869V14.4692Z" fill="#262626"/>
<path d="M42.359 4.93994C43.4803 4.93994 44.3414 5.22062 44.9409 5.78061C45.5404 6.3406 45.8416 7.14039 45.8416 8.1759V14.468H43.2133V8.73997C43.2133 8.15137 43.0566 7.72218 42.7446 7.44968C42.4326 7.17718 42.0306 7.04093 41.5401 7.04093C41.2554 7.04093 40.9951 7.08044 40.758 7.15946C40.521 7.23849 40.303 7.36112 40.1027 7.52734C39.9038 7.69357 39.7471 7.92928 39.6353 8.23176C39.5236 8.5356 39.4637 8.8953 39.4582 9.31359V14.4693H36.8395V5.12115H39.4582V6.15802C40.149 5.34597 41.1164 4.93994 42.359 4.93994Z" fill="#262626"/>
<path d="M5.53602 5.15241C6.13552 5.15241 6.70232 5.26277 7.23642 5.48213C7.77053 5.7015 8.23787 6.01215 8.63844 6.41272C9.03902 6.8133 9.35512 7.31607 9.58675 7.92238C9.81837 8.52734 9.93419 9.19496 9.93419 9.92527C9.93419 10.6556 9.81837 11.3232 9.58675 11.9282C9.35512 12.5331 9.03902 13.0372 8.63844 13.4378C8.23787 13.8384 7.77053 14.149 7.23642 14.3684C6.70232 14.5878 6.13552 14.6981 5.53602 14.6981C4.89428 14.6981 4.31794 14.5755 3.80427 14.3289C3.29061 14.0823 2.90638 13.7376 2.65159 13.292L2.58891 14.4842H0.158203V0.807373H2.72244V6.4427C2.98404 6.03259 3.36418 5.71512 3.86558 5.49031C4.36699 5.26549 4.92425 5.15241 5.53465 5.15241H5.53602ZM4.93924 12.5672C5.63957 12.5672 6.22 12.3274 6.67916 11.8464C7.13832 11.3654 7.36859 10.7251 7.36859 9.92391C7.36859 9.12275 7.13832 8.47284 6.67916 7.99187C6.22 7.51091 5.63957 7.2711 4.93924 7.2711C4.23891 7.2711 3.67483 7.51636 3.21158 8.0055C2.74833 8.49464 2.5167 9.13501 2.5167 9.92391C2.5167 10.7128 2.74697 11.3518 3.20613 11.8382C3.6653 12.3246 4.243 12.5685 4.93788 12.5685L4.93924 12.5672Z" fill="#262626"/>
</g>
<defs>
<clipPath id="clip0_24_20211">
<rect width="45.6835" height="13.888" fill="white" transform="translate(0.158203 0.807373)"/>
</clipPath>
</defs>
</svg>
