<svg width="47" height="15" viewBox="0 0 47 15" fill="none" xmlns="http://www.w3.org/2000/svg">
<path d="M23.4257 4.71045C23.5536 4.50262 23.7374 4.33476 23.9773 4.20681C24.2171 4.07892 24.4916 4.01497 24.8007 4.01497C25.1683 4.01497 25.5015 4.10825 25.7999 4.29474C26.0983 4.48129 26.3328 4.74777 26.5034 5.09419C26.6792 5.4406 26.7672 5.84297 26.7672 6.30129C26.7672 6.75961 26.6792 7.16463 26.5034 7.51633C26.3328 7.86275 26.0983 8.13187 25.7999 8.32377C25.5015 8.51026 25.1683 8.60354 24.8007 8.60354C24.4862 8.60354 24.2117 8.54223 23.9773 8.41969C23.7428 8.2918 23.5589 8.12388 23.4257 7.91605V8.53959H22.0587V2.62402H23.4257V4.71045ZM25.3762 6.30129C25.3762 5.96016 25.2803 5.69374 25.0884 5.50184C24.9019 5.30466 24.6701 5.20609 24.3929 5.20609C24.1212 5.20609 23.8893 5.30466 23.6975 5.50184C23.511 5.69903 23.4177 5.96816 23.4177 6.30928C23.4177 6.65035 23.511 6.91948 23.6975 7.11666C23.8893 7.31385 24.1212 7.41242 24.3929 7.41242C24.6648 7.41242 24.8966 7.31385 25.0884 7.11666C25.2803 6.91413 25.3762 6.64236 25.3762 6.30129ZM31.6892 6.23728C31.6892 6.36524 31.6812 6.49848 31.6652 6.63701H28.5715C28.5928 6.91413 28.6807 7.1273 28.8353 7.27653C28.9952 7.42041 29.1897 7.49235 29.4189 7.49235C29.76 7.49235 29.9971 7.34847 30.1304 7.06071H31.5853C31.5107 7.35382 31.3747 7.6176 31.1775 7.85211C30.9857 8.08661 30.7432 8.27046 30.4501 8.4037C30.157 8.53694 29.8293 8.60354 29.4669 8.60354C29.0298 8.60354 28.6408 8.51026 28.2997 8.32377C27.9586 8.13722 27.6922 7.87074 27.5003 7.52432C27.3084 7.17797 27.2125 6.77289 27.2125 6.30928C27.2125 5.84561 27.3058 5.4406 27.4923 5.09419C27.6842 4.74777 27.9507 4.48129 28.2917 4.29474C28.6328 4.10825 29.0245 4.01497 29.4669 4.01497C29.8985 4.01497 30.2822 4.10554 30.618 4.28674C30.9537 4.46795 31.2149 4.72643 31.4014 5.06221C31.5932 5.39793 31.6892 5.78966 31.6892 6.23728ZM30.2902 5.87759C30.2902 5.64308 30.2103 5.45659 30.0504 5.318C29.8905 5.17941 29.6907 5.11017 29.4509 5.11017C29.2217 5.11017 29.0272 5.17676 28.8673 5.31C28.7127 5.44324 28.6168 5.63244 28.5795 5.87759H30.2902ZM32.1386 6.30928C32.1386 5.84561 32.2318 5.4406 32.4183 5.09419C32.6102 4.74777 32.874 4.48129 33.2097 4.29474C33.5508 4.10825 33.9399 4.01497 34.3768 4.01497C34.9364 4.01497 35.4028 4.16156 35.7758 4.45466C36.1542 4.74777 36.402 5.16078 36.5192 5.69374H35.0643C34.9418 5.35261 34.7046 5.18211 34.3529 5.18211C34.1024 5.18211 33.9025 5.28068 33.7533 5.47786C33.6041 5.66976 33.5295 5.94688 33.5295 6.30928C33.5295 6.67163 33.6041 6.95145 33.7533 7.14864C33.9025 7.34048 34.1024 7.4364 34.3529 7.4364C34.7046 7.4364 34.9418 7.26589 35.0643 6.92483H36.5192C36.402 7.44709 36.1542 7.85746 35.7758 8.15585C35.3974 8.45431 34.9311 8.60354 34.3768 8.60354C33.9399 8.60354 33.5508 8.51026 33.2097 8.32377C32.874 8.13722 32.6102 7.87074 32.4183 7.52432C32.2318 7.17797 32.1386 6.77289 32.1386 6.30928ZM39.9764 8.53959L38.6174 6.66898V8.53959H37.2504V2.62402H38.6174V5.89357L39.9684 4.07892H41.6552L39.8005 6.31728L41.6711 8.53959H39.9764ZM44.91 4.03096C45.4323 4.03096 45.848 4.20152 46.1571 4.54259C46.4715 4.87831 46.6287 5.34198 46.6287 5.93354V8.53959H45.2698V6.11739C45.2698 5.81893 45.1925 5.58712 45.038 5.42191C44.8834 5.2567 44.6756 5.17412 44.4144 5.17412C44.1533 5.17412 43.9454 5.2567 43.7909 5.42191C43.6363 5.58712 43.559 5.81893 43.559 6.11739V8.53959H42.1921V4.07892H43.559V4.67048C43.6976 4.4733 43.8841 4.31872 44.1186 4.20681C44.3531 4.08956 44.6169 4.03096 44.91 4.03096Z" fill="#212121"/>
<path d="M19.5919 0.722656C19.4951 0.722656 19.3954 0.75986 19.309 0.847022L4.86987 14.6867H9.75489C10.4088 14.6867 11.0201 14.3643 11.3902 13.8253L19.9449 1.34137C20.1281 1.03539 19.8735 0.722656 19.5919 0.722656Z" fill="#212121"/>
<path fill-rule="evenodd" clip-rule="evenodd" d="M0 10.1817V6.76626C0 6.52799 0.127188 6.30782 0.332545 6.18827L3.2776 4.48053C3.48302 4.36098 3.73651 4.36098 3.94193 4.48053L6.88693 6.18827C7.09317 6.307 7.21953 6.52799 7.21953 6.76626V10.1817C7.21953 10.42 7.09234 10.6402 6.88693 10.7597L3.94193 12.4675C3.73651 12.587 3.48302 12.587 3.2776 12.4675L0.332545 10.7597C0.126365 10.641 0 10.42 0 10.1817ZM5.22985 8.47406C5.22985 7.57676 4.50275 6.84654 3.60938 6.84654C2.71602 6.84654 1.98892 7.57676 1.98892 8.47406C1.98892 9.37131 2.71602 10.1016 3.60938 10.1016C4.50275 10.1016 5.22985 9.37131 5.22985 8.47406ZM1.44931 8.47406C1.44931 7.27548 2.41603 6.30453 3.60938 6.30453C4.80274 6.30453 5.76945 7.27548 5.76945 8.47406C5.76945 9.67259 4.80274 10.6435 3.60938 10.6435C2.41603 10.6435 1.44931 9.67259 1.44931 8.47406Z" fill="#212121"/>
<path d="M33.1659 12.8916L34.3207 14.7695H33.7649L32.8637 13.3017L32.0057 14.7695H31.4607L32.6101 12.8916L31.4553 11.0083H32.0057L32.9123 12.4815L33.7757 11.0083H34.3261L33.1659 12.8916Z" fill="#212121"/>
<path d="M30.6877 11.0083V14.7695H30.1965V11.0083H30.6877Z" fill="#212121"/>
<path d="M29.2561 14.7695H28.7651L26.79 11.7746V14.7695H26.299V11.0029H26.79L28.7651 13.9925V11.0029H29.2561V14.7695Z" fill="#212121"/>
<path d="M23.6586 14.8073C23.3097 14.8073 22.9913 14.7263 22.7035 14.5644C22.4157 14.3989 22.1873 14.1705 22.0182 13.8791C21.8526 13.5841 21.7699 13.2531 21.7699 12.8862C21.7699 12.5193 21.8526 12.1901 22.0182 11.8987C22.1873 11.6037 22.4157 11.3752 22.7035 11.2134C22.9913 11.0478 23.3097 10.9651 23.6586 10.9651C24.0112 10.9651 24.3313 11.0478 24.6192 11.2134C24.907 11.3752 25.1336 11.6018 25.2991 11.8932C25.4646 12.1847 25.5473 12.5156 25.5473 12.8862C25.5473 13.2567 25.4646 13.5877 25.2991 13.8791C25.1336 14.1705 24.907 14.3989 24.6192 14.5644C24.3313 14.7263 24.0112 14.8073 23.6586 14.8073ZM23.6586 14.3809C23.9213 14.3809 24.1569 14.3198 24.3655 14.1975C24.5778 14.0752 24.7433 13.9007 24.862 13.674C24.9843 13.4474 25.0454 13.1848 25.0454 12.8862C25.0454 12.584 24.9843 12.3214 24.862 12.0983C24.7433 11.8717 24.5796 11.6972 24.3709 11.5749C24.1623 11.4526 23.9249 11.3914 23.6586 11.3914C23.3924 11.3914 23.155 11.4526 22.9463 11.5749C22.7377 11.6972 22.5722 11.8717 22.4499 12.0983C22.3311 12.3214 22.2718 12.584 22.2718 12.8862C22.2718 13.1848 22.3311 13.4474 22.4499 13.674C22.5722 13.9007 22.7377 14.0752 22.9463 14.1975C23.1586 14.3198 23.396 14.3809 23.6586 14.3809Z" fill="#212121"/>
</svg>
