<svg width="281" height="280" viewBox="0 0 281 280" fill="none" xmlns="http://www.w3.org/2000/svg">
<g clip-path="url(#clip0_24_20497)">
<path fill-rule="evenodd" clip-rule="evenodd" d="M199.336 50.3878C198.233 46.9957 195.071 44.7003 191.503 44.7003C187.936 44.7003 184.773 46.9957 183.67 50.3878L172.843 83.6905L139.541 94.5172C136.149 95.6202 133.853 98.7828 133.853 102.35C133.853 105.918 136.149 109.08 139.541 110.183L172.843 121.01L183.67 154.313C184.773 157.705 187.936 160 191.503 160C195.071 160 198.233 157.705 199.336 154.313L210.163 121.01L243.466 110.183C246.858 109.08 249.153 105.918 249.153 102.35C249.153 98.7828 246.858 95.6202 243.466 94.5172L210.163 83.6905L199.336 50.3878ZM191.503 79.5683L195.798 92.7733C196.611 95.2791 198.574 97.243 201.08 98.0559L214.285 102.35L201.08 106.645C198.574 107.458 196.611 109.421 195.798 111.927L191.503 125.132L187.209 111.927C186.396 109.421 184.432 107.458 181.926 106.645L168.721 102.35L181.926 98.0559C184.432 97.243 186.396 95.2791 187.209 92.7733L191.503 79.5683Z" fill="#00AD57"/>
<path fill-rule="evenodd" clip-rule="evenodd" d="M255.338 22.179C254.14 18.4944 250.707 16 246.832 16C242.957 16 239.523 18.4944 238.326 22.179L234.247 34.7216L221.705 38.8001C218.02 39.9975 215.526 43.431 215.526 47.3061C215.526 51.1811 218.02 54.6147 221.705 55.8121L234.247 59.8905L238.326 72.4332C239.523 76.1178 242.957 78.6121 246.832 78.6121C250.707 78.6121 254.14 76.1178 255.338 72.4332L259.416 59.8905L271.959 55.8121C275.643 54.6147 278.138 51.1811 278.138 47.3061C278.138 43.431 275.643 39.9975 271.959 38.8001L259.416 34.7216L255.338 22.179Z" fill="#00AD57"/>
<path fill-rule="evenodd" clip-rule="evenodd" d="M54.5391 91.875H91.5235C94.44 91.875 96.807 87.955 96.807 83.125C96.807 78.295 94.44 74.375 91.5235 74.375H54.5391C51.6226 74.375 49.2556 78.295 49.2556 83.125C49.2556 87.955 51.6226 91.875 54.5391 91.875Z" fill="#212121"/>
<path fill-rule="evenodd" clip-rule="evenodd" d="M57.2058 126.875H112.857C117.245 126.875 120.807 122.955 120.807 118.125C120.807 113.295 117.245 109.375 112.857 109.375H57.2058C52.8173 109.375 49.2556 113.295 49.2556 118.125C49.2556 122.955 52.8173 126.875 57.2058 126.875Z" fill="#212121"/>
<path fill-rule="evenodd" clip-rule="evenodd" d="M55.0911 161.875H130.526C133.993 161.875 136.809 157.955 136.809 153.125C136.809 148.295 133.993 144.375 130.526 144.375H55.0911C51.6238 144.375 48.8086 148.295 48.8086 153.125C48.8086 157.955 51.6238 161.875 55.0911 161.875Z" fill="#212121"/>
<path d="M192.809 20.0001H44.1422C26.8372 20.0001 12.8088 34.0285 12.8088 51.3334V196C12.8088 207.046 21.7631 216 32.8088 216V216C43.8545 216 52.8088 224.954 52.8088 236V259.319C52.8088 266.962 62.6342 270.081 67.0417 263.837L91.4461 229.264C97.3172 220.947 106.863 216 117.044 216H241.475C258.78 216 272.809 201.972 272.809 184.667V96.0001" stroke="#212121" stroke-width="15.6667" stroke-linecap="round"/>
</g>
<defs>
<clipPath id="clip0_24_20497">
<rect width="280" height="280" fill="white" transform="translate(0.808838)"/>
</clipPath>
</defs>
</svg>
