<svg xmlns="http://www.w3.org/2000/svg" fill-rule="evenodd" stroke-linejoin="round" stroke-miterlimit="2" clip-rule="evenodd" viewBox="0 0 24 24" id="flash">
  <path d="M15.419,2.394c0.133,-0.309 0.101,-0.664 -0.084,-0.944c-0.185,-0.281 -0.499,-0.45 -0.835,-0.45l-6,0c-0.477,0 -0.887,0.336 -0.981,0.804l-2,10c-0.058,0.294 0.018,0.598 0.208,0.83c0.19,0.232 0.473,0.366 0.773,0.366l3.219,0c0,-0 -2.189,8.757 -2.189,8.757c-0.117,0.469 0.117,0.955 0.557,1.154c0.441,0.199 0.96,0.055 1.235,-0.342l9,-13c0.212,-0.306 0.236,-0.704 0.064,-1.033c-0.173,-0.33 -0.514,-0.536 -0.886,-0.536l-4.483,0c-0,-0 2.402,-5.606 2.402,-5.606Z"></path>
</svg>
