<svg width="224" height="196" viewBox="0 0 224 196" fill="none" xmlns="http://www.w3.org/2000/svg">
<g opacity="0.5" clip-path="url(#clip0_3_19463)">
<path d="M97.1872 143.97L6.09399 146.527L37.8593 79.9631" stroke="#6D6D6D" stroke-width="0.210134" stroke-miterlimit="10"/>
<path d="M37.8593 79.9632L122.754 92.3471L147.858 54.4389L188.462 60.0004L211.752 5.63867L221.594 50.4043" stroke="#6D6D6D" stroke-width="0.210134" stroke-miterlimit="10"/>
<path d="M6.09399 143.97L48.9614 189.352L97.1872 143.97L161.089 189.352L177.613 143.97H97.1872L122.754 92.3471L177.613 143.97L188.463 60.0004L221.594 50.4043V72.4124L202.233 91.2054L221.594 110.692L177.613 143.97L209.637 171.358" stroke="#6D6D6D" stroke-width="0.210134" stroke-miterlimit="10"/>
<path d="M188.463 60.0004L202.233 91.2053" stroke="#6D6D6D" stroke-width="0.210134" stroke-miterlimit="10"/>
<path d="M43.503 76.8523L34.7552 74.3241L32.227 83.0719L40.9748 85.6001L43.503 76.8523Z" fill="#EE353A"/>
<path d="M223.972 49.085L220.291 48.0212L219.227 51.702L222.908 52.7658L223.972 49.085Z" fill="#2360AD"/>
<path d="M215.988 2.52506L207.24 -0.00317383L204.712 8.74463L213.459 11.2729L215.988 2.52506Z" fill="#00AA4F"/>
<path d="M126.691 89.4325L118.482 87.0598L116.109 95.2693L124.319 97.6419L126.691 89.4325Z" fill="#2360AD"/>
<path d="M56.3576 183.421L44.077 179.872L40.5278 192.152L52.8083 195.701L56.3576 183.421Z" fill="#00AA4F"/>
<path d="M95.8493 138.443L91.5205 143.536L95.0227 149.23L101.523 147.654L102.034 140.986L95.8493 138.443Z" fill="#00AA4F"/>
<path d="M187.461 55.8748L184.225 59.6782L186.845 63.9299L191.699 62.7532L192.084 57.773L187.461 55.8748Z" fill="#EE353A"/>
<path d="M207.732 166.657L205.301 169.522L207.27 172.723L210.919 171.834L211.206 168.093L207.732 166.657Z" fill="#EE353A"/>
<path d="M6.09402 150.064C9.45958 150.064 12.1879 147.336 12.1879 143.97C12.1879 140.604 9.45958 137.876 6.09402 137.876C2.72845 137.876 0.00012207 140.604 0.00012207 143.97C0.00012207 147.336 2.72845 150.064 6.09402 150.064Z" fill="#2360AD"/>
<path d="M176.688 147.724C178.761 147.724 180.442 146.043 180.442 143.97C180.442 141.896 178.761 140.216 176.688 140.216C174.614 140.216 172.934 141.896 172.934 143.97C172.934 146.043 174.614 147.724 176.688 147.724Z" fill="#2360AD"/>
<path d="M202.233 94.7635C204.198 94.7635 205.792 93.1704 205.792 91.2053C205.792 89.2401 204.198 87.647 202.233 87.647C200.268 87.647 198.675 89.2401 198.675 91.2053C198.675 93.1704 200.268 94.7635 202.233 94.7635Z" fill="#00AA4F"/>
<path d="M161.089 193.492C163.375 193.492 165.229 191.638 165.229 189.352C165.229 187.066 163.375 185.212 161.089 185.212C158.803 185.212 156.949 187.066 156.949 189.352C156.949 191.638 158.803 193.492 161.089 193.492Z" fill="#EE353A"/>
<path d="M148.404 56.8414C149.731 56.8414 150.806 55.7658 150.806 54.4389C150.806 53.112 149.731 52.0364 148.404 52.0364C147.077 52.0364 146.001 53.112 146.001 54.4389C146.001 55.7658 147.077 56.8414 148.404 56.8414Z" fill="#00AA4F"/>
</g>
<defs>
<clipPath id="clip0_3_19463">
<rect width="223.968" height="195.698" fill="white"/>
</clipPath>
</defs>
</svg>
