<svg width="24" height="24" viewBox="0 0 1024 1024" xmlns="http://www.w3.org/2000/svg">
  <path d="M512 64C794.784 64 1024 293.216 1024 576 1024 768.8 917.408 936.672 760 1024L264 1024C106.56 936.672 0 768.8 0 576 0 293.216 229.216 64 512 64ZM801.92 865.92C879.36 788.48 922.016 685.504 922.016 576L832 576 832 512 917.024 512C910.016 467.008 895.648 423.84 874.464 384L768 384 768 320 832.288 320C822.848 308.224 812.736 296.896 801.92 286.08 755.68 239.872 700.384 206.048 640 186.304L640 256 576 256 576 170.976C555.008 167.68 533.632 166.016 512 166.016 490.368 166.016 468.992 167.68 448 170.976L448 256 384 256 384 186.304C323.616 206.048 268.32 239.872 222.08 286.08 211.264 296.896 201.152 308.224 191.712 320L256 320 256 384 149.536 384C128.352 423.84 113.984 467.008 106.944 512L192 512 192 576 102.016 576C102.016 685.504 144.64 788.48 222.08 865.92 232.8 876.64 244 886.656 255.648 896L448 896 484.576 384 539.424 384 576 896 768.352 896C780 886.656 791.2 876.608 801.92 865.92Z" stroke="black" stroke-width="2" stroke-linecap="round" stroke-linejoin="round"/>
</svg>
