<?xml version="1.0" encoding="UTF-8"?>
<svg version="1.1" xmlns="http://www.w3.org/2000/svg" width="2408" height="791">
<path d="M0 0 C794.64 0 1589.28 0 2408 0 C2408 261.03 2408 522.06 2408 791 C1613.36 791 818.72 791 0 791 C0 529.97 0 268.94 0 0 Z " fill="#FEFEFE" transform="translate(0,0)"/>
<path d="M0 0 C2.60071457 -0.00435591 5.20142786 -0.00954197 7.80213928 -0.01548767 C14.09096991 -0.02813665 20.37975766 -0.0300408 26.66859888 -0.02768741 C31.78766268 -0.02589325 36.90671363 -0.02767718 42.02577591 -0.03191185 C42.75858408 -0.03250704 43.49139226 -0.03310223 44.24640674 -0.03371545 C45.7358235 -0.03492739 47.22524026 -0.03614153 48.71465702 -0.03735783 C62.63347255 -0.04819529 76.55226375 -0.04608876 90.47108062 -0.03997298 C103.15994685 -0.03480541 115.84873628 -0.04606185 128.53758733 -0.0650712 C141.61928454 -0.08451636 154.70094553 -0.09269406 167.78265727 -0.08894795 C175.10593804 -0.08704623 182.42915347 -0.08942221 189.75242233 -0.10366249 C196.64236735 -0.1169266 203.53215711 -0.11422633 210.42210197 -0.1012516 C212.93575659 -0.09890264 215.44942223 -0.10155942 217.96306419 -0.10987473 C256.77804835 -0.22891867 292.78303166 7.4218795 322.76416016 33.2746582 C323.51052734 33.91790039 324.25689453 34.56114258 325.02587891 35.22387695 C336.05997358 45.54176264 343.59379148 58.65577304 349.76416016 72.2746582 C350.16119141 73.10868164 350.55822266 73.94270508 350.96728516 74.80200195 C353.42207606 80.34476396 354.88573044 86.16856137 356.38916016 92.0246582 C356.59565186 92.82226562 356.80214355 93.61987305 357.01489258 94.44165039 C360.3595702 108.03781247 361.07773565 121.23899711 361.06494141 135.1574707 C361.06884044 136.94717506 361.07317754 138.73687851 361.07792664 140.52658081 C361.08533313 144.25302145 361.08513711 147.97936722 361.07983398 151.70581055 C361.07402716 156.450703 361.09102687 161.19520664 361.11417866 165.94003487 C361.12899302 169.6274945 361.12977761 173.31486191 361.12666893 177.00234604 C361.12717763 178.7508204 361.13232917 180.49930055 361.14248085 182.24774551 C361.23341779 200.08521355 358.52839006 214.88813372 345.81884766 228.34106445 C336.62955427 236.98878351 323.80577041 240.40202132 311.40361977 240.39770603 C309.50466672 240.4006926 309.50466672 240.4006926 307.56735098 240.40373951 C306.17011409 240.40088682 304.77287739 240.39794123 303.37564087 240.39491272 C301.88553422 240.39534892 300.39542764 240.39622472 298.90532148 240.39750189 C294.81430118 240.39973731 290.72330708 240.39573856 286.63229012 240.39072382 C282.21926643 240.38640587 277.80624421 240.38786671 273.39321899 240.3886261 C265.7485583 240.38915048 258.10390614 240.38601263 250.45924759 240.38038826 C239.40635074 240.37226165 228.35345801 240.36965685 217.30055849 240.36840027 C199.36801322 240.36621158 181.43547249 240.35955644 163.50292969 240.35009766 C146.08300804 240.34091881 128.66308764 240.33384029 111.24316406 240.32958984 C110.169422 240.32932712 109.09567993 240.3290644 107.98940022 240.32879371 C102.60275839 240.32748868 97.21611654 240.32622497 91.82947469 240.32498181 C47.14103336 240.31461489 2.45259699 240.29700154 -42.23583984 240.2746582 C-42.16613446 244.89754996 -42.07778948 249.51960709 -41.97338867 254.1418457 C-41.94047605 255.70880742 -41.91234368 257.27587813 -41.8894043 258.84301758 C-41.68589003 272.38754167 -41.20553349 285.78178992 -31.45068359 296.17700195 C-20.09776577 306.85280738 -6.45843746 307.58018115 8.44146729 307.51948547 C9.9142517 307.52091002 11.38703547 307.5232252 12.85981727 307.52634782 C16.88463591 307.53241785 20.90935506 307.52623096 24.93416643 307.5180372 C29.28316134 307.51142422 33.63214406 307.51646247 37.98114014 307.52026367 C45.51004146 307.52547653 53.03891701 307.52400158 60.56781769 307.51848793 C72.46643674 307.51026216 84.36500047 307.5215144 96.26361084 307.53569031 C100.33723818 307.54029078 104.41086568 307.54474121 108.48449326 307.54912853 C109.50235116 307.55022667 110.52020907 307.55132482 111.56891115 307.55245623 C123.14213001 307.56461834 134.71535064 307.57217948 146.28857422 307.578125 C147.87471919 307.57894709 147.87471919 307.57894709 149.49290749 307.57978579 C166.65038476 307.5882554 183.80784636 307.58490103 200.96532372 307.57897065 C218.58711706 307.57335713 236.20883133 307.5868648 253.8306005 307.61652344 C264.69786789 307.63407655 275.56490685 307.63568386 286.43217322 307.61687829 C293.87308354 307.60529016 301.31383935 307.6116912 308.75472954 307.6323475 C313.04924558 307.64368784 317.34336373 307.64679806 321.63786316 307.62817192 C325.56833485 307.6112818 329.4980764 307.61732122 333.42850277 307.64167049 C334.85091001 307.64640434 336.27337568 307.64266726 337.69573119 307.62964503 C349.64750965 307.52777511 349.64750965 307.52777511 353.59994125 310.63188457 C356.94880712 314.72125575 356.5984738 317.70587242 356.33447266 322.8137207 C353.89584628 337.61250816 340.83573025 351.77590895 330.76416016 362.2746582 C329.85137884 363.26292015 328.93861946 364.25120236 328.02587891 365.23950195 C300.41512329 394.56607543 257.46222276 402.08107677 218.88714743 403.37085247 C202.21765568 403.78606757 185.53646536 403.70228682 168.86316943 403.67763472 C164.78681139 403.6722343 160.71047118 403.67333173 156.6341114 403.6761055 C155.95082319 403.6765652 155.26753497 403.6770249 154.56354104 403.67749853 C153.17422468 403.67845798 151.78490833 403.67943062 150.39559198 403.6804163 C137.47287049 403.68890152 124.55021363 403.67924232 111.62750275 403.6630152 C100.59579328 403.6495909 89.56417851 403.6519709 78.5324707 403.66577148 C65.63215319 403.68190278 52.73189163 403.68810659 39.83156544 403.67893469 C38.45099931 403.67797931 37.07043317 403.67703619 35.68986702 403.6761055 C35.01107974 403.67564267 34.33229246 403.67517985 33.63293586 403.67470299 C28.90250295 403.67213767 24.17210629 403.67642966 19.441679 403.68354416 C13.05631918 403.69229116 6.67113619 403.68605253 0.28579521 403.66886139 C-2.03835763 403.66493898 -4.3625257 403.66595634 -6.68667221 403.67264938 C-25.00437958 403.72048705 -43.61435654 402.96433468 -61.23583984 397.4621582 C-62.09846436 397.20208984 -62.96108887 396.94202148 -63.84985352 396.67407227 C-83.04943295 390.73343539 -98.98368516 381.35987697 -113.23583984 367.2746582 C-114.02345703 366.55922852 -114.81107422 365.84379883 -115.62255859 365.10668945 C-129.49926733 352.19868638 -138.00099368 334.26021931 -143.54833984 316.3996582 C-143.77875977 315.67109619 -144.00917969 314.94253418 -144.24658203 314.19189453 C-145.00998416 311.56959139 -145.62724647 308.93763251 -146.23583984 306.2746582 C-146.49086273 305.15957382 -146.74588562 304.04448944 -147.00863647 302.89561462 C-150.36769846 286.23102549 -149.65832448 269.13394692 -149.60588479 252.21878314 C-149.59442011 247.64553544 -149.59868918 243.07229667 -149.60063171 238.4990387 C-149.60150992 230.82598168 -149.59053344 223.1530138 -149.57202148 215.47998047 C-149.55085369 206.65658317 -149.54734854 197.83331616 -149.55358344 189.0098986 C-149.55931244 180.45891915 -149.55359055 171.90798475 -149.5424099 163.3570118 C-149.53781123 159.74625869 -149.53686921 156.13553357 -149.53899574 152.52477837 C-149.54090378 148.26048708 -149.53258547 143.99632509 -149.51693535 139.73206329 C-149.51275632 138.18349556 -149.51179777 136.63491455 -149.51462555 135.08634377 C-149.5371074 120.55123257 -148.57608269 105.93829003 -145.11083984 91.7746582 C-144.79542236 90.47347046 -144.79542236 90.47347046 -144.47363281 89.14599609 C-136.88643813 59.71679607 -118.10938739 34.81120353 -92.23828125 19.05834961 C-63.67443295 2.27734444 -32.41473045 -0.03615927 0 0 Z " fill="#38419B" transform="translate(972.23583984375,193.725341796875)"/>
<path d="M0 0 C0.8713476 -0.00199105 1.74269519 -0.0039821 2.64044726 -0.00603348 C3.6034677 -0.00312064 4.56648814 -0.0002078 5.55869102 0.00279331 C6.57720441 0.00193889 7.5957178 0.00108446 8.64509523 0.00020415 C12.07996492 -0.00145142 15.51478647 0.00407199 18.94965172 0.00952244 C21.40311749 0.00980432 23.85658334 0.00964656 26.31004906 0.00907993 C31.60351373 0.00885174 36.89696324 0.01169996 42.19042397 0.01731777 C49.84393605 0.02543496 57.49744218 0.02804822 65.15095811 0.02930576 C77.56742055 0.03149594 89.98387643 0.03815509 102.40033531 0.04760838 C114.46381154 0.05678339 126.52728599 0.06386379 138.590765 0.06811619 C139.70561968 0.06851027 139.70561968 0.06851027 140.84299667 0.06891232 C144.57148913 0.07021733 148.29998161 0.07148104 152.02847409 0.07272422 C182.97404719 0.08309576 213.91961213 0.10078732 244.86517906 0.12304783 C244.86517906 0.78304783 244.86517906 1.44304783 244.86517906 2.12304783 C243.39449492 3.43168154 241.85916589 4.66773343 240.30267906 5.87304783 C235.3855045 9.79916395 230.75407863 13.93065738 226.17767906 18.24804783 C221.76575023 22.4068782 217.34712509 26.52905093 212.75189781 30.48632908 C210.42859119 32.50178555 208.14769441 34.56153245 205.86517906 36.62304783 C202.24841561 39.88695631 198.60128298 43.11095732 194.92767906 46.31054783 C192.55553478 48.39515947 190.20961841 50.50733427 187.86517906 52.62304783 C184.24841561 55.88695631 180.60128298 59.11095732 176.92767906 62.31054783 C174.55553478 64.39515947 172.20961841 66.50733427 169.86517906 68.62304783 C166.24841561 71.88695631 162.60128298 75.11095732 158.92767906 78.31054783 C156.55553478 80.39515947 154.20961841 82.50733427 151.86517906 84.62304783 C148.24841561 87.88695631 144.60128298 91.11095732 140.92767906 94.31054783 C138.55553478 96.39515947 136.20961841 98.50733427 133.86517906 100.62304783 C130.24841561 103.88695631 126.60128298 107.11095732 122.92767906 110.31054783 C119.70320263 113.14417864 116.52431303 116.02809537 113.33783531 118.90429783 C110.36965661 121.56768725 107.37107556 124.19438125 104.36127281 126.81054783 C103.50864965 127.55854099 102.66719528 128.32103161 101.86517906 129.12304783 C152.35517906 129.45304783 202.84517906 129.78304783 254.86517906 130.12304783 C253.32743065 133.96741886 251.77072772 137.22542295 249.73236656 140.78711033 C249.09943687 141.89505955 248.46650719 143.00300877 247.81439781 144.1445322 C247.12318518 145.34581551 246.43177345 146.54698426 245.74017906 147.74804783 C245.02007573 149.00387782 244.30002453 150.2597377 243.58002281 151.51562595 C238.10008827 161.05578052 232.50110533 170.52226766 226.86859703 179.97314548 C222.11057182 187.97353933 217.46295255 196.03010193 212.86517906 204.12304783 C206.95671489 214.52201697 200.91866751 224.83573527 194.79926109 235.11254978 C189.58033027 243.88728486 184.45803537 252.71445851 179.36884117 261.56494236 C175.22736565 268.76660805 171.05802162 275.95117352 166.86517906 283.12304783 C161.91883457 291.58526576 157.00681538 300.06659146 152.11517906 308.56054783 C146.42083694 318.4479764 140.677111 328.30430164 134.86517906 338.12304783 C135.34189049 337.76388279 135.81860191 337.40471775 136.30975914 337.03466892 C140.60470527 333.80525292 144.92105145 330.60736943 149.25580406 327.43164158 C157.92143385 321.0797939 166.49424211 314.61661201 175.02606773 308.08642673 C181.5293035 303.11783725 188.09881937 298.2479066 194.70111656 293.41211033 C200.64189339 289.0502775 206.51271167 284.60250235 212.36517906 280.12304783 C219.75159698 274.46951388 227.19712372 268.90834589 234.70111656 263.41211033 C240.64189339 259.0502775 246.51271167 254.60250235 252.36517906 250.12304783 C259.75159698 244.46951388 267.19712372 238.90834589 274.70111656 233.41211033 C280.64189339 229.0502775 286.51271167 224.60250235 292.36517906 220.12304783 C299.75159698 214.46951388 307.19712372 208.90834589 314.70111656 203.41211033 C320.64189339 199.0502775 326.51271167 194.60250235 332.36517906 190.12304783 C339.75159698 184.46951388 347.19712372 178.90834589 354.70111656 173.41211033 C360.64189339 169.0502775 366.51271167 164.60250235 372.36517906 160.12304783 C379.75159698 154.46951388 387.19712372 148.90834589 394.70111656 143.41211033 C400.64189339 139.0502775 406.51271167 134.60250235 412.36517906 130.12304783 C419.74577273 124.47397173 427.18497978 118.91655097 434.68353844 113.42529392 C441.65645316 108.30628907 448.53782355 103.07113656 455.39838219 97.80273533 C461.48696621 93.13626713 467.65549401 88.63918241 473.86517906 84.12304783 C405.88517906 83.79304783 337.90517906 83.46304783 267.86517906 83.12304783 C269.31746369 78.76619393 270.2728977 76.1625848 272.61517906 72.49804783 C274.7578679 69.02258603 276.70256868 65.54346679 278.49017906 61.87304783 C281.23447701 56.28568543 284.17993387 50.82823826 287.17767906 45.37304783 C293.35217372 34.1364087 299.35818767 22.81310559 305.34100914 11.47363377 C306.05087192 10.13150249 306.76075071 8.7893797 307.47064781 7.44726658 C307.96357826 6.50976818 307.96357826 6.50976818 308.4664669 5.55333042 C310.75222663 1.23600026 310.75222663 1.23600026 311.86517906 0.12304783 C314.34304738 0.01646603 316.79337632 -0.02473746 319.27208519 -0.02412319 C320.44920514 -0.02963822 320.44920514 -0.02963822 321.6501053 -0.03526467 C324.30017216 -0.04634616 326.95019987 -0.0501529 329.60028648 -0.05395412 C331.49215381 -0.06021549 333.3840199 -0.06686199 335.27588463 -0.07386684 C340.43101826 -0.09130901 345.58614258 -0.10183769 350.74129844 -0.11007237 C353.96005145 -0.11521649 357.17880154 -0.12129253 360.39755249 -0.1275835 C370.46225218 -0.14664588 380.52694449 -0.1608739 390.59165877 -0.16919547 C402.22042894 -0.17896801 413.84900877 -0.20528364 425.47771186 -0.24569637 C434.4577956 -0.27583614 443.43782473 -0.29066238 452.41795808 -0.29397649 C457.78490809 -0.29632975 463.151655 -0.30532573 468.51855087 -0.33043766 C473.56891573 -0.35368544 478.61894331 -0.35796483 483.66934776 -0.34767628 C485.52289322 -0.34717998 487.37645509 -0.3535281 489.22994995 -0.36723232 C491.76149029 -0.38490195 494.29181388 -0.37786984 496.82335472 -0.36469936 C497.55614857 -0.37566861 498.28894243 -0.38663786 499.04394215 -0.3979395 C504.1350534 -0.33403563 507.00713674 0.8307397 510.86517906 4.12304783 C515.24444089 9.10547543 515.43653984 13.13676719 515.36638451 19.45945835 C515.3719189 20.39165748 515.3774533 21.32385661 515.38315541 22.2843042 C515.39675562 25.40457097 515.38179489 28.52403695 515.36688805 31.64428806 C515.37067188 33.88369174 515.37617244 36.12309309 515.38326073 38.36248875 C515.39723778 44.44829366 515.38602339 50.53381648 515.36954951 56.61960578 C515.35568403 63.00568878 515.36216191 69.39175562 515.3656826 75.77784824 C515.36838686 86.52065733 515.35499035 97.26332817 515.3317318 108.00610447 C515.30790675 119.01200618 515.30068985 130.01775976 515.31122398 141.02368259 C515.32393028 154.32264125 515.32126262 167.62149576 515.30556488 180.92045879 C515.29984894 185.97845222 515.29985313 191.03639585 515.30463028 196.09438992 C515.30945978 202.080539 515.29905535 208.06648703 515.27767563 214.052598 C515.27218361 216.23117552 515.27157105 218.40977268 515.27662849 220.58835125 C515.31548853 239.7557146 513.34425955 258.47844181 509.42767906 277.24804783 C509.1057357 278.81546726 509.1057357 278.81546726 508.77728844 280.41455173 C506.35383563 291.94033507 503.04464295 302.51550578 497.86517906 313.12304783 C497.28250322 314.37274749 496.70051565 315.6227682 496.11908531 316.87304783 C479.09383974 352.87165783 447.79412349 376.4587492 411.00751305 390.01855564 C396.96774273 394.99780862 382.73923225 397.95660934 368.05267906 400.31054783 C367.09506676 400.46563816 366.13745445 400.62072849 365.15082359 400.78051853 C342.52884993 404.16698628 319.85818224 404.43893558 297.04081392 404.4246304 C293.58571573 404.42354159 290.13063512 404.42849221 286.6755408 404.43323582 C278.49557544 404.44424331 270.31565602 404.44481985 262.13568687 404.43872166 C253.80382625 404.43270384 245.47213543 404.44495748 237.14030373 404.46629173 C229.89432709 404.48413714 222.64840332 404.48987329 215.40240562 404.48665398 C211.11588269 404.4848753 206.82948053 404.48712091 202.54297829 404.50136852 C185.42263408 404.55332752 168.4375712 404.26831281 151.37640953 402.744874 C150.33976925 402.6530267 150.33976925 402.6530267 149.28218675 402.55932391 C128.93428479 400.70998989 109.21437363 396.66469616 89.86517906 390.12304783 C89.16247887 389.89004978 88.45977867 389.65705173 87.73578453 389.41699314 C66.95065077 382.43775571 48.68645375 371.30739519 32.86517906 356.12304783 C31.97185875 355.29289158 31.07853844 354.46273533 30.15814781 353.60742283 C7.36106617 331.79874612 -4.44489578 301.65812132 -10.13482094 271.12304783 C-10.35653969 269.94742283 -10.57825844 268.77179783 -10.80669594 267.56054783 C-13.73784165 250.15131877 -14.43259613 232.72751835 -14.40947914 215.10986423 C-14.41383862 212.88022283 -14.41902583 210.65058292 -14.42496681 208.42094517 C-14.43822152 202.432231 -14.43895177 196.44358044 -14.43640351 190.45485449 C-14.43532655 185.4415043 -14.44023452 180.42816661 -14.44500893 175.41481912 C-14.45668142 162.923486 -14.45590559 150.43218106 -14.44945212 137.94084696 C-14.44426405 127.10500457 -14.45559881 116.26925153 -14.47455034 105.43342681 C-14.493923 94.27049773 -14.5018955 83.10760126 -14.49842709 71.94465292 C-14.49661453 65.69160251 -14.49924973 59.4386344 -14.51314163 53.18559742 C-14.52569019 47.31998848 -14.52380409 41.45456005 -14.51073074 35.58895397 C-14.5083606 33.43708009 -14.51111527 31.28519358 -14.51935387 29.13333416 C-14.52978365 26.19794203 -14.52175144 23.26316023 -14.50904274 20.32779026 C-14.52010417 19.04960153 -14.52010417 19.04960153 -14.53138906 17.74559081 C-14.48626373 12.79668655 -13.86833243 9.41384261 -11.13482094 5.12304783 C-7.39719902 1.75007195 -5.01009683 -0.00251764 0 0 Z " fill="#37429C" transform="translate(211.13482093811035,193.87695217132568)"/>
<path d="M0 0 C0.86701538 -0.0065712 1.73403076 -0.0131424 2.62731934 -0.01991272 C5.49926846 -0.03963791 8.3711653 -0.0513069 11.24316406 -0.0612793 C12.71532757 -0.06739259 12.71532757 -0.06739259 14.21723175 -0.07362938 C19.41239715 -0.09448728 24.60753616 -0.10878995 29.80273438 -0.11816406 C35.16390278 -0.12922492 40.52465573 -0.16362204 45.88567734 -0.20333576 C50.01215375 -0.22950379 54.13853122 -0.2378561 58.26508331 -0.24144554 C60.24099787 -0.24631138 62.216908 -0.2579253 64.19274139 -0.27648354 C66.96216071 -0.3008777 69.73050574 -0.2999094 72.5 -0.29296875 C73.7175296 -0.31218384 73.7175296 -0.31218384 74.95965576 -0.33178711 C80.585182 -0.28056154 83.92474403 0.8525025 88.50878906 4.17700195 C90.80013955 7.56707043 90.7629124 10.55951958 90.77164459 14.58424091 C90.77574986 15.22834112 90.77985513 15.87244132 90.7840848 16.53605971 C90.79543053 18.70317819 90.79250974 20.87004268 90.78967285 23.03718567 C90.79483981 24.60307616 90.80086603 26.16896401 90.80767965 27.7348482 C90.82383013 32.04490784 90.82739937 36.35490089 90.82887459 40.66498721 C90.83257385 45.3106475 90.84766751 49.95627316 90.86114502 54.60191345 C90.88831924 64.76297475 90.90036202 74.92402027 90.90916634 85.08511186 C90.91468941 91.42777927 90.92316375 97.77044058 90.93217468 104.11310387 C90.95656007 121.66886036 90.9771593 139.22461195 90.98392487 156.78038502 C90.98458356 158.4660713 90.98458356 158.4660713 90.98525557 160.18581186 C90.9859104 161.87556129 90.9859104 161.87556129 90.98657846 163.59944707 C90.9874654 165.88221602 90.98835853 168.16498496 90.98925781 170.44775391 C90.98970067 171.58008934 90.99014353 172.71242477 90.99059981 173.8790734 C90.99849818 192.2326321 91.03341345 210.58603209 91.07997686 228.93952946 C91.1273802 247.77587294 91.15232745 266.61213675 91.1546607 285.44854087 C91.15649547 296.02734912 91.16803174 306.60595056 91.20429993 317.18470192 C91.23506998 326.19156593 91.24536194 335.1981592 91.22882372 344.20506576 C91.2209993 348.80149462 91.22292369 353.39737802 91.25093842 357.99374008 C91.27635047 362.20151134 91.27408212 366.40832549 91.24975699 370.61609479 C91.24583128 372.13830605 91.2520547 373.66058435 91.26944572 375.18270133 C91.40629575 387.9697111 91.40629575 387.9697111 87.58785248 392.56707287 C83.36040225 396.58211361 79.55241192 396.34149141 73.93164062 396.36987305 C73.04365784 396.37805054 72.15567505 396.38622803 71.24078369 396.39465332 C68.29366738 396.4195239 65.34659932 396.43602821 62.39941406 396.45043945 C61.39374138 396.45576313 60.3880687 396.46108681 59.35192108 396.46657181 C54.02824159 396.49331151 48.70458562 396.51268319 43.38085938 396.52709961 C37.88159223 396.54374314 32.38292487 396.58851634 26.88388443 396.63947105 C22.65622265 396.67312791 18.42870344 396.6846754 14.2009201 396.69032669 C12.17392141 396.69704421 10.14693225 396.71227923 8.12006378 396.7362175 C5.28071762 396.76783614 2.44299162 396.76791065 -0.39648438 396.76049805 C-1.23203857 396.77690338 -2.06759277 396.79330872 -2.9284668 396.81021118 C-7.09209774 396.76577645 -9.70040882 396.42790772 -12.99713135 393.76553345 C-16.66000098 389.96394931 -16.61777499 388.1670563 -16.62822533 382.9818306 C-16.63087715 382.33636174 -16.63352898 381.69089288 -16.63626117 381.02586436 C-16.64397937 378.84211863 -16.64451429 376.65842889 -16.64511108 374.47467041 C-16.64912405 372.90154561 -16.65356199 371.32842184 -16.65839064 369.75529933 C-16.67038048 365.41600126 -16.67601016 361.07671432 -16.68057179 356.73740292 C-16.68651874 352.0637889 -16.6981308 347.39018826 -16.7088623 342.71658325 C-16.73340659 331.4217819 -16.74801613 320.12697612 -16.76092237 308.8321563 C-16.76463273 305.64362473 -16.76860609 302.4550936 -16.77267504 299.26656246 C-16.7979092 279.47896825 -16.81996887 259.69137338 -16.83240318 239.90376663 C-16.83533303 235.31841275 -16.83829467 230.7330589 -16.84130859 226.14770508 C-16.84205464 225.0079951 -16.8428007 223.86828512 -16.84356935 222.69403848 C-16.85622828 204.2233059 -16.88945741 185.75266947 -16.93111043 167.28198186 C-16.973496 148.33158095 -16.99709429 129.38122932 -17.00232375 110.43078113 C-17.00574163 99.78548657 -17.0175412 89.14034229 -17.05042648 78.4950943 C-17.07838174 69.43072363 -17.08944624 60.36653401 -17.07823102 51.30212358 C-17.07303281 46.67551289 -17.07600625 42.04928162 -17.10069656 37.42272568 C-17.12310493 33.18850957 -17.12251526 28.95494729 -17.10349269 24.72072038 C-17.10068081 23.1877002 -17.10635696 21.65463648 -17.12130563 20.12168661 C-17.23932445 7.23263764 -17.23932445 7.23263764 -14.14071083 3.28886032 C-9.65208658 -0.28892381 -5.49262212 0.0180159 0 0 Z " fill="#096CB7" transform="translate(1440.4912109375,196.822998046875)"/>
<path d="M0 0 C1.39134126 -0.00445668 1.39134126 -0.00445668 2.81079042 -0.0090034 C5.92044941 -0.01767834 9.03006985 -0.01919764 12.13973999 -0.02069092 C14.36890749 -0.02531999 16.5980742 -0.03034477 18.82723999 -0.03573608 C24.88534023 -0.04885461 30.94342939 -0.05530413 37.00154161 -0.05974674 C40.78787796 -0.06267871 44.57421129 -0.06678379 48.36054611 -0.07125092 C58.85377403 -0.08335883 69.34700016 -0.09374086 79.84023476 -0.09712601 C80.51140733 -0.09734557 81.18257991 -0.09756514 81.87409105 -0.09779136 C82.54682864 -0.09800964 83.21956623 -0.09822791 83.91268981 -0.09845281 C85.2758081 -0.09889627 86.63892639 -0.09934283 88.00204468 -0.09979248 C88.67819192 -0.10001391 89.35433917 -0.10023534 90.05097573 -0.10046348 C100.99755326 -0.10440825 111.9440641 -0.12185329 122.8906159 -0.145152 C134.14236185 -0.16890596 145.39407557 -0.18107211 156.64585054 -0.18249393 C162.95797662 -0.18354097 169.27000862 -0.18942742 175.58211136 -0.20731354 C181.52303728 -0.22382024 187.46379867 -0.225937 193.40473938 -0.21717453 C195.58030514 -0.21640552 197.75587984 -0.22072886 199.93142319 -0.23063278 C214.36481522 -0.29246384 226.32894746 0.13593843 238.81698608 8.14044189 C239.70386108 8.69731689 240.59073608 9.25419189 241.50448608 9.82794189 C257.10550928 25.42896509 252.81698608 47.68581509 252.81698608 68.14044189 C155.13698608 68.14044189 57.45698608 68.14044189 -43.18301392 68.14044189 C-43.18301392 21.31588049 -43.18301392 21.31588049 -32.17910767 10.09747314 C-22.78807768 2.21841578 -11.92321995 -0.0119427 0 0 Z " fill="#FEFEFE" transform="translate(973.1830139160156,289.85955810546875)"/>
<path d="M0 0 C3.1875 2.125 3.1875 2.125 5 4 C5 4.66 5 5.32 5 6 C5.66 6 6.32 6 7 6 C7 3.03 7 0.06 7 -3 C10.63 -3 14.26 -3 18 -3 C18.09306696 5.69331939 18.16394962 14.3864648 18.20724869 23.0801754 C18.22804004 27.11792085 18.25620073 31.1553231 18.30175781 35.19287109 C18.34552046 39.09623162 18.36920052 42.999264 18.37950897 46.9028511 C18.38684625 48.38507877 18.40117301 49.8672904 18.42292023 51.34937668 C18.58852065 63.11308045 17.23882707 72.51261573 8.91796875 81.3125 C0.70114407 88.54196693 -9.60294549 89.41732873 -20.11328125 89.25 C-29.1449675 88.66906742 -38.77649553 86.83500476 -46 81 C-47.38671875 79.10546875 -47.38671875 79.10546875 -48 77 C-47.1015625 74.859375 -47.1015625 74.859375 -45.625 72.75 C-44.90183594 71.69039062 -44.90183594 71.69039062 -44.1640625 70.609375 C-43.77992187 70.07828125 -43.39578125 69.5471875 -43 69 C-41.97519531 69.49371094 -40.95039062 69.98742187 -39.89453125 70.49609375 C-38.5339935 71.14352206 -37.17330861 71.79064121 -35.8125 72.4375 C-34.80219727 72.92573242 -34.80219727 72.92573242 -33.77148438 73.42382812 C-25.62694751 77.27758459 -17.01291245 78.50938048 -8.13671875 76.28125 C-3.19837896 74.46686738 0.35161982 72.74501448 3 68 C5.07897078 62.59467598 5.2325064 57.69640672 5 52 C4.21625 52.7425 3.4325 53.485 2.625 54.25 C-4.64699912 60.18598067 -12.27838281 61.7023303 -21.54296875 61.37109375 C-31.86089192 60.26352008 -39.23320873 55.83972394 -46 48 C-51.58304718 39.2339742 -52.83220625 31.30746879 -52 21 C-50.11965393 12.90091904 -45.63308452 6.1721293 -38.7578125 1.46484375 C-26.51023078 -5.60741304 -12.77753967 -6.51056614 0 0 Z " fill="#4A3393" transform="translate(1971,375)"/>
<path d="M0 0 C4.29 0 8.58 0 13 0 C13 31.02 13 62.04 13 94 C9.04 94 5.08 94 1 94 C0.505 89.545 0.505 89.545 0 85 C-0.94875 85.9075 -1.8975 86.815 -2.875 87.75 C-9.7543733 93.56782672 -17.01643354 95.73532444 -25.984375 95.37890625 C-35.70476326 94.15756213 -44.32807624 89.72310661 -50.5625 82.0859375 C-56.40167678 73.36192934 -58.10422903 64.40952983 -57 54 C-54.85591779 44.70897708 -50.49144095 37.2345521 -42.6875 31.6875 C-34.46040917 26.65526277 -26.65197449 24.86743454 -17 26 C-10.20254483 27.77823722 -6.53012892 30.39155924 -1 35 C-0.67 23.45 -0.34 11.9 0 0 Z " fill="#4C3694" transform="translate(2065,194)"/>
<path d="M0 0 C5.98238802 5.55426985 9.60550477 12.36342534 11.57421875 20.23828125 C11.57421875 24.19828125 11.57421875 28.15828125 11.57421875 32.23828125 C-6.24578125 32.23828125 -24.06578125 32.23828125 -42.42578125 32.23828125 C-38.34968703 41.40949324 -35.9300131 45.83641982 -26.87890625 49.5078125 C-18.835375 51.90294044 -11.707547 50.05801451 -4.42578125 46.23828125 C-3.71164062 45.69816406 -2.9975 45.15804687 -2.26171875 44.6015625 C-0.42578125 43.23828125 -0.42578125 43.23828125 1.57421875 43.23828125 C4.26171875 45.98828125 4.26171875 45.98828125 6.57421875 49.23828125 C6.484375 51.24609375 6.484375 51.24609375 5.57421875 53.23828125 C3.68359375 54.87109375 3.68359375 54.87109375 1.32421875 56.36328125 C0.17179687 57.10964844 0.17179687 57.10964844 -1.00390625 57.87109375 C-10.53719933 63.25279146 -23.82674845 63.06798249 -34.2578125 60.17578125 C-44.02319069 55.56261158 -50.79921155 48.72745312 -54.578125 38.58203125 C-57.08857462 28.67905947 -56.41667743 18.23595324 -51.42578125 9.23828125 C-45.82661842 1.14919725 -38.31654585 -4.51187558 -28.5703125 -6.47265625 C-18.14841444 -7.8774294 -8.69277921 -6.3131134 0 0 Z " fill="#4B3594" transform="translate(1979.42578125,226.76171875)"/>
<path d="M0 0 C9.3770612 5.74280714 14.46161848 13.60819266 17.13671875 24.30859375 C17.13671875 27.93859375 17.13671875 31.56859375 17.13671875 35.30859375 C-0.68328125 35.30859375 -18.50328125 35.30859375 -36.86328125 35.30859375 C-33.19161193 45.16001029 -33.19161193 45.16001029 -25.86328125 51.30859375 C-18.31825317 54.50072101 -10.02260569 54.42053502 -2.42578125 51.49609375 C0.78225987 50.11668892 3.40375461 48.48126911 6.13671875 46.30859375 C8.11671875 48.61859375 10.09671875 50.92859375 12.13671875 53.30859375 C9.1854662 59.21109886 4.77037727 61.95062898 -1.30078125 64.12109375 C-11.61340495 66.83659436 -22.51015293 66.58842104 -32.171875 61.921875 C-39.51729512 57.51888732 -44.88796441 52.41748834 -47.86328125 44.30859375 C-48.21777344 43.38820313 -48.57226562 42.4678125 -48.9375 41.51953125 C-51.37670137 33.05951638 -50.90866677 23.48169468 -47.1171875 15.515625 C-42.46046473 7.31921264 -36.92734258 1.8095908 -28.09765625 -1.83203125 C-19.34738915 -4.15698145 -8.21149188 -4.02906817 0 0 Z " fill="#493393" transform="translate(2193.86328125,524.69140625)"/>
<path d="M0 0 C7.80424863 4.58946105 13.55347455 10.93195156 16.375 19.5625 C17.375 24.5625 17.375 24.5625 17.375 35.5625 C-0.445 35.5625 -18.265 35.5625 -36.625 35.5625 C-33.18712136 44.73017636 -31.08985807 48.56518749 -22.40625 52.61328125 C-14.79733746 55.21014325 -6.78378666 54.00505535 0.375 50.5625 C3.22100677 48.50462485 3.22100677 48.50462485 5.375 46.5625 C6.035 46.5625 6.695 46.5625 7.375 46.5625 C12.28642191 51.58814103 12.28642191 51.58814103 12.5625 54.625 C9.07806098 60.31013736 3.55077656 62.80139223 -2.625 64.5625 C-13.35436642 67.12049464 -24.37904421 66.21579489 -33.9375 60.625 C-34.824375 59.944375 -35.71125 59.26375 -36.625 58.5625 C-37.8934375 57.69625 -37.8934375 57.69625 -39.1875 56.8125 C-45.43090109 51.04936053 -49.07895647 43.09025572 -49.91015625 34.67578125 C-50.22509706 23.98148683 -47.92443716 15.50455127 -40.625 7.5625 C-29.99879772 -3.39370856 -14.14608348 -6.47912221 0 0 Z " fill="#493393" transform="translate(1841.625,524.4375)"/>
<path d="M0 0 C20.79 0 41.58 0 63 0 C63 3.96 63 7.92 63 12 C46.83 12 30.66 12 14 12 C14 20.58 14 29.16 14 38 C28.19 38 42.38 38 57 38 C57 41.63 57 45.26 57 49 C42.48 49 27.96 49 13 49 C13 58.24 13 67.48 13 77 C30.16 77 47.32 77 65 77 C65 80.96 65 84.92 65 89 C43.55 89 22.1 89 0 89 C0 59.63 0 30.26 0 0 Z " fill="#4E3896" transform="translate(1615,350)"/>
<path d="M0 0 C7.63246972 5.4026163 12.90198135 13.32918431 14.52734375 22.59375 C14.52734375 26.22375 14.52734375 29.85375 14.52734375 33.59375 C-3.29265625 33.59375 -21.11265625 33.59375 -39.47265625 33.59375 C-38.15265625 36.89375 -36.83265625 40.19375 -35.47265625 43.59375 C-35.14265625 44.58375 -34.81265625 45.57375 -34.47265625 46.59375 C-32.82635432 47.71310073 -32.82635432 47.71310073 -30.47265625 48.59375 C-29.33828125 49.13 -28.20390625 49.66625 -27.03515625 50.21875 C-20.11074925 52.7555421 -11.8595099 52.73625531 -4.91015625 50.28125 C-2.11486368 48.90901546 0.19349614 47.63586666 2.52734375 45.59375 C5.86451924 46.9746502 7.75035411 48.4138738 9.52734375 51.59375 C9.09211338 55.19688668 8.47773122 55.63612737 5.52734375 58.15625 C-1.41629081 62.75778211 -8.68996754 64.13920117 -16.91015625 64.03125 C-18.16010376 64.0166272 -18.16010376 64.0166272 -19.43530273 64.00170898 C-30.0028283 63.69706518 -36.59521782 60.41388001 -44.26953125 53.1015625 C-51.14777361 45.27207385 -52.8080909 36.8691742 -52.68359375 26.72265625 C-51.99414004 16.49575949 -47.56107729 9.26678872 -40.22265625 2.34375 C-28.86671718 -6.7310834 -12.53493715 -7.12887421 0 0 Z " fill="#4A3493" transform="translate(1837.47265625,375.40625)"/>
<path d="M0 0 C4.82963409 4.21383375 8.60876793 8.93416009 9.24050903 15.49946594 C9.2338472 16.8151783 9.2338472 16.8151783 9.22705078 18.1574707 C9.22689972 19.15813065 9.22674866 20.15879059 9.22659302 21.18977356 C9.21627045 22.2576561 9.20594788 23.32553864 9.1953125 24.42578125 C9.1924826 25.52850876 9.18965271 26.63123627 9.18673706 27.76737976 C9.17555981 31.28253114 9.15045937 34.79742589 9.125 38.3125 C9.11496704 40.69856402 9.10584174 43.08463205 9.09765625 45.47070312 C9.07562845 51.31390066 9.04111513 57.15690685 9 63 C5.37 63 1.74 63 -2 63 C-2.495 59.535 -2.495 59.535 -3 56 C-4.2375 57.1446875 -4.2375 57.1446875 -5.5 58.3125 C-12.53741131 64.03344407 -19.42930207 64.60344587 -28.296875 64.41796875 C-35.9332607 63.55605602 -42.18383313 60.02020859 -47 54 C-49.75223152 49.41294746 -49.51792759 44.18762958 -49 39 C-47.24436169 33.62981223 -43.69334168 30.02561056 -39 27 C-34.47273407 25.19371455 -30.71041205 24.76315887 -25.8515625 24.8046875 C-25.19417084 24.8075174 -24.53677917 24.81034729 -23.85946655 24.81326294 C-21.78111767 24.82436553 -19.70321634 24.84945014 -17.625 24.875 C-16.20703752 24.88504269 -14.78906821 24.89416627 -13.37109375 24.90234375 C-9.91391963 24.92427195 -6.45700358 24.95873182 -3 25 C-3.28822983 23.39449771 -3.58555903 21.79062722 -3.88671875 20.1875 C-4.05131592 19.29417969 -4.21591309 18.40085937 -4.38549805 17.48046875 C-5.20872185 14.15748352 -6.48247105 12.30174076 -9 10 C-16.21726022 6.39773432 -25.63828068 6.9329701 -33.1875 9.375 C-35.8078661 10.36703152 -37.62240346 11.41493564 -40 13 C-40.99 13 -41.98 13 -43 13 C-46.3203125 7.921875 -46.3203125 7.921875 -47 6 C-46.19836817 2.97097687 -45.24603955 2.14488996 -42.5390625 0.55078125 C-41.57742188 0.14214844 -40.61578125 -0.26648438 -39.625 -0.6875 C-38.66851563 -1.10386719 -37.71203125 -1.52023437 -36.7265625 -1.94921875 C-26.03787269 -6.06849892 -9.82783488 -6.1574044 0 0 Z " fill="#4A3393" transform="translate(2037,526)"/>
<path d="M0 0 C4.29 0 8.58 0 13 0 C13.00410889 1.79550293 13.00821777 3.59100586 13.01245117 5.44091797 C13.03193574 11.40824886 13.07438116 17.3750563 13.13209057 23.3421154 C13.1662176 26.95602405 13.19144798 30.56951642 13.19555664 34.18359375 C13.19987075 37.67884763 13.22858571 41.17316477 13.27343178 44.66812515 C13.29252695 46.63419897 13.28707976 48.60046257 13.28105164 50.56661987 C13.40640134 58.3551388 14.37914535 64.55981174 19 71 C25.24994582 76.93013652 31.14908611 77.30075779 39.4140625 77.20703125 C45.85439986 76.83520349 50.80001142 75.6687077 55.375 70.9375 C61.28615931 62.83678028 61.45897038 53.45910219 61.51171875 43.7734375 C61.52966995 42.54460846 61.54762115 41.31577942 61.56611633 40.04971313 C61.61992416 36.15817609 61.65402094 32.26675963 61.6875 28.375 C61.72069904 25.72263958 61.75519106 23.07029501 61.79101562 20.41796875 C61.87563399 13.94539991 61.94258607 7.472865 62 1 C65.96 1 69.92 1 74 1 C74.11361011 8.8765015 74.2050626 16.75254358 74.25906086 24.62964249 C74.28499639 28.28856446 74.32009306 31.94688995 74.37719727 35.60546875 C74.43210042 39.14576707 74.46154068 42.685497 74.47438622 46.22618866 C74.48792614 48.21350378 74.52686351 50.20059475 74.56648254 52.18756104 C74.56986869 63.30910464 71.85932541 73.11462387 64.015625 81.31640625 C54.08340202 89.61250723 42.43092238 90.65802351 30 90 C21.35125409 89.1788327 13.57577052 85.09049353 7.625 78.75 C2.59178286 72.36223434 -0.12981596 63.99926778 -0.11352539 55.96801758 C-0.11344986 54.72695755 -0.11337433 53.48589752 -0.11329651 52.20722961 C-0.10818991 50.85299642 -0.10297391 49.49876363 -0.09765625 48.14453125 C-0.09579083 46.75876415 -0.09436751 45.37299639 -0.09336853 43.98722839 C-0.0895531 40.3425209 -0.07973113 36.69785335 -0.06866455 33.05316162 C-0.0584295 29.33297262 -0.05386642 25.61277715 -0.04882812 21.89257812 C-0.03810798 14.59503178 -0.02051907 7.29752658 0 0 Z " fill="#4A3393" transform="translate(1615,199)"/>
<path d="M0 0 C4.29 0 8.58 0 13 0 C17.54439832 8.81748927 21.45535701 17.85998604 25.34326172 26.97753906 C28.67129238 34.77066141 32.0807753 42.4800429 36 50 C43.41896512 33.36976152 50.77069484 16.71376968 58 0 C61.96 0 65.92 0 70 0 C69.1088195 4.45590252 67.7854151 8.08605342 65.9296875 12.16796875 C65.61652588 12.86816635 65.30336426 13.56836395 64.98071289 14.28977966 C63.95026588 16.59120281 62.91275815 18.88936545 61.875 21.1875 C60.78686153 23.60989688 59.70031816 26.03300431 58.61404419 28.45623779 C57.86678419 30.12319768 57.11895419 31.78990216 56.37057495 33.45635986 C53.81587439 39.1523995 51.30200408 44.86504029 48.8125 50.58984375 C48.14345436 52.12413204 47.4743473 53.65839356 46.80517578 55.19262695 C45.85013065 57.38283156 44.89708498 59.57377501 43.95111084 61.76791382 C33.45631314 86.09708624 33.45631314 86.09708624 22.61328125 91.1015625 C16.36022344 93.25134321 9.93263651 92.72592898 3.9375 90.0625 C2.61466491 89.39510219 1.29975784 88.71129605 0 88 C-0.66 87.67 -1.32 87.34 -2 87 C-1.54663921 82.12637153 -0.2910841 79.60957611 3 76 C3.639375 76.474375 4.27875 76.94875 4.9375 77.4375 C9.63369562 79.83351817 14.42441787 80.68890951 19.5703125 79.3125 C22.56924823 77.69249613 23.65009531 76.10757977 25.375 73.1875 C25.89835937 72.33542969 26.42171875 71.48335938 26.9609375 70.60546875 C28.52436547 66.68514372 27.39399353 64.02777065 25.9152832 60.17041016 C25.46499756 59.13706543 25.01471191 58.1037207 24.55078125 57.0390625 C24.03862061 55.85924805 23.52645996 54.67943359 22.9987793 53.46386719 C22.43684763 52.18417389 21.87475047 50.90455326 21.3125 49.625 C20.73649715 48.30381462 20.1607361 46.9825238 19.58520508 45.66113281 C16.45000387 38.48223368 13.25831944 31.32981969 10.0234375 24.1953125 C9.70088486 23.4836795 9.37833221 22.77204651 9.04600525 22.03884888 C7.47754156 18.58205459 5.902973 15.12820421 4.31958008 11.67822266 C3.74818859 10.42611637 3.17681708 9.17400098 2.60546875 7.921875 C2.10168701 6.82456055 1.59790527 5.72724609 1.07885742 4.59667969 C0 2 0 2 0 0 Z " fill="#4A3493" transform="translate(2007,372)"/>
<path d="M0 0 C6.13666308 4.59596894 8.38309587 11.46075443 9.9609375 18.75 C10.04454914 20.24586442 10.07876804 21.74497091 10.07446289 23.24316406 C10.07434959 24.56408051 10.07434959 24.56408051 10.07423401 25.91168213 C10.06907272 26.85348328 10.06391144 27.79528442 10.05859375 28.765625 C10.0571788 29.73659119 10.05576385 30.70755737 10.05430603 31.70794678 C10.04871413 34.80532935 10.03616309 37.90263932 10.0234375 41 C10.01842145 43.10156146 10.01385873 45.20312404 10.00976562 47.3046875 C9.99874735 52.45315292 9.98148824 57.60156416 9.9609375 62.75 C5.6709375 62.75 1.3809375 62.75 -3.0390625 62.75 C-3.05364502 61.48929687 -3.06822754 60.22859375 -3.08325195 58.9296875 C-3.14148737 54.22546885 -3.21871813 49.52171627 -3.30151367 44.81787109 C-3.33464463 42.78702391 -3.36271293 40.75608726 -3.38549805 38.72509766 C-3.41926227 35.79551282 -3.47158849 32.8667391 -3.52734375 29.9375 C-3.53373367 29.03821777 -3.5401236 28.13893555 -3.54670715 27.21240234 C-3.67998288 21.42001061 -4.57711404 17.02126823 -7.0390625 11.75 C-12.35104679 7.02823619 -17.78503632 7.13957705 -24.72265625 7.375 C-29.96641617 7.96793398 -32.92317022 9.19676474 -36.39482117 13.38598633 C-40.16076954 18.91191402 -40.77494154 23.34084955 -40.74609375 29.9375 C-40.76121506 30.88061035 -40.77633636 31.8237207 -40.79191589 32.79541016 C-40.83458819 35.78052055 -40.84361111 38.76461577 -40.8515625 41.75 C-40.87472271 43.78518285 -40.90009119 45.82034185 -40.92773438 47.85546875 C-40.99038459 52.82040144 -41.02287961 57.78470724 -41.0390625 62.75 C-45.3290625 62.75 -49.6190625 62.75 -54.0390625 62.75 C-54.0390625 40.64 -54.0390625 18.53 -54.0390625 -4.25 C-50.0790625 -4.25 -46.1190625 -4.25 -42.0390625 -4.25 C-41.7090625 -1.61 -41.3790625 1.03 -41.0390625 3.75 C-40.2140625 2.986875 -39.3890625 2.22375 -38.5390625 1.4375 C-27.47146812 -7.82046402 -11.82619338 -7.24977372 0 0 Z " fill="#4D3695" transform="translate(1770.0390625,225.25)"/>
<path d="M0 0 C6.70104192 4.08543661 11.32835332 9.37876395 13.3125 17 C13.58062324 20.69735914 13.54534923 24.38056753 13.5078125 28.0859375 C13.5049826 29.14285797 13.50215271 30.19977844 13.49923706 31.28872681 C13.4880785 34.65093501 13.46298159 38.01287286 13.4375 41.375 C13.42746462 43.66015239 13.41833975 45.94530898 13.41015625 48.23046875 C13.38815327 53.82041602 13.35365296 59.41016223 13.3125 65 C9.3525 65 5.3925 65 1.3125 65 C1.29848145 63.10894531 1.29848145 63.10894531 1.28417969 61.1796875 C1.24412628 56.47539722 1.17832499 51.77175037 1.10498047 47.06787109 C1.07685965 45.03703108 1.05560114 43.00608343 1.04150391 40.97509766 C1.01995102 38.04534145 0.97323778 35.11686735 0.921875 32.1875 C0.92064636 31.28821777 0.91941772 30.38893555 0.91815186 29.46240234 C0.78324642 23.57672195 -0.23742233 18.87099721 -3.6875 14 C-8.03805416 10.11122151 -12.39329561 9.40355814 -18.1328125 9.69140625 C-24.5105951 10.46181118 -29.04856002 11.65853426 -33.1875 16.8125 C-37.23986451 22.45204061 -36.86445227 29.22103317 -37.00390625 35.8984375 C-37.02468735 36.73339752 -37.04546844 37.56835754 -37.06687927 38.42861938 C-37.13189469 41.0773349 -37.19103491 43.72614359 -37.25 46.375 C-37.29323096 48.17839478 -37.33684666 49.98178038 -37.38085938 51.78515625 C-37.48752639 56.19001039 -37.58892695 60.5949576 -37.6875 65 C-41.6475 65 -45.6075 65 -49.6875 65 C-49.6875 43.22 -49.6875 21.44 -49.6875 -1 C-45.7275 -1 -41.7675 -1 -37.6875 -1 C-37.3575 1.31 -37.0275 3.62 -36.6875 6 C-36.16800781 5.59007812 -35.64851563 5.18015625 -35.11328125 4.7578125 C-34.41589844 4.21898437 -33.71851563 3.68015625 -33 3.125 C-32.31550781 2.59132813 -31.63101562 2.05765625 -30.92578125 1.5078125 C-22.67319269 -4.0515229 -8.96246067 -4.10779447 0 0 Z " fill="#473091" transform="translate(1705.6875,524)"/>
<path d="M0 0 C5.11877531 3.94520243 7.53619487 8.6640773 9.1640625 14.796875 C9.43217035 18.42136561 9.39698249 22.03139883 9.359375 25.6640625 C9.3565451 26.69878693 9.35371521 27.73351135 9.35079956 28.79959106 C9.33964298 32.09047214 9.31454647 35.38107678 9.2890625 38.671875 C9.27902687 40.90885022 9.26990203 43.14582973 9.26171875 45.3828125 C9.2397184 50.85427248 9.2052195 56.32552694 9.1640625 61.796875 C5.2040625 61.796875 1.2440625 61.796875 -2.8359375 61.796875 C-2.8656665 60.03428345 -2.8656665 60.03428345 -2.89599609 58.23608398 C-2.97237346 53.85436468 -3.06104027 49.47296359 -3.15332031 45.09155273 C-3.19147775 43.19936429 -3.22635317 41.30710658 -3.2578125 39.41479492 C-3.30375173 36.68643528 -3.36169715 33.95854707 -3.421875 31.23046875 C-3.43342621 30.39164658 -3.44497742 29.5528244 -3.45687866 28.68858337 C-3.58082183 23.69646298 -4.26681212 19.53989602 -5.8359375 14.796875 C-6.0834375 13.86875 -6.3309375 12.940625 -6.5859375 11.984375 C-7.71707088 9.48808019 -7.71707088 9.48808019 -10.8359375 8.546875 C-12.3209375 8.175625 -12.3209375 8.175625 -13.8359375 7.796875 C-14.4959375 7.466875 -15.1559375 7.136875 -15.8359375 6.796875 C-21.95614755 6.13660338 -27.40644038 6.82669058 -32.8359375 9.796875 C-37.10871772 13.31004985 -40.34036203 17.28076729 -41.1343689 22.91424561 C-41.27722835 25.39666053 -41.32930656 27.86511444 -41.34765625 30.3515625 C-41.36560745 31.25311066 -41.38355865 32.15465881 -41.40205383 33.08352661 C-41.455979 35.94626268 -41.48999525 38.80883371 -41.5234375 41.671875 C-41.5566263 43.61981454 -41.5911174 45.56773236 -41.62695312 47.515625 C-41.71169522 52.27592226 -41.77859109 57.03617208 -41.8359375 61.796875 C-45.7959375 61.796875 -49.7559375 61.796875 -53.8359375 61.796875 C-53.8359375 40.016875 -53.8359375 18.236875 -53.8359375 -4.203125 C-50.2059375 -4.203125 -46.5759375 -4.203125 -42.8359375 -4.203125 C-42.5059375 -1.563125 -42.1759375 1.076875 -41.8359375 3.796875 C-41.4234375 3.39855469 -41.0109375 3.00023437 -40.5859375 2.58984375 C-29.22916918 -7.82897719 -12.8939462 -8.44964985 0 0 Z " fill="#473092" transform="translate(1754.8359375,376.203125)"/>
<path d="M0 0 C-0.60990891 3.55780196 -1.5783681 6.6828589 -3 10 C-3.825 9.67 -4.65 9.34 -5.5 9 C-9.8017677 7.77092351 -12.53200949 7.50355661 -17 8 C-20.16348401 9.66178189 -20.16348401 9.66178189 -22 13 C-22.70037614 16.72140159 -22.86239516 20.1929327 -23 24 C-16.73 24 -10.46 24 -4 24 C-4 27.63 -4 31.26 -4 35 C-10.27 35 -16.54 35 -23 35 C-23 53.81 -23 72.62 -23 92 C-27.29 92 -31.58 92 -36 92 C-36 73.19 -36 54.38 -36 35 C-39.63 35 -43.26 35 -47 35 C-47 31.37 -47 27.74 -47 24 C-43.37 24 -39.74 24 -36 24 C-36.04640625 23.2265625 -36.0928125 22.453125 -36.140625 21.65625 C-36.37422681 14.91516914 -36.35435853 9.41580881 -32 4 C-22.70784381 -4.54429654 -11.36612403 -5.34876425 0 0 Z " fill="#4F3A96" transform="translate(1979,498)"/>
<path d="M0 0 C4.6713555 2.63056291 10.82269421 6.38201256 12.53125 11.65625 C12.6240625 12.2440625 12.716875 12.831875 12.8125 13.4375 C11.52436658 14.27628455 10.23186744 15.10836783 8.9375 15.9375 C8.21820312 16.4015625 7.49890625 16.865625 6.7578125 17.34375 C4.8125 18.4375 4.8125 18.4375 2.8125 18.4375 C1.14583333 16.77083333 -0.52083333 15.10416667 -2.1875 13.4375 C-7.86084295 9.32652344 -13.43335944 9.82879351 -20.1875 10.4375 C-26.06498685 11.76766808 -29.98270053 15.27440534 -33.3828125 20.15234375 C-36.63619971 25.71495335 -37.11226454 31.10780095 -36.1875 37.4375 C-35.12435327 40.60787029 -33.72374663 43.47606071 -32.1875 46.4375 C-31.8575 47.4275 -31.5275 48.4175 -31.1875 49.4375 C-29.54119807 50.55685073 -29.54119807 50.55685073 -27.1875 51.4375 C-25.99125 51.97375 -24.795 52.51 -23.5625 53.0625 C-17.73767495 55.15512233 -12.26791597 55.56353441 -6.3984375 53.41796875 C-1.02388811 50.86620316 -1.02388811 50.86620316 2.8125 46.4375 C6.80705527 47.05204696 9.55716336 49.14396737 12.8125 51.4375 C11.4120757 56.72799179 8.23913928 59.51575798 3.8125 62.4375 C-5.29793464 67.29939041 -15.19648186 67.78915652 -25.23828125 65.84765625 C-34.70368951 62.94243193 -41.77552977 56.48497482 -46.8125 48.0625 C-50.86692711 39.00375142 -50.90660174 28.24258267 -48.109375 18.796875 C-43.74762246 9.25853702 -36.76757114 3.38848278 -27.1875 -0.5625 C-19.50089333 -3.12470222 -7.50824886 -3.09864239 0 0 Z " fill="#4A3493" transform="translate(2117.1875,523.5625)"/>
<path d="M0 0 C0.75087891 -0.01611328 1.50175781 -0.03222656 2.27539062 -0.04882812 C6.88955145 -0.05288631 9.74915988 0.43922783 13.5625 3.3125 C12.95259109 6.87030196 11.9841319 9.9953589 10.5625 13.3125 C9.758125 12.9825 8.95375 12.6525 8.125 12.3125 C2.86069348 10.83479992 -2.22016099 10.573387 -7.4375 12.3125 C-8.0975 17.2625 -8.7575 22.2125 -9.4375 27.3125 C-3.1675 27.3125 3.1025 27.3125 9.5625 27.3125 C9.5625 30.6125 9.5625 33.9125 9.5625 37.3125 C3.2925 37.3125 -2.9775 37.3125 -9.4375 37.3125 C-9.4375 56.1225 -9.4375 74.9325 -9.4375 94.3125 C-13.7275 94.3125 -18.0175 94.3125 -22.4375 94.3125 C-22.4375 75.8325 -22.4375 57.3525 -22.4375 38.3125 C-26.0675 38.3125 -29.6975 38.3125 -33.4375 38.3125 C-33.4375 34.6825 -33.4375 31.0525 -33.4375 27.3125 C-29.8075 27.3125 -26.1775 27.3125 -22.4375 27.3125 C-22.52 25.683125 -22.6025 24.05375 -22.6875 22.375 C-22.67097091 15.95344935 -21.39890804 10.55104515 -16.9765625 5.71484375 C-11.46668754 0.91817596 -7.18398685 -0.03067458 0 0 Z " fill="#4D3695" transform="translate(1869.4375,193.6875)"/>
<path d="M0 0 C5.7957881 3.19452887 9.65649093 7.71947278 11.75 14 C12.41445204 21.91647144 12.85978233 29.35309655 8.30859375 36.19921875 C5.7957281 39.10255475 3.09652722 41.14341846 -0.25 43 C-1.013125 43.433125 -1.77625 43.86625 -2.5625 44.3125 C-9.12783007 45.99200304 -15.41720136 45.79964344 -21.36328125 42.3984375 C-26.60725252 38.51160165 -31.09480879 33.5460835 -32.25 27 C-32.94205952 18.68246978 -32.43144244 11.78333696 -26.9375 5.25 C-18.52728369 -1.79111133 -10.41567636 -4.69572096 0 0 Z " fill="#FCFCFD" transform="translate(2053.25,233)"/>
<path d="M0 0 C4.49181401 3.05087566 7.92403414 7.31140766 9.97265625 12.33984375 C10.75593541 18.89090583 10.51093118 25.6183779 6.97265625 31.33984375 C2.30075212 36.77803903 -3.37431662 39.65220427 -10.40625 40.69140625 C-17.2219171 41.09671979 -22.4118907 39.14997353 -28.02734375 35.33984375 C-32.16921518 31.63446931 -34.69823234 27.23773385 -35.328125 21.69140625 C-35.36008844 14.25457947 -34.64933703 9.56114977 -29.83984375 3.65234375 C-20.96195345 -3.64725494 -10.54491017 -5.37771281 0 0 Z " fill="#FDFDFE" transform="translate(1967.02734375,384.66015625)"/>
<path d="M0 0 C3.96 0 7.92 0 12 0 C12 4.62 12 9.24 12 14 C18.27 14 24.54 14 31 14 C31 17.63 31 21.26 31 25 C24.73 25 18.46 25 12 25 C12.05108235 30.60628748 12.11405651 36.20981316 12.20751953 41.81518555 C12.2357061 43.72101905 12.25693216 45.62696895 12.27099609 47.53295898 C12.29245783 50.27648406 12.33912365 53.01861313 12.390625 55.76171875 C12.39185364 56.61086349 12.39308228 57.46000824 12.39434814 58.33488464 C12.49403996 62.38174617 12.70577824 64.52183209 14.87207031 68.04248047 C16.86136383 70.20710948 16.86136383 70.20710948 19.65625 70.55859375 C20.5946875 70.51863281 21.533125 70.47867188 22.5 70.4375 C23.4384375 70.41558594 24.376875 70.39367187 25.34375 70.37109375 C27.98139995 70.00259854 29.71936141 69.33933728 32 68 C33.72895428 70.97380135 34.96369088 73.21935391 35.125 76.6875 C33.75537806 79.50283399 32.2804244 80.44282197 29.35546875 81.4921875 C21.95639461 83.08734445 14.20455034 83.15265841 7.58203125 79.20703125 C4.00958363 76.48138603 1.74960753 73.08403623 0 69 C-0.24050903 66.81060791 -0.24050903 66.81060791 -0.22705078 64.41503906 C-0.22689972 63.51440735 -0.22674866 62.61377563 -0.22659302 61.68585205 C-0.21627045 60.72217712 -0.20594788 59.7585022 -0.1953125 58.765625 C-0.1924826 57.77246277 -0.18965271 56.77930054 -0.18673706 55.75604248 C-0.17555143 52.58723856 -0.15044962 49.41871835 -0.125 46.25 C-0.11496812 44.1002645 -0.10584263 41.95052457 -0.09765625 39.80078125 C-0.07561736 34.53374503 -0.04109842 29.2669206 0 24 C-3.96 24 -7.92 24 -12 24 C-12 21.03 -12 18.06 -12 15 C-8.04 15 -4.08 15 0 15 C0 10.05 0 5.1 0 0 Z " fill="#493393" transform="translate(1746,508)"/>
<path d="M0 0 C4.29 0 8.58 0 13 0 C13 29.37 13 58.74 13 89 C8.71 89 4.42 89 0 89 C0 59.63 0 30.26 0 0 Z " fill="#4D3695" transform="translate(1615,501)"/>
<path d="M0 0 C3.96 0 7.92 0 12 0 C12.33 2.97 12.66 5.94 13 9 C13.50789063 8.51789062 14.01578125 8.03578125 14.5390625 7.5390625 C21.60981822 1.05091586 26.51647356 -0.28737959 36 0 C36 3.96 36 7.92 36 12 C34.515 12.061875 33.03 12.12375 31.5 12.1875 C25.89348678 12.79018035 22.18103107 14.20916237 18 18 C11.09167189 26.62298509 12.21850368 37.70400394 12.1875 48.125 C12.16432365 49.95836266 12.13895187 51.79169895 12.11132812 53.625 C12.04888157 58.08343187 12.01622665 62.54117014 12 67 C8.04 67 4.08 67 0 67 C0 44.89 0 22.78 0 0 Z " fill="#483192" transform="translate(1880,522)"/>
<path d="M0 0 C0 3.96 0 7.92 0 12 C-2.784375 12.37125 -2.784375 12.37125 -5.625 12.75 C-11.30802506 13.71945722 -15.63114791 14.78020104 -19.20703125 19.640625 C-22.97773135 25.76967816 -23.16670472 31.56365023 -23.31640625 38.58203125 C-23.33718735 39.39621017 -23.35796844 40.2103891 -23.37937927 41.04924011 C-23.44449463 43.63691179 -23.50358208 46.22468053 -23.5625 48.8125 C-23.60572142 50.57227545 -23.64933685 52.33204128 -23.69335938 54.09179688 C-23.8001368 58.39443309 -23.90151018 62.69716643 -24 67 C-27.96 67 -31.92 67 -36 67 C-36 45.22 -36 23.44 -36 1 C-32.37 1 -28.74 1 -25 1 C-24.67 3.97 -24.34 6.94 -24 10 C-23.50371094 9.52949219 -23.00742188 9.05898438 -22.49609375 8.57421875 C-15.27708381 1.9579345 -9.79169314 -0.4519243 0 0 Z " fill="#473092" transform="translate(1909,371)"/>
<path d="M0 0 C3.96 0 7.92 0 12 0 C12 22.11 12 44.22 12 67 C8.04 67 4.08 67 0 67 C0 44.89 0 22.78 0 0 Z " fill="#462F91" transform="translate(1890,221)"/>
<path d="M0 0 C3.96 0 7.92 0 12 0 C12 22.11 12 44.22 12 67 C8.04 67 4.08 67 0 67 C0 44.89 0 22.78 0 0 Z " fill="#462F91" transform="translate(1805,221)"/>
<path d="M0 0 C4.80129639 3.21870347 7.73563301 7.09327976 9.625 12.5625 C9.625 13.8825 9.625 15.2025 9.625 16.5625 C-4.235 16.5625 -18.095 16.5625 -32.375 16.5625 C-31.33656868 9.29348077 -30.20164743 6.24037652 -25 1.3125 C-17.3579029 -3.7822314 -8.10429939 -4.3666449 0 0 Z " fill="#F8F8FB" transform="translate(1969.375,233.4375)"/>
<path d="M0 0 C5.52655569 2.79137897 9.73612514 6.59740183 12.5546875 12.1640625 C13.0496875 15.1340625 13.0496875 15.1340625 13.5546875 18.1640625 C-0.3053125 18.1640625 -14.1653125 18.1640625 -28.4453125 18.1640625 C-27.22504818 9.62221228 -27.22504818 9.62221228 -23.4453125 5.1640625 C-16.33446277 -0.15473841 -8.7909449 -3.0052112 0 0 Z " fill="#FBFBFD" transform="translate(2185.4453125,532.8359375)"/>
<path d="M0 0 C5.64604253 3.24419782 9.2366285 7.24981788 11.6875 13.3125 C11.6875 14.6325 11.6875 15.9525 11.6875 17.3125 C-2.1725 17.3125 -16.0325 17.3125 -30.3125 17.3125 C-29.30025598 11.23903586 -28.27788289 6.63817328 -23.375 2.79296875 C-16.07264366 -1.86496811 -8.19544065 -3.86401004 0 0 Z " fill="#FCFBFD" transform="translate(1835.3125,533.6875)"/>
<path d="M0 0 C4.20947666 2.51498394 7.32864973 6.15597284 9.5625 10.5 C10.0575 13.47 10.0575 13.47 10.5625 16.5 C-3.2975 16.5 -17.1575 16.5 -31.4375 16.5 C-30.21525305 7.94427138 -27.5080232 4.60135101 -20.8125 -0.5 C-14.15537683 -2.47248094 -6.47480653 -2.80699705 0 0 Z " fill="#FCFCFD" transform="translate(1829.4375,383.5)"/>
<path d="M0 0 C1.26070312 0.02255859 2.52140625 0.04511719 3.8203125 0.06835938 C6.92309499 0.12712419 10.02343199 0.20924149 13.125 0.3125 C13.16572191 1.74455367 13.19469479 3.17694443 13.21875 4.609375 C13.24485352 5.80578613 13.24485352 5.80578613 13.27148438 7.02636719 C12.98847838 11.44314745 10.66149859 13.85321239 7.5703125 16.7890625 C2.24043092 20.88369256 -3.08652977 20.97804879 -9.64453125 20.74609375 C-13.89111825 20.17611653 -15.82735113 19.27307319 -18.875 16.3125 C-20.00492055 14.05265891 -20.17299956 12.51523513 -20.3125 10 C-20.37308594 9.24074219 -20.43367188 8.48148438 -20.49609375 7.69921875 C-19.73416482 4.77130318 -18.47051728 3.11462731 -16.06567383 1.28295898 C-11.07934044 -0.92596503 -5.33796835 -0.18071247 0 0 Z " fill="#FDFDFD" transform="translate(2020.875,559.6875)"/>
<path d="M0 0 C1.9375 1.0625 1.9375 1.0625 3 3 C3.76190476 9.85714286 3.76190476 9.85714286 1.375 13.4375 C-1.5659132 15.37231132 -3.47650456 15.92809193 -7 16 C-11.56521739 13.86956522 -11.56521739 13.86956522 -13 11 C-13.5801105 4.73480663 -13.5801105 4.73480663 -11.125 1.625 C-7.11862281 -1.43870021 -4.92522917 -1.03689035 0 0 Z " fill="#4D3795" transform="translate(1901,193)"/>
<path d="M0 0 C2.8125 1.5 2.8125 1.5 5 4 C5.94951803 7.99452412 5.60888332 10.98519447 3.5 14.5 C-0.0316191 16.61897146 -2.98323437 16.79841448 -7 16 C-9.5 14.4375 -9.5 14.4375 -11 12 C-11.46918683 8.24650538 -11.53136381 5.96151547 -9.6875 2.625 C-6.8200337 -0.13626384 -3.82131159 -0.45491805 0 0 Z " fill="#4B3594" transform="translate(1814,192)"/>
</svg>
