<svg width="15" height="15" viewBox="0 0 15 15" fill="none" xmlns="http://www.w3.org/2000/svg">
<path d="M1.04167 7.30208V12.5507C1.04167 13.2896 1.60352 13.8889 2.29622 13.8889H11.7663C11.931 13.8889 12.0942 13.8543 12.2464 13.787C12.3986 13.7198 12.5369 13.6212 12.6534 13.4969C12.7699 13.3727 12.8623 13.2252 12.9253 13.0628C12.9884 12.9004 13.0208 12.7264 13.0208 12.5507V2.44931C13.0208 2.27357 12.9884 2.09956 12.9253 1.9372C12.8623 1.77484 12.7699 1.62732 12.6534 1.50306C12.5369 1.3788 12.3986 1.28023 12.2464 1.21298C12.0942 1.14572 11.931 1.11111 11.7663 1.11111H7.24219C7.10407 1.11109 6.97162 1.05254 6.87396 0.94836C6.7763 0.844176 6.72144 0.702882 6.72144 0.555556C6.72144 0.408229 6.7763 0.266935 6.87396 0.162751C6.97162 0.0585667 7.10407 2.42952e-05 7.24219 0H11.7663C12.3753 0 12.9593 0.258051 13.39 0.717385C13.8206 1.17672 14.0625 1.79971 14.0625 2.44931V12.5507C14.0625 13.2003 13.8206 13.8233 13.39 14.2826C12.9593 14.742 12.3753 15 11.7663 15H2.29622C1.68723 15 1.10317 14.742 0.672548 14.2826C0.241923 13.8233 7.00294e-09 13.2003 7.00294e-09 12.5507V7.30208C-1.12098e-05 7.22912 0.0134523 7.15687 0.0396216 7.08945C0.0657909 7.02204 0.104153 6.96079 0.152518 6.90919C0.200883 6.85759 0.258303 6.81666 0.321499 6.78873C0.384695 6.76081 0.452429 6.74644 0.520833 6.74644C0.589237 6.74644 0.656971 6.76081 0.720167 6.78873C0.783363 6.81666 0.840783 6.85759 0.889148 6.90919C0.937513 6.96079 0.975876 7.02204 1.00205 7.08945C1.02821 7.15687 1.04168 7.22912 1.04167 7.30208Z" fill="#F37A20"/>
<path d="M0.493266 1.80437L0.734151 1.81826C2.28055 1.90666 3.75135 2.55987 4.89961 3.66822C6.04788 4.77658 6.80369 6.27258 7.04014 7.90507C7.06348 8.04846 7.13864 8.17635 7.24945 8.26126C7.36027 8.34616 7.4979 8.38129 7.63274 8.35909C7.76758 8.33689 7.88887 8.25914 7.97054 8.14255C8.0522 8.02596 8.08771 7.87985 8.06944 7.73562C7.79659 5.85117 6.92427 4.12421 5.59891 2.84465C4.27354 1.5651 2.57584 0.810852 0.790792 0.70854L0.549256 0.694651C0.411208 0.686731 0.275866 0.737631 0.173002 0.836153C0.0701373 0.934674 0.00817768 1.07275 0.000753 1.22C-0.00667168 1.36725 0.0410468 1.51161 0.133411 1.62134C0.225775 1.73106 0.355219 1.79715 0.493266 1.80507V1.80437Z" fill="#F37A20"/>
<path d="M7.52392 7.73004L5.29736 6.43212C5.17633 6.36391 5.035 6.34927 4.90393 6.39135C4.77286 6.43343 4.66258 6.52885 4.59696 6.65698C4.53134 6.78511 4.51564 6.93565 4.55327 7.07603C4.59089 7.21641 4.67881 7.33535 4.79801 7.40712L7.18342 8.7981C7.37091 8.90736 7.59021 8.93695 7.7973 8.88092C8.00439 8.82489 8.18396 8.68739 8.29996 8.49601L9.79084 6.03768C9.86596 5.91391 9.8919 5.76339 9.86296 5.61922C9.83402 5.47505 9.75258 5.34905 9.63655 5.26893C9.52052 5.18881 9.3794 5.16114 9.24424 5.19201C9.10908 5.22287 8.99096 5.30975 8.91585 5.43351L7.52392 7.73004Z" fill="#F37A20"/>
</svg>
