<svg width="30" height="30" viewBox="0 0 30 30" fill="none" xmlns="http://www.w3.org/2000/svg">
<circle opacity="0.1" cx="15" cy="15" r="15" fill="#F37A20"/>
<path fill-rule="evenodd" clip-rule="evenodd" d="M15.0007 8.3335C12.4207 8.3335 10.334 10.4202 10.334 13.0002C10.334 15.7802 13.2807 19.6135 14.494 21.0735C14.7607 21.3935 15.2473 21.3935 15.514 21.0735C16.7207 19.6135 19.6673 15.7802 19.6673 13.0002C19.6673 10.4202 17.5807 8.3335 15.0007 8.3335ZM11.6673 13.0002C11.6673 11.1602 13.1607 9.66683 15.0007 9.66683C16.8407 9.66683 18.334 11.1602 18.334 13.0002C18.334 14.9202 16.414 17.7935 15.0007 19.5868C13.614 17.8068 11.6673 14.9002 11.6673 13.0002ZM13.334 13.0002C13.334 13.9202 14.0807 14.6668 15.0007 14.6668C15.9207 14.6668 16.6673 13.9202 16.6673 13.0002C16.6673 12.0802 15.9207 11.3335 15.0007 11.3335C14.0807 11.3335 13.334 12.0802 13.334 13.0002Z" fill="#F37A20"/>
</svg>
