<svg width="30" height="30" viewBox="0 0 30 30" fill="none" xmlns="http://www.w3.org/2000/svg">
<path d="M15.0083 0C14.5119 0 14.032 0.0165188 13.5356 0.0660783C13.0392 0.115638 12.5593 0.181718 12.0794 0.280836C11.5996 0.379955 11.1197 0.495594 10.6564 0.644272C10.1931 0.792951 9.72973 0.958149 9.26641 1.13987C8.81964 1.32158 8.37286 1.53634 7.94264 1.76762C7.08218 2.23018 6.25483 2.77533 5.49366 3.40308C5.11307 3.71696 4.74904 4.04736 4.40155 4.39427C4.05406 4.74119 3.72311 5.10462 3.40872 5.48458C3.09432 5.86453 2.79647 6.26101 2.53172 6.67401C2.25041 7.087 2.00221 7.5 1.77055 7.92952C1.07557 9.23458 0.579151 10.6222 0.281302 12.076C0.18202 12.5551 0.11583 13.0507 0.0661889 13.5297C0.0165474 14.0253 0 14.5044 0 15C0 15.4956 0.0330946 15.9747 0.0661889 16.4703C0.0992832 16.9659 0.18202 17.4449 0.281302 17.924C0.579151 19.3778 1.07557 20.7654 1.77055 22.0705C2.00221 22.5 2.25041 22.9295 2.53172 23.326C2.81302 23.7225 3.09432 24.1355 3.40872 24.5154C3.72311 24.8954 4.05406 25.2588 4.40155 25.6057C4.74904 25.9526 5.11307 26.283 5.49366 26.5969C6.25483 27.2247 7.06564 27.7698 7.94264 28.2324C8.37286 28.4637 8.81964 28.6784 9.26641 28.8601C9.71318 29.0418 10.1765 29.207 10.6564 29.3557C11.1362 29.5044 11.5996 29.62 12.0794 29.7192C12.5593 29.8183 13.0392 29.8844 13.5356 29.9339C14.032 29.9835 14.5119 30 15.0083 30C15.5047 30 15.9846 29.9835 16.481 29.9339C16.9774 29.8844 17.4573 29.8183 17.9371 29.7192C18.417 29.62 18.8969 29.5044 19.3602 29.3557C19.8235 29.207 20.2868 29.0418 20.7501 28.8601C21.2135 28.6784 21.6437 28.4637 22.0739 28.2324C22.5041 28.0011 22.9344 27.7533 23.3315 27.4725C23.7452 27.1916 24.1258 26.9108 24.5063 26.5969C24.8869 26.283 25.251 25.9526 25.5985 25.6057C26.2934 24.9119 26.9222 24.152 27.4683 23.326C27.733 22.913 27.9978 22.5 28.2295 22.0705C28.4611 21.641 28.6762 21.1949 28.8582 20.7324C29.0403 20.2863 29.2057 19.8238 29.3547 19.3447C29.5036 18.8656 29.6194 18.4031 29.7187 17.924C29.818 17.4449 29.8842 16.9493 29.9338 16.4703C29.9835 15.9747 30 15.4956 30 15C30 14.5044 29.9835 14.0253 29.9338 13.5297C29.8842 13.0341 29.818 12.5551 29.7187 12.076C29.6194 11.5969 29.5036 11.1178 29.3547 10.6553C29.2057 10.1927 29.0403 9.73018 28.8582 9.26762C28.6762 8.80507 28.4611 8.37555 28.2295 7.92952C27.9978 7.5 27.7496 7.07048 27.4683 6.67401C27.187 6.27753 26.9057 5.86453 26.5913 5.48458C25.9625 4.72467 25.2675 4.03084 24.5063 3.40308C24.1258 3.08921 23.7286 2.79185 23.3315 2.52753C22.9344 2.26321 22.5041 1.9989 22.0739 1.76762C21.6437 1.53634 21.1969 1.32158 20.7501 1.13987C20.3034 0.958149 19.84 0.792951 19.3602 0.644272C18.8969 0.495594 18.417 0.379955 17.9371 0.280836C17.4573 0.181718 16.9774 0.115638 16.481 0.0660783C15.9846 0.0165188 15.5047 0 15.0083 0ZM24.374 18.8656C24.374 22.9626 19.807 23.3425 16.5637 23.359H13.6514V19.6751H19.4429V16.8667H13.6514V13.0507H20.0552V10.0771H10.2592V23.3756H6.51958V6.65749H16.5637C19.5587 6.65749 24.374 7.087 24.374 11.0352C24.374 12.9846 22.7027 14.4218 20.7501 14.9174C23.166 15.6773 24.374 16.8667 24.374 18.8656Z" fill="#0069B4"/>
</svg>
