<svg width="15" height="15" viewBox="0 0 15 15" fill="none" xmlns="http://www.w3.org/2000/svg">
<g clip-path="url(#clip0_1402_1033)">
<path d="M14.5745 2.70054L12.2997 0.42581C12.0252 0.151208 11.6601 0 11.2718 0C10.8835 0 10.5184 0.151208 10.2438 0.425801L0.721737 9.94786C0.631356 10.0382 0.573095 10.1558 0.555921 10.2824L0.00555511 14.3371C-0.0189767 14.5179 0.0423529 14.6998 0.171397 14.8289C0.281702 14.9392 0.430627 15 0.584512 15C0.610618 15 0.636892 14.9983 0.66314 14.9947L4.71778 14.4443C4.84445 14.4271 4.96199 14.3689 5.05237 14.2785L14.5745 4.75647C14.849 4.4819 15.0002 4.11682 15.0002 3.72852C15.0002 3.34019 14.849 2.97512 14.5745 2.70054ZM4.36537 13.3128L1.26678 13.7334L1.68738 10.6348L8.43499 3.88726L11.113 6.56527L4.36537 13.3128ZM13.7481 3.93013L11.9393 5.73894L9.26131 3.06094L11.0701 1.25214C11.1428 1.17946 11.2276 1.1686 11.2718 1.1686C11.3159 1.1686 11.4007 1.17946 11.4734 1.25214L13.7482 3.52687C13.8208 3.59954 13.8317 3.68439 13.8317 3.72849C13.8317 3.7726 13.8208 3.85745 13.7481 3.93013Z" fill="black"/>
</g>
<defs>
<clipPath id="clip0_1402_1033">
<rect width="15" height="15" fill="white"/>
</clipPath>
</defs>
</svg>
