<svg width="140" height="138" viewBox="0 0 140 138" fill="none" xmlns="http://www.w3.org/2000/svg">
<path d="M84.3304 137.641C106.789 137.641 124.994 136.511 124.994 135.118C124.994 133.724 106.789 132.594 84.3304 132.594C61.8722 132.594 43.6663 133.724 43.6663 135.118C43.6663 136.511 61.8722 137.641 84.3304 137.641Z" fill="#F2F2F2"/>
<path d="M88.0063 64.2012C78.7212 64.2566 69.292 63.8249 60.4722 61.3787C51.6524 58.9325 43.852 54.3169 36.7607 48.9264C32.1181 45.4176 27.8966 42.6283 21.869 43.0489C15.9755 43.3583 10.3383 45.555 5.79169 49.3138C-1.87576 56.0214 -0.712348 68.4184 2.34577 77.1405C6.95511 90.2791 20.9826 99.3997 32.8937 105.344C46.6663 112.217 61.7907 116.213 76.9594 118.504C90.2556 120.519 107.33 121.991 118.842 113.313C129.424 105.355 132.327 87.1577 129.734 74.8715C129.103 71.2426 127.169 67.9682 124.294 65.6623C116.859 60.2386 105.779 63.8581 97.4244 64.0463C94.3774 64.1127 91.1752 64.1901 88.0063 64.2012Z" fill="#F2F2F2"/>
<path d="M77.6152 12.7071L72.9104 13.9204L25.4375 26.1627L20.7328 27.376C19.3597 27.7317 18.1839 28.6175 17.4632 29.8391C16.7425 31.0607 16.5358 32.5182 16.8884 33.8921L34.1126 100.684C34.4684 102.057 35.3542 103.233 36.5758 103.953C37.7974 104.674 39.2549 104.881 40.6287 104.528L40.639 104.525L97.5009 89.8619L97.5112 89.8593C98.8842 89.5035 100.06 88.6177 100.781 87.3961C101.501 86.1745 101.708 84.717 101.355 83.3432L84.1312 16.5515C83.7755 15.1785 82.8897 14.0026 81.6681 13.2819C80.4466 12.5612 78.989 12.3545 77.6152 12.7071Z" fill="white" stroke="#BABABA"/>
<path d="M74.0628 34.336L45.2978 41.7539C44.9765 41.8368 44.6355 41.7886 44.3497 41.62C44.0639 41.4514 43.8569 41.1762 43.774 40.8549C43.6912 40.5337 43.7393 40.1926 43.9079 39.9069C44.0765 39.6211 44.3517 39.414 44.673 39.3312L73.438 31.9133C73.7592 31.8307 74.1 31.8791 74.3855 32.0477C74.671 32.2164 74.8779 32.4914 74.9607 32.8125C75.0435 33.1336 74.9955 33.4744 74.8271 33.7601C74.6587 34.0458 74.3838 34.2529 74.0628 34.336Z" fill="#F2F2F2"/>
<path d="M80.1139 37.1358L46.352 45.8424C46.0307 45.9252 45.6897 45.8771 45.4039 45.7085C45.1181 45.5399 44.9111 45.2647 44.8282 44.9434C44.7454 44.6221 44.7935 44.2811 44.9621 43.9953C45.1307 43.7096 45.4059 43.5025 45.7272 43.4196L79.4891 34.7131C79.8104 34.6302 80.1515 34.6784 80.4372 34.847C80.723 35.0156 80.9301 35.2908 81.0129 35.6121C81.0958 35.9334 81.0476 36.2744 80.879 36.5601C80.7104 36.8459 80.4352 37.053 80.1139 37.1358Z" fill="#F2F2F2"/>
<path d="M78.7877 52.6579L50.0226 60.0759C49.8635 60.1169 49.6979 60.1262 49.5353 60.1032C49.3726 60.0802 49.216 60.0254 49.0746 59.942C48.9331 59.8585 48.8094 59.7479 48.7106 59.6167C48.6118 59.4854 48.5399 59.336 48.4989 59.1769C48.4578 59.0178 48.4485 58.8522 48.4715 58.6895C48.4945 58.5269 48.5493 58.3703 48.6328 58.2288C48.7162 58.0873 48.8268 57.9636 48.9581 57.8649C49.0893 57.7661 49.2388 57.6941 49.3978 57.6531L78.1629 50.2352C78.322 50.1942 78.4876 50.1849 78.6502 50.2079C78.8129 50.2308 78.9694 50.2856 79.1109 50.3691C79.2524 50.4526 79.3761 50.5631 79.4749 50.6944C79.5737 50.8257 79.6456 50.9751 79.6866 51.1342C79.7277 51.2933 79.7369 51.4589 79.714 51.6215C79.691 51.7842 79.6362 51.9407 79.5527 52.0822C79.4692 52.2237 79.3587 52.3474 79.2274 52.4462C79.0962 52.545 78.9467 52.6169 78.7877 52.6579Z" fill="#F2F2F2"/>
<path d="M84.8388 55.4577L51.0768 64.1643C50.9177 64.2053 50.7521 64.2146 50.5895 64.1916C50.4268 64.1686 50.2702 64.1138 50.1288 64.0304C49.9873 63.9469 49.8636 63.8364 49.7648 63.7051C49.666 63.5738 49.5941 63.4244 49.5531 63.2653C49.512 63.1062 49.5027 62.9406 49.5257 62.7779C49.5487 62.6153 49.6035 62.4587 49.687 62.3172C49.7704 62.1757 49.881 62.0521 50.0122 61.9533C50.1435 61.8545 50.293 61.7826 50.452 61.7415L84.214 53.035C84.5353 52.9521 84.8763 53.0003 85.1621 53.1689C85.4478 53.3375 85.6549 53.6127 85.7378 53.934C85.8206 54.2553 85.7724 54.5963 85.6038 54.882C85.4352 55.1678 85.16 55.3749 84.8388 55.4577Z" fill="#F2F2F2"/>
<path d="M83.5124 70.98L54.7474 78.3979C54.4262 78.4805 54.0853 78.4322 53.7998 78.2635C53.5142 78.0949 53.3073 77.8198 53.2244 77.4987C53.1416 77.1776 53.1897 76.8367 53.3581 76.551C53.5266 76.2653 53.8015 76.0582 54.1226 75.9751L82.8876 68.5572C83.2089 68.4744 83.5499 68.5225 83.8357 68.6911C84.1215 68.8597 84.3285 69.1349 84.4114 69.4562C84.4942 69.7775 84.4461 70.1185 84.2775 70.4043C84.1089 70.69 83.8337 70.8971 83.5124 70.98Z" fill="#F2F2F2"/>
<path d="M89.5637 73.7798L55.8018 82.4863C55.6426 82.5275 55.4769 82.5369 55.3142 82.514C55.1514 82.4911 54.9947 82.4364 54.8531 82.3529C54.7115 82.2695 54.5877 82.1589 54.4889 82.0276C54.39 81.8963 54.318 81.7468 54.2769 81.5876C54.2359 81.4284 54.2266 81.2627 54.2496 81.1C54.2727 80.9372 54.3275 80.7806 54.4111 80.639C54.4947 80.4975 54.6054 80.3738 54.7368 80.2751C54.8682 80.1763 55.0178 80.1045 55.177 80.0636L88.9389 71.357C89.2602 71.2742 89.6013 71.3223 89.887 71.4909C90.1728 71.6595 90.3799 71.9347 90.4627 72.256C90.5456 72.5773 90.4974 72.9183 90.3288 73.2041C90.1602 73.4898 89.885 73.6969 89.5637 73.7798Z" fill="#F2F2F2"/>
<path d="M40.387 49.3601L30.2073 51.9852C30.0533 52.0247 29.8899 52.0016 29.7529 51.9208C29.6159 51.8399 29.5166 51.7081 29.4767 51.5541L27.14 42.4928C27.1004 42.3388 27.1236 42.1753 27.2044 42.0383C27.2852 41.9014 27.4171 41.802 27.571 41.7622L37.7507 39.137C37.9047 39.0975 38.0682 39.1207 38.2051 39.2015C38.3421 39.2823 38.4414 39.4141 38.4813 39.5681L40.8181 48.6294C40.8576 48.7835 40.8344 48.9469 40.7536 49.0839C40.6728 49.2209 40.541 49.3202 40.387 49.3601Z" fill="#E6E6E6"/>
<path d="M45.1119 67.6821L34.9322 70.3072C34.7781 70.3468 34.6147 70.3236 34.4777 70.2428C34.3407 70.162 34.2414 70.0301 34.2015 69.8761L31.8648 60.8148C31.8253 60.6608 31.8484 60.4973 31.9293 60.3604C32.0101 60.2234 32.1419 60.1241 32.2959 60.0842L42.4755 57.459C42.6296 57.4195 42.793 57.4427 42.93 57.5235C43.067 57.6043 43.1663 57.7362 43.2062 57.8901L45.5429 66.9514C45.5825 67.1055 45.5593 67.2689 45.4785 67.4059C45.3977 67.5429 45.2658 67.6422 45.1119 67.6821Z" fill="#E6E6E6"/>
<path d="M49.8367 86.0039L39.657 88.629C39.503 88.6685 39.3396 88.6454 39.2026 88.5646C39.0656 88.4837 38.9663 88.3519 38.9264 88.1979L36.5897 79.1366C36.5501 78.9826 36.5733 78.8191 36.6541 78.6821C36.7349 78.5452 36.8668 78.4458 37.0207 78.406L47.2004 75.7808C47.3544 75.7413 47.5179 75.7645 47.6549 75.8453C47.7918 75.9261 47.8912 76.0579 47.931 76.2119L50.2678 85.2732C50.3073 85.4273 50.2841 85.5907 50.2033 85.7277C50.1225 85.8647 49.9907 85.964 49.8367 86.0039Z" fill="#E6E6E6"/>
<path d="M116.748 29.7065H58.0045C56.5862 29.7081 55.2264 30.2723 54.2234 31.2752C53.2205 32.2781 52.6564 33.6379 52.6548 35.0562V104.033C52.6564 105.451 53.2205 106.811 54.2234 107.814C55.2264 108.817 56.5862 109.381 58.0045 109.383H116.748C118.166 109.381 119.526 108.817 120.529 107.814C121.532 106.811 122.096 105.451 122.098 104.033V35.0562C122.096 33.6379 121.532 32.2781 120.529 31.2752C119.526 30.2723 118.166 29.7081 116.748 29.7065Z" fill="white" stroke="#BABABA"/>
<path d="M107.907 67.6092H78.2006C78.0362 67.6094 77.8734 67.5771 77.7215 67.5144C77.5695 67.4516 77.4315 67.3595 77.3151 67.2433C77.1988 67.1271 77.1066 66.9891 77.0436 66.8372C76.9806 66.6854 76.9482 66.5226 76.9482 66.3582C76.9482 66.1938 76.9806 66.031 77.0436 65.8791C77.1066 65.7272 77.1988 65.5893 77.3151 65.4731C77.4315 65.3569 77.5695 65.2648 77.7215 65.202C77.8734 65.1392 78.0362 65.107 78.2006 65.1072H107.907C108.238 65.1075 108.556 65.2395 108.79 65.4741C109.025 65.7087 109.156 66.0266 109.156 66.3582C109.156 66.6897 109.025 67.0077 108.79 67.2423C108.556 67.4769 108.238 67.6088 107.907 67.6092Z" fill="#E6E6E6"/>
<path d="M113.067 71.8314H78.2006C78.0362 71.8315 77.8734 71.7993 77.7215 71.7365C77.5695 71.6737 77.4315 71.5816 77.3151 71.4654C77.1988 71.3493 77.1066 71.2113 77.0436 71.0594C76.9806 70.9075 76.9482 70.7448 76.9482 70.5803C76.9482 70.4159 76.9806 70.2532 77.0436 70.1013C77.1066 69.9494 77.1988 69.8114 77.3151 69.6953C77.4315 69.5791 77.5695 69.487 77.7215 69.4242C77.8734 69.3614 78.0362 69.3292 78.2006 69.3293H113.067C113.399 69.3293 113.717 69.4611 113.952 69.6958C114.186 69.9304 114.318 70.2486 114.318 70.5803C114.318 70.9121 114.186 71.2303 113.952 71.4649C113.717 71.6996 113.399 71.8314 113.067 71.8314Z" fill="#E6E6E6"/>
<path d="M107.907 86.5306H78.2006C78.0362 86.5308 77.8734 86.4985 77.7215 86.4358C77.5695 86.373 77.4315 86.2808 77.3151 86.1647C77.1988 86.0485 77.1066 85.9105 77.0436 85.7586C76.9806 85.6068 76.9482 85.444 76.9482 85.2796C76.9482 85.1152 76.9806 84.9524 77.0436 84.8005C77.1066 84.6486 77.1988 84.5107 77.3151 84.3945C77.4315 84.2783 77.5695 84.1862 77.7215 84.1234C77.8734 84.0606 78.0362 84.0284 78.2006 84.0286H107.907C108.239 84.0286 108.557 84.1604 108.791 84.395C109.026 84.6296 109.158 84.9478 109.158 85.2796C109.158 85.6114 109.026 85.9296 108.791 86.1642C108.557 86.3988 108.239 86.5306 107.907 86.5306Z" fill="#E6E6E6"/>
<path d="M113.067 90.7527H78.2006C78.0362 90.7529 77.8734 90.7207 77.7215 90.6579C77.5695 90.5951 77.4315 90.503 77.3151 90.3868C77.1988 90.2706 77.1066 90.1327 77.0436 89.9808C76.9806 89.8289 76.9482 89.6661 76.9482 89.5017C76.9482 89.3373 76.9806 89.1745 77.0436 89.0227C77.1066 88.8708 77.1988 88.7328 77.3151 88.6167C77.4315 88.5005 77.5695 88.4083 77.7215 88.3456C77.8734 88.2828 78.0362 88.2505 78.2006 88.2507H113.067C113.232 88.2505 113.394 88.2828 113.546 88.3456C113.698 88.4083 113.836 88.5005 113.953 88.6167C114.069 88.7328 114.161 88.8708 114.224 89.0227C114.287 89.1745 114.32 89.3373 114.32 89.5017C114.32 89.6661 114.287 89.8289 114.224 89.9808C114.161 90.1327 114.069 90.2706 113.953 90.3868C113.836 90.503 113.698 90.5951 113.546 90.6579C113.394 90.7207 113.232 90.7529 113.067 90.7527Z" fill="#E6E6E6"/>
<path d="M71.5464 73.7479H61.0337C60.8747 73.7477 60.7222 73.6845 60.6097 73.572C60.4973 73.4596 60.434 73.3071 60.4338 73.1481V63.7903C60.434 63.6312 60.4973 63.4788 60.6097 63.3663C60.7222 63.2539 60.8747 63.1906 61.0337 63.1904H71.5464C71.7054 63.1906 71.8579 63.2539 71.9704 63.3663C72.0828 63.4788 72.1461 63.6312 72.1463 63.7903V73.1481C72.1461 73.3071 72.0828 73.4596 71.9704 73.572C71.8579 73.6845 71.7054 73.7477 71.5464 73.7479Z" fill="#E6E6E6"/>
<path d="M71.5464 92.6693H61.0337C60.8747 92.6691 60.7222 92.6059 60.6097 92.4934C60.4973 92.381 60.434 92.2285 60.4338 92.0694V82.7117C60.434 82.5526 60.4973 82.4002 60.6097 82.2877C60.7222 82.1752 60.8747 82.112 61.0337 82.1118H71.5464C71.7054 82.112 71.8579 82.1752 71.9704 82.2877C72.0828 82.4002 72.1461 82.5526 72.1463 82.7117V92.0694C72.1461 92.2285 72.0828 92.381 71.9704 92.4934C71.8579 92.6059 71.7054 92.6691 71.5464 92.6693Z" fill="#E6E6E6"/>
<path d="M107.94 46.5457H86.0386C85.7068 46.5457 85.3886 46.4139 85.154 46.1793C84.9194 45.9447 84.7876 45.6265 84.7876 45.2947C84.7876 44.9629 84.9194 44.6447 85.154 44.4101C85.3886 44.1755 85.7068 44.0437 86.0386 44.0437H107.94C108.271 44.0437 108.59 44.1755 108.824 44.4101C109.059 44.6447 109.191 44.9629 109.191 45.2947C109.191 45.6265 109.059 45.9447 108.824 46.1793C108.59 46.4139 108.271 46.5457 107.94 46.5457Z" fill="#CCCCCC"/>
<path d="M113.1 50.7679H86.0386C85.8743 50.7679 85.7116 50.7355 85.5599 50.6726C85.4081 50.6098 85.2702 50.5176 85.154 50.4015C85.0378 50.2853 84.9457 50.1474 84.8828 49.9956C84.82 49.8438 84.7876 49.6812 84.7876 49.5169C84.7876 49.3526 84.82 49.1899 84.8828 49.0381C84.9457 48.8864 85.0378 48.7484 85.154 48.6323C85.2702 48.5161 85.4081 48.424 85.5599 48.3611C85.7116 48.2982 85.8743 48.2659 86.0386 48.2659H113.1C113.432 48.2659 113.75 48.3977 113.985 48.6323C114.219 48.8669 114.351 49.1851 114.351 49.5169C114.351 49.8487 114.219 50.1669 113.985 50.4015C113.75 50.6361 113.432 50.7679 113.1 50.7679Z" fill="#CCCCCC"/>
<path d="M81.1917 55.8846H61.0007C60.8417 55.8844 60.6892 55.8212 60.5768 55.7087C60.4643 55.5962 60.4011 55.4438 60.4009 55.2847V39.5269C60.4011 39.3678 60.4643 39.2153 60.5768 39.1029C60.6892 38.9904 60.8417 38.9272 61.0007 38.927H81.1917C81.3507 38.9272 81.5032 38.9904 81.6156 39.1029C81.7281 39.2153 81.7913 39.3678 81.7915 39.5269V55.2847C81.7913 55.4438 81.7281 55.5962 81.6156 55.7087C81.5032 55.8212 81.3507 55.8844 81.1917 55.8846Z" fill="#CCCCCC"/>
<path d="M93.749 20.3737V24.5993" stroke="#BABABA" stroke-linecap="round" stroke-linejoin="round"/>
<path d="M91.635 22.4866H95.8629" stroke="#BABABA" stroke-linecap="round" stroke-linejoin="round"/>
<path d="M136.618 96.5793V101.336" stroke="#BABABA" stroke-linecap="round" stroke-linejoin="round"/>
<path d="M134.235 98.958H139" stroke="#BABABA" stroke-linecap="round" stroke-linejoin="round"/>
<path d="M30.6662 2.49207C31.2659 2.49207 31.752 2.00667 31.752 1.4079C31.752 0.809132 31.2659 0.32373 30.6662 0.32373C30.0665 0.32373 29.5803 0.809132 29.5803 1.4079C29.5803 2.00667 30.0665 2.49207 30.6662 2.49207Z" fill="#CFCFCF"/>
<path d="M37.2394 116.939C37.8391 116.939 38.3253 116.453 38.3253 115.854C38.3253 115.256 37.8391 114.77 37.2394 114.77C36.6397 114.77 36.1536 115.256 36.1536 115.854C36.1536 116.453 36.6397 116.939 37.2394 116.939Z" fill="#CFCFCF"/>
</svg>
