<svg width="23" height="23" viewBox="0 0 23 23" fill="none" xmlns="http://www.w3.org/2000/svg">
<mask id="mask0_1331_8613" style="mask-type:alpha" maskUnits="userSpaceOnUse" x="0" y="0" width="23" height="23">
<rect width="23" height="23" fill="#D9D9D9"/>
</mask>
<g mask="url(#mask0_1331_8613)">
<path d="M4.79165 19.1667V10.3979L2.10831 12.4583L0.958313 10.925L11.5 2.875L15.3333 5.79792V3.83333H18.2083V8.00208L22.0416 10.925L20.8916 12.4583L18.2083 10.3979V19.1667H12.4583V13.4167H10.5416V19.1667H4.79165ZM6.70831 17.25H8.62498V11.5H14.375V17.25H16.2916V8.93646L11.5 5.29479L6.70831 8.93646V17.25ZM9.58331 9.60729H13.4166C13.4166 9.09618 13.225 8.67691 12.8416 8.34948C12.4583 8.02205 12.0111 7.85833 11.5 7.85833C10.9889 7.85833 10.5416 8.02205 10.1583 8.34948C9.77498 8.67691 9.58331 9.09618 9.58331 9.60729Z" fill="#1C1B1F"/>
</g>
</svg>
