<svg width="203" height="162" viewBox="0 0 203 162" fill="none" xmlns="http://www.w3.org/2000/svg">
<path d="M9.32 140.72H18.28V146H2.48V117.92H9.32V140.72ZM42.5825 134.48C42.5825 135.12 42.5425 135.787 42.4625 136.48H26.9825C27.0892 137.867 27.5292 138.933 28.3025 139.68C29.1025 140.4 30.0758 140.76 31.2225 140.76C32.9292 140.76 34.1158 140.04 34.7825 138.6H42.0625C41.6892 140.067 41.0092 141.387 40.0225 142.56C39.0625 143.733 37.8492 144.653 36.3825 145.32C34.9158 145.987 33.2758 146.32 31.4625 146.32C29.2758 146.32 27.3292 145.853 25.6225 144.92C23.9158 143.987 22.5825 142.653 21.6225 140.92C20.6625 139.187 20.1825 137.16 20.1825 134.84C20.1825 132.52 20.6492 130.493 21.5825 128.76C22.5425 127.027 23.8758 125.693 25.5825 124.76C27.2892 123.827 29.2492 123.36 31.4625 123.36C33.6225 123.36 35.5425 123.813 37.2225 124.72C38.9025 125.627 40.2092 126.92 41.1425 128.6C42.1025 130.28 42.5825 132.24 42.5825 134.48ZM35.5825 132.68C35.5825 131.507 35.1825 130.573 34.3825 129.88C33.5825 129.187 32.5825 128.84 31.3825 128.84C30.2358 128.84 29.2625 129.173 28.4625 129.84C27.6892 130.507 27.2092 131.453 27.0225 132.68H35.5825ZM59.7909 123.44C62.4043 123.44 64.4843 124.293 66.0309 126C67.6043 127.68 68.3909 130 68.3909 132.96V146H61.5909V133.88C61.5909 132.387 61.2043 131.227 60.4309 130.4C59.6576 129.573 58.6176 129.16 57.3109 129.16C56.0043 129.16 54.9643 129.573 54.1909 130.4C53.4176 131.227 53.0309 132.387 53.0309 133.88V146H46.1909V123.68H53.0309V126.64C53.7243 125.653 54.6576 124.88 55.8309 124.32C57.0043 123.733 58.3243 123.44 59.7909 123.44ZM71.7841 134.8C71.7841 132.507 72.2107 130.493 73.0641 128.76C73.9441 127.027 75.1307 125.693 76.6241 124.76C78.1174 123.827 79.7841 123.36 81.6241 123.36C83.0907 123.36 84.4241 123.667 85.6241 124.28C86.8507 124.893 87.8107 125.72 88.5041 126.76V116.4H95.3441V146H88.5041V142.8C87.8641 143.867 86.9441 144.72 85.7441 145.36C84.5707 146 83.1974 146.32 81.6241 146.32C79.7841 146.32 78.1174 145.853 76.6241 144.92C75.1307 143.96 73.9441 142.613 73.0641 140.88C72.2107 139.12 71.7841 137.093 71.7841 134.8ZM88.5041 134.84C88.5041 133.133 88.0241 131.787 87.0641 130.8C86.1307 129.813 84.9841 129.32 83.6241 129.32C82.2641 129.32 81.1041 129.813 80.1441 130.8C79.2107 131.76 78.7441 133.093 78.7441 134.8C78.7441 136.507 79.2107 137.867 80.1441 138.88C81.1041 139.867 82.2641 140.36 83.6241 140.36C84.9841 140.36 86.1307 139.867 87.0641 138.88C88.0241 137.893 88.5041 136.547 88.5041 134.84ZM115.609 123.4V129.08H124.769V134.36H115.609V140.52H125.969V146H108.769V117.92H125.969V123.4H115.609ZM129.05 134.8C129.05 132.507 129.476 130.493 130.33 128.76C131.21 127.027 132.396 125.693 133.89 124.76C135.383 123.827 137.05 123.36 138.89 123.36C140.463 123.36 141.836 123.68 143.01 124.32C144.21 124.96 145.13 125.8 145.77 126.84V123.68H152.61V146H145.77V142.84C145.103 143.88 144.17 144.72 142.97 145.36C141.796 146 140.423 146.32 138.85 146.32C137.036 146.32 135.383 145.853 133.89 144.92C132.396 143.96 131.21 142.613 130.33 140.88C129.476 139.12 129.05 137.093 129.05 134.8ZM145.77 134.84C145.77 133.133 145.29 131.787 144.33 130.8C143.396 129.813 142.25 129.32 140.89 129.32C139.53 129.32 138.37 129.813 137.41 130.8C136.476 131.76 136.01 133.093 136.01 134.8C136.01 136.507 136.476 137.867 137.41 138.88C138.37 139.867 139.53 140.36 140.89 140.36C142.25 140.36 143.396 139.867 144.33 138.88C145.29 137.893 145.77 136.547 145.77 134.84ZM166.638 146.32C164.691 146.32 162.958 145.987 161.438 145.32C159.918 144.653 158.718 143.747 157.838 142.6C156.958 141.427 156.465 140.12 156.358 138.68H163.118C163.198 139.453 163.558 140.08 164.198 140.56C164.838 141.04 165.625 141.28 166.558 141.28C167.411 141.28 168.065 141.12 168.518 140.8C168.998 140.453 169.238 140.013 169.238 139.48C169.238 138.84 168.905 138.373 168.238 138.08C167.571 137.76 166.491 137.413 164.998 137.04C163.398 136.667 162.065 136.28 160.998 135.88C159.931 135.453 159.011 134.8 158.238 133.92C157.465 133.013 157.078 131.8 157.078 130.28C157.078 129 157.425 127.84 158.118 126.8C158.838 125.733 159.878 124.893 161.238 124.28C162.625 123.667 164.265 123.36 166.158 123.36C168.958 123.36 171.158 124.053 172.758 125.44C174.385 126.827 175.318 128.667 175.558 130.96H169.238C169.131 130.187 168.785 129.573 168.198 129.12C167.638 128.667 166.891 128.44 165.958 128.44C165.158 128.44 164.545 128.6 164.118 128.92C163.691 129.213 163.478 129.627 163.478 130.16C163.478 130.8 163.811 131.28 164.478 131.6C165.171 131.92 166.238 132.24 167.678 132.56C169.331 132.987 170.678 133.413 171.718 133.84C172.758 134.24 173.665 134.907 174.438 135.84C175.238 136.747 175.651 137.973 175.678 139.52C175.678 140.827 175.305 142 174.558 143.04C173.838 144.053 172.785 144.853 171.398 145.44C170.038 146.027 168.451 146.32 166.638 146.32ZM200.903 134.48C200.903 135.12 200.863 135.787 200.783 136.48H185.303C185.409 137.867 185.849 138.933 186.623 139.68C187.423 140.4 188.396 140.76 189.543 140.76C191.249 140.76 192.436 140.04 193.103 138.6H200.383C200.009 140.067 199.329 141.387 198.343 142.56C197.383 143.733 196.169 144.653 194.703 145.32C193.236 145.987 191.596 146.32 189.783 146.32C187.596 146.32 185.649 145.853 183.943 144.92C182.236 143.987 180.903 142.653 179.943 140.92C178.983 139.187 178.503 137.16 178.503 134.84C178.503 132.52 178.969 130.493 179.903 128.76C180.863 127.027 182.196 125.693 183.903 124.76C185.609 123.827 187.569 123.36 189.783 123.36C191.943 123.36 193.863 123.813 195.543 124.72C197.223 125.627 198.529 126.92 199.463 128.6C200.423 130.28 200.903 132.24 200.903 134.48ZM193.903 132.68C193.903 131.507 193.503 130.573 192.703 129.88C191.903 129.187 190.903 128.84 189.703 128.84C188.556 128.84 187.583 129.173 186.783 129.84C186.009 130.507 185.529 131.453 185.343 132.68H193.903Z" fill="#1E3A5F"/>
<path d="M99.2 15.05C100.25 16.45 101.65 17.15 103.05 17.85C102.35 19.6 102 21 101.65 22.4C101.3 22.4 100.6 22.4 100.25 22.4H99.9C98.85 22.4 97.45 22.05 96.4 22.05C96.05 21.35 95.35 20.3 95 19.6C95 19.25 94.65 18.9 94.65 18.9C96.05 18.2 97.8 16.8 99.2 15.05ZM99.2 7C97.45 7 95.7 7.35 93.95 10.15C92.55 12.6 90.45 12.6 87.3 12.6C84.5 12.6 83.8 14.7 85.2 16.8C85.9 17.85 90.45 25.55 91.5 27.3C92.55 28.7 96.75 29.75 99.9 29.75C100.25 29.75 100.25 29.75 100.6 29.75C103.75 29.75 108.65 28.35 108.3 25.9C107.95 21.35 112.5 15.4 113.2 14.7C114.25 13.3 113.9 10.15 111.1 10.15C110.4 10.15 109.7 10.15 109 10.5C108.3 10.85 107.25 11.2 106.2 11.2C105.5 11.2 104.8 10.85 104.45 10.15C102.35 7.35 100.6 7 99.2 7Z" fill="#1E3A5F"/>
<path d="M91.5 27.3C92.55 29.05 97.45 29.75 100.6 29.75C103.75 29.75 108.65 28.35 108.3 25.9C107.95 21.35 112.5 15.4 113.2 14.7C111.8 15.4 110.75 16.45 109.35 16.1C108.65 16.8 106.9 21 103.4 21C100.95 21 100.6 17.5 98.85 17.5C97.1 17.5 96.75 19.95 95.35 20.3C92.2 21 89.75 17.85 88 15.75C87.3 15.75 85.9 14.7 85.2 17.15C85.9 17.85 90.45 25.55 91.5 27.3Z" fill="#1E3A5F"/>
<path d="M107.6 30.8C105.15 31.85 102.35 32.55 100.6 32.55H99.9C99.2 32.55 96.05 32.55 93.25 31.5C78.2 36.05 67 51.45 67 62.3C67 75.25 82.75 77 102 77C121.25 77 137 75.25 137 62.3C137 50.75 124.4 34.3 107.6 30.8ZM100.6 50.75C100.95 51.1 101.65 51.8 102.7 52.5C104.8 53.2 106.55 54.25 107.6 55.3C108.65 56.35 109.35 58.1 109.35 60.2001C109.35 61.9501 108.65 63.7 107.6 64.75C106.55 65.8 105.15 66.5 103.4 66.85V70H100.95V66.85C99.2 66.5 97.45 65.8 96.4 64.75C95.35 63.7 94.65 61.6 94.65 59.5H99.2C99.2 60.9 99.55 61.95 99.9 62.65C100.25 63.35 101.3 63.7001 102 63.7001C102.7 63.7001 103.4 63.35 103.75 63C104.1 62.3 104.45 61.6 104.45 60.9C104.45 59.85 104.1 59.15 103.75 58.8C103.4 58.1 102.7 57.75 101.65 57.05C99.55 56.35 97.8 55.3 96.75 54.25C95.7 53.2 95 51.45 95 49.7C95 47.95 95.7 46.2 96.75 45.15C97.8 44.1 99.2 43.4 100.95 43.05V39.55H103.4V43.05C105.15 43.4 106.55 44.1 107.6 45.5C108.65 46.9 109 48.3 109 50.4H104.45C104.45 49.35 104.1 48.3 103.75 47.6C103.4 46.9 102.7 46.55 102 46.55C101.3 46.55 100.6 46.9 100.25 47.25C99.9 47.95 99.9 48.65 99.9 49.35C100.25 49.7001 100.25 50.4 100.6 50.75Z" fill="#1E3A5F"/>
</svg>
