<svg width="66" height="11" viewBox="0 0 66 11" fill="none" xmlns="http://www.w3.org/2000/svg">
<path d="M3.276 8.05H6.123V10H0.728V0.834999H3.276V8.05ZM14.0817 6.269C14.0817 6.46833 14.0687 6.66767 14.0427 6.867H9.21974C9.24574 7.26567 9.35408 7.56467 9.54474 7.764C9.74408 7.95467 9.99541 8.05 10.2987 8.05C10.7234 8.05 11.0267 7.85933 11.2087 7.478H13.9257C13.8131 7.98067 13.5921 8.43133 13.2627 8.83C12.9421 9.22 12.5347 9.52767 12.0407 9.753C11.5467 9.97833 11.0007 10.091 10.4027 10.091C9.68341 10.091 9.04208 9.93933 8.47874 9.636C7.92408 9.33267 7.48641 8.89933 7.16574 8.336C6.85374 7.77267 6.69774 7.10967 6.69774 6.347C6.69774 5.58433 6.85374 4.92567 7.16574 4.371C7.47774 3.80767 7.91108 3.37433 8.46574 3.071C9.02908 2.76767 9.67474 2.616 10.4027 2.616C11.1221 2.616 11.7591 2.76333 12.3137 3.058C12.8684 3.35267 13.3017 3.77733 13.6137 4.332C13.9257 4.878 14.0817 5.52367 14.0817 6.269ZM11.4817 5.632C11.4817 5.32 11.3777 5.07733 11.1697 4.904C10.9617 4.722 10.7017 4.631 10.3897 4.631C10.0777 4.631 9.82208 4.71767 9.62274 4.891C9.42341 5.05567 9.29341 5.30267 9.23274 5.632H11.4817ZM19.8955 2.642C20.7362 2.642 21.4035 2.92367 21.8975 3.487C22.3915 4.04167 22.6385 4.79567 22.6385 5.749V10H20.0905V6.087C20.0905 5.671 19.9822 5.346 19.7655 5.112C19.5488 4.86933 19.2585 4.748 18.8945 4.748C18.5132 4.748 18.2142 4.86933 17.9975 5.112C17.7808 5.346 17.6725 5.671 17.6725 6.087V10H15.1245V2.707H17.6725V3.747C17.8978 3.41767 18.2012 3.15333 18.5825 2.954C18.9638 2.746 19.4015 2.642 19.8955 2.642ZM23.6206 6.347C23.6206 5.593 23.7549 4.93433 24.0236 4.371C24.3009 3.80767 24.6779 3.37433 25.1546 3.071C25.6313 2.76767 26.1599 2.616 26.7406 2.616C27.2086 2.616 27.6246 2.71567 27.9886 2.915C28.3613 3.10567 28.6516 3.37 28.8596 3.708V0.38H31.4206V10H28.8596V8.986C28.6603 9.324 28.3786 9.59267 28.0146 9.792C27.6506 9.99133 27.2216 10.091 26.7276 10.091C26.1469 10.091 25.6183 9.93933 25.1416 9.636C24.6736 9.33267 24.3009 8.89933 24.0236 8.336C23.7549 7.764 23.6206 7.101 23.6206 6.347ZM28.8726 6.347C28.8726 5.879 28.7426 5.51067 28.4826 5.242C28.2313 4.97333 27.9193 4.839 27.5466 4.839C27.1653 4.839 26.8489 4.97333 26.5976 5.242C26.3463 5.502 26.2206 5.87033 26.2206 6.347C26.2206 6.815 26.3463 7.18767 26.5976 7.465C26.8489 7.73367 27.1653 7.868 27.5466 7.868C27.9193 7.868 28.2313 7.73367 28.4826 7.465C28.7426 7.19633 28.8726 6.82367 28.8726 6.347ZM37.9088 2.876V4.371H40.8338V6.308H37.9088V7.959H41.2238V10H35.3608V0.834999H41.2238V2.876H37.9088ZM42.0669 6.347C42.0669 5.593 42.2012 4.93433 42.4699 4.371C42.7472 3.80767 43.1199 3.37433 43.5879 3.071C44.0645 2.76767 44.5932 2.616 45.1739 2.616C45.6765 2.616 46.1099 2.71567 46.4739 2.915C46.8379 3.11433 47.1195 3.383 47.3189 3.721V2.707H49.8669V10H47.3189V8.986C47.1195 9.324 46.8335 9.59267 46.4609 9.792C46.0969 9.99133 45.6679 10.091 45.1739 10.091C44.5932 10.091 44.0645 9.93933 43.5879 9.636C43.1199 9.33267 42.7472 8.89933 42.4699 8.336C42.2012 7.764 42.0669 7.101 42.0669 6.347ZM47.3189 6.347C47.3189 5.879 47.1889 5.51067 46.9289 5.242C46.6775 4.97333 46.3655 4.839 45.9929 4.839C45.6115 4.839 45.2952 4.97333 45.0439 5.242C44.7925 5.502 44.6669 5.87033 44.6669 6.347C44.6669 6.815 44.7925 7.18767 45.0439 7.465C45.2952 7.73367 45.6115 7.868 45.9929 7.868C46.3655 7.868 46.6775 7.73367 46.9289 7.465C47.1889 7.19633 47.3189 6.82367 47.3189 6.347ZM54.4258 10.091C53.7672 10.091 53.1778 9.98267 52.6578 9.766C52.1465 9.54067 51.7392 9.23733 51.4358 8.856C51.1412 8.466 50.9765 8.02833 50.9418 7.543H53.4118C53.4465 7.777 53.5548 7.959 53.7368 8.089C53.9188 8.219 54.1442 8.284 54.4128 8.284C54.6208 8.284 54.7855 8.24067 54.9068 8.154C55.0282 8.06733 55.0888 7.95467 55.0888 7.816C55.0888 7.634 54.9892 7.49967 54.7898 7.413C54.5905 7.32633 54.2612 7.231 53.8018 7.127C53.2818 7.023 52.8485 6.906 52.5018 6.776C52.1552 6.646 51.8518 6.43367 51.5918 6.139C51.3405 5.84433 51.2148 5.44567 51.2148 4.943C51.2148 4.50967 51.3318 4.11967 51.5658 3.773C51.7998 3.41767 52.1422 3.136 52.5928 2.928C53.0522 2.72 53.6025 2.616 54.2438 2.616C55.1972 2.616 55.9468 2.85 56.4928 3.318C57.0388 3.786 57.3552 4.40133 57.4418 5.164H55.1408C55.0975 4.93 54.9935 4.75233 54.8288 4.631C54.6728 4.501 54.4605 4.436 54.1918 4.436C53.9838 4.436 53.8235 4.475 53.7108 4.553C53.6068 4.631 53.5548 4.73933 53.5548 4.878C53.5548 5.05133 53.6545 5.18567 53.8538 5.281C54.0532 5.36767 54.3738 5.45867 54.8158 5.554C55.3445 5.66667 55.7822 5.79233 56.1288 5.931C56.4842 6.06967 56.7918 6.295 57.0518 6.607C57.3205 6.91033 57.4548 7.32633 57.4548 7.855C57.4548 8.27967 57.3292 8.661 57.0778 8.999C56.8352 9.337 56.4842 9.60567 56.0248 9.805C55.5742 9.99567 55.0412 10.091 54.4258 10.091ZM65.6755 6.269C65.6755 6.46833 65.6625 6.66767 65.6365 6.867H60.8135C60.8395 7.26567 60.9478 7.56467 61.1385 7.764C61.3378 7.95467 61.5892 8.05 61.8925 8.05C62.3172 8.05 62.6205 7.85933 62.8025 7.478H65.5195C65.4068 7.98067 65.1858 8.43133 64.8565 8.83C64.5358 9.22 64.1285 9.52767 63.6345 9.753C63.1405 9.97833 62.5945 10.091 61.9965 10.091C61.2772 10.091 60.6358 9.93933 60.0725 9.636C59.5178 9.33267 59.0802 8.89933 58.7595 8.336C58.4475 7.77267 58.2915 7.10967 58.2915 6.347C58.2915 5.58433 58.4475 4.92567 58.7595 4.371C59.0715 3.80767 59.5048 3.37433 60.0595 3.071C60.6228 2.76767 61.2685 2.616 61.9965 2.616C62.7158 2.616 63.3528 2.76333 63.9075 3.058C64.4622 3.35267 64.8955 3.77733 65.2075 4.332C65.5195 4.878 65.6755 5.52367 65.6755 6.269ZM63.0755 5.632C63.0755 5.32 62.9715 5.07733 62.7635 4.904C62.5555 4.722 62.2955 4.631 61.9835 4.631C61.6715 4.631 61.4158 4.71767 61.2165 4.891C61.0172 5.05567 60.8872 5.30267 60.8265 5.632H63.0755Z" fill="#1E3A5F"/>
</svg>
