<svg width="23" height="23" viewBox="0 0 23 23" fill="none" xmlns="http://www.w3.org/2000/svg">
<mask id="mask0_1331_8633" style="mask-type:alpha" maskUnits="userSpaceOnUse" x="0" y="0" width="23" height="23">
<rect width="23" height="23" fill="#D9D9D9"/>
</mask>
<g mask="url(#mask0_1331_8633)">
<path d="M8.05 20.125C6.59653 20.125 5.37066 19.6259 4.3724 18.6276C3.37413 17.6293 2.875 16.4035 2.875 14.95C2.875 14.3431 2.97882 13.7521 3.18646 13.1771C3.3941 12.6021 3.68958 12.083 4.07292 11.6198L7.475 7.52292L5.15104 2.875H17.849L15.525 7.52292L18.9271 11.6198C19.3104 12.083 19.6059 12.6021 19.8135 13.1771C20.0212 13.7521 20.125 14.3431 20.125 14.95C20.125 16.4035 19.6219 17.6293 18.6156 18.6276C17.6094 19.6259 16.3875 20.125 14.95 20.125H8.05ZM11.5 15.3333C10.9729 15.3333 10.5217 15.1457 10.1464 14.7703C9.77101 14.395 9.58333 13.9437 9.58333 13.4167C9.58333 12.8896 9.77101 12.4384 10.1464 12.063C10.5217 11.6877 10.9729 11.5 11.5 11.5C12.0271 11.5 12.4783 11.6877 12.8536 12.063C13.229 12.4384 13.4167 12.8896 13.4167 13.4167C13.4167 13.9437 13.229 14.395 12.8536 14.7703C12.4783 15.1457 12.0271 15.3333 11.5 15.3333ZM9.22396 6.70833H13.776L14.7344 4.79167H8.26562L9.22396 6.70833ZM8.05 18.2083H14.95C15.8604 18.2083 16.6311 17.8929 17.262 17.262C17.8929 16.6311 18.2083 15.8604 18.2083 14.95C18.2083 14.5667 18.1405 14.1953 18.0047 13.8359C17.8689 13.4766 17.6812 13.1531 17.4417 12.8656L13.9198 8.625H9.10417L5.55833 12.8417C5.31875 13.1292 5.13108 13.4566 4.99531 13.824C4.85955 14.1913 4.79167 14.5667 4.79167 14.95C4.79167 15.8604 5.10712 16.6311 5.73802 17.262C6.36892 17.8929 7.13958 18.2083 8.05 18.2083Z" fill="#1C1B1F"/>
</g>
</svg>
