<svg width="81" height="81" viewBox="0 0 81 81" fill="none" xmlns="http://www.w3.org/2000/svg">
<path d="M54 13.5V10.125C54 7.43968 52.9333 4.86435 51.0345 2.96554C49.1357 1.06674 46.5603 0 43.875 0L37.125 0C34.4397 0 31.8643 1.06674 29.9655 2.96554C28.0667 4.86435 27 7.43968 27 10.125V13.5C23.4196 13.5 19.9858 14.9223 17.4541 17.4541C14.9223 19.9858 13.5 23.4196 13.5 27V67.5C13.5 71.0804 14.9223 74.5142 17.4541 77.0459C19.9858 79.5777 23.4196 81 27 81H54C57.5804 81 61.0142 79.5777 63.5459 77.0459C66.0777 74.5142 67.5 71.0804 67.5 67.5V27C67.5 23.4196 66.0777 19.9858 63.5459 17.4541C61.0142 14.9223 57.5804 13.5 54 13.5ZM33.75 10.125C33.75 9.22989 34.1056 8.37145 34.7385 7.73851C35.3715 7.10558 36.2299 6.75 37.125 6.75H43.875C44.7701 6.75 45.6285 7.10558 46.2615 7.73851C46.8944 8.37145 47.25 9.22989 47.25 10.125V13.5H33.75V10.125ZM60.75 67.5C60.75 69.2902 60.0388 71.0071 58.773 72.273C57.5071 73.5388 55.7902 74.25 54 74.25H27C25.2098 74.25 23.4929 73.5388 22.227 72.273C20.9612 71.0071 20.25 69.2902 20.25 67.5V27C20.25 25.2098 20.9612 23.4929 22.227 22.227C23.4929 20.9612 25.2098 20.25 27 20.25H54C55.7902 20.25 57.5071 20.9612 58.773 22.227C60.0388 23.4929 60.75 25.2098 60.75 27V67.5Z" fill="#232323"/>
<path d="M47.25 43.875H39.7102L46.7673 32.1132C47.2092 31.3469 47.3326 30.4377 47.1109 29.5814C46.8892 28.7251 46.3402 27.99 45.582 27.5344C44.8238 27.0788 43.9171 26.939 43.0569 27.1452C42.1967 27.3514 41.4518 27.8871 40.9826 28.6369L30.8576 45.5119C30.55 46.024 30.3837 46.6085 30.3759 47.2058C30.3681 47.8031 30.5189 48.3918 30.813 48.9117C31.1072 49.4317 31.534 49.8642 32.05 50.1652C32.566 50.4663 33.1526 50.6249 33.75 50.625H41.2897L34.2326 62.3869C33.9948 62.767 33.835 63.1906 33.7627 63.6331C33.6905 64.0755 33.707 64.528 33.8116 64.964C33.9161 65.4 34.1064 65.8108 34.3714 66.1724C34.6365 66.534 34.9709 66.8392 35.3552 67.0701C35.7395 67.301 36.1659 67.4531 36.6096 67.5174C37.0533 67.5817 37.5054 67.5569 37.9394 67.4445C38.3735 67.3322 38.7808 67.1345 39.1375 66.8629C39.4943 66.5914 39.7934 66.2515 40.0173 65.8631L50.1423 48.9882C50.45 48.4761 50.6162 47.8916 50.624 47.2942C50.6319 46.6969 50.481 46.1082 50.1869 45.5883C49.8928 45.0684 49.4659 44.6358 48.9499 44.3348C48.434 44.0338 47.8473 43.8751 47.25 43.875Z" fill="#232323"/>
</svg>
