<?xml version="1.0" encoding="utf-8"?><svg version="1.1" id="Layer_1" xmlns="http://www.w3.org/2000/svg" xmlns:xlink="http://www.w3.org/1999/xlink" x="0px" y="0px" viewBox="0 0 110.25 122.88" style="enable-background:new 0 0 110.25 122.88" xml:space="preserve"><style type="text/css">.st0{fill-rule:evenodd;clip-rule:evenodd;}</style><g><path class="st0" d="M39.34,70.46c6.11,12.74,24.63,13.19,30.48,0.07c-1.6-1.62-2.78-3.35-3.96-5.07 c-0.19-0.28-0.38-0.56-0.58-0.84c-2.82,2.24-6.25,3.67-10.72,3.66c-4.82-0.01-8.44-1.85-11.42-4.57c-0.18-0.16-0.35-0.33-0.53-0.5 c-0.43,1.18-0.97,2.6-1.55,3.92C40.52,68.4,39.92,69.6,39.34,70.46L39.34,70.46z M13.27,88.88h6.89c2.18,0,3.83,0.17,4.95,0.51 c1.12,0.34,2.02,1.03,2.71,2.06c0.69,1.04,1.03,2.7,1.03,5c0,1.55-0.24,2.64-0.73,3.25c-0.49,0.62-1.45,1.08-2.89,1.41 c1.6,0.36,2.69,0.96,3.26,1.8c0.57,0.84,0.86,2.13,0.86,3.86v2.47c0,1.8-0.21,3.13-0.62,4c-0.41,0.86-1.06,1.46-1.96,1.78 c-0.9,0.32-2.74,0.48-5.52,0.48h-7.99V88.88L13.27,88.88z M20.2,93.42v5.92c0.29-0.01,0.52-0.02,0.68-0.02 c0.66,0,1.09-0.17,1.27-0.5c0.19-0.34,0.27-1.3,0.27-2.87c0-0.84-0.07-1.42-0.22-1.76c-0.15-0.33-0.35-0.54-0.59-0.63 C21.37,93.48,20.9,93.43,20.2,93.42L20.2,93.42z M20.2,103.48v7.47c0.95-0.03,1.56-0.19,1.83-0.46c0.26-0.27,0.39-0.95,0.39-2.03 v-2.49c0-1.14-0.12-1.83-0.35-2.08C21.84,103.65,21.21,103.52,20.2,103.48L20.2,103.48z M47.87,88.88v17.8 c0,2.02-0.07,3.44-0.2,4.25c-0.13,0.82-0.52,1.66-1.17,2.52c-0.64,0.86-1.5,1.51-2.55,1.96c-1.06,0.44-2.31,0.67-3.74,0.67 c-1.59,0-2.99-0.26-4.2-0.79c-1.22-0.53-2.13-1.21-2.73-2.05c-0.61-0.85-0.96-1.74-1.07-2.68c-0.11-0.94-0.16-2.91-0.16-5.91V88.88 h6.93v19.97c0,1.16,0.06,1.91,0.19,2.23c0.12,0.32,0.38,0.49,0.75,0.49c0.43,0,0.71-0.18,0.83-0.53c0.12-0.36,0.18-1.2,0.18-2.52 V88.88H47.87L47.87,88.88z M65.59,88.88l-5.05,16.98v9.64h-6.39v-9.64l-4.88-16.98h6.36c0.98,5.21,1.55,8.71,1.69,10.51 c0.4-2.84,1.04-6.34,1.93-10.51H65.59L65.59,88.88z M67.07,88.88h11.54v5.32H74v5.08h4.31v5.05H74v5.86h5.08v5.32H67.07V88.88 L67.07,88.88z M81.35,88.88h4.9c3.26,0,5.47,0.12,6.63,0.38c1.16,0.25,2.1,0.9,2.83,1.94c0.73,1.03,1.09,2.69,1.09,4.95 c0,2.07-0.26,3.46-0.77,4.17c-0.51,0.71-1.53,1.14-3.04,1.28c1.37,0.34,2.29,0.8,2.77,1.37c0.47,0.57,0.76,1.09,0.88,1.57 c0.12,0.48,0.17,1.79,0.17,3.94v7.03h-6.43v-8.86c0-1.42-0.11-2.31-0.34-2.65c-0.22-0.34-0.8-0.51-1.75-0.51v12.01h-6.93V88.88 L81.35,88.88z M88.28,93.42v5.92c0.77,0,1.31-0.11,1.62-0.32c0.31-0.21,0.47-0.91,0.47-2.08v-1.46c0-0.85-0.15-1.4-0.45-1.67 C89.63,93.55,89.08,93.42,88.28,93.42L88.28,93.42z M71.54,69.11c6.52,4.6,19.49,5.72,25.57,9.11 c15.45,8.61,15.43,42.22,9.36,44.66H2.64C-1.08,122.15-3.02,86.6,12,78.22c6.07-3.38,18.97-4.5,25.52-9.08 c0.48-0.72,1-1.78,1.5-2.91c0.75-1.72,1.44-3.6,1.87-4.87c-1.84-2.16-3.4-4.59-4.91-6.99l-4.97-6.45 c-1.82-2.71-2.76-5.19-2.82-7.22c-0.03-0.96,0.13-1.82,0.49-2.59c0.37-0.8,0.94-1.47,1.71-1.98c0.36-0.24,0.76-0.45,1.2-0.61 c-0.32-4.28-0.44-8.24-0.24-12.75c0.11-1.07,0.31-2.15,0.61-3.22c1.27-4.54,4.45-8.19,8.39-10.69c2.17-1.38,4.55-2.43,7.04-3.13 c1.57-0.44-1.34-5.49,0.29-5.66c7.89-0.81,20.64,6.39,26.15,12.35c2.76,2.98,4.49,6.94,4.86,12.17L78.4,36.03v0 c1.38,0.42,2.26,1.29,2.62,2.71c0.4,1.57-0.03,3.77-1.36,6.79l0,0c-0.02,0.05-0.05,0.11-0.08,0.16l-5.66,7.88 c-2.08,3.43-4.19,6.86-6.95,9.57c0.25,0.35,0.49,0.72,0.74,1.08c1.12,1.64,2.25,3.29,3.7,4.76C71.46,69.01,71.5,69.06,71.54,69.11 L71.54,69.11z M34.47,37.81c-1.1,0.04-1.93,0.27-2.5,0.65c-0.33,0.22-0.56,0.5-0.72,0.83c-0.17,0.37-0.25,0.82-0.23,1.33 c0.04,1.51,0.84,3.49,2.37,5.76l0.02,0.03l0,0l4.97,6.45c1.99,3.17,4.08,6.4,6.67,8.77c2.5,2.28,5.52,3.83,9.52,3.83 c4.34,0.01,7.51-1.59,10.08-4c2.68-2.51,4.79-5.94,6.87-9.37l5.6-7.77c1.04-2.38,1.42-3.97,1.18-4.91 c-0.14-0.56-0.75-0.83-1.8-0.88c-0.22-0.01-0.45-0.01-0.68-0.01c-0.25,0.01-0.51,0.02-0.78,0.05c-0.15,0.01-0.29,0-0.43-0.03 c-0.5,0.03-1.01-0.01-1.53-0.08l1.92-7.03c-14.22,2.24-24.85-8.32-39.88-2.11l1.08,8.55C35.57,37.91,35,37.89,34.47,37.81 L34.47,37.81L34.47,37.81z"/></g></svg>