<svg width="23" height="23" viewBox="0 0 23 23" fill="none" xmlns="http://www.w3.org/2000/svg">
<path d="M13.8609 5C14.8318 5.19057 15.7241 5.66826 16.4235 6.37194C17.123 7.07561 17.5979 7.97326 17.7873 8.95L13.8609 5ZM13.8609 1C15.878 1.22544 17.7591 2.13417 19.1951 3.57701C20.6311 5.01984 21.5368 6.91101 21.7634 8.94L13.8609 1ZM20.7694 16.92V19.92C20.7705 20.1985 20.7138 20.4742 20.6029 20.7293C20.492 20.9845 20.3293 21.2136 20.1253 21.4019C19.9213 21.5901 19.6805 21.7335 19.4182 21.8227C19.156 21.9119 18.8781 21.9451 18.6024 21.92C15.5436 21.5856 12.6054 20.5341 10.0239 18.85C7.62217 17.3147 5.58591 15.2662 4.05974 12.85C2.37981 10.2412 1.33435 7.27099 1.00807 4.18C0.983228 3.90347 1.0159 3.62476 1.10399 3.36162C1.19209 3.09849 1.33368 2.85669 1.51976 2.65162C1.70584 2.44655 1.93232 2.28271 2.18479 2.17052C2.43726 2.05833 2.71019 2.00026 2.98619 2H5.96828C6.45069 1.99522 6.91836 2.16708 7.28414 2.48353C7.64991 2.79999 7.88882 3.23945 7.95634 3.72C8.0822 4.68007 8.31563 5.62273 8.65216 6.53C8.7859 6.88792 8.81484 7.27691 8.73556 7.65088C8.65628 8.02485 8.4721 8.36811 8.20484 8.64L6.94243 9.91C8.35748 12.4135 10.418 14.4864 12.9066 15.91L14.169 14.64C14.4393 14.3711 14.7805 14.1858 15.1522 14.1061C15.524 14.0263 15.9106 14.0555 16.2664 14.19C17.1683 14.5286 18.1053 14.7634 19.0597 14.89C19.5425 14.9585 19.9835 15.2032 20.2987 15.5775C20.614 15.9518 20.7815 16.4296 20.7694 16.92Z" stroke="black" stroke-width="2" stroke-linecap="round" stroke-linejoin="round"/>
</svg>
