<svg width="24" height="24" viewBox="0 0 24 24" fill="none" xmlns="http://www.w3.org/2000/svg">
<path d="M14.569 5.37109C15.5457 5.56166 16.4434 6.03935 17.147 6.74303C17.8507 7.44671 18.3284 8.34436 18.519 9.32109L14.569 5.37109ZM14.569 1.37109C16.5983 1.59653 18.4906 2.50527 19.9352 3.9481C21.3799 5.39093 22.291 7.2821 22.519 9.31109L14.569 1.37109ZM21.519 17.2911V20.2911C21.5201 20.5696 21.4631 20.8453 21.3515 21.1004C21.2399 21.3556 21.0763 21.5847 20.8711 21.773C20.6658 21.9612 20.4235 22.1046 20.1597 22.1938C19.8959 22.283 19.6163 22.3162 19.339 22.2911C16.2618 21.9567 13.306 20.9052 10.709 19.2211C8.2928 17.6858 6.24431 15.6373 4.70898 13.2211C3.01895 10.6123 1.96722 7.64209 1.63898 4.55109C1.61399 4.27456 1.64685 3.99585 1.73548 3.73272C1.8241 3.46958 1.96655 3.22778 2.15374 3.02271C2.34094 2.81765 2.56878 2.6538 2.82277 2.54162C3.07675 2.42943 3.35132 2.37136 3.62898 2.37109H6.62898C7.11428 2.36632 7.58477 2.53817 7.95274 2.85463C8.32071 3.17108 8.56105 3.61054 8.62898 4.09109C8.7556 5.05116 8.99043 5.99382 9.32898 6.90109C9.46352 7.25902 9.49264 7.64801 9.41288 8.02197C9.33313 8.39594 9.14784 8.7392 8.87898 9.01109L7.60898 10.2811C9.03253 12.7846 11.1054 14.8575 13.609 16.2811L14.879 15.0111C15.1509 14.7422 15.4941 14.5569 15.8681 14.4772C16.2421 14.3974 16.6311 14.4266 16.989 14.5611C17.8962 14.8996 18.8389 15.1345 19.799 15.2611C20.2847 15.3296 20.7284 15.5743 21.0455 15.9486C21.3626 16.3229 21.5311 16.8007 21.519 17.2911Z" stroke="black" stroke-width="2" stroke-linecap="round" stroke-linejoin="round"/>
</svg>
