<svg width="47" height="47" viewBox="0 0 47 47" fill="none" xmlns="http://www.w3.org/2000/svg">
<ellipse cx="23.3191" cy="23.3485" rx="23.3191" ry="23.3485" fill="black" fill-opacity="0.4"/>
<path d="M9.04422 29.8335C8.76462 29.8335 8.49647 29.7223 8.29877 29.5243C8.10106 29.3263 7.98999 29.0579 7.98999 28.7779V24.5557C7.98999 23.9958 8.21213 23.4588 8.60754 23.0629C9.00295 22.667 9.53924 22.4446 10.0984 22.4446H37.5083C38.0675 22.4446 38.6038 22.667 38.9992 23.0629C39.3946 23.4588 39.6167 23.9958 39.6167 24.5557V28.7779C39.6167 29.0579 39.5057 29.3263 39.308 29.5243C39.1103 29.7223 38.8421 29.8335 38.5625 29.8335H9.04422Z" fill="#F9D18B"/>
<path d="M38.0354 25.6112H39.6168V24.5557C39.6168 23.9958 39.3946 23.4588 38.9992 23.0629C38.6038 22.667 38.0675 22.4446 37.5083 22.4446H36.4541V24.0279C36.4541 24.4478 36.6207 24.8506 36.9173 25.1475C37.2138 25.4444 37.616 25.6112 38.0354 25.6112Z" fill="#ED5C58"/>
<path d="M11.6798 27.7224C16.6841 27.7698 21.5131 25.8788 25.1575 22.4446H10.0984C9.53924 22.4446 9.00295 22.667 8.60754 23.0629C8.21213 23.4588 7.98999 23.9958 7.98999 24.5557V27.3893C9.20739 27.6114 10.4423 27.7229 11.6798 27.7224Z" fill="#FBE3B9"/>
<path d="M7.98999 24.5557V26.6668C8.54919 26.6668 9.08548 26.4444 9.48089 26.0485C9.8763 25.6526 10.0984 25.1156 10.0984 24.5557V22.4446C9.53924 22.4446 9.00295 22.667 8.60754 23.0629C8.21213 23.4588 7.98999 23.9958 7.98999 24.5557Z" fill="#ED5C58"/>
<path d="M11.1526 22.4447L13.6479 18.6974C14.1773 17.902 14.8947 17.2498 15.7364 16.7986C16.578 16.3475 17.5179 16.1114 18.4726 16.1113H25.2265C26.6841 16.1113 28.0882 16.661 29.1593 17.6509L34.3455 22.4447H11.1526Z" fill="#7FCDEE"/>
<path d="M25.1574 22.4447C26.6801 20.988 27.9103 19.2532 28.7819 17.3337C27.7652 16.5422 26.5143 16.1121 25.2265 16.1113H18.4726C17.5179 16.1114 16.578 16.3475 15.7364 16.7986C14.8947 17.2498 14.1773 17.902 13.6479 18.6974L11.1526 22.4447H25.1574Z" fill="#B2E1F5"/>
<path d="M14.3153 33.0001C16.062 33.0001 17.4779 31.5823 17.4779 29.8334C17.4779 28.0845 16.062 26.6667 14.3153 26.6667C12.5686 26.6667 11.1526 28.0845 11.1526 29.8334C11.1526 31.5823 12.5686 33.0001 14.3153 33.0001Z" fill="#758190"/>
<path d="M14.3152 30.8889C14.8974 30.8889 15.3694 30.4164 15.3694 29.8334C15.3694 29.2504 14.8974 28.7778 14.3152 28.7778C13.733 28.7778 13.261 29.2504 13.261 29.8334C13.261 30.4164 13.733 30.8889 14.3152 30.8889Z" fill="white"/>
<path d="M32.2371 33.0001C33.9838 33.0001 35.3998 31.5823 35.3998 29.8334C35.3998 28.0845 33.9838 26.6667 32.2371 26.6667C30.4904 26.6667 29.0745 28.0845 29.0745 29.8334C29.0745 31.5823 30.4904 33.0001 32.2371 33.0001Z" fill="#758190"/>
<path d="M32.2371 30.8889C32.8193 30.8889 33.2913 30.4164 33.2913 29.8334C33.2913 29.2504 32.8193 28.7778 32.2371 28.7778C31.6549 28.7778 31.1829 29.2504 31.1829 29.8334C31.1829 30.4164 31.6549 30.8889 32.2371 30.8889Z" fill="white"/>
<path d="M22.222 16.1113H20.1135V22.4447H22.222V16.1113Z" fill="#758190"/>
<path d="M25.9118 14H17.478V16.1111H25.9118V14Z" fill="#F9D18B"/>
<path d="M11.1527 29.8335H9.04422C8.76462 29.8335 8.49647 29.7223 8.29877 29.5243C8.10106 29.3263 7.98999 29.0579 7.98999 28.7779V24.5557C7.98999 23.9958 8.21213 23.4588 8.60754 23.0629C9.00295 22.667 9.53924 22.4446 10.0984 22.4446H37.5083C38.0675 22.4446 38.6038 22.667 38.9992 23.0629C39.3946 23.4588 39.6167 23.9958 39.6167 24.5557V28.7779C39.6167 29.0579 39.5057 29.3263 39.308 29.5243C39.1103 29.7223 38.8421 29.8335 38.5625 29.8335H35.3998" stroke="black" stroke-opacity="0.4" stroke-width="0.5" stroke-linejoin="round"/>
<path d="M11.1526 22.4447L13.6479 18.6974C14.1773 17.902 14.8947 17.2498 15.7364 16.7986C16.578 16.3475 17.5179 16.1114 18.4726 16.1113H25.2265C26.6841 16.1113 28.0882 16.661 29.1593 17.6509L34.3455 22.4447" stroke="black" stroke-opacity="0.4" stroke-width="0.5" stroke-linejoin="round"/>
<path d="M39.6168 25.6112H38.0354C37.616 25.6112 37.2138 25.4444 36.9173 25.1475C36.6207 24.8506 36.4541 24.4478 36.4541 24.0279V22.4446" stroke="black" stroke-opacity="0.4" stroke-width="0.5" stroke-linejoin="round"/>
<path d="M32.2371 33.0001C33.9838 33.0001 35.3998 31.5823 35.3998 29.8334C35.3998 28.0845 33.9838 26.6667 32.2371 26.6667C30.4904 26.6667 29.0745 28.0845 29.0745 29.8334C29.0745 31.5823 30.4904 33.0001 32.2371 33.0001Z" stroke="black" stroke-opacity="0.4" stroke-width="0.5" stroke-linejoin="round"/>
<path d="M14.3153 33.0001C16.062 33.0001 17.4779 31.5823 17.4779 29.8334C17.4779 28.0845 16.062 26.6667 14.3153 26.6667C12.5686 26.6667 11.1526 28.0845 11.1526 29.8334C11.1526 31.5823 12.5686 33.0001 14.3153 33.0001Z" stroke="black" stroke-opacity="0.4" stroke-width="0.5" stroke-linejoin="round"/>
<path d="M10.0984 22.4446V24.5557C10.0984 25.1156 9.8763 25.6526 9.48089 26.0485C9.08548 26.4444 8.54919 26.6668 7.98999 26.6668" stroke="black" stroke-opacity="0.4" stroke-width="0.5" stroke-linejoin="round"/>
<path d="M25.924 16.1111V14H17.478V16.1111" stroke="black" stroke-opacity="0.4" stroke-width="0.5" stroke-linejoin="round"/>
<path d="M32.2371 30.8889C32.8193 30.8889 33.2913 30.4164 33.2913 29.8334C33.2913 29.2504 32.8193 28.7778 32.2371 28.7778C31.6549 28.7778 31.1829 29.2504 31.1829 29.8334C31.1829 30.4164 31.6549 30.8889 32.2371 30.8889Z" stroke="black" stroke-opacity="0.4" stroke-width="0.5" stroke-linejoin="round"/>
<path d="M14.3152 30.8889C14.8974 30.8889 15.3694 30.4164 15.3694 29.8334C15.3694 29.2504 14.8974 28.7778 14.3152 28.7778C13.733 28.7778 13.261 29.2504 13.261 29.8334C13.261 30.4164 13.733 30.8889 14.3152 30.8889Z" stroke="black" stroke-opacity="0.4" stroke-width="0.5" stroke-linejoin="round"/>
<path d="M29.0745 29.8333H17.478" stroke="black" stroke-opacity="0.4" stroke-width="0.5" stroke-linejoin="round"/>
<path d="M20.1257 16.1113V22.4447" stroke="black" stroke-opacity="0.4" stroke-width="0.5" stroke-linejoin="round"/>
<path d="M22.2341 16.1113V22.4447" stroke="black" stroke-opacity="0.4" stroke-width="0.5" stroke-linejoin="round"/>
<path d="M19.0591 25.0833V26.1388" stroke="black" stroke-opacity="0.4" stroke-width="0.5" stroke-linejoin="round"/>
<path d="M20.1135 24.0278V25.0834" stroke="black" stroke-opacity="0.4" stroke-width="0.5" stroke-linejoin="round"/>
<path d="M21.1677 25.0833V26.1388" stroke="black" stroke-opacity="0.4" stroke-width="0.5" stroke-linejoin="round"/>
<path d="M22.2219 24.0278V25.0834" stroke="black" stroke-opacity="0.4" stroke-width="0.5" stroke-linejoin="round"/>
<path d="M23.2764 25.0833V26.1388" stroke="black" stroke-opacity="0.4" stroke-width="0.5" stroke-linejoin="round"/>
<path d="M24.3303 24.0278V25.0834" stroke="black" stroke-opacity="0.4" stroke-width="0.5" stroke-linejoin="round"/>
<path d="M25.3848 25.0833V26.1388" stroke="black" stroke-opacity="0.4" stroke-width="0.5" stroke-linejoin="round"/>
<path d="M26.4387 24.0278V25.0834" stroke="black" stroke-opacity="0.4" stroke-width="0.5" stroke-linejoin="round"/>
<path d="M27.4932 25.0833V26.1388" stroke="black" stroke-opacity="0.4" stroke-width="0.5" stroke-linejoin="round"/>
</svg>
