
<svg version="1.0" xmlns="http://www.w3.org/2000/svg"
 width="1024.000000pt" height="1024.000000pt" viewBox="0 0 1024.000000 1024.000000"
 preserveAspectRatio="xMidYMid meet">

<g transform="translate(0.000000,1024.000000) scale(0.100000,-0.100000)"
fill="#393939" stroke="none">
<path d="M7384 9062 c-23 -16 -134 -196 -134 -218 0 -12 12 -36 26 -53 20 -25
34 -31 64 -31 33 0 44 6 77 44 21 24 54 73 73 109 32 60 33 67 20 91 -24 47
-95 79 -126 58z"/>
<path d="M2785 9036 c-41 -41 -41 -65 4 -154 62 -122 110 -149 172 -94 24 21
32 37 31 59 -1 35 -36 108 -81 171 -26 36 -36 42 -67 42 -24 0 -43 -8 -59 -24z"/>
<path d="M4955 9050 c-44 -4 -118 -10 -165 -14 -212 -17 -533 -80 -740 -145
-568 -177 -1014 -427 -1420 -792 -193 -174 -448 -487 -628 -769 -379 -595
-566 -1277 -549 -1999 5 -240 13 -303 63 -551 92 -449 271 -880 528 -1265 200
-301 392 -531 582 -697 406 -354 854 -612 1374 -790 443 -152 1030 -208 1555
-149 241 27 341 46 586 116 292 83 636 227 859 360 562 333 928 690 1275 1245
108 171 241 436 300 595 59 158 143 436 165 547 12 56 27 129 35 162 52 224
63 608 26 891 -43 328 -75 485 -143 695 -180 556 -513 1107 -908 1500 -415
413 -911 714 -1480 898 -177 57 -217 68 -375 96 -335 61 -708 87 -940 66z
m445 -465 c709 -41 1384 -330 1926 -823 158 -144 234 -228 368 -407 282 -376
417 -626 525 -972 61 -193 84 -299 116 -543 42 -314 27 -684 -40 -977 -23 -99
-120 -430 -153 -518 -95 -260 -287 -596 -471 -825 -110 -136 -349 -379 -469
-475 -217 -174 -476 -335 -708 -440 -428 -192 -751 -268 -1274 -300 -133 -8
-534 26 -725 61 -446 83 -932 301 -1325 595 -266 198 -419 350 -618 613 -159
211 -264 392 -375 646 -66 152 -73 171 -136 385 -113 382 -125 468 -126 845 0
315 8 390 71 685 91 426 220 714 485 1087 268 376 487 593 834 825 155 103
234 148 416 233 415 194 824 292 1289 309 107 4 218 6 245 5 28 -2 93 -6 145
-9z m-3150 -1189 c0 -2 -8 -10 -17 -17 -16 -13 -17 -12 -4 4 13 16 21 21 21
13z"/>
<path fill="#f6c32e" d="M5085 8081 c-56 -17 -78 -51 -145 -216 -29 -71 -87 -213 -130 -315
-43 -102 -115 -275 -161 -385 -45 -110 -113 -274 -152 -365 -38 -91 -100 -239
-137 -330 -137 -336 -250 -610 -330 -800 -132 -313 -140 -348 -97 -387 22 -21
26 -21 396 -13 205 5 418 12 472 16 61 4 99 3 99 -3 0 -14 -44 -140 -73 -208
-42 -97 -195 -489 -247 -630 -27 -71 -90 -236 -140 -365 -50 -129 -134 -350
-186 -490 -52 -140 -120 -316 -150 -390 -118 -290 -122 -314 -58 -378 38 -38
80 -42 129 -12 18 11 96 105 177 213 290 386 321 430 721 1019 111 163 269
395 352 515 234 341 580 864 690 1042 55 89 137 219 183 288 88 135 99 171 67
232 -27 53 -34 53 -560 50 -267 -2 -485 -3 -485 -2 0 2 29 68 65 148 36 79 65
147 65 150 0 3 59 123 131 267 72 145 160 324 194 398 35 74 117 245 183 380
150 309 212 451 212 489 0 17 -10 42 -24 58 l-24 28 -509 1 c-279 1 -517 -1
-528 -5z m865 -178 c0 -3 -25 -53 -55 -109 -30 -57 -64 -125 -74 -151 -27 -67
-188 -401 -498 -1033 -67 -135 -144 -299 -173 -365 -28 -66 -60 -137 -71 -158
-23 -46 -24 -65 -2 -89 15 -17 39 -18 362 -17 190 0 427 4 526 9 99 4 183 5
188 1 10 -10 -71 -143 -265 -436 -90 -137 -190 -288 -221 -335 -31 -47 -70
-105 -88 -130 -18 -25 -53 -77 -78 -117 -61 -95 -182 -271 -251 -363 -31 -41
-68 -96 -83 -122 -15 -26 -54 -81 -87 -123 -33 -41 -77 -101 -97 -133 -76
-121 -220 -333 -320 -472 -215 -298 -278 -379 -287 -369 -3 2 10 51 29 107 35
107 57 163 161 427 34 88 85 219 112 290 27 72 87 227 132 345 45 118 110 285
145 370 34 85 66 166 70 180 4 14 32 80 62 148 59 133 63 164 23 194 -24 17
-45 18 -435 11 -225 -5 -440 -7 -476 -5 l-67 4 19 46 c10 26 35 91 55 146 20
54 62 160 94 235 215 508 488 1158 545 1301 44 108 180 434 242 575 19 44 40
95 46 113 l10 32 404 0 c222 0 403 -3 403 -7z"/>
<path d="M5772 7778 c-7 -7 -12 -21 -12 -32 1 -18 3 -17 16 7 17 31 15 44 -4
25z"/>
<path d="M5875 5779 c-4 -6 -5 -12 -2 -15 2 -3 7 2 10 11 7 17 1 20 -8 4z"/>
<path d="M5456 5098 c-24 -33 -19 -45 5 -14 12 15 19 29 16 32 -3 3 -12 -5
-21 -18z"/>
<path d="M5361 4942 c-17 -31 -13 -40 5 -14 9 13 14 26 11 29 -3 2 -10 -4 -16
-15z"/>
<path d="M5218 4728 c-8 -13 -20 -34 -27 -48 -12 -24 -11 -24 4 -5 19 23 48
75 41 75 -2 0 -10 -10 -18 -22z"/>
<path d="M5061 4488 c-28 -40 -73 -104 -101 -143 -49 -67 -100 -146 -88 -135
16 14 210 280 228 312 34 60 16 44 -39 -34z"/>
<path d="M4115 7774 c-80 -41 -135 -127 -135 -212 0 -91 36 -146 125 -188 85
-40 156 -28 241 41 105 86 108 198 8 297 -72 72 -170 98 -239 62z m119 -186
c16 -26 -4 -53 -40 -53 -23 0 -30 5 -32 24 -7 45 48 66 72 29z"/>
<path fill="#49cc90" d="M3041 7525 c-16 -14 -82 -96 -145 -183 -64 -86 -168 -224 -231 -307
-237 -307 -364 -480 -368 -504 -8 -43 12 -90 45 -107 26 -14 58 -16 187 -13
l156 4 2 -1308 2 -1308 21 -29 c39 -55 38 -55 390 -52 356 3 346 1 394 66 21
27 21 32 24 1333 l2 1306 155 -5 c173 -5 204 2 229 51 19 35 20 64 6 92 -6 10
-97 130 -203 266 -106 137 -230 300 -276 363 -277 378 -262 360 -322 360 -25
0 -47 -8 -68 -25z m152 -311 c43 -54 113 -148 155 -208 42 -60 126 -174 185
-253 60 -80 107 -147 104 -149 -3 -3 -60 -9 -127 -13 -117 -7 -124 -9 -147
-35 l-23 -27 -2 -782 c-1 -430 -2 -1019 -2 -1309 -1 -289 -5 -530 -9 -534 -4
-4 -64 -2 -134 5 -93 10 -128 10 -131 2 -2 -7 -39 -11 -104 -11 l-101 0 7 172
c7 192 5 188 81 199 35 5 32 6 -22 7 l-62 2 0 1120 c1 1029 -1 1123 -16 1146
-28 43 -74 56 -175 48 -48 -4 -96 -4 -104 -1 -17 7 2 34 331 468 204 269 196
259 208 255 6 -1 45 -47 88 -102z"/>
<path d="M3252 4265 c9 -9 68 -12 74 -4 3 5 -14 9 -37 9 -23 0 -40 -2 -37 -5z"/>
<path fill="#ff9d00" d="M7114 7540 c-28 -11 -162 -168 -264 -310 -46 -63 -109 -146 -140
-185 -31 -38 -105 -135 -165 -215 -60 -80 -133 -173 -162 -208 -45 -53 -53
-69 -53 -103 0 -93 23 -104 230 -104 l165 0 5 -1307 c5 -1302 5 -1307 26
-1335 45 -61 57 -63 410 -63 360 0 346 -3 394 76 l22 35 6 1301 5 1301 145 -6
c162 -7 190 0 217 53 18 35 19 67 2 96 -7 12 -59 83 -117 159 -58 75 -161 210
-230 300 -69 90 -179 234 -245 320 -66 87 -133 168 -148 181 -29 24 -65 29
-103 14z m94 -277 c27 -32 79 -98 116 -148 78 -106 151 -203 281 -375 52 -69
95 -127 95 -130 0 -3 -49 -4 -109 -2 -122 4 -142 -2 -171 -51 -19 -31 -20 -62
-20 -1254 0 -809 -3 -1223 -10 -1223 -5 0 -10 -13 -10 -29 0 -55 -17 -61 -164
-61 -73 0 -160 -3 -194 -6 -54 -6 -61 -9 -67 -32 -3 -13 -3 -27 0 -30 9 -9
318 -15 370 -8 36 6 45 11 45 27 0 10 4 19 9 19 5 0 12 10 14 23 2 12 5 -3 6
-33 l1 -55 -240 0 -240 0 0 145 c1 112 4 149 15 164 15 19 15 19 15 -2 0 -17
6 -22 25 -22 14 0 25 -4 25 -10 0 -5 18 -10 40 -10 33 0 40 -3 40 -20 0 -17 7
-20 40 -20 33 0 40 3 40 20 0 17 7 20 53 20 51 0 107 17 107 33 0 4 9 7 20 7
13 0 20 7 20 19 0 11 7 26 15 35 8 8 15 17 15 20 0 10 -90 6 -111 -4 -10 -6
-19 -7 -19 -2 0 5 -38 10 -85 11 -64 2 -85 -1 -85 -11 0 -10 -2 -10 -9 1 -6
10 -28 12 -84 10 l-75 -4 -7 1054 c-4 579 -4 1087 -1 1128 l7 74 -35 35 -34
34 -131 0 c-72 0 -131 3 -131 6 0 6 61 87 323 431 134 176 223 283 237 283 4
0 30 -26 58 -57z m77 -3073 c-3 -5 -10 -10 -16 -10 -5 0 -9 5 -9 10 0 6 7 10
16 10 8 0 12 -4 9 -10z"/>
<path d="M2144 4503 c8 -16 27 -41 41 -58 18 -20 14 -11 -11 28 -39 60 -55 76
-30 30z"/>
<path d="M5905 4003 c-48 -25 -66 -45 -91 -98 -37 -78 -29 -140 28 -221 58
-82 158 -112 244 -75 114 51 168 153 139 263 -24 93 -107 148 -222 148 -42 -1
-79 -7 -98 -17z m139 -149 c23 -9 20 -51 -5 -64 -31 -17 -69 -4 -69 23 0 39
32 57 74 41z"/>
<path d="M2338 8737 c-15 -12 -32 -35 -38 -50 -13 -37 -1 -60 95 -175 63 -77
80 -92 104 -92 43 0 60 9 76 41 26 49 18 70 -60 169 -109 138 -127 149 -177
107z"/>
<path d="M7764 8649 c-106 -122 -117 -149 -75 -193 55 -59 96 -44 193 71 112
132 118 151 67 202 -54 55 -74 47 -185 -80z"/>
<path d="M8240 8224 c-58 -53 -111 -106 -119 -118 -18 -30 -8 -71 26 -102 41
-38 66 -31 141 37 130 119 172 162 172 177 0 21 -39 81 -60 92 -36 19 -56 8
-160 -86z"/>
<path d="M1836 8270 c-20 -22 -36 -49 -36 -60 0 -23 177 -216 217 -238 47 -26
123 29 123 89 0 38 -150 202 -217 238 -35 18 -48 13 -87 -29z"/>
<path d="M8637 7869 c-101 -76 -176 -148 -183 -175 -8 -30 13 -81 37 -94 29
-16 72 -11 100 13 14 12 64 53 110 91 89 72 114 105 104 136 -7 22 -70 80 -88
80 -7 0 -43 -23 -80 -51z"/>
<path d="M1506 7895 c-28 -21 -56 -67 -56 -91 0 -15 35 -51 121 -123 153 -128
178 -136 219 -69 26 42 25 79 -1 112 -36 45 -229 186 -254 186 -5 -1 -19 -7
-29 -15z"/>
<path d="M8868 7417 c-64 -35 -126 -71 -137 -81 -44 -40 -10 -136 47 -136 15
1 86 31 157 68 l130 67 3 41 c2 33 -2 48 -23 73 -15 17 -34 31 -43 31 -10 0
-70 -29 -134 -63z"/>
<path d="M1233 7460 c-26 -11 -53 -59 -53 -94 0 -34 40 -64 175 -132 139 -69
157 -68 189 9 20 47 20 47 0 75 -20 27 -216 135 -264 146 -14 3 -35 1 -47 -4z"/>
<path d="M9140 6759 c-128 -45 -160 -70 -160 -123 0 -45 33 -86 70 -86 33 0
232 79 261 104 29 24 26 90 -6 121 -13 14 -30 25 -37 24 -7 0 -65 -18 -128
-40z"/>
<path d="M949 6760 c-35 -34 -39 -87 -11 -113 29 -27 259 -110 285 -103 49 12
75 108 38 145 -10 10 -67 34 -127 54 -157 51 -152 50 -185 17z"/>
<path d="M983 6259 c-27 -10 -53 -47 -53 -77 0 -28 50 -52 109 -52 48 0 77 33
67 75 -9 37 -82 69 -123 54z"/>
<path d="M9208 6234 c-49 -26 -63 -78 -28 -109 25 -23 101 -16 139 13 31 23
34 78 5 99 -24 17 -82 16 -116 -3z"/>
<path d="M954 5970 c-37 -15 -54 -50 -54 -113 0 -48 4 -62 25 -82 53 -54 145
-15 160 68 10 50 -5 88 -45 115 -35 23 -52 26 -86 12z"/>
<path d="M9234 5961 c-49 -21 -57 -140 -12 -188 27 -29 86 -31 119 -4 18 14
23 31 27 78 4 52 1 63 -19 87 -26 29 -80 42 -115 27z"/>
<path d="M882 5407 c-75 -80 -21 -239 76 -223 94 15 145 111 102 191 -31 57
-137 76 -178 32z"/>
<path d="M9243 5420 c-51 -21 -73 -92 -48 -156 38 -101 172 -100 205 1 16 47
4 108 -25 135 -26 25 -96 36 -132 20z"/>
<path d="M955 4778 c-47 -25 -59 -74 -29 -117 15 -21 22 -23 76 -18 71 6 98
26 98 73 0 59 -84 96 -145 62z"/>
<path d="M9197 4770 c-27 -22 -37 -69 -19 -98 10 -16 66 -32 110 -32 28 0 35
5 48 36 25 59 -1 95 -76 109 -28 5 -42 2 -63 -15z"/>
<path d="M9100 4493 c-31 -40 -23 -73 25 -100 46 -27 194 -75 206 -67 5 3 14
23 20 44 11 35 10 43 -6 60 -9 10 -40 27 -69 36 -28 9 -68 25 -88 35 -50 25
-63 24 -88 -8z"/>
<path d="M1077 4454 c-160 -34 -218 -75 -167 -116 31 -25 62 -23 169 14 74 26
96 39 107 60 8 15 11 34 8 42 -7 19 -27 19 -117 0z"/>
<path d="M8961 4156 c-7 -8 -15 -33 -18 -55 -9 -65 9 -82 154 -140 70 -28 135
-51 144 -51 24 0 62 59 63 99 l1 36 -120 59 c-130 63 -201 80 -224 52z"/>
<path d="M1107 4105 c-70 -29 -134 -59 -142 -65 -20 -16 -19 -80 1 -108 19
-28 61 -29 135 -3 72 24 192 85 209 106 32 39 -5 126 -54 125 -12 -1 -79 -25
-149 -55z"/>
<path d="M8846 3794 c-22 -21 -31 -64 -19 -83 14 -22 72 -60 185 -121 108 -57
120 -57 153 4 30 55 13 74 -133 150 -130 69 -160 77 -186 50z"/>
<path d="M1240 3740 c-120 -62 -150 -87 -150 -125 0 -27 36 -75 56 -75 28 0
261 118 277 140 29 42 -2 121 -47 120 -12 -1 -73 -28 -136 -60z"/>
<path d="M1423 3434 c-151 -79 -173 -97 -173 -140 0 -42 37 -84 74 -84 49 0
268 129 283 165 12 34 -34 115 -66 115 -5 0 -58 -25 -118 -56z"/>
<path d="M8696 3459 c-27 -32 -32 -59 -16 -89 11 -21 240 -170 262 -170 20 0
44 28 63 72 14 35 14 38 -8 62 -28 31 -234 156 -258 156 -9 0 -29 -14 -43 -31z"/>
<path d="M8471 3083 c-26 -32 -35 -65 -26 -92 6 -19 119 -122 212 -193 56 -43
85 -38 122 22 42 70 29 93 -119 201 -113 83 -123 89 -146 89 -13 0 -32 -12
-43 -27z"/>
<path d="M1624 3019 c-132 -95 -154 -116 -154 -152 0 -50 43 -106 82 -107 18
0 150 97 229 168 56 50 63 84 28 133 -35 49 -70 41 -185 -42z"/>
<path d="M8156 2689 c-47 -55 -32 -91 92 -223 110 -117 120 -122 163 -93 41
27 75 91 63 116 -5 10 -59 66 -121 125 -128 121 -151 130 -197 75z"/>
<path d="M1957 2634 c-46 -44 -103 -96 -126 -116 -39 -34 -43 -41 -37 -70 13
-65 61 -107 108 -94 13 4 76 58 142 120 94 91 119 120 119 141 0 35 -48 82
-90 91 -30 6 -38 0 -116 -72z"/>
<path d="M7728 2265 c-19 -13 -40 -37 -46 -54 -12 -34 -13 -33 101 -173 66
-82 83 -98 107 -98 34 0 90 59 90 94 0 23 -130 203 -172 239 -27 23 -36 22
-80 -8z"/>
<path d="M2454 2252 c-33 -26 -184 -213 -184 -227 0 -24 46 -80 73 -89 21 -8
34 -6 52 4 32 20 182 191 193 221 13 33 -2 65 -40 89 -40 24 -66 25 -94 2z"/>
<path d="M2859 1893 c-49 -53 -119 -164 -119 -188 0 -25 40 -79 72 -96 36 -19
73 7 123 86 25 40 51 88 59 106 37 87 -72 161 -135 92z"/>
<path d="M7286 1898 c-44 -41 -41 -56 31 -177 l68 -113 38 5 c44 6 70 26 87
68 14 34 -2 72 -77 177 -41 58 -47 62 -83 62 -26 0 -47 -7 -64 -22z"/>
</g>
</svg>
