<svg width="25" height="24" viewBox="0 0 25 24" fill="none" xmlns="http://www.w3.org/2000/svg">
<mask id="mask0_1281_115" style="mask-type:alpha" maskUnits="userSpaceOnUse" x="0" y="0" width="25" height="24">
<rect x="0.125488" width="24" height="24" fill="#D9D9D9"/>
</mask>
<g mask="url(#mask0_1281_115)">
<path d="M6.12549 19V20C6.12549 20.2833 6.02965 20.5208 5.83799 20.7125C5.64632 20.9042 5.40882 21 5.12549 21H4.12549C3.84215 21 3.60465 20.9042 3.41299 20.7125C3.22132 20.5208 3.12549 20.2833 3.12549 20V12L5.22549 6C5.32549 5.7 5.50465 5.45833 5.76299 5.275C6.02132 5.09167 6.30882 5 6.62549 5H9.12549V3H15.1255V5H17.6255C17.9422 5 18.2297 5.09167 18.488 5.275C18.7463 5.45833 18.9255 5.7 19.0255 6L21.1255 12V20C21.1255 20.2833 21.0297 20.5208 20.838 20.7125C20.6463 20.9042 20.4088 21 20.1255 21H19.1255C18.8422 21 18.6047 20.9042 18.413 20.7125C18.2213 20.5208 18.1255 20.2833 18.1255 20V19H6.12549ZM5.92549 10H18.3255L17.2755 7H6.97549L5.92549 10ZM7.62549 16C8.04215 16 8.39632 15.8542 8.68799 15.5625C8.97965 15.2708 9.12549 14.9167 9.12549 14.5C9.12549 14.0833 8.97965 13.7292 8.68799 13.4375C8.39632 13.1458 8.04215 13 7.62549 13C7.20882 13 6.85466 13.1458 6.56299 13.4375C6.27132 13.7292 6.12549 14.0833 6.12549 14.5C6.12549 14.9167 6.27132 15.2708 6.56299 15.5625C6.85466 15.8542 7.20882 16 7.62549 16ZM16.6255 16C17.0422 16 17.3963 15.8542 17.688 15.5625C17.9797 15.2708 18.1255 14.9167 18.1255 14.5C18.1255 14.0833 17.9797 13.7292 17.688 13.4375C17.3963 13.1458 17.0422 13 16.6255 13C16.2088 13 15.8547 13.1458 15.563 13.4375C15.2713 13.7292 15.1255 14.0833 15.1255 14.5C15.1255 14.9167 15.2713 15.2708 15.563 15.5625C15.8547 15.8542 16.2088 16 16.6255 16ZM5.12549 17H19.1255V12H5.12549V17Z" fill="#1C1B1F"/>
</g>
</svg>
