<svg width="25" height="24" viewBox="0 0 25 24" fill="none" xmlns="http://www.w3.org/2000/svg">
<mask id="mask0_1281_130" style="mask-type:alpha" maskUnits="userSpaceOnUse" x="0" y="0" width="25" height="24">
<rect x="0.125488" width="24" height="24" fill="#D9D9D9"/>
</mask>
<g mask="url(#mask0_1281_130)">
<path d="M5.97549 12L5.67549 10.5C5.47549 10.4167 5.28799 10.3292 5.11299 10.2375C4.93799 10.1458 4.75882 10.0333 4.57549 9.9L3.12549 10.35L2.12549 8.65L3.27549 7.65C3.24215 7.43333 3.22549 7.21667 3.22549 7C3.22549 6.78333 3.24215 6.56667 3.27549 6.35L2.12549 5.35L3.12549 3.65L4.57549 4.1C4.75882 3.96667 4.93799 3.85417 5.11299 3.7625C5.28799 3.67083 5.47549 3.58333 5.67549 3.5L5.97549 2H7.97549L8.27549 3.5C8.47549 3.58333 8.66299 3.67083 8.83799 3.7625C9.01299 3.85417 9.19215 3.96667 9.37549 4.1L10.8255 3.65L11.8255 5.35L10.6755 6.35C10.7088 6.56667 10.7255 6.78333 10.7255 7C10.7255 7.21667 10.7088 7.43333 10.6755 7.65L11.8255 8.65L10.8255 10.35L9.37549 9.9C9.19215 10.0333 9.01299 10.1458 8.83799 10.2375C8.66299 10.3292 8.47549 10.4167 8.27549 10.5L7.97549 12H5.97549ZM6.97549 9C7.52549 9 7.99632 8.80417 8.38799 8.4125C8.77966 8.02083 8.97549 7.55 8.97549 7C8.97549 6.45 8.77966 5.97917 8.38799 5.5875C7.99632 5.19583 7.52549 5 6.97549 5C6.42549 5 5.95465 5.19583 5.56299 5.5875C5.17132 5.97917 4.97549 6.45 4.97549 7C4.97549 7.55 5.17132 8.02083 5.56299 8.4125C5.95465 8.80417 6.42549 9 6.97549 9ZM14.9255 23L14.4755 20.9C14.1922 20.8 13.9297 20.6792 13.688 20.5375C13.4463 20.3958 13.2088 20.2333 12.9755 20.05L10.9755 20.7L9.57549 18.3L11.1755 16.9C11.1422 16.6 11.1255 16.3 11.1255 16C11.1255 15.7 11.1422 15.4 11.1755 15.1L9.57549 13.7L10.9755 11.3L12.9755 11.95C13.2088 11.7667 13.4463 11.6042 13.688 11.4625C13.9297 11.3208 14.1922 11.2 14.4755 11.1L14.9255 9H17.7255L18.1755 11.1C18.4588 11.2 18.7213 11.3208 18.963 11.4625C19.2047 11.6042 19.4422 11.7667 19.6755 11.95L21.6755 11.3L23.0755 13.7L21.4755 15.1C21.5088 15.4 21.5255 15.7 21.5255 16C21.5255 16.3 21.5088 16.6 21.4755 16.9L23.0755 18.3L21.6755 20.7L19.6755 20.05C19.4422 20.2333 19.2047 20.3958 18.963 20.5375C18.7213 20.6792 18.4588 20.8 18.1755 20.9L17.7255 23H14.9255ZM16.3255 19C17.1588 19 17.8672 18.7083 18.4505 18.125C19.0338 17.5417 19.3255 16.8333 19.3255 16C19.3255 15.1667 19.0338 14.4583 18.4505 13.875C17.8672 13.2917 17.1588 13 16.3255 13C15.4922 13 14.7838 13.2917 14.2005 13.875C13.6172 14.4583 13.3255 15.1667 13.3255 16C13.3255 16.8333 13.6172 17.5417 14.2005 18.125C14.7838 18.7083 15.4922 19 16.3255 19Z" fill="#1C1B1F"/>
</g>
</svg>
