<svg width="8" height="8" viewBox="0 0 8 8" fill="none" xmlns="http://www.w3.org/2000/svg">
<path d="M3.27319 4.72681L0.288133 3.51666C0.188247 3.47824 0.115253 3.41869 0.0691518 3.33802C0.0230506 3.25734 0 3.17474 0 3.09022C0 3.0057 0.0249715 2.9231 0.0749145 2.84243C0.124857 2.76175 0.199772 2.7022 0.299658 2.66379L7.37619 0.0360166C7.4684 -0.00240111 7.55676 -0.0100846 7.64128 0.012966C7.72579 0.0360166 7.79879 0.078276 7.86026 0.139744C7.92172 0.201213 7.96398 0.274206 7.98703 0.358725C8.01009 0.443244 8.0024 0.531605 7.96398 0.623807L5.33621 7.70034C5.2978 7.80023 5.23825 7.87514 5.15757 7.92509C5.0769 7.97503 4.9943 8 4.90978 8C4.82526 8 4.74266 7.97695 4.66198 7.93085C4.58131 7.88475 4.52176 7.81175 4.48334 7.71187L3.27319 4.72681Z" fill="#1C1B1F"/>
</svg>
