<svg width="74" height="74" viewBox="0 0 74 74" fill="none" xmlns="http://www.w3.org/2000/svg">
<path d="M14.402 17.5738L56.3385 59.5404C50.6418 64.3935 43.3258 66.9221 35.8482 66.6223C28.3706 66.3224 21.2805 63.2162 15.9907 57.9226C10.7009 52.629 7.59985 45.5367 7.30541 38.0589C7.01097 30.5811 9.54479 23.2669 14.402 17.5738ZM61.281 54.1573L19.7851 12.6372C25.5143 8.56727 32.5006 6.65955 39.5032 7.25286C46.5058 7.84617 53.0715 10.9021 58.0343 15.878C60.8069 18.6349 63.0052 21.9143 64.5021 25.5264C65.9989 29.1385 66.7646 33.0117 66.7547 36.9216C66.7699 43.0967 64.8563 49.1224 61.281 54.1573Z" fill="white"/>
<path fill-rule="evenodd" clip-rule="evenodd" d="M19.8334 38.889C16.3936 37.145 16.816 35.2017 20.2378 35.4009L21.0284 36.8492L22.5914 29.6074C23.1104 27.99 23.9191 26.4813 25.3493 26.0407V21.0559C25.3525 20.598 25.5349 20.1596 25.8576 19.8346C26.1803 19.5097 26.6174 19.3242 27.0753 19.3179H46.8999C47.3604 19.3195 47.8016 19.5031 48.1272 19.8287C48.4528 20.1543 48.6364 20.5955 48.638 21.0559V25.8838H48.9518C50.9916 25.8838 52.1684 27.6159 52.6633 29.5893L53.8703 36.7044L54.5582 35.4129C58.1007 35.2078 58.4145 37.2657 54.6669 39.0339L55.2704 39.9693C57.7386 42.5039 57.5093 45.0386 57.1231 51.2968V53.3547C57.1231 53.662 57.001 53.9567 56.7837 54.174C56.5664 54.3913 56.2717 54.5134 55.9644 54.5134H51.0037C50.6964 54.5134 50.4017 54.3913 50.1844 54.174C49.9671 53.9567 49.845 53.662 49.845 53.3547V52.4313H24.1303V53.3668C24.1303 53.6741 24.0082 53.9688 23.7909 54.1861C23.5736 54.4034 23.2789 54.5255 22.9716 54.5255H18.023C17.8708 54.5255 17.7201 54.4955 17.5796 54.4373C17.439 54.379 17.3112 54.2937 17.2036 54.1861C17.0961 54.0785 17.0107 53.9508 16.9525 53.8102C16.8942 53.6696 16.8643 53.5189 16.8643 53.3668V50.6812C16.8643 50.6812 16.8643 50.6209 16.8643 50.5907C16.8643 50.5605 16.8643 50.5304 16.8643 50.5002C16.5142 45.7085 15.9832 41.3633 19.8334 38.889ZM30.4609 25.8838H32.0239V22.3655H33.1706V21.1163H29.3203V22.3655H30.4609V25.8838ZM33.1887 25.8838H34.8483L34.9931 25.2803H36.2966L36.4354 25.8838H38.095L36.8458 21.1163H34.4319L33.2249 25.8838H33.1887ZM38.4088 25.8838H40.0805L40.5995 24.6286H40.6719L41.197 25.8838H42.9411L41.9151 23.4699L43.0135 21.0921H41.2996L40.7564 22.3957H40.678L40.1348 21.0801H38.3244L39.3986 23.494L38.3907 25.8416L38.4088 25.8838ZM43.7015 25.8838H45.2645V21.1042H43.7015V25.8838ZM46.9905 27.8271H26.9607C25.3976 27.8271 24.6131 29.1729 24.1484 30.6574L22.6397 37.9416H52.09L50.8951 30.6212C50.5812 29.1065 49.6217 27.809 48.0828 27.809L46.9905 27.8271ZM35.5966 22.619L35.2828 23.9828H36.0009L35.6931 22.6009L35.5966 22.619ZM26.1218 44.586L21.7284 44.0308C20.6904 43.9161 20.4128 44.3446 20.7688 45.2378L21.2396 46.3904C21.3747 46.6638 21.5837 46.8938 21.8431 47.0543C22.148 47.2362 22.4958 47.3341 22.8509 47.3379H26.7675C27.709 47.3379 28.1254 46.9577 27.8297 46.0887C27.7489 45.6882 27.5427 45.3238 27.2411 45.0483C26.9395 44.7727 26.5581 44.6002 26.152 44.5558L26.1218 44.586ZM49.5312 46.1188L53.9246 45.5636C54.9626 45.449 55.2462 45.8775 54.8901 46.7706L54.4134 47.9233C54.2808 48.1984 54.0712 48.429 53.8099 48.5871C53.5108 48.7608 53.172 48.8543 52.8262 48.8587L48.9035 48.8889C47.9681 48.8889 47.5457 48.5087 47.8474 47.6396C47.9244 47.2384 48.1285 46.8727 48.4296 46.5966C48.7307 46.3205 49.1127 46.1487 49.5191 46.1068L49.5312 46.1188Z" fill="black"/>
<path d="M36.9966 74C46.1824 74.0008 55.04 70.5847 61.8465 64.4162C68.6529 58.2478 72.9215 49.768 73.8218 40.6264C74.7221 31.4849 72.1898 22.3353 66.7174 14.9576C61.2451 7.57981 53.224 2.50142 44.2146 0.710298C35.2051 -1.08083 25.8516 0.543396 17.9734 5.26701C10.0952 9.99062 4.25582 17.4758 1.59109 26.2666C-1.07364 35.0573 -0.373133 44.525 3.55634 52.8278C7.48581 61.1307 14.3633 67.675 22.8508 71.1877C27.3453 73.0482 32.1625 74.0038 37.0268 74H36.9966ZM61.281 54.1572L19.7911 12.6372C23.899 9.73298 28.6745 7.91464 33.6737 7.3512C38.6728 6.78777 43.7332 7.49755 48.3845 9.41453C55.6725 12.4514 61.463 18.2484 64.4916 25.5398C65.9862 29.1478 66.7512 33.0162 66.7426 36.9216C66.769 43.0965 64.8589 49.1244 61.281 54.1572ZM14.402 17.5737L56.3445 59.5404C50.6455 64.3802 43.3338 66.8978 35.8633 66.5928C28.3928 66.2877 21.3107 63.1822 16.0254 57.8938C10.74 52.6054 7.63861 45.5215 7.33782 38.0508C7.03703 30.5802 9.5589 23.2699 14.402 17.5737Z" fill="#D92D27"/>
</svg>
