<svg width="44" height="44" viewBox="0 0 44 44" fill="none" xmlns="http://www.w3.org/2000/svg">
<path d="M5.50391 6C5.50391 2.68629 8.1902 0 11.5039 0H26L38.5009 13V38C38.5009 41.3137 35.8146 44 32.5009 44H11.5039C8.1902 44 5.50391 41.3137 5.50391 38V6Z" fill="#4498E8"/>
<path d="M26 13V0L38.5 13H26Z" fill="#3A79B5"/>
<path d="M12.7715 34V26.8613H14.71V34H12.7715ZM19.1682 34L17.7082 28.8584H17.6643C17.6773 28.9919 17.6903 29.1725 17.7033 29.4004C17.7196 29.6283 17.7342 29.874 17.7473 30.1377C17.7603 30.4014 17.7668 30.6553 17.7668 30.8994V34H16.0578V26.8613H18.6262L20.1154 31.9297H20.1545L21.6145 26.8613H24.1877V34H22.4152V30.8701C22.4152 30.6455 22.4185 30.4046 22.425 30.1475C22.4348 29.887 22.4445 29.6429 22.4543 29.415C22.4673 29.1839 22.4787 29.0016 22.4885 28.8682H22.4445L21.0041 34H19.1682ZM28.392 29.8203H31.473V33.668C31.1052 33.7949 30.6837 33.8991 30.2084 33.9805C29.7331 34.0586 29.2351 34.0977 28.7143 34.0977C28.0274 34.0977 27.4252 33.9642 26.9076 33.6973C26.39 33.4303 25.9864 33.0251 25.6967 32.4814C25.407 31.9346 25.2621 31.2445 25.2621 30.4111C25.2621 29.6624 25.4053 29.0163 25.6918 28.4727C25.9783 27.9258 26.3998 27.5042 26.9564 27.208C27.5163 26.9085 28.2016 26.7588 29.0121 26.7588C29.4581 26.7588 29.8813 26.8011 30.2816 26.8857C30.682 26.9704 31.0303 27.0778 31.3266 27.208L30.7162 28.7217C30.459 28.5947 30.1921 28.5003 29.9154 28.4385C29.6387 28.3734 29.3409 28.3408 29.0219 28.3408C28.5954 28.3408 28.252 28.4368 27.9916 28.6289C27.7344 28.821 27.5473 29.0781 27.4301 29.4004C27.3129 29.7194 27.2543 30.0726 27.2543 30.46C27.2543 30.9027 27.3161 31.277 27.4398 31.583C27.5668 31.8857 27.7507 32.1169 27.9916 32.2764C28.2357 32.4326 28.5303 32.5107 28.8754 32.5107C28.9893 32.5107 29.1277 32.5026 29.2904 32.4863C29.4564 32.4701 29.5818 32.4505 29.6664 32.4277V31.3096H28.392V29.8203Z" fill="white"/>
</svg>
