<?xml version="1.0" encoding="utf-8"?><svg version="1.1" id="Layer_1" xmlns="http://www.w3.org/2000/svg" xmlns:xlink="http://www.w3.org/1999/xlink" x="0px" y="0px" viewBox="0 0 111.56 122.88" style="enable-background:new 0 0 111.56 122.88" xml:space="preserve"><style type="text/css">.st0{fill-rule:evenodd;clip-rule:evenodd;}</style><g><path class="st0" d="M39.81,69.84c6.18,12.89,24.92,13.34,30.84,0.07c-1.61-1.64-2.81-3.39-4-5.13c-0.19-0.28-0.39-0.57-0.59-0.85 c-2.86,2.27-6.32,3.71-10.84,3.7c-4.87-0.01-8.54-1.88-11.55-4.63c-0.18-0.16-0.36-0.33-0.53-0.5c-0.43,1.2-0.98,2.63-1.56,3.97 C41,67.75,40.39,68.97,39.81,69.84L39.81,69.84z M26.32,96.91h-6.5v-1.99c0-0.93-0.09-1.53-0.25-1.78 c-0.16-0.26-0.44-0.38-0.82-0.38c-0.42,0-0.74,0.17-0.95,0.52c-0.22,0.34-0.32,0.86-0.32,1.56c0,0.9,0.13,1.57,0.37,2.03 c0.24,0.45,0.9,1,1.98,1.65c3.1,1.86,5.06,3.38,5.87,4.57c0.81,1.19,1.21,3.1,1.21,5.73c0,1.92-0.23,3.33-0.68,4.25 c-0.45,0.91-1.31,1.67-2.6,2.28c-1.28,0.62-2.78,0.93-4.48,0.93c-1.87,0-3.47-0.36-4.8-1.07c-1.32-0.71-2.18-1.61-2.6-2.71 c-0.41-1.1-0.61-2.66-0.61-4.68v-1.77h6.5v3.28c0,1.01,0.09,1.66,0.27,1.95c0.18,0.29,0.5,0.43,0.97,0.43 c0.47,0,0.81-0.18,1.04-0.55c0.23-0.36,0.34-0.91,0.34-1.62c0-1.58-0.22-2.62-0.65-3.1c-0.45-0.49-1.54-1.31-3.27-2.45 c-1.74-1.15-2.88-1.99-3.45-2.51c-0.56-0.52-1.03-1.24-1.4-2.16c-0.37-0.92-0.56-2.09-0.56-3.52c0-2.06,0.26-3.57,0.79-4.52 c0.53-0.95,1.37-1.7,2.55-2.24c1.17-0.54,2.59-0.81,4.25-0.81c1.82,0,3.36,0.3,4.64,0.88c1.28,0.59,2.12,1.33,2.54,2.22 c0.41,0.89,0.62,2.41,0.62,4.55V96.91L26.32,96.91z M29.42,88.74H41.1v5.38h-4.67v5.14h4.36v5.11h-4.36v5.93h5.14v5.38H29.42V88.74 L29.42,88.74z M50.88,88.74v21.56h4.22v5.38H43.87V88.74H50.88L50.88,88.74z M64.13,88.74v21.56h4.22v5.38H57.12V88.74H64.13 L64.13,88.74z M70.37,88.74h11.68v5.38h-4.67v5.14h4.36v5.11h-4.36v5.93h5.14v5.38H70.37V88.74L70.37,88.74z M84.82,88.74h4.95 c3.3,0,5.54,0.13,6.71,0.38c1.17,0.26,2.12,0.91,2.86,1.96c0.74,1.04,1.11,2.72,1.11,5.01c0,2.09-0.26,3.5-0.78,4.22 c-0.52,0.72-1.54,1.15-3.08,1.29c1.38,0.35,2.32,0.81,2.8,1.38c0.48,0.57,0.77,1.11,0.89,1.59c0.12,0.48,0.18,1.81,0.18,3.98v7.11 h-6.5v-8.96c0-1.44-0.11-2.33-0.34-2.68c-0.22-0.35-0.81-0.52-1.77-0.52v12.16h-7.01V88.74L84.82,88.74z M91.84,93.33v5.99 c0.78,0,1.33-0.11,1.64-0.32c0.31-0.22,0.47-0.92,0.47-2.11v-1.48c0-0.86-0.15-1.42-0.45-1.69C93.19,93.46,92.64,93.33,91.84,93.33 L91.84,93.33z M72.38,68.47c6.6,4.66,19.72,5.79,25.88,9.22c15.64,8.71,15.61,42.72,9.47,45.19H2.67 c-3.77-0.74-5.73-36.71,9.47-45.19c6.14-3.43,19.19-4.55,25.82-9.18c0.49-0.73,1.01-1.8,1.52-2.95c0.76-1.74,1.46-3.64,1.9-4.93 c-1.86-2.18-3.44-4.65-4.97-7.08l-5.03-6.53c-1.84-2.74-2.79-5.25-2.85-7.3c-0.03-0.97,0.14-1.85,0.49-2.62 c0.38-0.81,0.95-1.48,1.73-2.01c0.36-0.25,0.77-0.45,1.22-0.62c-0.33-4.33-0.45-8.33-0.24-12.91c0.11-1.08,0.32-2.17,0.62-3.26 C38.43-3.36,70.25-5.83,74.72,11.1c2.79,3.02,4.54,7.02,4.92,12.32L79.33,35v0c1.39,0.42,2.29,1.31,2.65,2.74 c0.4,1.58-0.03,3.82-1.38,6.87l0,0c-0.02,0.05-0.05,0.11-0.08,0.16l-5.73,7.97c-2.1,3.47-4.24,6.94-7.03,9.68 c0.25,0.36,0.5,0.73,0.75,1.09c1.14,1.66,2.28,3.33,3.75,4.82C72.31,68.37,72.35,68.42,72.38,68.47L72.38,68.47z M34.88,36.8 c-1.11,0.04-1.96,0.27-2.53,0.66c-0.33,0.22-0.57,0.5-0.73,0.84c-0.17,0.37-0.25,0.83-0.24,1.35c0.04,1.53,0.85,3.53,2.39,5.83 l0.02,0.03l0,0l5.03,6.53c2.01,3.21,4.13,6.47,6.75,8.87c2.53,2.31,5.59,3.87,9.64,3.88c4.39,0.01,7.6-1.61,10.2-4.05 c2.71-2.54,4.85-6.01,6.95-9.48l5.66-7.86c1.06-2.41,1.44-4.02,1.2-4.96c-0.14-0.56-0.76-0.84-1.82-0.89 c-0.22-0.01-0.46-0.01-0.69-0.01c-0.25,0.01-0.52,0.02-0.79,0.05c-0.15,0.01-0.3,0-0.44-0.03c-0.5,0.03-1.02-0.01-1.55-0.09 l1.94-7.12c-14.39,2.27-25.15-8.42-40.36-2.14l1.1,8.65C35.99,36.9,35.42,36.88,34.88,36.8L34.88,36.8L34.88,36.8z"/></g></svg>