<svg width="77" height="15" viewBox="0 0 77 15" fill="none" xmlns="http://www.w3.org/2000/svg">
<path d="M9.83908 1.91819V3.91314H6.55535V14.241H4.08372V3.91314H0.799988V1.91819H9.83908Z" fill="#73B9FA"/>
<path d="M11.0069 9.31541C11.0069 8.32676 11.2011 7.44992 11.5895 6.6849C11.9897 5.91987 12.5252 5.33139 13.1961 4.91945C13.8787 4.50751 14.6378 4.30154 15.4735 4.30154C16.2032 4.30154 16.8388 4.44866 17.3802 4.7429C17.9333 5.03714 18.3747 5.40789 18.7042 5.85514V4.46043H21.1935V14.241H18.7042V12.811C18.3865 13.27 17.9451 13.6525 17.3802 13.9585C16.827 14.2528 16.1855 14.3999 15.4558 14.3999C14.6319 14.3999 13.8787 14.188 13.1961 13.7643C12.5252 13.3406 11.9897 12.7463 11.5895 11.9812C11.2011 11.2044 11.0069 10.3158 11.0069 9.31541ZM18.7042 9.35072C18.7042 8.75047 18.5865 8.23849 18.3512 7.81478C18.1158 7.3793 17.798 7.04976 17.3978 6.82613C16.9976 6.59074 16.5681 6.47304 16.109 6.47304C15.65 6.47304 15.2263 6.58485 14.8379 6.80848C14.4495 7.0321 14.1317 7.36165 13.8846 7.79713C13.6492 8.22084 13.5315 8.72693 13.5315 9.31541C13.5315 9.9039 13.6492 10.4218 13.8846 10.869C14.1317 11.3045 14.4495 11.6399 14.8379 11.8753C15.2381 12.1107 15.6618 12.2284 16.109 12.2284C16.5681 12.2284 16.9976 12.1166 17.3978 11.893C17.798 11.6576 18.1158 11.328 18.3512 10.9043C18.5865 10.4688 18.7042 9.95097 18.7042 9.35072Z" fill="#73B9FA"/>
<path d="M29.0098 14.241L26.9972 11.2044L25.2141 14.241H22.5659L25.7613 9.33307L22.5306 4.46043H25.32L27.3149 7.47935L29.1157 4.46043H31.7639L28.5508 9.33307L31.7992 14.241H29.0098Z" fill="#73B9FA"/>
<path d="M34.3951 3.29524C33.9596 3.29524 33.5947 3.15989 33.3005 2.88918C33.018 2.60671 32.8768 2.25951 32.8768 1.84757C32.8768 1.43563 33.018 1.09431 33.3005 0.82361C33.5947 0.541138 33.9596 0.399902 34.3951 0.399902C34.8306 0.399902 35.1895 0.541138 35.472 0.82361C35.7662 1.09431 35.9134 1.43563 35.9134 1.84757C35.9134 2.25951 35.7662 2.60671 35.472 2.88918C35.1895 3.15989 34.8306 3.29524 34.3951 3.29524ZM35.6132 4.46043V14.241H33.1416V4.46043H35.6132Z" fill="#73B9FA"/>
<path d="M52.4839 1.91819V14.241H50.0123V8.99763H44.7336V14.241H42.2619V1.91819H44.7336V6.98502H50.0123V1.91819H52.4839Z" fill="#73B9FA"/>
<path d="M64.1499 4.46043V14.241H61.6606V13.0052C61.3428 13.4289 60.925 13.7643 60.4072 14.0115C59.9011 14.2469 59.3479 14.3646 58.7476 14.3646C57.9826 14.3646 57.3058 14.2057 56.7174 13.8879C56.1289 13.5584 55.664 13.0817 55.3227 12.4579C54.9931 11.8223 54.8283 11.0691 54.8283 10.1981V4.46043H57.3V9.84505C57.3 10.6218 57.4942 11.2221 57.8826 11.6458C58.271 12.0577 58.8006 12.2637 59.4715 12.2637C60.1541 12.2637 60.6896 12.0577 61.078 11.6458C61.4664 11.2221 61.6606 10.6218 61.6606 9.84505V4.46043H64.1499Z" fill="#73B9FA"/>
<path d="M69.0602 5.89044C69.378 5.41966 69.8134 5.03714 70.3666 4.7429C70.9316 4.44866 71.573 4.30154 72.291 4.30154C73.1266 4.30154 73.8799 4.50751 74.5507 4.91945C75.2334 5.33139 75.7689 5.91987 76.1573 6.6849C76.5575 7.43815 76.7575 8.31499 76.7575 9.31541C76.7575 10.3158 76.5575 11.2044 76.1573 11.9812C75.7689 12.7463 75.2334 13.3406 74.5507 13.7643C73.8799 14.188 73.1266 14.3999 72.291 14.3999C71.5612 14.3999 70.9198 14.2587 70.3666 13.9762C69.8252 13.682 69.3897 13.3053 69.0602 12.8463V14.241H66.5886V1.1767H69.0602V5.89044ZM74.2329 9.31541C74.2329 8.72693 74.1094 8.22084 73.8622 7.79713C73.6268 7.36165 73.309 7.0321 72.9089 6.80848C72.5205 6.58485 72.0968 6.47304 71.6377 6.47304C71.1905 6.47304 70.7668 6.59074 70.3666 6.82613C69.9782 7.04976 69.6604 7.3793 69.4133 7.81478C69.1779 8.25026 69.0602 8.76224 69.0602 9.35072C69.0602 9.93921 69.1779 10.4512 69.4133 10.8867C69.6604 11.3221 69.9782 11.6576 70.3666 11.893C70.7668 12.1166 71.1905 12.2284 71.6377 12.2284C72.0968 12.2284 72.5205 12.1107 72.9089 11.8753C73.309 11.6399 73.6268 11.3045 73.8622 10.869C74.1094 10.4335 74.2329 9.91567 74.2329 9.31541Z" fill="#73B9FA"/>
</svg>
