<svg width="149" height="195" viewBox="0 0 149 195" fill="none" xmlns="http://www.w3.org/2000/svg">
<path d="M47.9997 0.416183C44.0536 1.00194 41.6798 1.86514 29.6874 6.82858C18.7123 11.3913 18.404 11.5454 16.7084 13.2102C15.5061 14.4125 14.8279 15.3682 14.4888 16.4472C13.2248 20.3008 13.4714 21.7189 16.5543 28.7479L18.589 33.3414V37.5649C18.589 40.9869 18.8048 42.9908 19.6988 48.2009L20.7778 54.6133L19.6988 55.4765C18.0649 56.8329 17.0475 59.1759 17.0475 61.5189C17.0475 63.8927 17.51 65.1259 19.1131 66.8523C20.5004 68.4246 22.1651 69.2261 24.5389 69.5036C26.2037 69.6886 26.2962 69.7502 26.6353 70.8292C27.7143 74.1279 30.3348 78.259 33.2019 81.1261C35.0208 82.945 38.6586 85.6579 39.9534 86.1512C40.385 86.3053 40.4775 86.7677 40.4775 88.6175C40.4775 90.7138 40.4158 90.8988 39.7992 91.0221C31.7529 92.7794 16.4618 97.4962 12.2382 99.5309C9.74111 100.733 8.78542 101.381 7.42895 102.891C6.47325 103.909 5.48673 105.327 5.20927 106.067C4.96264 106.806 3.60617 113.897 2.21887 121.82C-0.185774 135.662 -0.247432 136.279 0.245829 136.865C0.800748 137.45 1.6023 137.45 47.6606 137.45H94.5204L97.0792 139.917C100.84 143.524 104.324 145.589 109.195 147.131C123.006 151.477 138.451 144.911 144.987 131.901C151.06 119.816 148.594 105.635 138.791 96.263C126.798 84.8564 107.653 85.2571 96.3393 97.1879C95.1062 98.4827 93.9963 99.5309 93.8422 99.5309C93.688 99.5309 92.794 99.1918 91.8075 98.7293C88.3546 97.2187 72.077 92.3786 65.8496 91.0221C65.2022 90.8988 65.1405 90.7138 65.1405 88.6175C65.1405 86.7677 65.233 86.3053 65.6646 86.1512C66.9594 85.6579 70.5972 82.945 72.4161 81.1261C75.2832 78.259 77.9037 74.1279 78.9827 70.8292C79.3218 69.7502 79.4143 69.6886 81.079 69.5036C83.4529 69.2261 85.1176 68.4246 86.5049 66.8523C88.108 65.1259 88.5704 63.8927 88.5704 61.5189C88.5704 59.1759 87.5531 56.8329 85.9192 55.4765L84.8401 54.6133L85.9192 48.2009C86.8132 42.9908 87.029 40.9869 87.029 37.5649V33.3722L89.187 28.4396C91.7458 22.6129 92.1774 20.8865 91.6842 18.4819C91.1909 16.0464 90.2969 14.3817 88.6321 12.8402C87.3681 11.6687 85.7958 10.898 75.8381 6.76692C63.5683 1.68016 61.8727 1.09442 57.4333 0.416183C53.9805 -0.138733 51.4217 -0.138733 47.9997 0.416183ZM60.3312 4.54726C63.5066 5.37962 84.9943 14.32 86.1041 15.2757C87.3681 16.3239 88.2622 18.3894 88.2622 20.1775C88.2622 21.349 87.7997 22.7054 86.1658 26.4665L84.0694 31.245H52.809H21.5486L19.4522 26.4665C17.8183 22.7054 17.3558 21.349 17.3558 20.1775C17.3558 18.4819 18.1882 16.478 19.3289 15.399C20.0071 14.7516 39.8917 6.27367 43.4987 5.07133C46.7665 3.99232 49.1712 3.68404 53.5797 3.77654C56.7243 3.86902 58.574 4.08482 60.3312 4.54726ZM83.3295 37.4108V40.0312H52.809H22.2884V37.4108V34.7903H52.809H83.3295V37.4108ZM76.0848 44.1931C74.1734 45.0872 68.2542 46.9061 64.9556 47.6151C54.8129 49.7731 44.1153 49.1257 33.8493 45.7654C27.406 43.6382 25.9571 43.7924 52.809 43.7924C73.6801 43.7924 76.8863 43.854 76.0848 44.1931ZM24.1382 45.7346L25.063 46.2278V49.8965C25.063 52.7635 24.9706 53.5959 24.6623 53.5959C24.3848 53.5959 24.0457 52.3936 23.5833 49.7731C22.6892 44.6864 22.6276 44.9638 24.1382 45.7346ZM82.0964 49.5573C81.6031 52.4244 81.264 53.5959 80.9865 53.5959C80.6474 53.5959 80.5549 52.7944 80.5549 49.8965V46.197L81.5723 45.7654C82.0964 45.5496 82.6205 45.3954 82.6821 45.4571C82.7438 45.5188 82.4663 47.3685 82.0964 49.5573ZM37.3329 50.513C42.8204 51.8695 46.859 52.3628 52.809 52.3628C60.5162 52.3628 66.9286 51.2838 74.0192 48.8174C76.3622 48.0159 76.948 47.8926 77.0713 48.2625C77.1638 48.5092 77.1638 52.3319 77.0713 56.7713C76.948 63.7078 76.8247 65.1876 76.2697 67.3148C73.341 78.2898 63.9382 85.6579 52.809 85.6579C41.6798 85.6579 32.2462 78.2898 29.3482 67.3148C28.7933 65.2184 28.67 63.6461 28.5467 56.7713C28.4542 52.3319 28.4542 48.5092 28.5467 48.2317C28.7008 47.8309 29.1016 47.8926 31.2288 48.6941C32.6161 49.1874 35.3599 50.0198 37.3329 50.513ZM25.1247 61.5189C25.1864 63.8619 25.2172 65.835 25.1555 65.8966C25.1247 65.9583 24.5698 65.8966 23.9224 65.7733C22.5042 65.5267 20.8395 63.8619 20.562 62.3821C20.4695 61.8272 20.5312 60.8407 20.747 60.2549C21.2094 58.8368 22.9667 57.2954 24.1073 57.2954H25.0014L25.1247 61.5189ZM83.4837 58.2511C85.5492 60.07 85.6417 63.122 83.6378 64.8176C82.8055 65.4958 80.6783 66.2049 80.4625 65.8966C80.4008 65.835 80.4316 63.8619 80.4933 61.5189L80.6166 57.2954H81.5106C82.0347 57.2954 82.8055 57.6653 83.4837 58.2511ZM52.6548 89.1416C55.4294 89.1416 57.31 88.9874 58.759 88.6483C61.7185 87.9084 61.7494 87.9084 61.7494 89.3574C61.7494 90.5289 61.5027 90.868 57.3717 95.3073C54.967 97.8661 52.9015 100.024 52.809 100.024C52.7165 100.055 50.7435 98.0203 48.4313 95.5231L44.1769 90.9605V89.4498V87.9392L46.4274 88.525C48.0614 88.9566 49.6953 89.1416 52.6548 89.1416ZM124.948 92.4402C143.168 97.5887 150.567 118.953 139.407 134.09C132.224 143.832 119.245 147.439 107.931 142.876C102.073 140.502 96.9559 135.693 94.1196 129.866C86.4741 114.298 95.5069 95.8622 112.617 92.1011C116.07 91.3304 121.588 91.4846 124.948 92.4402ZM46.1191 98.2977C48.0922 100.425 49.7261 102.213 49.7261 102.305C49.7261 102.552 43.0979 106.313 42.6971 106.313C42.3888 106.313 35.4215 95.8622 35.6065 95.6773C35.8223 95.4615 41.5565 94.3208 42.0497 94.3825C42.3272 94.4133 44.1461 96.1705 46.1191 98.2977ZM66.9286 94.9374C68.5625 95.3073 69.9498 95.6156 70.0115 95.6773C70.1965 95.8622 63.2291 106.313 62.9208 106.313C62.4276 106.313 55.861 102.521 55.9535 102.275C56.1693 101.689 63.1983 94.3208 63.5374 94.29C63.7532 94.29 65.2638 94.5674 66.9286 94.9374ZM36.4389 103.724C40.385 109.612 41.0632 110.475 41.8031 110.568C42.4505 110.66 43.9611 109.951 47.5989 107.885C50.281 106.344 52.6548 105.08 52.8398 105.08C53.0556 105.08 55.3678 106.313 58.0499 107.855C60.732 109.365 63.2291 110.629 63.6607 110.629C64.6781 110.629 65.0789 110.136 69.4566 103.384C71.5529 100.147 73.4027 97.342 73.5876 97.1571C74.1425 96.5405 92.2391 102.244 91.8691 102.891C86.9057 111.862 86.4741 122.159 90.7593 131.254C91.4067 132.672 91.9616 133.905 91.9616 133.967C91.9616 134.028 89.9886 134.028 87.5839 133.998L83.1754 133.905L83.0212 126.814L82.8671 119.755L82.0656 119.292C81.3257 118.891 81.1715 118.891 80.4316 119.354L79.6301 119.878V126.969V134.059H52.809H25.9879V126.969V119.878L25.1864 119.354C24.4465 118.891 24.2923 118.891 23.5524 119.292L22.7509 119.755L22.5967 126.814L22.4426 133.905L13.1323 133.998C7.98387 134.028 3.79115 134.028 3.79115 133.967C3.79115 133.936 4.83933 127.924 6.10331 120.679C8.13801 108.903 8.50796 107.3 9.21702 106.252C10.2035 104.864 12.8548 103.015 15.3828 101.966C17.6025 101.072 31.2596 96.7871 31.6604 96.8796C31.8146 96.9104 33.9726 99.9933 36.4389 103.724Z" fill="white"/>
<path d="M34.2192 12.5318C33.7876 12.9942 33.6951 13.8266 33.6951 17.2794C33.6951 22.5203 33.6643 22.4587 37.6412 22.4587H40.4775V25.2333C40.4775 27.7921 40.5391 28.1004 41.2482 28.7786C41.9573 29.5185 42.1731 29.5493 45.8109 29.5493C50.9593 29.5493 51.0826 29.4568 51.2059 25.3874L51.3292 22.4279L52.9015 22.5203L54.5046 22.6128L54.5971 25.5416C54.6896 29.5185 54.7512 29.5493 59.8072 29.5493C63.445 29.5493 63.6608 29.5185 64.3698 28.7786C65.0789 28.1004 65.1405 27.7921 65.1405 25.2333V22.4587H68.0076C71.9537 22.4587 71.9229 22.5203 71.9229 17.1561C71.9229 11.7302 72.1695 11.9769 66.6203 11.9769C63.1058 11.9769 62.3659 12.0694 62.0268 12.4701C61.7494 12.8093 61.5336 14.1041 61.4411 15.9538L61.2869 18.9134H59.7455H58.2041L58.1116 15.9846C57.9883 11.9152 58.0807 11.9769 52.809 11.9769C47.5373 11.9769 47.6298 11.9152 47.5065 15.9846L47.414 18.9134H45.8725H44.3311L44.1769 15.9538C44.0845 14.1041 43.8687 12.8093 43.5912 12.4701C43.2521 12.0694 42.5122 11.9769 38.936 11.9769C35.2366 11.9769 34.6508 12.0385 34.2192 12.5318ZM40.4775 17.2486V19.0983L38.8744 19.0059L37.2405 18.9134L37.148 17.5569C36.9938 15.553 37.148 15.3681 38.936 15.3681H40.4775V17.2486ZM54.5046 17.2178V18.9134H52.809H51.1134L51.0209 17.5569C50.8668 15.4914 51.0209 15.3372 52.8707 15.4297L54.5046 15.5222V17.2178ZM68.3776 17.2178V18.9134L66.7745 19.0059L65.1405 19.0983V17.2178V15.3372L66.7745 15.4297L68.3776 15.5222V17.2178ZM47.5681 24.1543V25.8499H45.8725H44.1769V24.1543V22.4587H45.8725H47.5681V24.1543ZM61.4411 24.1543V25.8499H59.7455H58.0499V24.1543V22.4587H59.7455H61.4411V24.1543Z" fill="white"/>
<path d="M115.052 97.7121C110.49 98.3595 106.975 100.178 103.492 103.662C99.8538 107.331 98.1891 110.66 97.48 115.747C96.401 123.485 100.563 131.963 107.407 136.002C110.706 137.944 113.758 138.776 117.704 138.807C121.557 138.838 123.5 138.437 126.644 136.988C131.238 134.861 134.444 131.716 136.633 127.123C138.267 123.762 138.667 121.882 138.636 117.874C138.606 115.1 138.452 114.021 137.804 112.017C135.276 104.279 128.802 98.822 120.817 97.7121C118.166 97.3422 117.55 97.3422 115.052 97.7121ZM121.835 101.535C124.825 102.244 127.6 103.755 129.789 105.851C130.868 106.868 131.731 107.855 131.731 108.071C131.731 108.595 129.696 109.674 126.798 110.66C122.236 112.171 115.484 112.356 110.613 111.092C108.424 110.537 104.293 108.564 104.293 108.101C104.293 107.423 107.962 104.248 110.058 103.138C113.85 101.134 117.858 100.61 121.835 101.535ZM104.971 112.787C106.359 113.466 108.64 114.298 109.997 114.668C113.172 115.5 119.307 115.778 122.821 115.285C125.781 114.853 130.374 113.404 132.255 112.294C132.964 111.893 133.611 111.554 133.673 111.554C133.766 111.554 134.105 112.294 134.413 113.157C135.369 115.963 135.091 122.653 133.92 124.441C133.704 124.78 133.118 124.595 131.083 123.608C126.922 121.604 123.839 120.988 118.012 120.988C112.185 120.988 109.102 121.604 104.941 123.608C102.906 124.595 102.32 124.78 102.104 124.441C101.426 123.393 100.84 119.385 100.994 117.134C101.149 115.069 101.95 111.554 102.258 111.554C102.32 111.554 103.553 112.109 104.971 112.787ZM116.316 129.897V135.323L115.176 135.108C113.141 134.738 110.336 133.597 108.517 132.395C106.852 131.285 104.293 128.726 104.293 128.171C104.293 127.77 108.578 125.828 110.613 125.304C112.648 124.811 113.788 124.626 115.33 124.533L116.316 124.502V129.897ZM125.873 125.458C128.37 126.136 131.731 127.77 131.731 128.294C131.731 129.127 127.754 132.487 125.534 133.535C123.315 134.583 120.447 135.385 119.954 135.108C119.831 135.015 119.708 132.58 119.708 129.682V124.41L121.65 124.626C122.729 124.718 124.609 125.088 125.873 125.458Z" fill="white"/>
<path d="M32.6 167.55V170.375H27.95V185H24.45V170.375H19.8V167.55H32.6ZM34.2537 178.025C34.2537 176.625 34.5287 175.383 35.0787 174.3C35.6454 173.217 36.4037 172.383 37.3537 171.8C38.3204 171.217 39.3954 170.925 40.5787 170.925C41.612 170.925 42.512 171.133 43.2787 171.55C44.062 171.967 44.687 172.492 45.1537 173.125V171.15H48.6787V185H45.1537V182.975C44.7037 183.625 44.0787 184.167 43.2787 184.6C42.4954 185.017 41.587 185.225 40.5537 185.225C39.387 185.225 38.3204 184.925 37.3537 184.325C36.4037 183.725 35.6454 182.883 35.0787 181.8C34.5287 180.7 34.2537 179.442 34.2537 178.025ZM45.1537 178.075C45.1537 177.225 44.987 176.5 44.6537 175.9C44.3204 175.283 43.8704 174.817 43.3037 174.5C42.737 174.167 42.1287 174 41.4787 174C40.8287 174 40.2287 174.158 39.6787 174.475C39.1287 174.792 38.6787 175.258 38.3287 175.875C37.9954 176.475 37.8287 177.192 37.8287 178.025C37.8287 178.858 37.9954 179.592 38.3287 180.225C38.6787 180.842 39.1287 181.317 39.6787 181.65C40.2454 181.983 40.8454 182.15 41.4787 182.15C42.1287 182.15 42.737 181.992 43.3037 181.675C43.8704 181.342 44.3204 180.875 44.6537 180.275C44.987 179.658 45.1537 178.925 45.1537 178.075ZM59.7471 185L56.8971 180.7L54.3721 185H50.6221L55.1471 178.05L50.5721 171.15H54.5221L57.3471 175.425L59.8971 171.15H63.6471L59.0971 178.05L63.6971 185H59.7471ZM67.373 169.5C66.7564 169.5 66.2397 169.308 65.823 168.925C65.423 168.525 65.223 168.033 65.223 167.45C65.223 166.867 65.423 166.383 65.823 166C66.2397 165.6 66.7564 165.4 67.373 165.4C67.9897 165.4 68.498 165.6 68.898 166C69.3147 166.383 69.523 166.867 69.523 167.45C69.523 168.033 69.3147 168.525 68.898 168.925C68.498 169.308 67.9897 169.5 67.373 169.5ZM69.098 171.15V185H65.598V171.15H69.098ZM92.9881 167.55V185H89.4881V177.575H82.0131V185H78.5131V167.55H82.0131V174.725H89.4881V167.55H92.9881ZM109.508 171.15V185H105.983V183.25C105.533 183.85 104.941 184.325 104.208 184.675C103.491 185.008 102.708 185.175 101.858 185.175C100.775 185.175 99.8163 184.95 98.983 184.5C98.1497 184.033 97.4913 183.358 97.008 182.475C96.5413 181.575 96.308 180.508 96.308 179.275V171.15H99.808V178.775C99.808 179.875 100.083 180.725 100.633 181.325C101.183 181.908 101.933 182.2 102.883 182.2C103.85 182.2 104.608 181.908 105.158 181.325C105.708 180.725 105.983 179.875 105.983 178.775V171.15H109.508ZM116.461 173.175C116.911 172.508 117.528 171.967 118.311 171.55C119.111 171.133 120.02 170.925 121.036 170.925C122.22 170.925 123.286 171.217 124.236 171.8C125.203 172.383 125.961 173.217 126.511 174.3C127.078 175.367 127.361 176.608 127.361 178.025C127.361 179.442 127.078 180.7 126.511 181.8C125.961 182.883 125.203 183.725 124.236 184.325C123.286 184.925 122.22 185.225 121.036 185.225C120.003 185.225 119.095 185.025 118.311 184.625C117.545 184.208 116.928 183.675 116.461 183.025V185H112.961V166.5H116.461V173.175ZM123.786 178.025C123.786 177.192 123.611 176.475 123.261 175.875C122.928 175.258 122.478 174.792 121.911 174.475C121.361 174.158 120.761 174 120.111 174C119.478 174 118.878 174.167 118.311 174.5C117.761 174.817 117.311 175.283 116.961 175.9C116.628 176.517 116.461 177.242 116.461 178.075C116.461 178.908 116.628 179.633 116.961 180.25C117.311 180.867 117.761 181.342 118.311 181.675C118.878 181.992 119.478 182.15 120.111 182.15C120.761 182.15 121.361 181.983 121.911 181.65C122.478 181.317 122.928 180.842 123.261 180.225C123.611 179.608 123.786 178.875 123.786 178.025Z" fill="white"/>
</svg>
