<svg width="62" height="40" viewBox="0 0 62 40" fill="none" xmlns="http://www.w3.org/2000/svg">
<rect x="0.5" y="0.5" width="61" height="39" rx="9.5" fill="#F4F6FA" stroke="#D6D9E0"/>
<mask id="mask0_2885_17057" style="mask-type:luminance" maskUnits="userSpaceOnUse" x="0" y="0" width="62" height="40">
<rect x="0.5" y="0.5" width="61" height="39" rx="9.5" fill="white" stroke="white"/>
</mask>
<g mask="url(#mask0_2885_17057)">
</g>
<g clip-path="url(#clip0_2885_17057)">
<path d="M16.6711 14.2159C16.1789 14.7895 15.3914 15.2407 14.6039 15.1762C14.5055 14.4028 14.8927 13.5778 15.3455 13.075C15.8377 12.4885 16.6974 12.0696 17.3995 12.0374C17.4783 12.8366 17.1567 13.6293 16.6711 14.2159ZM17.3864 15.3245C16.2445 15.26 15.2667 15.9625 14.7286 15.9625C14.1774 15.9625 13.3505 15.3567 12.4449 15.376C11.2702 15.3954 10.1808 16.0463 9.58361 17.084C8.34986 19.1659 9.26205 22.2403 10.4564 23.9354C11.0405 24.7733 11.7361 25.695 12.6549 25.6627C13.5277 25.6305 13.8689 25.1084 14.9189 25.1084C15.9755 25.1084 16.2839 25.6627 17.2027 25.6499C18.1542 25.6305 18.7514 24.812 19.3355 23.9741C19.9983 23.0202 20.2739 22.0985 20.287 22.0469C20.2674 22.0276 18.4495 21.3444 18.4299 19.2819C18.4102 17.5545 19.867 16.736 19.9327 16.6844C19.1124 15.4856 17.8327 15.3567 17.3864 15.3245ZM23.9752 12.9913V25.5532H25.9636V21.2606H28.7133C31.2267 21.2606 32.9855 19.5655 32.9855 17.1163C32.9855 14.667 31.253 12.9913 28.7789 12.9913H23.9752ZM25.9636 14.6348H28.2539C29.9799 14.6348 30.9642 15.5372 30.9642 17.1227C30.9642 18.7083 29.9799 19.6235 28.2474 19.6235H25.9636V14.6348ZM36.608 25.6499C37.8549 25.6499 39.0099 25.0311 39.5349 24.045H39.5742V25.5532H41.4117V19.3012C41.4117 17.4901 39.9352 16.317 37.6645 16.317C35.558 16.317 33.9961 17.503 33.937 19.1272H35.7286C35.8795 18.3538 36.608 17.8446 37.6055 17.8446C38.8195 17.8446 39.502 18.3989 39.502 19.4237V20.1198L37.0214 20.268C34.718 20.4034 33.4711 21.3315 33.4711 22.9428C33.4777 24.567 34.7639 25.6499 36.608 25.6499ZM37.1461 24.161C36.0895 24.161 35.4136 23.6583 35.4136 22.8977C35.4136 22.1049 36.0633 21.6473 37.3036 21.5764L39.5086 21.4411V22.15C39.5086 23.3231 38.4914 24.161 37.1461 24.161ZM43.8727 28.9692C45.8086 28.9692 46.7208 28.2409 47.5149 26.043L50.9995 16.4395H48.9783L46.642 23.8581H46.6027L44.2664 16.4395H42.1927L45.5527 25.5854L45.3689 26.1397C45.067 27.0807 44.5749 27.4481 43.6955 27.4481C43.538 27.4481 43.2361 27.4288 43.1114 27.4159V28.9241C43.2295 28.9499 43.7217 28.9692 43.8727 28.9692Z" fill="black"/>
</g>
<defs>
<clipPath id="clip0_2885_17057">
<rect width="42" height="33" fill="white" transform="translate(9 4)"/>
</clipPath>
</defs>
</svg>
