<svg width="24" height="24" viewBox="0 0 24 24" fill="none" xmlns="http://www.w3.org/2000/svg">
<g clip-path="url(#clip0_1726_11498)">
<path d="M19.2 21.78H4.8C4.32261 21.78 3.86477 21.6063 3.52721 21.2972C3.18964 20.9881 3 20.5688 3 20.1317V2H17.4V20.1317C17.4 20.5688 17.5896 20.9881 17.9272 21.2972C18.2648 21.6063 18.7226 21.78 19.2 21.78ZM19.2 21.78C19.6774 21.78 20.1352 21.6063 20.4728 21.2972C20.8104 20.9881 21 20.5688 21 20.1317V11.89H17.4" stroke="#A71B4A" stroke-width="1.5" stroke-linecap="round" stroke-linejoin="round"/>
<path d="M6.59961 5.29688H13.7996" stroke="#A71B4A" stroke-width="1.5" stroke-linecap="round" stroke-linejoin="round"/>
<path d="M6.59961 8.59326H13.7996" stroke="#A71B4A" stroke-width="1.5" stroke-linecap="round" stroke-linejoin="round"/>
<path d="M6.59961 11.8901H13.7996" stroke="#A71B4A" stroke-width="1.5" stroke-linecap="round" stroke-linejoin="round"/>
<path d="M10.1992 15.1865H13.7992" stroke="#A71B4A" stroke-width="1.5" stroke-linecap="round" stroke-linejoin="round"/>
</g>
<defs>
<clipPath id="clip0_1726_11498">
<rect width="24" height="24" fill="white"/>
</clipPath>
</defs>
</svg>
