<svg width="306" height="245" viewBox="0 0 306 245" fill="none" xmlns="http://www.w3.org/2000/svg">
<g clip-path="url(#clip0_1969_957)">
<mask id="mask0_1969_957" style="mask-type:luminance" maskUnits="userSpaceOnUse" x="0" y="0" width="306" height="245">
<path d="M306 0H0V245H306V0Z" fill="white"/>
</mask>
<g mask="url(#mask0_1969_957)">
<path d="M153.273 238.79C206.236 238.79 249.171 195.855 249.171 142.892C249.171 89.9289 206.236 46.9938 153.273 46.9938C100.31 46.9938 57.375 89.9289 57.375 142.892C57.375 195.855 100.31 238.79 153.273 238.79Z" fill="#E6EFF4"/>
<path d="M63.3857 84.1505C66.7053 84.1505 69.3964 81.4594 69.3964 78.1397C69.3964 74.8201 66.7053 72.129 63.3857 72.129C60.0661 72.129 57.375 74.8201 57.375 78.1397C57.375 81.4594 60.0661 84.1505 63.3857 84.1505Z" fill="#E6EFF4"/>
<path d="M186.606 46.9933C192.793 46.9933 197.808 41.9781 197.808 35.7915C197.808 29.6049 192.793 24.5897 186.606 24.5897C180.42 24.5897 175.404 29.6049 175.404 35.7915C175.404 41.9781 180.42 46.9933 186.606 46.9933Z" fill="#E6EFF4"/>
<path d="M72.4034 230.047C78.2883 230.047 83.0588 225.277 83.0588 219.392C83.0588 213.507 78.2883 208.737 72.4034 208.737C66.5186 208.737 61.748 213.507 61.748 219.392C61.748 225.277 66.5186 230.047 72.4034 230.047Z" fill="#E6EFF4"/>
<path d="M256.003 204.911C261.888 204.911 266.658 200.141 266.658 194.256C266.658 188.371 261.888 183.601 256.003 183.601C250.118 183.601 245.348 188.371 245.348 194.256C245.348 200.141 250.118 204.911 256.003 204.911Z" fill="#E6EFF4"/>
<path d="M235.238 211.468C238.105 211.468 240.429 209.144 240.429 206.277C240.429 203.41 238.105 201.086 235.238 201.086C232.371 201.086 230.047 203.41 230.047 206.277C230.047 209.144 232.371 211.468 235.238 211.468Z" fill="#E6EFF4"/>
<path d="M158.753 51.6581C158.436 51.5908 158.436 51.1386 158.753 51.0713L163.543 50.0527C163.658 50.0282 163.749 49.9382 163.774 49.8228L164.805 45.0668C164.873 44.7515 165.323 44.7515 165.391 45.0668L166.423 49.8228C166.448 49.9382 166.538 50.0282 166.653 50.0527L171.443 51.0713C171.76 51.1386 171.76 51.5908 171.443 51.6581L166.653 52.6767C166.538 52.7013 166.448 52.7912 166.423 52.9066L165.391 57.6626C165.323 57.9779 164.873 57.9779 164.805 57.6626L163.774 52.9066C163.749 52.7912 163.658 52.7013 163.543 52.6767L158.753 51.6581Z" fill="#A2C4D6"/>
<path d="M49.3013 149.515C49.4236 148.938 50.2482 148.938 50.3705 149.515L52.1971 158.145C52.2416 158.355 52.4053 158.52 52.6154 158.566L61.1558 160.426C61.7293 160.551 61.7293 161.369 61.1558 161.494L52.6154 163.354C52.4053 163.4 52.2416 163.565 52.1971 163.775L50.3705 172.405C50.2482 172.982 49.4236 172.982 49.3013 172.405L47.4747 163.775C47.4302 163.565 47.2665 163.4 47.0565 163.354L38.5161 161.494C37.9426 161.369 37.9426 160.551 38.5161 160.426L47.0565 158.566C47.2665 158.52 47.4302 158.355 47.4747 158.145L49.3013 149.515Z" fill="#A2C4D6"/>
<path d="M238.979 80.6653C239.101 80.0876 239.926 80.0876 240.048 80.6653L241.114 85.6995C241.158 85.9099 241.322 86.0745 241.532 86.1203L246.529 87.2088C247.102 87.3337 247.102 88.1517 246.529 88.2766L241.532 89.3651C241.322 89.4108 241.158 89.5755 241.114 89.7858L240.048 94.8201C239.926 95.3978 239.101 95.3978 238.979 94.8201L237.913 89.7858C237.869 89.5755 237.705 89.4108 237.495 89.3651L232.499 88.2766C231.925 88.1517 231.925 87.3337 232.499 87.2088L237.495 86.1203C237.705 86.0745 237.869 85.9099 237.913 85.6995L238.979 80.6653Z" fill="#A2C4D6"/>
<path d="M207.644 99.4504L78.4141 148.902L106.009 225.675L122.675 233.052L143.439 237.424L164.477 236.604L176.771 234.418L187.7 231.14L205.732 221.85L221.032 209.829L222.213 208.302C228.881 199.683 234.793 190.504 239.884 180.868L207.644 99.4504Z" fill="#E2F2FA"/>
<path d="M88.2486 127.044L74.5879 119.394L193.163 74.587L186.879 90.1603L191.524 104.641L93.4397 142.071L88.2486 127.044Z" fill="#A3C4D6"/>
<path d="M105.461 225.401C117.418 231.515 130.363 235.463 143.696 237.063L144.029 237.103H153.535C160.656 237.103 167.757 236.345 174.717 234.842L177.074 234.333C184.516 232.727 191.701 230.103 198.427 226.536C203.675 223.753 208.609 220.414 213.144 216.577L214.615 215.332C218.551 212.002 222.203 208.35 225.533 204.414C230.195 198.904 234.2 192.869 237.466 186.432L240.429 180.594" stroke="#AFCDDC" stroke-width="2"/>
<path d="M77.3652 147.762L106.008 225.93" stroke="#AFCDDC" stroke-width="2"/>
<path d="M208.781 99.4026L240.204 181.508" stroke="#AFCDDC" stroke-width="2"/>
<path d="M72.4473 119.621L194.844 73.6288" stroke="#AFCDDC" stroke-width="2"/>
<path d="M76.7324 149.17L207.06 98.9095L187.847 89.9868C187.296 89.7306 187.059 89.0732 187.322 88.5244L194.013 74.5239" stroke="#AFCDDC" stroke-width="2"/>
<path d="M73.5449 119.243L87.3216 126.63C87.8453 126.911 88.0487 127.558 87.7795 128.088L77.3646 148.582" stroke="#AFCDDC" stroke-width="2"/>
<path d="M72.9941 118.254L81.8711 140.444" stroke="#AFCDDC" stroke-width="2"/>
<path d="M87.9766 127.864L93.4409 143.164" stroke="#AFCDDC" stroke-width="2"/>
<path d="M187.426 89.6138L192.89 105.46" stroke="#AFCDDC" stroke-width="2"/>
<path d="M194.107 74.7796L201.95 96.3974" stroke="#AFCDDC" stroke-width="2"/>
<path d="M128.685 147.536C131.854 147.536 134.422 144.967 134.422 141.798C134.422 138.629 131.854 136.061 128.685 136.061C125.516 136.061 122.947 138.629 122.947 141.798C122.947 144.967 125.516 147.536 128.685 147.536Z" fill="#A0C6DB"/>
<path d="M120.489 116.389C122.752 116.389 124.587 114.554 124.587 112.291C124.587 110.028 122.752 108.193 120.489 108.193C118.225 108.193 116.391 110.028 116.391 112.291C116.391 114.554 118.225 116.389 120.489 116.389Z" fill="#E0F1F9"/>
<path d="M164.749 133.875C167.918 133.875 170.487 131.306 170.487 128.137C170.487 124.968 167.918 122.4 164.749 122.4C161.58 122.4 159.012 124.968 159.012 128.137C159.012 131.306 161.58 133.875 164.749 133.875Z" fill="#A0C6DB"/>
<path d="M145.626 107.099C147.889 107.099 149.724 105.264 149.724 103.001C149.724 100.738 147.889 98.9028 145.626 98.9028C143.362 98.9028 141.527 100.738 141.527 103.001C141.527 105.264 143.362 107.099 145.626 107.099Z" fill="#E0F1F9"/>
</g>
</g>
<defs>
<clipPath id="clip0_1969_957">
<rect width="306" height="245" fill="white"/>
</clipPath>
</defs>
</svg>
