<svg width="24" height="24" viewBox="0 0 24 24" fill="none" xmlns="http://www.w3.org/2000/svg">
<g id="Frame" clip-path="url(#clip0_2023_1208)">
<path id="Vector" d="M15.0039 2.00293C17.213 2.00293 19.0039 3.79379 19.0039 6.00293C19.0039 6.73196 18.8088 7.41544 18.4681 8.00404L23.0039 8.00293V10.0029H21.0039V20.0029C21.0039 20.5552 20.5562 21.0029 20.0039 21.0029H4.00391C3.45163 21.0029 3.00391 20.5552 3.00391 20.0029V10.0029H1.00391V8.00293L5.53968 8.00404C5.19895 7.41544 5.00391 6.73196 5.00391 6.00293C5.00391 3.79379 6.79477 2.00293 9.00391 2.00293C10.1991 2.00293 11.2719 2.52714 12.0048 3.35819C12.7359 2.52714 13.8087 2.00293 15.0039 2.00293ZM11.0039 10.0029H5.00391V19.0029H11.0039V10.0029ZM19.0039 10.0029H13.0039V19.0029H19.0039V10.0029ZM9.00391 4.00293C7.89934 4.00293 7.00391 4.89836 7.00391 6.00293C7.00391 7.05729 7.81979 7.92109 8.85465 7.99744L9.00391 8.00293H11.0039V6.00293C11.0039 5.00129 10.2676 4.17162 9.30669 4.0257L9.15318 4.00842L9.00391 4.00293ZM15.0039 4.00293C13.9495 4.00293 13.0857 4.81881 13.0094 5.85367L13.0039 6.00293V8.00293H15.0039C16.0582 8.00293 16.922 7.18705 16.9984 6.15219L17.0039 6.00293C17.0039 4.89836 16.1085 4.00293 15.0039 4.00293Z" fill="black"/>
</g>
<defs>
<clipPath id="clip0_2023_1208">
<rect width="24" height="24" fill="white"/>
</clipPath>
</defs>
</svg>
