<svg width="341" height="207" viewBox="0 0 341 207" fill="none" xmlns="http://www.w3.org/2000/svg">
<g clip-path="url(#clip0_1071_8535)">
<path d="M319.641 157.832C319.641 171.349 317.792 184.438 314.327 196.852C314.216 197.237 314.111 197.628 314 198.013C313.429 199.988 312.822 201.941 312.167 203.885C311.818 204.93 311.459 205.965 311.084 206.995H38.0719C37.6916 205.965 37.3378 204.93 36.9891 203.885C36.3395 201.952 35.7373 200.004 35.1669 198.04C35.056 197.654 34.945 197.263 34.8394 196.878C31.3745 184.459 29.5205 171.359 29.5205 157.832C29.5152 77.7436 94.4618 12.8198 174.578 12.8198C254.694 12.8198 319.641 77.7383 319.641 157.832Z" fill="#F2E2EC"/>
<path d="M79.6516 151.876C112.612 151.876 139.332 125.166 139.332 92.2167C139.332 59.2676 112.612 32.5571 79.6516 32.5571C46.691 32.5571 19.9712 59.2676 19.9712 92.2167C19.9712 125.166 46.691 151.876 79.6516 151.876Z" fill="#F2E2EC"/>
<path d="M332.075 155.709C335.508 134.041 320.72 113.694 299.045 110.262C277.369 106.83 257.015 121.613 253.582 143.281C250.149 164.949 264.937 185.296 286.612 188.728C308.288 192.16 328.642 177.377 332.075 155.709Z" fill="#F2E2EC"/>
<path d="M275.853 97.0164C294.964 77.912 294.964 46.9376 275.853 27.8332C256.742 8.72882 225.757 8.72883 206.646 27.8332C187.535 46.9376 187.535 77.912 206.646 97.0164C225.757 116.121 256.742 116.121 275.853 97.0164Z" fill="#F2E2EC"/>
<path d="M326.481 111.388C333.785 111.388 339.707 105.469 339.707 98.1671C339.707 90.8652 333.785 84.9458 326.481 84.9458C319.176 84.9458 313.255 90.8652 313.255 98.1671C313.255 105.469 319.176 111.388 326.481 111.388Z" fill="#F2E2EC"/>
<path d="M10.1043 128.564C15.6848 128.564 20.2086 124.042 20.2086 118.464C20.2086 112.885 15.6848 108.363 10.1043 108.363C4.52386 108.363 0 112.885 0 118.464C0 124.042 4.52386 128.564 10.1043 128.564Z" fill="#F2E2EC"/>
<path d="M222.114 12.8937C225.064 9.94504 225.064 5.16433 222.114 2.21567C219.164 -0.732984 214.382 -0.732988 211.432 2.21567C208.483 5.16432 208.483 9.94505 211.432 12.8937C214.382 15.8424 219.164 15.8424 222.114 12.8937Z" fill="#F2E2EC"/>
<path d="M317.675 153.053L317.971 152.689L318.008 152.726C318.172 152.879 318.383 152.953 318.589 152.953C318.827 152.953 319.059 152.858 319.228 152.673C319.551 152.319 319.524 151.77 319.17 151.448L318.552 150.883C318.515 150.836 318.473 150.793 318.426 150.756C318.41 150.746 318.394 150.735 318.378 150.725L317.786 150.186C317.433 149.864 316.883 149.89 316.561 150.244C316.239 150.598 316.265 151.147 316.619 151.469L316.688 151.527L316.408 151.876C315.832 151.443 315.198 151.079 314.512 150.815V149.648C314.512 148.761 313.788 148.042 312.901 148.042H310.312C309.425 148.042 308.702 148.766 308.702 149.648V150.815C308.015 151.084 307.381 151.443 306.805 151.876L306.52 151.527L306.589 151.469C306.943 151.147 306.969 150.598 306.647 150.244C306.325 149.89 305.775 149.864 305.421 150.186L304.83 150.725C304.83 150.725 304.798 150.746 304.782 150.756C304.735 150.793 304.693 150.841 304.656 150.883L304.038 151.448C303.684 151.77 303.657 152.319 303.979 152.673C304.148 152.858 304.386 152.953 304.619 152.953C304.825 152.953 305.036 152.879 305.2 152.726L305.237 152.689L305.532 153.053C304.302 154.479 303.573 156.327 303.573 158.291C303.573 162.716 307.175 166.317 311.601 166.317C316.028 166.317 319.63 162.716 319.63 158.291C319.63 156.327 318.896 154.479 317.67 153.053H317.675ZM310.434 149.764H312.779V150.35C312.394 150.292 312.003 150.265 311.607 150.265C311.21 150.265 310.82 150.292 310.434 150.35V149.764ZM311.607 164.59C308.136 164.59 305.311 161.765 305.311 158.296C305.311 155.53 307.164 153.048 309.816 152.261C310.93 151.929 312.166 151.918 313.292 152.235C313.328 152.245 313.365 152.251 313.402 152.261C316.054 153.048 317.908 155.53 317.908 158.296C317.908 161.765 315.082 164.59 311.612 164.59H311.607Z" fill="#C6A3BB" stroke="#C6A3BB" stroke-width="0.67" stroke-miterlimit="10"/>
<path d="M313.154 156.47L312.473 156.94V154.949C312.473 154.468 312.087 154.083 311.606 154.083C311.126 154.083 310.74 154.468 310.74 154.949V158.587C310.74 158.909 310.92 159.205 311.205 159.353C311.332 159.421 311.469 159.453 311.606 159.453C311.781 159.453 311.95 159.4 312.098 159.3L314.137 157.895C314.533 157.626 314.628 157.082 314.358 156.691C314.089 156.295 313.545 156.2 313.154 156.47Z" fill="#C6A3BB" stroke="#C6A3BB" stroke-width="0.67" stroke-miterlimit="10"/>
<path d="M179.865 94.445C179.865 95.5961 178.93 96.5306 177.779 96.5306C176.627 96.5306 175.692 95.5961 175.692 94.445C175.692 93.2939 176.627 92.3594 177.779 92.3594C178.93 92.3594 179.865 93.2939 179.865 94.445Z" fill="#C6A3BB" stroke="#C6A3BB" stroke-miterlimit="10"/>
<path d="M182.712 93.3466C182.395 93.3466 182.083 93.1935 181.893 92.9136C180.969 91.5461 179.432 90.7277 177.778 90.7277C176.125 90.7277 174.588 91.5461 173.664 92.9136C173.358 93.3624 172.745 93.4839 172.296 93.1776C171.847 92.8714 171.725 92.2589 172.032 91.8101C173.326 89.8987 175.476 88.7529 177.778 88.7529C180.081 88.7529 182.236 89.8934 183.525 91.8101C183.832 92.2589 183.71 92.8767 183.261 93.1776C183.092 93.2938 182.902 93.3466 182.712 93.3466Z" fill="#C6A3BB" stroke="#C6A3BB" stroke-miterlimit="10"/>
<path d="M185.649 89.9251C185.332 89.9251 185.02 89.772 184.83 89.4922C183.245 87.1425 180.605 85.7433 177.779 85.7433C174.953 85.7433 172.312 87.1478 170.727 89.4922C170.421 89.941 169.808 90.0624 169.359 89.7562C168.91 89.4499 168.789 88.8374 169.095 88.3886C171.05 85.4951 174.298 83.7686 177.784 83.7686C181.27 83.7686 184.518 85.4951 186.473 88.3886C186.779 88.8374 186.658 89.4552 186.209 89.7562C186.04 89.8723 185.849 89.9251 185.659 89.9251H185.649Z" fill="#C6A3BB" stroke="#C6A3BB" stroke-miterlimit="10"/>
<path d="M280.686 65.8214C280.686 62.2098 277.76 59.2847 274.147 59.2847C270.535 59.2847 267.608 62.2098 267.608 65.8214C267.608 67.3421 268.137 68.7413 269.008 69.8501H268.998L274.142 76.3446L279.292 69.8501H279.281C280.153 68.736 280.681 67.3421 280.681 65.8214H280.686ZM274.147 68.4456C272.6 68.4456 271.343 67.1889 271.343 65.6419C271.343 64.0948 272.6 62.8382 274.147 62.8382C275.695 62.8382 276.952 64.0948 276.952 65.6419C276.952 67.1889 275.695 68.4456 274.147 68.4456Z" stroke="#C6A3BB" stroke-width="4" stroke-linecap="round" stroke-linejoin="round"/>
<path d="M156.926 28.4753H155.59V27.1394C155.59 26.2893 154.898 25.5977 154.047 25.5977C153.197 25.5977 152.505 26.2893 152.505 27.1394V28.4753H151.169C150.318 28.4753 149.626 29.167 149.626 30.0171C149.626 30.8672 150.318 31.5589 151.169 31.5589H152.505V32.8947C152.505 33.7448 153.197 34.4365 154.047 34.4365C154.898 34.4365 155.59 33.7448 155.59 32.8947V31.5589H156.926C157.776 31.5589 158.468 30.8672 158.468 30.0171C158.468 29.167 157.776 28.4753 156.926 28.4753Z" fill="white"/>
<path d="M39.5457 75.299H38.2094V73.9632C38.2094 73.1131 37.5175 72.4214 36.6671 72.4214C35.8167 72.4214 35.1247 73.1131 35.1247 73.9632V75.299H33.7884C32.938 75.299 32.2461 75.9907 32.2461 76.8408C32.2461 77.6909 32.938 78.3826 33.7884 78.3826H35.1247V79.7184C35.1247 80.5685 35.8167 81.2602 36.6671 81.2602C37.5175 81.2602 38.2094 80.5685 38.2094 79.7184V78.3826H39.5457C40.3961 78.3826 41.088 77.6909 41.088 76.8408C41.088 75.9907 40.3961 75.299 39.5457 75.299Z" fill="white"/>
<path d="M219.004 187.3H217.668V185.964C217.668 185.114 216.976 184.422 216.126 184.422C215.275 184.422 214.583 185.114 214.583 185.964V187.3H213.247C212.397 187.3 211.705 187.992 211.705 188.842C211.705 189.692 212.397 190.384 213.247 190.384H214.583V191.719C214.583 192.57 215.275 193.261 216.126 193.261C216.976 193.261 217.668 192.57 217.668 191.719V190.384H219.004C219.855 190.384 220.547 189.692 220.547 188.842C220.547 187.992 219.855 187.3 219.004 187.3Z" fill="white"/>
<path d="M299.585 108.062H298.249V106.726C298.249 105.876 297.557 105.184 296.707 105.184C295.856 105.184 295.164 105.876 295.164 106.726V108.062H293.828C292.978 108.062 292.286 108.753 292.286 109.604C292.286 110.454 292.978 111.145 293.828 111.145H295.164V112.481C295.164 113.331 295.856 114.023 296.707 114.023C297.557 114.023 298.249 113.331 298.249 112.481V111.145H299.585C300.436 111.145 301.128 110.454 301.128 109.604C301.128 108.753 300.436 108.062 299.585 108.062Z" fill="white"/>
<path d="M257.118 23.5119H255.782V22.1761C255.782 21.326 255.09 20.6343 254.24 20.6343C253.389 20.6343 252.698 21.326 252.698 22.1761V23.5119H251.361C250.511 23.5119 249.819 24.2036 249.819 25.0537C249.819 25.9038 250.511 26.5955 251.361 26.5955H252.698V27.9313C252.698 28.7814 253.389 29.4731 254.24 29.4731C255.09 29.4731 255.782 28.7814 255.782 27.9313V26.5955H257.118C257.969 26.5955 258.661 25.9038 258.661 25.0537C258.661 24.2036 257.969 23.5119 257.118 23.5119Z" fill="white"/>
<path d="M212.354 72.1784H211.018V70.8426C211.018 69.9925 210.326 69.3008 209.476 69.3008C208.625 69.3008 207.933 69.9925 207.933 70.8426V72.1784H206.597C205.747 72.1784 205.055 72.8701 205.055 73.7202C205.055 74.5703 205.747 75.262 206.597 75.262H207.933V76.5978C207.933 77.4479 208.625 78.1396 209.476 78.1396C210.326 78.1396 211.018 77.4479 211.018 76.5978V75.262H212.354C213.205 75.262 213.897 74.5703 213.897 73.7202C213.897 72.8701 213.205 72.1784 212.354 72.1784Z" fill="white"/>
<path d="M32.4785 83.124H31.5542V82.2C31.5542 81.6139 31.0788 81.1387 30.4925 81.1387C29.9062 81.1387 29.4308 81.6139 29.4308 82.2V83.124H28.5065C27.9202 83.124 27.4448 83.5992 27.4448 84.1853C27.4448 84.7714 27.9202 85.2466 28.5065 85.2466H29.4308V86.1706C29.4308 86.7567 29.9062 87.2319 30.4925 87.2319C31.0788 87.2319 31.5542 86.7567 31.5542 86.1706V85.2466H32.4785C33.0648 85.2466 33.5402 84.7714 33.5402 84.1853C33.5402 83.5992 33.0648 83.124 32.4785 83.124Z" fill="white"/>
<path d="M292.302 101.008H291.377V100.084C291.377 99.4977 290.902 99.0225 290.316 99.0225C289.729 99.0225 289.254 99.4977 289.254 100.084V101.008H288.33C287.743 101.008 287.268 101.483 287.268 102.069C287.268 102.655 287.743 103.13 288.33 103.13H289.254V104.054C289.254 104.64 289.729 105.116 290.316 105.116C290.902 105.116 291.377 104.64 291.377 104.054V103.13H292.302C292.888 103.13 293.363 102.655 293.363 102.069C293.363 101.483 292.888 101.008 292.302 101.008Z" fill="white"/>
<path d="M218.502 68.5507H217.578V67.6267C217.578 67.0406 217.103 66.5654 216.516 66.5654C215.93 66.5654 215.455 67.0406 215.455 67.6267V68.5507H214.53C213.944 68.5507 213.469 69.0259 213.469 69.612C213.469 70.1981 213.944 70.6733 214.53 70.6733H215.455V71.5973C215.455 72.1834 215.93 72.6586 216.516 72.6586C217.103 72.6586 217.578 72.1834 217.578 71.5973V70.6733H218.502C219.089 70.6733 219.564 70.1981 219.564 69.612C219.564 69.0259 219.089 68.5507 218.502 68.5507Z" fill="white"/>
<path d="M307.831 173.133H306.906V172.209C306.906 171.623 306.431 171.148 305.845 171.148C305.258 171.148 304.783 171.623 304.783 172.209V173.133H303.859C303.272 173.133 302.797 173.608 302.797 174.195C302.797 174.781 303.272 175.256 303.859 175.256H304.783V176.18C304.783 176.766 305.258 177.241 305.845 177.241C306.431 177.241 306.906 176.766 306.906 176.18V175.256H307.831C308.417 175.256 308.892 174.781 308.892 174.195C308.892 173.608 308.417 173.133 307.831 173.133Z" fill="white"/>
<path d="M44.062 155.952H43.1377V155.028C43.1377 154.442 42.6623 153.967 42.076 153.967C41.4897 153.967 41.0143 154.442 41.0143 155.028V155.952H40.09C39.5037 155.952 39.0283 156.427 39.0283 157.013C39.0283 157.599 39.5037 158.075 40.09 158.075H41.0143V158.999C41.0143 159.585 41.4897 160.06 42.076 160.06C42.6623 160.06 43.1377 159.585 43.1377 158.999V158.075H44.062C44.6483 158.075 45.1237 157.599 45.1237 157.013C45.1237 156.427 44.6483 155.952 44.062 155.952Z" fill="white"/>
<path d="M262.392 92.9841C265.708 91.5988 267.273 87.7887 265.888 84.4738C264.502 81.159 260.69 79.5948 257.374 80.98C254.058 82.3653 252.493 86.1755 253.879 89.4903C255.265 92.8051 259.076 94.3694 262.392 92.9841Z" fill="#C6A3BB"/>
<path d="M260.578 91.0654C263.224 91.0654 265.369 88.9212 265.369 86.2763C265.369 83.6314 263.224 81.4873 260.578 81.4873C257.932 81.4873 255.788 83.6314 255.788 86.2763C255.788 88.9212 257.932 91.0654 260.578 91.0654Z" fill="#D0B3C6"/>
<path d="M264.672 85.4212C264.672 87.2903 263.156 88.8057 261.286 88.8057C259.416 88.8057 257.9 87.2903 257.9 85.4212C257.9 83.552 259.416 82.0366 261.286 82.0366C263.156 82.0366 264.672 83.552 264.672 85.4212Z" fill="#DBC3D4"/>
<path d="M336.497 126.307C339.813 124.922 341.378 121.112 339.992 117.797C338.607 114.482 334.795 112.918 331.479 114.303C328.163 115.689 326.598 119.499 327.984 122.814C329.37 126.128 333.181 127.693 336.497 126.307Z" fill="#C6A3BB"/>
<path d="M334.684 124.393C337.33 124.393 339.474 122.249 339.474 119.604C339.474 116.959 337.33 114.815 334.684 114.815C332.038 114.815 329.893 116.959 329.893 119.604C329.893 122.249 332.038 124.393 334.684 124.393Z" fill="#D0B3C6"/>
<path d="M338.777 118.749C338.777 120.618 337.261 122.133 335.392 122.133C333.522 122.133 332.006 120.618 332.006 118.749C332.006 116.88 333.522 115.364 335.392 115.364C337.261 115.364 338.777 116.88 338.777 118.749Z" fill="#DBC3D4"/>
<path d="M198.5 30.049C201.816 28.6638 203.381 24.8536 201.995 21.5388C200.61 18.2239 196.798 16.6597 193.482 18.045C190.166 19.4302 188.601 23.2404 189.987 26.5553C191.373 29.8701 195.184 31.4343 198.5 30.049Z" fill="#C6A3BB"/>
<path d="M196.688 28.1376C199.334 28.1376 201.479 25.9935 201.479 23.3486C201.479 20.7037 199.334 18.5596 196.688 18.5596C194.042 18.5596 191.897 20.7037 191.897 23.3486C191.897 25.9935 194.042 28.1376 196.688 28.1376Z" fill="#D0B3C6"/>
<path d="M200.782 22.4876C200.782 24.3567 199.266 25.8721 197.396 25.8721C195.526 25.8721 194.01 24.3567 194.01 22.4876C194.01 20.6184 195.526 19.103 197.396 19.103C199.266 19.103 200.782 20.6184 200.782 22.4876Z" fill="#DBC3D4"/>
<path d="M23.3162 141.073C26.6365 139.699 28.2133 135.893 26.838 132.574C25.4626 129.255 21.656 127.679 18.3357 129.054C15.0154 130.428 13.4387 134.234 14.814 137.553C16.1893 140.872 19.9959 142.448 23.3162 141.073Z" fill="#C6A3BB"/>
<path d="M21.529 139.145C24.1748 139.145 26.3197 137.001 26.3197 134.356C26.3197 131.712 24.1748 129.567 21.529 129.567C18.8832 129.567 16.7383 131.712 16.7383 134.356C16.7383 137.001 18.8832 139.145 21.529 139.145Z" fill="#D0B3C6"/>
<path d="M25.6171 133.501C25.6171 135.37 24.1012 136.886 22.2314 136.886C20.3616 136.886 18.8457 135.37 18.8457 133.501C18.8457 131.632 20.3616 130.117 22.2314 130.117C24.1012 130.117 25.6171 131.632 25.6171 133.501Z" fill="#DBC3D4"/>
<path d="M255.745 77.8915C255.745 79.8821 254.134 81.4925 252.143 81.4925C250.152 81.4925 248.541 79.8821 248.541 77.8915C248.541 75.901 250.152 74.2905 252.143 74.2905C254.134 74.2905 255.745 75.901 255.745 77.8915Z" fill="#C6A3BB"/>
<path d="M255.18 77.5007C255.18 78.9633 253.992 80.1513 252.528 80.1513C251.065 80.1513 249.877 78.9633 249.877 77.5007C249.877 76.0381 251.065 74.8501 252.528 74.8501C253.992 74.8501 255.18 76.0381 255.18 77.5007Z" fill="#D0B3C6"/>
<path d="M254.794 77.0258C254.794 78.0607 253.954 78.9002 252.919 78.9002C251.884 78.9002 251.044 78.0607 251.044 77.0258C251.044 75.9909 251.884 75.1514 252.919 75.1514C253.954 75.1514 254.794 75.9909 254.794 77.0258Z" fill="#DBC3D4"/>
<path d="M117.66 40.5299C120.35 40.5299 122.53 38.3503 122.53 35.6617C122.53 32.973 120.35 30.7935 117.66 30.7935C114.97 30.7935 112.79 32.973 112.79 35.6617C112.79 38.3503 114.97 40.5299 117.66 40.5299Z" fill="#C6A3BB"/>
<path d="M121.764 35.1335C121.764 37.1135 120.158 38.7187 118.178 38.7187C116.197 38.7187 114.591 37.1135 114.591 35.1335C114.591 33.1535 116.197 31.5483 118.178 31.5483C120.158 31.5483 121.764 33.1535 121.764 35.1335Z" fill="#D0B3C6"/>
<path d="M121.246 34.4895C121.246 35.8887 120.111 37.0239 118.711 37.0239C117.311 37.0239 116.176 35.8887 116.176 34.4895C116.176 33.0903 117.311 31.9551 118.711 31.9551C120.111 31.9551 121.246 33.0903 121.246 34.4895Z" fill="#DBC3D4"/>
<path d="M323.74 132.318C323.74 134.309 322.129 135.919 320.137 135.919C318.146 135.919 316.535 134.309 316.535 132.318C316.535 130.328 318.146 128.717 320.137 128.717C322.129 128.717 323.74 130.328 323.74 132.318Z" fill="#C6A3BB"/>
<path d="M323.175 131.927C323.175 133.39 321.986 134.578 320.523 134.578C319.06 134.578 317.872 133.39 317.872 131.927C317.872 130.465 319.06 129.277 320.523 129.277C321.986 129.277 323.175 130.465 323.175 131.927Z" fill="#D0B3C6"/>
<path d="M322.789 131.453C322.789 132.487 321.949 133.327 320.914 133.327C319.878 133.327 319.039 132.487 319.039 131.453C319.039 130.418 319.878 129.578 320.914 129.578C321.949 129.578 322.789 130.418 322.789 131.453Z" fill="#DBC3D4"/>
<path d="M161.616 113.722C161.616 115.713 160.005 117.323 158.014 117.323C156.023 117.323 154.412 115.713 154.412 113.722C154.412 111.732 156.023 110.121 158.014 110.121C160.005 110.121 161.616 111.732 161.616 113.722Z" fill="#C6A3BB"/>
<path d="M161.056 113.331C161.056 114.794 159.868 115.982 158.405 115.982C156.942 115.982 155.753 114.794 155.753 113.331C155.753 111.869 156.942 110.681 158.405 110.681C159.868 110.681 161.056 111.869 161.056 113.331Z" fill="#D0B3C6"/>
<path d="M160.671 112.856C160.671 113.891 159.831 114.731 158.796 114.731C157.76 114.731 156.92 113.891 156.92 112.856C156.92 111.821 157.76 110.982 158.796 110.982C159.831 110.982 160.671 111.821 160.671 112.856Z" fill="#DBC3D4"/>
<path d="M42.3344 125.111C42.3344 127.102 40.7234 128.712 38.7322 128.712C36.7409 128.712 35.1299 127.102 35.1299 125.111C35.1299 123.121 36.7409 121.51 38.7322 121.51C40.7234 121.51 42.3344 123.121 42.3344 125.111Z" fill="#C6A3BB"/>
<path d="M41.7694 124.72C41.7694 126.183 40.5809 127.371 39.1178 127.371C37.6547 127.371 36.4663 126.183 36.4663 124.72C36.4663 123.258 37.6547 122.07 39.1178 122.07C40.5809 122.07 41.7694 123.258 41.7694 124.72Z" fill="#D0B3C6"/>
<path d="M41.3835 124.246C41.3835 125.28 40.5436 126.12 39.5084 126.12C38.4731 126.12 37.6333 125.28 37.6333 124.246C37.6333 123.211 38.4731 122.371 39.5084 122.371C40.5436 122.371 41.3835 123.211 41.3835 124.246Z" fill="#DBC3D4"/>
<path d="M247.59 187.833C247.59 189.824 245.979 191.434 243.988 191.434C241.996 191.434 240.385 189.824 240.385 187.833C240.385 185.843 241.996 184.232 243.988 184.232C245.979 184.232 247.59 185.843 247.59 187.833Z" fill="#C6A3BB"/>
<path d="M247.03 187.443C247.03 188.905 245.842 190.093 244.379 190.093C242.915 190.093 241.727 188.905 241.727 187.443C241.727 185.98 242.915 184.792 244.379 184.792C245.842 184.792 247.03 185.98 247.03 187.443Z" fill="#D0B3C6"/>
<path d="M246.639 186.968C246.639 188.003 245.799 188.842 244.764 188.842C243.728 188.842 242.889 188.003 242.889 186.968C242.889 185.933 243.728 185.093 244.764 185.093C245.799 185.093 246.639 185.933 246.639 186.968Z" fill="#DBC3D4"/>
<path d="M212.048 26.2524C212.048 28.243 210.437 29.8534 208.446 29.8534C206.454 29.8534 204.843 28.243 204.843 26.2524C204.843 24.2618 206.454 22.6514 208.446 22.6514C210.437 22.6514 212.048 24.2618 212.048 26.2524Z" fill="#C6A3BB"/>
<path d="M211.483 25.8615C211.483 27.3241 210.294 28.5121 208.831 28.5121C207.368 28.5121 206.18 27.3241 206.18 25.8615C206.18 24.399 207.368 23.2109 208.831 23.2109C210.294 23.2109 211.483 24.399 211.483 25.8615Z" fill="#D0B3C6"/>
<path d="M211.097 25.3866C211.097 26.4215 210.257 27.2611 209.222 27.2611C208.186 27.2611 207.347 26.4215 207.347 25.3866C207.347 24.3517 208.186 23.5122 209.222 23.5122C210.257 23.5122 211.097 24.3517 211.097 25.3866Z" fill="#DBC3D4"/>
<path d="M318.125 201.831C318.125 203.256 317.544 204.55 316.609 205.485C315.674 206.419 314.38 207 312.954 207H36.3077C33.4502 207 31.1367 204.687 31.1367 201.831C31.1367 201.055 31.311 200.315 31.6227 199.655C31.8815 199.101 32.2301 198.605 32.6526 198.177C33.2548 197.57 33.9995 197.121 34.8341 196.873C35.2989 196.73 35.7901 196.662 36.3077 196.662H312.954C313.429 196.662 313.894 196.725 314.327 196.852C315.801 197.253 317.01 198.293 317.639 199.655C317.95 200.315 318.125 201.055 318.125 201.831Z" fill="#D0B3C6"/>
<path d="M316.625 199.439C317.417 200.236 317.417 201.562 316.625 202.359L316.614 202.369C315.679 203.304 314.385 203.885 312.959 203.885H36.3076C34.8709 203.885 33.5716 203.304 32.6367 202.359C31.8444 201.562 31.8444 200.236 32.6367 199.439C32.6367 199.439 32.6473 199.428 32.6525 199.423C33.5874 198.483 34.8815 197.908 36.3076 197.908H312.954C314.39 197.908 315.69 198.494 316.625 199.439Z" fill="#DBC3D4"/>
<path d="M251.06 38.2437H171.9C168.079 38.2437 164.981 41.3405 164.981 45.1605V54.3743C164.981 58.1944 168.079 61.2912 171.9 61.2912H251.06C254.882 61.2912 257.98 58.1944 257.98 54.3743V45.1605C257.98 41.3405 254.882 38.2437 251.06 38.2437Z" fill="#F9F4F7"/>
<path d="M250.458 39.7749H172.37C169.713 39.7749 167.559 41.9285 167.559 44.585V51.5336C167.559 54.1902 169.713 56.3438 172.37 56.3438H250.458C253.116 56.3438 255.27 54.1902 255.27 51.5336V44.585C255.27 41.9285 253.116 39.7749 250.458 39.7749Z" fill="white"/>
<path d="M177.89 43.7351L179.242 46.4754C179.385 46.7711 179.67 46.9718 179.992 47.0193L183.019 47.4575C183.838 47.5737 184.16 48.5769 183.568 49.1524L181.381 51.2856C181.149 51.5126 181.038 51.8453 181.096 52.1673L181.614 55.177C181.751 55.9901 180.901 56.6079 180.172 56.2277L177.468 54.8074C177.177 54.6543 176.834 54.6543 176.543 54.8074L173.839 56.2277C173.11 56.6132 172.254 55.9901 172.397 55.177L172.915 52.1673C172.967 51.8453 172.862 51.5126 172.629 51.2856L170.443 49.1524C169.851 48.5769 170.179 47.5737 170.992 47.4575L174.018 47.0193C174.341 46.9718 174.621 46.7711 174.768 46.4754L176.121 43.7351C176.485 42.9959 177.542 42.9959 177.906 43.7351H177.89Z" fill="#FDC24F"/>
<path d="M177.663 45.1448L178.666 47.1776C178.772 47.3941 178.983 47.5472 179.221 47.5842L181.466 47.9115C182.073 48.0013 182.316 48.7458 181.878 49.1734L180.251 50.7575C180.077 50.9264 179.997 51.1693 180.04 51.4122L180.425 53.651C180.531 54.2529 179.897 54.7175 179.353 54.4324L177.346 53.3764C177.129 53.2655 176.876 53.2655 176.659 53.3764L174.652 54.4324C174.108 54.7175 173.474 54.2582 173.58 53.651L173.965 51.4122C174.008 51.1746 173.928 50.9264 173.754 50.7575L172.127 49.1734C171.689 48.7458 171.932 48.0013 172.539 47.9115L174.784 47.5842C175.027 47.5472 175.233 47.3993 175.339 47.1776L176.342 45.1448C176.612 44.5956 177.399 44.5956 177.668 45.1448H177.663Z" fill="#FDD165"/>
<path d="M195.136 43.7351L196.488 46.4754C196.63 46.7711 196.916 46.9718 197.238 47.0193L200.264 47.4575C201.083 47.5737 201.405 48.5769 200.814 49.1524L198.627 51.2856C198.395 51.5126 198.284 51.8453 198.342 52.1673L198.859 55.177C198.997 55.9901 198.146 56.6079 197.418 56.2277L194.713 54.8074C194.423 54.6543 194.079 54.6543 193.789 54.8074L191.084 56.2277C190.356 56.6132 189.5 55.9901 189.643 55.177L190.16 52.1673C190.213 51.8453 190.107 51.5126 189.875 51.2856L187.688 49.1524C187.097 48.5769 187.424 47.5737 188.238 47.4575L191.264 47.0193C191.586 46.9718 191.866 46.7711 192.014 46.4754L193.366 43.7351C193.731 42.9959 194.787 42.9959 195.152 43.7351H195.136Z" fill="#FDC24F"/>
<path d="M194.903 45.1448L195.907 47.1776C196.013 47.3941 196.224 47.5472 196.462 47.5842L198.706 47.9115C199.314 48.0013 199.557 48.7458 199.118 49.1734L197.492 50.7575C197.317 50.9264 197.238 51.1693 197.28 51.4122L197.666 53.651C197.772 54.2529 197.138 54.7175 196.594 54.4324L194.587 53.3764C194.37 53.2655 194.116 53.2655 193.9 53.3764L191.893 54.4324C191.349 54.7175 190.715 54.2582 190.821 53.651L191.206 51.4122C191.248 51.1746 191.169 50.9264 190.995 50.7575L189.368 49.1734C188.93 48.7458 189.173 48.0013 189.78 47.9115L192.025 47.5842C192.268 47.5472 192.474 47.3993 192.579 47.1776L193.583 45.1448C193.852 44.5956 194.639 44.5956 194.909 45.1448H194.903Z" fill="#FDD165"/>
<path d="M212.302 43.7351L213.654 46.4754C213.797 46.7711 214.082 46.9718 214.404 47.0193L217.43 47.4575C218.249 47.5737 218.571 48.5769 217.98 49.1524L215.793 51.2856C215.561 51.5126 215.45 51.8453 215.508 52.1673L216.025 55.177C216.163 55.9901 215.312 56.6079 214.584 56.2277L211.879 54.8074C211.589 54.6543 211.245 54.6543 210.955 54.8074L208.25 56.2277C207.522 56.6132 206.666 55.9901 206.809 55.177L207.326 52.1673C207.379 51.8453 207.273 51.5126 207.041 51.2856L204.854 49.1524C204.263 48.5769 204.59 47.5737 205.404 47.4575L208.43 47.0193C208.752 46.9718 209.032 46.7711 209.18 46.4754L210.532 43.7351C210.897 42.9959 211.953 42.9959 212.318 43.7351H212.302Z" fill="#FDC24F"/>
<path d="M212.074 45.1448L213.078 47.1776C213.184 47.3941 213.395 47.5472 213.633 47.5842L215.877 47.9115C216.485 48.0013 216.728 48.7458 216.289 49.1734L214.663 50.7575C214.488 50.9264 214.409 51.1693 214.451 51.4122L214.837 53.651C214.942 54.2529 214.309 54.7175 213.765 54.4324L211.757 53.3764C211.541 53.2655 211.287 53.2655 211.071 53.3764L209.064 54.4324C208.52 54.7175 207.886 54.2582 207.991 53.651L208.377 51.4122C208.419 51.1746 208.34 50.9264 208.166 50.7575L206.539 49.1734C206.101 48.7458 206.344 48.0013 206.951 47.9115L209.196 47.5842C209.439 47.5472 209.645 47.3993 209.75 47.1776L210.754 45.1448C211.023 44.5956 211.81 44.5956 212.08 45.1448H212.074Z" fill="#FDD165"/>
<path d="M229.616 43.7351L230.968 46.4754C231.111 46.7711 231.396 46.9718 231.718 47.0193L234.745 47.4575C235.564 47.5737 235.886 48.5769 235.294 49.1524L233.108 51.2856C232.875 51.5126 232.764 51.8453 232.822 52.1673L233.34 55.177C233.477 55.9901 232.627 56.6079 231.898 56.2277L229.194 54.8074C228.903 54.6543 228.56 54.6543 228.269 54.8074L225.565 56.2277C224.836 56.6132 223.98 55.9901 224.123 55.177L224.641 52.1673C224.693 51.8453 224.588 51.5126 224.355 51.2856L222.169 49.1524C221.577 48.5769 221.905 47.5737 222.718 47.4575L225.745 47.0193C226.067 46.9718 226.347 46.7711 226.495 46.4754L227.847 43.7351C228.211 42.9959 229.268 42.9959 229.632 43.7351H229.616Z" fill="#FDC24F"/>
<path d="M229.389 45.1448L230.392 47.1776C230.498 47.3941 230.709 47.5472 230.947 47.5842L233.192 47.9115C233.799 48.0013 234.042 48.7458 233.604 49.1734L231.977 50.7575C231.803 50.9264 231.723 51.1693 231.766 51.4122L232.151 53.651C232.257 54.2529 231.623 54.7175 231.079 54.4324L229.072 53.3764C228.855 53.2655 228.602 53.2655 228.385 53.3764L226.378 54.4324C225.834 54.7175 225.2 54.2582 225.306 53.651L225.692 51.4122C225.734 51.1746 225.655 50.9264 225.48 50.7575L223.853 49.1734C223.415 48.7458 223.658 48.0013 224.265 47.9115L226.51 47.5842C226.753 47.5472 226.959 47.3993 227.065 47.1776L228.068 45.1448C228.338 44.5956 229.125 44.5956 229.394 45.1448H229.389Z" fill="#FDD165"/>
<path d="M246.861 43.7351L248.213 46.4754C248.356 46.7711 248.641 46.9718 248.964 47.0193L251.99 47.4575C252.809 47.5737 253.131 48.5769 252.539 49.1524L250.353 51.2856C250.12 51.5126 250.009 51.8453 250.067 52.1673L250.585 55.177C250.722 55.9901 249.872 56.6079 249.143 56.2277L246.439 54.8074C246.148 54.6543 245.805 54.6543 245.514 54.8074L242.81 56.2277C242.081 56.6132 241.225 55.9901 241.368 55.177L241.886 52.1673C241.939 51.8453 241.833 51.5126 241.601 51.2856L239.414 49.1524C238.822 48.5769 239.15 47.5737 239.963 47.4575L242.99 47.0193C243.312 46.9718 243.592 46.7711 243.74 46.4754L245.092 43.7351C245.456 42.9959 246.513 42.9959 246.877 43.7351H246.861Z" fill="#FDC24F"/>
<path d="M246.629 45.1448L247.633 47.1776C247.738 47.3941 247.95 47.5472 248.187 47.5842L250.432 47.9115C251.039 48.0013 251.282 48.7458 250.844 49.1734L249.217 50.7575C249.043 50.9264 248.964 51.1693 249.006 51.4122L249.392 53.651C249.497 54.2529 248.863 54.7175 248.319 54.4324L246.312 53.3764C246.096 53.2655 245.842 53.2655 245.626 53.3764L243.618 54.4324C243.074 54.7175 242.441 54.2582 242.546 53.651L242.932 51.4122C242.974 51.1746 242.895 50.9264 242.72 50.7575L241.094 49.1734C240.655 48.7458 240.898 48.0013 241.506 47.9115L243.75 47.5842C243.993 47.5472 244.199 47.3993 244.305 47.1776L245.309 45.1448C245.578 44.5956 246.365 44.5956 246.634 45.1448H246.629Z" fill="#FDD165"/>
<path d="M187.366 61.291H198.812L194.084 68.7518C193.619 69.4857 192.552 69.4857 192.088 68.7518L187.36 61.291H187.366Z" fill="#F9F4F7"/>
<path d="M280.148 196.662H274.179C271.031 196.662 268.475 194.106 268.475 190.959V177.215H285.853V190.959C285.853 194.106 283.296 196.662 280.148 196.662Z" fill="#260055"/>
<path d="M272.563 177.215H284.057V190.299C284.057 192.517 282.256 194.317 280.037 194.317H276.578C274.359 194.317 272.558 192.517 272.558 190.299V177.215H272.563Z" fill="#361A6A"/>
<path d="M283.386 189.518C282.419 189.518 281.632 188.731 281.632 187.765V183.826C281.632 182.854 282.419 182.073 283.386 182.073C284.358 182.073 285.14 182.859 285.14 183.826V187.765C285.14 188.731 284.353 189.518 283.386 189.518Z" fill="#391F77"/>
<path d="M164.236 177.215H181.614V190.959C181.614 194.106 179.057 196.662 175.909 196.662H169.946C166.798 196.662 164.242 194.106 164.242 190.959V177.215H164.236Z" fill="#260055"/>
<path d="M173.512 194.317H170.052C167.834 194.317 166.032 192.517 166.032 190.299V177.215H177.526V190.299C177.526 192.517 175.725 194.317 173.506 194.317H173.512Z" fill="#361A6A"/>
<path d="M166.703 189.518C167.675 189.518 168.456 188.731 168.456 187.765V183.826C168.456 182.854 167.669 182.073 166.703 182.073C165.736 182.073 164.949 182.859 164.949 183.826V187.765C164.949 188.731 165.736 189.518 166.703 189.518Z" fill="#391F77"/>
<path d="M296.971 178.398C296.971 179.649 296.464 180.774 295.65 181.587C294.832 182.405 293.707 182.907 292.46 182.907H157.639C155.146 182.907 153.123 180.885 153.123 178.392C153.123 177.817 153.234 177.262 153.429 176.756C153.657 176.169 154.005 175.636 154.444 175.198C155.262 174.38 156.393 173.878 157.634 173.878H292.455C294.372 173.878 296.01 175.071 296.665 176.756C296.86 177.262 296.971 177.812 296.971 178.392V178.398Z" fill="#A69AB7"/>
<path d="M295.651 175.752C296.496 176.597 296.501 178.007 295.661 178.857C295.661 178.857 295.651 178.867 295.645 178.873C294.827 179.691 293.702 180.193 292.455 180.193H157.634C156.387 180.193 155.257 179.686 154.438 178.867C153.599 178.023 153.588 176.613 154.428 175.768C154.428 175.768 154.438 175.757 154.444 175.752C155.262 174.934 156.393 174.432 157.634 174.432H292.455C293.702 174.432 294.832 174.939 295.651 175.757V175.752Z" fill="#BAADC9"/>
<path d="M287.633 176.682H284.036C283.381 176.682 282.853 176.154 282.853 175.499C282.853 174.844 283.381 174.316 284.036 174.316H287.633C288.288 174.316 288.816 174.844 288.816 175.499C288.816 176.154 288.288 176.682 287.633 176.682Z" fill="#CCC0D8"/>
<path d="M291.515 176.682H290.633C289.978 176.682 289.45 176.154 289.45 175.499C289.45 174.844 289.978 174.316 290.633 174.316H291.515C292.17 174.316 292.698 174.844 292.698 175.499C292.698 176.154 292.17 176.682 291.515 176.682Z" fill="#CCC0D8"/>
<path d="M250.184 172.87H199.91C196.818 172.87 194.312 175.375 194.312 178.467C194.312 181.558 196.818 184.063 199.91 184.063H250.184C253.276 184.063 255.783 181.558 255.783 178.467C255.783 175.375 253.276 172.87 250.184 172.87Z" fill="#CCC0D8"/>
<path d="M248.737 181.693H201.353C199.198 181.693 197.449 179.945 197.449 177.791C197.449 175.636 199.198 173.889 201.353 173.889H248.737C250.892 173.889 252.64 175.636 252.64 177.791C252.64 179.945 250.892 181.693 248.737 181.693Z" fill="#DAD1E5"/>
<path d="M249.217 177.696H243.159C242.108 177.696 241.252 176.84 241.252 175.789C241.252 174.739 242.108 173.883 243.159 173.883H249.217C250.268 173.883 251.124 174.739 251.124 175.789C251.124 176.84 250.268 177.696 249.217 177.696Z" fill="#E9E4F2"/>
<path d="M175.128 141.522V145.287H156.926C152.981 145.287 149.774 142.087 149.774 138.132V136.564C149.774 135.197 150.16 133.914 150.831 132.826C152.088 130.777 154.343 129.41 156.921 129.41H163C169.693 129.41 175.117 134.832 175.117 141.517L175.128 141.522Z" fill="#FDA438"/>
<path d="M174.071 141.686V141.712H158.146C154.475 141.712 151.496 138.734 151.496 135.065C151.496 133.908 151.961 132.784 152.838 132.034C154 131.036 155.51 130.434 157.158 130.434H162.815C169.032 130.434 174.071 135.471 174.071 141.686Z" fill="#FDC24F"/>
<path d="M160.671 132.815H156.139C155.368 132.815 154.745 132.192 154.745 131.421C154.745 130.65 155.368 130.027 156.139 130.027H160.671C161.442 130.027 162.065 130.65 162.065 131.421C162.065 132.192 161.442 132.815 160.671 132.815Z" fill="#FDD165"/>
<path d="M274.961 141.522V145.287H293.163C297.109 145.287 300.315 142.087 300.315 138.132V136.564C300.315 135.197 299.929 133.914 299.258 132.826C298.001 130.777 295.746 129.41 293.168 129.41H287.089C280.397 129.41 274.972 134.832 274.972 141.517L274.961 141.522Z" fill="#FDA438"/>
<path d="M276.018 141.686V141.712H291.943C295.613 141.712 298.593 138.734 298.593 135.065C298.593 133.908 298.128 132.784 297.251 132.034C296.089 131.036 294.578 130.434 292.93 130.434H287.273C281.057 130.434 276.018 135.471 276.018 141.686Z" fill="#FDC24F"/>
<path d="M289.423 132.815H293.955C294.726 132.815 295.35 132.192 295.35 131.421C295.35 130.65 294.726 130.027 293.955 130.027H289.423C288.652 130.027 288.029 130.65 288.029 131.421C288.029 132.192 288.652 132.815 289.423 132.815Z" fill="#FDD165"/>
<path d="M247.416 100.77H202.673L205.736 90.2842C206.581 87.4013 209.222 85.416 212.223 85.416H237.866C240.872 85.416 243.513 87.4013 244.353 90.2842L247.416 100.77Z" fill="#A69AB7"/>
<path d="M241.817 100.77H204.617L207.237 91.7996C208.039 89.0539 210.548 87.1689 213.406 87.1689H233.023C235.875 87.1689 238.389 89.0592 239.192 91.7996L241.817 100.77Z" fill="#BAADC9"/>
<path d="M218.608 89.5502H212.582C211.679 89.5502 210.95 88.8215 210.95 87.9187C210.95 87.0158 211.679 86.2871 212.582 86.2871H218.608C219.512 86.2871 220.241 87.0158 220.241 87.9187C220.241 88.8215 219.512 89.5502 218.608 89.5502Z" fill="#CCC0D8"/>
<path d="M286.159 143.323H163.93C163.93 143.323 164.538 139.933 165.673 135.017C166.92 129.637 168.8 122.419 171.214 115.782C174.637 106.399 183.019 99.7304 192.938 98.5371C196.726 98.0777 201.141 97.6342 205.969 97.3016C210.797 96.9742 216.036 96.7524 221.461 96.7524C232.315 96.7524 249.582 97.6237 257.151 98.5318C267.076 99.7251 275.453 106.394 278.875 115.777C281.294 122.414 283.175 129.631 284.416 135.017C285.557 139.938 286.159 143.317 286.159 143.317V143.323Z" fill="#FDC24F"/>
<path d="M286.159 143.322H163.93C163.93 143.322 164.538 139.933 165.673 135.017C167.311 134.056 169.101 133.317 171.003 132.852C193.118 127.461 230.863 128.686 230.863 128.686C230.863 128.686 256.961 127.456 279.076 132.852C280.983 133.322 282.773 134.056 284.411 135.022C285.552 139.943 286.154 143.322 286.154 143.322H286.159Z" fill="#FDA438"/>
<path d="M281.226 144.242H168.869C168.869 144.242 169.988 137.979 172.033 130.323C172.994 126.712 174.166 122.783 175.529 119.061C178.656 110.481 186.32 104.382 195.389 103.295C198.854 102.878 202.89 102.471 207.3 102.17C211.716 101.869 216.506 101.663 221.466 101.663C231.391 101.663 247.786 102.466 254.71 103.295C263.78 104.382 271.449 110.481 274.571 119.061C275.923 122.783 277.095 126.706 278.067 130.318C280.111 137.974 281.231 144.242 281.231 144.242H281.226Z" fill="#260055"/>
<path d="M270.239 129.22C251.668 125.788 232.352 126.511 230.704 126.58C230.625 126.58 230.556 126.58 230.477 126.58C228.459 126.522 200.238 125.751 179.797 129.278C177.378 129.695 175.349 127.43 176.073 125.086C176.638 123.248 177.245 121.395 177.906 119.594C180.885 111.426 188.179 105.618 196.815 104.583C200.111 104.187 203.956 103.802 208.155 103.511C212.36 103.226 216.918 103.031 221.64 103.031C231.089 103.031 246.703 103.796 253.289 104.583C261.925 105.618 269.225 111.426 272.199 119.594C272.848 121.379 273.45 123.211 274.01 125.028C274.734 127.388 272.679 129.663 270.25 129.215L270.239 129.22Z" fill="#361A6A"/>
<path d="M195.094 106.441C195.722 107.746 194.19 109.789 191.676 111.003C189.157 112.218 186.606 112.144 185.977 110.834C185.348 109.53 186.88 107.487 189.394 106.272C191.914 105.058 194.465 105.132 195.094 106.441Z" fill="#432A91"/>
<path d="M184.767 110.887C185.269 111.331 184.979 112.471 184.128 113.432C183.273 114.393 182.179 114.816 181.677 114.372C181.176 113.929 181.466 112.788 182.317 111.827C183.172 110.866 184.266 110.444 184.767 110.887Z" fill="#432A91"/>
<g opacity="0.1">
<path d="M252.391 103.046L211.182 144.242H186.637L229.114 101.774C237.216 101.996 246.592 102.497 252.397 103.046H252.391Z" fill="white"/>
<path d="M214.8 101.779L172.318 144.242H168.863C168.863 144.242 169.708 139.532 171.261 133.285L201.97 102.592C203.666 102.434 205.446 102.291 207.295 102.165C209.693 101.996 212.212 101.869 214.8 101.779Z" fill="white"/>
<path d="M273.002 115.624L244.379 144.236H228.618L265.507 107.36C268.591 109.467 271.169 112.292 273.007 115.624H273.002Z" fill="white"/>
</g>
<path d="M292.423 169.074C291.969 170.658 291.409 172.263 290.717 173.889H159.382C158.864 172.675 158.421 171.476 158.035 170.288C157.903 169.881 157.787 169.475 157.671 169.074C157.517 168.556 157.385 168.054 157.253 167.548C156.979 166.449 156.746 165.356 156.572 164.29C156.487 163.783 156.413 163.297 156.35 162.801C155.896 159.385 155.885 156.185 156.123 153.318C156.186 152.52 156.303 151.734 156.461 150.968C156.678 149.902 156.994 148.867 157.38 147.869C157.575 147.362 157.797 146.866 158.035 146.38C160.539 141.284 165.255 137.409 171.013 136.004C193.128 130.613 230.873 131.838 230.873 131.838C230.873 131.838 256.971 130.608 279.086 136.004C286.47 137.81 292.132 143.666 293.643 150.963C293.802 151.734 293.912 152.515 293.976 153.312C294.346 157.89 294.108 163.308 292.423 169.068V169.074Z" fill="#FDC24F"/>
<path d="M292.423 169.074C291.969 170.658 291.409 172.263 290.717 173.889H159.382C158.864 172.675 158.42 171.476 158.035 170.288C157.903 169.882 157.787 169.475 157.67 169.074H292.428H292.423Z" fill="#FDA438"/>
<path d="M292.016 154.738C292.016 150.799 290.437 147.568 288.514 145.091C286.866 142.805 284.722 140.888 282.218 139.51C281.901 139.32 281.716 139.22 281.716 139.22V139.252C280.406 138.576 279.001 138.037 277.523 137.678C256.046 132.44 230.698 133.634 230.698 133.634C230.698 133.634 194.042 132.44 172.565 137.678C171.102 138.037 169.713 138.56 168.409 139.225C168.409 139.225 168.361 139.246 168.282 139.294C165.303 140.841 162.794 143.127 161.009 145.904C159.366 148.259 158.104 151.216 158.104 154.738C158.104 154.738 158.072 160.287 162.963 161.892C163.37 162.046 163.792 162.151 164.236 162.199C164.421 162.22 164.606 162.236 164.796 162.236H285.282C285.482 162.236 285.683 162.22 285.884 162.199C285.884 162.199 285.931 162.199 285.952 162.188C286.269 162.146 286.576 162.077 286.877 161.982C292.048 160.504 292.011 154.743 292.011 154.743L292.016 154.738Z" fill="#FDD165"/>
<path d="M178.819 137.763C179.268 139.268 177.504 141.121 174.879 141.902C172.254 142.684 169.766 142.098 169.317 140.588C168.868 139.083 170.632 137.23 173.257 136.448C175.882 135.667 178.37 136.253 178.819 137.763Z" fill="#FDEA86"/>
<path d="M168.34 139.796C168.625 140.244 168.218 141.015 167.431 141.512C166.644 142.008 165.778 142.045 165.493 141.596C165.208 141.147 165.614 140.376 166.401 139.88C167.188 139.384 168.055 139.347 168.34 139.796Z" fill="#FDEA86"/>
<path d="M292.851 167.547C292.719 168.054 292.587 168.556 292.434 169.073C292.318 169.475 292.196 169.881 292.064 170.288H277.972C277.592 170.288 277.254 170.135 277.005 169.886C276.762 169.638 276.604 169.3 276.604 168.925C276.604 168.403 276.889 167.954 277.317 167.722C277.513 167.611 277.74 167.547 277.972 167.547H292.851Z" fill="#260055"/>
<path d="M292.851 167.547C292.719 168.054 292.587 168.556 292.434 169.073H278.68C278.305 169.073 277.967 168.92 277.718 168.672C277.475 168.429 277.322 168.096 277.317 167.722C277.512 167.611 277.739 167.547 277.972 167.547H292.851Z" fill="#361A6A"/>
<path d="M253.157 156.95L251.504 166.534C251.129 168.704 249.243 170.288 247.041 170.288H203.058C200.856 170.288 198.97 168.704 198.595 166.534L196.942 156.95C196.804 156.164 196.905 155.393 197.174 154.712C197.776 153.223 199.239 152.146 200.993 152.146H249.111C250.86 152.146 252.323 153.223 252.93 154.712C253.199 155.393 253.3 156.164 253.162 156.95H253.157Z" fill="#260055"/>
<path d="M251.372 157.457L250.3 163.651C249.94 165.72 248.145 167.231 246.042 167.231H204.051C201.949 167.231 200.148 165.715 199.789 163.645L198.716 157.452C198.378 155.488 199.73 153.55 201.716 153.37C201.833 153.36 201.954 153.354 202.076 153.354H248.007C248.129 153.354 248.25 153.36 248.366 153.37C250.352 153.55 251.705 155.488 251.367 157.452L251.372 157.457Z" fill="#361A6A"/>
<path d="M247.791 159.358H202.197C201.505 159.358 200.945 158.799 200.945 158.107C200.945 157.415 201.505 156.855 202.197 156.855H247.791C248.483 156.855 249.042 157.415 249.042 158.107C249.042 158.799 248.483 159.358 247.791 159.358Z" fill="#260055"/>
<path d="M247.791 165.536H202.197C201.505 165.536 200.945 164.976 200.945 164.285C200.945 163.593 201.505 163.033 202.197 163.033H247.791C248.483 163.033 249.042 163.593 249.042 164.285C249.042 164.976 248.483 165.536 247.791 165.536Z" fill="#260055"/>
<path d="M205.678 154.738H201.273C200.803 154.738 200.422 154.358 200.422 153.888C200.422 153.418 200.803 153.038 201.273 153.038H205.678C206.148 153.038 206.528 153.418 206.528 153.888C206.528 154.358 206.148 154.738 205.678 154.738Z" fill="#432A91"/>
<path d="M293.934 161.116C293.886 161.671 293.817 162.236 293.749 162.801C293.685 163.297 293.611 163.783 293.527 164.29H273.894C271.707 164.29 269.933 162.516 269.933 160.33V159.538C269.933 158.54 270.059 157.568 270.297 156.644C271.581 151.602 276.155 147.874 281.595 147.874H292.724C292.809 148.08 292.888 148.296 292.957 148.502C293.495 150.034 293.849 151.644 293.976 153.318C294.171 155.704 294.192 158.329 293.934 161.116Z" fill="#E85468"/>
<path d="M293.934 161.117H275.379C273.192 161.117 271.422 159.348 271.422 157.162C271.422 156.961 271.449 156.761 271.502 156.57C272.822 151.913 277.111 148.508 282.187 148.508H292.957C293.496 150.039 293.849 151.649 293.976 153.323C294.172 155.71 294.193 158.334 293.934 161.122V161.117Z" fill="#E86179"/>
<path d="M291.161 151.053H285.303C284.601 151.053 284.025 150.482 284.025 149.775C284.025 149.073 284.595 148.497 285.303 148.497H291.161C291.863 148.497 292.439 149.067 292.439 149.775C292.439 150.477 291.869 151.053 291.161 151.053Z" fill="#E87C8B"/>
<path d="M157.201 167.547C157.333 168.054 157.465 168.556 157.618 169.073C157.734 169.475 157.856 169.881 157.988 170.288H172.08C172.46 170.288 172.798 170.135 173.046 169.886C173.289 169.638 173.448 169.3 173.448 168.925C173.448 168.403 173.163 167.954 172.735 167.722C172.539 167.611 172.312 167.547 172.08 167.547H157.201Z" fill="#260055"/>
<path d="M157.201 167.547C157.333 168.054 157.465 168.556 157.618 169.073H171.372C171.747 169.073 172.085 168.92 172.333 168.672C172.576 168.429 172.73 168.096 172.735 167.722C172.539 167.611 172.312 167.547 172.08 167.547H157.201Z" fill="#361A6A"/>
<path d="M156.118 161.116C156.165 161.671 156.234 162.236 156.303 162.801C156.366 163.297 156.44 163.783 156.525 164.29H176.157C178.344 164.29 180.119 162.516 180.119 160.33V159.538C180.119 158.54 179.992 157.568 179.754 156.644C178.471 151.602 173.897 147.874 168.456 147.874H157.327C157.243 148.08 157.164 148.296 157.095 148.502C156.556 150.034 156.202 151.644 156.076 153.318C155.88 155.704 155.859 158.329 156.118 161.116Z" fill="#E85468"/>
<path d="M156.118 161.117H174.673C176.86 161.117 178.629 159.348 178.629 157.162C178.629 156.961 178.603 156.761 178.55 156.57C177.23 151.913 172.941 148.508 167.865 148.508H157.095C156.556 150.039 156.202 151.649 156.076 153.323C155.88 155.71 155.859 158.334 156.118 161.122V161.117Z" fill="#E86179"/>
<path d="M158.891 151.053H164.749C165.451 151.053 166.027 150.482 166.027 149.775C166.027 149.073 165.456 148.497 164.749 148.497H158.891C158.189 148.497 157.613 149.067 157.613 149.775C157.613 150.477 158.183 151.053 158.891 151.053Z" fill="#E87C8B"/>
<path d="M262.681 138.624C262.681 138.624 243.756 136.073 225.042 136.073C206.328 136.073 187.403 138.624 187.403 138.624" stroke="#FDA438" stroke-width="4.93" stroke-linecap="round" stroke-linejoin="round"/>
<path d="M132.153 44.0254H57.5146C52.786 44.0254 48.9526 47.8574 48.9526 52.5844V188.108C48.9526 192.835 52.786 196.667 57.5146 196.667H132.153C136.882 196.667 140.715 192.835 140.715 188.108V52.5844C140.715 47.8574 136.882 44.0254 132.153 44.0254Z" fill="#1C0244"/>
<path d="M137.082 44.0254H62.4429C57.7142 44.0254 53.8809 47.8574 53.8809 52.5844V188.108C53.8809 192.835 57.7142 196.667 62.4429 196.667H137.082C141.81 196.667 145.644 192.835 145.644 188.108V52.5844C145.644 47.8574 141.81 44.0254 137.082 44.0254Z" fill="#260055"/>
<path d="M136.606 183.113H62.9128C60.1416 183.113 57.895 185.359 57.895 188.129C57.895 190.9 60.1416 193.145 62.9128 193.145H136.606C139.378 193.145 141.624 190.9 141.624 188.129C141.624 185.359 139.378 183.113 136.606 183.113Z" fill="#361A6A"/>
<path d="M104.889 191.756H94.6417C93.0307 191.756 91.7261 190.452 91.7261 188.842C91.7261 187.231 93.0307 185.927 94.6417 185.927H104.889C106.5 185.927 107.804 187.231 107.804 188.842C107.804 190.452 106.5 191.756 104.889 191.756Z" fill="white"/>
<path d="M136.353 48.6349H63.1716C62.2367 48.6349 61.4761 47.8746 61.4761 46.94C61.4761 46.0054 62.2367 45.2451 63.1716 45.2451H136.353C137.288 45.2451 138.048 46.0054 138.048 46.94C138.048 47.8746 137.288 48.6349 136.353 48.6349Z" fill="#361A6A"/>
<path d="M57.293 178.905C56.1732 178.905 55.27 178.002 55.27 176.883V56.4495C55.27 55.3301 56.1732 54.4272 57.293 54.4272C58.4128 54.4272 59.316 55.3354 59.316 56.4495V176.883C59.316 178.002 58.4128 178.905 57.293 178.905Z" fill="#361A6A"/>
<path d="M142.115 178.905C143.235 178.905 144.138 178.002 144.138 176.883V56.4495C144.138 55.3301 143.235 54.4272 142.115 54.4272C140.995 54.4272 140.092 55.3354 140.092 56.4495V176.883C140.092 178.002 140.995 178.905 142.115 178.905Z" fill="#361A6A"/>
<path d="M133.738 50.6465H65.7864C63.7823 50.6465 62.1577 52.2705 62.1577 54.2739V177.696C62.1577 179.699 63.7823 181.323 65.7864 181.323H133.738C135.742 181.323 137.367 179.699 137.367 177.696V54.2739C137.367 52.2705 135.742 50.6465 133.738 50.6465Z" fill="#CCC0D8"/>
<path d="M126.115 104.747C131.14 99.7243 131.14 91.5804 126.115 86.5574C121.09 81.5343 112.943 81.5343 107.918 86.5574C102.894 91.5804 102.894 99.7243 107.918 104.747C112.943 109.77 121.09 109.77 126.115 104.747Z" stroke="white" stroke-width="10.08" stroke-miterlimit="10"/>
<path d="M129.882 95.6538H137.367" stroke="white" stroke-width="10.08" stroke-miterlimit="10"/>
<path d="M104.149 95.6538L62.1577 96.3772" stroke="white" stroke-width="10.08" stroke-miterlimit="10"/>
<path d="M117.016 82.7916V50.6465" stroke="white" stroke-width="10.08" stroke-miterlimit="10"/>
<path d="M117.016 108.516V138.069" stroke="white" stroke-width="10.08" stroke-miterlimit="10"/>
<path d="M117.016 125.94H137.367" stroke="white" stroke-width="10.08" stroke-miterlimit="10"/>
<path d="M79.4717 96.377V120.327L117.016 120.343" stroke="white" stroke-width="10.08" stroke-miterlimit="10"/>
<path d="M88.8103 96.377V68.3081H62.1577" stroke="white" stroke-width="10.08" stroke-miterlimit="10"/>
<path d="M117.016 62.4263H137.367" stroke="white" stroke-width="10.08" stroke-miterlimit="10"/>
<path d="M88.8101 68.3083V50.6465" stroke="white" stroke-width="10.08" stroke-miterlimit="10"/>
<path d="M79.4717 120.328V138.069" stroke="white" stroke-width="10.08" stroke-miterlimit="10"/>
<path d="M62.1577 115.982H79.4719" stroke="white" stroke-width="10.08" stroke-miterlimit="10"/>
<path d="M81.986 92.2164C83.2753 92.2164 84.3206 91.1715 84.3206 89.8826C84.3206 88.5937 83.2753 87.5488 81.986 87.5488C80.6966 87.5488 79.6514 88.5937 79.6514 89.8826C79.6514 91.1715 80.6966 92.2164 81.986 92.2164Z" fill="#7A26BC"/>
<path d="M80.3486 86.7729H83.6234L81.986 84.6714L80.3486 86.7729Z" fill="#7A26BC"/>
<path d="M92.8612 100.733H85.8943C85.025 100.733 84.3203 101.438 84.3203 102.307V109.271C84.3203 110.14 85.025 110.845 85.8943 110.845H92.8612C93.7305 110.845 94.4352 110.14 94.4352 109.271V102.307C94.4352 101.438 93.7305 100.733 92.8612 100.733Z" fill="#DAD1E5"/>
<path d="M101.434 51.9878H94.4564C93.6863 51.9878 93.062 52.6119 93.062 53.3817V60.3567C93.062 61.1266 93.6863 61.7506 94.4564 61.7506H101.434C102.204 61.7506 102.828 61.1266 102.828 60.3567V53.3817C102.828 52.6119 102.204 51.9878 101.434 51.9878Z" fill="#DAD1E5"/>
<path d="M122.435 66.7192H128.319C128.794 66.7192 129.185 67.1047 129.185 67.5852V73.4672C129.185 73.9424 128.799 74.3331 128.319 74.3331H122.435C121.959 74.3331 121.568 73.9477 121.568 73.4672V67.5852C121.568 67.11 121.954 66.7192 122.435 66.7192Z" fill="#DAD1E5"/>
<path d="M83.7235 72.4219H77.3429C76.8849 72.4219 76.5137 72.793 76.5137 73.2508V79.6292C76.5137 80.087 76.8849 80.4581 77.3429 80.4581H83.7235C84.1815 80.4581 84.5528 80.087 84.5528 79.6292V73.2508C84.5528 72.793 84.1815 72.4219 83.7235 72.4219Z" fill="#DAD1E5"/>
<path d="M129.042 113.49H123.143C122.661 113.49 122.271 113.88 122.271 114.361V120.259C122.271 120.74 122.661 121.131 123.143 121.131H129.042C129.524 121.131 129.914 120.74 129.914 120.259V114.361C129.914 113.88 129.524 113.49 129.042 113.49Z" fill="#DAD1E5"/>
<path d="M111.411 124.969H105.422C104.841 124.969 104.371 125.439 104.371 126.019V132.007C104.371 132.587 104.841 133.058 105.422 133.058H111.411C111.992 133.058 112.463 132.587 112.463 132.007V126.019C112.463 125.439 111.992 124.969 111.411 124.969Z" fill="#DAD1E5"/>
<path d="M68.0153 138.069H131.509C134.742 138.069 137.367 140.693 137.367 143.924V177.601C137.367 179.718 135.645 181.439 133.527 181.439H65.9923C63.8743 181.439 62.1523 179.718 62.1523 177.601V143.924C62.1523 140.693 64.7775 138.069 68.01 138.069H68.0153Z" fill="#7A26BC"/>
<path d="M69.2082 143.098C69.1827 142.882 69.079 142.715 68.8972 142.596C68.7153 142.476 68.4923 142.417 68.2281 142.417C68.0349 142.417 67.8659 142.448 67.721 142.51C67.5775 142.573 67.4653 142.659 67.3844 142.768C67.3048 142.877 67.265 143.002 67.265 143.141C67.265 143.257 67.2927 143.358 67.3481 143.441C67.405 143.524 67.4774 143.593 67.5655 143.648C67.6535 143.702 67.7459 143.747 67.8425 143.782C67.9391 143.816 68.0278 143.844 68.1088 143.865L68.552 143.985C68.6656 144.015 68.792 144.056 68.9312 144.108C69.0719 144.161 69.2061 144.233 69.3339 144.324C69.4632 144.413 69.5697 144.528 69.6535 144.669C69.7373 144.809 69.7793 144.982 69.7793 145.186C69.7793 145.422 69.7175 145.635 69.5939 145.826C69.4717 146.016 69.2927 146.167 69.057 146.279C68.8226 146.392 68.5378 146.448 68.2025 146.448C67.89 146.448 67.6195 146.397 67.3908 146.297C67.1635 146.196 66.9845 146.055 66.8538 145.875C66.7246 145.694 66.6514 145.485 66.6344 145.246H67.1798C67.194 145.411 67.2494 145.547 67.346 145.655C67.444 145.762 67.5676 145.841 67.7168 145.894C67.8673 145.945 68.0293 145.971 68.2025 145.971C68.4043 145.971 68.5854 145.938 68.7459 145.873C68.9064 145.806 69.0335 145.713 69.1273 145.596C69.221 145.476 69.2679 145.337 69.2679 145.178C69.2679 145.033 69.2274 144.915 69.1464 144.824C69.0655 144.733 68.9589 144.659 68.8268 144.603C68.6947 144.546 68.552 144.496 68.3986 144.453L67.8616 144.3C67.5207 144.202 67.2508 144.062 67.052 143.88C66.8531 143.699 66.7537 143.461 66.7537 143.167C66.7537 142.922 66.8197 142.709 66.9518 142.527C67.0854 142.344 67.2643 142.202 67.4888 142.101C67.7146 141.999 67.9668 141.948 68.2452 141.948C68.5264 141.948 68.7764 141.998 68.9952 142.099C69.2139 142.199 69.3872 142.335 69.515 142.508C69.6443 142.681 69.7125 142.878 69.7196 143.098H69.2082ZM71.952 146.439C71.6367 146.439 71.3647 146.37 71.136 146.23C70.9087 146.09 70.7333 145.894 70.6097 145.642C70.4875 145.39 70.4264 145.096 70.4264 144.76C70.4264 144.425 70.4875 144.13 70.6097 143.874C70.7333 143.617 70.9051 143.417 71.1253 143.273C71.3469 143.128 71.6054 143.056 71.9009 143.056C72.0713 143.056 72.2397 143.084 72.4059 143.141C72.572 143.198 72.7233 143.29 72.8597 143.418C72.996 143.544 73.1047 143.712 73.1857 143.921C73.2666 144.13 73.3071 144.387 73.3071 144.692V144.905H70.7844V144.471H72.7958C72.7958 144.286 72.7588 144.121 72.685 143.976C72.6125 143.831 72.5088 143.717 72.3739 143.633C72.2404 143.549 72.0827 143.507 71.9009 143.507C71.7006 143.507 71.5273 143.557 71.381 143.657C71.2361 143.755 71.1246 143.882 71.0465 144.04C70.9684 144.198 70.9293 144.367 70.9293 144.547V144.837C70.9293 145.084 70.9719 145.294 71.0571 145.466C71.1438 145.636 71.2638 145.766 71.4172 145.855C71.5706 145.944 71.7489 145.988 71.952 145.988C72.0841 145.988 72.2034 145.969 72.31 145.932C72.4179 145.894 72.511 145.837 72.5891 145.762C72.6672 145.685 72.7276 145.59 72.7702 145.476L73.256 145.613C73.2049 145.777 73.1189 145.922 72.9982 146.047C72.8774 146.171 72.7283 146.267 72.5507 146.337C72.3732 146.405 72.1736 146.439 71.952 146.439ZM75.4953 143.098V143.525H73.7993V143.098H75.4953ZM74.2936 142.314H74.7965V145.434C74.7965 145.576 74.8171 145.682 74.8583 145.753C74.9009 145.823 74.9549 145.87 75.0202 145.894C75.087 145.917 75.1573 145.928 75.2311 145.928C75.2865 145.928 75.332 145.925 75.3675 145.919C75.403 145.912 75.4314 145.907 75.4527 145.902L75.555 146.354C75.5209 146.367 75.4733 146.38 75.4122 146.392C75.3512 146.407 75.2737 146.414 75.18 146.414C75.038 146.414 74.8987 146.383 74.7624 146.322C74.6274 146.261 74.5152 146.168 74.4257 146.043C74.3377 145.918 74.2936 145.76 74.2936 145.57V142.314ZM77.9392 147.598V143.098H78.425V143.618H78.4847C78.5216 143.561 78.5728 143.489 78.6381 143.401C78.7049 143.311 78.8 143.232 78.9236 143.162C79.0486 143.091 79.2176 143.056 79.4307 143.056C79.7063 143.056 79.9492 143.125 80.1594 143.262C80.3696 143.4 80.5337 143.596 80.6516 143.848C80.7695 144.101 80.8284 144.4 80.8284 144.743C80.8284 145.09 80.7695 145.39 80.6516 145.645C80.5337 145.897 80.3703 146.093 80.1615 146.233C79.9527 146.37 79.712 146.439 79.4392 146.439C79.229 146.439 79.0607 146.404 78.9343 146.335C78.8078 146.264 78.7105 146.184 78.6424 146.094C78.5742 146.003 78.5216 145.928 78.4847 145.868H78.4421V147.598H77.9392ZM78.4335 144.735C78.4335 144.982 78.4698 145.2 78.5422 145.389C78.6147 145.576 78.7205 145.723 78.8597 145.83C78.9989 145.935 79.1693 145.988 79.371 145.988C79.5813 145.988 79.7567 145.932 79.8973 145.821C80.0394 145.709 80.1459 145.559 80.2169 145.37C80.2894 145.179 80.3256 144.968 80.3256 144.735C80.3256 144.505 80.2901 144.297 80.2191 144.113C80.1495 143.926 80.0436 143.779 79.9016 143.672C79.761 143.562 79.5841 143.507 79.371 143.507C79.1665 143.507 78.9946 143.559 78.8554 143.663C78.7162 143.765 78.6111 143.909 78.5401 144.093C78.4691 144.277 78.4335 144.49 78.4335 144.735ZM81.5955 146.371V143.098H82.0983V146.371H81.5955ZM81.8512 142.553C81.7532 142.553 81.6686 142.52 81.5976 142.453C81.528 142.386 81.4932 142.306 81.4932 142.212C81.4932 142.118 81.528 142.038 81.5976 141.971C81.6686 141.904 81.7532 141.871 81.8512 141.871C81.9492 141.871 82.033 141.904 82.1026 141.971C82.1736 142.038 82.2091 142.118 82.2091 142.212C82.2091 142.306 82.1736 142.386 82.1026 142.453C82.033 142.52 81.9492 142.553 81.8512 142.553ZM84.3489 146.439C84.042 146.439 83.7778 146.367 83.5562 146.222C83.3347 146.077 83.1642 145.877 83.0449 145.623C82.9256 145.369 82.8659 145.078 82.8659 144.752C82.8659 144.419 82.927 144.126 83.0491 143.872C83.1727 143.616 83.3446 143.417 83.5648 143.273C83.7864 143.128 84.0449 143.056 84.3403 143.056C84.5704 143.056 84.7778 143.098 84.9625 143.184C85.1472 143.269 85.2984 143.388 85.4163 143.542C85.5342 143.695 85.6074 143.874 85.6358 144.078H85.1329C85.0946 143.929 85.0094 143.797 84.8773 143.682C84.7466 143.566 84.5704 143.507 84.3489 143.507C84.1528 143.507 83.981 143.559 83.8332 143.661C83.6869 143.762 83.5726 143.904 83.4902 144.089C83.4092 144.272 83.3687 144.488 83.3687 144.735C83.3687 144.988 83.4085 145.208 83.4881 145.395C83.569 145.583 83.6827 145.728 83.829 145.832C83.9767 145.936 84.15 145.988 84.3489 145.988C84.4795 145.988 84.5981 145.965 84.7047 145.919C84.8112 145.874 84.9014 145.809 84.9753 145.723C85.0491 145.638 85.1017 145.536 85.1329 145.417H85.6358C85.6074 145.61 85.5371 145.784 85.4248 145.939C85.3141 146.092 85.167 146.214 84.9838 146.305C84.802 146.395 84.5903 146.439 84.3489 146.439ZM86.8396 145.178L86.8311 144.556H86.9334L88.3652 143.098H88.9873L87.4618 144.641H87.4192L86.8396 145.178ZM86.3709 146.371V142.007H86.8737V146.371H86.3709ZM88.4504 146.371L87.172 144.752L87.53 144.402L89.0896 146.371H88.4504ZM91.697 145.033V143.098H92.1999V146.371H91.697V145.817H91.663C91.5862 145.983 91.4669 146.125 91.305 146.241C91.1431 146.356 90.9385 146.414 90.6914 146.414C90.4868 146.414 90.305 146.369 90.1459 146.279C89.9868 146.189 89.8618 146.052 89.7709 145.87C89.68 145.687 89.6345 145.456 89.6345 145.178V143.098H90.1374V145.144C90.1374 145.382 90.2041 145.573 90.3377 145.715C90.4726 145.857 90.6445 145.928 90.8533 145.928C90.9783 145.928 91.1054 145.896 91.2347 145.832C91.3654 145.768 91.4747 145.67 91.5628 145.538C91.6523 145.406 91.697 145.238 91.697 145.033ZM93.1209 147.598V143.098H93.6067V143.618H93.6663C93.7033 143.561 93.7544 143.489 93.8197 143.401C93.8865 143.311 93.9817 143.232 94.1052 143.162C94.2302 143.091 94.3993 143.056 94.6123 143.056C94.8879 143.056 95.1308 143.125 95.341 143.262C95.5513 143.4 95.7153 143.596 95.8332 143.848C95.9511 144.101 96.0101 144.4 96.0101 144.743C96.0101 145.09 95.9511 145.39 95.8332 145.645C95.7153 145.897 95.552 146.093 95.3432 146.233C95.1344 146.37 94.8936 146.439 94.6209 146.439C94.4106 146.439 94.2423 146.404 94.1159 146.335C93.9895 146.264 93.8922 146.184 93.824 146.094C93.7558 146.003 93.7033 145.928 93.6663 145.868H93.6237V147.598H93.1209ZM93.6152 144.735C93.6152 144.982 93.6514 145.2 93.7239 145.389C93.7963 145.576 93.9021 145.723 94.0413 145.83C94.1805 145.935 94.351 145.988 94.5527 145.988C94.7629 145.988 94.9383 145.932 95.079 145.821C95.221 145.709 95.3275 145.559 95.3986 145.37C95.471 145.179 95.5072 144.968 95.5072 144.735C95.5072 144.505 95.4717 144.297 95.4007 144.113C95.3311 143.926 95.2253 143.779 95.0832 143.672C94.9426 143.562 94.7658 143.507 94.5527 143.507C94.3481 143.507 94.1763 143.559 94.0371 143.663C93.8979 143.765 93.7927 143.909 93.7217 144.093C93.6507 144.277 93.6152 144.49 93.6152 144.735ZM98.9675 142.007V146.371H98.4646V142.007H98.9675ZM101.218 146.439C100.923 146.439 100.663 146.369 100.44 146.228C100.219 146.088 100.045 145.891 99.9204 145.638C99.7968 145.385 99.735 145.09 99.735 144.752C99.735 144.411 99.7968 144.113 99.9204 143.859C100.045 143.605 100.219 143.407 100.44 143.267C100.663 143.126 100.923 143.056 101.218 143.056C101.513 143.056 101.772 143.126 101.994 143.267C102.217 143.407 102.39 143.605 102.513 143.859C102.638 144.113 102.701 144.411 102.701 144.752C102.701 145.09 102.638 145.385 102.513 145.638C102.39 145.891 102.217 146.088 101.994 146.228C101.772 146.369 101.513 146.439 101.218 146.439ZM101.218 145.988C101.442 145.988 101.627 145.93 101.772 145.815C101.917 145.7 102.024 145.549 102.094 145.361C102.163 145.174 102.198 144.971 102.198 144.752C102.198 144.533 102.163 144.329 102.094 144.14C102.024 143.951 101.917 143.799 101.772 143.682C101.627 143.566 101.442 143.507 101.218 143.507C100.994 143.507 100.809 143.566 100.664 143.682C100.519 143.799 100.412 143.951 100.342 144.14C100.273 144.329 100.238 144.533 100.238 144.752C100.238 144.971 100.273 145.174 100.342 145.361C100.412 145.549 100.519 145.7 100.664 145.815C100.809 145.93 100.994 145.988 101.218 145.988ZM104.798 146.439C104.491 146.439 104.227 146.367 104.005 146.222C103.784 146.077 103.613 145.877 103.494 145.623C103.375 145.369 103.315 145.078 103.315 144.752C103.315 144.419 103.376 144.126 103.498 143.872C103.622 143.616 103.794 143.417 104.014 143.273C104.236 143.128 104.494 143.056 104.79 143.056C105.02 143.056 105.227 143.098 105.412 143.184C105.596 143.269 105.748 143.388 105.866 143.542C105.983 143.695 106.057 143.874 106.085 144.078H105.582C105.544 143.929 105.459 143.797 105.326 143.682C105.196 143.566 105.02 143.507 104.798 143.507C104.602 143.507 104.43 143.559 104.282 143.661C104.136 143.762 104.022 143.904 103.939 144.089C103.858 144.272 103.818 144.488 103.818 144.735C103.818 144.988 103.858 145.208 103.937 145.395C104.018 145.583 104.132 145.728 104.278 145.832C104.426 145.936 104.599 145.988 104.798 145.988C104.929 145.988 105.047 145.965 105.154 145.919C105.26 145.874 105.351 145.809 105.424 145.723C105.498 145.638 105.551 145.536 105.582 145.417H106.085C106.057 145.61 105.986 145.784 105.874 145.939C105.763 146.092 105.616 146.214 105.433 146.305C105.251 146.395 105.04 146.439 104.798 146.439ZM107.783 146.448C107.576 146.448 107.388 146.409 107.219 146.331C107.049 146.251 106.915 146.137 106.816 145.988C106.716 145.837 106.667 145.655 106.667 145.442C106.667 145.255 106.704 145.103 106.777 144.986C106.851 144.868 106.95 144.776 107.074 144.709C107.197 144.642 107.334 144.593 107.483 144.56C107.633 144.526 107.785 144.499 107.937 144.479C108.135 144.453 108.297 144.434 108.42 144.422C108.545 144.407 108.636 144.384 108.693 144.351C108.751 144.319 108.78 144.262 108.78 144.181V144.164C108.78 143.953 108.723 143.79 108.608 143.674C108.494 143.557 108.322 143.499 108.09 143.499C107.85 143.499 107.662 143.551 107.525 143.657C107.389 143.762 107.293 143.874 107.238 143.993L106.76 143.823C106.846 143.624 106.959 143.469 107.101 143.358C107.245 143.246 107.401 143.168 107.57 143.124C107.741 143.078 107.908 143.056 108.073 143.056C108.178 143.056 108.299 143.069 108.435 143.094C108.573 143.118 108.706 143.169 108.834 143.245C108.963 143.322 109.07 143.438 109.155 143.593C109.241 143.748 109.283 143.955 109.283 144.215V146.371H108.78V145.928H108.755C108.721 145.999 108.664 146.075 108.584 146.156C108.505 146.237 108.399 146.306 108.267 146.363C108.135 146.419 107.973 146.448 107.783 146.448ZM107.86 145.996C108.059 145.996 108.226 145.957 108.363 145.879C108.5 145.801 108.604 145.7 108.674 145.576C108.745 145.453 108.78 145.323 108.78 145.186V144.726C108.759 144.752 108.712 144.775 108.64 144.797C108.569 144.816 108.486 144.834 108.393 144.85C108.3 144.864 108.21 144.877 108.122 144.888C108.035 144.898 107.965 144.907 107.911 144.914C107.78 144.931 107.658 144.958 107.545 144.997C107.432 145.034 107.341 145.09 107.272 145.165C107.204 145.239 107.17 145.34 107.17 145.468C107.17 145.642 107.234 145.775 107.363 145.864C107.494 145.952 107.66 145.996 107.86 145.996ZM111.624 143.098V143.525H109.928V143.098H111.624ZM110.423 142.314H110.925V145.434C110.925 145.576 110.946 145.682 110.987 145.753C111.03 145.823 111.084 145.87 111.149 145.894C111.216 145.917 111.286 145.928 111.36 145.928C111.415 145.928 111.461 145.925 111.496 145.919C111.532 145.912 111.56 145.907 111.582 145.902L111.684 146.354C111.65 146.367 111.602 146.38 111.541 146.392C111.48 146.407 111.403 146.414 111.309 146.414C111.167 146.414 111.028 146.383 110.891 146.322C110.756 146.261 110.644 146.168 110.555 146.043C110.467 145.918 110.423 145.76 110.423 145.57V142.314ZM112.381 146.371V143.098H112.883V146.371H112.381ZM112.636 142.553C112.538 142.553 112.454 142.52 112.383 142.453C112.313 142.386 112.278 142.306 112.278 142.212C112.278 142.118 112.313 142.038 112.383 141.971C112.454 141.904 112.538 141.871 112.636 141.871C112.734 141.871 112.818 141.904 112.888 141.971C112.959 142.038 112.994 142.118 112.994 142.212C112.994 142.306 112.959 142.386 112.888 142.453C112.818 142.52 112.734 142.553 112.636 142.553ZM115.134 146.439C114.839 146.439 114.579 146.369 114.356 146.228C114.135 146.088 113.961 145.891 113.836 145.638C113.713 145.385 113.651 145.09 113.651 144.752C113.651 144.411 113.713 144.113 113.836 143.859C113.961 143.605 114.135 143.407 114.356 143.267C114.579 143.126 114.839 143.056 115.134 143.056C115.429 143.056 115.688 143.126 115.91 143.267C116.133 143.407 116.306 143.605 116.429 143.859C116.554 144.113 116.617 144.411 116.617 144.752C116.617 145.09 116.554 145.385 116.429 145.638C116.306 145.891 116.133 146.088 115.91 146.228C115.688 146.369 115.429 146.439 115.134 146.439ZM115.134 145.988C115.358 145.988 115.543 145.93 115.688 145.815C115.833 145.7 115.94 145.549 116.01 145.361C116.079 145.174 116.114 144.971 116.114 144.752C116.114 144.533 116.079 144.329 116.01 144.14C115.94 143.951 115.833 143.799 115.688 143.682C115.543 143.566 115.358 143.507 115.134 143.507C114.91 143.507 114.725 143.566 114.58 143.682C114.435 143.799 114.328 143.951 114.258 144.14C114.189 144.329 114.154 144.533 114.154 144.752C114.154 144.971 114.189 145.174 114.258 145.361C114.328 145.549 114.435 145.7 114.58 145.815C114.725 145.93 114.91 145.988 115.134 145.988ZM117.887 144.402V146.371H117.385V143.098H117.87V143.61H117.913C117.99 143.444 118.106 143.31 118.262 143.209C118.419 143.107 118.62 143.056 118.867 143.056C119.089 143.056 119.283 143.101 119.449 143.192C119.615 143.282 119.745 143.418 119.837 143.601C119.929 143.783 119.975 144.013 119.975 144.292V146.371H119.473V144.326C119.473 144.069 119.406 143.868 119.272 143.725C119.139 143.58 118.956 143.507 118.723 143.507C118.562 143.507 118.419 143.542 118.292 143.612C118.167 143.681 118.068 143.783 117.996 143.917C117.924 144.05 117.887 144.212 117.887 144.402Z" fill="white"/>
<path d="M130.279 158.075H69.2408C67.6139 158.075 66.2935 156.755 66.2935 155.129C66.2935 153.503 67.6139 152.183 69.2408 152.183H130.279C131.905 152.183 133.226 153.503 133.226 155.129C133.226 156.755 131.905 158.075 130.279 158.075Z" fill="#9A3DD3"/>
<path d="M132.318 155.129C132.318 156.343 131.33 157.331 130.115 157.331C128.9 157.331 127.913 156.343 127.913 155.129C127.913 153.915 128.9 152.927 130.115 152.927C131.33 152.927 132.318 153.915 132.318 155.129Z" fill="#A751E5"/>
<path d="M129.909 156.111C129.603 156.111 129.302 155.995 129.069 155.763C128.842 155.536 128.721 155.24 128.721 154.918C128.721 154.596 128.842 154.3 129.069 154.073C129.518 153.624 130.305 153.624 130.754 154.073C131.219 154.538 131.219 155.293 130.754 155.757C130.522 155.99 130.215 156.106 129.909 156.106V156.111ZM129.909 154.342C129.756 154.342 129.608 154.4 129.502 154.511C129.397 154.622 129.333 154.765 129.333 154.923C129.333 155.081 129.392 155.224 129.502 155.335C129.73 155.562 130.094 155.562 130.321 155.335C130.548 155.108 130.548 154.744 130.321 154.516C130.21 154.406 130.068 154.348 129.909 154.348V154.342Z" fill="white"/>
<path d="M131.208 156.528C131.129 156.528 131.05 156.497 130.992 156.439L130.316 155.763C130.194 155.641 130.194 155.451 130.316 155.33C130.437 155.208 130.627 155.208 130.749 155.33L131.425 156.006C131.546 156.127 131.546 156.317 131.425 156.439C131.367 156.497 131.288 156.528 131.208 156.528Z" fill="white"/>
<path d="M70.3797 154.745C70.3627 154.601 70.2935 154.489 70.1723 154.41C70.0511 154.33 69.9024 154.29 69.7263 154.29C69.5975 154.29 69.4848 154.311 69.3882 154.353C69.2926 154.395 69.2178 154.452 69.1638 154.525C69.1108 154.598 69.0843 154.681 69.0843 154.773C69.0843 154.851 69.1027 154.918 69.1396 154.974C69.1775 155.029 69.2258 155.074 69.2845 155.111C69.3432 155.147 69.4048 155.177 69.4692 155.201C69.5336 155.224 69.5928 155.242 69.6468 155.256L69.9422 155.336C70.018 155.356 70.1022 155.383 70.195 155.418C70.2888 155.453 70.3783 155.501 70.4635 155.562C70.5497 155.621 70.6207 155.698 70.6766 155.792C70.7325 155.886 70.7604 156.001 70.7604 156.137C70.7604 156.294 70.7192 156.436 70.6368 156.563C70.5554 156.69 70.436 156.791 70.2789 156.866C70.1226 156.94 69.9327 156.978 69.7093 156.978C69.5009 156.978 69.3205 156.944 69.1681 156.877C69.0165 156.81 68.8972 156.716 68.8101 156.596C68.7239 156.476 68.6752 156.336 68.6638 156.177H69.0274C69.0369 156.287 69.0738 156.378 69.1382 156.449C69.2036 156.521 69.286 156.574 69.3854 156.609C69.4858 156.643 69.5937 156.66 69.7093 156.66C69.8437 156.66 69.9645 156.638 70.0715 156.594C70.1785 156.55 70.2632 156.488 70.3257 156.41C70.3882 156.33 70.4195 156.237 70.4195 156.131C70.4195 156.035 70.3925 155.956 70.3385 155.896C70.2845 155.835 70.2135 155.786 70.1254 155.748C70.0374 155.71 69.9422 155.677 69.8399 155.648L69.482 155.546C69.2547 155.481 69.0748 155.387 68.9422 155.266C68.8096 155.145 68.7433 154.986 68.7433 154.79C68.7433 154.628 68.7874 154.485 68.8754 154.364C68.9645 154.242 69.0838 154.147 69.2334 154.08C69.384 154.012 69.5521 153.978 69.7377 153.978C69.9252 153.978 70.0918 154.012 70.2377 154.079C70.3835 154.145 70.499 154.236 70.5843 154.351C70.6704 154.467 70.7159 154.598 70.7206 154.745H70.3797ZM72.2089 156.972C71.9987 156.972 71.8173 156.926 71.6649 156.833C71.5133 156.739 71.3964 156.609 71.314 156.441C71.2326 156.272 71.1919 156.076 71.1919 155.853C71.1919 155.629 71.2326 155.432 71.314 155.262C71.3964 155.091 71.511 154.957 71.6578 154.861C71.8055 154.765 71.9778 154.717 72.1748 154.717C72.2884 154.717 72.4007 154.735 72.5115 154.773C72.6222 154.811 72.7231 154.873 72.814 154.958C72.9049 155.042 72.9774 155.154 73.0313 155.293C73.0853 155.432 73.1123 155.604 73.1123 155.807V155.949H71.4305V155.66H72.7714C72.7714 155.537 72.7468 155.427 72.6975 155.33C72.6492 155.234 72.5801 155.157 72.4901 155.101C72.4011 155.046 72.296 155.018 72.1748 155.018C72.0413 155.018 71.9258 155.051 71.8282 155.117C71.7316 155.182 71.6573 155.268 71.6052 155.373C71.5531 155.478 71.5271 155.591 71.5271 155.711V155.904C71.5271 156.069 71.5555 156.208 71.6123 156.323C71.6701 156.437 71.7501 156.523 71.8524 156.583C71.9546 156.642 72.0735 156.671 72.2089 156.671C72.297 156.671 72.3765 156.659 72.4475 156.634C72.5195 156.609 72.5815 156.571 72.6336 156.521C72.6857 156.469 72.7259 156.406 72.7544 156.33L73.0782 156.421C73.0441 156.531 72.9868 156.628 72.9063 156.711C72.8258 156.793 72.7264 156.858 72.608 156.904C72.4897 156.949 72.3566 156.972 72.2089 156.972ZM74.2643 156.978C74.126 156.978 74.0006 156.952 73.8879 156.9C73.7752 156.847 73.6857 156.771 73.6194 156.671C73.5531 156.571 73.52 156.449 73.52 156.307C73.52 156.182 73.5446 156.081 73.5938 156.003C73.6431 155.925 73.7089 155.863 73.7913 155.819C73.8737 155.774 73.9646 155.741 74.064 155.719C74.1644 155.697 74.2652 155.679 74.3666 155.665C74.4991 155.648 74.6066 155.636 74.689 155.627C74.7723 155.618 74.8329 155.602 74.8708 155.58C74.9097 155.558 74.9291 155.521 74.9291 155.467V155.455C74.9291 155.315 74.8907 155.206 74.814 155.128C74.7383 155.051 74.6232 155.012 74.4688 155.012C74.3088 155.012 74.1833 155.047 74.0924 155.117C74.0015 155.187 73.9376 155.262 73.9007 155.342L73.5825 155.228C73.6393 155.095 73.7151 154.992 73.8097 154.918C73.9054 154.843 74.0096 154.791 74.1222 154.762C74.2359 154.732 74.3476 154.717 74.4575 154.717C74.5276 154.717 74.608 154.725 74.699 154.742C74.7908 154.758 74.8794 154.792 74.9646 154.843C75.0508 154.894 75.1222 154.971 75.1791 155.074C75.2359 155.178 75.2643 155.316 75.2643 155.489V156.927H74.9291V156.631H74.912C74.8893 156.679 74.8514 156.729 74.7984 156.783C74.7454 156.837 74.6748 156.883 74.5867 156.921C74.4987 156.959 74.3912 156.978 74.2643 156.978ZM74.3154 156.677C74.448 156.677 74.5597 156.651 74.6507 156.599C74.7425 156.547 74.8116 156.479 74.858 156.397C74.9054 156.315 74.9291 156.228 74.9291 156.137V155.83C74.9149 155.847 74.8836 155.863 74.8353 155.877C74.788 155.89 74.733 155.902 74.6705 155.913C74.609 155.922 74.5489 155.931 74.4901 155.938C74.4324 155.945 74.3855 155.95 74.3495 155.955C74.2624 155.967 74.181 155.985 74.1052 156.011C74.0304 156.035 73.9698 156.073 73.9234 156.123C73.8779 156.172 73.8552 156.239 73.8552 156.324C73.8552 156.441 73.8983 156.529 73.9845 156.589C74.0716 156.647 74.1819 156.677 74.3154 156.677ZM75.8762 156.927V154.745H76.2V155.074H76.2227C76.2625 154.967 76.3345 154.879 76.4387 154.812C76.5428 154.744 76.6602 154.711 76.7909 154.711C76.8155 154.711 76.8463 154.711 76.8833 154.712C76.9202 154.713 76.9481 154.715 76.9671 154.717V155.057C76.9557 155.055 76.9297 155.05 76.8889 155.045C76.8492 155.038 76.807 155.035 76.7625 155.035C76.6565 155.035 76.5618 155.057 76.4784 155.101C76.396 155.145 76.3307 155.206 76.2824 155.283C76.2351 155.36 76.2114 155.448 76.2114 155.546V156.927H75.8762ZM78.1844 156.972C77.9798 156.972 77.8037 156.924 77.656 156.827C77.5083 156.731 77.3946 156.598 77.3151 156.428C77.2355 156.259 77.1958 156.065 77.1958 155.847C77.1958 155.626 77.2365 155.43 77.3179 155.261C77.4003 155.09 77.5149 154.957 77.6617 154.861C77.8094 154.765 77.9817 154.717 78.1787 154.717C78.3321 154.717 78.4704 154.745 78.5935 154.802C78.7166 154.859 78.8174 154.938 78.896 155.04C78.9746 155.143 79.0234 155.262 79.0423 155.398H78.7071C78.6816 155.299 78.6247 155.211 78.5367 155.134C78.4495 155.056 78.3321 155.018 78.1844 155.018C78.0537 155.018 77.9391 155.052 77.8406 155.12C77.7431 155.187 77.6669 155.282 77.6119 155.405C77.558 155.528 77.531 155.671 77.531 155.836C77.531 156.004 77.5575 156.151 77.6105 156.276C77.6645 156.401 77.7403 156.498 77.8378 156.567C77.9363 156.637 78.0518 156.671 78.1844 156.671C78.2715 156.671 78.3506 156.656 78.4216 156.626C78.4926 156.595 78.5528 156.552 78.602 156.495C78.6512 156.438 78.6863 156.37 78.7071 156.29H79.0423C79.0234 156.419 78.9765 156.535 78.9017 156.638C78.8279 156.741 78.7298 156.822 78.6077 156.883C78.4865 156.942 78.3454 156.972 78.1844 156.972ZM79.8676 155.614V156.927H79.5324V154.018H79.8676V155.086H79.896C79.9472 154.973 80.0239 154.884 80.1262 154.817C80.2294 154.75 80.3667 154.717 80.5381 154.717C80.6868 154.717 80.817 154.746 80.9287 154.806C81.0405 154.865 81.1271 154.955 81.1887 155.077C81.2512 155.199 81.2824 155.353 81.2824 155.54V156.927H80.9472V155.563C80.9472 155.39 80.9022 155.256 80.8122 155.161C80.7232 155.065 80.5996 155.018 80.4415 155.018C80.3316 155.018 80.2332 155.041 80.146 155.087C80.0599 155.134 79.9917 155.201 79.9415 155.29C79.8923 155.379 79.8676 155.487 79.8676 155.614ZM83.2366 157.745C83.1798 157.745 83.1291 157.74 83.0846 157.731C83.0401 157.722 83.0093 157.714 82.9923 157.705L83.0775 157.41C83.1589 157.431 83.2309 157.438 83.2934 157.432C83.3559 157.427 83.4113 157.399 83.4596 157.349C83.5088 157.299 83.5538 157.219 83.5945 157.109L83.657 156.938L82.8502 154.745H83.2139L83.8161 156.484H83.8389L84.4411 154.745H84.8048L83.8786 157.245C83.837 157.358 83.7854 157.451 83.7238 157.525C83.6623 157.6 83.5908 157.655 83.5093 157.691C83.4288 157.727 83.3379 157.745 83.2366 157.745ZM86.0555 156.972C85.8585 156.972 85.6857 156.925 85.537 156.832C85.3893 156.738 85.2738 156.607 85.1904 156.438C85.108 156.27 85.0669 156.073 85.0669 155.847C85.0669 155.62 85.108 155.422 85.1904 155.252C85.2738 155.083 85.3893 154.951 85.537 154.857C85.6857 154.763 85.8585 154.717 86.0555 154.717C86.2525 154.717 86.4248 154.763 86.5725 154.857C86.7212 154.951 86.8367 155.083 86.9191 155.252C87.0025 155.422 87.0441 155.62 87.0441 155.847C87.0441 156.073 87.0025 156.27 86.9191 156.438C86.8367 156.607 86.7212 156.738 86.5725 156.832C86.4248 156.925 86.2525 156.972 86.0555 156.972ZM86.0555 156.671C86.2051 156.671 86.3282 156.633 86.4248 156.556C86.5214 156.479 86.5929 156.378 86.6393 156.253C86.6857 156.128 86.7089 155.993 86.7089 155.847C86.7089 155.701 86.6857 155.565 86.6393 155.44C86.5929 155.314 86.5214 155.212 86.4248 155.134C86.3282 155.056 86.2051 155.018 86.0555 155.018C85.9059 155.018 85.7828 155.056 85.6862 155.134C85.5896 155.212 85.5181 155.314 85.4717 155.44C85.4253 155.565 85.4021 155.701 85.4021 155.847C85.4021 155.993 85.4253 156.128 85.4717 156.253C85.5181 156.378 85.5896 156.479 85.6862 156.556C85.7828 156.633 85.9059 156.671 86.0555 156.671ZM88.9308 156.035V154.745H89.2661V156.927H88.9308V156.557H88.9081C88.857 156.668 88.7774 156.762 88.6695 156.84C88.5615 156.917 88.4252 156.955 88.2604 156.955C88.124 156.955 88.0028 156.925 87.8968 156.866C87.7907 156.805 87.7074 156.714 87.6468 156.593C87.5861 156.471 87.5558 156.317 87.5558 156.131V154.745H87.8911V156.109C87.8911 156.268 87.9356 156.395 88.0246 156.489C88.1146 156.584 88.2291 156.631 88.3683 156.631C88.4517 156.631 88.5364 156.61 88.6226 156.567C88.7097 156.525 88.7826 156.459 88.8414 156.371C88.901 156.283 88.9308 156.171 88.9308 156.035ZM89.8801 156.927V154.745H90.2039V155.074H90.2267C90.2664 154.967 90.3384 154.879 90.4426 154.812C90.5467 154.744 90.6642 154.711 90.7948 154.711C90.8195 154.711 90.8502 154.711 90.8872 154.712C90.9241 154.713 90.952 154.715 90.971 154.717V155.057C90.9596 155.055 90.9336 155.05 90.8928 155.045C90.8531 155.038 90.8109 155.035 90.7664 155.035C90.6604 155.035 90.5657 155.057 90.4823 155.101C90.3999 155.145 90.3346 155.206 90.2863 155.283C90.239 155.36 90.2153 155.448 90.2153 155.546V156.927H89.8801ZM93.4365 156.927H92.5388V154.018H93.4763C93.7585 154.018 94 154.076 94.2007 154.192C94.4015 154.308 94.5554 154.474 94.6624 154.691C94.7694 154.907 94.8229 155.165 94.8229 155.467C94.8229 155.77 94.7689 156.03 94.661 156.249C94.553 156.467 94.3958 156.635 94.1894 156.752C93.9829 156.869 93.732 156.927 93.4365 156.927ZM92.8911 156.614H93.4138C93.6543 156.614 93.8537 156.568 94.0118 156.475C94.17 156.382 94.2878 156.25 94.3655 156.079C94.4432 155.907 94.482 155.703 94.482 155.467C94.482 155.232 94.4436 155.03 94.3669 154.86C94.2902 154.69 94.1756 154.559 94.0232 154.468C93.8707 154.376 93.6808 154.33 93.4536 154.33H92.8911V156.614ZM96.2831 156.972C96.0729 156.972 95.8915 156.926 95.7391 156.833C95.5876 156.739 95.4706 156.609 95.3882 156.441C95.3068 156.272 95.2661 156.076 95.2661 155.853C95.2661 155.629 95.3068 155.432 95.3882 155.262C95.4706 155.091 95.5852 154.957 95.732 154.861C95.8797 154.765 96.0521 154.717 96.249 154.717C96.3627 154.717 96.4749 154.735 96.5857 154.773C96.6965 154.811 96.7973 154.873 96.8882 154.958C96.9791 155.042 97.0516 155.154 97.1056 155.293C97.1595 155.432 97.1865 155.604 97.1865 155.807V155.949H95.5047V155.66H96.8456C96.8456 155.537 96.821 155.427 96.7718 155.33C96.7235 155.234 96.6543 155.157 96.5644 155.101C96.4753 155.046 96.3702 155.018 96.249 155.018C96.1155 155.018 96 155.051 95.9024 155.117C95.8058 155.182 95.7315 155.268 95.6794 155.373C95.6273 155.478 95.6013 155.591 95.6013 155.711V155.904C95.6013 156.069 95.6297 156.208 95.6865 156.323C95.7443 156.437 95.8243 156.523 95.9266 156.583C96.0289 156.642 96.1477 156.671 96.2831 156.671C96.3712 156.671 96.4507 156.659 96.5218 156.634C96.5937 156.609 96.6557 156.571 96.7078 156.521C96.7599 156.469 96.8002 156.406 96.8286 156.33L97.1524 156.421C97.1183 156.531 97.061 156.628 96.9806 156.711C96.9001 156.793 96.8006 156.858 96.6823 156.904C96.5639 156.949 96.4308 156.972 96.2831 156.972ZM99.2419 155.234L98.9408 155.319C98.9218 155.269 98.8939 155.22 98.857 155.172C98.821 155.124 98.7718 155.084 98.7093 155.053C98.6468 155.022 98.5667 155.006 98.4692 155.006C98.3357 155.006 98.2244 155.037 98.1354 155.099C98.0473 155.159 98.0033 155.236 98.0033 155.33C98.0033 155.414 98.0336 155.479 98.0942 155.528C98.1548 155.576 98.2495 155.616 98.3783 155.648L98.7021 155.728C98.8972 155.775 99.0426 155.848 99.1382 155.945C99.2339 156.042 99.2817 156.166 99.2817 156.319C99.2817 156.444 99.2457 156.556 99.1737 156.654C99.1027 156.753 99.0033 156.83 98.8754 156.887C98.7476 156.944 98.5989 156.972 98.4294 156.972C98.2069 156.972 98.0227 156.924 97.8769 156.827C97.731 156.731 97.6387 156.59 97.5999 156.404L97.9181 156.324C97.9484 156.442 98.0057 156.53 98.0899 156.589C98.1752 156.647 98.2864 156.677 98.4237 156.677C98.58 156.677 98.704 156.644 98.7959 156.577C98.8887 156.51 98.9351 156.43 98.9351 156.336C98.9351 156.26 98.9086 156.197 98.8556 156.146C98.8025 156.093 98.7211 156.055 98.6112 156.029L98.2476 155.944C98.0478 155.896 97.901 155.823 97.8073 155.724C97.7145 155.623 97.6681 155.498 97.6681 155.347C97.6681 155.224 97.7026 155.115 97.7718 155.021C97.8418 154.926 97.937 154.851 98.0573 154.797C98.1785 154.744 98.3158 154.717 98.4692 154.717C98.6851 154.717 98.8546 154.764 98.9777 154.859C99.1018 154.953 99.1898 155.078 99.2419 155.234ZM100.735 154.745V155.029H99.6045V154.745H100.735ZM99.934 154.222H100.269V156.302C100.269 156.396 100.283 156.467 100.31 156.515C100.339 156.561 100.375 156.592 100.418 156.609C100.463 156.624 100.51 156.631 100.559 156.631C100.596 156.631 100.626 156.629 100.65 156.626C100.674 156.621 100.693 156.617 100.707 156.614L100.775 156.915C100.752 156.924 100.72 156.932 100.68 156.941C100.639 156.95 100.587 156.955 100.525 156.955C100.43 156.955 100.337 156.935 100.247 156.894C100.157 156.853 100.082 156.791 100.022 156.708C99.9634 156.625 99.934 156.52 99.934 156.393V154.222ZM101.239 156.927V154.745H101.575V156.927H101.239ZM101.41 154.381C101.345 154.381 101.288 154.359 101.241 154.315C101.194 154.27 101.171 154.217 101.171 154.154C101.171 154.092 101.194 154.038 101.241 153.994C101.288 153.949 101.345 153.927 101.41 153.927C101.475 153.927 101.531 153.949 101.578 153.994C101.625 154.038 101.649 154.092 101.649 154.154C101.649 154.217 101.625 154.27 101.578 154.315C101.531 154.359 101.475 154.381 101.41 154.381ZM102.524 155.614V156.927H102.189V154.745H102.513V155.086H102.541C102.592 154.975 102.67 154.886 102.774 154.819C102.878 154.751 103.013 154.717 103.177 154.717C103.325 154.717 103.454 154.747 103.565 154.807C103.676 154.867 103.762 154.958 103.824 155.08C103.885 155.201 103.916 155.355 103.916 155.54V156.927H103.581V155.563C103.581 155.392 103.536 155.258 103.447 155.163C103.358 155.066 103.236 155.018 103.081 155.018C102.974 155.018 102.878 155.041 102.794 155.087C102.71 155.134 102.645 155.201 102.596 155.29C102.548 155.379 102.524 155.487 102.524 155.614ZM105.171 156.978C105.032 156.978 104.907 156.952 104.794 156.9C104.681 156.847 104.592 156.771 104.526 156.671C104.459 156.571 104.426 156.449 104.426 156.307C104.426 156.182 104.451 156.081 104.5 156.003C104.549 155.925 104.615 155.863 104.698 155.819C104.78 155.774 104.871 155.741 104.97 155.719C105.071 155.697 105.171 155.679 105.273 155.665C105.405 155.648 105.513 155.636 105.595 155.627C105.679 155.618 105.739 155.602 105.777 155.58C105.816 155.558 105.835 155.521 105.835 155.467V155.455C105.835 155.315 105.797 155.206 105.72 155.128C105.645 155.051 105.529 155.012 105.375 155.012C105.215 155.012 105.09 155.047 104.999 155.117C104.908 155.187 104.844 155.262 104.807 155.342L104.489 155.228C104.546 155.095 104.621 154.992 104.716 154.918C104.812 154.843 104.916 154.791 105.028 154.762C105.142 154.732 105.254 154.717 105.364 154.717C105.434 154.717 105.514 154.725 105.605 154.742C105.697 154.758 105.786 154.792 105.871 154.843C105.957 154.894 106.028 154.971 106.085 155.074C106.142 155.178 106.171 155.316 106.171 155.489V156.927H105.835V156.631H105.818C105.796 156.679 105.758 156.729 105.705 156.783C105.652 156.837 105.581 156.883 105.493 156.921C105.405 156.959 105.297 156.978 105.171 156.978ZM105.222 156.677C105.354 156.677 105.466 156.651 105.557 156.599C105.649 156.547 105.718 156.479 105.764 156.397C105.812 156.315 105.835 156.228 105.835 156.137V155.83C105.821 155.847 105.79 155.863 105.742 155.877C105.694 155.89 105.639 155.902 105.577 155.913C105.515 155.922 105.455 155.931 105.396 155.938C105.339 155.945 105.292 155.95 105.256 155.955C105.169 155.967 105.087 155.985 105.011 156.011C104.937 156.035 104.876 156.073 104.83 156.123C104.784 156.172 104.761 156.239 104.761 156.324C104.761 156.441 104.805 156.529 104.891 156.589C104.978 156.647 105.088 156.677 105.222 156.677ZM107.731 154.745V155.029H106.601V154.745H107.731ZM106.93 154.222H107.265V156.302C107.265 156.396 107.279 156.467 107.307 156.515C107.335 156.561 107.371 156.592 107.415 156.609C107.459 156.624 107.506 156.631 107.555 156.631C107.592 156.631 107.622 156.629 107.646 156.626C107.67 156.621 107.689 156.617 107.703 156.614L107.771 156.915C107.748 156.924 107.717 156.932 107.676 156.941C107.635 156.95 107.584 156.955 107.521 156.955C107.426 156.955 107.334 156.935 107.243 156.894C107.153 156.853 107.078 156.791 107.018 156.708C106.959 156.625 106.93 156.52 106.93 156.393V154.222ZM108.236 156.927V154.745H108.571V156.927H108.236ZM108.406 154.381C108.341 154.381 108.284 154.359 108.237 154.315C108.191 154.27 108.167 154.217 108.167 154.154C108.167 154.092 108.191 154.038 108.237 153.994C108.284 153.949 108.341 153.927 108.406 153.927C108.471 153.927 108.527 153.949 108.574 153.994C108.621 154.038 108.645 154.092 108.645 154.154C108.645 154.217 108.621 154.27 108.574 154.315C108.527 154.359 108.471 154.381 108.406 154.381ZM110.071 156.972C109.874 156.972 109.701 156.925 109.553 156.832C109.405 156.738 109.289 156.607 109.206 156.438C109.124 156.27 109.082 156.073 109.082 155.847C109.082 155.62 109.124 155.422 109.206 155.252C109.289 155.083 109.405 154.951 109.553 154.857C109.701 154.763 109.874 154.717 110.071 154.717C110.268 154.717 110.44 154.763 110.588 154.857C110.737 154.951 110.852 155.083 110.935 155.252C111.018 155.422 111.06 155.62 111.06 155.847C111.06 156.073 111.018 156.27 110.935 156.438C110.852 156.607 110.737 156.738 110.588 156.832C110.44 156.925 110.268 156.972 110.071 156.972ZM110.071 156.671C110.221 156.671 110.344 156.633 110.44 156.556C110.537 156.479 110.609 156.378 110.655 156.253C110.701 156.128 110.725 155.993 110.725 155.847C110.725 155.701 110.701 155.565 110.655 155.44C110.609 155.314 110.537 155.212 110.44 155.134C110.344 155.056 110.221 155.018 110.071 155.018C109.921 155.018 109.798 155.056 109.702 155.134C109.605 155.212 109.534 155.314 109.487 155.44C109.441 155.565 109.418 155.701 109.418 155.847C109.418 155.993 109.441 156.128 109.487 156.253C109.534 156.378 109.605 156.479 109.702 156.556C109.798 156.633 109.921 156.671 110.071 156.671ZM111.907 155.614V156.927H111.571V154.745H111.895V155.086H111.924C111.975 154.975 112.053 154.886 112.157 154.819C112.261 154.751 112.395 154.717 112.56 154.717C112.708 154.717 112.837 154.747 112.948 154.807C113.059 154.867 113.145 154.958 113.206 155.08C113.268 155.201 113.299 155.355 113.299 155.54V156.927H112.964V155.563C112.964 155.392 112.919 155.258 112.83 155.163C112.741 155.066 112.619 155.018 112.464 155.018C112.357 155.018 112.261 155.041 112.177 155.087C112.093 155.134 112.027 155.201 111.979 155.29C111.931 155.379 111.907 155.487 111.907 155.614Z" fill="white"/>
<path d="M67.8041 164.818C68.6384 164.818 69.3147 164.142 69.3147 163.308C69.3147 162.474 68.6384 161.798 67.8041 161.798C66.9698 161.798 66.2935 162.474 66.2935 163.308C66.2935 164.142 66.9698 164.818 67.8041 164.818Z" fill="#A751E5"/>
<path d="M132.317 164.036H72.5419C72.1405 164.036 71.813 163.709 71.813 163.308C71.813 162.906 72.1405 162.579 72.5419 162.579H132.317C132.719 162.579 133.041 162.906 133.041 163.308C133.041 163.709 132.714 164.036 132.317 164.036Z" fill="#A751E5"/>
<path d="M107.804 167.659H72.5473C72.1458 167.659 71.8184 167.332 71.8184 166.93C71.8184 166.529 72.1458 166.202 72.5473 166.202H107.804C108.206 166.202 108.528 166.529 108.528 166.93C108.528 167.332 108.2 167.659 107.804 167.659Z" fill="#A751E5"/>
<path d="M69.3147 171.825C69.3147 172.659 68.6386 173.335 67.8041 173.335C66.9695 173.335 66.2935 172.659 66.2935 171.825C66.2935 170.99 66.9695 170.314 67.8041 170.314C68.6386 170.314 69.3147 170.99 69.3147 171.825Z" fill="#A751E5"/>
<path d="M132.317 172.553H72.5419C72.1405 172.553 71.813 172.226 71.813 171.824C71.813 171.423 72.1405 171.096 72.5419 171.096H132.317C132.719 171.096 133.041 171.423 133.041 171.824C133.041 172.226 132.714 172.553 132.317 172.553Z" fill="#A751E5"/>
<path d="M107.804 176.176H72.5473C72.1458 176.176 71.8184 175.848 71.8184 175.447C71.8184 175.046 72.1458 174.718 72.5473 174.718H107.804C108.206 174.718 108.528 175.046 108.528 175.447C108.528 175.848 108.2 176.176 107.804 176.176Z" fill="#A751E5"/>
</g>
<defs>
<clipPath id="clip0_1071_8535">
<rect width="340.494" height="207" fill="white"/>
</clipPath>
</defs>
</svg>
