<svg width="68" height="14" viewBox="0 0 68 14" fill="none" xmlns="http://www.w3.org/2000/svg">
<path d="M3.276 8.05H6.123V10H0.728V0.834999H3.276V8.05ZM14.0817 6.269C14.0817 6.46833 14.0687 6.66767 14.0427 6.867H9.21974C9.24574 7.26567 9.35408 7.56467 9.54474 7.764C9.74408 7.95467 9.99541 8.05 10.2987 8.05C10.7234 8.05 11.0267 7.85933 11.2087 7.478H13.9257C13.8131 7.98067 13.5921 8.43133 13.2627 8.83C12.9421 9.22 12.5347 9.52767 12.0407 9.753C11.5467 9.97833 11.0007 10.091 10.4027 10.091C9.68341 10.091 9.04208 9.93933 8.47874 9.636C7.92408 9.33267 7.48641 8.89933 7.16574 8.336C6.85374 7.77267 6.69774 7.10967 6.69774 6.347C6.69774 5.58433 6.85374 4.92567 7.16574 4.371C7.47774 3.80767 7.91108 3.37433 8.46574 3.071C9.02908 2.76767 9.67474 2.616 10.4027 2.616C11.1221 2.616 11.7591 2.76333 12.3137 3.058C12.8684 3.35267 13.3017 3.77733 13.6137 4.332C13.9257 4.878 14.0817 5.52367 14.0817 6.269ZM11.4817 5.632C11.4817 5.32 11.3777 5.07733 11.1697 4.904C10.9617 4.722 10.7017 4.631 10.3897 4.631C10.0777 4.631 9.82208 4.71767 9.62274 4.891C9.42341 5.05567 9.29341 5.30267 9.23274 5.632H11.4817ZM17.8155 2.616C18.3095 2.616 18.7385 2.71567 19.1025 2.915C19.4752 3.11433 19.7612 3.383 19.9605 3.721V2.707H22.5085V9.922C22.5085 10.6067 22.3785 11.222 22.1185 11.768C21.8585 12.3227 21.4512 12.7647 20.8965 13.094C20.3505 13.4233 19.6572 13.588 18.8165 13.588C17.6898 13.588 16.7885 13.3237 16.1125 12.795C15.4365 12.2663 15.0508 11.547 14.9555 10.637H17.4645C17.5165 10.871 17.6465 11.053 17.8545 11.183C18.0625 11.313 18.3312 11.378 18.6605 11.378C19.5272 11.378 19.9605 10.8927 19.9605 9.922V8.986C19.7612 9.324 19.4752 9.59267 19.1025 9.792C18.7385 9.99133 18.3095 10.091 17.8155 10.091C17.2348 10.091 16.7062 9.93933 16.2295 9.636C15.7615 9.33267 15.3888 8.89933 15.1115 8.336C14.8428 7.764 14.7085 7.101 14.7085 6.347C14.7085 5.593 14.8428 4.93433 15.1115 4.371C15.3888 3.80767 15.7615 3.37433 16.2295 3.071C16.7062 2.76767 17.2348 2.616 17.8155 2.616ZM19.9605 6.347C19.9605 5.879 19.8305 5.51067 19.5705 5.242C19.3192 4.97333 19.0072 4.839 18.6345 4.839C18.2532 4.839 17.9368 4.97333 17.6855 5.242C17.4342 5.502 17.3085 5.87033 17.3085 6.347C17.3085 6.815 17.4342 7.18767 17.6855 7.465C17.9368 7.73367 18.2532 7.868 18.6345 7.868C19.0072 7.868 19.3192 7.73367 19.5705 7.465C19.8305 7.19633 19.9605 6.82367 19.9605 6.347ZM23.5444 6.347C23.5444 5.593 23.6788 4.93433 23.9474 4.371C24.2248 3.80767 24.5974 3.37433 25.0654 3.071C25.5421 2.76767 26.0708 2.616 26.6514 2.616C27.1541 2.616 27.5874 2.71567 27.9514 2.915C28.3154 3.11433 28.5971 3.383 28.7964 3.721V2.707H31.3444V10H28.7964V8.986C28.5971 9.324 28.3111 9.59267 27.9384 9.792C27.5744 9.99133 27.1454 10.091 26.6514 10.091C26.0708 10.091 25.5421 9.93933 25.0654 9.636C24.5974 9.33267 24.2248 8.89933 23.9474 8.336C23.6788 7.764 23.5444 7.101 23.5444 6.347ZM28.7964 6.347C28.7964 5.879 28.6664 5.51067 28.4064 5.242C28.1551 4.97333 27.8431 4.839 27.4704 4.839C27.0891 4.839 26.7728 4.97333 26.5214 5.242C26.2701 5.502 26.1444 5.87033 26.1444 6.347C26.1444 6.815 26.2701 7.18767 26.5214 7.465C26.7728 7.73367 27.0891 7.868 27.4704 7.868C27.8431 7.868 28.1551 7.73367 28.4064 7.465C28.6664 7.19633 28.7964 6.82367 28.7964 6.347ZM35.3444 0.38V10H32.7964V0.38H35.3444ZM39.3434 2.876V4.371H42.2684V6.308H39.3434V7.959H42.6584V10H36.7954V0.834999H42.6584V2.876H39.3434ZM43.5015 6.347C43.5015 5.593 43.6358 4.93433 43.9045 4.371C44.1818 3.80767 44.5545 3.37433 45.0225 3.071C45.4991 2.76767 46.0278 2.616 46.6085 2.616C47.1111 2.616 47.5445 2.71567 47.9085 2.915C48.2725 3.11433 48.5541 3.383 48.7535 3.721V2.707H51.3015V10H48.7535V8.986C48.5541 9.324 48.2681 9.59267 47.8955 9.792C47.5315 9.99133 47.1025 10.091 46.6085 10.091C46.0278 10.091 45.4991 9.93933 45.0225 9.636C44.5545 9.33267 44.1818 8.89933 43.9045 8.336C43.6358 7.764 43.5015 7.101 43.5015 6.347ZM48.7535 6.347C48.7535 5.879 48.6235 5.51067 48.3635 5.242C48.1121 4.97333 47.8001 4.839 47.4275 4.839C47.0461 4.839 46.7298 4.97333 46.4785 5.242C46.2271 5.502 46.1015 5.87033 46.1015 6.347C46.1015 6.815 46.2271 7.18767 46.4785 7.465C46.7298 7.73367 47.0461 7.868 47.4275 7.868C47.8001 7.868 48.1121 7.73367 48.3635 7.465C48.6235 7.19633 48.7535 6.82367 48.7535 6.347ZM55.8604 10.091C55.2017 10.091 54.6124 9.98267 54.0924 9.766C53.5811 9.54067 53.1737 9.23733 52.8704 8.856C52.5757 8.466 52.4111 8.02833 52.3764 7.543H54.8464C54.8811 7.777 54.9894 7.959 55.1714 8.089C55.3534 8.219 55.5787 8.284 55.8474 8.284C56.0554 8.284 56.2201 8.24067 56.3414 8.154C56.4627 8.06733 56.5234 7.95467 56.5234 7.816C56.5234 7.634 56.4237 7.49967 56.2244 7.413C56.0251 7.32633 55.6957 7.231 55.2364 7.127C54.7164 7.023 54.2831 6.906 53.9364 6.776C53.5897 6.646 53.2864 6.43367 53.0264 6.139C52.7751 5.84433 52.6494 5.44567 52.6494 4.943C52.6494 4.50967 52.7664 4.11967 53.0004 3.773C53.2344 3.41767 53.5767 3.136 54.0274 2.928C54.4867 2.72 55.0371 2.616 55.6784 2.616C56.6317 2.616 57.3814 2.85 57.9274 3.318C58.4734 3.786 58.7897 4.40133 58.8764 5.164H56.5754C56.5321 4.93 56.4281 4.75233 56.2634 4.631C56.1074 4.501 55.8951 4.436 55.6264 4.436C55.4184 4.436 55.2581 4.475 55.1454 4.553C55.0414 4.631 54.9894 4.73933 54.9894 4.878C54.9894 5.05133 55.0891 5.18567 55.2884 5.281C55.4877 5.36767 55.8084 5.45867 56.2504 5.554C56.7791 5.66667 57.2167 5.79233 57.5634 5.931C57.9187 6.06967 58.2264 6.295 58.4864 6.607C58.7551 6.91033 58.8894 7.32633 58.8894 7.855C58.8894 8.27967 58.7637 8.661 58.5124 8.999C58.2697 9.337 57.9187 9.60567 57.4594 9.805C57.0087 9.99567 56.4757 10.091 55.8604 10.091ZM67.1101 6.269C67.1101 6.46833 67.0971 6.66767 67.0711 6.867H62.2481C62.2741 7.26567 62.3824 7.56467 62.5731 7.764C62.7724 7.95467 63.0237 8.05 63.3271 8.05C63.7517 8.05 64.0551 7.85933 64.2371 7.478H66.9541C66.8414 7.98067 66.6204 8.43133 66.2911 8.83C65.9704 9.22 65.5631 9.52767 65.0691 9.753C64.5751 9.97833 64.0291 10.091 63.4311 10.091C62.7117 10.091 62.0704 9.93933 61.5071 9.636C60.9524 9.33267 60.5147 8.89933 60.1941 8.336C59.8821 7.77267 59.7261 7.10967 59.7261 6.347C59.7261 5.58433 59.8821 4.92567 60.1941 4.371C60.5061 3.80767 60.9394 3.37433 61.4941 3.071C62.0574 2.76767 62.7031 2.616 63.4311 2.616C64.1504 2.616 64.7874 2.76333 65.3421 3.058C65.8967 3.35267 66.3301 3.77733 66.6421 4.332C66.9541 4.878 67.1101 5.52367 67.1101 6.269ZM64.5101 5.632C64.5101 5.32 64.4061 5.07733 64.1981 4.904C63.9901 4.722 63.7301 4.631 63.4181 4.631C63.1061 4.631 62.8504 4.71767 62.6511 4.891C62.4517 5.05567 62.3217 5.30267 62.2611 5.632H64.5101Z" fill="#8D353A"/>
</svg>
