<svg width="216" height="101" viewBox="0 0 216 101" fill="none" xmlns="http://www.w3.org/2000/svg">
<rect x="81" width="52" height="52" rx="6" fill="#8D353A"/>
<g clip-path="url(#clip0_109_4218)">
<mask id="path-2-outside-1_109_4218" maskUnits="userSpaceOnUse" x="84.9189" y="4.13782" width="41" height="41" fill="black">
<rect fill="white" x="84.9189" y="4.13782" width="41" height="41"/>
<path d="M113.09 23.8378C112.818 24.102 112.668 24.4562 112.665 24.8349C112.663 25.2137 112.809 25.57 113.077 25.8377L113.953 26.7132C114.18 26.9409 114.461 27.0836 114.754 27.1419C114.813 27.4356 114.955 27.716 115.182 27.943L115.941 28.7005C116.237 28.9977 116.632 29.1608 117.052 29.1608C117.472 29.1608 117.867 28.9977 118.164 28.7005L124.387 22.4774C125 21.8646 125 20.8668 124.387 20.254L123.629 19.4965C123.403 19.2695 123.123 19.1276 122.83 19.0685C122.77 18.7671 122.622 18.4895 122.4 18.2668L121.523 17.3898C121.259 17.1249 120.897 16.9597 120.516 16.9766C120.143 16.9787 119.796 17.1256 119.536 17.3905L112.568 10.4464C112.839 10.1822 112.989 9.82801 112.992 9.44925C112.995 9.07049 112.848 8.71422 112.58 8.44649L111.705 7.57093C111.485 7.35028 111.203 7.21255 110.906 7.15563C110.849 6.85698 110.705 6.57168 110.475 6.3412L109.717 5.58368C109.124 4.9899 108.088 4.98849 107.493 5.58368L101.27 11.8061C100.973 12.1034 100.81 12.4976 100.81 12.9178C100.81 13.3387 100.973 13.7329 101.27 14.0302L102.028 14.7877C102.25 15.0097 102.527 15.1573 102.828 15.2177C102.889 15.5185 103.035 15.7954 103.257 16.0174L104.133 16.893C104.397 17.1565 104.761 17.3076 105.133 17.3076C105.136 17.3076 105.139 17.3076 105.141 17.3076C105.515 17.3055 105.862 17.1579 106.121 16.893L107.242 18.0152C107.446 18.2183 107.446 18.55 107.242 18.753L102.146 23.8497L101.648 23.3522C100.825 22.5308 99.4881 22.5308 98.6667 23.3529C97.8452 24.1751 97.8452 25.5123 98.6667 26.3345L99.1635 26.8313L92.7914 33.2034C92.4211 33.5737 91.9559 33.8372 91.4464 33.9651L89.4044 34.4753C88.6489 34.665 87.9575 35.0557 87.4066 35.6067L87.1775 35.835C86.3666 36.6488 85.9189 37.7281 85.9189 38.8763C85.9189 40.0245 86.3666 41.106 87.1789 41.9183L88.0524 42.7911C88.8654 43.6034 89.9454 44.051 91.0936 44.051C92.2426 44.051 93.3226 43.6034 94.1356 42.7911L94.364 42.5627C94.9149 42.0125 95.3064 41.321 95.4954 40.5642L96.0055 38.5229C96.1327 38.0141 96.3962 37.5489 96.7673 37.1779L103.139 30.8058L103.636 31.3026C104.433 32.0988 105.822 32.0981 106.617 31.3033C107.015 30.9056 107.235 30.3757 107.235 29.8122C107.235 29.2493 107.015 28.7195 106.617 28.3217L106.12 27.8249L111.217 22.7282C111.421 22.5244 111.752 22.5244 111.955 22.7275L113.09 23.8378ZM123.443 21.3657C123.443 21.3973 123.434 21.443 123.394 21.4837L117.171 27.7069C117.09 27.7877 117.016 27.7877 116.936 27.7069L116.177 26.9494C116.112 26.884 116.112 26.7786 116.177 26.7132L122.4 20.4901C122.433 20.4578 122.476 20.4416 122.519 20.4416C122.561 20.4416 122.604 20.4578 122.637 20.4901L123.394 21.2476C123.434 21.2877 123.443 21.3341 123.443 21.3657ZM102.215 12.9178C102.215 12.8862 102.223 12.8405 102.263 12.7997L108.486 6.5773C108.527 6.53655 108.573 6.52882 108.604 6.52882C108.636 6.52882 108.682 6.53725 108.722 6.5773L109.48 7.33482C109.545 7.40017 109.545 7.50557 109.48 7.57093L103.257 13.7941C103.192 13.8594 103.086 13.8587 103.021 13.7941L102.263 13.0365C102.223 12.9958 102.215 12.9501 102.215 12.9178ZM110.224 21.7339L104.134 27.8249L105.624 29.3154C105.757 29.4482 105.83 29.6245 105.83 29.8122C105.83 30.0005 105.757 30.1762 105.624 30.309C105.359 30.5753 104.896 30.5753 104.631 30.309L103.139 28.8185L95.7736 36.1843C95.222 36.7352 94.8313 37.4267 94.6423 38.1828L94.1321 40.2241C94.0049 40.7336 93.7414 41.1981 93.3704 41.5691L93.142 41.7975C92.5946 42.3449 91.8666 42.6463 91.0936 42.6463C90.3319 42.6463 89.5856 42.3371 89.046 41.7982L88.1732 40.9254C87.6258 40.3773 87.3244 39.65 87.3244 38.8763C87.3244 38.1027 87.6258 37.3761 88.1725 36.8287L88.4009 36.6003C88.7726 36.2292 89.2378 35.9657 89.7466 35.8378L91.7886 35.3277C92.5454 35.138 93.2362 34.7472 93.7864 34.197L101.153 26.8313L99.6617 25.3409C99.3876 25.0668 99.3876 24.6206 99.6617 24.3465C99.7987 24.2102 99.9786 24.1414 100.159 24.1414C100.338 24.1414 100.518 24.2102 100.656 24.3465L102.146 25.837L108.237 19.7467C108.988 18.9962 108.988 17.7728 108.237 17.0216L107.115 15.8994C106.85 15.6337 106.497 15.4876 106.122 15.4876C106.119 15.4876 106.115 15.4876 106.113 15.4876C105.734 15.4897 105.38 15.6408 105.127 15.8994L104.252 15.0238C104.211 14.983 104.203 14.9374 104.203 14.9057C104.203 14.8741 104.212 14.8284 104.252 14.7877L110.476 8.56455C110.556 8.48374 110.63 8.48374 110.711 8.56455L111.587 9.44011C111.322 9.69871 111.175 10.0465 111.173 10.4204C111.171 10.7956 111.322 11.1631 111.587 11.4281L118.543 18.3841C118.809 18.6497 119.162 18.7959 119.537 18.7959C119.54 18.7959 119.543 18.7959 119.546 18.7959C119.925 18.7938 120.278 18.6427 120.531 18.3841L121.407 19.2611C121.447 19.3011 121.455 19.3468 121.455 19.3777C121.455 19.4101 121.447 19.4557 121.407 19.4965L115.183 25.7196C115.117 25.7836 115.012 25.7843 114.948 25.7196L114.073 24.8434C114.337 24.5848 114.484 24.2376 114.486 23.8638C114.488 23.4892 114.338 23.121 114.072 22.8554L112.95 21.7332C112.197 20.9834 110.975 20.9834 110.224 21.7339Z"/>
</mask>
<path d="M113.09 23.8378C112.818 24.102 112.668 24.4562 112.665 24.8349C112.663 25.2137 112.809 25.57 113.077 25.8377L113.953 26.7132C114.18 26.9409 114.461 27.0836 114.754 27.1419C114.813 27.4356 114.955 27.716 115.182 27.943L115.941 28.7005C116.237 28.9977 116.632 29.1608 117.052 29.1608C117.472 29.1608 117.867 28.9977 118.164 28.7005L124.387 22.4774C125 21.8646 125 20.8668 124.387 20.254L123.629 19.4965C123.403 19.2695 123.123 19.1276 122.83 19.0685C122.77 18.7671 122.622 18.4895 122.4 18.2668L121.523 17.3898C121.259 17.1249 120.897 16.9597 120.516 16.9766C120.143 16.9787 119.796 17.1256 119.536 17.3905L112.568 10.4464C112.839 10.1822 112.989 9.82801 112.992 9.44925C112.995 9.07049 112.848 8.71422 112.58 8.44649L111.705 7.57093C111.485 7.35028 111.203 7.21255 110.906 7.15563C110.849 6.85698 110.705 6.57168 110.475 6.3412L109.717 5.58368C109.124 4.9899 108.088 4.98849 107.493 5.58368L101.27 11.8061C100.973 12.1034 100.81 12.4976 100.81 12.9178C100.81 13.3387 100.973 13.7329 101.27 14.0302L102.028 14.7877C102.25 15.0097 102.527 15.1573 102.828 15.2177C102.889 15.5185 103.035 15.7954 103.257 16.0174L104.133 16.893C104.397 17.1565 104.761 17.3076 105.133 17.3076C105.136 17.3076 105.139 17.3076 105.141 17.3076C105.515 17.3055 105.862 17.1579 106.121 16.893L107.242 18.0152C107.446 18.2183 107.446 18.55 107.242 18.753L102.146 23.8497L101.648 23.3522C100.825 22.5308 99.4881 22.5308 98.6667 23.3529C97.8452 24.1751 97.8452 25.5123 98.6667 26.3345L99.1635 26.8313L92.7914 33.2034C92.4211 33.5737 91.9559 33.8372 91.4464 33.9651L89.4044 34.4753C88.6489 34.665 87.9575 35.0557 87.4066 35.6067L87.1775 35.835C86.3666 36.6488 85.9189 37.7281 85.9189 38.8763C85.9189 40.0245 86.3666 41.106 87.1789 41.9183L88.0524 42.7911C88.8654 43.6034 89.9454 44.051 91.0936 44.051C92.2426 44.051 93.3226 43.6034 94.1356 42.7911L94.364 42.5627C94.9149 42.0125 95.3064 41.321 95.4954 40.5642L96.0055 38.5229C96.1327 38.0141 96.3962 37.5489 96.7673 37.1779L103.139 30.8058L103.636 31.3026C104.433 32.0988 105.822 32.0981 106.617 31.3033C107.015 30.9056 107.235 30.3757 107.235 29.8122C107.235 29.2493 107.015 28.7195 106.617 28.3217L106.12 27.8249L111.217 22.7282C111.421 22.5244 111.752 22.5244 111.955 22.7275L113.09 23.8378ZM123.443 21.3657C123.443 21.3973 123.434 21.443 123.394 21.4837L117.171 27.7069C117.09 27.7877 117.016 27.7877 116.936 27.7069L116.177 26.9494C116.112 26.884 116.112 26.7786 116.177 26.7132L122.4 20.4901C122.433 20.4578 122.476 20.4416 122.519 20.4416C122.561 20.4416 122.604 20.4578 122.637 20.4901L123.394 21.2476C123.434 21.2877 123.443 21.3341 123.443 21.3657ZM102.215 12.9178C102.215 12.8862 102.223 12.8405 102.263 12.7997L108.486 6.5773C108.527 6.53655 108.573 6.52882 108.604 6.52882C108.636 6.52882 108.682 6.53725 108.722 6.5773L109.48 7.33482C109.545 7.40017 109.545 7.50557 109.48 7.57093L103.257 13.7941C103.192 13.8594 103.086 13.8587 103.021 13.7941L102.263 13.0365C102.223 12.9958 102.215 12.9501 102.215 12.9178ZM110.224 21.7339L104.134 27.8249L105.624 29.3154C105.757 29.4482 105.83 29.6245 105.83 29.8122C105.83 30.0005 105.757 30.1762 105.624 30.309C105.359 30.5753 104.896 30.5753 104.631 30.309L103.139 28.8185L95.7736 36.1843C95.222 36.7352 94.8313 37.4267 94.6423 38.1828L94.1321 40.2241C94.0049 40.7336 93.7414 41.1981 93.3704 41.5691L93.142 41.7975C92.5946 42.3449 91.8666 42.6463 91.0936 42.6463C90.3319 42.6463 89.5856 42.3371 89.046 41.7982L88.1732 40.9254C87.6258 40.3773 87.3244 39.65 87.3244 38.8763C87.3244 38.1027 87.6258 37.3761 88.1725 36.8287L88.4009 36.6003C88.7726 36.2292 89.2378 35.9657 89.7466 35.8378L91.7886 35.3277C92.5454 35.138 93.2362 34.7472 93.7864 34.197L101.153 26.8313L99.6617 25.3409C99.3876 25.0668 99.3876 24.6206 99.6617 24.3465C99.7987 24.2102 99.9786 24.1414 100.159 24.1414C100.338 24.1414 100.518 24.2102 100.656 24.3465L102.146 25.837L108.237 19.7467C108.988 18.9962 108.988 17.7728 108.237 17.0216L107.115 15.8994C106.85 15.6337 106.497 15.4876 106.122 15.4876C106.119 15.4876 106.115 15.4876 106.113 15.4876C105.734 15.4897 105.38 15.6408 105.127 15.8994L104.252 15.0238C104.211 14.983 104.203 14.9374 104.203 14.9057C104.203 14.8741 104.212 14.8284 104.252 14.7877L110.476 8.56455C110.556 8.48374 110.63 8.48374 110.711 8.56455L111.587 9.44011C111.322 9.69871 111.175 10.0465 111.173 10.4204C111.171 10.7956 111.322 11.1631 111.587 11.4281L118.543 18.3841C118.809 18.6497 119.162 18.7959 119.537 18.7959C119.54 18.7959 119.543 18.7959 119.546 18.7959C119.925 18.7938 120.278 18.6427 120.531 18.3841L121.407 19.2611C121.447 19.3011 121.455 19.3468 121.455 19.3777C121.455 19.4101 121.447 19.4557 121.407 19.4965L115.183 25.7196C115.117 25.7836 115.012 25.7843 114.948 25.7196L114.073 24.8434C114.337 24.5848 114.484 24.2376 114.486 23.8638C114.488 23.4892 114.338 23.121 114.072 22.8554L112.95 21.7332C112.197 20.9834 110.975 20.9834 110.224 21.7339Z" fill="#E9C37A"/>
<path d="M113.09 23.8378C112.818 24.102 112.668 24.4562 112.665 24.8349C112.663 25.2137 112.809 25.57 113.077 25.8377L113.953 26.7132C114.18 26.9409 114.461 27.0836 114.754 27.1419C114.813 27.4356 114.955 27.716 115.182 27.943L115.941 28.7005C116.237 28.9977 116.632 29.1608 117.052 29.1608C117.472 29.1608 117.867 28.9977 118.164 28.7005L124.387 22.4774C125 21.8646 125 20.8668 124.387 20.254L123.629 19.4965C123.403 19.2695 123.123 19.1276 122.83 19.0685C122.77 18.7671 122.622 18.4895 122.4 18.2668L121.523 17.3898C121.259 17.1249 120.897 16.9597 120.516 16.9766C120.143 16.9787 119.796 17.1256 119.536 17.3905L112.568 10.4464C112.839 10.1822 112.989 9.82801 112.992 9.44925C112.995 9.07049 112.848 8.71422 112.58 8.44649L111.705 7.57093C111.485 7.35028 111.203 7.21255 110.906 7.15563C110.849 6.85698 110.705 6.57168 110.475 6.3412L109.717 5.58368C109.124 4.9899 108.088 4.98849 107.493 5.58368L101.27 11.8061C100.973 12.1034 100.81 12.4976 100.81 12.9178C100.81 13.3387 100.973 13.7329 101.27 14.0302L102.028 14.7877C102.25 15.0097 102.527 15.1573 102.828 15.2177C102.889 15.5185 103.035 15.7954 103.257 16.0174L104.133 16.893C104.397 17.1565 104.761 17.3076 105.133 17.3076C105.136 17.3076 105.139 17.3076 105.141 17.3076C105.515 17.3055 105.862 17.1579 106.121 16.893L107.242 18.0152C107.446 18.2183 107.446 18.55 107.242 18.753L102.146 23.8497L101.648 23.3522C100.825 22.5308 99.4881 22.5308 98.6667 23.3529C97.8452 24.1751 97.8452 25.5123 98.6667 26.3345L99.1635 26.8313L92.7914 33.2034C92.4211 33.5737 91.9559 33.8372 91.4464 33.9651L89.4044 34.4753C88.6489 34.665 87.9575 35.0557 87.4066 35.6067L87.1775 35.835C86.3666 36.6488 85.9189 37.7281 85.9189 38.8763C85.9189 40.0245 86.3666 41.106 87.1789 41.9183L88.0524 42.7911C88.8654 43.6034 89.9454 44.051 91.0936 44.051C92.2426 44.051 93.3226 43.6034 94.1356 42.7911L94.364 42.5627C94.9149 42.0125 95.3064 41.321 95.4954 40.5642L96.0055 38.5229C96.1327 38.0141 96.3962 37.5489 96.7673 37.1779L103.139 30.8058L103.636 31.3026C104.433 32.0988 105.822 32.0981 106.617 31.3033C107.015 30.9056 107.235 30.3757 107.235 29.8122C107.235 29.2493 107.015 28.7195 106.617 28.3217L106.12 27.8249L111.217 22.7282C111.421 22.5244 111.752 22.5244 111.955 22.7275L113.09 23.8378ZM123.443 21.3657C123.443 21.3973 123.434 21.443 123.394 21.4837L117.171 27.7069C117.09 27.7877 117.016 27.7877 116.936 27.7069L116.177 26.9494C116.112 26.884 116.112 26.7786 116.177 26.7132L122.4 20.4901C122.433 20.4578 122.476 20.4416 122.519 20.4416C122.561 20.4416 122.604 20.4578 122.637 20.4901L123.394 21.2476C123.434 21.2877 123.443 21.3341 123.443 21.3657ZM102.215 12.9178C102.215 12.8862 102.223 12.8405 102.263 12.7997L108.486 6.5773C108.527 6.53655 108.573 6.52882 108.604 6.52882C108.636 6.52882 108.682 6.53725 108.722 6.5773L109.48 7.33482C109.545 7.40017 109.545 7.50557 109.48 7.57093L103.257 13.7941C103.192 13.8594 103.086 13.8587 103.021 13.7941L102.263 13.0365C102.223 12.9958 102.215 12.9501 102.215 12.9178ZM110.224 21.7339L104.134 27.8249L105.624 29.3154C105.757 29.4482 105.83 29.6245 105.83 29.8122C105.83 30.0005 105.757 30.1762 105.624 30.309C105.359 30.5753 104.896 30.5753 104.631 30.309L103.139 28.8185L95.7736 36.1843C95.222 36.7352 94.8313 37.4267 94.6423 38.1828L94.1321 40.2241C94.0049 40.7336 93.7414 41.1981 93.3704 41.5691L93.142 41.7975C92.5946 42.3449 91.8666 42.6463 91.0936 42.6463C90.3319 42.6463 89.5856 42.3371 89.046 41.7982L88.1732 40.9254C87.6258 40.3773 87.3244 39.65 87.3244 38.8763C87.3244 38.1027 87.6258 37.3761 88.1725 36.8287L88.4009 36.6003C88.7726 36.2292 89.2378 35.9657 89.7466 35.8378L91.7886 35.3277C92.5454 35.138 93.2362 34.7472 93.7864 34.197L101.153 26.8313L99.6617 25.3409C99.3876 25.0668 99.3876 24.6206 99.6617 24.3465C99.7987 24.2102 99.9786 24.1414 100.159 24.1414C100.338 24.1414 100.518 24.2102 100.656 24.3465L102.146 25.837L108.237 19.7467C108.988 18.9962 108.988 17.7728 108.237 17.0216L107.115 15.8994C106.85 15.6337 106.497 15.4876 106.122 15.4876C106.119 15.4876 106.115 15.4876 106.113 15.4876C105.734 15.4897 105.38 15.6408 105.127 15.8994L104.252 15.0238C104.211 14.983 104.203 14.9374 104.203 14.9057C104.203 14.8741 104.212 14.8284 104.252 14.7877L110.476 8.56455C110.556 8.48374 110.63 8.48374 110.711 8.56455L111.587 9.44011C111.322 9.69871 111.175 10.0465 111.173 10.4204C111.171 10.7956 111.322 11.1631 111.587 11.4281L118.543 18.3841C118.809 18.6497 119.162 18.7959 119.537 18.7959C119.54 18.7959 119.543 18.7959 119.546 18.7959C119.925 18.7938 120.278 18.6427 120.531 18.3841L121.407 19.2611C121.447 19.3011 121.455 19.3468 121.455 19.3777C121.455 19.4101 121.447 19.4557 121.407 19.4965L115.183 25.7196C115.117 25.7836 115.012 25.7843 114.948 25.7196L114.073 24.8434C114.337 24.5848 114.484 24.2376 114.486 23.8638C114.488 23.4892 114.338 23.121 114.072 22.8554L112.95 21.7332C112.197 20.9834 110.975 20.9834 110.224 21.7339Z" stroke="#E9C37A" stroke-width="0.4" mask="url(#path-2-outside-1_109_4218)"/>
<path d="M111.819 46.8625V46.9625H111.919H128.081H128.181V46.8625V46.1598C128.181 43.3922 125.93 41.1409 123.162 41.1409H116.838C114.07 41.1409 111.819 43.3929 111.819 46.1598V46.8625ZM126.48 45.3571H113.52C113.882 43.8612 115.233 42.7463 116.838 42.7463H123.162C124.768 42.7463 126.118 43.8612 126.48 45.3571Z" fill="#E9C37A" stroke="#DFB975" stroke-width="0.2"/>
<path d="M115.432 39.0328C114.989 39.0328 114.63 39.3916 114.63 39.8355C114.63 40.2794 114.989 40.6382 115.432 40.6382H124.568C125.011 40.6382 125.37 40.2794 125.37 39.8355C125.37 39.3916 125.011 39.0328 124.568 39.0328H115.432Z" fill="#E9C37A" stroke="#DFB975" stroke-width="0.2"/>
</g>
<path d="M1.46875 67.5781H6.42188V87.6562H20.625V92H1.46875V67.5781Z" fill="#8D353A"/>
<path d="M23.9844 82.7188C23.9844 81.4688 24.2396 80.276 24.75 79.1406C25.2604 77.9948 25.9948 76.9844 26.9531 76.1094C27.9115 75.2344 29.0833 74.5365 30.4688 74.0156C31.8646 73.4948 33.4479 73.2344 35.2188 73.2344C36.9792 73.2344 38.5625 73.5 39.9688 74.0312C41.3854 74.5521 42.5833 75.2708 43.5625 76.1875C44.5521 77.1042 45.3073 78.1823 45.8281 79.4219C46.3594 80.6615 46.625 81.9896 46.625 83.4062C46.625 83.5833 46.6198 83.776 46.6094 83.9844C46.6094 84.1823 46.599 84.3646 46.5781 84.5312H29.1406C29.3385 85.0833 29.6562 85.5885 30.0938 86.0469C30.5417 86.5052 31.099 86.901 31.7656 87.2344C32.4323 87.5677 33.2031 87.8281 34.0781 88.0156C34.9531 88.1927 35.9219 88.2812 36.9844 88.2812C38.0469 88.2812 39.1042 88.1719 40.1562 87.9531C41.2083 87.724 42.2135 87.4375 43.1719 87.0938L44.7344 90.625C44.1302 90.9062 43.5156 91.1562 42.8906 91.375C42.276 91.5833 41.6302 91.7604 40.9531 91.9062C40.2865 92.0417 39.5833 92.1458 38.8438 92.2188C38.1146 92.2917 37.3438 92.3281 36.5312 92.3281C34.4583 92.3281 32.6406 92.0781 31.0781 91.5781C29.5156 91.0781 28.2083 90.3958 27.1562 89.5312C26.1042 88.6667 25.3125 87.651 24.7812 86.4844C24.25 85.3177 23.9844 84.0625 23.9844 82.7188ZM41.7188 80.9219C41.5521 80.4115 41.2917 79.9375 40.9375 79.5C40.5938 79.0521 40.1615 78.6667 39.6406 78.3438C39.1198 78.0104 38.5156 77.75 37.8281 77.5625C37.1406 77.375 36.3854 77.2812 35.5625 77.2812C34.6875 77.2812 33.8906 77.3802 33.1719 77.5781C32.4531 77.776 31.8229 78.0417 31.2812 78.375C30.7396 78.7083 30.2865 79.0938 29.9219 79.5312C29.5677 79.9688 29.3073 80.4323 29.1406 80.9219H41.7188Z" fill="#8D353A"/>
<path d="M54.5 95.125C55.0833 95.3333 55.6771 95.5052 56.2812 95.6406C56.8854 95.7865 57.4688 95.901 58.0312 95.9844C58.6042 96.0781 59.151 96.1406 59.6719 96.1719C60.1927 96.2135 60.6562 96.2344 61.0625 96.2344C62.2917 96.2344 63.3594 96.0833 64.2656 95.7812C65.1823 95.4896 65.9427 95.0938 66.5469 94.5938C67.1615 94.0938 67.6198 93.5104 67.9219 92.8438C68.224 92.1875 68.375 91.4896 68.375 90.75V89.9531C67.9792 90.224 67.5156 90.4844 66.9844 90.7344C66.4531 90.9844 65.8698 91.2031 65.2344 91.3906C64.599 91.5781 63.9219 91.7292 63.2031 91.8438C62.4948 91.9583 61.7604 92.0156 61 92.0156C59.4896 92.0156 58.0938 91.7917 56.8125 91.3438C55.5312 90.8854 54.4219 90.25 53.4844 89.4375C52.5469 88.6146 51.8125 87.6302 51.2812 86.4844C50.7604 85.3385 50.5 84.0677 50.5 82.6719C50.5 81.2448 50.776 79.9531 51.3281 78.7969C51.8802 77.6302 52.6406 76.6354 53.6094 75.8125C54.5885 74.9896 55.7448 74.3542 57.0781 73.9062C58.4115 73.4583 59.8594 73.2344 61.4219 73.2344C62.0885 73.2344 62.75 73.276 63.4062 73.3594C64.0625 73.4427 64.6875 73.5573 65.2812 73.7031C65.8854 73.849 66.4479 74.026 66.9688 74.2344C67.5 74.4323 67.9688 74.651 68.375 74.8906V73.5625H73V89.8906C73 91.5677 72.7448 93.0521 72.2344 94.3438C71.724 95.6354 70.974 96.7188 69.9844 97.5938C69.0052 98.4792 67.7865 99.1458 66.3281 99.5938C64.8698 100.052 63.1979 100.281 61.3125 100.281C60.6354 100.281 59.9323 100.25 59.2031 100.188C58.474 100.135 57.7396 100.052 57 99.9375C56.2708 99.8333 55.5469 99.7031 54.8281 99.5469C54.1198 99.401 53.4375 99.2292 52.7812 99.0312L54.5 95.125ZM55.3594 82.625C55.3594 83.3646 55.5052 84.0625 55.7969 84.7188C56.099 85.3646 56.526 85.9323 57.0781 86.4219C57.6302 86.901 58.2969 87.2812 59.0781 87.5625C59.8594 87.8333 60.7396 87.9688 61.7188 87.9688C62.3542 87.9688 62.9844 87.9115 63.6094 87.7969C64.2448 87.6719 64.849 87.5 65.4219 87.2812C66.0052 87.0625 66.5469 86.7969 67.0469 86.4844C67.5573 86.1719 68 85.8229 68.375 85.4375V79.3594C67.9062 78.9844 67.4115 78.6667 66.8906 78.4062C66.3698 78.1458 65.8385 77.9323 65.2969 77.7656C64.7552 77.599 64.2083 77.4792 63.6562 77.4062C63.1042 77.3229 62.5677 77.2812 62.0469 77.2812C60.9844 77.2812 60.0365 77.4219 59.2031 77.7031C58.3802 77.9844 57.6823 78.3698 57.1094 78.8594C56.5469 79.3385 56.1146 79.901 55.8125 80.5469C55.5104 81.1927 55.3594 81.8854 55.3594 82.625Z" fill="#8D353A"/>
<path d="M77.3906 86.1875C77.3906 85.3021 77.5833 84.4948 77.9688 83.7656C78.3542 83.0365 78.9323 82.4115 79.7031 81.8906C80.474 81.3594 81.4323 80.9531 82.5781 80.6719C83.7344 80.3802 85.0781 80.2344 86.6094 80.2344C87.7448 80.2344 88.9375 80.3177 90.1875 80.4844C91.4479 80.651 92.7448 80.9062 94.0781 81.25C94.026 80.6667 93.849 80.1302 93.5469 79.6406C93.2448 79.1406 92.8229 78.7135 92.2812 78.3594C91.75 77.9948 91.1042 77.7135 90.3438 77.5156C89.5938 77.3177 88.7396 77.2188 87.7812 77.2188C87.2604 77.2188 86.6875 77.25 86.0625 77.3125C85.4375 77.375 84.7917 77.4688 84.125 77.5938C83.4583 77.7188 82.7969 77.875 82.1406 78.0625C81.4948 78.25 80.8906 78.474 80.3281 78.7344L78.9219 74.9375C79.6198 74.6875 80.3646 74.4583 81.1562 74.25C81.9583 74.0417 82.776 73.8646 83.6094 73.7188C84.4427 73.5625 85.276 73.4427 86.1094 73.3594C86.9427 73.276 87.75 73.2344 88.5312 73.2344C91.9792 73.2344 94.5417 74.1146 96.2188 75.875C97.8958 77.6354 98.7344 80.3333 98.7344 83.9688V92H94.1094V90.2656C93.6302 90.5469 93.1042 90.8125 92.5312 91.0625C91.9688 91.3125 91.3542 91.5312 90.6875 91.7188C90.0208 91.9062 89.3021 92.0521 88.5312 92.1562C87.7708 92.2708 86.9635 92.3281 86.1094 92.3281C84.6719 92.3281 83.4062 92.1719 82.3125 91.8594C81.2292 91.5469 80.3229 91.1146 79.5938 90.5625C78.8646 90.0104 78.3125 89.3646 77.9375 88.625C77.5729 87.875 77.3906 87.0625 77.3906 86.1875ZM82.2656 86.0312C82.2656 86.3333 82.3438 86.625 82.5 86.9062C82.6562 87.1771 82.9062 87.4219 83.25 87.6406C83.5938 87.849 84.0312 88.0208 84.5625 88.1562C85.1042 88.2812 85.7552 88.3438 86.5156 88.3438C87.3281 88.3438 88.1146 88.2708 88.875 88.125C89.6354 87.9792 90.3438 87.7865 91 87.5469C91.6562 87.3073 92.25 87.0312 92.7812 86.7188C93.3125 86.4062 93.7552 86.0833 94.1094 85.75V84.9375C93.401 84.7396 92.6979 84.5729 92 84.4375C91.3125 84.3021 90.651 84.1979 90.0156 84.125C89.3906 84.0417 88.7969 83.9844 88.2344 83.9531C87.6823 83.9219 87.1979 83.9062 86.7812 83.9062C85.9167 83.9062 85.1979 83.9635 84.625 84.0781C84.0521 84.1927 83.5885 84.349 83.2344 84.5469C82.8802 84.7344 82.6302 84.9583 82.4844 85.2188C82.3385 85.4792 82.2656 85.75 82.2656 86.0312Z" fill="#8D353A"/>
<path d="M104.984 66.0781H109.609V92H104.984V66.0781Z" fill="#8D353A"/>
<path d="M116.125 67.5781H136.922V71.9219H121.078V76.7969H135.109V80.875H121.078V87.6719H137.25V92H116.125V67.5781Z" fill="#8D353A"/>
<path d="M141.297 86.1875C141.297 85.3021 141.49 84.4948 141.875 83.7656C142.26 83.0365 142.839 82.4115 143.609 81.8906C144.38 81.3594 145.339 80.9531 146.484 80.6719C147.641 80.3802 148.984 80.2344 150.516 80.2344C151.651 80.2344 152.844 80.3177 154.094 80.4844C155.354 80.651 156.651 80.9062 157.984 81.25C157.932 80.6667 157.755 80.1302 157.453 79.6406C157.151 79.1406 156.729 78.7135 156.188 78.3594C155.656 77.9948 155.01 77.7135 154.25 77.5156C153.5 77.3177 152.646 77.2188 151.688 77.2188C151.167 77.2188 150.594 77.25 149.969 77.3125C149.344 77.375 148.698 77.4688 148.031 77.5938C147.365 77.7188 146.703 77.875 146.047 78.0625C145.401 78.25 144.797 78.474 144.234 78.7344L142.828 74.9375C143.526 74.6875 144.271 74.4583 145.062 74.25C145.865 74.0417 146.682 73.8646 147.516 73.7188C148.349 73.5625 149.182 73.4427 150.016 73.3594C150.849 73.276 151.656 73.2344 152.438 73.2344C155.885 73.2344 158.448 74.1146 160.125 75.875C161.802 77.6354 162.641 80.3333 162.641 83.9688V92H158.016V90.2656C157.536 90.5469 157.01 90.8125 156.438 91.0625C155.875 91.3125 155.26 91.5312 154.594 91.7188C153.927 91.9062 153.208 92.0521 152.438 92.1562C151.677 92.2708 150.87 92.3281 150.016 92.3281C148.578 92.3281 147.312 92.1719 146.219 91.8594C145.135 91.5469 144.229 91.1146 143.5 90.5625C142.771 90.0104 142.219 89.3646 141.844 88.625C141.479 87.875 141.297 87.0625 141.297 86.1875ZM146.172 86.0312C146.172 86.3333 146.25 86.625 146.406 86.9062C146.562 87.1771 146.812 87.4219 147.156 87.6406C147.5 87.849 147.938 88.0208 148.469 88.1562C149.01 88.2812 149.661 88.3438 150.422 88.3438C151.234 88.3438 152.021 88.2708 152.781 88.125C153.542 87.9792 154.25 87.7865 154.906 87.5469C155.562 87.3073 156.156 87.0312 156.688 86.7188C157.219 86.4062 157.661 86.0833 158.016 85.75V84.9375C157.307 84.7396 156.604 84.5729 155.906 84.4375C155.219 84.3021 154.557 84.1979 153.922 84.125C153.297 84.0417 152.703 83.9844 152.141 83.9531C151.589 83.9219 151.104 83.9062 150.688 83.9062C149.823 83.9062 149.104 83.9635 148.531 84.0781C147.958 84.1927 147.495 84.349 147.141 84.5469C146.786 84.7344 146.536 84.9583 146.391 85.2188C146.245 85.4792 146.172 85.75 146.172 86.0312Z" fill="#8D353A"/>
<path d="M169.5 86.3438C170.75 87.0938 172.125 87.6458 173.625 88C175.125 88.3542 176.661 88.5312 178.234 88.5312C179.297 88.5312 180.182 88.4583 180.891 88.3125C181.599 88.1667 182.167 87.9792 182.594 87.75C183.021 87.5208 183.323 87.2604 183.5 86.9688C183.677 86.6771 183.766 86.3802 183.766 86.0781C183.766 85.6406 183.573 85.2656 183.188 84.9531C182.812 84.6406 182.188 84.4844 181.312 84.4844C180.906 84.4844 180.469 84.5104 180 84.5625C179.531 84.6146 179.036 84.6719 178.516 84.7344C178.005 84.7865 177.469 84.8385 176.906 84.8906C176.354 84.9427 175.792 84.9688 175.219 84.9688C173.969 84.9688 172.901 84.8333 172.016 84.5625C171.141 84.2917 170.427 83.9219 169.875 83.4531C169.323 82.9844 168.922 82.4323 168.672 81.7969C168.422 81.151 168.297 80.4583 168.297 79.7188C168.297 78.7812 168.516 77.9167 168.953 77.125C169.391 76.3333 170.016 75.651 170.828 75.0781C171.641 74.4948 172.62 74.0417 173.766 73.7188C174.922 73.3958 176.208 73.2344 177.625 73.2344C178.365 73.2344 179.135 73.2812 179.938 73.375C180.75 73.4583 181.547 73.5729 182.328 73.7188C183.109 73.8646 183.859 74.0365 184.578 74.2344C185.297 74.4219 185.932 74.625 186.484 74.8438L185.031 78.4375C183.854 78 182.677 77.6562 181.5 77.4062C180.333 77.1458 179.13 77.0156 177.891 77.0156C177.026 77.0156 176.292 77.0833 175.688 77.2188C175.094 77.3438 174.609 77.5156 174.234 77.7344C173.859 77.9427 173.583 78.1875 173.406 78.4688C173.24 78.7396 173.156 79.026 173.156 79.3281C173.156 79.5469 173.198 79.7448 173.281 79.9219C173.375 80.099 173.521 80.2552 173.719 80.3906C173.927 80.5156 174.193 80.6146 174.516 80.6875C174.849 80.75 175.255 80.7812 175.734 80.7812C176.172 80.7812 176.635 80.7552 177.125 80.7031C177.615 80.651 178.125 80.599 178.656 80.5469C179.188 80.4844 179.734 80.4271 180.297 80.375C180.87 80.3229 181.453 80.2969 182.047 80.2969C183.151 80.2969 184.115 80.4271 184.938 80.6875C185.771 80.9479 186.458 81.3125 187 81.7812C187.542 82.25 187.948 82.8021 188.219 83.4375C188.49 84.0729 188.625 84.7656 188.625 85.5156C188.625 86.4844 188.401 87.3854 187.953 88.2188C187.505 89.0521 186.839 89.776 185.953 90.3906C185.068 90.9948 183.964 91.4688 182.641 91.8125C181.328 92.1562 179.807 92.3281 178.078 92.3281C177.016 92.3281 175.99 92.2604 175 92.125C174.01 92 173.068 91.8281 172.172 91.6094C171.276 91.3802 170.432 91.1146 169.641 90.8125C168.859 90.5104 168.146 90.1875 167.5 89.8438L169.5 86.3438Z" fill="#8D353A"/>
<path d="M191.922 82.7188C191.922 81.4688 192.177 80.276 192.688 79.1406C193.198 77.9948 193.932 76.9844 194.891 76.1094C195.849 75.2344 197.021 74.5365 198.406 74.0156C199.802 73.4948 201.385 73.2344 203.156 73.2344C204.917 73.2344 206.5 73.5 207.906 74.0312C209.323 74.5521 210.521 75.2708 211.5 76.1875C212.49 77.1042 213.245 78.1823 213.766 79.4219C214.297 80.6615 214.562 81.9896 214.562 83.4062C214.562 83.5833 214.557 83.776 214.547 83.9844C214.547 84.1823 214.536 84.3646 214.516 84.5312H197.078C197.276 85.0833 197.594 85.5885 198.031 86.0469C198.479 86.5052 199.036 86.901 199.703 87.2344C200.37 87.5677 201.141 87.8281 202.016 88.0156C202.891 88.1927 203.859 88.2812 204.922 88.2812C205.984 88.2812 207.042 88.1719 208.094 87.9531C209.146 87.724 210.151 87.4375 211.109 87.0938L212.672 90.625C212.068 90.9062 211.453 91.1562 210.828 91.375C210.214 91.5833 209.568 91.7604 208.891 91.9062C208.224 92.0417 207.521 92.1458 206.781 92.2188C206.052 92.2917 205.281 92.3281 204.469 92.3281C202.396 92.3281 200.578 92.0781 199.016 91.5781C197.453 91.0781 196.146 90.3958 195.094 89.5312C194.042 88.6667 193.25 87.651 192.719 86.4844C192.188 85.3177 191.922 84.0625 191.922 82.7188ZM209.656 80.9219C209.49 80.4115 209.229 79.9375 208.875 79.5C208.531 79.0521 208.099 78.6667 207.578 78.3438C207.057 78.0104 206.453 77.75 205.766 77.5625C205.078 77.375 204.323 77.2812 203.5 77.2812C202.625 77.2812 201.828 77.3802 201.109 77.5781C200.391 77.776 199.76 78.0417 199.219 78.375C198.677 78.7083 198.224 79.0938 197.859 79.5312C197.505 79.9688 197.245 80.4323 197.078 80.9219H209.656Z" fill="#8D353A"/>
<path d="M1.46875 67.5781H6.42188V87.6562H20.625V92H1.46875V67.5781Z" stroke="#8D353A"/>
<path d="M23.9844 82.7188C23.9844 81.4688 24.2396 80.276 24.75 79.1406C25.2604 77.9948 25.9948 76.9844 26.9531 76.1094C27.9115 75.2344 29.0833 74.5365 30.4688 74.0156C31.8646 73.4948 33.4479 73.2344 35.2188 73.2344C36.9792 73.2344 38.5625 73.5 39.9688 74.0312C41.3854 74.5521 42.5833 75.2708 43.5625 76.1875C44.5521 77.1042 45.3073 78.1823 45.8281 79.4219C46.3594 80.6615 46.625 81.9896 46.625 83.4062C46.625 83.5833 46.6198 83.776 46.6094 83.9844C46.6094 84.1823 46.599 84.3646 46.5781 84.5312H29.1406C29.3385 85.0833 29.6562 85.5885 30.0938 86.0469C30.5417 86.5052 31.099 86.901 31.7656 87.2344C32.4323 87.5677 33.2031 87.8281 34.0781 88.0156C34.9531 88.1927 35.9219 88.2812 36.9844 88.2812C38.0469 88.2812 39.1042 88.1719 40.1562 87.9531C41.2083 87.724 42.2135 87.4375 43.1719 87.0938L44.7344 90.625C44.1302 90.9062 43.5156 91.1562 42.8906 91.375C42.276 91.5833 41.6302 91.7604 40.9531 91.9062C40.2865 92.0417 39.5833 92.1458 38.8438 92.2188C38.1146 92.2917 37.3438 92.3281 36.5312 92.3281C34.4583 92.3281 32.6406 92.0781 31.0781 91.5781C29.5156 91.0781 28.2083 90.3958 27.1562 89.5312C26.1042 88.6667 25.3125 87.651 24.7812 86.4844C24.25 85.3177 23.9844 84.0625 23.9844 82.7188ZM41.7188 80.9219C41.5521 80.4115 41.2917 79.9375 40.9375 79.5C40.5938 79.0521 40.1615 78.6667 39.6406 78.3438C39.1198 78.0104 38.5156 77.75 37.8281 77.5625C37.1406 77.375 36.3854 77.2812 35.5625 77.2812C34.6875 77.2812 33.8906 77.3802 33.1719 77.5781C32.4531 77.776 31.8229 78.0417 31.2812 78.375C30.7396 78.7083 30.2865 79.0938 29.9219 79.5312C29.5677 79.9688 29.3073 80.4323 29.1406 80.9219H41.7188Z" stroke="#8D353A"/>
<path d="M54.5 95.125C55.0833 95.3333 55.6771 95.5052 56.2812 95.6406C56.8854 95.7865 57.4688 95.901 58.0312 95.9844C58.6042 96.0781 59.151 96.1406 59.6719 96.1719C60.1927 96.2135 60.6562 96.2344 61.0625 96.2344C62.2917 96.2344 63.3594 96.0833 64.2656 95.7812C65.1823 95.4896 65.9427 95.0938 66.5469 94.5938C67.1615 94.0938 67.6198 93.5104 67.9219 92.8438C68.224 92.1875 68.375 91.4896 68.375 90.75V89.9531C67.9792 90.224 67.5156 90.4844 66.9844 90.7344C66.4531 90.9844 65.8698 91.2031 65.2344 91.3906C64.599 91.5781 63.9219 91.7292 63.2031 91.8438C62.4948 91.9583 61.7604 92.0156 61 92.0156C59.4896 92.0156 58.0938 91.7917 56.8125 91.3438C55.5312 90.8854 54.4219 90.25 53.4844 89.4375C52.5469 88.6146 51.8125 87.6302 51.2812 86.4844C50.7604 85.3385 50.5 84.0677 50.5 82.6719C50.5 81.2448 50.776 79.9531 51.3281 78.7969C51.8802 77.6302 52.6406 76.6354 53.6094 75.8125C54.5885 74.9896 55.7448 74.3542 57.0781 73.9062C58.4115 73.4583 59.8594 73.2344 61.4219 73.2344C62.0885 73.2344 62.75 73.276 63.4062 73.3594C64.0625 73.4427 64.6875 73.5573 65.2812 73.7031C65.8854 73.849 66.4479 74.026 66.9688 74.2344C67.5 74.4323 67.9688 74.651 68.375 74.8906V73.5625H73V89.8906C73 91.5677 72.7448 93.0521 72.2344 94.3438C71.724 95.6354 70.974 96.7188 69.9844 97.5938C69.0052 98.4792 67.7865 99.1458 66.3281 99.5938C64.8698 100.052 63.1979 100.281 61.3125 100.281C60.6354 100.281 59.9323 100.25 59.2031 100.188C58.474 100.135 57.7396 100.052 57 99.9375C56.2708 99.8333 55.5469 99.7031 54.8281 99.5469C54.1198 99.401 53.4375 99.2292 52.7812 99.0312L54.5 95.125ZM55.3594 82.625C55.3594 83.3646 55.5052 84.0625 55.7969 84.7188C56.099 85.3646 56.526 85.9323 57.0781 86.4219C57.6302 86.901 58.2969 87.2812 59.0781 87.5625C59.8594 87.8333 60.7396 87.9688 61.7188 87.9688C62.3542 87.9688 62.9844 87.9115 63.6094 87.7969C64.2448 87.6719 64.849 87.5 65.4219 87.2812C66.0052 87.0625 66.5469 86.7969 67.0469 86.4844C67.5573 86.1719 68 85.8229 68.375 85.4375V79.3594C67.9062 78.9844 67.4115 78.6667 66.8906 78.4062C66.3698 78.1458 65.8385 77.9323 65.2969 77.7656C64.7552 77.599 64.2083 77.4792 63.6562 77.4062C63.1042 77.3229 62.5677 77.2812 62.0469 77.2812C60.9844 77.2812 60.0365 77.4219 59.2031 77.7031C58.3802 77.9844 57.6823 78.3698 57.1094 78.8594C56.5469 79.3385 56.1146 79.901 55.8125 80.5469C55.5104 81.1927 55.3594 81.8854 55.3594 82.625Z" stroke="#8D353A"/>
<path d="M77.3906 86.1875C77.3906 85.3021 77.5833 84.4948 77.9688 83.7656C78.3542 83.0365 78.9323 82.4115 79.7031 81.8906C80.474 81.3594 81.4323 80.9531 82.5781 80.6719C83.7344 80.3802 85.0781 80.2344 86.6094 80.2344C87.7448 80.2344 88.9375 80.3177 90.1875 80.4844C91.4479 80.651 92.7448 80.9062 94.0781 81.25C94.026 80.6667 93.849 80.1302 93.5469 79.6406C93.2448 79.1406 92.8229 78.7135 92.2812 78.3594C91.75 77.9948 91.1042 77.7135 90.3438 77.5156C89.5938 77.3177 88.7396 77.2188 87.7812 77.2188C87.2604 77.2188 86.6875 77.25 86.0625 77.3125C85.4375 77.375 84.7917 77.4688 84.125 77.5938C83.4583 77.7188 82.7969 77.875 82.1406 78.0625C81.4948 78.25 80.8906 78.474 80.3281 78.7344L78.9219 74.9375C79.6198 74.6875 80.3646 74.4583 81.1562 74.25C81.9583 74.0417 82.776 73.8646 83.6094 73.7188C84.4427 73.5625 85.276 73.4427 86.1094 73.3594C86.9427 73.276 87.75 73.2344 88.5312 73.2344C91.9792 73.2344 94.5417 74.1146 96.2188 75.875C97.8958 77.6354 98.7344 80.3333 98.7344 83.9688V92H94.1094V90.2656C93.6302 90.5469 93.1042 90.8125 92.5312 91.0625C91.9688 91.3125 91.3542 91.5312 90.6875 91.7188C90.0208 91.9062 89.3021 92.0521 88.5312 92.1562C87.7708 92.2708 86.9635 92.3281 86.1094 92.3281C84.6719 92.3281 83.4062 92.1719 82.3125 91.8594C81.2292 91.5469 80.3229 91.1146 79.5938 90.5625C78.8646 90.0104 78.3125 89.3646 77.9375 88.625C77.5729 87.875 77.3906 87.0625 77.3906 86.1875ZM82.2656 86.0312C82.2656 86.3333 82.3438 86.625 82.5 86.9062C82.6562 87.1771 82.9062 87.4219 83.25 87.6406C83.5938 87.849 84.0312 88.0208 84.5625 88.1562C85.1042 88.2812 85.7552 88.3438 86.5156 88.3438C87.3281 88.3438 88.1146 88.2708 88.875 88.125C89.6354 87.9792 90.3438 87.7865 91 87.5469C91.6562 87.3073 92.25 87.0312 92.7812 86.7188C93.3125 86.4062 93.7552 86.0833 94.1094 85.75V84.9375C93.401 84.7396 92.6979 84.5729 92 84.4375C91.3125 84.3021 90.651 84.1979 90.0156 84.125C89.3906 84.0417 88.7969 83.9844 88.2344 83.9531C87.6823 83.9219 87.1979 83.9062 86.7812 83.9062C85.9167 83.9062 85.1979 83.9635 84.625 84.0781C84.0521 84.1927 83.5885 84.349 83.2344 84.5469C82.8802 84.7344 82.6302 84.9583 82.4844 85.2188C82.3385 85.4792 82.2656 85.75 82.2656 86.0312Z" stroke="#8D353A"/>
<path d="M104.984 66.0781H109.609V92H104.984V66.0781Z" stroke="#8D353A"/>
<path d="M116.125 67.5781H136.922V71.9219H121.078V76.7969H135.109V80.875H121.078V87.6719H137.25V92H116.125V67.5781Z" stroke="#8D353A"/>
<path d="M141.297 86.1875C141.297 85.3021 141.49 84.4948 141.875 83.7656C142.26 83.0365 142.839 82.4115 143.609 81.8906C144.38 81.3594 145.339 80.9531 146.484 80.6719C147.641 80.3802 148.984 80.2344 150.516 80.2344C151.651 80.2344 152.844 80.3177 154.094 80.4844C155.354 80.651 156.651 80.9062 157.984 81.25C157.932 80.6667 157.755 80.1302 157.453 79.6406C157.151 79.1406 156.729 78.7135 156.188 78.3594C155.656 77.9948 155.01 77.7135 154.25 77.5156C153.5 77.3177 152.646 77.2188 151.688 77.2188C151.167 77.2188 150.594 77.25 149.969 77.3125C149.344 77.375 148.698 77.4688 148.031 77.5938C147.365 77.7188 146.703 77.875 146.047 78.0625C145.401 78.25 144.797 78.474 144.234 78.7344L142.828 74.9375C143.526 74.6875 144.271 74.4583 145.062 74.25C145.865 74.0417 146.682 73.8646 147.516 73.7188C148.349 73.5625 149.182 73.4427 150.016 73.3594C150.849 73.276 151.656 73.2344 152.438 73.2344C155.885 73.2344 158.448 74.1146 160.125 75.875C161.802 77.6354 162.641 80.3333 162.641 83.9688V92H158.016V90.2656C157.536 90.5469 157.01 90.8125 156.438 91.0625C155.875 91.3125 155.26 91.5312 154.594 91.7188C153.927 91.9062 153.208 92.0521 152.438 92.1562C151.677 92.2708 150.87 92.3281 150.016 92.3281C148.578 92.3281 147.312 92.1719 146.219 91.8594C145.135 91.5469 144.229 91.1146 143.5 90.5625C142.771 90.0104 142.219 89.3646 141.844 88.625C141.479 87.875 141.297 87.0625 141.297 86.1875ZM146.172 86.0312C146.172 86.3333 146.25 86.625 146.406 86.9062C146.562 87.1771 146.812 87.4219 147.156 87.6406C147.5 87.849 147.938 88.0208 148.469 88.1562C149.01 88.2812 149.661 88.3438 150.422 88.3438C151.234 88.3438 152.021 88.2708 152.781 88.125C153.542 87.9792 154.25 87.7865 154.906 87.5469C155.562 87.3073 156.156 87.0312 156.688 86.7188C157.219 86.4062 157.661 86.0833 158.016 85.75V84.9375C157.307 84.7396 156.604 84.5729 155.906 84.4375C155.219 84.3021 154.557 84.1979 153.922 84.125C153.297 84.0417 152.703 83.9844 152.141 83.9531C151.589 83.9219 151.104 83.9062 150.688 83.9062C149.823 83.9062 149.104 83.9635 148.531 84.0781C147.958 84.1927 147.495 84.349 147.141 84.5469C146.786 84.7344 146.536 84.9583 146.391 85.2188C146.245 85.4792 146.172 85.75 146.172 86.0312Z" stroke="#8D353A"/>
<path d="M169.5 86.3438C170.75 87.0938 172.125 87.6458 173.625 88C175.125 88.3542 176.661 88.5312 178.234 88.5312C179.297 88.5312 180.182 88.4583 180.891 88.3125C181.599 88.1667 182.167 87.9792 182.594 87.75C183.021 87.5208 183.323 87.2604 183.5 86.9688C183.677 86.6771 183.766 86.3802 183.766 86.0781C183.766 85.6406 183.573 85.2656 183.188 84.9531C182.812 84.6406 182.188 84.4844 181.312 84.4844C180.906 84.4844 180.469 84.5104 180 84.5625C179.531 84.6146 179.036 84.6719 178.516 84.7344C178.005 84.7865 177.469 84.8385 176.906 84.8906C176.354 84.9427 175.792 84.9688 175.219 84.9688C173.969 84.9688 172.901 84.8333 172.016 84.5625C171.141 84.2917 170.427 83.9219 169.875 83.4531C169.323 82.9844 168.922 82.4323 168.672 81.7969C168.422 81.151 168.297 80.4583 168.297 79.7188C168.297 78.7812 168.516 77.9167 168.953 77.125C169.391 76.3333 170.016 75.651 170.828 75.0781C171.641 74.4948 172.62 74.0417 173.766 73.7188C174.922 73.3958 176.208 73.2344 177.625 73.2344C178.365 73.2344 179.135 73.2812 179.938 73.375C180.75 73.4583 181.547 73.5729 182.328 73.7188C183.109 73.8646 183.859 74.0365 184.578 74.2344C185.297 74.4219 185.932 74.625 186.484 74.8438L185.031 78.4375C183.854 78 182.677 77.6562 181.5 77.4062C180.333 77.1458 179.13 77.0156 177.891 77.0156C177.026 77.0156 176.292 77.0833 175.688 77.2188C175.094 77.3438 174.609 77.5156 174.234 77.7344C173.859 77.9427 173.583 78.1875 173.406 78.4688C173.24 78.7396 173.156 79.026 173.156 79.3281C173.156 79.5469 173.198 79.7448 173.281 79.9219C173.375 80.099 173.521 80.2552 173.719 80.3906C173.927 80.5156 174.193 80.6146 174.516 80.6875C174.849 80.75 175.255 80.7812 175.734 80.7812C176.172 80.7812 176.635 80.7552 177.125 80.7031C177.615 80.651 178.125 80.599 178.656 80.5469C179.188 80.4844 179.734 80.4271 180.297 80.375C180.87 80.3229 181.453 80.2969 182.047 80.2969C183.151 80.2969 184.115 80.4271 184.938 80.6875C185.771 80.9479 186.458 81.3125 187 81.7812C187.542 82.25 187.948 82.8021 188.219 83.4375C188.49 84.0729 188.625 84.7656 188.625 85.5156C188.625 86.4844 188.401 87.3854 187.953 88.2188C187.505 89.0521 186.839 89.776 185.953 90.3906C185.068 90.9948 183.964 91.4688 182.641 91.8125C181.328 92.1562 179.807 92.3281 178.078 92.3281C177.016 92.3281 175.99 92.2604 175 92.125C174.01 92 173.068 91.8281 172.172 91.6094C171.276 91.3802 170.432 91.1146 169.641 90.8125C168.859 90.5104 168.146 90.1875 167.5 89.8438L169.5 86.3438Z" stroke="#8D353A"/>
<path d="M191.922 82.7188C191.922 81.4688 192.177 80.276 192.688 79.1406C193.198 77.9948 193.932 76.9844 194.891 76.1094C195.849 75.2344 197.021 74.5365 198.406 74.0156C199.802 73.4948 201.385 73.2344 203.156 73.2344C204.917 73.2344 206.5 73.5 207.906 74.0312C209.323 74.5521 210.521 75.2708 211.5 76.1875C212.49 77.1042 213.245 78.1823 213.766 79.4219C214.297 80.6615 214.562 81.9896 214.562 83.4062C214.562 83.5833 214.557 83.776 214.547 83.9844C214.547 84.1823 214.536 84.3646 214.516 84.5312H197.078C197.276 85.0833 197.594 85.5885 198.031 86.0469C198.479 86.5052 199.036 86.901 199.703 87.2344C200.37 87.5677 201.141 87.8281 202.016 88.0156C202.891 88.1927 203.859 88.2812 204.922 88.2812C205.984 88.2812 207.042 88.1719 208.094 87.9531C209.146 87.724 210.151 87.4375 211.109 87.0938L212.672 90.625C212.068 90.9062 211.453 91.1562 210.828 91.375C210.214 91.5833 209.568 91.7604 208.891 91.9062C208.224 92.0417 207.521 92.1458 206.781 92.2188C206.052 92.2917 205.281 92.3281 204.469 92.3281C202.396 92.3281 200.578 92.0781 199.016 91.5781C197.453 91.0781 196.146 90.3958 195.094 89.5312C194.042 88.6667 193.25 87.651 192.719 86.4844C192.188 85.3177 191.922 84.0625 191.922 82.7188ZM209.656 80.9219C209.49 80.4115 209.229 79.9375 208.875 79.5C208.531 79.0521 208.099 78.6667 207.578 78.3438C207.057 78.0104 206.453 77.75 205.766 77.5625C205.078 77.375 204.323 77.2812 203.5 77.2812C202.625 77.2812 201.828 77.3802 201.109 77.5781C200.391 77.776 199.76 78.0417 199.219 78.375C198.677 78.7083 198.224 79.0938 197.859 79.5312C197.505 79.9688 197.245 80.4323 197.078 80.9219H209.656Z" stroke="#8D353A"/>
<defs>
<clipPath id="clip0_109_4218">
<rect width="42.1622" height="42.1622" fill="white" transform="translate(85.9189 4.91895)"/>
</clipPath>
</defs>
</svg>
