<svg width="72" height="15" viewBox="0 0 72 15" fill="none" xmlns="http://www.w3.org/2000/svg">
<path d="M4.186 11.091C3.12 11.091 2.24467 10.8397 1.56 10.337C0.875333 9.82567 0.507 9.09767 0.455 8.153H3.172C3.198 8.47367 3.29333 8.70767 3.458 8.855C3.62267 9.00233 3.835 9.076 4.095 9.076C4.329 9.076 4.51967 9.01967 4.667 8.907C4.823 8.78567 4.901 8.621 4.901 8.413C4.901 8.14433 4.77533 7.93633 4.524 7.789C4.27267 7.64167 3.86533 7.477 3.302 7.295C2.704 7.09567 2.21867 6.905 1.846 6.723C1.482 6.53233 1.16133 6.25933 0.884 5.904C0.615333 5.54 0.481 5.06767 0.481 4.487C0.481 3.89767 0.628333 3.395 0.923 2.979C1.21767 2.55433 1.625 2.23367 2.145 2.017C2.665 1.80033 3.25433 1.692 3.913 1.692C4.979 1.692 5.82833 1.94333 6.461 2.446C7.10233 2.94 7.44467 3.63767 7.488 4.539H4.719C4.71033 4.26167 4.62367 4.05367 4.459 3.915C4.303 3.77633 4.09933 3.707 3.848 3.707C3.65733 3.707 3.50133 3.76333 3.38 3.876C3.25867 3.98867 3.198 4.149 3.198 4.357C3.198 4.53033 3.263 4.682 3.393 4.812C3.53167 4.93333 3.70067 5.04167 3.9 5.137C4.09933 5.22367 4.394 5.33633 4.784 5.475C5.36467 5.67433 5.84133 5.87367 6.214 6.073C6.59533 6.26367 6.92033 6.53667 7.189 6.892C7.46633 7.23867 7.605 7.68067 7.605 8.218C7.605 8.764 7.46633 9.25367 7.189 9.687C6.92033 10.1203 6.526 10.4627 6.006 10.714C5.49467 10.9653 4.888 11.091 4.186 11.091ZM16.2515 3.707V11H13.6905V9.96C13.4739 10.2893 13.1749 10.558 12.7935 10.766C12.4122 10.9653 11.9745 11.065 11.4805 11.065C10.6312 11.065 9.95952 10.7877 9.46552 10.233C8.98019 9.66967 8.73752 8.907 8.73752 7.945V3.707H11.2725V7.62C11.2725 8.036 11.3809 8.36533 11.5975 8.608C11.8229 8.842 12.1175 8.959 12.4815 8.959C12.8542 8.959 13.1489 8.842 13.3655 8.608C13.5822 8.36533 13.6905 8.036 13.6905 7.62V3.707H16.2515ZM20.2496 4.721C20.449 4.383 20.7306 4.11433 21.0946 3.915C21.4586 3.71567 21.8876 3.616 22.3816 3.616C22.9623 3.616 23.4866 3.76767 23.9546 4.071C24.4313 4.37433 24.804 4.80767 25.0726 5.371C25.35 5.93433 25.4886 6.593 25.4886 7.347C25.4886 8.101 25.35 8.764 25.0726 9.336C24.804 9.89933 24.4313 10.3327 23.9546 10.636C23.4866 10.9393 22.9623 11.091 22.3816 11.091C21.8876 11.091 21.4586 10.9913 21.0946 10.792C20.7393 10.5927 20.4576 10.324 20.2496 9.986V14.484H17.7016V3.707H20.2496V4.721ZM22.9016 7.347C22.9016 6.87033 22.7716 6.502 22.5116 6.242C22.2603 5.97333 21.9483 5.839 21.5756 5.839C21.203 5.839 20.8866 5.97333 20.6266 6.242C20.3753 6.51067 20.2496 6.879 20.2496 7.347C20.2496 7.82367 20.3753 8.19633 20.6266 8.465C20.8866 8.73367 21.203 8.868 21.5756 8.868C21.9483 8.868 22.2603 8.73367 22.5116 8.465C22.7716 8.18767 22.9016 7.815 22.9016 7.347ZM29.0856 4.721C29.2849 4.383 29.5666 4.11433 29.9306 3.915C30.2946 3.71567 30.7236 3.616 31.2176 3.616C31.7982 3.616 32.3226 3.76767 32.7906 4.071C33.2672 4.37433 33.6399 4.80767 33.9086 5.371C34.1859 5.93433 34.3246 6.593 34.3246 7.347C34.3246 8.101 34.1859 8.764 33.9086 9.336C33.6399 9.89933 33.2672 10.3327 32.7906 10.636C32.3226 10.9393 31.7982 11.091 31.2176 11.091C30.7236 11.091 30.2946 10.9913 29.9306 10.792C29.5752 10.5927 29.2936 10.324 29.0856 9.986V14.484H26.5376V3.707H29.0856V4.721ZM31.7376 7.347C31.7376 6.87033 31.6076 6.502 31.3476 6.242C31.0962 5.97333 30.7842 5.839 30.4116 5.839C30.0389 5.839 29.7226 5.97333 29.4626 6.242C29.2112 6.51067 29.0856 6.879 29.0856 7.347C29.0856 7.82367 29.2112 8.19633 29.4626 8.465C29.7226 8.73367 30.0389 8.868 30.4116 8.868C30.7842 8.868 31.0962 8.73367 31.3476 8.465C31.6076 8.18767 31.7376 7.815 31.7376 7.347ZM37.9215 1.38V11H35.3735V1.38H37.9215ZM40.6595 3.031C40.2089 3.031 39.8449 2.90967 39.5675 2.667C39.2989 2.41567 39.1645 2.10367 39.1645 1.731C39.1645 1.34967 39.2989 1.03333 39.5675 0.782C39.8449 0.530666 40.2089 0.404999 40.6595 0.404999C41.1015 0.404999 41.4569 0.530666 41.7255 0.782C42.0029 1.03333 42.1415 1.34967 42.1415 1.731C42.1415 2.10367 42.0029 2.41567 41.7255 2.667C41.4569 2.90967 41.1015 3.031 40.6595 3.031ZM41.9205 3.707V11H39.3725V3.707H41.9205ZM47.3106 5.826H46.1666V11H43.6056V5.826H42.8126V3.707H43.6056V3.642C43.6056 2.706 43.8786 1.991 44.4246 1.497C44.9792 0.994333 45.7722 0.743 46.8036 0.743C47.0116 0.743 47.1719 0.747333 47.2846 0.755999V2.927C47.2152 2.91833 47.1199 2.914 46.9986 2.914C46.7212 2.914 46.5176 2.979 46.3876 3.109C46.2576 3.23033 46.1839 3.42967 46.1666 3.707H47.3106V5.826ZM50.7692 1.38V11H48.2212V1.38H50.7692ZM55.6132 11.091C54.8852 11.091 54.2309 10.9393 53.6502 10.636C53.0782 10.3327 52.6275 9.89933 52.2982 9.336C51.9689 8.77267 51.8042 8.10967 51.8042 7.347C51.8042 6.593 51.9689 5.93433 52.2982 5.371C52.6362 4.80767 53.0912 4.37433 53.6632 4.071C54.2439 3.76767 54.8982 3.616 55.6262 3.616C56.3542 3.616 57.0042 3.76767 57.5762 4.071C58.1569 4.37433 58.6119 4.80767 58.9412 5.371C59.2792 5.93433 59.4482 6.593 59.4482 7.347C59.4482 8.101 59.2792 8.764 58.9412 9.336C58.6119 9.89933 58.1569 10.3327 57.5762 10.636C56.9955 10.9393 56.3412 11.091 55.6132 11.091ZM55.6132 8.881C55.9685 8.881 56.2632 8.751 56.4972 8.491C56.7399 8.22233 56.8612 7.841 56.8612 7.347C56.8612 6.853 56.7399 6.476 56.4972 6.216C56.2632 5.956 55.9729 5.826 55.6262 5.826C55.2795 5.826 54.9892 5.956 54.7552 6.216C54.5212 6.476 54.4042 6.853 54.4042 7.347C54.4042 7.84967 54.5169 8.231 54.7422 8.491C54.9675 8.751 55.2579 8.881 55.6132 8.881ZM71.2618 3.707L69.4028 11H66.5428L65.5288 6.58L64.4758 11H61.6288L59.7828 3.707H62.3178L63.1368 8.543L64.2158 3.707H66.9458L68.0638 8.556L68.8698 3.707H71.2618Z" fill="#0560FA"/>
</svg>
