<svg width="24" height="24" viewBox="0 0 24 24" fill="none" xmlns="http://www.w3.org/2000/svg">
<path d="M21.6786 20.5808C21.6786 21.7015 20.7675 22.6466 19.6466 22.6466H3.38703C2.26608 22.6466 1.35507 21.7015 1.35507 20.5808V4.32578C1.35507 3.20514 2.26608 2.32745 3.38703 2.32745H12.8712V0.97403H3.38703C1.5192 0.97403 0 2.45974 0 4.32705V20.5808C0 22.4481 1.5192 24 3.38703 24H19.6453C21.5131 24 23.0323 22.4469 23.0323 20.5808V11.1323H21.6773L21.6786 20.5808Z" fill="#8D353A"/>
<path d="M23.2067 0.767977C22.1837 -0.255992 20.3986 -0.255992 19.3743 0.767977L10.2858 9.85396C10.1993 9.94046 10.137 10.0498 10.1077 10.1681L9.15088 13.9982C9.09362 14.2284 9.16106 14.4726 9.32901 14.6418C9.45752 14.7703 9.63056 14.8402 9.80742 14.8402C9.86213 14.8402 9.91684 14.8339 9.97156 14.8199L13.8039 13.8621C13.9235 13.8328 14.0317 13.7705 14.1182 13.684L23.2067 4.59801C23.7182 4.08666 24.0006 3.40613 24.0006 2.68236C24.0006 1.95858 23.7195 1.27933 23.2067 0.767977ZM13.2937 12.5939L10.7388 13.2324L11.3775 10.6782L18.8959 3.1619L20.8121 5.07755L13.2937 12.5939ZM22.2486 3.64018L21.7702 4.11846L19.854 2.20281L20.3324 1.72453C20.8439 1.21318 21.7371 1.21318 22.2486 1.72453C22.5043 1.9802 22.6456 2.31983 22.6456 2.68236C22.6456 3.04488 22.5043 3.38451 22.2486 3.64018Z" fill="#8D353A"/>
</svg>
