<svg width="20" height="20" viewBox="0 0 20 20" fill="none" xmlns="http://www.w3.org/2000/svg">
<path d="M9.99976 5.49048C7.51318 5.49048 5.49023 7.5134 5.49023 10.0001C5.49023 12.4866 7.51318 14.5097 9.99976 14.5097C12.4863 14.5097 14.5094 12.4866 14.5094 10.0001C14.5094 7.51343 12.4863 5.49048 9.99976 5.49048ZM9.99976 13.5627C8.03526 13.5627 6.43718 11.9645 6.43718 10.0001C6.43718 8.03558 8.03526 6.43743 9.99976 6.43743C11.9642 6.43743 13.5625 8.03558 13.5625 10.0001C13.5625 11.9645 11.9642 13.5627 9.99976 13.5627Z" fill="#041C3F"/>
<path d="M12.31 4.61357L10.4099 1.32242C10.3252 1.17597 10.169 1.08569 9.99983 1.08569C9.83076 1.08569 9.67439 1.17597 9.58986 1.32242L7.67931 4.63162C7.57961 4.80429 7.59873 5.02082 7.72711 5.17329C7.81888 5.28227 7.95231 5.34182 8.08941 5.34182C8.14406 5.34182 8.19921 5.33232 8.25261 5.31279C8.81033 5.10779 9.39826 5.00389 9.99983 5.00389C10.6015 5.00389 11.1895 5.10782 11.7472 5.31279C11.8057 5.33422 11.866 5.34352 11.926 5.34159C12.1805 5.33362 12.3844 5.12479 12.3844 4.86839C12.3844 4.77459 12.357 4.68719 12.31 4.61357ZM9.99979 4.05694C9.68376 4.05694 9.37076 4.08119 9.06253 4.12932L9.99979 2.50604L10.937 4.12932C10.6288 4.08119 10.3159 4.05694 9.99979 4.05694Z" fill="#041C3F"/>
<path d="M6.49027 5.30641H2.6898C2.52072 5.30641 2.3645 5.39661 2.27982 5.54308C2.1953 5.68961 2.1953 5.87008 2.27982 6.01656L4.19037 9.32573C4.29007 9.49838 4.48712 9.59003 4.68337 9.55516C4.82362 9.53016 4.94202 9.44433 5.01057 9.32566C5.03787 9.27831 5.05727 9.22583 5.06697 9.16978C5.1683 8.58433 5.3722 8.02326 5.67305 7.50218C5.9739 6.98111 6.3578 6.52391 6.8142 6.14343C6.862 6.10363 6.90037 6.05591 6.92865 6.00296C7.04897 5.77851 6.97002 5.49761 6.74797 5.36936C6.6667 5.32253 6.5774 5.30238 6.49027 5.30641ZM4.853 7.02871C4.695 7.30246 4.55952 7.58556 4.44712 7.87661L3.50987 6.25331H5.38437C5.18852 6.49611 5.01112 6.75496 4.853 7.02871Z" fill="#041C3F"/>
<path d="M4.18022 10.6926L2.28007 13.984C2.19554 14.1303 2.19554 14.3107 2.28007 14.4573C2.36459 14.6039 2.52097 14.6941 2.69004 14.6941H6.51129C6.71054 14.6941 6.88847 14.5693 6.95637 14.3818C7.00497 14.2479 6.98982 14.1025 6.92127 13.9839C6.89397 13.9365 6.85804 13.8935 6.81449 13.857C6.35809 13.4765 5.97419 13.0194 5.67334 12.4983C5.37249 11.9771 5.16859 11.4162 5.06727 10.8307C5.05662 10.7692 5.03437 10.7123 5.00267 10.6614C4.86857 10.4449 4.58574 10.3728 4.36367 10.501C4.28239 10.5478 4.22037 10.6152 4.18022 10.6926ZM4.85322 12.9717C5.01122 13.2454 5.18874 13.5043 5.38459 13.7472H3.51009L4.44734 12.1238C4.55974 12.4148 4.69522 12.6979 4.85322 12.9717Z" fill="#041C3F"/>
<path d="M7.69 15.3865L9.59017 18.6777C9.67485 18.8242 9.83107 18.9144 10.0003 18.9144C10.1693 18.9144 10.3257 18.8243 10.4102 18.6777L12.3208 15.3685C12.4205 15.1959 12.4014 14.9793 12.273 14.8269C12.1812 14.7179 12.0478 14.6582 11.9107 14.6582C11.856 14.6582 11.8009 14.6678 11.7475 14.6874C11.1897 14.8923 10.602 14.9963 10.0003 14.9963C9.39855 14.9963 8.81065 14.8923 8.25292 14.6874C8.19447 14.6659 8.13412 14.6566 8.07417 14.6586C7.8196 14.6665 7.61572 14.8754 7.61572 15.1319C7.6157 15.2256 7.64302 15.3129 7.69 15.3865ZM10.0003 15.9432C10.3163 15.9432 10.6293 15.919 10.9374 15.8708L10.0003 17.4941L9.06302 15.8708C9.37125 15.919 9.68412 15.9432 10.0003 15.9432Z" fill="#041C3F"/>
<path d="M13.5099 14.6937H17.3102C17.4794 14.6937 17.6356 14.6034 17.7202 14.4569C17.8048 14.3103 17.8048 14.1299 17.7202 13.9834L15.8095 10.6742C15.71 10.5016 15.5129 10.4099 15.3167 10.4449C15.1764 10.4699 15.058 10.5556 14.9894 10.6743C14.9621 10.7216 14.9427 10.7743 14.933 10.8303C14.8317 11.4156 14.6278 11.9767 14.327 12.4977C14.0261 13.0189 13.6421 13.4761 13.1858 13.8566C13.138 13.8965 13.0998 13.9443 13.0714 13.9971C12.9511 14.2215 13.03 14.5024 13.2521 14.6306C13.3333 14.6774 13.4226 14.6976 13.5099 14.6937ZM15.1471 12.9712C15.3051 12.6976 15.4405 12.4144 15.5529 12.1234L16.4901 13.7468H14.6157C14.8115 13.5038 14.9889 13.245 15.1471 12.9712Z" fill="#041C3F"/>
<path d="M15.8197 9.30721L17.7199 6.01606C17.8045 5.86958 17.8044 5.68911 17.7199 5.54258C17.6353 5.39613 17.479 5.30591 17.3099 5.30591H13.4887C13.2894 5.30591 13.1115 5.43066 13.0436 5.61811C12.9951 5.75208 13.0101 5.89751 13.0787 6.01618C13.106 6.06351 13.1419 6.10658 13.1855 6.14298C13.6419 6.52346 14.0257 6.98061 14.3266 7.50173C14.6274 8.02273 14.8313 8.58381 14.9328 9.16933C14.9433 9.23066 14.9656 9.28763 14.9973 9.33861C15.1314 9.55498 15.4141 9.62723 15.6363 9.49893C15.7174 9.45211 15.7796 9.38478 15.8197 9.30721ZM15.1467 7.02826C14.9887 6.75451 14.8112 6.49558 14.6155 6.25276H16.4898L15.5526 7.87606C15.4402 7.58503 15.3047 7.30201 15.1467 7.02826Z" fill="#041C3F"/>
</svg>
