<svg width="7" height="9" viewBox="0 0 7 9" fill="none" xmlns="http://www.w3.org/2000/svg">
<path d="M6.56445 2.51074L6.26562 3.64746H0.740234L1.04492 2.51074H6.56445ZM3.73438 8.90332L0.910156 5.55762L0.904297 4.55566H2.28125C2.60156 4.55566 2.86523 4.49316 3.07227 4.36816C3.2793 4.24316 3.43359 4.0752 3.53516 3.86426C3.63672 3.64941 3.6875 3.41113 3.6875 3.14941C3.6875 2.87598 3.64062 2.63379 3.54688 2.42285C3.45312 2.21191 3.30273 2.04785 3.0957 1.93066C2.88867 1.80957 2.61328 1.74902 2.26953 1.74902H0.746094L1.0918 0.37207H2.26953C2.97266 0.37207 3.55859 0.477539 4.02734 0.688477C4.49609 0.899414 4.84766 1.2041 5.08203 1.60254C5.31641 1.99707 5.43359 2.47559 5.43359 3.03809C5.43359 3.53027 5.35547 3.96191 5.19922 4.33301C5.04297 4.7041 4.79492 5.01074 4.45508 5.25293C4.11523 5.49121 3.66797 5.65918 3.11328 5.75684L5.65625 8.82129V8.90332H3.73438ZM6.57617 0.37207L6.27148 1.50293H1.69531L2 0.37207H6.57617Z" fill="black"/>
</svg>
