<svg width="33" height="39" viewBox="0 0 33 39" fill="none" xmlns="http://www.w3.org/2000/svg">
<path d="M9.01393 21.6366L11.9143 20.7744C9.05326 19.1674 7.09359 16.1103 7.09359 12.583C7.13269 7.44841 11.3263 3.21573 16.5 3.21573C21.6737 3.21573 25.8672 7.40956 25.8672 12.583C25.8672 16.1102 23.9076 19.1673 21.0465 20.7744L23.9469 21.6366C26.5337 19.4809 28.2189 16.2279 28.2189 12.6221C28.2189 6.15538 22.9277 0.90332 16.4609 0.90332C9.99383 0.90332 4.78125 6.11604 4.78125 12.583C4.78125 16.2278 6.42737 19.4809 9.01414 21.6366H9.01393Z" fill="#fff"/>
<path d="M19.5645 10.5107L19.2656 11.6475H13.7402L14.0449 10.5107H19.5645ZM16.7344 16.9033L13.9102 13.5576L13.9043 12.5557H15.2812C15.6016 12.5557 15.8652 12.4932 16.0723 12.3682C16.2793 12.2432 16.4336 12.0752 16.5352 11.8643C16.6367 11.6494 16.6875 11.4111 16.6875 11.1494C16.6875 10.876 16.6406 10.6338 16.5469 10.4229C16.4531 10.2119 16.3027 10.0479 16.0957 9.93066C15.8887 9.80957 15.6133 9.74902 15.2695 9.74902H13.7461L14.0918 8.37207H15.2695C15.9727 8.37207 16.5586 8.47754 17.0273 8.68848C17.4961 8.89941 17.8477 9.2041 18.082 9.60254C18.3164 9.99707 18.4336 10.4756 18.4336 11.0381C18.4336 11.5303 18.3555 11.9619 18.1992 12.333C18.043 12.7041 17.7949 13.0107 17.4551 13.2529C17.1152 13.4912 16.668 13.6592 16.1133 13.7568L18.6562 16.8213V16.9033H16.7344ZM19.5762 8.37207L19.2715 9.50293H14.6953L15 8.37207H19.5762Z" fill="#fff"/>
<path d="M31.511 28.1423C32.4124 27.8678 32.4124 26.5747 31.511 26.3393L18.4988 22.4591C17.8326 22.263 17.1663 22.1846 16.5 22.1846C15.8337 22.1846 15.1675 22.263 14.5012 22.4591L1.48902 26.3393C0.587644 26.6138 0.587644 27.8678 1.48902 28.1423L6.42732 29.6317V34.0998C6.42732 35.0012 7.01511 35.8244 7.91674 36.0986L11.1698 37.0393C14.6971 38.0976 18.499 38.0976 22.0656 37.0393L25.2796 36.0986C26.1418 35.8241 26.769 35.0403 26.769 34.0998L26.7687 29.5533L29.7082 28.691V33.2375H29.5515C29.3164 33.2375 29.1204 33.4335 29.1204 33.6687V35.785C29.1204 36.0201 29.3164 36.2161 29.5515 36.2161H29.63L28.9635 37.5095C28.8459 37.784 29.0026 38.0973 29.3162 38.0973H31.3543C31.6679 38.0973 31.8639 37.7837 31.707 37.5095L31.0407 36.177H31.1192C31.3543 36.177 31.5503 35.981 31.5503 35.7458V33.6295C31.5503 33.3944 31.3543 33.1984 31.1192 33.1984H30.9625V28.2989L31.511 28.1423Z" fill="#fff"/>
</svg>
