<svg width="24" height="24" viewBox="0 0 24 24" fill="none" xmlns="http://www.w3.org/2000/svg">
<circle cx="12" cy="12" r="12" fill="#A71B4A"/>
<path d="M8.67057 9.33317V7.99984C8.67057 6.15889 10.163 4.6665 12.0039 4.6665C13.8449 4.6665 15.3373 6.15889 15.3373 7.99984V9.33317H17.3373C17.7055 9.33317 18.0039 9.63165 18.0039 9.99984V17.9998C18.0039 18.368 17.7055 18.6665 17.3373 18.6665H6.67057C6.30239 18.6665 6.00391 18.368 6.00391 17.9998V9.99984C6.00391 9.63165 6.30239 9.33317 6.67057 9.33317H8.67057ZM8.67057 10.6665H7.33724V17.3332H16.6706V10.6665H15.3373V11.9998H14.0039V10.6665H10.0039V11.9998H8.67057V10.6665ZM10.0039 9.33317H14.0039V7.99984C14.0039 6.89527 13.1085 5.99984 12.0039 5.99984C10.8993 5.99984 10.0039 6.89527 10.0039 7.99984V9.33317Z" fill="white"/>
</svg>
